%TF.GenerationSoftware,KiCad,Pcbnew,(5.1.6-0)*%
%TF.CreationDate,2023-01-04T15:53:52-05:00*%
%TF.ProjectId,AB MUTE,4142204d-5554-4452-9e6b-696361645f70,rev?*%
%TF.SameCoordinates,Original*%
%TF.FileFunction,Legend,Top*%
%TF.FilePolarity,Positive*%
%FSLAX46Y46*%
G04 Gerber Fmt 4.6, Leading zero omitted, Abs format (unit mm)*
G04 Created by KiCad (PCBNEW (5.1.6-0)) date 2023-01-04 15:53:52*
%MOMM*%
%LPD*%
G01*
G04 APERTURE LIST*
%ADD10C,0.100000*%
%ADD11C,0.120000*%
%ADD12C,0.150000*%
G04 APERTURE END LIST*
D10*
%TO.C,SW8*%
X136552000Y-131160000D02*
X136552000Y-130810000D01*
X136927000Y-131160000D02*
X136552000Y-131160000D01*
X149452000Y-131160000D02*
X149052000Y-131160000D01*
X149452000Y-131160000D02*
X149452000Y-130785000D01*
X149452000Y-124110000D02*
X149452000Y-124535000D01*
X149452000Y-124110000D02*
X149002000Y-124110000D01*
X136577000Y-124110000D02*
X137027000Y-124110000D01*
X136552000Y-124110000D02*
X136552000Y-124535000D01*
%TO.C,SW7*%
X136552000Y-118206000D02*
X136552000Y-117856000D01*
X136927000Y-118206000D02*
X136552000Y-118206000D01*
X149452000Y-118206000D02*
X149052000Y-118206000D01*
X149452000Y-118206000D02*
X149452000Y-117831000D01*
X149452000Y-111156000D02*
X149452000Y-111581000D01*
X149452000Y-111156000D02*
X149002000Y-111156000D01*
X136577000Y-111156000D02*
X137027000Y-111156000D01*
X136552000Y-111156000D02*
X136552000Y-111581000D01*
%TO.C,SW6*%
X136298000Y-105633000D02*
X136298000Y-105283000D01*
X136673000Y-105633000D02*
X136298000Y-105633000D01*
X149198000Y-105633000D02*
X148798000Y-105633000D01*
X149198000Y-105633000D02*
X149198000Y-105258000D01*
X149198000Y-98583000D02*
X149198000Y-99008000D01*
X149198000Y-98583000D02*
X148748000Y-98583000D01*
X136323000Y-98583000D02*
X136773000Y-98583000D01*
X136298000Y-98583000D02*
X136298000Y-99008000D01*
%TO.C,SW5*%
X136425000Y-54706000D02*
X136425000Y-54356000D01*
X136800000Y-54706000D02*
X136425000Y-54706000D01*
X149325000Y-54706000D02*
X148925000Y-54706000D01*
X149325000Y-54706000D02*
X149325000Y-54331000D01*
X149325000Y-47656000D02*
X149325000Y-48081000D01*
X149325000Y-47656000D02*
X148875000Y-47656000D01*
X136450000Y-47656000D02*
X136900000Y-47656000D01*
X136425000Y-47656000D02*
X136425000Y-48081000D01*
%TO.C,SW4*%
X136425000Y-92806000D02*
X136425000Y-92456000D01*
X136800000Y-92806000D02*
X136425000Y-92806000D01*
X149325000Y-92806000D02*
X148925000Y-92806000D01*
X149325000Y-92806000D02*
X149325000Y-92431000D01*
X149325000Y-85756000D02*
X149325000Y-86181000D01*
X149325000Y-85756000D02*
X148875000Y-85756000D01*
X136450000Y-85756000D02*
X136900000Y-85756000D01*
X136425000Y-85756000D02*
X136425000Y-86181000D01*
%TO.C,SW3*%
X136425000Y-80360000D02*
X136425000Y-80010000D01*
X136800000Y-80360000D02*
X136425000Y-80360000D01*
X149325000Y-80360000D02*
X148925000Y-80360000D01*
X149325000Y-80360000D02*
X149325000Y-79985000D01*
X149325000Y-73310000D02*
X149325000Y-73735000D01*
X149325000Y-73310000D02*
X148875000Y-73310000D01*
X136450000Y-73310000D02*
X136900000Y-73310000D01*
X136425000Y-73310000D02*
X136425000Y-73735000D01*
%TO.C,SW2*%
X136425000Y-67152000D02*
X136425000Y-66802000D01*
X136800000Y-67152000D02*
X136425000Y-67152000D01*
X149325000Y-67152000D02*
X148925000Y-67152000D01*
X149325000Y-67152000D02*
X149325000Y-66777000D01*
X149325000Y-60102000D02*
X149325000Y-60527000D01*
X149325000Y-60102000D02*
X148875000Y-60102000D01*
X136450000Y-60102000D02*
X136900000Y-60102000D01*
X136425000Y-60102000D02*
X136425000Y-60527000D01*
%TO.C,SW1*%
X136425000Y-41498000D02*
X136425000Y-41148000D01*
X136800000Y-41498000D02*
X136425000Y-41498000D01*
X149325000Y-41498000D02*
X148925000Y-41498000D01*
X149325000Y-41498000D02*
X149325000Y-41123000D01*
X149325000Y-34448000D02*
X149325000Y-34873000D01*
X149325000Y-34448000D02*
X148875000Y-34448000D01*
X136450000Y-34448000D02*
X136900000Y-34448000D01*
X136425000Y-34448000D02*
X136425000Y-34873000D01*
D11*
%TO.C,R8*%
X146339000Y-122138000D02*
X146339000Y-122468000D01*
X146339000Y-122468000D02*
X139919000Y-122468000D01*
X139919000Y-122468000D02*
X139919000Y-122138000D01*
X146339000Y-120178000D02*
X146339000Y-119848000D01*
X146339000Y-119848000D02*
X139919000Y-119848000D01*
X139919000Y-119848000D02*
X139919000Y-120178000D01*
%TO.C,R7*%
X146212000Y-109311000D02*
X146212000Y-109641000D01*
X146212000Y-109641000D02*
X139792000Y-109641000D01*
X139792000Y-109641000D02*
X139792000Y-109311000D01*
X146212000Y-107351000D02*
X146212000Y-107021000D01*
X146212000Y-107021000D02*
X139792000Y-107021000D01*
X139792000Y-107021000D02*
X139792000Y-107351000D01*
%TO.C,R6*%
X146085000Y-96611000D02*
X146085000Y-96941000D01*
X146085000Y-96941000D02*
X139665000Y-96941000D01*
X139665000Y-96941000D02*
X139665000Y-96611000D01*
X146085000Y-94651000D02*
X146085000Y-94321000D01*
X146085000Y-94321000D02*
X139665000Y-94321000D01*
X139665000Y-94321000D02*
X139665000Y-94651000D01*
%TO.C,R5*%
X146085000Y-45684000D02*
X146085000Y-46014000D01*
X146085000Y-46014000D02*
X139665000Y-46014000D01*
X139665000Y-46014000D02*
X139665000Y-45684000D01*
X146085000Y-43724000D02*
X146085000Y-43394000D01*
X146085000Y-43394000D02*
X139665000Y-43394000D01*
X139665000Y-43394000D02*
X139665000Y-43724000D01*
%TO.C,R4*%
X145831000Y-83657000D02*
X145831000Y-83987000D01*
X145831000Y-83987000D02*
X139411000Y-83987000D01*
X139411000Y-83987000D02*
X139411000Y-83657000D01*
X145831000Y-81697000D02*
X145831000Y-81367000D01*
X145831000Y-81367000D02*
X139411000Y-81367000D01*
X139411000Y-81367000D02*
X139411000Y-81697000D01*
%TO.C,R3*%
X145958000Y-70576000D02*
X145958000Y-70906000D01*
X145958000Y-70906000D02*
X139538000Y-70906000D01*
X139538000Y-70906000D02*
X139538000Y-70576000D01*
X145958000Y-68616000D02*
X145958000Y-68286000D01*
X145958000Y-68286000D02*
X139538000Y-68286000D01*
X139538000Y-68286000D02*
X139538000Y-68616000D01*
%TO.C,R2*%
X146085000Y-58257000D02*
X146085000Y-58587000D01*
X146085000Y-58587000D02*
X139665000Y-58587000D01*
X139665000Y-58587000D02*
X139665000Y-58257000D01*
X146085000Y-56297000D02*
X146085000Y-55967000D01*
X146085000Y-55967000D02*
X139665000Y-55967000D01*
X139665000Y-55967000D02*
X139665000Y-56297000D01*
%TO.C,R1*%
X146085000Y-34127000D02*
X146085000Y-34457000D01*
X146085000Y-34457000D02*
X139665000Y-34457000D01*
X139665000Y-34457000D02*
X139665000Y-34127000D01*
X146085000Y-32167000D02*
X146085000Y-31837000D01*
X146085000Y-31837000D02*
X139665000Y-31837000D01*
X139665000Y-31837000D02*
X139665000Y-32167000D01*
D12*
%TO.C,J24*%
X185856000Y-133835000D02*
X176856000Y-133835000D01*
X185856000Y-122935000D02*
X176856000Y-122935000D01*
X185856000Y-133835000D02*
X185856000Y-122935000D01*
X176856000Y-133835000D02*
X176856000Y-122935000D01*
X183156000Y-127635000D02*
G75*
G03*
X183156000Y-127635000I-1800000J0D01*
G01*
X181356000Y-129435000D02*
X181356000Y-125835000D01*
X183156000Y-127635000D02*
X179556000Y-127635000D01*
%TO.C,J23*%
X176856000Y-108481000D02*
X185856000Y-108481000D01*
X176856000Y-119381000D02*
X185856000Y-119381000D01*
X176856000Y-108481000D02*
X176856000Y-119381000D01*
X185856000Y-108481000D02*
X185856000Y-119381000D01*
X183156000Y-114681000D02*
G75*
G03*
X183156000Y-114681000I-1800000J0D01*
G01*
X181356000Y-112881000D02*
X181356000Y-116481000D01*
X179556000Y-114681000D02*
X183156000Y-114681000D01*
%TO.C,J22*%
X185856000Y-108259000D02*
X176856000Y-108259000D01*
X185856000Y-97359000D02*
X176856000Y-97359000D01*
X185856000Y-108259000D02*
X185856000Y-97359000D01*
X176856000Y-108259000D02*
X176856000Y-97359000D01*
X183156000Y-102059000D02*
G75*
G03*
X183156000Y-102059000I-1800000J0D01*
G01*
X181356000Y-103859000D02*
X181356000Y-100259000D01*
X183156000Y-102059000D02*
X179556000Y-102059000D01*
%TO.C,J21*%
X176331000Y-133835000D02*
X167331000Y-133835000D01*
X176331000Y-122935000D02*
X167331000Y-122935000D01*
X176331000Y-133835000D02*
X176331000Y-122935000D01*
X167331000Y-133835000D02*
X167331000Y-122935000D01*
X173631000Y-127635000D02*
G75*
G03*
X173631000Y-127635000I-1800000J0D01*
G01*
X171831000Y-129435000D02*
X171831000Y-125835000D01*
X173631000Y-127635000D02*
X170031000Y-127635000D01*
%TO.C,J20*%
X166806000Y-133835000D02*
X157806000Y-133835000D01*
X166806000Y-122935000D02*
X157806000Y-122935000D01*
X166806000Y-133835000D02*
X166806000Y-122935000D01*
X157806000Y-133835000D02*
X157806000Y-122935000D01*
X164106000Y-127635000D02*
G75*
G03*
X164106000Y-127635000I-1800000J0D01*
G01*
X162306000Y-129435000D02*
X162306000Y-125835000D01*
X164106000Y-127635000D02*
X160506000Y-127635000D01*
%TO.C,J19*%
X167331000Y-108481000D02*
X176331000Y-108481000D01*
X167331000Y-119381000D02*
X176331000Y-119381000D01*
X167331000Y-108481000D02*
X167331000Y-119381000D01*
X176331000Y-108481000D02*
X176331000Y-119381000D01*
X173631000Y-114681000D02*
G75*
G03*
X173631000Y-114681000I-1800000J0D01*
G01*
X171831000Y-112881000D02*
X171831000Y-116481000D01*
X170031000Y-114681000D02*
X173631000Y-114681000D01*
%TO.C,J18*%
X157806000Y-108481000D02*
X166806000Y-108481000D01*
X157806000Y-119381000D02*
X166806000Y-119381000D01*
X157806000Y-108481000D02*
X157806000Y-119381000D01*
X166806000Y-108481000D02*
X166806000Y-119381000D01*
X164106000Y-114681000D02*
G75*
G03*
X164106000Y-114681000I-1800000J0D01*
G01*
X162306000Y-112881000D02*
X162306000Y-116481000D01*
X160506000Y-114681000D02*
X164106000Y-114681000D01*
%TO.C,J17*%
X176331000Y-108259000D02*
X167331000Y-108259000D01*
X176331000Y-97359000D02*
X167331000Y-97359000D01*
X176331000Y-108259000D02*
X176331000Y-97359000D01*
X167331000Y-108259000D02*
X167331000Y-97359000D01*
X173631000Y-102059000D02*
G75*
G03*
X173631000Y-102059000I-1800000J0D01*
G01*
X171831000Y-103859000D02*
X171831000Y-100259000D01*
X173631000Y-102059000D02*
X170031000Y-102059000D01*
%TO.C,J16*%
X166806000Y-108259000D02*
X157806000Y-108259000D01*
X166806000Y-97359000D02*
X157806000Y-97359000D01*
X166806000Y-108259000D02*
X166806000Y-97359000D01*
X157806000Y-108259000D02*
X157806000Y-97359000D01*
X164106000Y-102059000D02*
G75*
G03*
X164106000Y-102059000I-1800000J0D01*
G01*
X162306000Y-103859000D02*
X162306000Y-100259000D01*
X164106000Y-102059000D02*
X160506000Y-102059000D01*
%TO.C,J15*%
X185856000Y-57254000D02*
X176856000Y-57254000D01*
X185856000Y-46354000D02*
X176856000Y-46354000D01*
X185856000Y-57254000D02*
X185856000Y-46354000D01*
X176856000Y-57254000D02*
X176856000Y-46354000D01*
X183156000Y-51054000D02*
G75*
G03*
X183156000Y-51054000I-1800000J0D01*
G01*
X181356000Y-52854000D02*
X181356000Y-49254000D01*
X183156000Y-51054000D02*
X179556000Y-51054000D01*
%TO.C,J14*%
X176856000Y-82954000D02*
X185856000Y-82954000D01*
X176856000Y-93854000D02*
X185856000Y-93854000D01*
X176856000Y-82954000D02*
X176856000Y-93854000D01*
X185856000Y-82954000D02*
X185856000Y-93854000D01*
X183156000Y-89154000D02*
G75*
G03*
X183156000Y-89154000I-1800000J0D01*
G01*
X181356000Y-87354000D02*
X181356000Y-90954000D01*
X179556000Y-89154000D02*
X183156000Y-89154000D01*
%TO.C,J13*%
X185856000Y-82781000D02*
X176856000Y-82781000D01*
X185856000Y-71881000D02*
X176856000Y-71881000D01*
X185856000Y-82781000D02*
X185856000Y-71881000D01*
X176856000Y-82781000D02*
X176856000Y-71881000D01*
X183156000Y-76581000D02*
G75*
G03*
X183156000Y-76581000I-1800000J0D01*
G01*
X181356000Y-78381000D02*
X181356000Y-74781000D01*
X183156000Y-76581000D02*
X179556000Y-76581000D01*
%TO.C,J12*%
X176856000Y-57427000D02*
X185856000Y-57427000D01*
X176856000Y-68327000D02*
X185856000Y-68327000D01*
X176856000Y-57427000D02*
X176856000Y-68327000D01*
X185856000Y-57427000D02*
X185856000Y-68327000D01*
X183156000Y-63627000D02*
G75*
G03*
X183156000Y-63627000I-1800000J0D01*
G01*
X181356000Y-61827000D02*
X181356000Y-65427000D01*
X179556000Y-63627000D02*
X183156000Y-63627000D01*
%TO.C,J11*%
X176331000Y-57254000D02*
X167331000Y-57254000D01*
X176331000Y-46354000D02*
X167331000Y-46354000D01*
X176331000Y-57254000D02*
X176331000Y-46354000D01*
X167331000Y-57254000D02*
X167331000Y-46354000D01*
X173631000Y-51054000D02*
G75*
G03*
X173631000Y-51054000I-1800000J0D01*
G01*
X171831000Y-52854000D02*
X171831000Y-49254000D01*
X173631000Y-51054000D02*
X170031000Y-51054000D01*
%TO.C,J10*%
X166806000Y-57254000D02*
X157806000Y-57254000D01*
X166806000Y-46354000D02*
X157806000Y-46354000D01*
X166806000Y-57254000D02*
X166806000Y-46354000D01*
X157806000Y-57254000D02*
X157806000Y-46354000D01*
X164106000Y-51054000D02*
G75*
G03*
X164106000Y-51054000I-1800000J0D01*
G01*
X162306000Y-52854000D02*
X162306000Y-49254000D01*
X164106000Y-51054000D02*
X160506000Y-51054000D01*
%TO.C,J9*%
X167331000Y-82954000D02*
X176331000Y-82954000D01*
X167331000Y-93854000D02*
X176331000Y-93854000D01*
X167331000Y-82954000D02*
X167331000Y-93854000D01*
X176331000Y-82954000D02*
X176331000Y-93854000D01*
X173631000Y-89154000D02*
G75*
G03*
X173631000Y-89154000I-1800000J0D01*
G01*
X171831000Y-87354000D02*
X171831000Y-90954000D01*
X170031000Y-89154000D02*
X173631000Y-89154000D01*
%TO.C,J8*%
X157806000Y-82954000D02*
X166806000Y-82954000D01*
X157806000Y-93854000D02*
X166806000Y-93854000D01*
X157806000Y-82954000D02*
X157806000Y-93854000D01*
X166806000Y-82954000D02*
X166806000Y-93854000D01*
X164106000Y-89154000D02*
G75*
G03*
X164106000Y-89154000I-1800000J0D01*
G01*
X162306000Y-87354000D02*
X162306000Y-90954000D01*
X160506000Y-89154000D02*
X164106000Y-89154000D01*
%TO.C,J7*%
X176331000Y-82781000D02*
X167331000Y-82781000D01*
X176331000Y-71881000D02*
X167331000Y-71881000D01*
X176331000Y-82781000D02*
X176331000Y-71881000D01*
X167331000Y-82781000D02*
X167331000Y-71881000D01*
X173631000Y-76581000D02*
G75*
G03*
X173631000Y-76581000I-1800000J0D01*
G01*
X171831000Y-78381000D02*
X171831000Y-74781000D01*
X173631000Y-76581000D02*
X170031000Y-76581000D01*
%TO.C,J6*%
X166806000Y-82781000D02*
X157806000Y-82781000D01*
X166806000Y-71881000D02*
X157806000Y-71881000D01*
X166806000Y-82781000D02*
X166806000Y-71881000D01*
X157806000Y-82781000D02*
X157806000Y-71881000D01*
X164106000Y-76581000D02*
G75*
G03*
X164106000Y-76581000I-1800000J0D01*
G01*
X162306000Y-78381000D02*
X162306000Y-74781000D01*
X164106000Y-76581000D02*
X160506000Y-76581000D01*
%TO.C,J5*%
X167331000Y-57427000D02*
X176331000Y-57427000D01*
X167331000Y-68327000D02*
X176331000Y-68327000D01*
X167331000Y-57427000D02*
X167331000Y-68327000D01*
X176331000Y-57427000D02*
X176331000Y-68327000D01*
X173631000Y-63627000D02*
G75*
G03*
X173631000Y-63627000I-1800000J0D01*
G01*
X171831000Y-61827000D02*
X171831000Y-65427000D01*
X170031000Y-63627000D02*
X173631000Y-63627000D01*
%TO.C,J4*%
X157806000Y-57427000D02*
X166806000Y-57427000D01*
X157806000Y-68327000D02*
X166806000Y-68327000D01*
X157806000Y-57427000D02*
X157806000Y-68327000D01*
X166806000Y-57427000D02*
X166806000Y-68327000D01*
X164106000Y-63627000D02*
G75*
G03*
X164106000Y-63627000I-1800000J0D01*
G01*
X162306000Y-61827000D02*
X162306000Y-65427000D01*
X160506000Y-63627000D02*
X164106000Y-63627000D01*
%TO.C,J3*%
X176856000Y-31900000D02*
X185856000Y-31900000D01*
X176856000Y-42800000D02*
X185856000Y-42800000D01*
X176856000Y-31900000D02*
X176856000Y-42800000D01*
X185856000Y-31900000D02*
X185856000Y-42800000D01*
X183156000Y-38100000D02*
G75*
G03*
X183156000Y-38100000I-1800000J0D01*
G01*
X181356000Y-36300000D02*
X181356000Y-39900000D01*
X179556000Y-38100000D02*
X183156000Y-38100000D01*
%TO.C,J2*%
X167331000Y-31900000D02*
X176331000Y-31900000D01*
X167331000Y-42800000D02*
X176331000Y-42800000D01*
X167331000Y-31900000D02*
X167331000Y-42800000D01*
X176331000Y-31900000D02*
X176331000Y-42800000D01*
X173631000Y-38100000D02*
G75*
G03*
X173631000Y-38100000I-1800000J0D01*
G01*
X171831000Y-36300000D02*
X171831000Y-39900000D01*
X170031000Y-38100000D02*
X173631000Y-38100000D01*
%TO.C,J1*%
X157806000Y-31900000D02*
X166806000Y-31900000D01*
X157806000Y-42800000D02*
X166806000Y-42800000D01*
X157806000Y-31900000D02*
X157806000Y-42800000D01*
X166806000Y-31900000D02*
X166806000Y-42800000D01*
X164106000Y-38100000D02*
G75*
G03*
X164106000Y-38100000I-1800000J0D01*
G01*
X162306000Y-36300000D02*
X162306000Y-39900000D01*
X160506000Y-38100000D02*
X164106000Y-38100000D01*
D11*
%TO.C,D16*%
X150485000Y-130930000D02*
X150355000Y-130930000D01*
X150355000Y-130930000D02*
X150355000Y-125610000D01*
X150355000Y-125610000D02*
X150485000Y-125610000D01*
X153045000Y-130930000D02*
X153175000Y-130930000D01*
X153175000Y-130930000D02*
X153175000Y-125610000D01*
X153175000Y-125610000D02*
X153045000Y-125610000D01*
X150355000Y-130090000D02*
X153175000Y-130090000D01*
%TO.C,D15*%
X154295000Y-130930000D02*
X154165000Y-130930000D01*
X154165000Y-130930000D02*
X154165000Y-125610000D01*
X154165000Y-125610000D02*
X154295000Y-125610000D01*
X156855000Y-130930000D02*
X156985000Y-130930000D01*
X156985000Y-130930000D02*
X156985000Y-125610000D01*
X156985000Y-125610000D02*
X156855000Y-125610000D01*
X154165000Y-130090000D02*
X156985000Y-130090000D01*
%TO.C,D14*%
X150485000Y-116579000D02*
X150355000Y-116579000D01*
X150355000Y-116579000D02*
X150355000Y-111259000D01*
X150355000Y-111259000D02*
X150485000Y-111259000D01*
X153045000Y-116579000D02*
X153175000Y-116579000D01*
X153175000Y-116579000D02*
X153175000Y-111259000D01*
X153175000Y-111259000D02*
X153045000Y-111259000D01*
X150355000Y-115739000D02*
X153175000Y-115739000D01*
%TO.C,D13*%
X154295000Y-116579000D02*
X154165000Y-116579000D01*
X154165000Y-116579000D02*
X154165000Y-111259000D01*
X154165000Y-111259000D02*
X154295000Y-111259000D01*
X156855000Y-116579000D02*
X156985000Y-116579000D01*
X156985000Y-116579000D02*
X156985000Y-111259000D01*
X156985000Y-111259000D02*
X156855000Y-111259000D01*
X154165000Y-115739000D02*
X156985000Y-115739000D01*
%TO.C,D12*%
X150485000Y-105403000D02*
X150355000Y-105403000D01*
X150355000Y-105403000D02*
X150355000Y-100083000D01*
X150355000Y-100083000D02*
X150485000Y-100083000D01*
X153045000Y-105403000D02*
X153175000Y-105403000D01*
X153175000Y-105403000D02*
X153175000Y-100083000D01*
X153175000Y-100083000D02*
X153045000Y-100083000D01*
X150355000Y-104563000D02*
X153175000Y-104563000D01*
%TO.C,D11*%
X154295000Y-105403000D02*
X154165000Y-105403000D01*
X154165000Y-105403000D02*
X154165000Y-100083000D01*
X154165000Y-100083000D02*
X154295000Y-100083000D01*
X156855000Y-105403000D02*
X156985000Y-105403000D01*
X156985000Y-105403000D02*
X156985000Y-100083000D01*
X156985000Y-100083000D02*
X156855000Y-100083000D01*
X154165000Y-104563000D02*
X156985000Y-104563000D01*
%TO.C,D10*%
X150358000Y-54476000D02*
X150228000Y-54476000D01*
X150228000Y-54476000D02*
X150228000Y-49156000D01*
X150228000Y-49156000D02*
X150358000Y-49156000D01*
X152918000Y-54476000D02*
X153048000Y-54476000D01*
X153048000Y-54476000D02*
X153048000Y-49156000D01*
X153048000Y-49156000D02*
X152918000Y-49156000D01*
X150228000Y-53636000D02*
X153048000Y-53636000D01*
%TO.C,D9*%
X154295000Y-54476000D02*
X154165000Y-54476000D01*
X154165000Y-54476000D02*
X154165000Y-49156000D01*
X154165000Y-49156000D02*
X154295000Y-49156000D01*
X156855000Y-54476000D02*
X156985000Y-54476000D01*
X156985000Y-54476000D02*
X156985000Y-49156000D01*
X156985000Y-49156000D02*
X156855000Y-49156000D01*
X154165000Y-53636000D02*
X156985000Y-53636000D01*
%TO.C,D8*%
X150485000Y-91052000D02*
X150355000Y-91052000D01*
X150355000Y-91052000D02*
X150355000Y-85732000D01*
X150355000Y-85732000D02*
X150485000Y-85732000D01*
X153045000Y-91052000D02*
X153175000Y-91052000D01*
X153175000Y-91052000D02*
X153175000Y-85732000D01*
X153175000Y-85732000D02*
X153045000Y-85732000D01*
X150355000Y-90212000D02*
X153175000Y-90212000D01*
%TO.C,D7*%
X154295000Y-91052000D02*
X154165000Y-91052000D01*
X154165000Y-91052000D02*
X154165000Y-85732000D01*
X154165000Y-85732000D02*
X154295000Y-85732000D01*
X156855000Y-91052000D02*
X156985000Y-91052000D01*
X156985000Y-91052000D02*
X156985000Y-85732000D01*
X156985000Y-85732000D02*
X156855000Y-85732000D01*
X154165000Y-90212000D02*
X156985000Y-90212000D01*
%TO.C,D6*%
X150485000Y-80003000D02*
X150355000Y-80003000D01*
X150355000Y-80003000D02*
X150355000Y-74683000D01*
X150355000Y-74683000D02*
X150485000Y-74683000D01*
X153045000Y-80003000D02*
X153175000Y-80003000D01*
X153175000Y-80003000D02*
X153175000Y-74683000D01*
X153175000Y-74683000D02*
X153045000Y-74683000D01*
X150355000Y-79163000D02*
X153175000Y-79163000D01*
%TO.C,D5*%
X154295000Y-80003000D02*
X154165000Y-80003000D01*
X154165000Y-80003000D02*
X154165000Y-74683000D01*
X154165000Y-74683000D02*
X154295000Y-74683000D01*
X156855000Y-80003000D02*
X156985000Y-80003000D01*
X156985000Y-80003000D02*
X156985000Y-74683000D01*
X156985000Y-74683000D02*
X156855000Y-74683000D01*
X154165000Y-79163000D02*
X156985000Y-79163000D01*
%TO.C,D4*%
X150358000Y-65525000D02*
X150228000Y-65525000D01*
X150228000Y-65525000D02*
X150228000Y-60205000D01*
X150228000Y-60205000D02*
X150358000Y-60205000D01*
X152918000Y-65525000D02*
X153048000Y-65525000D01*
X153048000Y-65525000D02*
X153048000Y-60205000D01*
X153048000Y-60205000D02*
X152918000Y-60205000D01*
X150228000Y-64685000D02*
X153048000Y-64685000D01*
%TO.C,D3*%
X154295000Y-65525000D02*
X154165000Y-65525000D01*
X154165000Y-65525000D02*
X154165000Y-60205000D01*
X154165000Y-60205000D02*
X154295000Y-60205000D01*
X156855000Y-65525000D02*
X156985000Y-65525000D01*
X156985000Y-65525000D02*
X156985000Y-60205000D01*
X156985000Y-60205000D02*
X156855000Y-60205000D01*
X154165000Y-64685000D02*
X156985000Y-64685000D01*
%TO.C,D2*%
X150485000Y-39998000D02*
X150355000Y-39998000D01*
X150355000Y-39998000D02*
X150355000Y-34678000D01*
X150355000Y-34678000D02*
X150485000Y-34678000D01*
X153045000Y-39998000D02*
X153175000Y-39998000D01*
X153175000Y-39998000D02*
X153175000Y-34678000D01*
X153175000Y-34678000D02*
X153045000Y-34678000D01*
X150355000Y-39158000D02*
X153175000Y-39158000D01*
%TO.C,D1*%
X154295000Y-39998000D02*
X154165000Y-39998000D01*
X154165000Y-39998000D02*
X154165000Y-34678000D01*
X154165000Y-34678000D02*
X154295000Y-34678000D01*
X156855000Y-39998000D02*
X156985000Y-39998000D01*
X156985000Y-39998000D02*
X156985000Y-34678000D01*
X156985000Y-34678000D02*
X156855000Y-34678000D01*
X154165000Y-39158000D02*
X156985000Y-39158000D01*
%TO.C,SW8*%
D12*
X141528666Y-132589761D02*
X141671523Y-132637380D01*
X141909619Y-132637380D01*
X142004857Y-132589761D01*
X142052476Y-132542142D01*
X142100095Y-132446904D01*
X142100095Y-132351666D01*
X142052476Y-132256428D01*
X142004857Y-132208809D01*
X141909619Y-132161190D01*
X141719142Y-132113571D01*
X141623904Y-132065952D01*
X141576285Y-132018333D01*
X141528666Y-131923095D01*
X141528666Y-131827857D01*
X141576285Y-131732619D01*
X141623904Y-131685000D01*
X141719142Y-131637380D01*
X141957238Y-131637380D01*
X142100095Y-131685000D01*
X142433428Y-131637380D02*
X142671523Y-132637380D01*
X142862000Y-131923095D01*
X143052476Y-132637380D01*
X143290571Y-131637380D01*
X143814380Y-132065952D02*
X143719142Y-132018333D01*
X143671523Y-131970714D01*
X143623904Y-131875476D01*
X143623904Y-131827857D01*
X143671523Y-131732619D01*
X143719142Y-131685000D01*
X143814380Y-131637380D01*
X144004857Y-131637380D01*
X144100095Y-131685000D01*
X144147714Y-131732619D01*
X144195333Y-131827857D01*
X144195333Y-131875476D01*
X144147714Y-131970714D01*
X144100095Y-132018333D01*
X144004857Y-132065952D01*
X143814380Y-132065952D01*
X143719142Y-132113571D01*
X143671523Y-132161190D01*
X143623904Y-132256428D01*
X143623904Y-132446904D01*
X143671523Y-132542142D01*
X143719142Y-132589761D01*
X143814380Y-132637380D01*
X144004857Y-132637380D01*
X144100095Y-132589761D01*
X144147714Y-132542142D01*
X144195333Y-132446904D01*
X144195333Y-132256428D01*
X144147714Y-132161190D01*
X144100095Y-132113571D01*
X144004857Y-132065952D01*
%TO.C,SW7*%
X141528666Y-119635761D02*
X141671523Y-119683380D01*
X141909619Y-119683380D01*
X142004857Y-119635761D01*
X142052476Y-119588142D01*
X142100095Y-119492904D01*
X142100095Y-119397666D01*
X142052476Y-119302428D01*
X142004857Y-119254809D01*
X141909619Y-119207190D01*
X141719142Y-119159571D01*
X141623904Y-119111952D01*
X141576285Y-119064333D01*
X141528666Y-118969095D01*
X141528666Y-118873857D01*
X141576285Y-118778619D01*
X141623904Y-118731000D01*
X141719142Y-118683380D01*
X141957238Y-118683380D01*
X142100095Y-118731000D01*
X142433428Y-118683380D02*
X142671523Y-119683380D01*
X142862000Y-118969095D01*
X143052476Y-119683380D01*
X143290571Y-118683380D01*
X143576285Y-118683380D02*
X144242952Y-118683380D01*
X143814380Y-119683380D01*
%TO.C,SW6*%
X141274666Y-107062761D02*
X141417523Y-107110380D01*
X141655619Y-107110380D01*
X141750857Y-107062761D01*
X141798476Y-107015142D01*
X141846095Y-106919904D01*
X141846095Y-106824666D01*
X141798476Y-106729428D01*
X141750857Y-106681809D01*
X141655619Y-106634190D01*
X141465142Y-106586571D01*
X141369904Y-106538952D01*
X141322285Y-106491333D01*
X141274666Y-106396095D01*
X141274666Y-106300857D01*
X141322285Y-106205619D01*
X141369904Y-106158000D01*
X141465142Y-106110380D01*
X141703238Y-106110380D01*
X141846095Y-106158000D01*
X142179428Y-106110380D02*
X142417523Y-107110380D01*
X142608000Y-106396095D01*
X142798476Y-107110380D01*
X143036571Y-106110380D01*
X143846095Y-106110380D02*
X143655619Y-106110380D01*
X143560380Y-106158000D01*
X143512761Y-106205619D01*
X143417523Y-106348476D01*
X143369904Y-106538952D01*
X143369904Y-106919904D01*
X143417523Y-107015142D01*
X143465142Y-107062761D01*
X143560380Y-107110380D01*
X143750857Y-107110380D01*
X143846095Y-107062761D01*
X143893714Y-107015142D01*
X143941333Y-106919904D01*
X143941333Y-106681809D01*
X143893714Y-106586571D01*
X143846095Y-106538952D01*
X143750857Y-106491333D01*
X143560380Y-106491333D01*
X143465142Y-106538952D01*
X143417523Y-106586571D01*
X143369904Y-106681809D01*
%TO.C,SW5*%
X141401666Y-56135761D02*
X141544523Y-56183380D01*
X141782619Y-56183380D01*
X141877857Y-56135761D01*
X141925476Y-56088142D01*
X141973095Y-55992904D01*
X141973095Y-55897666D01*
X141925476Y-55802428D01*
X141877857Y-55754809D01*
X141782619Y-55707190D01*
X141592142Y-55659571D01*
X141496904Y-55611952D01*
X141449285Y-55564333D01*
X141401666Y-55469095D01*
X141401666Y-55373857D01*
X141449285Y-55278619D01*
X141496904Y-55231000D01*
X141592142Y-55183380D01*
X141830238Y-55183380D01*
X141973095Y-55231000D01*
X142306428Y-55183380D02*
X142544523Y-56183380D01*
X142735000Y-55469095D01*
X142925476Y-56183380D01*
X143163571Y-55183380D01*
X144020714Y-55183380D02*
X143544523Y-55183380D01*
X143496904Y-55659571D01*
X143544523Y-55611952D01*
X143639761Y-55564333D01*
X143877857Y-55564333D01*
X143973095Y-55611952D01*
X144020714Y-55659571D01*
X144068333Y-55754809D01*
X144068333Y-55992904D01*
X144020714Y-56088142D01*
X143973095Y-56135761D01*
X143877857Y-56183380D01*
X143639761Y-56183380D01*
X143544523Y-56135761D01*
X143496904Y-56088142D01*
%TO.C,SW4*%
X141401666Y-94235761D02*
X141544523Y-94283380D01*
X141782619Y-94283380D01*
X141877857Y-94235761D01*
X141925476Y-94188142D01*
X141973095Y-94092904D01*
X141973095Y-93997666D01*
X141925476Y-93902428D01*
X141877857Y-93854809D01*
X141782619Y-93807190D01*
X141592142Y-93759571D01*
X141496904Y-93711952D01*
X141449285Y-93664333D01*
X141401666Y-93569095D01*
X141401666Y-93473857D01*
X141449285Y-93378619D01*
X141496904Y-93331000D01*
X141592142Y-93283380D01*
X141830238Y-93283380D01*
X141973095Y-93331000D01*
X142306428Y-93283380D02*
X142544523Y-94283380D01*
X142735000Y-93569095D01*
X142925476Y-94283380D01*
X143163571Y-93283380D01*
X143973095Y-93616714D02*
X143973095Y-94283380D01*
X143735000Y-93235761D02*
X143496904Y-93950047D01*
X144115952Y-93950047D01*
%TO.C,SW3*%
X141401666Y-81789761D02*
X141544523Y-81837380D01*
X141782619Y-81837380D01*
X141877857Y-81789761D01*
X141925476Y-81742142D01*
X141973095Y-81646904D01*
X141973095Y-81551666D01*
X141925476Y-81456428D01*
X141877857Y-81408809D01*
X141782619Y-81361190D01*
X141592142Y-81313571D01*
X141496904Y-81265952D01*
X141449285Y-81218333D01*
X141401666Y-81123095D01*
X141401666Y-81027857D01*
X141449285Y-80932619D01*
X141496904Y-80885000D01*
X141592142Y-80837380D01*
X141830238Y-80837380D01*
X141973095Y-80885000D01*
X142306428Y-80837380D02*
X142544523Y-81837380D01*
X142735000Y-81123095D01*
X142925476Y-81837380D01*
X143163571Y-80837380D01*
X143449285Y-80837380D02*
X144068333Y-80837380D01*
X143735000Y-81218333D01*
X143877857Y-81218333D01*
X143973095Y-81265952D01*
X144020714Y-81313571D01*
X144068333Y-81408809D01*
X144068333Y-81646904D01*
X144020714Y-81742142D01*
X143973095Y-81789761D01*
X143877857Y-81837380D01*
X143592142Y-81837380D01*
X143496904Y-81789761D01*
X143449285Y-81742142D01*
%TO.C,SW2*%
X141401666Y-68581761D02*
X141544523Y-68629380D01*
X141782619Y-68629380D01*
X141877857Y-68581761D01*
X141925476Y-68534142D01*
X141973095Y-68438904D01*
X141973095Y-68343666D01*
X141925476Y-68248428D01*
X141877857Y-68200809D01*
X141782619Y-68153190D01*
X141592142Y-68105571D01*
X141496904Y-68057952D01*
X141449285Y-68010333D01*
X141401666Y-67915095D01*
X141401666Y-67819857D01*
X141449285Y-67724619D01*
X141496904Y-67677000D01*
X141592142Y-67629380D01*
X141830238Y-67629380D01*
X141973095Y-67677000D01*
X142306428Y-67629380D02*
X142544523Y-68629380D01*
X142735000Y-67915095D01*
X142925476Y-68629380D01*
X143163571Y-67629380D01*
X143496904Y-67724619D02*
X143544523Y-67677000D01*
X143639761Y-67629380D01*
X143877857Y-67629380D01*
X143973095Y-67677000D01*
X144020714Y-67724619D01*
X144068333Y-67819857D01*
X144068333Y-67915095D01*
X144020714Y-68057952D01*
X143449285Y-68629380D01*
X144068333Y-68629380D01*
%TO.C,SW1*%
X141401666Y-42927761D02*
X141544523Y-42975380D01*
X141782619Y-42975380D01*
X141877857Y-42927761D01*
X141925476Y-42880142D01*
X141973095Y-42784904D01*
X141973095Y-42689666D01*
X141925476Y-42594428D01*
X141877857Y-42546809D01*
X141782619Y-42499190D01*
X141592142Y-42451571D01*
X141496904Y-42403952D01*
X141449285Y-42356333D01*
X141401666Y-42261095D01*
X141401666Y-42165857D01*
X141449285Y-42070619D01*
X141496904Y-42023000D01*
X141592142Y-41975380D01*
X141830238Y-41975380D01*
X141973095Y-42023000D01*
X142306428Y-41975380D02*
X142544523Y-42975380D01*
X142735000Y-42261095D01*
X142925476Y-42975380D01*
X143163571Y-41975380D01*
X144068333Y-42975380D02*
X143496904Y-42975380D01*
X143782619Y-42975380D02*
X143782619Y-41975380D01*
X143687380Y-42118238D01*
X143592142Y-42213476D01*
X143496904Y-42261095D01*
%TO.C,R8*%
X142962333Y-123920380D02*
X142629000Y-123444190D01*
X142390904Y-123920380D02*
X142390904Y-122920380D01*
X142771857Y-122920380D01*
X142867095Y-122968000D01*
X142914714Y-123015619D01*
X142962333Y-123110857D01*
X142962333Y-123253714D01*
X142914714Y-123348952D01*
X142867095Y-123396571D01*
X142771857Y-123444190D01*
X142390904Y-123444190D01*
X143533761Y-123348952D02*
X143438523Y-123301333D01*
X143390904Y-123253714D01*
X143343285Y-123158476D01*
X143343285Y-123110857D01*
X143390904Y-123015619D01*
X143438523Y-122968000D01*
X143533761Y-122920380D01*
X143724238Y-122920380D01*
X143819476Y-122968000D01*
X143867095Y-123015619D01*
X143914714Y-123110857D01*
X143914714Y-123158476D01*
X143867095Y-123253714D01*
X143819476Y-123301333D01*
X143724238Y-123348952D01*
X143533761Y-123348952D01*
X143438523Y-123396571D01*
X143390904Y-123444190D01*
X143343285Y-123539428D01*
X143343285Y-123729904D01*
X143390904Y-123825142D01*
X143438523Y-123872761D01*
X143533761Y-123920380D01*
X143724238Y-123920380D01*
X143819476Y-123872761D01*
X143867095Y-123825142D01*
X143914714Y-123729904D01*
X143914714Y-123539428D01*
X143867095Y-123444190D01*
X143819476Y-123396571D01*
X143724238Y-123348952D01*
%TO.C,R7*%
X142835333Y-111093380D02*
X142502000Y-110617190D01*
X142263904Y-111093380D02*
X142263904Y-110093380D01*
X142644857Y-110093380D01*
X142740095Y-110141000D01*
X142787714Y-110188619D01*
X142835333Y-110283857D01*
X142835333Y-110426714D01*
X142787714Y-110521952D01*
X142740095Y-110569571D01*
X142644857Y-110617190D01*
X142263904Y-110617190D01*
X143168666Y-110093380D02*
X143835333Y-110093380D01*
X143406761Y-111093380D01*
%TO.C,R6*%
X142708333Y-98393380D02*
X142375000Y-97917190D01*
X142136904Y-98393380D02*
X142136904Y-97393380D01*
X142517857Y-97393380D01*
X142613095Y-97441000D01*
X142660714Y-97488619D01*
X142708333Y-97583857D01*
X142708333Y-97726714D01*
X142660714Y-97821952D01*
X142613095Y-97869571D01*
X142517857Y-97917190D01*
X142136904Y-97917190D01*
X143565476Y-97393380D02*
X143375000Y-97393380D01*
X143279761Y-97441000D01*
X143232142Y-97488619D01*
X143136904Y-97631476D01*
X143089285Y-97821952D01*
X143089285Y-98202904D01*
X143136904Y-98298142D01*
X143184523Y-98345761D01*
X143279761Y-98393380D01*
X143470238Y-98393380D01*
X143565476Y-98345761D01*
X143613095Y-98298142D01*
X143660714Y-98202904D01*
X143660714Y-97964809D01*
X143613095Y-97869571D01*
X143565476Y-97821952D01*
X143470238Y-97774333D01*
X143279761Y-97774333D01*
X143184523Y-97821952D01*
X143136904Y-97869571D01*
X143089285Y-97964809D01*
%TO.C,R5*%
X142708333Y-47466380D02*
X142375000Y-46990190D01*
X142136904Y-47466380D02*
X142136904Y-46466380D01*
X142517857Y-46466380D01*
X142613095Y-46514000D01*
X142660714Y-46561619D01*
X142708333Y-46656857D01*
X142708333Y-46799714D01*
X142660714Y-46894952D01*
X142613095Y-46942571D01*
X142517857Y-46990190D01*
X142136904Y-46990190D01*
X143613095Y-46466380D02*
X143136904Y-46466380D01*
X143089285Y-46942571D01*
X143136904Y-46894952D01*
X143232142Y-46847333D01*
X143470238Y-46847333D01*
X143565476Y-46894952D01*
X143613095Y-46942571D01*
X143660714Y-47037809D01*
X143660714Y-47275904D01*
X143613095Y-47371142D01*
X143565476Y-47418761D01*
X143470238Y-47466380D01*
X143232142Y-47466380D01*
X143136904Y-47418761D01*
X143089285Y-47371142D01*
%TO.C,R4*%
X142454333Y-85439380D02*
X142121000Y-84963190D01*
X141882904Y-85439380D02*
X141882904Y-84439380D01*
X142263857Y-84439380D01*
X142359095Y-84487000D01*
X142406714Y-84534619D01*
X142454333Y-84629857D01*
X142454333Y-84772714D01*
X142406714Y-84867952D01*
X142359095Y-84915571D01*
X142263857Y-84963190D01*
X141882904Y-84963190D01*
X143311476Y-84772714D02*
X143311476Y-85439380D01*
X143073380Y-84391761D02*
X142835285Y-85106047D01*
X143454333Y-85106047D01*
%TO.C,R3*%
X142581333Y-72358380D02*
X142248000Y-71882190D01*
X142009904Y-72358380D02*
X142009904Y-71358380D01*
X142390857Y-71358380D01*
X142486095Y-71406000D01*
X142533714Y-71453619D01*
X142581333Y-71548857D01*
X142581333Y-71691714D01*
X142533714Y-71786952D01*
X142486095Y-71834571D01*
X142390857Y-71882190D01*
X142009904Y-71882190D01*
X142914666Y-71358380D02*
X143533714Y-71358380D01*
X143200380Y-71739333D01*
X143343238Y-71739333D01*
X143438476Y-71786952D01*
X143486095Y-71834571D01*
X143533714Y-71929809D01*
X143533714Y-72167904D01*
X143486095Y-72263142D01*
X143438476Y-72310761D01*
X143343238Y-72358380D01*
X143057523Y-72358380D01*
X142962285Y-72310761D01*
X142914666Y-72263142D01*
%TO.C,R2*%
X142708333Y-60039380D02*
X142375000Y-59563190D01*
X142136904Y-60039380D02*
X142136904Y-59039380D01*
X142517857Y-59039380D01*
X142613095Y-59087000D01*
X142660714Y-59134619D01*
X142708333Y-59229857D01*
X142708333Y-59372714D01*
X142660714Y-59467952D01*
X142613095Y-59515571D01*
X142517857Y-59563190D01*
X142136904Y-59563190D01*
X143089285Y-59134619D02*
X143136904Y-59087000D01*
X143232142Y-59039380D01*
X143470238Y-59039380D01*
X143565476Y-59087000D01*
X143613095Y-59134619D01*
X143660714Y-59229857D01*
X143660714Y-59325095D01*
X143613095Y-59467952D01*
X143041666Y-60039380D01*
X143660714Y-60039380D01*
%TO.C,R1*%
X142708333Y-35909380D02*
X142375000Y-35433190D01*
X142136904Y-35909380D02*
X142136904Y-34909380D01*
X142517857Y-34909380D01*
X142613095Y-34957000D01*
X142660714Y-35004619D01*
X142708333Y-35099857D01*
X142708333Y-35242714D01*
X142660714Y-35337952D01*
X142613095Y-35385571D01*
X142517857Y-35433190D01*
X142136904Y-35433190D01*
X143660714Y-35909380D02*
X143089285Y-35909380D01*
X143375000Y-35909380D02*
X143375000Y-34909380D01*
X143279761Y-35052238D01*
X143184523Y-35147476D01*
X143089285Y-35195095D01*
%TO.C,J24*%
X176482476Y-121499380D02*
X176482476Y-122213666D01*
X176434857Y-122356523D01*
X176339619Y-122451761D01*
X176196761Y-122499380D01*
X176101523Y-122499380D01*
X176911047Y-121594619D02*
X176958666Y-121547000D01*
X177053904Y-121499380D01*
X177292000Y-121499380D01*
X177387238Y-121547000D01*
X177434857Y-121594619D01*
X177482476Y-121689857D01*
X177482476Y-121785095D01*
X177434857Y-121927952D01*
X176863428Y-122499380D01*
X177482476Y-122499380D01*
X178339619Y-121832714D02*
X178339619Y-122499380D01*
X178101523Y-121451761D02*
X177863428Y-122166047D01*
X178482476Y-122166047D01*
%TO.C,J23*%
X184610476Y-119721380D02*
X184610476Y-120435666D01*
X184562857Y-120578523D01*
X184467619Y-120673761D01*
X184324761Y-120721380D01*
X184229523Y-120721380D01*
X185039047Y-119816619D02*
X185086666Y-119769000D01*
X185181904Y-119721380D01*
X185420000Y-119721380D01*
X185515238Y-119769000D01*
X185562857Y-119816619D01*
X185610476Y-119911857D01*
X185610476Y-120007095D01*
X185562857Y-120149952D01*
X184991428Y-120721380D01*
X185610476Y-120721380D01*
X185943809Y-119721380D02*
X186562857Y-119721380D01*
X186229523Y-120102333D01*
X186372380Y-120102333D01*
X186467619Y-120149952D01*
X186515238Y-120197571D01*
X186562857Y-120292809D01*
X186562857Y-120530904D01*
X186515238Y-120626142D01*
X186467619Y-120673761D01*
X186372380Y-120721380D01*
X186086666Y-120721380D01*
X185991428Y-120673761D01*
X185943809Y-120626142D01*
%TO.C,J22*%
X176482476Y-95923380D02*
X176482476Y-96637666D01*
X176434857Y-96780523D01*
X176339619Y-96875761D01*
X176196761Y-96923380D01*
X176101523Y-96923380D01*
X176911047Y-96018619D02*
X176958666Y-95971000D01*
X177053904Y-95923380D01*
X177292000Y-95923380D01*
X177387238Y-95971000D01*
X177434857Y-96018619D01*
X177482476Y-96113857D01*
X177482476Y-96209095D01*
X177434857Y-96351952D01*
X176863428Y-96923380D01*
X177482476Y-96923380D01*
X177863428Y-96018619D02*
X177911047Y-95971000D01*
X178006285Y-95923380D01*
X178244380Y-95923380D01*
X178339619Y-95971000D01*
X178387238Y-96018619D01*
X178434857Y-96113857D01*
X178434857Y-96209095D01*
X178387238Y-96351952D01*
X177815809Y-96923380D01*
X178434857Y-96923380D01*
%TO.C,J21*%
X166957476Y-121499380D02*
X166957476Y-122213666D01*
X166909857Y-122356523D01*
X166814619Y-122451761D01*
X166671761Y-122499380D01*
X166576523Y-122499380D01*
X167386047Y-121594619D02*
X167433666Y-121547000D01*
X167528904Y-121499380D01*
X167767000Y-121499380D01*
X167862238Y-121547000D01*
X167909857Y-121594619D01*
X167957476Y-121689857D01*
X167957476Y-121785095D01*
X167909857Y-121927952D01*
X167338428Y-122499380D01*
X167957476Y-122499380D01*
X168909857Y-122499380D02*
X168338428Y-122499380D01*
X168624142Y-122499380D02*
X168624142Y-121499380D01*
X168528904Y-121642238D01*
X168433666Y-121737476D01*
X168338428Y-121785095D01*
%TO.C,J20*%
X157432476Y-121499380D02*
X157432476Y-122213666D01*
X157384857Y-122356523D01*
X157289619Y-122451761D01*
X157146761Y-122499380D01*
X157051523Y-122499380D01*
X157861047Y-121594619D02*
X157908666Y-121547000D01*
X158003904Y-121499380D01*
X158242000Y-121499380D01*
X158337238Y-121547000D01*
X158384857Y-121594619D01*
X158432476Y-121689857D01*
X158432476Y-121785095D01*
X158384857Y-121927952D01*
X157813428Y-122499380D01*
X158432476Y-122499380D01*
X159051523Y-121499380D02*
X159146761Y-121499380D01*
X159242000Y-121547000D01*
X159289619Y-121594619D01*
X159337238Y-121689857D01*
X159384857Y-121880333D01*
X159384857Y-122118428D01*
X159337238Y-122308904D01*
X159289619Y-122404142D01*
X159242000Y-122451761D01*
X159146761Y-122499380D01*
X159051523Y-122499380D01*
X158956285Y-122451761D01*
X158908666Y-122404142D01*
X158861047Y-122308904D01*
X158813428Y-122118428D01*
X158813428Y-121880333D01*
X158861047Y-121689857D01*
X158908666Y-121594619D01*
X158956285Y-121547000D01*
X159051523Y-121499380D01*
%TO.C,J19*%
X175085476Y-119721380D02*
X175085476Y-120435666D01*
X175037857Y-120578523D01*
X174942619Y-120673761D01*
X174799761Y-120721380D01*
X174704523Y-120721380D01*
X176085476Y-120721380D02*
X175514047Y-120721380D01*
X175799761Y-120721380D02*
X175799761Y-119721380D01*
X175704523Y-119864238D01*
X175609285Y-119959476D01*
X175514047Y-120007095D01*
X176561666Y-120721380D02*
X176752142Y-120721380D01*
X176847380Y-120673761D01*
X176895000Y-120626142D01*
X176990238Y-120483285D01*
X177037857Y-120292809D01*
X177037857Y-119911857D01*
X176990238Y-119816619D01*
X176942619Y-119769000D01*
X176847380Y-119721380D01*
X176656904Y-119721380D01*
X176561666Y-119769000D01*
X176514047Y-119816619D01*
X176466428Y-119911857D01*
X176466428Y-120149952D01*
X176514047Y-120245190D01*
X176561666Y-120292809D01*
X176656904Y-120340428D01*
X176847380Y-120340428D01*
X176942619Y-120292809D01*
X176990238Y-120245190D01*
X177037857Y-120149952D01*
%TO.C,J18*%
X165560476Y-119721380D02*
X165560476Y-120435666D01*
X165512857Y-120578523D01*
X165417619Y-120673761D01*
X165274761Y-120721380D01*
X165179523Y-120721380D01*
X166560476Y-120721380D02*
X165989047Y-120721380D01*
X166274761Y-120721380D02*
X166274761Y-119721380D01*
X166179523Y-119864238D01*
X166084285Y-119959476D01*
X165989047Y-120007095D01*
X167131904Y-120149952D02*
X167036666Y-120102333D01*
X166989047Y-120054714D01*
X166941428Y-119959476D01*
X166941428Y-119911857D01*
X166989047Y-119816619D01*
X167036666Y-119769000D01*
X167131904Y-119721380D01*
X167322380Y-119721380D01*
X167417619Y-119769000D01*
X167465238Y-119816619D01*
X167512857Y-119911857D01*
X167512857Y-119959476D01*
X167465238Y-120054714D01*
X167417619Y-120102333D01*
X167322380Y-120149952D01*
X167131904Y-120149952D01*
X167036666Y-120197571D01*
X166989047Y-120245190D01*
X166941428Y-120340428D01*
X166941428Y-120530904D01*
X166989047Y-120626142D01*
X167036666Y-120673761D01*
X167131904Y-120721380D01*
X167322380Y-120721380D01*
X167417619Y-120673761D01*
X167465238Y-120626142D01*
X167512857Y-120530904D01*
X167512857Y-120340428D01*
X167465238Y-120245190D01*
X167417619Y-120197571D01*
X167322380Y-120149952D01*
%TO.C,J17*%
X166957476Y-95923380D02*
X166957476Y-96637666D01*
X166909857Y-96780523D01*
X166814619Y-96875761D01*
X166671761Y-96923380D01*
X166576523Y-96923380D01*
X167957476Y-96923380D02*
X167386047Y-96923380D01*
X167671761Y-96923380D02*
X167671761Y-95923380D01*
X167576523Y-96066238D01*
X167481285Y-96161476D01*
X167386047Y-96209095D01*
X168290809Y-95923380D02*
X168957476Y-95923380D01*
X168528904Y-96923380D01*
%TO.C,J16*%
X157432476Y-95923380D02*
X157432476Y-96637666D01*
X157384857Y-96780523D01*
X157289619Y-96875761D01*
X157146761Y-96923380D01*
X157051523Y-96923380D01*
X158432476Y-96923380D02*
X157861047Y-96923380D01*
X158146761Y-96923380D02*
X158146761Y-95923380D01*
X158051523Y-96066238D01*
X157956285Y-96161476D01*
X157861047Y-96209095D01*
X159289619Y-95923380D02*
X159099142Y-95923380D01*
X159003904Y-95971000D01*
X158956285Y-96018619D01*
X158861047Y-96161476D01*
X158813428Y-96351952D01*
X158813428Y-96732904D01*
X158861047Y-96828142D01*
X158908666Y-96875761D01*
X159003904Y-96923380D01*
X159194380Y-96923380D01*
X159289619Y-96875761D01*
X159337238Y-96828142D01*
X159384857Y-96732904D01*
X159384857Y-96494809D01*
X159337238Y-96399571D01*
X159289619Y-96351952D01*
X159194380Y-96304333D01*
X159003904Y-96304333D01*
X158908666Y-96351952D01*
X158861047Y-96399571D01*
X158813428Y-96494809D01*
%TO.C,J15*%
X176482476Y-44918380D02*
X176482476Y-45632666D01*
X176434857Y-45775523D01*
X176339619Y-45870761D01*
X176196761Y-45918380D01*
X176101523Y-45918380D01*
X177482476Y-45918380D02*
X176911047Y-45918380D01*
X177196761Y-45918380D02*
X177196761Y-44918380D01*
X177101523Y-45061238D01*
X177006285Y-45156476D01*
X176911047Y-45204095D01*
X178387238Y-44918380D02*
X177911047Y-44918380D01*
X177863428Y-45394571D01*
X177911047Y-45346952D01*
X178006285Y-45299333D01*
X178244380Y-45299333D01*
X178339619Y-45346952D01*
X178387238Y-45394571D01*
X178434857Y-45489809D01*
X178434857Y-45727904D01*
X178387238Y-45823142D01*
X178339619Y-45870761D01*
X178244380Y-45918380D01*
X178006285Y-45918380D01*
X177911047Y-45870761D01*
X177863428Y-45823142D01*
%TO.C,J14*%
X184610476Y-94194380D02*
X184610476Y-94908666D01*
X184562857Y-95051523D01*
X184467619Y-95146761D01*
X184324761Y-95194380D01*
X184229523Y-95194380D01*
X185610476Y-95194380D02*
X185039047Y-95194380D01*
X185324761Y-95194380D02*
X185324761Y-94194380D01*
X185229523Y-94337238D01*
X185134285Y-94432476D01*
X185039047Y-94480095D01*
X186467619Y-94527714D02*
X186467619Y-95194380D01*
X186229523Y-94146761D02*
X185991428Y-94861047D01*
X186610476Y-94861047D01*
%TO.C,J13*%
X176482476Y-70445380D02*
X176482476Y-71159666D01*
X176434857Y-71302523D01*
X176339619Y-71397761D01*
X176196761Y-71445380D01*
X176101523Y-71445380D01*
X177482476Y-71445380D02*
X176911047Y-71445380D01*
X177196761Y-71445380D02*
X177196761Y-70445380D01*
X177101523Y-70588238D01*
X177006285Y-70683476D01*
X176911047Y-70731095D01*
X177815809Y-70445380D02*
X178434857Y-70445380D01*
X178101523Y-70826333D01*
X178244380Y-70826333D01*
X178339619Y-70873952D01*
X178387238Y-70921571D01*
X178434857Y-71016809D01*
X178434857Y-71254904D01*
X178387238Y-71350142D01*
X178339619Y-71397761D01*
X178244380Y-71445380D01*
X177958666Y-71445380D01*
X177863428Y-71397761D01*
X177815809Y-71350142D01*
%TO.C,J12*%
X184610476Y-68667380D02*
X184610476Y-69381666D01*
X184562857Y-69524523D01*
X184467619Y-69619761D01*
X184324761Y-69667380D01*
X184229523Y-69667380D01*
X185610476Y-69667380D02*
X185039047Y-69667380D01*
X185324761Y-69667380D02*
X185324761Y-68667380D01*
X185229523Y-68810238D01*
X185134285Y-68905476D01*
X185039047Y-68953095D01*
X185991428Y-68762619D02*
X186039047Y-68715000D01*
X186134285Y-68667380D01*
X186372380Y-68667380D01*
X186467619Y-68715000D01*
X186515238Y-68762619D01*
X186562857Y-68857857D01*
X186562857Y-68953095D01*
X186515238Y-69095952D01*
X185943809Y-69667380D01*
X186562857Y-69667380D01*
%TO.C,J11*%
X166957476Y-44918380D02*
X166957476Y-45632666D01*
X166909857Y-45775523D01*
X166814619Y-45870761D01*
X166671761Y-45918380D01*
X166576523Y-45918380D01*
X167957476Y-45918380D02*
X167386047Y-45918380D01*
X167671761Y-45918380D02*
X167671761Y-44918380D01*
X167576523Y-45061238D01*
X167481285Y-45156476D01*
X167386047Y-45204095D01*
X168909857Y-45918380D02*
X168338428Y-45918380D01*
X168624142Y-45918380D02*
X168624142Y-44918380D01*
X168528904Y-45061238D01*
X168433666Y-45156476D01*
X168338428Y-45204095D01*
%TO.C,J10*%
X157432476Y-44918380D02*
X157432476Y-45632666D01*
X157384857Y-45775523D01*
X157289619Y-45870761D01*
X157146761Y-45918380D01*
X157051523Y-45918380D01*
X158432476Y-45918380D02*
X157861047Y-45918380D01*
X158146761Y-45918380D02*
X158146761Y-44918380D01*
X158051523Y-45061238D01*
X157956285Y-45156476D01*
X157861047Y-45204095D01*
X159051523Y-44918380D02*
X159146761Y-44918380D01*
X159242000Y-44966000D01*
X159289619Y-45013619D01*
X159337238Y-45108857D01*
X159384857Y-45299333D01*
X159384857Y-45537428D01*
X159337238Y-45727904D01*
X159289619Y-45823142D01*
X159242000Y-45870761D01*
X159146761Y-45918380D01*
X159051523Y-45918380D01*
X158956285Y-45870761D01*
X158908666Y-45823142D01*
X158861047Y-45727904D01*
X158813428Y-45537428D01*
X158813428Y-45299333D01*
X158861047Y-45108857D01*
X158908666Y-45013619D01*
X158956285Y-44966000D01*
X159051523Y-44918380D01*
%TO.C,J9*%
X175561666Y-94194380D02*
X175561666Y-94908666D01*
X175514047Y-95051523D01*
X175418809Y-95146761D01*
X175275952Y-95194380D01*
X175180714Y-95194380D01*
X176085476Y-95194380D02*
X176275952Y-95194380D01*
X176371190Y-95146761D01*
X176418809Y-95099142D01*
X176514047Y-94956285D01*
X176561666Y-94765809D01*
X176561666Y-94384857D01*
X176514047Y-94289619D01*
X176466428Y-94242000D01*
X176371190Y-94194380D01*
X176180714Y-94194380D01*
X176085476Y-94242000D01*
X176037857Y-94289619D01*
X175990238Y-94384857D01*
X175990238Y-94622952D01*
X176037857Y-94718190D01*
X176085476Y-94765809D01*
X176180714Y-94813428D01*
X176371190Y-94813428D01*
X176466428Y-94765809D01*
X176514047Y-94718190D01*
X176561666Y-94622952D01*
%TO.C,J8*%
X166036666Y-94194380D02*
X166036666Y-94908666D01*
X165989047Y-95051523D01*
X165893809Y-95146761D01*
X165750952Y-95194380D01*
X165655714Y-95194380D01*
X166655714Y-94622952D02*
X166560476Y-94575333D01*
X166512857Y-94527714D01*
X166465238Y-94432476D01*
X166465238Y-94384857D01*
X166512857Y-94289619D01*
X166560476Y-94242000D01*
X166655714Y-94194380D01*
X166846190Y-94194380D01*
X166941428Y-94242000D01*
X166989047Y-94289619D01*
X167036666Y-94384857D01*
X167036666Y-94432476D01*
X166989047Y-94527714D01*
X166941428Y-94575333D01*
X166846190Y-94622952D01*
X166655714Y-94622952D01*
X166560476Y-94670571D01*
X166512857Y-94718190D01*
X166465238Y-94813428D01*
X166465238Y-95003904D01*
X166512857Y-95099142D01*
X166560476Y-95146761D01*
X166655714Y-95194380D01*
X166846190Y-95194380D01*
X166941428Y-95146761D01*
X166989047Y-95099142D01*
X167036666Y-95003904D01*
X167036666Y-94813428D01*
X166989047Y-94718190D01*
X166941428Y-94670571D01*
X166846190Y-94622952D01*
%TO.C,J7*%
X167433666Y-70445380D02*
X167433666Y-71159666D01*
X167386047Y-71302523D01*
X167290809Y-71397761D01*
X167147952Y-71445380D01*
X167052714Y-71445380D01*
X167814619Y-70445380D02*
X168481285Y-70445380D01*
X168052714Y-71445380D01*
%TO.C,J6*%
X157908666Y-70445380D02*
X157908666Y-71159666D01*
X157861047Y-71302523D01*
X157765809Y-71397761D01*
X157622952Y-71445380D01*
X157527714Y-71445380D01*
X158813428Y-70445380D02*
X158622952Y-70445380D01*
X158527714Y-70493000D01*
X158480095Y-70540619D01*
X158384857Y-70683476D01*
X158337238Y-70873952D01*
X158337238Y-71254904D01*
X158384857Y-71350142D01*
X158432476Y-71397761D01*
X158527714Y-71445380D01*
X158718190Y-71445380D01*
X158813428Y-71397761D01*
X158861047Y-71350142D01*
X158908666Y-71254904D01*
X158908666Y-71016809D01*
X158861047Y-70921571D01*
X158813428Y-70873952D01*
X158718190Y-70826333D01*
X158527714Y-70826333D01*
X158432476Y-70873952D01*
X158384857Y-70921571D01*
X158337238Y-71016809D01*
%TO.C,J5*%
X175561666Y-68667380D02*
X175561666Y-69381666D01*
X175514047Y-69524523D01*
X175418809Y-69619761D01*
X175275952Y-69667380D01*
X175180714Y-69667380D01*
X176514047Y-68667380D02*
X176037857Y-68667380D01*
X175990238Y-69143571D01*
X176037857Y-69095952D01*
X176133095Y-69048333D01*
X176371190Y-69048333D01*
X176466428Y-69095952D01*
X176514047Y-69143571D01*
X176561666Y-69238809D01*
X176561666Y-69476904D01*
X176514047Y-69572142D01*
X176466428Y-69619761D01*
X176371190Y-69667380D01*
X176133095Y-69667380D01*
X176037857Y-69619761D01*
X175990238Y-69572142D01*
%TO.C,J4*%
X166036666Y-68667380D02*
X166036666Y-69381666D01*
X165989047Y-69524523D01*
X165893809Y-69619761D01*
X165750952Y-69667380D01*
X165655714Y-69667380D01*
X166941428Y-69000714D02*
X166941428Y-69667380D01*
X166703333Y-68619761D02*
X166465238Y-69334047D01*
X167084285Y-69334047D01*
%TO.C,J3*%
X185086666Y-43140380D02*
X185086666Y-43854666D01*
X185039047Y-43997523D01*
X184943809Y-44092761D01*
X184800952Y-44140380D01*
X184705714Y-44140380D01*
X185467619Y-43140380D02*
X186086666Y-43140380D01*
X185753333Y-43521333D01*
X185896190Y-43521333D01*
X185991428Y-43568952D01*
X186039047Y-43616571D01*
X186086666Y-43711809D01*
X186086666Y-43949904D01*
X186039047Y-44045142D01*
X185991428Y-44092761D01*
X185896190Y-44140380D01*
X185610476Y-44140380D01*
X185515238Y-44092761D01*
X185467619Y-44045142D01*
%TO.C,J2*%
X175561666Y-43140380D02*
X175561666Y-43854666D01*
X175514047Y-43997523D01*
X175418809Y-44092761D01*
X175275952Y-44140380D01*
X175180714Y-44140380D01*
X175990238Y-43235619D02*
X176037857Y-43188000D01*
X176133095Y-43140380D01*
X176371190Y-43140380D01*
X176466428Y-43188000D01*
X176514047Y-43235619D01*
X176561666Y-43330857D01*
X176561666Y-43426095D01*
X176514047Y-43568952D01*
X175942619Y-44140380D01*
X176561666Y-44140380D01*
%TO.C,J1*%
X166036666Y-43140380D02*
X166036666Y-43854666D01*
X165989047Y-43997523D01*
X165893809Y-44092761D01*
X165750952Y-44140380D01*
X165655714Y-44140380D01*
X167036666Y-44140380D02*
X166465238Y-44140380D01*
X166750952Y-44140380D02*
X166750952Y-43140380D01*
X166655714Y-43283238D01*
X166560476Y-43378476D01*
X166465238Y-43426095D01*
%TO.C,D16*%
X149807380Y-129484285D02*
X148807380Y-129484285D01*
X148807380Y-129246190D01*
X148855000Y-129103333D01*
X148950238Y-129008095D01*
X149045476Y-128960476D01*
X149235952Y-128912857D01*
X149378809Y-128912857D01*
X149569285Y-128960476D01*
X149664523Y-129008095D01*
X149759761Y-129103333D01*
X149807380Y-129246190D01*
X149807380Y-129484285D01*
X149807380Y-127960476D02*
X149807380Y-128531904D01*
X149807380Y-128246190D02*
X148807380Y-128246190D01*
X148950238Y-128341428D01*
X149045476Y-128436666D01*
X149093095Y-128531904D01*
X148807380Y-127103333D02*
X148807380Y-127293809D01*
X148855000Y-127389047D01*
X148902619Y-127436666D01*
X149045476Y-127531904D01*
X149235952Y-127579523D01*
X149616904Y-127579523D01*
X149712142Y-127531904D01*
X149759761Y-127484285D01*
X149807380Y-127389047D01*
X149807380Y-127198571D01*
X149759761Y-127103333D01*
X149712142Y-127055714D01*
X149616904Y-127008095D01*
X149378809Y-127008095D01*
X149283571Y-127055714D01*
X149235952Y-127103333D01*
X149188333Y-127198571D01*
X149188333Y-127389047D01*
X149235952Y-127484285D01*
X149283571Y-127531904D01*
X149378809Y-127579523D01*
%TO.C,D15*%
X153617380Y-129484285D02*
X152617380Y-129484285D01*
X152617380Y-129246190D01*
X152665000Y-129103333D01*
X152760238Y-129008095D01*
X152855476Y-128960476D01*
X153045952Y-128912857D01*
X153188809Y-128912857D01*
X153379285Y-128960476D01*
X153474523Y-129008095D01*
X153569761Y-129103333D01*
X153617380Y-129246190D01*
X153617380Y-129484285D01*
X153617380Y-127960476D02*
X153617380Y-128531904D01*
X153617380Y-128246190D02*
X152617380Y-128246190D01*
X152760238Y-128341428D01*
X152855476Y-128436666D01*
X152903095Y-128531904D01*
X152617380Y-127055714D02*
X152617380Y-127531904D01*
X153093571Y-127579523D01*
X153045952Y-127531904D01*
X152998333Y-127436666D01*
X152998333Y-127198571D01*
X153045952Y-127103333D01*
X153093571Y-127055714D01*
X153188809Y-127008095D01*
X153426904Y-127008095D01*
X153522142Y-127055714D01*
X153569761Y-127103333D01*
X153617380Y-127198571D01*
X153617380Y-127436666D01*
X153569761Y-127531904D01*
X153522142Y-127579523D01*
%TO.C,D14*%
X149807380Y-115133285D02*
X148807380Y-115133285D01*
X148807380Y-114895190D01*
X148855000Y-114752333D01*
X148950238Y-114657095D01*
X149045476Y-114609476D01*
X149235952Y-114561857D01*
X149378809Y-114561857D01*
X149569285Y-114609476D01*
X149664523Y-114657095D01*
X149759761Y-114752333D01*
X149807380Y-114895190D01*
X149807380Y-115133285D01*
X149807380Y-113609476D02*
X149807380Y-114180904D01*
X149807380Y-113895190D02*
X148807380Y-113895190D01*
X148950238Y-113990428D01*
X149045476Y-114085666D01*
X149093095Y-114180904D01*
X149140714Y-112752333D02*
X149807380Y-112752333D01*
X148759761Y-112990428D02*
X149474047Y-113228523D01*
X149474047Y-112609476D01*
%TO.C,D13*%
X153617380Y-115133285D02*
X152617380Y-115133285D01*
X152617380Y-114895190D01*
X152665000Y-114752333D01*
X152760238Y-114657095D01*
X152855476Y-114609476D01*
X153045952Y-114561857D01*
X153188809Y-114561857D01*
X153379285Y-114609476D01*
X153474523Y-114657095D01*
X153569761Y-114752333D01*
X153617380Y-114895190D01*
X153617380Y-115133285D01*
X153617380Y-113609476D02*
X153617380Y-114180904D01*
X153617380Y-113895190D02*
X152617380Y-113895190D01*
X152760238Y-113990428D01*
X152855476Y-114085666D01*
X152903095Y-114180904D01*
X152617380Y-113276142D02*
X152617380Y-112657095D01*
X152998333Y-112990428D01*
X152998333Y-112847571D01*
X153045952Y-112752333D01*
X153093571Y-112704714D01*
X153188809Y-112657095D01*
X153426904Y-112657095D01*
X153522142Y-112704714D01*
X153569761Y-112752333D01*
X153617380Y-112847571D01*
X153617380Y-113133285D01*
X153569761Y-113228523D01*
X153522142Y-113276142D01*
%TO.C,D12*%
X149807380Y-103957285D02*
X148807380Y-103957285D01*
X148807380Y-103719190D01*
X148855000Y-103576333D01*
X148950238Y-103481095D01*
X149045476Y-103433476D01*
X149235952Y-103385857D01*
X149378809Y-103385857D01*
X149569285Y-103433476D01*
X149664523Y-103481095D01*
X149759761Y-103576333D01*
X149807380Y-103719190D01*
X149807380Y-103957285D01*
X149807380Y-102433476D02*
X149807380Y-103004904D01*
X149807380Y-102719190D02*
X148807380Y-102719190D01*
X148950238Y-102814428D01*
X149045476Y-102909666D01*
X149093095Y-103004904D01*
X148902619Y-102052523D02*
X148855000Y-102004904D01*
X148807380Y-101909666D01*
X148807380Y-101671571D01*
X148855000Y-101576333D01*
X148902619Y-101528714D01*
X148997857Y-101481095D01*
X149093095Y-101481095D01*
X149235952Y-101528714D01*
X149807380Y-102100142D01*
X149807380Y-101481095D01*
%TO.C,D11*%
X153617380Y-103957285D02*
X152617380Y-103957285D01*
X152617380Y-103719190D01*
X152665000Y-103576333D01*
X152760238Y-103481095D01*
X152855476Y-103433476D01*
X153045952Y-103385857D01*
X153188809Y-103385857D01*
X153379285Y-103433476D01*
X153474523Y-103481095D01*
X153569761Y-103576333D01*
X153617380Y-103719190D01*
X153617380Y-103957285D01*
X153617380Y-102433476D02*
X153617380Y-103004904D01*
X153617380Y-102719190D02*
X152617380Y-102719190D01*
X152760238Y-102814428D01*
X152855476Y-102909666D01*
X152903095Y-103004904D01*
X153617380Y-101481095D02*
X153617380Y-102052523D01*
X153617380Y-101766809D02*
X152617380Y-101766809D01*
X152760238Y-101862047D01*
X152855476Y-101957285D01*
X152903095Y-102052523D01*
%TO.C,D10*%
X149680380Y-53030285D02*
X148680380Y-53030285D01*
X148680380Y-52792190D01*
X148728000Y-52649333D01*
X148823238Y-52554095D01*
X148918476Y-52506476D01*
X149108952Y-52458857D01*
X149251809Y-52458857D01*
X149442285Y-52506476D01*
X149537523Y-52554095D01*
X149632761Y-52649333D01*
X149680380Y-52792190D01*
X149680380Y-53030285D01*
X149680380Y-51506476D02*
X149680380Y-52077904D01*
X149680380Y-51792190D02*
X148680380Y-51792190D01*
X148823238Y-51887428D01*
X148918476Y-51982666D01*
X148966095Y-52077904D01*
X148680380Y-50887428D02*
X148680380Y-50792190D01*
X148728000Y-50696952D01*
X148775619Y-50649333D01*
X148870857Y-50601714D01*
X149061333Y-50554095D01*
X149299428Y-50554095D01*
X149489904Y-50601714D01*
X149585142Y-50649333D01*
X149632761Y-50696952D01*
X149680380Y-50792190D01*
X149680380Y-50887428D01*
X149632761Y-50982666D01*
X149585142Y-51030285D01*
X149489904Y-51077904D01*
X149299428Y-51125523D01*
X149061333Y-51125523D01*
X148870857Y-51077904D01*
X148775619Y-51030285D01*
X148728000Y-50982666D01*
X148680380Y-50887428D01*
%TO.C,D9*%
X153617380Y-52554095D02*
X152617380Y-52554095D01*
X152617380Y-52316000D01*
X152665000Y-52173142D01*
X152760238Y-52077904D01*
X152855476Y-52030285D01*
X153045952Y-51982666D01*
X153188809Y-51982666D01*
X153379285Y-52030285D01*
X153474523Y-52077904D01*
X153569761Y-52173142D01*
X153617380Y-52316000D01*
X153617380Y-52554095D01*
X153617380Y-51506476D02*
X153617380Y-51316000D01*
X153569761Y-51220761D01*
X153522142Y-51173142D01*
X153379285Y-51077904D01*
X153188809Y-51030285D01*
X152807857Y-51030285D01*
X152712619Y-51077904D01*
X152665000Y-51125523D01*
X152617380Y-51220761D01*
X152617380Y-51411238D01*
X152665000Y-51506476D01*
X152712619Y-51554095D01*
X152807857Y-51601714D01*
X153045952Y-51601714D01*
X153141190Y-51554095D01*
X153188809Y-51506476D01*
X153236428Y-51411238D01*
X153236428Y-51220761D01*
X153188809Y-51125523D01*
X153141190Y-51077904D01*
X153045952Y-51030285D01*
%TO.C,D8*%
X149807380Y-89130095D02*
X148807380Y-89130095D01*
X148807380Y-88892000D01*
X148855000Y-88749142D01*
X148950238Y-88653904D01*
X149045476Y-88606285D01*
X149235952Y-88558666D01*
X149378809Y-88558666D01*
X149569285Y-88606285D01*
X149664523Y-88653904D01*
X149759761Y-88749142D01*
X149807380Y-88892000D01*
X149807380Y-89130095D01*
X149235952Y-87987238D02*
X149188333Y-88082476D01*
X149140714Y-88130095D01*
X149045476Y-88177714D01*
X148997857Y-88177714D01*
X148902619Y-88130095D01*
X148855000Y-88082476D01*
X148807380Y-87987238D01*
X148807380Y-87796761D01*
X148855000Y-87701523D01*
X148902619Y-87653904D01*
X148997857Y-87606285D01*
X149045476Y-87606285D01*
X149140714Y-87653904D01*
X149188333Y-87701523D01*
X149235952Y-87796761D01*
X149235952Y-87987238D01*
X149283571Y-88082476D01*
X149331190Y-88130095D01*
X149426428Y-88177714D01*
X149616904Y-88177714D01*
X149712142Y-88130095D01*
X149759761Y-88082476D01*
X149807380Y-87987238D01*
X149807380Y-87796761D01*
X149759761Y-87701523D01*
X149712142Y-87653904D01*
X149616904Y-87606285D01*
X149426428Y-87606285D01*
X149331190Y-87653904D01*
X149283571Y-87701523D01*
X149235952Y-87796761D01*
%TO.C,D7*%
X153617380Y-89130095D02*
X152617380Y-89130095D01*
X152617380Y-88892000D01*
X152665000Y-88749142D01*
X152760238Y-88653904D01*
X152855476Y-88606285D01*
X153045952Y-88558666D01*
X153188809Y-88558666D01*
X153379285Y-88606285D01*
X153474523Y-88653904D01*
X153569761Y-88749142D01*
X153617380Y-88892000D01*
X153617380Y-89130095D01*
X152617380Y-88225333D02*
X152617380Y-87558666D01*
X153617380Y-87987238D01*
%TO.C,D6*%
X149807380Y-78081095D02*
X148807380Y-78081095D01*
X148807380Y-77843000D01*
X148855000Y-77700142D01*
X148950238Y-77604904D01*
X149045476Y-77557285D01*
X149235952Y-77509666D01*
X149378809Y-77509666D01*
X149569285Y-77557285D01*
X149664523Y-77604904D01*
X149759761Y-77700142D01*
X149807380Y-77843000D01*
X149807380Y-78081095D01*
X148807380Y-76652523D02*
X148807380Y-76843000D01*
X148855000Y-76938238D01*
X148902619Y-76985857D01*
X149045476Y-77081095D01*
X149235952Y-77128714D01*
X149616904Y-77128714D01*
X149712142Y-77081095D01*
X149759761Y-77033476D01*
X149807380Y-76938238D01*
X149807380Y-76747761D01*
X149759761Y-76652523D01*
X149712142Y-76604904D01*
X149616904Y-76557285D01*
X149378809Y-76557285D01*
X149283571Y-76604904D01*
X149235952Y-76652523D01*
X149188333Y-76747761D01*
X149188333Y-76938238D01*
X149235952Y-77033476D01*
X149283571Y-77081095D01*
X149378809Y-77128714D01*
%TO.C,D5*%
X153617380Y-78081095D02*
X152617380Y-78081095D01*
X152617380Y-77843000D01*
X152665000Y-77700142D01*
X152760238Y-77604904D01*
X152855476Y-77557285D01*
X153045952Y-77509666D01*
X153188809Y-77509666D01*
X153379285Y-77557285D01*
X153474523Y-77604904D01*
X153569761Y-77700142D01*
X153617380Y-77843000D01*
X153617380Y-78081095D01*
X152617380Y-76604904D02*
X152617380Y-77081095D01*
X153093571Y-77128714D01*
X153045952Y-77081095D01*
X152998333Y-76985857D01*
X152998333Y-76747761D01*
X153045952Y-76652523D01*
X153093571Y-76604904D01*
X153188809Y-76557285D01*
X153426904Y-76557285D01*
X153522142Y-76604904D01*
X153569761Y-76652523D01*
X153617380Y-76747761D01*
X153617380Y-76985857D01*
X153569761Y-77081095D01*
X153522142Y-77128714D01*
%TO.C,D4*%
X149680380Y-63603095D02*
X148680380Y-63603095D01*
X148680380Y-63365000D01*
X148728000Y-63222142D01*
X148823238Y-63126904D01*
X148918476Y-63079285D01*
X149108952Y-63031666D01*
X149251809Y-63031666D01*
X149442285Y-63079285D01*
X149537523Y-63126904D01*
X149632761Y-63222142D01*
X149680380Y-63365000D01*
X149680380Y-63603095D01*
X149013714Y-62174523D02*
X149680380Y-62174523D01*
X148632761Y-62412619D02*
X149347047Y-62650714D01*
X149347047Y-62031666D01*
%TO.C,D3*%
X153617380Y-63603095D02*
X152617380Y-63603095D01*
X152617380Y-63365000D01*
X152665000Y-63222142D01*
X152760238Y-63126904D01*
X152855476Y-63079285D01*
X153045952Y-63031666D01*
X153188809Y-63031666D01*
X153379285Y-63079285D01*
X153474523Y-63126904D01*
X153569761Y-63222142D01*
X153617380Y-63365000D01*
X153617380Y-63603095D01*
X152617380Y-62698333D02*
X152617380Y-62079285D01*
X152998333Y-62412619D01*
X152998333Y-62269761D01*
X153045952Y-62174523D01*
X153093571Y-62126904D01*
X153188809Y-62079285D01*
X153426904Y-62079285D01*
X153522142Y-62126904D01*
X153569761Y-62174523D01*
X153617380Y-62269761D01*
X153617380Y-62555476D01*
X153569761Y-62650714D01*
X153522142Y-62698333D01*
%TO.C,D2*%
X149807380Y-38076095D02*
X148807380Y-38076095D01*
X148807380Y-37838000D01*
X148855000Y-37695142D01*
X148950238Y-37599904D01*
X149045476Y-37552285D01*
X149235952Y-37504666D01*
X149378809Y-37504666D01*
X149569285Y-37552285D01*
X149664523Y-37599904D01*
X149759761Y-37695142D01*
X149807380Y-37838000D01*
X149807380Y-38076095D01*
X148902619Y-37123714D02*
X148855000Y-37076095D01*
X148807380Y-36980857D01*
X148807380Y-36742761D01*
X148855000Y-36647523D01*
X148902619Y-36599904D01*
X148997857Y-36552285D01*
X149093095Y-36552285D01*
X149235952Y-36599904D01*
X149807380Y-37171333D01*
X149807380Y-36552285D01*
%TO.C,D1*%
X153617380Y-38076095D02*
X152617380Y-38076095D01*
X152617380Y-37838000D01*
X152665000Y-37695142D01*
X152760238Y-37599904D01*
X152855476Y-37552285D01*
X153045952Y-37504666D01*
X153188809Y-37504666D01*
X153379285Y-37552285D01*
X153474523Y-37599904D01*
X153569761Y-37695142D01*
X153617380Y-37838000D01*
X153617380Y-38076095D01*
X153617380Y-36552285D02*
X153617380Y-37123714D01*
X153617380Y-36838000D02*
X152617380Y-36838000D01*
X152760238Y-36933238D01*
X152855476Y-37028476D01*
X152903095Y-37123714D01*
%TD*%
M02*
