M48
; DRILL file {KiCad (5.1.6-0)} date Thursday, January 05, 2023 at 12:23:55 PM
; FORMAT={-:-/ absolute / metric / decimal}
; #@! TF.CreationDate,2023-01-05T12:23:55-05:00
; #@! TF.GenerationSoftware,Kicad,Pcbnew,(5.1.6-0)
; #@! TF.FileFunction,Plated,1,2,PTH
FMAT,2
METRIC
T1C0.800
T2C1.100
T3C1.600
T4C1.850
%
G90
G05
T1
X139.065Y-57.277
X146.685Y-57.277
X139.065Y-95.631
X146.685Y-95.631
X139.065Y-44.704
X146.685Y-44.704
X139.065Y-33.147
X146.685Y-33.147
X138.938Y-69.596
X146.558Y-69.596
X139.319Y-121.158
X146.939Y-121.158
X138.811Y-82.677
X146.431Y-82.677
X139.192Y-108.331
X146.812Y-108.331
T2
X151.765Y-124.46
X151.765Y-132.08
X155.575Y-124.46
X155.575Y-132.08
X151.765Y-110.109
X151.765Y-117.729
X155.575Y-110.109
X155.575Y-117.729
X151.765Y-98.933
X151.765Y-106.553
X155.575Y-98.933
X155.575Y-106.553
X151.638Y-48.006
X151.638Y-55.626
X155.575Y-48.006
X155.575Y-55.626
X151.765Y-84.582
X151.765Y-92.202
X155.575Y-84.582
X155.575Y-92.202
X151.765Y-73.533
X151.765Y-81.153
X155.575Y-73.533
X155.575Y-81.153
X151.638Y-59.055
X151.638Y-66.675
X155.575Y-59.055
X155.575Y-66.675
X151.765Y-33.528
X151.765Y-41.148
X155.575Y-33.528
X155.575Y-41.148
T3
X162.306Y-70.101
X162.306Y-73.201
X162.306Y-81.501
X181.356Y-121.155
X181.356Y-124.255
X181.356Y-132.555
X181.356Y-44.574
X181.356Y-47.674
X181.356Y-55.974
X162.306Y-84.234
X162.306Y-92.534
X162.306Y-95.634
X171.831Y-95.579
X171.831Y-98.679
X171.831Y-106.979
X162.306Y-33.18
X162.306Y-41.48
X162.306Y-44.58
X162.306Y-44.574
X162.306Y-47.674
X162.306Y-55.974
X171.831Y-109.761
X171.831Y-118.061
X171.831Y-121.161
X181.356Y-33.18
X181.356Y-41.48
X181.356Y-44.58
X181.356Y-58.707
X181.356Y-67.007
X181.356Y-70.107
X171.831Y-121.155
X171.831Y-124.255
X171.831Y-132.555
X171.831Y-58.707
X171.831Y-67.007
X171.831Y-70.107
X181.356Y-109.761
X181.356Y-118.061
X181.356Y-121.161
X181.356Y-84.234
X181.356Y-92.534
X181.356Y-95.634
X171.831Y-70.101
X171.831Y-73.201
X171.831Y-81.501
X162.306Y-95.579
X162.306Y-98.679
X162.306Y-106.979
X171.831Y-84.234
X171.831Y-92.534
X171.831Y-95.634
X162.306Y-109.761
X162.306Y-118.061
X162.306Y-121.161
X171.831Y-33.18
X171.831Y-41.48
X171.831Y-44.58
X171.831Y-44.574
X171.831Y-47.674
X171.831Y-55.974
X162.306Y-121.155
X162.306Y-124.255
X162.306Y-132.555
X162.306Y-58.707
X162.306Y-67.007
X162.306Y-70.107
X181.356Y-95.579
X181.356Y-98.679
X181.356Y-106.979
X181.356Y-70.101
X181.356Y-73.201
X181.356Y-81.501
T4
X138.302Y-114.681
X143.002Y-114.681
X147.702Y-114.681
X138.175Y-89.281
X142.875Y-89.281
X147.575Y-89.281
X138.048Y-102.108
X142.748Y-102.108
X147.448Y-102.108
X138.175Y-37.973
X142.875Y-37.973
X147.575Y-37.973
X138.302Y-127.635
X143.002Y-127.635
X147.702Y-127.635
X138.175Y-63.627
X142.875Y-63.627
X147.575Y-63.627
X138.175Y-51.181
X142.875Y-51.181
X147.575Y-51.181
X138.175Y-76.835
X142.875Y-76.835
X147.575Y-76.835
T0
M30
