%TF.GenerationSoftware,KiCad,Pcbnew,(5.1.6-0)*%
%TF.CreationDate,2022-12-22T20:14:18-05:00*%
%TF.ProjectId,Test Panel,54657374-2050-4616-9e65-6c2e6b696361,rev?*%
%TF.SameCoordinates,Original*%
%TF.FileFunction,Legend,Top*%
%TF.FilePolarity,Positive*%
%FSLAX46Y46*%
G04 Gerber Fmt 4.6, Leading zero omitted, Abs format (unit mm)*
G04 Created by KiCad (PCBNEW (5.1.6-0)) date 2022-12-22 20:14:18*
%MOMM*%
%LPD*%
G01*
G04 APERTURE LIST*
%ADD10C,0.150000*%
%ADD11C,0.100000*%
%ADD12C,0.120000*%
G04 APERTURE END LIST*
D10*
X81629428Y-34210761D02*
X81248476Y-34210761D01*
X81058000Y-34306000D01*
X80962761Y-34401238D01*
X80772285Y-34686952D01*
X80677047Y-35067904D01*
X80677047Y-35829809D01*
X80772285Y-36020285D01*
X80867523Y-36115523D01*
X81058000Y-36210761D01*
X81438952Y-36210761D01*
X81629428Y-36115523D01*
X81724666Y-36020285D01*
X81819904Y-35829809D01*
X81819904Y-35353619D01*
X81724666Y-35163142D01*
X81629428Y-35067904D01*
X81438952Y-34972666D01*
X81058000Y-34972666D01*
X80867523Y-35067904D01*
X80772285Y-35163142D01*
X80677047Y-35353619D01*
X82677047Y-36210761D02*
X82677047Y-34210761D01*
X83534190Y-36210761D02*
X83534190Y-35163142D01*
X83438952Y-34972666D01*
X83248476Y-34877428D01*
X82962761Y-34877428D01*
X82772285Y-34972666D01*
X82677047Y-35067904D01*
X84486571Y-34877428D02*
X84486571Y-36877428D01*
X84486571Y-34972666D02*
X84677047Y-34877428D01*
X85058000Y-34877428D01*
X85248476Y-34972666D01*
X85343714Y-35067904D01*
X85438952Y-35258380D01*
X85438952Y-35829809D01*
X85343714Y-36020285D01*
X85248476Y-36115523D01*
X85058000Y-36210761D01*
X84677047Y-36210761D01*
X84486571Y-36115523D01*
X61993333Y-41544761D02*
X61993333Y-39544761D01*
X62755238Y-39544761D01*
X62945714Y-39640000D01*
X63040952Y-39735238D01*
X63136190Y-39925714D01*
X63136190Y-40211428D01*
X63040952Y-40401904D01*
X62945714Y-40497142D01*
X62755238Y-40592380D01*
X61993333Y-40592380D01*
X65136190Y-41544761D02*
X64469523Y-40592380D01*
X63993333Y-41544761D02*
X63993333Y-39544761D01*
X64755238Y-39544761D01*
X64945714Y-39640000D01*
X65040952Y-39735238D01*
X65136190Y-39925714D01*
X65136190Y-40211428D01*
X65040952Y-40401904D01*
X64945714Y-40497142D01*
X64755238Y-40592380D01*
X63993333Y-40592380D01*
X66374285Y-39544761D02*
X66755238Y-39544761D01*
X66945714Y-39640000D01*
X67136190Y-39830476D01*
X67231428Y-40211428D01*
X67231428Y-40878095D01*
X67136190Y-41259047D01*
X66945714Y-41449523D01*
X66755238Y-41544761D01*
X66374285Y-41544761D01*
X66183809Y-41449523D01*
X65993333Y-41259047D01*
X65898095Y-40878095D01*
X65898095Y-40211428D01*
X65993333Y-39830476D01*
X66183809Y-39640000D01*
X66374285Y-39544761D01*
X67802857Y-39544761D02*
X68945714Y-39544761D01*
X68374285Y-41544761D02*
X68374285Y-39544761D01*
X69993333Y-39544761D02*
X70374285Y-39544761D01*
X70564761Y-39640000D01*
X70755238Y-39830476D01*
X70850476Y-40211428D01*
X70850476Y-40878095D01*
X70755238Y-41259047D01*
X70564761Y-41449523D01*
X70374285Y-41544761D01*
X69993333Y-41544761D01*
X69802857Y-41449523D01*
X69612380Y-41259047D01*
X69517142Y-40878095D01*
X69517142Y-40211428D01*
X69612380Y-39830476D01*
X69802857Y-39640000D01*
X69993333Y-39544761D01*
X71421904Y-39544761D02*
X72564761Y-39544761D01*
X71993333Y-41544761D02*
X71993333Y-39544761D01*
X73612380Y-40592380D02*
X73612380Y-41544761D01*
X72945714Y-39544761D02*
X73612380Y-40592380D01*
X74279047Y-39544761D01*
X74945714Y-41544761D02*
X74945714Y-39544761D01*
X75707619Y-39544761D01*
X75898095Y-39640000D01*
X75993333Y-39735238D01*
X76088571Y-39925714D01*
X76088571Y-40211428D01*
X75993333Y-40401904D01*
X75898095Y-40497142D01*
X75707619Y-40592380D01*
X74945714Y-40592380D01*
X76945714Y-40497142D02*
X77612380Y-40497142D01*
X77898095Y-41544761D02*
X76945714Y-41544761D01*
X76945714Y-39544761D01*
X77898095Y-39544761D01*
X80279047Y-41544761D02*
X80279047Y-39544761D01*
X81040952Y-39544761D01*
X81231428Y-39640000D01*
X81326666Y-39735238D01*
X81421904Y-39925714D01*
X81421904Y-40211428D01*
X81326666Y-40401904D01*
X81231428Y-40497142D01*
X81040952Y-40592380D01*
X80279047Y-40592380D01*
X83421904Y-41354285D02*
X83326666Y-41449523D01*
X83040952Y-41544761D01*
X82850476Y-41544761D01*
X82564761Y-41449523D01*
X82374285Y-41259047D01*
X82279047Y-41068571D01*
X82183809Y-40687619D01*
X82183809Y-40401904D01*
X82279047Y-40020952D01*
X82374285Y-39830476D01*
X82564761Y-39640000D01*
X82850476Y-39544761D01*
X83040952Y-39544761D01*
X83326666Y-39640000D01*
X83421904Y-39735238D01*
X84945714Y-40497142D02*
X85231428Y-40592380D01*
X85326666Y-40687619D01*
X85421904Y-40878095D01*
X85421904Y-41163809D01*
X85326666Y-41354285D01*
X85231428Y-41449523D01*
X85040952Y-41544761D01*
X84279047Y-41544761D01*
X84279047Y-39544761D01*
X84945714Y-39544761D01*
X85136190Y-39640000D01*
X85231428Y-39735238D01*
X85326666Y-39925714D01*
X85326666Y-40116190D01*
X85231428Y-40306666D01*
X85136190Y-40401904D01*
X84945714Y-40497142D01*
X84279047Y-40497142D01*
D11*
G36*
X87884000Y-154686000D02*
G01*
X59436000Y-154686000D01*
X59436000Y-149860000D01*
X87884000Y-149860000D01*
X87884000Y-154686000D01*
G37*
X87884000Y-154686000D02*
X59436000Y-154686000D01*
X59436000Y-149860000D01*
X87884000Y-149860000D01*
X87884000Y-154686000D01*
D10*
X70706333Y-157898666D02*
X71539666Y-157898666D01*
X70539666Y-158398666D02*
X71123000Y-156648666D01*
X71706333Y-158398666D01*
X73123000Y-158398666D02*
X72289666Y-158398666D01*
X72289666Y-156648666D01*
X74539666Y-158398666D02*
X73706333Y-158398666D01*
X73706333Y-156648666D01*
X75123000Y-157482000D02*
X75706333Y-157482000D01*
X75956333Y-158398666D02*
X75123000Y-158398666D01*
X75123000Y-156648666D01*
X75956333Y-156648666D01*
X76706333Y-158398666D02*
X76706333Y-156648666D01*
X77706333Y-158398666D01*
X77706333Y-156648666D01*
X80873000Y-158398666D02*
X80289666Y-157565333D01*
X79873000Y-158398666D02*
X79873000Y-156648666D01*
X80539666Y-156648666D01*
X80706333Y-156732000D01*
X80789666Y-156815333D01*
X80873000Y-156982000D01*
X80873000Y-157232000D01*
X80789666Y-157398666D01*
X80706333Y-157482000D01*
X80539666Y-157565333D01*
X79873000Y-157565333D01*
X81539666Y-157898666D02*
X82373000Y-157898666D01*
X81373000Y-158398666D02*
X81956333Y-156648666D01*
X82539666Y-158398666D01*
X83123000Y-158398666D02*
X83123000Y-156648666D01*
X84123000Y-158398666D01*
X84123000Y-156648666D01*
X85956333Y-158232000D02*
X85873000Y-158315333D01*
X85623000Y-158398666D01*
X85456333Y-158398666D01*
X85206333Y-158315333D01*
X85039666Y-158148666D01*
X84956333Y-157982000D01*
X84873000Y-157648666D01*
X84873000Y-157398666D01*
X84956333Y-157065333D01*
X85039666Y-156898666D01*
X85206333Y-156732000D01*
X85456333Y-156648666D01*
X85623000Y-156648666D01*
X85873000Y-156732000D01*
X85956333Y-156815333D01*
X86706333Y-158398666D02*
X86706333Y-156648666D01*
X86706333Y-157482000D02*
X87706333Y-157482000D01*
X87706333Y-158398666D02*
X87706333Y-156648666D01*
D12*
%TO.C,37*%
X63500000Y-147634000D02*
X86420000Y-147634000D01*
X86420000Y-147634000D02*
X86420000Y-144974000D01*
X86420000Y-144974000D02*
X63500000Y-144974000D01*
X63500000Y-144974000D02*
X63500000Y-147634000D01*
X62230000Y-147634000D02*
X60900000Y-147634000D01*
X60900000Y-147634000D02*
X60900000Y-146304000D01*
%TO.C,36*%
X83820000Y-142180000D02*
X60900000Y-142180000D01*
X60900000Y-142180000D02*
X60900000Y-144840000D01*
X60900000Y-144840000D02*
X83820000Y-144840000D01*
X83820000Y-144840000D02*
X83820000Y-142180000D01*
X85090000Y-142180000D02*
X86420000Y-142180000D01*
X86420000Y-142180000D02*
X86420000Y-143510000D01*
%TO.C,35*%
X63500000Y-142046000D02*
X86420000Y-142046000D01*
X86420000Y-142046000D02*
X86420000Y-139386000D01*
X86420000Y-139386000D02*
X63500000Y-139386000D01*
X63500000Y-139386000D02*
X63500000Y-142046000D01*
X62230000Y-142046000D02*
X60900000Y-142046000D01*
X60900000Y-142046000D02*
X60900000Y-140716000D01*
%TO.C,34*%
X83820000Y-136592000D02*
X60900000Y-136592000D01*
X60900000Y-136592000D02*
X60900000Y-139252000D01*
X60900000Y-139252000D02*
X83820000Y-139252000D01*
X83820000Y-139252000D02*
X83820000Y-136592000D01*
X85090000Y-136592000D02*
X86420000Y-136592000D01*
X86420000Y-136592000D02*
X86420000Y-137922000D01*
%TO.C,33*%
X63500000Y-136458000D02*
X86420000Y-136458000D01*
X86420000Y-136458000D02*
X86420000Y-133798000D01*
X86420000Y-133798000D02*
X63500000Y-133798000D01*
X63500000Y-133798000D02*
X63500000Y-136458000D01*
X62230000Y-136458000D02*
X60900000Y-136458000D01*
X60900000Y-136458000D02*
X60900000Y-135128000D01*
%TO.C,24*%
X83820000Y-108652000D02*
X60900000Y-108652000D01*
X60900000Y-108652000D02*
X60900000Y-111312000D01*
X60900000Y-111312000D02*
X83820000Y-111312000D01*
X83820000Y-111312000D02*
X83820000Y-108652000D01*
X85090000Y-108652000D02*
X86420000Y-108652000D01*
X86420000Y-108652000D02*
X86420000Y-109982000D01*
%TO.C,23*%
X63500000Y-108518000D02*
X86420000Y-108518000D01*
X86420000Y-108518000D02*
X86420000Y-105858000D01*
X86420000Y-105858000D02*
X63500000Y-105858000D01*
X63500000Y-105858000D02*
X63500000Y-108518000D01*
X62230000Y-108518000D02*
X60900000Y-108518000D01*
X60900000Y-108518000D02*
X60900000Y-107188000D01*
%TO.C,26*%
X83820000Y-114240000D02*
X60900000Y-114240000D01*
X60900000Y-114240000D02*
X60900000Y-116900000D01*
X60900000Y-116900000D02*
X83820000Y-116900000D01*
X83820000Y-116900000D02*
X83820000Y-114240000D01*
X85090000Y-114240000D02*
X86420000Y-114240000D01*
X86420000Y-114240000D02*
X86420000Y-115570000D01*
%TO.C,25*%
X63500000Y-114106000D02*
X86420000Y-114106000D01*
X86420000Y-114106000D02*
X86420000Y-111446000D01*
X86420000Y-111446000D02*
X63500000Y-111446000D01*
X63500000Y-111446000D02*
X63500000Y-114106000D01*
X62230000Y-114106000D02*
X60900000Y-114106000D01*
X60900000Y-114106000D02*
X60900000Y-112776000D01*
%TO.C,30*%
X83820000Y-125416000D02*
X60900000Y-125416000D01*
X60900000Y-125416000D02*
X60900000Y-128076000D01*
X60900000Y-128076000D02*
X83820000Y-128076000D01*
X83820000Y-128076000D02*
X83820000Y-125416000D01*
X85090000Y-125416000D02*
X86420000Y-125416000D01*
X86420000Y-125416000D02*
X86420000Y-126746000D01*
%TO.C,29*%
X63500000Y-125282000D02*
X86420000Y-125282000D01*
X86420000Y-125282000D02*
X86420000Y-122622000D01*
X86420000Y-122622000D02*
X63500000Y-122622000D01*
X63500000Y-122622000D02*
X63500000Y-125282000D01*
X62230000Y-125282000D02*
X60900000Y-125282000D01*
X60900000Y-125282000D02*
X60900000Y-123952000D01*
%TO.C,27*%
X63500000Y-119694000D02*
X86420000Y-119694000D01*
X86420000Y-119694000D02*
X86420000Y-117034000D01*
X86420000Y-117034000D02*
X63500000Y-117034000D01*
X63500000Y-117034000D02*
X63500000Y-119694000D01*
X62230000Y-119694000D02*
X60900000Y-119694000D01*
X60900000Y-119694000D02*
X60900000Y-118364000D01*
%TO.C,32*%
X83820000Y-131004000D02*
X60900000Y-131004000D01*
X60900000Y-131004000D02*
X60900000Y-133664000D01*
X60900000Y-133664000D02*
X83820000Y-133664000D01*
X83820000Y-133664000D02*
X83820000Y-131004000D01*
X85090000Y-131004000D02*
X86420000Y-131004000D01*
X86420000Y-131004000D02*
X86420000Y-132334000D01*
%TO.C,31*%
X63500000Y-130870000D02*
X86420000Y-130870000D01*
X86420000Y-130870000D02*
X86420000Y-128210000D01*
X86420000Y-128210000D02*
X63500000Y-128210000D01*
X63500000Y-128210000D02*
X63500000Y-130870000D01*
X62230000Y-130870000D02*
X60900000Y-130870000D01*
X60900000Y-130870000D02*
X60900000Y-129540000D01*
%TO.C,21*%
X63500000Y-102930000D02*
X86420000Y-102930000D01*
X86420000Y-102930000D02*
X86420000Y-100270000D01*
X86420000Y-100270000D02*
X63500000Y-100270000D01*
X63500000Y-100270000D02*
X63500000Y-102930000D01*
X62230000Y-102930000D02*
X60900000Y-102930000D01*
X60900000Y-102930000D02*
X60900000Y-101600000D01*
%TO.C,22*%
X83820000Y-103064000D02*
X60900000Y-103064000D01*
X60900000Y-103064000D02*
X60900000Y-105724000D01*
X60900000Y-105724000D02*
X83820000Y-105724000D01*
X83820000Y-105724000D02*
X83820000Y-103064000D01*
X85090000Y-103064000D02*
X86420000Y-103064000D01*
X86420000Y-103064000D02*
X86420000Y-104394000D01*
%TO.C,28*%
X83820000Y-119828000D02*
X60900000Y-119828000D01*
X60900000Y-119828000D02*
X60900000Y-122488000D01*
X60900000Y-122488000D02*
X83820000Y-122488000D01*
X83820000Y-122488000D02*
X83820000Y-119828000D01*
X85090000Y-119828000D02*
X86420000Y-119828000D01*
X86420000Y-119828000D02*
X86420000Y-121158000D01*
%TO.C,19*%
X63500000Y-97342000D02*
X86420000Y-97342000D01*
X86420000Y-97342000D02*
X86420000Y-94682000D01*
X86420000Y-94682000D02*
X63500000Y-94682000D01*
X63500000Y-94682000D02*
X63500000Y-97342000D01*
X62230000Y-97342000D02*
X60900000Y-97342000D01*
X60900000Y-97342000D02*
X60900000Y-96012000D01*
%TO.C,20*%
X83820000Y-97476000D02*
X60900000Y-97476000D01*
X60900000Y-97476000D02*
X60900000Y-100136000D01*
X60900000Y-100136000D02*
X83820000Y-100136000D01*
X83820000Y-100136000D02*
X83820000Y-97476000D01*
X85090000Y-97476000D02*
X86420000Y-97476000D01*
X86420000Y-97476000D02*
X86420000Y-98806000D01*
%TO.C,17*%
X63500000Y-91754000D02*
X86420000Y-91754000D01*
X86420000Y-91754000D02*
X86420000Y-89094000D01*
X86420000Y-89094000D02*
X63500000Y-89094000D01*
X63500000Y-89094000D02*
X63500000Y-91754000D01*
X62230000Y-91754000D02*
X60900000Y-91754000D01*
X60900000Y-91754000D02*
X60900000Y-90424000D01*
%TO.C,18*%
X83820000Y-91888000D02*
X60900000Y-91888000D01*
X60900000Y-91888000D02*
X60900000Y-94548000D01*
X60900000Y-94548000D02*
X83820000Y-94548000D01*
X83820000Y-94548000D02*
X83820000Y-91888000D01*
X85090000Y-91888000D02*
X86420000Y-91888000D01*
X86420000Y-91888000D02*
X86420000Y-93218000D01*
%TO.C,15*%
X63500000Y-86166000D02*
X86420000Y-86166000D01*
X86420000Y-86166000D02*
X86420000Y-83506000D01*
X86420000Y-83506000D02*
X63500000Y-83506000D01*
X63500000Y-83506000D02*
X63500000Y-86166000D01*
X62230000Y-86166000D02*
X60900000Y-86166000D01*
X60900000Y-86166000D02*
X60900000Y-84836000D01*
%TO.C,16*%
X83820000Y-86300000D02*
X60900000Y-86300000D01*
X60900000Y-86300000D02*
X60900000Y-88960000D01*
X60900000Y-88960000D02*
X83820000Y-88960000D01*
X83820000Y-88960000D02*
X83820000Y-86300000D01*
X85090000Y-86300000D02*
X86420000Y-86300000D01*
X86420000Y-86300000D02*
X86420000Y-87630000D01*
%TO.C,13*%
X63500000Y-80578000D02*
X86420000Y-80578000D01*
X86420000Y-80578000D02*
X86420000Y-77918000D01*
X86420000Y-77918000D02*
X63500000Y-77918000D01*
X63500000Y-77918000D02*
X63500000Y-80578000D01*
X62230000Y-80578000D02*
X60900000Y-80578000D01*
X60900000Y-80578000D02*
X60900000Y-79248000D01*
%TO.C,14*%
X83820000Y-80712000D02*
X60900000Y-80712000D01*
X60900000Y-80712000D02*
X60900000Y-83372000D01*
X60900000Y-83372000D02*
X83820000Y-83372000D01*
X83820000Y-83372000D02*
X83820000Y-80712000D01*
X85090000Y-80712000D02*
X86420000Y-80712000D01*
X86420000Y-80712000D02*
X86420000Y-82042000D01*
%TO.C,11*%
X63500000Y-74990000D02*
X86420000Y-74990000D01*
X86420000Y-74990000D02*
X86420000Y-72330000D01*
X86420000Y-72330000D02*
X63500000Y-72330000D01*
X63500000Y-72330000D02*
X63500000Y-74990000D01*
X62230000Y-74990000D02*
X60900000Y-74990000D01*
X60900000Y-74990000D02*
X60900000Y-73660000D01*
%TO.C,12*%
X83820000Y-75124000D02*
X60900000Y-75124000D01*
X60900000Y-75124000D02*
X60900000Y-77784000D01*
X60900000Y-77784000D02*
X83820000Y-77784000D01*
X83820000Y-77784000D02*
X83820000Y-75124000D01*
X85090000Y-75124000D02*
X86420000Y-75124000D01*
X86420000Y-75124000D02*
X86420000Y-76454000D01*
%TO.C,9*%
X63500000Y-69402000D02*
X86420000Y-69402000D01*
X86420000Y-69402000D02*
X86420000Y-66742000D01*
X86420000Y-66742000D02*
X63500000Y-66742000D01*
X63500000Y-66742000D02*
X63500000Y-69402000D01*
X62230000Y-69402000D02*
X60900000Y-69402000D01*
X60900000Y-69402000D02*
X60900000Y-68072000D01*
%TO.C,10*%
X83820000Y-69536000D02*
X60900000Y-69536000D01*
X60900000Y-69536000D02*
X60900000Y-72196000D01*
X60900000Y-72196000D02*
X83820000Y-72196000D01*
X83820000Y-72196000D02*
X83820000Y-69536000D01*
X85090000Y-69536000D02*
X86420000Y-69536000D01*
X86420000Y-69536000D02*
X86420000Y-70866000D01*
%TO.C,7*%
X63500000Y-63814000D02*
X86420000Y-63814000D01*
X86420000Y-63814000D02*
X86420000Y-61154000D01*
X86420000Y-61154000D02*
X63500000Y-61154000D01*
X63500000Y-61154000D02*
X63500000Y-63814000D01*
X62230000Y-63814000D02*
X60900000Y-63814000D01*
X60900000Y-63814000D02*
X60900000Y-62484000D01*
%TO.C,8*%
X83820000Y-63948000D02*
X60900000Y-63948000D01*
X60900000Y-63948000D02*
X60900000Y-66608000D01*
X60900000Y-66608000D02*
X83820000Y-66608000D01*
X83820000Y-66608000D02*
X83820000Y-63948000D01*
X85090000Y-63948000D02*
X86420000Y-63948000D01*
X86420000Y-63948000D02*
X86420000Y-65278000D01*
%TO.C,5*%
X63500000Y-58226000D02*
X86420000Y-58226000D01*
X86420000Y-58226000D02*
X86420000Y-55566000D01*
X86420000Y-55566000D02*
X63500000Y-55566000D01*
X63500000Y-55566000D02*
X63500000Y-58226000D01*
X62230000Y-58226000D02*
X60900000Y-58226000D01*
X60900000Y-58226000D02*
X60900000Y-56896000D01*
%TO.C,6*%
X83820000Y-58360000D02*
X60900000Y-58360000D01*
X60900000Y-58360000D02*
X60900000Y-61020000D01*
X60900000Y-61020000D02*
X83820000Y-61020000D01*
X83820000Y-61020000D02*
X83820000Y-58360000D01*
X85090000Y-58360000D02*
X86420000Y-58360000D01*
X86420000Y-58360000D02*
X86420000Y-59690000D01*
%TO.C,3*%
X63500000Y-52638000D02*
X86420000Y-52638000D01*
X86420000Y-52638000D02*
X86420000Y-49978000D01*
X86420000Y-49978000D02*
X63500000Y-49978000D01*
X63500000Y-49978000D02*
X63500000Y-52638000D01*
X62230000Y-52638000D02*
X60900000Y-52638000D01*
X60900000Y-52638000D02*
X60900000Y-51308000D01*
%TO.C,4*%
X83820000Y-52772000D02*
X60900000Y-52772000D01*
X60900000Y-52772000D02*
X60900000Y-55432000D01*
X60900000Y-55432000D02*
X83820000Y-55432000D01*
X83820000Y-55432000D02*
X83820000Y-52772000D01*
X85090000Y-52772000D02*
X86420000Y-52772000D01*
X86420000Y-52772000D02*
X86420000Y-54102000D01*
%TO.C,2*%
X83820000Y-47438000D02*
X60900000Y-47438000D01*
X60900000Y-47438000D02*
X60900000Y-50098000D01*
X60900000Y-50098000D02*
X83820000Y-50098000D01*
X83820000Y-50098000D02*
X83820000Y-47438000D01*
X85090000Y-47438000D02*
X86420000Y-47438000D01*
X86420000Y-47438000D02*
X86420000Y-48768000D01*
%TO.C,1*%
X63500000Y-47304000D02*
X86420000Y-47304000D01*
X86420000Y-47304000D02*
X86420000Y-44644000D01*
X86420000Y-44644000D02*
X63500000Y-44644000D01*
X63500000Y-44644000D02*
X63500000Y-47304000D01*
X62230000Y-47304000D02*
X60900000Y-47304000D01*
X60900000Y-47304000D02*
X60900000Y-45974000D01*
%TO.C,37*%
D10*
X59352380Y-147113523D02*
X59352380Y-146494476D01*
X59733333Y-146827809D01*
X59733333Y-146684952D01*
X59780952Y-146589714D01*
X59828571Y-146542095D01*
X59923809Y-146494476D01*
X60161904Y-146494476D01*
X60257142Y-146542095D01*
X60304761Y-146589714D01*
X60352380Y-146684952D01*
X60352380Y-146970666D01*
X60304761Y-147065904D01*
X60257142Y-147113523D01*
X59352380Y-146161142D02*
X59352380Y-145494476D01*
X60352380Y-145923047D01*
%TO.C,36*%
X86872380Y-144319523D02*
X86872380Y-143700476D01*
X87253333Y-144033809D01*
X87253333Y-143890952D01*
X87300952Y-143795714D01*
X87348571Y-143748095D01*
X87443809Y-143700476D01*
X87681904Y-143700476D01*
X87777142Y-143748095D01*
X87824761Y-143795714D01*
X87872380Y-143890952D01*
X87872380Y-144176666D01*
X87824761Y-144271904D01*
X87777142Y-144319523D01*
X86872380Y-142843333D02*
X86872380Y-143033809D01*
X86920000Y-143129047D01*
X86967619Y-143176666D01*
X87110476Y-143271904D01*
X87300952Y-143319523D01*
X87681904Y-143319523D01*
X87777142Y-143271904D01*
X87824761Y-143224285D01*
X87872380Y-143129047D01*
X87872380Y-142938571D01*
X87824761Y-142843333D01*
X87777142Y-142795714D01*
X87681904Y-142748095D01*
X87443809Y-142748095D01*
X87348571Y-142795714D01*
X87300952Y-142843333D01*
X87253333Y-142938571D01*
X87253333Y-143129047D01*
X87300952Y-143224285D01*
X87348571Y-143271904D01*
X87443809Y-143319523D01*
%TO.C,35*%
X59352380Y-141525523D02*
X59352380Y-140906476D01*
X59733333Y-141239809D01*
X59733333Y-141096952D01*
X59780952Y-141001714D01*
X59828571Y-140954095D01*
X59923809Y-140906476D01*
X60161904Y-140906476D01*
X60257142Y-140954095D01*
X60304761Y-141001714D01*
X60352380Y-141096952D01*
X60352380Y-141382666D01*
X60304761Y-141477904D01*
X60257142Y-141525523D01*
X59352380Y-140001714D02*
X59352380Y-140477904D01*
X59828571Y-140525523D01*
X59780952Y-140477904D01*
X59733333Y-140382666D01*
X59733333Y-140144571D01*
X59780952Y-140049333D01*
X59828571Y-140001714D01*
X59923809Y-139954095D01*
X60161904Y-139954095D01*
X60257142Y-140001714D01*
X60304761Y-140049333D01*
X60352380Y-140144571D01*
X60352380Y-140382666D01*
X60304761Y-140477904D01*
X60257142Y-140525523D01*
%TO.C,34*%
X86872380Y-138731523D02*
X86872380Y-138112476D01*
X87253333Y-138445809D01*
X87253333Y-138302952D01*
X87300952Y-138207714D01*
X87348571Y-138160095D01*
X87443809Y-138112476D01*
X87681904Y-138112476D01*
X87777142Y-138160095D01*
X87824761Y-138207714D01*
X87872380Y-138302952D01*
X87872380Y-138588666D01*
X87824761Y-138683904D01*
X87777142Y-138731523D01*
X87205714Y-137255333D02*
X87872380Y-137255333D01*
X86824761Y-137493428D02*
X87539047Y-137731523D01*
X87539047Y-137112476D01*
%TO.C,33*%
X59352380Y-135937523D02*
X59352380Y-135318476D01*
X59733333Y-135651809D01*
X59733333Y-135508952D01*
X59780952Y-135413714D01*
X59828571Y-135366095D01*
X59923809Y-135318476D01*
X60161904Y-135318476D01*
X60257142Y-135366095D01*
X60304761Y-135413714D01*
X60352380Y-135508952D01*
X60352380Y-135794666D01*
X60304761Y-135889904D01*
X60257142Y-135937523D01*
X59352380Y-134985142D02*
X59352380Y-134366095D01*
X59733333Y-134699428D01*
X59733333Y-134556571D01*
X59780952Y-134461333D01*
X59828571Y-134413714D01*
X59923809Y-134366095D01*
X60161904Y-134366095D01*
X60257142Y-134413714D01*
X60304761Y-134461333D01*
X60352380Y-134556571D01*
X60352380Y-134842285D01*
X60304761Y-134937523D01*
X60257142Y-134985142D01*
%TO.C,24*%
X86967619Y-110743904D02*
X86920000Y-110696285D01*
X86872380Y-110601047D01*
X86872380Y-110362952D01*
X86920000Y-110267714D01*
X86967619Y-110220095D01*
X87062857Y-110172476D01*
X87158095Y-110172476D01*
X87300952Y-110220095D01*
X87872380Y-110791523D01*
X87872380Y-110172476D01*
X87205714Y-109315333D02*
X87872380Y-109315333D01*
X86824761Y-109553428D02*
X87539047Y-109791523D01*
X87539047Y-109172476D01*
%TO.C,23*%
X59447619Y-107949904D02*
X59400000Y-107902285D01*
X59352380Y-107807047D01*
X59352380Y-107568952D01*
X59400000Y-107473714D01*
X59447619Y-107426095D01*
X59542857Y-107378476D01*
X59638095Y-107378476D01*
X59780952Y-107426095D01*
X60352380Y-107997523D01*
X60352380Y-107378476D01*
X59352380Y-107045142D02*
X59352380Y-106426095D01*
X59733333Y-106759428D01*
X59733333Y-106616571D01*
X59780952Y-106521333D01*
X59828571Y-106473714D01*
X59923809Y-106426095D01*
X60161904Y-106426095D01*
X60257142Y-106473714D01*
X60304761Y-106521333D01*
X60352380Y-106616571D01*
X60352380Y-106902285D01*
X60304761Y-106997523D01*
X60257142Y-107045142D01*
%TO.C,26*%
X86967619Y-116331904D02*
X86920000Y-116284285D01*
X86872380Y-116189047D01*
X86872380Y-115950952D01*
X86920000Y-115855714D01*
X86967619Y-115808095D01*
X87062857Y-115760476D01*
X87158095Y-115760476D01*
X87300952Y-115808095D01*
X87872380Y-116379523D01*
X87872380Y-115760476D01*
X86872380Y-114903333D02*
X86872380Y-115093809D01*
X86920000Y-115189047D01*
X86967619Y-115236666D01*
X87110476Y-115331904D01*
X87300952Y-115379523D01*
X87681904Y-115379523D01*
X87777142Y-115331904D01*
X87824761Y-115284285D01*
X87872380Y-115189047D01*
X87872380Y-114998571D01*
X87824761Y-114903333D01*
X87777142Y-114855714D01*
X87681904Y-114808095D01*
X87443809Y-114808095D01*
X87348571Y-114855714D01*
X87300952Y-114903333D01*
X87253333Y-114998571D01*
X87253333Y-115189047D01*
X87300952Y-115284285D01*
X87348571Y-115331904D01*
X87443809Y-115379523D01*
%TO.C,25*%
X59447619Y-113537904D02*
X59400000Y-113490285D01*
X59352380Y-113395047D01*
X59352380Y-113156952D01*
X59400000Y-113061714D01*
X59447619Y-113014095D01*
X59542857Y-112966476D01*
X59638095Y-112966476D01*
X59780952Y-113014095D01*
X60352380Y-113585523D01*
X60352380Y-112966476D01*
X59352380Y-112061714D02*
X59352380Y-112537904D01*
X59828571Y-112585523D01*
X59780952Y-112537904D01*
X59733333Y-112442666D01*
X59733333Y-112204571D01*
X59780952Y-112109333D01*
X59828571Y-112061714D01*
X59923809Y-112014095D01*
X60161904Y-112014095D01*
X60257142Y-112061714D01*
X60304761Y-112109333D01*
X60352380Y-112204571D01*
X60352380Y-112442666D01*
X60304761Y-112537904D01*
X60257142Y-112585523D01*
%TO.C,30*%
X86872380Y-127555523D02*
X86872380Y-126936476D01*
X87253333Y-127269809D01*
X87253333Y-127126952D01*
X87300952Y-127031714D01*
X87348571Y-126984095D01*
X87443809Y-126936476D01*
X87681904Y-126936476D01*
X87777142Y-126984095D01*
X87824761Y-127031714D01*
X87872380Y-127126952D01*
X87872380Y-127412666D01*
X87824761Y-127507904D01*
X87777142Y-127555523D01*
X86872380Y-126317428D02*
X86872380Y-126222190D01*
X86920000Y-126126952D01*
X86967619Y-126079333D01*
X87062857Y-126031714D01*
X87253333Y-125984095D01*
X87491428Y-125984095D01*
X87681904Y-126031714D01*
X87777142Y-126079333D01*
X87824761Y-126126952D01*
X87872380Y-126222190D01*
X87872380Y-126317428D01*
X87824761Y-126412666D01*
X87777142Y-126460285D01*
X87681904Y-126507904D01*
X87491428Y-126555523D01*
X87253333Y-126555523D01*
X87062857Y-126507904D01*
X86967619Y-126460285D01*
X86920000Y-126412666D01*
X86872380Y-126317428D01*
%TO.C,29*%
X59447619Y-124713904D02*
X59400000Y-124666285D01*
X59352380Y-124571047D01*
X59352380Y-124332952D01*
X59400000Y-124237714D01*
X59447619Y-124190095D01*
X59542857Y-124142476D01*
X59638095Y-124142476D01*
X59780952Y-124190095D01*
X60352380Y-124761523D01*
X60352380Y-124142476D01*
X60352380Y-123666285D02*
X60352380Y-123475809D01*
X60304761Y-123380571D01*
X60257142Y-123332952D01*
X60114285Y-123237714D01*
X59923809Y-123190095D01*
X59542857Y-123190095D01*
X59447619Y-123237714D01*
X59400000Y-123285333D01*
X59352380Y-123380571D01*
X59352380Y-123571047D01*
X59400000Y-123666285D01*
X59447619Y-123713904D01*
X59542857Y-123761523D01*
X59780952Y-123761523D01*
X59876190Y-123713904D01*
X59923809Y-123666285D01*
X59971428Y-123571047D01*
X59971428Y-123380571D01*
X59923809Y-123285333D01*
X59876190Y-123237714D01*
X59780952Y-123190095D01*
%TO.C,27*%
X59447619Y-119125904D02*
X59400000Y-119078285D01*
X59352380Y-118983047D01*
X59352380Y-118744952D01*
X59400000Y-118649714D01*
X59447619Y-118602095D01*
X59542857Y-118554476D01*
X59638095Y-118554476D01*
X59780952Y-118602095D01*
X60352380Y-119173523D01*
X60352380Y-118554476D01*
X59352380Y-118221142D02*
X59352380Y-117554476D01*
X60352380Y-117983047D01*
%TO.C,32*%
X86872380Y-133143523D02*
X86872380Y-132524476D01*
X87253333Y-132857809D01*
X87253333Y-132714952D01*
X87300952Y-132619714D01*
X87348571Y-132572095D01*
X87443809Y-132524476D01*
X87681904Y-132524476D01*
X87777142Y-132572095D01*
X87824761Y-132619714D01*
X87872380Y-132714952D01*
X87872380Y-133000666D01*
X87824761Y-133095904D01*
X87777142Y-133143523D01*
X86967619Y-132143523D02*
X86920000Y-132095904D01*
X86872380Y-132000666D01*
X86872380Y-131762571D01*
X86920000Y-131667333D01*
X86967619Y-131619714D01*
X87062857Y-131572095D01*
X87158095Y-131572095D01*
X87300952Y-131619714D01*
X87872380Y-132191142D01*
X87872380Y-131572095D01*
%TO.C,31*%
X59352380Y-130349523D02*
X59352380Y-129730476D01*
X59733333Y-130063809D01*
X59733333Y-129920952D01*
X59780952Y-129825714D01*
X59828571Y-129778095D01*
X59923809Y-129730476D01*
X60161904Y-129730476D01*
X60257142Y-129778095D01*
X60304761Y-129825714D01*
X60352380Y-129920952D01*
X60352380Y-130206666D01*
X60304761Y-130301904D01*
X60257142Y-130349523D01*
X60352380Y-128778095D02*
X60352380Y-129349523D01*
X60352380Y-129063809D02*
X59352380Y-129063809D01*
X59495238Y-129159047D01*
X59590476Y-129254285D01*
X59638095Y-129349523D01*
%TO.C,21*%
X59447619Y-102361904D02*
X59400000Y-102314285D01*
X59352380Y-102219047D01*
X59352380Y-101980952D01*
X59400000Y-101885714D01*
X59447619Y-101838095D01*
X59542857Y-101790476D01*
X59638095Y-101790476D01*
X59780952Y-101838095D01*
X60352380Y-102409523D01*
X60352380Y-101790476D01*
X60352380Y-100838095D02*
X60352380Y-101409523D01*
X60352380Y-101123809D02*
X59352380Y-101123809D01*
X59495238Y-101219047D01*
X59590476Y-101314285D01*
X59638095Y-101409523D01*
%TO.C,22*%
X86967619Y-105155904D02*
X86920000Y-105108285D01*
X86872380Y-105013047D01*
X86872380Y-104774952D01*
X86920000Y-104679714D01*
X86967619Y-104632095D01*
X87062857Y-104584476D01*
X87158095Y-104584476D01*
X87300952Y-104632095D01*
X87872380Y-105203523D01*
X87872380Y-104584476D01*
X86967619Y-104203523D02*
X86920000Y-104155904D01*
X86872380Y-104060666D01*
X86872380Y-103822571D01*
X86920000Y-103727333D01*
X86967619Y-103679714D01*
X87062857Y-103632095D01*
X87158095Y-103632095D01*
X87300952Y-103679714D01*
X87872380Y-104251142D01*
X87872380Y-103632095D01*
%TO.C,28*%
X86967619Y-121919904D02*
X86920000Y-121872285D01*
X86872380Y-121777047D01*
X86872380Y-121538952D01*
X86920000Y-121443714D01*
X86967619Y-121396095D01*
X87062857Y-121348476D01*
X87158095Y-121348476D01*
X87300952Y-121396095D01*
X87872380Y-121967523D01*
X87872380Y-121348476D01*
X87300952Y-120777047D02*
X87253333Y-120872285D01*
X87205714Y-120919904D01*
X87110476Y-120967523D01*
X87062857Y-120967523D01*
X86967619Y-120919904D01*
X86920000Y-120872285D01*
X86872380Y-120777047D01*
X86872380Y-120586571D01*
X86920000Y-120491333D01*
X86967619Y-120443714D01*
X87062857Y-120396095D01*
X87110476Y-120396095D01*
X87205714Y-120443714D01*
X87253333Y-120491333D01*
X87300952Y-120586571D01*
X87300952Y-120777047D01*
X87348571Y-120872285D01*
X87396190Y-120919904D01*
X87491428Y-120967523D01*
X87681904Y-120967523D01*
X87777142Y-120919904D01*
X87824761Y-120872285D01*
X87872380Y-120777047D01*
X87872380Y-120586571D01*
X87824761Y-120491333D01*
X87777142Y-120443714D01*
X87681904Y-120396095D01*
X87491428Y-120396095D01*
X87396190Y-120443714D01*
X87348571Y-120491333D01*
X87300952Y-120586571D01*
%TO.C,19*%
X60352380Y-96202476D02*
X60352380Y-96773904D01*
X60352380Y-96488190D02*
X59352380Y-96488190D01*
X59495238Y-96583428D01*
X59590476Y-96678666D01*
X59638095Y-96773904D01*
X60352380Y-95726285D02*
X60352380Y-95535809D01*
X60304761Y-95440571D01*
X60257142Y-95392952D01*
X60114285Y-95297714D01*
X59923809Y-95250095D01*
X59542857Y-95250095D01*
X59447619Y-95297714D01*
X59400000Y-95345333D01*
X59352380Y-95440571D01*
X59352380Y-95631047D01*
X59400000Y-95726285D01*
X59447619Y-95773904D01*
X59542857Y-95821523D01*
X59780952Y-95821523D01*
X59876190Y-95773904D01*
X59923809Y-95726285D01*
X59971428Y-95631047D01*
X59971428Y-95440571D01*
X59923809Y-95345333D01*
X59876190Y-95297714D01*
X59780952Y-95250095D01*
%TO.C,20*%
X86967619Y-99567904D02*
X86920000Y-99520285D01*
X86872380Y-99425047D01*
X86872380Y-99186952D01*
X86920000Y-99091714D01*
X86967619Y-99044095D01*
X87062857Y-98996476D01*
X87158095Y-98996476D01*
X87300952Y-99044095D01*
X87872380Y-99615523D01*
X87872380Y-98996476D01*
X86872380Y-98377428D02*
X86872380Y-98282190D01*
X86920000Y-98186952D01*
X86967619Y-98139333D01*
X87062857Y-98091714D01*
X87253333Y-98044095D01*
X87491428Y-98044095D01*
X87681904Y-98091714D01*
X87777142Y-98139333D01*
X87824761Y-98186952D01*
X87872380Y-98282190D01*
X87872380Y-98377428D01*
X87824761Y-98472666D01*
X87777142Y-98520285D01*
X87681904Y-98567904D01*
X87491428Y-98615523D01*
X87253333Y-98615523D01*
X87062857Y-98567904D01*
X86967619Y-98520285D01*
X86920000Y-98472666D01*
X86872380Y-98377428D01*
%TO.C,17*%
X60352380Y-90614476D02*
X60352380Y-91185904D01*
X60352380Y-90900190D02*
X59352380Y-90900190D01*
X59495238Y-90995428D01*
X59590476Y-91090666D01*
X59638095Y-91185904D01*
X59352380Y-90281142D02*
X59352380Y-89614476D01*
X60352380Y-90043047D01*
%TO.C,18*%
X87872380Y-93408476D02*
X87872380Y-93979904D01*
X87872380Y-93694190D02*
X86872380Y-93694190D01*
X87015238Y-93789428D01*
X87110476Y-93884666D01*
X87158095Y-93979904D01*
X87300952Y-92837047D02*
X87253333Y-92932285D01*
X87205714Y-92979904D01*
X87110476Y-93027523D01*
X87062857Y-93027523D01*
X86967619Y-92979904D01*
X86920000Y-92932285D01*
X86872380Y-92837047D01*
X86872380Y-92646571D01*
X86920000Y-92551333D01*
X86967619Y-92503714D01*
X87062857Y-92456095D01*
X87110476Y-92456095D01*
X87205714Y-92503714D01*
X87253333Y-92551333D01*
X87300952Y-92646571D01*
X87300952Y-92837047D01*
X87348571Y-92932285D01*
X87396190Y-92979904D01*
X87491428Y-93027523D01*
X87681904Y-93027523D01*
X87777142Y-92979904D01*
X87824761Y-92932285D01*
X87872380Y-92837047D01*
X87872380Y-92646571D01*
X87824761Y-92551333D01*
X87777142Y-92503714D01*
X87681904Y-92456095D01*
X87491428Y-92456095D01*
X87396190Y-92503714D01*
X87348571Y-92551333D01*
X87300952Y-92646571D01*
%TO.C,15*%
X60352380Y-85026476D02*
X60352380Y-85597904D01*
X60352380Y-85312190D02*
X59352380Y-85312190D01*
X59495238Y-85407428D01*
X59590476Y-85502666D01*
X59638095Y-85597904D01*
X59352380Y-84121714D02*
X59352380Y-84597904D01*
X59828571Y-84645523D01*
X59780952Y-84597904D01*
X59733333Y-84502666D01*
X59733333Y-84264571D01*
X59780952Y-84169333D01*
X59828571Y-84121714D01*
X59923809Y-84074095D01*
X60161904Y-84074095D01*
X60257142Y-84121714D01*
X60304761Y-84169333D01*
X60352380Y-84264571D01*
X60352380Y-84502666D01*
X60304761Y-84597904D01*
X60257142Y-84645523D01*
%TO.C,16*%
X87872380Y-87820476D02*
X87872380Y-88391904D01*
X87872380Y-88106190D02*
X86872380Y-88106190D01*
X87015238Y-88201428D01*
X87110476Y-88296666D01*
X87158095Y-88391904D01*
X86872380Y-86963333D02*
X86872380Y-87153809D01*
X86920000Y-87249047D01*
X86967619Y-87296666D01*
X87110476Y-87391904D01*
X87300952Y-87439523D01*
X87681904Y-87439523D01*
X87777142Y-87391904D01*
X87824761Y-87344285D01*
X87872380Y-87249047D01*
X87872380Y-87058571D01*
X87824761Y-86963333D01*
X87777142Y-86915714D01*
X87681904Y-86868095D01*
X87443809Y-86868095D01*
X87348571Y-86915714D01*
X87300952Y-86963333D01*
X87253333Y-87058571D01*
X87253333Y-87249047D01*
X87300952Y-87344285D01*
X87348571Y-87391904D01*
X87443809Y-87439523D01*
%TO.C,13*%
X60352380Y-79438476D02*
X60352380Y-80009904D01*
X60352380Y-79724190D02*
X59352380Y-79724190D01*
X59495238Y-79819428D01*
X59590476Y-79914666D01*
X59638095Y-80009904D01*
X59352380Y-79105142D02*
X59352380Y-78486095D01*
X59733333Y-78819428D01*
X59733333Y-78676571D01*
X59780952Y-78581333D01*
X59828571Y-78533714D01*
X59923809Y-78486095D01*
X60161904Y-78486095D01*
X60257142Y-78533714D01*
X60304761Y-78581333D01*
X60352380Y-78676571D01*
X60352380Y-78962285D01*
X60304761Y-79057523D01*
X60257142Y-79105142D01*
%TO.C,14*%
X87872380Y-82232476D02*
X87872380Y-82803904D01*
X87872380Y-82518190D02*
X86872380Y-82518190D01*
X87015238Y-82613428D01*
X87110476Y-82708666D01*
X87158095Y-82803904D01*
X87205714Y-81375333D02*
X87872380Y-81375333D01*
X86824761Y-81613428D02*
X87539047Y-81851523D01*
X87539047Y-81232476D01*
%TO.C,11*%
X60352380Y-73850476D02*
X60352380Y-74421904D01*
X60352380Y-74136190D02*
X59352380Y-74136190D01*
X59495238Y-74231428D01*
X59590476Y-74326666D01*
X59638095Y-74421904D01*
X60352380Y-72898095D02*
X60352380Y-73469523D01*
X60352380Y-73183809D02*
X59352380Y-73183809D01*
X59495238Y-73279047D01*
X59590476Y-73374285D01*
X59638095Y-73469523D01*
%TO.C,12*%
X87872380Y-76644476D02*
X87872380Y-77215904D01*
X87872380Y-76930190D02*
X86872380Y-76930190D01*
X87015238Y-77025428D01*
X87110476Y-77120666D01*
X87158095Y-77215904D01*
X86967619Y-76263523D02*
X86920000Y-76215904D01*
X86872380Y-76120666D01*
X86872380Y-75882571D01*
X86920000Y-75787333D01*
X86967619Y-75739714D01*
X87062857Y-75692095D01*
X87158095Y-75692095D01*
X87300952Y-75739714D01*
X87872380Y-76311142D01*
X87872380Y-75692095D01*
%TO.C,9*%
X60352380Y-68262476D02*
X60352380Y-68072000D01*
X60304761Y-67976761D01*
X60257142Y-67929142D01*
X60114285Y-67833904D01*
X59923809Y-67786285D01*
X59542857Y-67786285D01*
X59447619Y-67833904D01*
X59400000Y-67881523D01*
X59352380Y-67976761D01*
X59352380Y-68167238D01*
X59400000Y-68262476D01*
X59447619Y-68310095D01*
X59542857Y-68357714D01*
X59780952Y-68357714D01*
X59876190Y-68310095D01*
X59923809Y-68262476D01*
X59971428Y-68167238D01*
X59971428Y-67976761D01*
X59923809Y-67881523D01*
X59876190Y-67833904D01*
X59780952Y-67786285D01*
%TO.C,10*%
X87872380Y-71056476D02*
X87872380Y-71627904D01*
X87872380Y-71342190D02*
X86872380Y-71342190D01*
X87015238Y-71437428D01*
X87110476Y-71532666D01*
X87158095Y-71627904D01*
X86872380Y-70437428D02*
X86872380Y-70342190D01*
X86920000Y-70246952D01*
X86967619Y-70199333D01*
X87062857Y-70151714D01*
X87253333Y-70104095D01*
X87491428Y-70104095D01*
X87681904Y-70151714D01*
X87777142Y-70199333D01*
X87824761Y-70246952D01*
X87872380Y-70342190D01*
X87872380Y-70437428D01*
X87824761Y-70532666D01*
X87777142Y-70580285D01*
X87681904Y-70627904D01*
X87491428Y-70675523D01*
X87253333Y-70675523D01*
X87062857Y-70627904D01*
X86967619Y-70580285D01*
X86920000Y-70532666D01*
X86872380Y-70437428D01*
%TO.C,7*%
X59352380Y-62817333D02*
X59352380Y-62150666D01*
X60352380Y-62579238D01*
%TO.C,8*%
X87300952Y-65373238D02*
X87253333Y-65468476D01*
X87205714Y-65516095D01*
X87110476Y-65563714D01*
X87062857Y-65563714D01*
X86967619Y-65516095D01*
X86920000Y-65468476D01*
X86872380Y-65373238D01*
X86872380Y-65182761D01*
X86920000Y-65087523D01*
X86967619Y-65039904D01*
X87062857Y-64992285D01*
X87110476Y-64992285D01*
X87205714Y-65039904D01*
X87253333Y-65087523D01*
X87300952Y-65182761D01*
X87300952Y-65373238D01*
X87348571Y-65468476D01*
X87396190Y-65516095D01*
X87491428Y-65563714D01*
X87681904Y-65563714D01*
X87777142Y-65516095D01*
X87824761Y-65468476D01*
X87872380Y-65373238D01*
X87872380Y-65182761D01*
X87824761Y-65087523D01*
X87777142Y-65039904D01*
X87681904Y-64992285D01*
X87491428Y-64992285D01*
X87396190Y-65039904D01*
X87348571Y-65087523D01*
X87300952Y-65182761D01*
%TO.C,5*%
X59352380Y-56657904D02*
X59352380Y-57134095D01*
X59828571Y-57181714D01*
X59780952Y-57134095D01*
X59733333Y-57038857D01*
X59733333Y-56800761D01*
X59780952Y-56705523D01*
X59828571Y-56657904D01*
X59923809Y-56610285D01*
X60161904Y-56610285D01*
X60257142Y-56657904D01*
X60304761Y-56705523D01*
X60352380Y-56800761D01*
X60352380Y-57038857D01*
X60304761Y-57134095D01*
X60257142Y-57181714D01*
%TO.C,6*%
X86872380Y-59499523D02*
X86872380Y-59690000D01*
X86920000Y-59785238D01*
X86967619Y-59832857D01*
X87110476Y-59928095D01*
X87300952Y-59975714D01*
X87681904Y-59975714D01*
X87777142Y-59928095D01*
X87824761Y-59880476D01*
X87872380Y-59785238D01*
X87872380Y-59594761D01*
X87824761Y-59499523D01*
X87777142Y-59451904D01*
X87681904Y-59404285D01*
X87443809Y-59404285D01*
X87348571Y-59451904D01*
X87300952Y-59499523D01*
X87253333Y-59594761D01*
X87253333Y-59785238D01*
X87300952Y-59880476D01*
X87348571Y-59928095D01*
X87443809Y-59975714D01*
%TO.C,3*%
X59352380Y-51641333D02*
X59352380Y-51022285D01*
X59733333Y-51355619D01*
X59733333Y-51212761D01*
X59780952Y-51117523D01*
X59828571Y-51069904D01*
X59923809Y-51022285D01*
X60161904Y-51022285D01*
X60257142Y-51069904D01*
X60304761Y-51117523D01*
X60352380Y-51212761D01*
X60352380Y-51498476D01*
X60304761Y-51593714D01*
X60257142Y-51641333D01*
%TO.C,4*%
X87205714Y-53911523D02*
X87872380Y-53911523D01*
X86824761Y-54149619D02*
X87539047Y-54387714D01*
X87539047Y-53768666D01*
%TO.C,2*%
X86967619Y-49053714D02*
X86920000Y-49006095D01*
X86872380Y-48910857D01*
X86872380Y-48672761D01*
X86920000Y-48577523D01*
X86967619Y-48529904D01*
X87062857Y-48482285D01*
X87158095Y-48482285D01*
X87300952Y-48529904D01*
X87872380Y-49101333D01*
X87872380Y-48482285D01*
%TO.C,1*%
X60352380Y-45688285D02*
X60352380Y-46259714D01*
X60352380Y-45974000D02*
X59352380Y-45974000D01*
X59495238Y-46069238D01*
X59590476Y-46164476D01*
X59638095Y-46259714D01*
%TD*%
M02*
