%TF.GenerationSoftware,KiCad,Pcbnew,(5.1.6-0)*%
%TF.CreationDate,2022-12-22T20:14:18-05:00*%
%TF.ProjectId,Test Panel,54657374-2050-4616-9e65-6c2e6b696361,rev?*%
%TF.SameCoordinates,Original*%
%TF.FileFunction,Copper,L1,Top*%
%TF.FilePolarity,Positive*%
%FSLAX46Y46*%
G04 Gerber Fmt 4.6, Leading zero omitted, Abs format (unit mm)*
G04 Created by KiCad (PCBNEW (5.1.6-0)) date 2022-12-22 20:14:18*
%MOMM*%
%LPD*%
G01*
G04 APERTURE LIST*
%TA.AperFunction,ComponentPad*%
%ADD10R,1.700000X1.700000*%
%TD*%
%TA.AperFunction,ComponentPad*%
%ADD11O,1.700000X1.700000*%
%TD*%
%TA.AperFunction,Conductor*%
%ADD12C,1.000000*%
%TD*%
G04 APERTURE END LIST*
D10*
%TO.P,37,1*%
%TO.N,N/C*%
X62230000Y-146304000D03*
D11*
%TO.P,37,2*%
X64770000Y-146304000D03*
%TO.P,37,3*%
X67310000Y-146304000D03*
%TO.P,37,4*%
X69850000Y-146304000D03*
%TO.P,37,5*%
X72390000Y-146304000D03*
%TO.P,37,6*%
X74930000Y-146304000D03*
%TO.P,37,7*%
X77470000Y-146304000D03*
%TO.P,37,8*%
X80010000Y-146304000D03*
%TO.P,37,9*%
X82550000Y-146304000D03*
%TO.P,37,10*%
X85090000Y-146304000D03*
%TD*%
D10*
%TO.P,36,1*%
%TO.N,N/C*%
X85090000Y-143510000D03*
D11*
%TO.P,36,2*%
X82550000Y-143510000D03*
%TO.P,36,3*%
X80010000Y-143510000D03*
%TO.P,36,4*%
X77470000Y-143510000D03*
%TO.P,36,5*%
X74930000Y-143510000D03*
%TO.P,36,6*%
X72390000Y-143510000D03*
%TO.P,36,7*%
X69850000Y-143510000D03*
%TO.P,36,8*%
X67310000Y-143510000D03*
%TO.P,36,9*%
X64770000Y-143510000D03*
%TO.P,36,10*%
X62230000Y-143510000D03*
%TD*%
%TO.P,35,10*%
%TO.N,N/C*%
X85090000Y-140716000D03*
%TO.P,35,9*%
X82550000Y-140716000D03*
%TO.P,35,8*%
X80010000Y-140716000D03*
%TO.P,35,7*%
X77470000Y-140716000D03*
%TO.P,35,6*%
X74930000Y-140716000D03*
%TO.P,35,5*%
X72390000Y-140716000D03*
%TO.P,35,4*%
X69850000Y-140716000D03*
%TO.P,35,3*%
X67310000Y-140716000D03*
%TO.P,35,2*%
X64770000Y-140716000D03*
D10*
%TO.P,35,1*%
X62230000Y-140716000D03*
%TD*%
D11*
%TO.P,34,10*%
%TO.N,N/C*%
X62230000Y-137922000D03*
%TO.P,34,9*%
X64770000Y-137922000D03*
%TO.P,34,8*%
X67310000Y-137922000D03*
%TO.P,34,7*%
X69850000Y-137922000D03*
%TO.P,34,6*%
X72390000Y-137922000D03*
%TO.P,34,5*%
X74930000Y-137922000D03*
%TO.P,34,4*%
X77470000Y-137922000D03*
%TO.P,34,3*%
X80010000Y-137922000D03*
%TO.P,34,2*%
X82550000Y-137922000D03*
D10*
%TO.P,34,1*%
X85090000Y-137922000D03*
%TD*%
D11*
%TO.P,33,10*%
%TO.N,N/C*%
X85090000Y-135128000D03*
%TO.P,33,9*%
X82550000Y-135128000D03*
%TO.P,33,8*%
X80010000Y-135128000D03*
%TO.P,33,7*%
X77470000Y-135128000D03*
%TO.P,33,6*%
X74930000Y-135128000D03*
%TO.P,33,5*%
X72390000Y-135128000D03*
%TO.P,33,4*%
X69850000Y-135128000D03*
%TO.P,33,3*%
X67310000Y-135128000D03*
%TO.P,33,2*%
X64770000Y-135128000D03*
D10*
%TO.P,33,1*%
X62230000Y-135128000D03*
%TD*%
D11*
%TO.P,24,10*%
%TO.N,N/C*%
X62230000Y-109982000D03*
%TO.P,24,9*%
X64770000Y-109982000D03*
%TO.P,24,8*%
X67310000Y-109982000D03*
%TO.P,24,7*%
X69850000Y-109982000D03*
%TO.P,24,6*%
X72390000Y-109982000D03*
%TO.P,24,5*%
X74930000Y-109982000D03*
%TO.P,24,4*%
X77470000Y-109982000D03*
%TO.P,24,3*%
X80010000Y-109982000D03*
%TO.P,24,2*%
X82550000Y-109982000D03*
D10*
%TO.P,24,1*%
X85090000Y-109982000D03*
%TD*%
D11*
%TO.P,23,10*%
%TO.N,N/C*%
X85090000Y-107188000D03*
%TO.P,23,9*%
X82550000Y-107188000D03*
%TO.P,23,8*%
X80010000Y-107188000D03*
%TO.P,23,7*%
X77470000Y-107188000D03*
%TO.P,23,6*%
X74930000Y-107188000D03*
%TO.P,23,5*%
X72390000Y-107188000D03*
%TO.P,23,4*%
X69850000Y-107188000D03*
%TO.P,23,3*%
X67310000Y-107188000D03*
%TO.P,23,2*%
X64770000Y-107188000D03*
D10*
%TO.P,23,1*%
X62230000Y-107188000D03*
%TD*%
D11*
%TO.P,26,10*%
%TO.N,N/C*%
X62230000Y-115570000D03*
%TO.P,26,9*%
X64770000Y-115570000D03*
%TO.P,26,8*%
X67310000Y-115570000D03*
%TO.P,26,7*%
X69850000Y-115570000D03*
%TO.P,26,6*%
X72390000Y-115570000D03*
%TO.P,26,5*%
X74930000Y-115570000D03*
%TO.P,26,4*%
X77470000Y-115570000D03*
%TO.P,26,3*%
X80010000Y-115570000D03*
%TO.P,26,2*%
X82550000Y-115570000D03*
D10*
%TO.P,26,1*%
X85090000Y-115570000D03*
%TD*%
D11*
%TO.P,25,10*%
%TO.N,N/C*%
X85090000Y-112776000D03*
%TO.P,25,9*%
X82550000Y-112776000D03*
%TO.P,25,8*%
X80010000Y-112776000D03*
%TO.P,25,7*%
X77470000Y-112776000D03*
%TO.P,25,6*%
X74930000Y-112776000D03*
%TO.P,25,5*%
X72390000Y-112776000D03*
%TO.P,25,4*%
X69850000Y-112776000D03*
%TO.P,25,3*%
X67310000Y-112776000D03*
%TO.P,25,2*%
X64770000Y-112776000D03*
D10*
%TO.P,25,1*%
X62230000Y-112776000D03*
%TD*%
D11*
%TO.P,30,10*%
%TO.N,N/C*%
X62230000Y-126746000D03*
%TO.P,30,9*%
X64770000Y-126746000D03*
%TO.P,30,8*%
X67310000Y-126746000D03*
%TO.P,30,7*%
X69850000Y-126746000D03*
%TO.P,30,6*%
X72390000Y-126746000D03*
%TO.P,30,5*%
X74930000Y-126746000D03*
%TO.P,30,4*%
X77470000Y-126746000D03*
%TO.P,30,3*%
X80010000Y-126746000D03*
%TO.P,30,2*%
X82550000Y-126746000D03*
D10*
%TO.P,30,1*%
X85090000Y-126746000D03*
%TD*%
D11*
%TO.P,29,10*%
%TO.N,N/C*%
X85090000Y-123952000D03*
%TO.P,29,9*%
X82550000Y-123952000D03*
%TO.P,29,8*%
X80010000Y-123952000D03*
%TO.P,29,7*%
X77470000Y-123952000D03*
%TO.P,29,6*%
X74930000Y-123952000D03*
%TO.P,29,5*%
X72390000Y-123952000D03*
%TO.P,29,4*%
X69850000Y-123952000D03*
%TO.P,29,3*%
X67310000Y-123952000D03*
%TO.P,29,2*%
X64770000Y-123952000D03*
D10*
%TO.P,29,1*%
X62230000Y-123952000D03*
%TD*%
D11*
%TO.P,27,10*%
%TO.N,N/C*%
X85090000Y-118364000D03*
%TO.P,27,9*%
X82550000Y-118364000D03*
%TO.P,27,8*%
X80010000Y-118364000D03*
%TO.P,27,7*%
X77470000Y-118364000D03*
%TO.P,27,6*%
X74930000Y-118364000D03*
%TO.P,27,5*%
X72390000Y-118364000D03*
%TO.P,27,4*%
X69850000Y-118364000D03*
%TO.P,27,3*%
X67310000Y-118364000D03*
%TO.P,27,2*%
X64770000Y-118364000D03*
D10*
%TO.P,27,1*%
X62230000Y-118364000D03*
%TD*%
D11*
%TO.P,32,10*%
%TO.N,N/C*%
X62230000Y-132334000D03*
%TO.P,32,9*%
X64770000Y-132334000D03*
%TO.P,32,8*%
X67310000Y-132334000D03*
%TO.P,32,7*%
X69850000Y-132334000D03*
%TO.P,32,6*%
X72390000Y-132334000D03*
%TO.P,32,5*%
X74930000Y-132334000D03*
%TO.P,32,4*%
X77470000Y-132334000D03*
%TO.P,32,3*%
X80010000Y-132334000D03*
%TO.P,32,2*%
X82550000Y-132334000D03*
D10*
%TO.P,32,1*%
X85090000Y-132334000D03*
%TD*%
D11*
%TO.P,31,10*%
%TO.N,N/C*%
X85090000Y-129540000D03*
%TO.P,31,9*%
X82550000Y-129540000D03*
%TO.P,31,8*%
X80010000Y-129540000D03*
%TO.P,31,7*%
X77470000Y-129540000D03*
%TO.P,31,6*%
X74930000Y-129540000D03*
%TO.P,31,5*%
X72390000Y-129540000D03*
%TO.P,31,4*%
X69850000Y-129540000D03*
%TO.P,31,3*%
X67310000Y-129540000D03*
%TO.P,31,2*%
X64770000Y-129540000D03*
D10*
%TO.P,31,1*%
X62230000Y-129540000D03*
%TD*%
D11*
%TO.P,21,10*%
%TO.N,N/C*%
X85090000Y-101600000D03*
%TO.P,21,9*%
X82550000Y-101600000D03*
%TO.P,21,8*%
X80010000Y-101600000D03*
%TO.P,21,7*%
X77470000Y-101600000D03*
%TO.P,21,6*%
X74930000Y-101600000D03*
%TO.P,21,5*%
X72390000Y-101600000D03*
%TO.P,21,4*%
X69850000Y-101600000D03*
%TO.P,21,3*%
X67310000Y-101600000D03*
%TO.P,21,2*%
X64770000Y-101600000D03*
D10*
%TO.P,21,1*%
X62230000Y-101600000D03*
%TD*%
D11*
%TO.P,22,10*%
%TO.N,N/C*%
X62230000Y-104394000D03*
%TO.P,22,9*%
X64770000Y-104394000D03*
%TO.P,22,8*%
X67310000Y-104394000D03*
%TO.P,22,7*%
X69850000Y-104394000D03*
%TO.P,22,6*%
X72390000Y-104394000D03*
%TO.P,22,5*%
X74930000Y-104394000D03*
%TO.P,22,4*%
X77470000Y-104394000D03*
%TO.P,22,3*%
X80010000Y-104394000D03*
%TO.P,22,2*%
X82550000Y-104394000D03*
D10*
%TO.P,22,1*%
X85090000Y-104394000D03*
%TD*%
D11*
%TO.P,28,10*%
%TO.N,N/C*%
X62230000Y-121158000D03*
%TO.P,28,9*%
X64770000Y-121158000D03*
%TO.P,28,8*%
X67310000Y-121158000D03*
%TO.P,28,7*%
X69850000Y-121158000D03*
%TO.P,28,6*%
X72390000Y-121158000D03*
%TO.P,28,5*%
X74930000Y-121158000D03*
%TO.P,28,4*%
X77470000Y-121158000D03*
%TO.P,28,3*%
X80010000Y-121158000D03*
%TO.P,28,2*%
X82550000Y-121158000D03*
D10*
%TO.P,28,1*%
X85090000Y-121158000D03*
%TD*%
%TO.P,19,1*%
%TO.N,N/C*%
X62230000Y-96012000D03*
D11*
%TO.P,19,2*%
X64770000Y-96012000D03*
%TO.P,19,3*%
X67310000Y-96012000D03*
%TO.P,19,4*%
X69850000Y-96012000D03*
%TO.P,19,5*%
X72390000Y-96012000D03*
%TO.P,19,6*%
X74930000Y-96012000D03*
%TO.P,19,7*%
X77470000Y-96012000D03*
%TO.P,19,8*%
X80010000Y-96012000D03*
%TO.P,19,9*%
X82550000Y-96012000D03*
%TO.P,19,10*%
X85090000Y-96012000D03*
%TD*%
D10*
%TO.P,20,1*%
%TO.N,N/C*%
X85090000Y-98806000D03*
D11*
%TO.P,20,2*%
X82550000Y-98806000D03*
%TO.P,20,3*%
X80010000Y-98806000D03*
%TO.P,20,4*%
X77470000Y-98806000D03*
%TO.P,20,5*%
X74930000Y-98806000D03*
%TO.P,20,6*%
X72390000Y-98806000D03*
%TO.P,20,7*%
X69850000Y-98806000D03*
%TO.P,20,8*%
X67310000Y-98806000D03*
%TO.P,20,9*%
X64770000Y-98806000D03*
%TO.P,20,10*%
X62230000Y-98806000D03*
%TD*%
D10*
%TO.P,17,1*%
%TO.N,N/C*%
X62230000Y-90424000D03*
D11*
%TO.P,17,2*%
X64770000Y-90424000D03*
%TO.P,17,3*%
X67310000Y-90424000D03*
%TO.P,17,4*%
X69850000Y-90424000D03*
%TO.P,17,5*%
X72390000Y-90424000D03*
%TO.P,17,6*%
X74930000Y-90424000D03*
%TO.P,17,7*%
X77470000Y-90424000D03*
%TO.P,17,8*%
X80010000Y-90424000D03*
%TO.P,17,9*%
X82550000Y-90424000D03*
%TO.P,17,10*%
X85090000Y-90424000D03*
%TD*%
D10*
%TO.P,18,1*%
%TO.N,N/C*%
X85090000Y-93218000D03*
D11*
%TO.P,18,2*%
X82550000Y-93218000D03*
%TO.P,18,3*%
X80010000Y-93218000D03*
%TO.P,18,4*%
X77470000Y-93218000D03*
%TO.P,18,5*%
X74930000Y-93218000D03*
%TO.P,18,6*%
X72390000Y-93218000D03*
%TO.P,18,7*%
X69850000Y-93218000D03*
%TO.P,18,8*%
X67310000Y-93218000D03*
%TO.P,18,9*%
X64770000Y-93218000D03*
%TO.P,18,10*%
X62230000Y-93218000D03*
%TD*%
D10*
%TO.P,15,1*%
%TO.N,N/C*%
X62230000Y-84836000D03*
D11*
%TO.P,15,2*%
X64770000Y-84836000D03*
%TO.P,15,3*%
X67310000Y-84836000D03*
%TO.P,15,4*%
X69850000Y-84836000D03*
%TO.P,15,5*%
X72390000Y-84836000D03*
%TO.P,15,6*%
X74930000Y-84836000D03*
%TO.P,15,7*%
X77470000Y-84836000D03*
%TO.P,15,8*%
X80010000Y-84836000D03*
%TO.P,15,9*%
X82550000Y-84836000D03*
%TO.P,15,10*%
X85090000Y-84836000D03*
%TD*%
D10*
%TO.P,16,1*%
%TO.N,N/C*%
X85090000Y-87630000D03*
D11*
%TO.P,16,2*%
X82550000Y-87630000D03*
%TO.P,16,3*%
X80010000Y-87630000D03*
%TO.P,16,4*%
X77470000Y-87630000D03*
%TO.P,16,5*%
X74930000Y-87630000D03*
%TO.P,16,6*%
X72390000Y-87630000D03*
%TO.P,16,7*%
X69850000Y-87630000D03*
%TO.P,16,8*%
X67310000Y-87630000D03*
%TO.P,16,9*%
X64770000Y-87630000D03*
%TO.P,16,10*%
X62230000Y-87630000D03*
%TD*%
D10*
%TO.P,13,1*%
%TO.N,N/C*%
X62230000Y-79248000D03*
D11*
%TO.P,13,2*%
X64770000Y-79248000D03*
%TO.P,13,3*%
X67310000Y-79248000D03*
%TO.P,13,4*%
X69850000Y-79248000D03*
%TO.P,13,5*%
X72390000Y-79248000D03*
%TO.P,13,6*%
X74930000Y-79248000D03*
%TO.P,13,7*%
X77470000Y-79248000D03*
%TO.P,13,8*%
X80010000Y-79248000D03*
%TO.P,13,9*%
X82550000Y-79248000D03*
%TO.P,13,10*%
X85090000Y-79248000D03*
%TD*%
D10*
%TO.P,14,1*%
%TO.N,N/C*%
X85090000Y-82042000D03*
D11*
%TO.P,14,2*%
X82550000Y-82042000D03*
%TO.P,14,3*%
X80010000Y-82042000D03*
%TO.P,14,4*%
X77470000Y-82042000D03*
%TO.P,14,5*%
X74930000Y-82042000D03*
%TO.P,14,6*%
X72390000Y-82042000D03*
%TO.P,14,7*%
X69850000Y-82042000D03*
%TO.P,14,8*%
X67310000Y-82042000D03*
%TO.P,14,9*%
X64770000Y-82042000D03*
%TO.P,14,10*%
X62230000Y-82042000D03*
%TD*%
D10*
%TO.P,11,1*%
%TO.N,N/C*%
X62230000Y-73660000D03*
D11*
%TO.P,11,2*%
X64770000Y-73660000D03*
%TO.P,11,3*%
X67310000Y-73660000D03*
%TO.P,11,4*%
X69850000Y-73660000D03*
%TO.P,11,5*%
X72390000Y-73660000D03*
%TO.P,11,6*%
X74930000Y-73660000D03*
%TO.P,11,7*%
X77470000Y-73660000D03*
%TO.P,11,8*%
X80010000Y-73660000D03*
%TO.P,11,9*%
X82550000Y-73660000D03*
%TO.P,11,10*%
X85090000Y-73660000D03*
%TD*%
D10*
%TO.P,12,1*%
%TO.N,N/C*%
X85090000Y-76454000D03*
D11*
%TO.P,12,2*%
X82550000Y-76454000D03*
%TO.P,12,3*%
X80010000Y-76454000D03*
%TO.P,12,4*%
X77470000Y-76454000D03*
%TO.P,12,5*%
X74930000Y-76454000D03*
%TO.P,12,6*%
X72390000Y-76454000D03*
%TO.P,12,7*%
X69850000Y-76454000D03*
%TO.P,12,8*%
X67310000Y-76454000D03*
%TO.P,12,9*%
X64770000Y-76454000D03*
%TO.P,12,10*%
X62230000Y-76454000D03*
%TD*%
D10*
%TO.P,9,1*%
%TO.N,N/C*%
X62230000Y-68072000D03*
D11*
%TO.P,9,2*%
X64770000Y-68072000D03*
%TO.P,9,3*%
X67310000Y-68072000D03*
%TO.P,9,4*%
X69850000Y-68072000D03*
%TO.P,9,5*%
X72390000Y-68072000D03*
%TO.P,9,6*%
X74930000Y-68072000D03*
%TO.P,9,7*%
X77470000Y-68072000D03*
%TO.P,9,8*%
X80010000Y-68072000D03*
%TO.P,9,9*%
X82550000Y-68072000D03*
%TO.P,9,10*%
X85090000Y-68072000D03*
%TD*%
D10*
%TO.P,10,1*%
%TO.N,N/C*%
X85090000Y-70866000D03*
D11*
%TO.P,10,2*%
X82550000Y-70866000D03*
%TO.P,10,3*%
X80010000Y-70866000D03*
%TO.P,10,4*%
X77470000Y-70866000D03*
%TO.P,10,5*%
X74930000Y-70866000D03*
%TO.P,10,6*%
X72390000Y-70866000D03*
%TO.P,10,7*%
X69850000Y-70866000D03*
%TO.P,10,8*%
X67310000Y-70866000D03*
%TO.P,10,9*%
X64770000Y-70866000D03*
%TO.P,10,10*%
X62230000Y-70866000D03*
%TD*%
D10*
%TO.P,7,1*%
%TO.N,N/C*%
X62230000Y-62484000D03*
D11*
%TO.P,7,2*%
X64770000Y-62484000D03*
%TO.P,7,3*%
X67310000Y-62484000D03*
%TO.P,7,4*%
X69850000Y-62484000D03*
%TO.P,7,5*%
X72390000Y-62484000D03*
%TO.P,7,6*%
X74930000Y-62484000D03*
%TO.P,7,7*%
X77470000Y-62484000D03*
%TO.P,7,8*%
X80010000Y-62484000D03*
%TO.P,7,9*%
X82550000Y-62484000D03*
%TO.P,7,10*%
X85090000Y-62484000D03*
%TD*%
D10*
%TO.P,8,1*%
%TO.N,N/C*%
X85090000Y-65278000D03*
D11*
%TO.P,8,2*%
X82550000Y-65278000D03*
%TO.P,8,3*%
X80010000Y-65278000D03*
%TO.P,8,4*%
X77470000Y-65278000D03*
%TO.P,8,5*%
X74930000Y-65278000D03*
%TO.P,8,6*%
X72390000Y-65278000D03*
%TO.P,8,7*%
X69850000Y-65278000D03*
%TO.P,8,8*%
X67310000Y-65278000D03*
%TO.P,8,9*%
X64770000Y-65278000D03*
%TO.P,8,10*%
X62230000Y-65278000D03*
%TD*%
D10*
%TO.P,5,1*%
%TO.N,N/C*%
X62230000Y-56896000D03*
D11*
%TO.P,5,2*%
X64770000Y-56896000D03*
%TO.P,5,3*%
X67310000Y-56896000D03*
%TO.P,5,4*%
X69850000Y-56896000D03*
%TO.P,5,5*%
X72390000Y-56896000D03*
%TO.P,5,6*%
X74930000Y-56896000D03*
%TO.P,5,7*%
X77470000Y-56896000D03*
%TO.P,5,8*%
X80010000Y-56896000D03*
%TO.P,5,9*%
X82550000Y-56896000D03*
%TO.P,5,10*%
X85090000Y-56896000D03*
%TD*%
D10*
%TO.P,6,1*%
%TO.N,N/C*%
X85090000Y-59690000D03*
D11*
%TO.P,6,2*%
X82550000Y-59690000D03*
%TO.P,6,3*%
X80010000Y-59690000D03*
%TO.P,6,4*%
X77470000Y-59690000D03*
%TO.P,6,5*%
X74930000Y-59690000D03*
%TO.P,6,6*%
X72390000Y-59690000D03*
%TO.P,6,7*%
X69850000Y-59690000D03*
%TO.P,6,8*%
X67310000Y-59690000D03*
%TO.P,6,9*%
X64770000Y-59690000D03*
%TO.P,6,10*%
X62230000Y-59690000D03*
%TD*%
D10*
%TO.P,3,1*%
%TO.N,N/C*%
X62230000Y-51308000D03*
D11*
%TO.P,3,2*%
X64770000Y-51308000D03*
%TO.P,3,3*%
X67310000Y-51308000D03*
%TO.P,3,4*%
X69850000Y-51308000D03*
%TO.P,3,5*%
X72390000Y-51308000D03*
%TO.P,3,6*%
X74930000Y-51308000D03*
%TO.P,3,7*%
X77470000Y-51308000D03*
%TO.P,3,8*%
X80010000Y-51308000D03*
%TO.P,3,9*%
X82550000Y-51308000D03*
%TO.P,3,10*%
X85090000Y-51308000D03*
%TD*%
D10*
%TO.P,4,1*%
%TO.N,N/C*%
X85090000Y-54102000D03*
D11*
%TO.P,4,2*%
X82550000Y-54102000D03*
%TO.P,4,3*%
X80010000Y-54102000D03*
%TO.P,4,4*%
X77470000Y-54102000D03*
%TO.P,4,5*%
X74930000Y-54102000D03*
%TO.P,4,6*%
X72390000Y-54102000D03*
%TO.P,4,7*%
X69850000Y-54102000D03*
%TO.P,4,8*%
X67310000Y-54102000D03*
%TO.P,4,9*%
X64770000Y-54102000D03*
%TO.P,4,10*%
X62230000Y-54102000D03*
%TD*%
%TO.P,2,10*%
%TO.N,N/C*%
X62230000Y-48768000D03*
%TO.P,2,9*%
X64770000Y-48768000D03*
%TO.P,2,8*%
X67310000Y-48768000D03*
%TO.P,2,7*%
X69850000Y-48768000D03*
%TO.P,2,6*%
X72390000Y-48768000D03*
%TO.P,2,5*%
X74930000Y-48768000D03*
%TO.P,2,4*%
X77470000Y-48768000D03*
%TO.P,2,3*%
X80010000Y-48768000D03*
%TO.P,2,2*%
X82550000Y-48768000D03*
D10*
%TO.P,2,1*%
X85090000Y-48768000D03*
%TD*%
D11*
%TO.P,1,10*%
%TO.N,N/C*%
X85090000Y-45974000D03*
%TO.P,1,9*%
X82550000Y-45974000D03*
%TO.P,1,8*%
X80010000Y-45974000D03*
%TO.P,1,7*%
X77470000Y-45974000D03*
%TO.P,1,6*%
X74930000Y-45974000D03*
%TO.P,1,5*%
X72390000Y-45974000D03*
%TO.P,1,4*%
X69850000Y-45974000D03*
%TO.P,1,3*%
X67310000Y-45974000D03*
%TO.P,1,2*%
X64770000Y-45974000D03*
D10*
%TO.P,1,1*%
X62230000Y-45974000D03*
%TD*%
D12*
%TO.N,*%
X87630000Y-45720000D02*
X87630000Y-146558000D01*
X59690000Y-146304000D02*
X59690000Y-52070000D01*
X59690000Y-52070000D02*
X59690000Y-45974000D01*
%TD*%
M02*
