M48
; DRILL file {KiCad (5.1.6-0)} date Thursday, December 22, 2022 at 08:14:21 PM
; FORMAT={-:-/ absolute / metric / decimal}
; #@! TF.CreationDate,2022-12-22T20:14:21-05:00
; #@! TF.GenerationSoftware,Kicad,Pcbnew,(5.1.6-0)
; #@! TF.FileFunction,Plated,1,2,PTH
FMAT,2
METRIC
T1C1.000
%
G90
G05
T1
X62.23Y-62.484
X64.77Y-62.484
X67.31Y-62.484
X69.85Y-62.484
X72.39Y-62.484
X74.93Y-62.484
X77.47Y-62.484
X80.01Y-62.484
X82.55Y-62.484
X85.09Y-62.484
X62.23Y-68.072
X64.77Y-68.072
X67.31Y-68.072
X69.85Y-68.072
X72.39Y-68.072
X74.93Y-68.072
X77.47Y-68.072
X80.01Y-68.072
X82.55Y-68.072
X85.09Y-68.072
X62.23Y-123.952
X64.77Y-123.952
X67.31Y-123.952
X69.85Y-123.952
X72.39Y-123.952
X74.93Y-123.952
X77.47Y-123.952
X80.01Y-123.952
X82.55Y-123.952
X85.09Y-123.952
X62.23Y-109.982
X64.77Y-109.982
X67.31Y-109.982
X69.85Y-109.982
X72.39Y-109.982
X74.93Y-109.982
X77.47Y-109.982
X80.01Y-109.982
X82.55Y-109.982
X85.09Y-109.982
X62.23Y-118.364
X64.77Y-118.364
X67.31Y-118.364
X69.85Y-118.364
X72.39Y-118.364
X74.93Y-118.364
X77.47Y-118.364
X80.01Y-118.364
X82.55Y-118.364
X85.09Y-118.364
X62.23Y-70.866
X64.77Y-70.866
X67.31Y-70.866
X69.85Y-70.866
X72.39Y-70.866
X74.93Y-70.866
X77.47Y-70.866
X80.01Y-70.866
X82.55Y-70.866
X85.09Y-70.866
X62.23Y-101.6
X64.77Y-101.6
X67.31Y-101.6
X69.85Y-101.6
X72.39Y-101.6
X74.93Y-101.6
X77.47Y-101.6
X80.01Y-101.6
X82.55Y-101.6
X85.09Y-101.6
X62.23Y-96.012
X64.77Y-96.012
X67.31Y-96.012
X69.85Y-96.012
X72.39Y-96.012
X74.93Y-96.012
X77.47Y-96.012
X80.01Y-96.012
X82.55Y-96.012
X85.09Y-96.012
X62.23Y-98.806
X64.77Y-98.806
X67.31Y-98.806
X69.85Y-98.806
X72.39Y-98.806
X74.93Y-98.806
X77.47Y-98.806
X80.01Y-98.806
X82.55Y-98.806
X85.09Y-98.806
X62.23Y-115.57
X64.77Y-115.57
X67.31Y-115.57
X69.85Y-115.57
X72.39Y-115.57
X74.93Y-115.57
X77.47Y-115.57
X80.01Y-115.57
X82.55Y-115.57
X85.09Y-115.57
X62.23Y-76.454
X64.77Y-76.454
X67.31Y-76.454
X69.85Y-76.454
X72.39Y-76.454
X74.93Y-76.454
X77.47Y-76.454
X80.01Y-76.454
X82.55Y-76.454
X85.09Y-76.454
X62.23Y-90.424
X64.77Y-90.424
X67.31Y-90.424
X69.85Y-90.424
X72.39Y-90.424
X74.93Y-90.424
X77.47Y-90.424
X80.01Y-90.424
X82.55Y-90.424
X85.09Y-90.424
X62.23Y-146.304
X64.77Y-146.304
X67.31Y-146.304
X69.85Y-146.304
X72.39Y-146.304
X74.93Y-146.304
X77.47Y-146.304
X80.01Y-146.304
X82.55Y-146.304
X85.09Y-146.304
X62.23Y-112.776
X64.77Y-112.776
X67.31Y-112.776
X69.85Y-112.776
X72.39Y-112.776
X74.93Y-112.776
X77.47Y-112.776
X80.01Y-112.776
X82.55Y-112.776
X85.09Y-112.776
X62.23Y-140.716
X64.77Y-140.716
X67.31Y-140.716
X69.85Y-140.716
X72.39Y-140.716
X74.93Y-140.716
X77.47Y-140.716
X80.01Y-140.716
X82.55Y-140.716
X85.09Y-140.716
X62.23Y-93.218
X64.77Y-93.218
X67.31Y-93.218
X69.85Y-93.218
X72.39Y-93.218
X74.93Y-93.218
X77.47Y-93.218
X80.01Y-93.218
X82.55Y-93.218
X85.09Y-93.218
X62.23Y-79.248
X64.77Y-79.248
X67.31Y-79.248
X69.85Y-79.248
X72.39Y-79.248
X74.93Y-79.248
X77.47Y-79.248
X80.01Y-79.248
X82.55Y-79.248
X85.09Y-79.248
X62.23Y-104.394
X64.77Y-104.394
X67.31Y-104.394
X69.85Y-104.394
X72.39Y-104.394
X74.93Y-104.394
X77.47Y-104.394
X80.01Y-104.394
X82.55Y-104.394
X85.09Y-104.394
X62.23Y-129.54
X64.77Y-129.54
X67.31Y-129.54
X69.85Y-129.54
X72.39Y-129.54
X74.93Y-129.54
X77.47Y-129.54
X80.01Y-129.54
X82.55Y-129.54
X85.09Y-129.54
X62.23Y-45.974
X64.77Y-45.974
X67.31Y-45.974
X69.85Y-45.974
X72.39Y-45.974
X74.93Y-45.974
X77.47Y-45.974
X80.01Y-45.974
X82.55Y-45.974
X85.09Y-45.974
X62.23Y-48.768
X64.77Y-48.768
X67.31Y-48.768
X69.85Y-48.768
X72.39Y-48.768
X74.93Y-48.768
X77.47Y-48.768
X80.01Y-48.768
X82.55Y-48.768
X85.09Y-48.768
X62.23Y-84.836
X64.77Y-84.836
X67.31Y-84.836
X69.85Y-84.836
X72.39Y-84.836
X74.93Y-84.836
X77.47Y-84.836
X80.01Y-84.836
X82.55Y-84.836
X85.09Y-84.836
X62.23Y-107.188
X64.77Y-107.188
X67.31Y-107.188
X69.85Y-107.188
X72.39Y-107.188
X74.93Y-107.188
X77.47Y-107.188
X80.01Y-107.188
X82.55Y-107.188
X85.09Y-107.188
X62.23Y-73.66
X64.77Y-73.66
X67.31Y-73.66
X69.85Y-73.66
X72.39Y-73.66
X74.93Y-73.66
X77.47Y-73.66
X80.01Y-73.66
X82.55Y-73.66
X85.09Y-73.66
X62.23Y-121.158
X64.77Y-121.158
X67.31Y-121.158
X69.85Y-121.158
X72.39Y-121.158
X74.93Y-121.158
X77.47Y-121.158
X80.01Y-121.158
X82.55Y-121.158
X85.09Y-121.158
X62.23Y-51.308
X64.77Y-51.308
X67.31Y-51.308
X69.85Y-51.308
X72.39Y-51.308
X74.93Y-51.308
X77.47Y-51.308
X80.01Y-51.308
X82.55Y-51.308
X85.09Y-51.308
X62.23Y-132.334
X64.77Y-132.334
X67.31Y-132.334
X69.85Y-132.334
X72.39Y-132.334
X74.93Y-132.334
X77.47Y-132.334
X80.01Y-132.334
X82.55Y-132.334
X85.09Y-132.334
X62.23Y-87.63
X64.77Y-87.63
X67.31Y-87.63
X69.85Y-87.63
X72.39Y-87.63
X74.93Y-87.63
X77.47Y-87.63
X80.01Y-87.63
X82.55Y-87.63
X85.09Y-87.63
X62.23Y-54.102
X64.77Y-54.102
X67.31Y-54.102
X69.85Y-54.102
X72.39Y-54.102
X74.93Y-54.102
X77.47Y-54.102
X80.01Y-54.102
X82.55Y-54.102
X85.09Y-54.102
X62.23Y-56.896
X64.77Y-56.896
X67.31Y-56.896
X69.85Y-56.896
X72.39Y-56.896
X74.93Y-56.896
X77.47Y-56.896
X80.01Y-56.896
X82.55Y-56.896
X85.09Y-56.896
X62.23Y-137.922
X64.77Y-137.922
X67.31Y-137.922
X69.85Y-137.922
X72.39Y-137.922
X74.93Y-137.922
X77.47Y-137.922
X80.01Y-137.922
X82.55Y-137.922
X85.09Y-137.922
X62.23Y-82.042
X64.77Y-82.042
X67.31Y-82.042
X69.85Y-82.042
X72.39Y-82.042
X74.93Y-82.042
X77.47Y-82.042
X80.01Y-82.042
X82.55Y-82.042
X85.09Y-82.042
X62.23Y-143.51
X64.77Y-143.51
X67.31Y-143.51
X69.85Y-143.51
X72.39Y-143.51
X74.93Y-143.51
X77.47Y-143.51
X80.01Y-143.51
X82.55Y-143.51
X85.09Y-143.51
X62.23Y-59.69
X64.77Y-59.69
X67.31Y-59.69
X69.85Y-59.69
X72.39Y-59.69
X74.93Y-59.69
X77.47Y-59.69
X80.01Y-59.69
X82.55Y-59.69
X85.09Y-59.69
X62.23Y-135.128
X64.77Y-135.128
X67.31Y-135.128
X69.85Y-135.128
X72.39Y-135.128
X74.93Y-135.128
X77.47Y-135.128
X80.01Y-135.128
X82.55Y-135.128
X85.09Y-135.128
X62.23Y-65.278
X64.77Y-65.278
X67.31Y-65.278
X69.85Y-65.278
X72.39Y-65.278
X74.93Y-65.278
X77.47Y-65.278
X80.01Y-65.278
X82.55Y-65.278
X85.09Y-65.278
X62.23Y-126.746
X64.77Y-126.746
X67.31Y-126.746
X69.85Y-126.746
X72.39Y-126.746
X74.93Y-126.746
X77.47Y-126.746
X80.01Y-126.746
X82.55Y-126.746
X85.09Y-126.746
T0
M30
