%TF.GenerationSoftware,KiCad,Pcbnew,(5.1.6-0)*%
%TF.CreationDate,2022-12-22T20:14:18-05:00*%
%TF.ProjectId,Test Panel,54657374-2050-4616-9e65-6c2e6b696361,rev?*%
%TF.SameCoordinates,Original*%
%TF.FileFunction,Soldermask,Bot*%
%TF.FilePolarity,Negative*%
%FSLAX46Y46*%
G04 Gerber Fmt 4.6, Leading zero omitted, Abs format (unit mm)*
G04 Created by KiCad (PCBNEW (5.1.6-0)) date 2022-12-22 20:14:18*
%MOMM*%
%LPD*%
G01*
G04 APERTURE LIST*
%ADD10C,1.000000*%
%ADD11R,1.800000X1.800000*%
%ADD12O,1.800000X1.800000*%
G04 APERTURE END LIST*
D10*
X87630000Y-45974000D02*
X87630000Y-146304000D01*
X59690000Y-45974000D02*
X59690000Y-146304000D01*
D11*
%TO.C,37*%
X62230000Y-146304000D03*
D12*
X64770000Y-146304000D03*
X67310000Y-146304000D03*
X69850000Y-146304000D03*
X72390000Y-146304000D03*
X74930000Y-146304000D03*
X77470000Y-146304000D03*
X80010000Y-146304000D03*
X82550000Y-146304000D03*
X85090000Y-146304000D03*
%TD*%
D11*
%TO.C,36*%
X85090000Y-143510000D03*
D12*
X82550000Y-143510000D03*
X80010000Y-143510000D03*
X77470000Y-143510000D03*
X74930000Y-143510000D03*
X72390000Y-143510000D03*
X69850000Y-143510000D03*
X67310000Y-143510000D03*
X64770000Y-143510000D03*
X62230000Y-143510000D03*
%TD*%
%TO.C,35*%
X85090000Y-140716000D03*
X82550000Y-140716000D03*
X80010000Y-140716000D03*
X77470000Y-140716000D03*
X74930000Y-140716000D03*
X72390000Y-140716000D03*
X69850000Y-140716000D03*
X67310000Y-140716000D03*
X64770000Y-140716000D03*
D11*
X62230000Y-140716000D03*
%TD*%
D12*
%TO.C,34*%
X62230000Y-137922000D03*
X64770000Y-137922000D03*
X67310000Y-137922000D03*
X69850000Y-137922000D03*
X72390000Y-137922000D03*
X74930000Y-137922000D03*
X77470000Y-137922000D03*
X80010000Y-137922000D03*
X82550000Y-137922000D03*
D11*
X85090000Y-137922000D03*
%TD*%
D12*
%TO.C,33*%
X85090000Y-135128000D03*
X82550000Y-135128000D03*
X80010000Y-135128000D03*
X77470000Y-135128000D03*
X74930000Y-135128000D03*
X72390000Y-135128000D03*
X69850000Y-135128000D03*
X67310000Y-135128000D03*
X64770000Y-135128000D03*
D11*
X62230000Y-135128000D03*
%TD*%
D12*
%TO.C,24*%
X62230000Y-109982000D03*
X64770000Y-109982000D03*
X67310000Y-109982000D03*
X69850000Y-109982000D03*
X72390000Y-109982000D03*
X74930000Y-109982000D03*
X77470000Y-109982000D03*
X80010000Y-109982000D03*
X82550000Y-109982000D03*
D11*
X85090000Y-109982000D03*
%TD*%
D12*
%TO.C,23*%
X85090000Y-107188000D03*
X82550000Y-107188000D03*
X80010000Y-107188000D03*
X77470000Y-107188000D03*
X74930000Y-107188000D03*
X72390000Y-107188000D03*
X69850000Y-107188000D03*
X67310000Y-107188000D03*
X64770000Y-107188000D03*
D11*
X62230000Y-107188000D03*
%TD*%
D12*
%TO.C,26*%
X62230000Y-115570000D03*
X64770000Y-115570000D03*
X67310000Y-115570000D03*
X69850000Y-115570000D03*
X72390000Y-115570000D03*
X74930000Y-115570000D03*
X77470000Y-115570000D03*
X80010000Y-115570000D03*
X82550000Y-115570000D03*
D11*
X85090000Y-115570000D03*
%TD*%
D12*
%TO.C,25*%
X85090000Y-112776000D03*
X82550000Y-112776000D03*
X80010000Y-112776000D03*
X77470000Y-112776000D03*
X74930000Y-112776000D03*
X72390000Y-112776000D03*
X69850000Y-112776000D03*
X67310000Y-112776000D03*
X64770000Y-112776000D03*
D11*
X62230000Y-112776000D03*
%TD*%
D12*
%TO.C,30*%
X62230000Y-126746000D03*
X64770000Y-126746000D03*
X67310000Y-126746000D03*
X69850000Y-126746000D03*
X72390000Y-126746000D03*
X74930000Y-126746000D03*
X77470000Y-126746000D03*
X80010000Y-126746000D03*
X82550000Y-126746000D03*
D11*
X85090000Y-126746000D03*
%TD*%
D12*
%TO.C,29*%
X85090000Y-123952000D03*
X82550000Y-123952000D03*
X80010000Y-123952000D03*
X77470000Y-123952000D03*
X74930000Y-123952000D03*
X72390000Y-123952000D03*
X69850000Y-123952000D03*
X67310000Y-123952000D03*
X64770000Y-123952000D03*
D11*
X62230000Y-123952000D03*
%TD*%
D12*
%TO.C,27*%
X85090000Y-118364000D03*
X82550000Y-118364000D03*
X80010000Y-118364000D03*
X77470000Y-118364000D03*
X74930000Y-118364000D03*
X72390000Y-118364000D03*
X69850000Y-118364000D03*
X67310000Y-118364000D03*
X64770000Y-118364000D03*
D11*
X62230000Y-118364000D03*
%TD*%
D12*
%TO.C,32*%
X62230000Y-132334000D03*
X64770000Y-132334000D03*
X67310000Y-132334000D03*
X69850000Y-132334000D03*
X72390000Y-132334000D03*
X74930000Y-132334000D03*
X77470000Y-132334000D03*
X80010000Y-132334000D03*
X82550000Y-132334000D03*
D11*
X85090000Y-132334000D03*
%TD*%
D12*
%TO.C,31*%
X85090000Y-129540000D03*
X82550000Y-129540000D03*
X80010000Y-129540000D03*
X77470000Y-129540000D03*
X74930000Y-129540000D03*
X72390000Y-129540000D03*
X69850000Y-129540000D03*
X67310000Y-129540000D03*
X64770000Y-129540000D03*
D11*
X62230000Y-129540000D03*
%TD*%
D12*
%TO.C,21*%
X85090000Y-101600000D03*
X82550000Y-101600000D03*
X80010000Y-101600000D03*
X77470000Y-101600000D03*
X74930000Y-101600000D03*
X72390000Y-101600000D03*
X69850000Y-101600000D03*
X67310000Y-101600000D03*
X64770000Y-101600000D03*
D11*
X62230000Y-101600000D03*
%TD*%
D12*
%TO.C,22*%
X62230000Y-104394000D03*
X64770000Y-104394000D03*
X67310000Y-104394000D03*
X69850000Y-104394000D03*
X72390000Y-104394000D03*
X74930000Y-104394000D03*
X77470000Y-104394000D03*
X80010000Y-104394000D03*
X82550000Y-104394000D03*
D11*
X85090000Y-104394000D03*
%TD*%
D12*
%TO.C,28*%
X62230000Y-121158000D03*
X64770000Y-121158000D03*
X67310000Y-121158000D03*
X69850000Y-121158000D03*
X72390000Y-121158000D03*
X74930000Y-121158000D03*
X77470000Y-121158000D03*
X80010000Y-121158000D03*
X82550000Y-121158000D03*
D11*
X85090000Y-121158000D03*
%TD*%
%TO.C,19*%
X62230000Y-96012000D03*
D12*
X64770000Y-96012000D03*
X67310000Y-96012000D03*
X69850000Y-96012000D03*
X72390000Y-96012000D03*
X74930000Y-96012000D03*
X77470000Y-96012000D03*
X80010000Y-96012000D03*
X82550000Y-96012000D03*
X85090000Y-96012000D03*
%TD*%
D11*
%TO.C,20*%
X85090000Y-98806000D03*
D12*
X82550000Y-98806000D03*
X80010000Y-98806000D03*
X77470000Y-98806000D03*
X74930000Y-98806000D03*
X72390000Y-98806000D03*
X69850000Y-98806000D03*
X67310000Y-98806000D03*
X64770000Y-98806000D03*
X62230000Y-98806000D03*
%TD*%
D11*
%TO.C,17*%
X62230000Y-90424000D03*
D12*
X64770000Y-90424000D03*
X67310000Y-90424000D03*
X69850000Y-90424000D03*
X72390000Y-90424000D03*
X74930000Y-90424000D03*
X77470000Y-90424000D03*
X80010000Y-90424000D03*
X82550000Y-90424000D03*
X85090000Y-90424000D03*
%TD*%
D11*
%TO.C,18*%
X85090000Y-93218000D03*
D12*
X82550000Y-93218000D03*
X80010000Y-93218000D03*
X77470000Y-93218000D03*
X74930000Y-93218000D03*
X72390000Y-93218000D03*
X69850000Y-93218000D03*
X67310000Y-93218000D03*
X64770000Y-93218000D03*
X62230000Y-93218000D03*
%TD*%
D11*
%TO.C,15*%
X62230000Y-84836000D03*
D12*
X64770000Y-84836000D03*
X67310000Y-84836000D03*
X69850000Y-84836000D03*
X72390000Y-84836000D03*
X74930000Y-84836000D03*
X77470000Y-84836000D03*
X80010000Y-84836000D03*
X82550000Y-84836000D03*
X85090000Y-84836000D03*
%TD*%
D11*
%TO.C,16*%
X85090000Y-87630000D03*
D12*
X82550000Y-87630000D03*
X80010000Y-87630000D03*
X77470000Y-87630000D03*
X74930000Y-87630000D03*
X72390000Y-87630000D03*
X69850000Y-87630000D03*
X67310000Y-87630000D03*
X64770000Y-87630000D03*
X62230000Y-87630000D03*
%TD*%
D11*
%TO.C,13*%
X62230000Y-79248000D03*
D12*
X64770000Y-79248000D03*
X67310000Y-79248000D03*
X69850000Y-79248000D03*
X72390000Y-79248000D03*
X74930000Y-79248000D03*
X77470000Y-79248000D03*
X80010000Y-79248000D03*
X82550000Y-79248000D03*
X85090000Y-79248000D03*
%TD*%
D11*
%TO.C,14*%
X85090000Y-82042000D03*
D12*
X82550000Y-82042000D03*
X80010000Y-82042000D03*
X77470000Y-82042000D03*
X74930000Y-82042000D03*
X72390000Y-82042000D03*
X69850000Y-82042000D03*
X67310000Y-82042000D03*
X64770000Y-82042000D03*
X62230000Y-82042000D03*
%TD*%
D11*
%TO.C,11*%
X62230000Y-73660000D03*
D12*
X64770000Y-73660000D03*
X67310000Y-73660000D03*
X69850000Y-73660000D03*
X72390000Y-73660000D03*
X74930000Y-73660000D03*
X77470000Y-73660000D03*
X80010000Y-73660000D03*
X82550000Y-73660000D03*
X85090000Y-73660000D03*
%TD*%
D11*
%TO.C,12*%
X85090000Y-76454000D03*
D12*
X82550000Y-76454000D03*
X80010000Y-76454000D03*
X77470000Y-76454000D03*
X74930000Y-76454000D03*
X72390000Y-76454000D03*
X69850000Y-76454000D03*
X67310000Y-76454000D03*
X64770000Y-76454000D03*
X62230000Y-76454000D03*
%TD*%
D11*
%TO.C,9*%
X62230000Y-68072000D03*
D12*
X64770000Y-68072000D03*
X67310000Y-68072000D03*
X69850000Y-68072000D03*
X72390000Y-68072000D03*
X74930000Y-68072000D03*
X77470000Y-68072000D03*
X80010000Y-68072000D03*
X82550000Y-68072000D03*
X85090000Y-68072000D03*
%TD*%
D11*
%TO.C,10*%
X85090000Y-70866000D03*
D12*
X82550000Y-70866000D03*
X80010000Y-70866000D03*
X77470000Y-70866000D03*
X74930000Y-70866000D03*
X72390000Y-70866000D03*
X69850000Y-70866000D03*
X67310000Y-70866000D03*
X64770000Y-70866000D03*
X62230000Y-70866000D03*
%TD*%
D11*
%TO.C,7*%
X62230000Y-62484000D03*
D12*
X64770000Y-62484000D03*
X67310000Y-62484000D03*
X69850000Y-62484000D03*
X72390000Y-62484000D03*
X74930000Y-62484000D03*
X77470000Y-62484000D03*
X80010000Y-62484000D03*
X82550000Y-62484000D03*
X85090000Y-62484000D03*
%TD*%
D11*
%TO.C,8*%
X85090000Y-65278000D03*
D12*
X82550000Y-65278000D03*
X80010000Y-65278000D03*
X77470000Y-65278000D03*
X74930000Y-65278000D03*
X72390000Y-65278000D03*
X69850000Y-65278000D03*
X67310000Y-65278000D03*
X64770000Y-65278000D03*
X62230000Y-65278000D03*
%TD*%
D11*
%TO.C,5*%
X62230000Y-56896000D03*
D12*
X64770000Y-56896000D03*
X67310000Y-56896000D03*
X69850000Y-56896000D03*
X72390000Y-56896000D03*
X74930000Y-56896000D03*
X77470000Y-56896000D03*
X80010000Y-56896000D03*
X82550000Y-56896000D03*
X85090000Y-56896000D03*
%TD*%
D11*
%TO.C,6*%
X85090000Y-59690000D03*
D12*
X82550000Y-59690000D03*
X80010000Y-59690000D03*
X77470000Y-59690000D03*
X74930000Y-59690000D03*
X72390000Y-59690000D03*
X69850000Y-59690000D03*
X67310000Y-59690000D03*
X64770000Y-59690000D03*
X62230000Y-59690000D03*
%TD*%
D11*
%TO.C,3*%
X62230000Y-51308000D03*
D12*
X64770000Y-51308000D03*
X67310000Y-51308000D03*
X69850000Y-51308000D03*
X72390000Y-51308000D03*
X74930000Y-51308000D03*
X77470000Y-51308000D03*
X80010000Y-51308000D03*
X82550000Y-51308000D03*
X85090000Y-51308000D03*
%TD*%
D11*
%TO.C,4*%
X85090000Y-54102000D03*
D12*
X82550000Y-54102000D03*
X80010000Y-54102000D03*
X77470000Y-54102000D03*
X74930000Y-54102000D03*
X72390000Y-54102000D03*
X69850000Y-54102000D03*
X67310000Y-54102000D03*
X64770000Y-54102000D03*
X62230000Y-54102000D03*
%TD*%
%TO.C,2*%
X62230000Y-48768000D03*
X64770000Y-48768000D03*
X67310000Y-48768000D03*
X69850000Y-48768000D03*
X72390000Y-48768000D03*
X74930000Y-48768000D03*
X77470000Y-48768000D03*
X80010000Y-48768000D03*
X82550000Y-48768000D03*
D11*
X85090000Y-48768000D03*
%TD*%
D12*
%TO.C,1*%
X85090000Y-45974000D03*
X82550000Y-45974000D03*
X80010000Y-45974000D03*
X77470000Y-45974000D03*
X74930000Y-45974000D03*
X72390000Y-45974000D03*
X69850000Y-45974000D03*
X67310000Y-45974000D03*
X64770000Y-45974000D03*
D11*
X62230000Y-45974000D03*
%TD*%
M02*
