M48
; DRILL file {KiCad (5.1.6-0)} date Thursday, December 22, 2022 at 08:14:21 PM
; FORMAT={-:-/ absolute / metric / decimal}
; #@! TF.CreationDate,2022-12-22T20:14:21-05:00
; #@! TF.GenerationSoftware,Kicad,Pcbnew,(5.1.6-0)
; #@! TF.FileFunction,NonPlated,1,2,NPTH
FMAT,2
METRIC
T1C0.500
%
G90
G05
T1
X71.66Y-148.336
X72.66Y-148.336
X73.66Y-148.336
X74.66Y-148.336
X75.66Y-148.336
X77.756Y-148.336
X78.756Y-148.336
X79.756Y-148.336
X80.756Y-148.336
X81.756Y-148.336
X83.852Y-43.942
X84.852Y-43.942
X85.852Y-43.942
X86.852Y-43.942
X87.852Y-43.942
X59.468Y-43.942
X60.468Y-43.942
X61.468Y-43.942
X62.468Y-43.942
X63.468Y-43.942
X65.564Y-148.336
X66.564Y-148.336
X67.564Y-148.336
X68.564Y-148.336
X69.564Y-148.336
X65.564Y-43.942
X66.564Y-43.942
X67.564Y-43.942
X68.564Y-43.942
X69.564Y-43.942
X83.852Y-148.336
X84.852Y-148.336
X85.852Y-148.336
X86.852Y-148.336
X87.852Y-148.336
X71.66Y-43.942
X72.66Y-43.942
X73.66Y-43.942
X74.66Y-43.942
X75.66Y-43.942
X77.756Y-43.942
X78.756Y-43.942
X79.756Y-43.942
X80.756Y-43.942
X81.756Y-43.942
X59.468Y-148.336
X60.468Y-148.336
X61.468Y-148.336
X62.468Y-148.336
X63.468Y-148.336
T0
M30
