<?xml version="1.0" standalone="no"?>
 <!DOCTYPE svg PUBLIC "-//W3C//DTD SVG 1.1//EN" 
 "http://www.w3.org/Graphics/SVG/1.1/DTD/svg11.dtd"> 
<svg
  xmlns:svg="http://www.w3.org/2000/svg"
  xmlns="http://www.w3.org/2000/svg"
  xmlns:xlink="http://www.w3.org/1999/xlink"
  version="1.1"
  width="29.700220cm" height="21.000720cm" viewBox="0 0 116930 82680">
<title>SVG Picture created as AB MUTE-F_SilkS.svg date 2022/12/28 15:28:05 </title>
  <desc>Picture generated by PCBNEW </desc>
<g style="fill:#000000; fill-opacity:1;stroke:#000000; stroke-opacity:1;
stroke-linecap:round; stroke-linejoin:round;"
 transform="translate(0 0) scale(1 1)">
</g>
<g style="fill:#000000; fill-opacity:0.0; 
stroke:#000000; stroke-width:-0.000393701; stroke-opacity:1; 
stroke-linecap:round; stroke-linejoin:round;">
</g>
<g style="fill:#000000; fill-opacity:0.0; 
stroke:#000000; stroke-width:39.3701; stroke-opacity:1; 
stroke-linecap:round; stroke-linejoin:round;">
</g>
<g style="fill:#000000; fill-opacity:0.0; 
stroke:#000000; stroke-width:59.0551; stroke-opacity:1; 
stroke-linecap:round; stroke-linejoin:round;">
<rect x="69685.9" y="65357.2" width="42519.7" height="12598.4" rx="0" />
</g>
<g style="fill:#000000; fill-opacity:0.0; 
stroke:#000000; stroke-width:39.3701; stroke-opacity:1; 
stroke-linecap:round; stroke-linejoin:round;">
</g>
<g style="fill:#000000; fill-opacity:0.0; 
stroke:#000000; stroke-width:59.0551; stroke-opacity:1; 
stroke-linecap:round; stroke-linejoin:round;">
<rect x="3937.01" y="3937.01" width="109056" height="74806" rx="0" />
</g>
<g style="fill:#000000; fill-opacity:0.0; 
stroke:#000000; stroke-width:39.3701; stroke-opacity:1; 
stroke-linecap:round; stroke-linejoin:round;">
</g>
<g style="fill:#000000; fill-opacity:0.0; 
stroke:#000000; stroke-width:59.0551; stroke-opacity:1; 
stroke-linecap:round; stroke-linejoin:round;">
<rect x="4724.41" y="4724.41" width="107481" height="73231.2" rx="0" />
</g>
<g style="fill:#000000; fill-opacity:0.0; 
stroke:#000000; stroke-width:39.3701; stroke-opacity:1; 
stroke-linecap:round; stroke-linejoin:round;">
</g>
<g style="fill:#000000; fill-opacity:0.0; 
stroke:#000000; stroke-width:59.0551; stroke-opacity:1; 
stroke-linecap:round; stroke-linejoin:round;">
<path d="M23622 4724
L23622 3937
" />
</g>
<g style="fill:#000000; fill-opacity:0.0; 
stroke:#000000; stroke-width:39.3701; stroke-opacity:1; 
stroke-linecap:round; stroke-linejoin:round;">
</g>
<g style="fill:#000000; fill-opacity:0.0; 
stroke:#000000; stroke-width:59.0551; stroke-opacity:1; 
stroke-linecap:round; stroke-linejoin:round;">
<path d="M43307 4724
L43307 3937
" />
</g>
<g style="fill:#000000; fill-opacity:0.0; 
stroke:#000000; stroke-width:39.3701; stroke-opacity:1; 
stroke-linecap:round; stroke-linejoin:round;">
</g>
<g style="fill:#000000; fill-opacity:0.0; 
stroke:#000000; stroke-width:59.0551; stroke-opacity:1; 
stroke-linecap:round; stroke-linejoin:round;">
<path d="M62992 4724
L62992 3937
" />
</g>
<g style="fill:#000000; fill-opacity:0.0; 
stroke:#000000; stroke-width:39.3701; stroke-opacity:1; 
stroke-linecap:round; stroke-linejoin:round;">
</g>
<g style="fill:#000000; fill-opacity:0.0; 
stroke:#000000; stroke-width:59.0551; stroke-opacity:1; 
stroke-linecap:round; stroke-linejoin:round;">
<path d="M82677 4724
L82677 3937
" />
</g>
<g style="fill:#000000; fill-opacity:0.0; 
stroke:#000000; stroke-width:39.3701; stroke-opacity:1; 
stroke-linecap:round; stroke-linejoin:round;">
</g>
<g style="fill:#000000; fill-opacity:0.0; 
stroke:#000000; stroke-width:59.0551; stroke-opacity:1; 
stroke-linecap:round; stroke-linejoin:round;">
<path d="M102362 4724
L102362 3937
" />
</g>
<g style="fill:#000000; fill-opacity:0.0; 
stroke:#000000; stroke-width:39.3701; stroke-opacity:1; 
stroke-linecap:round; stroke-linejoin:round;">
</g>
<g style="fill:#000000; fill-opacity:0.0; 
stroke:#000000; stroke-width:59.0551; stroke-opacity:1; 
stroke-linecap:round; stroke-linejoin:round;">
<text x="13779.5" y="4586.61"
textLength="546.494" font-size="682.415" lengthAdjust="spacingAndGlyphs"
text-anchor="start" opacity="0">1</text>
<path d="M14199 4562
L13906 4562
" />
<path d="M14052 4562
L14052 4050
L14004 4123
L13955 4172
L13906 4196
" />
</g>
<g style="fill:#000000; fill-opacity:0.0; 
stroke:#000000; stroke-width:39.3701; stroke-opacity:1; 
stroke-linecap:round; stroke-linejoin:round;">
</g>
<g style="fill:#000000; fill-opacity:0.0; 
stroke:#000000; stroke-width:59.0551; stroke-opacity:1; 
stroke-linecap:round; stroke-linejoin:round;">
<text x="33464.6" y="4586.61"
textLength="546.494" font-size="682.415" lengthAdjust="spacingAndGlyphs"
text-anchor="start" opacity="0">2</text>
<path d="M33591 4099
L33615 4074
L33664 4050
L33786 4050
L33835 4074
L33859 4099
L33884 4147
L33884 4196
L33859 4269
L33567 4562
L33884 4562
" />
</g>
<g style="fill:#000000; fill-opacity:0.0; 
stroke:#000000; stroke-width:39.3701; stroke-opacity:1; 
stroke-linecap:round; stroke-linejoin:round;">
</g>
<g style="fill:#000000; fill-opacity:0.0; 
stroke:#000000; stroke-width:59.0551; stroke-opacity:1; 
stroke-linecap:round; stroke-linejoin:round;">
<text x="53149.6" y="4586.61"
textLength="546.494" font-size="682.415" lengthAdjust="spacingAndGlyphs"
text-anchor="start" opacity="0">3</text>
<path d="M53252 4050
L53569 4050
L53398 4245
L53471 4245
L53520 4269
L53544 4294
L53569 4342
L53569 4464
L53544 4513
L53520 4537
L53471 4562
L53325 4562
L53276 4537
L53252 4513
" />
</g>
<g style="fill:#000000; fill-opacity:0.0; 
stroke:#000000; stroke-width:39.3701; stroke-opacity:1; 
stroke-linecap:round; stroke-linejoin:round;">
</g>
<g style="fill:#000000; fill-opacity:0.0; 
stroke:#000000; stroke-width:59.0551; stroke-opacity:1; 
stroke-linecap:round; stroke-linejoin:round;">
<text x="72834.6" y="4586.61"
textLength="546.494" font-size="682.415" lengthAdjust="spacingAndGlyphs"
text-anchor="start" opacity="0">4</text>
<path d="M73205 4221
L73205 4562
" />
<path d="M73083 4026
L72961 4391
L73278 4391
" />
</g>
<g style="fill:#000000; fill-opacity:0.0; 
stroke:#000000; stroke-width:39.3701; stroke-opacity:1; 
stroke-linecap:round; stroke-linejoin:round;">
</g>
<g style="fill:#000000; fill-opacity:0.0; 
stroke:#000000; stroke-width:59.0551; stroke-opacity:1; 
stroke-linecap:round; stroke-linejoin:round;">
<text x="92519.7" y="4586.61"
textLength="546.494" font-size="682.415" lengthAdjust="spacingAndGlyphs"
text-anchor="start" opacity="0">5</text>
<path d="M92914 4050
L92671 4050
L92646 4294
L92671 4269
L92719 4245
L92841 4245
L92890 4269
L92914 4294
L92939 4342
L92939 4464
L92914 4513
L92890 4537
L92841 4562
L92719 4562
L92671 4537
L92646 4513
" />
</g>
<g style="fill:#000000; fill-opacity:0.0; 
stroke:#000000; stroke-width:39.3701; stroke-opacity:1; 
stroke-linecap:round; stroke-linejoin:round;">
</g>
<g style="fill:#000000; fill-opacity:0.0; 
stroke:#000000; stroke-width:59.0551; stroke-opacity:1; 
stroke-linecap:round; stroke-linejoin:round;">
<text x="112205" y="4586.61"
textLength="546.494" font-size="682.415" lengthAdjust="spacingAndGlyphs"
text-anchor="start" opacity="0">6</text>
<path d="M112575 4050
L112477 4050
L112429 4074
L112404 4099
L112356 4172
L112331 4269
L112331 4464
L112356 4513
L112380 4537
L112429 4562
L112526 4562
L112575 4537
L112599 4513
L112624 4464
L112624 4342
L112599 4294
L112575 4269
L112526 4245
L112429 4245
L112380 4269
L112356 4294
L112331 4342
" />
</g>
<g style="fill:#000000; fill-opacity:0.0; 
stroke:#000000; stroke-width:39.3701; stroke-opacity:1; 
stroke-linecap:round; stroke-linejoin:round;">
</g>
<g style="fill:#000000; fill-opacity:0.0; 
stroke:#000000; stroke-width:59.0551; stroke-opacity:1; 
stroke-linecap:round; stroke-linejoin:round;">
<path d="M23622 77955
L23622 78742
" />
</g>
<g style="fill:#000000; fill-opacity:0.0; 
stroke:#000000; stroke-width:39.3701; stroke-opacity:1; 
stroke-linecap:round; stroke-linejoin:round;">
</g>
<g style="fill:#000000; fill-opacity:0.0; 
stroke:#000000; stroke-width:59.0551; stroke-opacity:1; 
stroke-linecap:round; stroke-linejoin:round;">
<path d="M43307 77955
L43307 78742
" />
</g>
<g style="fill:#000000; fill-opacity:0.0; 
stroke:#000000; stroke-width:39.3701; stroke-opacity:1; 
stroke-linecap:round; stroke-linejoin:round;">
</g>
<g style="fill:#000000; fill-opacity:0.0; 
stroke:#000000; stroke-width:59.0551; stroke-opacity:1; 
stroke-linecap:round; stroke-linejoin:round;">
<path d="M62992 77955
L62992 78742
" />
</g>
<g style="fill:#000000; fill-opacity:0.0; 
stroke:#000000; stroke-width:39.3701; stroke-opacity:1; 
stroke-linecap:round; stroke-linejoin:round;">
</g>
<g style="fill:#000000; fill-opacity:0.0; 
stroke:#000000; stroke-width:59.0551; stroke-opacity:1; 
stroke-linecap:round; stroke-linejoin:round;">
<path d="M82677 77955
L82677 78742
" />
</g>
<g style="fill:#000000; fill-opacity:0.0; 
stroke:#000000; stroke-width:39.3701; stroke-opacity:1; 
stroke-linecap:round; stroke-linejoin:round;">
</g>
<g style="fill:#000000; fill-opacity:0.0; 
stroke:#000000; stroke-width:59.0551; stroke-opacity:1; 
stroke-linecap:round; stroke-linejoin:round;">
<path d="M102362 77955
L102362 78742
" />
</g>
<g style="fill:#000000; fill-opacity:0.0; 
stroke:#000000; stroke-width:39.3701; stroke-opacity:1; 
stroke-linecap:round; stroke-linejoin:round;">
</g>
<g style="fill:#000000; fill-opacity:0.0; 
stroke:#000000; stroke-width:59.0551; stroke-opacity:1; 
stroke-linecap:round; stroke-linejoin:round;">
<text x="13779.5" y="78605.2"
textLength="546.494" font-size="682.415" lengthAdjust="spacingAndGlyphs"
text-anchor="start" opacity="0">1</text>
<path d="M14199 78580
L13906 78580
" />
<path d="M14052 78580
L14052 78069
L14004 78142
L13955 78190
L13906 78215
" />
</g>
<g style="fill:#000000; fill-opacity:0.0; 
stroke:#000000; stroke-width:39.3701; stroke-opacity:1; 
stroke-linecap:round; stroke-linejoin:round;">
</g>
<g style="fill:#000000; fill-opacity:0.0; 
stroke:#000000; stroke-width:59.0551; stroke-opacity:1; 
stroke-linecap:round; stroke-linejoin:round;">
<text x="33464.6" y="78605.2"
textLength="546.494" font-size="682.415" lengthAdjust="spacingAndGlyphs"
text-anchor="start" opacity="0">2</text>
<path d="M33591 78117
L33615 78093
L33664 78069
L33786 78069
L33835 78093
L33859 78117
L33884 78166
L33884 78215
L33859 78288
L33567 78580
L33884 78580
" />
</g>
<g style="fill:#000000; fill-opacity:0.0; 
stroke:#000000; stroke-width:39.3701; stroke-opacity:1; 
stroke-linecap:round; stroke-linejoin:round;">
</g>
<g style="fill:#000000; fill-opacity:0.0; 
stroke:#000000; stroke-width:59.0551; stroke-opacity:1; 
stroke-linecap:round; stroke-linejoin:round;">
<text x="53149.6" y="78605.2"
textLength="546.494" font-size="682.415" lengthAdjust="spacingAndGlyphs"
text-anchor="start" opacity="0">3</text>
<path d="M53252 78069
L53569 78069
L53398 78263
L53471 78263
L53520 78288
L53544 78312
L53569 78361
L53569 78483
L53544 78532
L53520 78556
L53471 78580
L53325 78580
L53276 78556
L53252 78532
" />
</g>
<g style="fill:#000000; fill-opacity:0.0; 
stroke:#000000; stroke-width:39.3701; stroke-opacity:1; 
stroke-linecap:round; stroke-linejoin:round;">
</g>
<g style="fill:#000000; fill-opacity:0.0; 
stroke:#000000; stroke-width:59.0551; stroke-opacity:1; 
stroke-linecap:round; stroke-linejoin:round;">
<text x="72834.6" y="78605.2"
textLength="546.494" font-size="682.415" lengthAdjust="spacingAndGlyphs"
text-anchor="start" opacity="0">4</text>
<path d="M73205 78239
L73205 78580
" />
<path d="M73083 78044
L72961 78410
L73278 78410
" />
</g>
<g style="fill:#000000; fill-opacity:0.0; 
stroke:#000000; stroke-width:39.3701; stroke-opacity:1; 
stroke-linecap:round; stroke-linejoin:round;">
</g>
<g style="fill:#000000; fill-opacity:0.0; 
stroke:#000000; stroke-width:59.0551; stroke-opacity:1; 
stroke-linecap:round; stroke-linejoin:round;">
<text x="92519.7" y="78605.2"
textLength="546.494" font-size="682.415" lengthAdjust="spacingAndGlyphs"
text-anchor="start" opacity="0">5</text>
<path d="M92914 78069
L92671 78069
L92646 78312
L92671 78288
L92719 78263
L92841 78263
L92890 78288
L92914 78312
L92939 78361
L92939 78483
L92914 78532
L92890 78556
L92841 78580
L92719 78580
L92671 78556
L92646 78532
" />
</g>
<g style="fill:#000000; fill-opacity:0.0; 
stroke:#000000; stroke-width:39.3701; stroke-opacity:1; 
stroke-linecap:round; stroke-linejoin:round;">
</g>
<g style="fill:#000000; fill-opacity:0.0; 
stroke:#000000; stroke-width:59.0551; stroke-opacity:1; 
stroke-linecap:round; stroke-linejoin:round;">
<text x="112205" y="78605.2"
textLength="546.494" font-size="682.415" lengthAdjust="spacingAndGlyphs"
text-anchor="start" opacity="0">6</text>
<path d="M112575 78069
L112477 78069
L112429 78093
L112404 78117
L112356 78190
L112331 78288
L112331 78483
L112356 78532
L112380 78556
L112429 78580
L112526 78580
L112575 78556
L112599 78532
L112624 78483
L112624 78361
L112599 78312
L112575 78288
L112526 78263
L112429 78263
L112380 78288
L112356 78312
L112331 78361
" />
</g>
<g style="fill:#000000; fill-opacity:0.0; 
stroke:#000000; stroke-width:39.3701; stroke-opacity:1; 
stroke-linecap:round; stroke-linejoin:round;">
</g>
<g style="fill:#000000; fill-opacity:0.0; 
stroke:#000000; stroke-width:59.0551; stroke-opacity:1; 
stroke-linecap:round; stroke-linejoin:round;">
<path d="M3937 23622
L4724 23622
" />
</g>
<g style="fill:#000000; fill-opacity:0.0; 
stroke:#000000; stroke-width:39.3701; stroke-opacity:1; 
stroke-linecap:round; stroke-linejoin:round;">
</g>
<g style="fill:#000000; fill-opacity:0.0; 
stroke:#000000; stroke-width:59.0551; stroke-opacity:1; 
stroke-linecap:round; stroke-linejoin:round;">
<path d="M3937 43307
L4724 43307
" />
</g>
<g style="fill:#000000; fill-opacity:0.0; 
stroke:#000000; stroke-width:39.3701; stroke-opacity:1; 
stroke-linecap:round; stroke-linejoin:round;">
</g>
<g style="fill:#000000; fill-opacity:0.0; 
stroke:#000000; stroke-width:59.0551; stroke-opacity:1; 
stroke-linecap:round; stroke-linejoin:round;">
<path d="M3937 62992
L4724 62992
" />
</g>
<g style="fill:#000000; fill-opacity:0.0; 
stroke:#000000; stroke-width:39.3701; stroke-opacity:1; 
stroke-linecap:round; stroke-linejoin:round;">
</g>
<g style="fill:#000000; fill-opacity:0.0; 
stroke:#000000; stroke-width:59.0551; stroke-opacity:1; 
stroke-linecap:round; stroke-linejoin:round;">
<text x="4330.71" y="14035.4"
textLength="497.75" font-size="682.415" lengthAdjust="spacingAndGlyphs"
text-anchor="middle" opacity="0">A</text>
<path d="M4208 13864
L4452 13864
" />
<path d="M4160 14011
L4330 13499
L4501 14011
" />
</g>
<g style="fill:#000000; fill-opacity:0.0; 
stroke:#000000; stroke-width:39.3701; stroke-opacity:1; 
stroke-linecap:round; stroke-linejoin:round;">
</g>
<g style="fill:#000000; fill-opacity:0.0; 
stroke:#000000; stroke-width:59.0551; stroke-opacity:1; 
stroke-linecap:round; stroke-linejoin:round;">
<text x="4330.71" y="33720.5"
textLength="570.866" font-size="682.415" lengthAdjust="spacingAndGlyphs"
text-anchor="middle" opacity="0">B</text>
<path d="M4367 33428
L4440 33452
L4464 33476
L4489 33525
L4489 33598
L4464 33647
L4440 33671
L4391 33696
L4196 33696
L4196 33184
L4367 33184
L4416 33208
L4440 33233
L4464 33281
L4464 33330
L4440 33379
L4416 33403
L4367 33428
L4196 33428
" />
</g>
<g style="fill:#000000; fill-opacity:0.0; 
stroke:#000000; stroke-width:39.3701; stroke-opacity:1; 
stroke-linecap:round; stroke-linejoin:round;">
</g>
<g style="fill:#000000; fill-opacity:0.0; 
stroke:#000000; stroke-width:59.0551; stroke-opacity:1; 
stroke-linecap:round; stroke-linejoin:round;">
<text x="4330.71" y="53405.5"
textLength="570.866" font-size="682.415" lengthAdjust="spacingAndGlyphs"
text-anchor="middle" opacity="0">C</text>
<path d="M4489 53332
L4464 53356
L4391 53381
L4342 53381
L4269 53356
L4221 53308
L4196 53259
L4172 53161
L4172 53088
L4196 52991
L4221 52942
L4269 52893
L4342 52869
L4391 52869
L4464 52893
L4489 52918
" />
</g>
<g style="fill:#000000; fill-opacity:0.0; 
stroke:#000000; stroke-width:39.3701; stroke-opacity:1; 
stroke-linecap:round; stroke-linejoin:round;">
</g>
<g style="fill:#000000; fill-opacity:0.0; 
stroke:#000000; stroke-width:59.0551; stroke-opacity:1; 
stroke-linecap:round; stroke-linejoin:round;">
<text x="4330.71" y="73090.6"
textLength="570.866" font-size="682.415" lengthAdjust="spacingAndGlyphs"
text-anchor="middle" opacity="0">D</text>
<path d="M4196 73066
L4196 72554
L4318 72554
L4391 72578
L4440 72627
L4464 72676
L4489 72773
L4489 72846
L4464 72944
L4440 72993
L4391 73041
L4318 73066
L4196 73066
" />
</g>
<g style="fill:#000000; fill-opacity:0.0; 
stroke:#000000; stroke-width:39.3701; stroke-opacity:1; 
stroke-linecap:round; stroke-linejoin:round;">
</g>
<g style="fill:#000000; fill-opacity:0.0; 
stroke:#000000; stroke-width:59.0551; stroke-opacity:1; 
stroke-linecap:round; stroke-linejoin:round;">
<path d="M112992 23622
L112205 23622
" />
</g>
<g style="fill:#000000; fill-opacity:0.0; 
stroke:#000000; stroke-width:39.3701; stroke-opacity:1; 
stroke-linecap:round; stroke-linejoin:round;">
</g>
<g style="fill:#000000; fill-opacity:0.0; 
stroke:#000000; stroke-width:59.0551; stroke-opacity:1; 
stroke-linecap:round; stroke-linejoin:round;">
<path d="M112992 43307
L112205 43307
" />
</g>
<g style="fill:#000000; fill-opacity:0.0; 
stroke:#000000; stroke-width:39.3701; stroke-opacity:1; 
stroke-linecap:round; stroke-linejoin:round;">
</g>
<g style="fill:#000000; fill-opacity:0.0; 
stroke:#000000; stroke-width:59.0551; stroke-opacity:1; 
stroke-linecap:round; stroke-linejoin:round;">
<path d="M112992 62992
L112205 62992
" />
</g>
<g style="fill:#000000; fill-opacity:0.0; 
stroke:#000000; stroke-width:39.3701; stroke-opacity:1; 
stroke-linecap:round; stroke-linejoin:round;">
</g>
<g style="fill:#000000; fill-opacity:0.0; 
stroke:#000000; stroke-width:59.0551; stroke-opacity:1; 
stroke-linecap:round; stroke-linejoin:round;">
<text x="112599" y="14035.4"
textLength="497.75" font-size="682.415" lengthAdjust="spacingAndGlyphs"
text-anchor="middle" opacity="0">A</text>
<path d="M112477 13864
L112721 13864
" />
<path d="M112428 14011
L112599 13499
L112769 14011
" />
</g>
<g style="fill:#000000; fill-opacity:0.0; 
stroke:#000000; stroke-width:39.3701; stroke-opacity:1; 
stroke-linecap:round; stroke-linejoin:round;">
</g>
<g style="fill:#000000; fill-opacity:0.0; 
stroke:#000000; stroke-width:59.0551; stroke-opacity:1; 
stroke-linecap:round; stroke-linejoin:round;">
<text x="112599" y="33720.5"
textLength="570.866" font-size="682.415" lengthAdjust="spacingAndGlyphs"
text-anchor="middle" opacity="0">B</text>
<path d="M112635 33428
L112708 33452
L112733 33476
L112757 33525
L112757 33598
L112733 33647
L112708 33671
L112660 33696
L112465 33696
L112465 33184
L112635 33184
L112684 33208
L112708 33233
L112733 33281
L112733 33330
L112708 33379
L112684 33403
L112635 33428
L112465 33428
" />
</g>
<g style="fill:#000000; fill-opacity:0.0; 
stroke:#000000; stroke-width:39.3701; stroke-opacity:1; 
stroke-linecap:round; stroke-linejoin:round;">
</g>
<g style="fill:#000000; fill-opacity:0.0; 
stroke:#000000; stroke-width:59.0551; stroke-opacity:1; 
stroke-linecap:round; stroke-linejoin:round;">
<text x="112599" y="53405.5"
textLength="570.866" font-size="682.415" lengthAdjust="spacingAndGlyphs"
text-anchor="middle" opacity="0">C</text>
<path d="M112757 53332
L112733 53356
L112660 53381
L112611 53381
L112538 53356
L112489 53308
L112465 53259
L112440 53161
L112440 53088
L112465 52991
L112489 52942
L112538 52893
L112611 52869
L112660 52869
L112733 52893
L112757 52918
" />
</g>
<g style="fill:#000000; fill-opacity:0.0; 
stroke:#000000; stroke-width:39.3701; stroke-opacity:1; 
stroke-linecap:round; stroke-linejoin:round;">
</g>
<g style="fill:#000000; fill-opacity:0.0; 
stroke:#000000; stroke-width:59.0551; stroke-opacity:1; 
stroke-linecap:round; stroke-linejoin:round;">
<text x="112599" y="73090.6"
textLength="570.866" font-size="682.415" lengthAdjust="spacingAndGlyphs"
text-anchor="middle" opacity="0">D</text>
<path d="M112465 73066
L112465 72554
L112587 72554
L112660 72578
L112708 72627
L112733 72676
L112757 72773
L112757 72846
L112733 72944
L112708 72993
L112660 73041
L112587 73066
L112465 73066
" />
</g>
<g style="fill:#000000; fill-opacity:0.0; 
stroke:#000000; stroke-width:39.3701; stroke-opacity:1; 
stroke-linecap:round; stroke-linejoin:round;">
</g>
<g style="fill:#000000; fill-opacity:0.0; 
stroke:#000000; stroke-width:59.0551; stroke-opacity:1; 
stroke-linecap:round; stroke-linejoin:round;">
<text x="78741" y="76321.7"
textLength="2758.72" font-size="787.402" lengthAdjust="spacingAndGlyphs"
text-anchor="start" opacity="0">Date: </text>
<path d="M78911 76293
L78911 75703
L79051 75703
L79136 75731
L79192 75787
L79220 75843
L79248 75956
L79248 76040
L79220 76153
L79192 76209
L79136 76265
L79051 76293
L78911 76293
" />
<path d="M79754 76293
L79754 75984
L79726 75928
L79670 75899
L79557 75899
L79501 75928
" />
<path d="M79754 76265
L79698 76293
L79557 76293
L79501 76265
L79473 76209
L79473 76153
L79501 76096
L79557 76068
L79698 76068
L79754 76040
" />
<path d="M79951 75899
L80176 75899
" />
<path d="M80036 75703
L80036 76209
L80064 76265
L80120 76293
L80176 76293
" />
<path d="M80598 76265
L80542 76293
L80429 76293
L80373 76265
L80345 76209
L80345 75984
L80373 75928
L80429 75899
L80542 75899
L80598 75928
L80626 75984
L80626 76040
L80345 76096
" />
<path d="M80879 76237
L80907 76265
L80879 76293
L80851 76265
L80879 76237
L80879 76293
" />
<path d="M80879 75928
L80907 75956
L80879 75984
L80851 75956
L80879 75928
L80879 75984
" />
</g>
<g style="fill:#000000; fill-opacity:0.0; 
stroke:#000000; stroke-width:39.3701; stroke-opacity:1; 
stroke-linecap:round; stroke-linejoin:round;">
</g>
<g style="fill:#000000; fill-opacity:0.0; 
stroke:#000000; stroke-width:59.0551; stroke-opacity:1; 
stroke-linecap:round; stroke-linejoin:round;">
<path d="M69685 76577
L112205 76577
" />
</g>
<g style="fill:#000000; fill-opacity:0.0; 
stroke:#000000; stroke-width:39.3701; stroke-opacity:1; 
stroke-linecap:round; stroke-linejoin:round;">
</g>
<g style="fill:#000000; fill-opacity:0.0; 
stroke:#000000; stroke-width:59.0551; stroke-opacity:1; 
stroke-linecap:round; stroke-linejoin:round;">
<text x="70079.6" y="77424.1"
textLength="13529.2" font-size="787.402" lengthAdjust="spacingAndGlyphs"
text-anchor="start" opacity="0">KiCad E.D.A.  kicad (5.1.6-0)</text>
<path d="M70249 77395
L70249 76805
" />
<path d="M70587 77395
L70334 77058
" />
<path d="M70587 76805
L70249 77142
" />
<path d="M70840 77395
L70840 77002
" />
<path d="M70840 76805
L70812 76833
L70840 76861
L70868 76833
L70840 76805
L70840 76861
" />
<path d="M71458 77339
L71430 77367
L71346 77395
L71290 77395
L71205 77367
L71149 77311
L71121 77255
L71093 77142
L71093 77058
L71121 76946
L71149 76889
L71205 76833
L71290 76805
L71346 76805
L71430 76833
L71458 76861
" />
<path d="M71965 77395
L71965 77086
L71937 77030
L71880 77002
L71768 77002
L71712 77030
" />
<path d="M71965 77367
L71908 77395
L71768 77395
L71712 77367
L71683 77311
L71683 77255
L71712 77199
L71768 77171
L71908 77171
L71965 77142
" />
<path d="M72499 77395
L72499 76805
" />
<path d="M72499 77367
L72443 77395
L72330 77395
L72274 77367
L72246 77339
L72218 77283
L72218 77114
L72246 77058
L72274 77030
L72330 77002
L72443 77002
L72499 77030
" />
<path d="M73230 77086
L73427 77086
" />
<path d="M73511 77395
L73230 77395
L73230 76805
L73511 76805
" />
<path d="M73764 77339
L73793 77367
L73764 77395
L73736 77367
L73764 77339
L73764 77395
" />
<path d="M74046 77395
L74046 76805
L74186 76805
L74271 76833
L74327 76889
L74355 76946
L74383 77058
L74383 77142
L74355 77255
L74327 77311
L74271 77367
L74186 77395
L74046 77395
" />
<path d="M74636 77339
L74664 77367
L74636 77395
L74608 77367
L74636 77339
L74636 77395
" />
<path d="M74889 77227
L75171 77227
" />
<path d="M74833 77395
L75030 76805
L75227 77395
" />
<path d="M75424 77339
L75452 77367
L75424 77395
L75395 77367
L75424 77339
L75424 77395
" />
<path d="M76605 77395
L76605 76805
" />
<path d="M76661 77171
L76830 77395
" />
<path d="M76830 77002
L76605 77227
" />
<path d="M77083 77395
L77083 77002
" />
<path d="M77083 76805
L77055 76833
L77083 76861
L77111 76833
L77083 76805
L77083 76861
" />
<path d="M77617 77367
L77561 77395
L77448 77395
L77392 77367
L77364 77339
L77336 77283
L77336 77114
L77364 77058
L77392 77030
L77448 77002
L77561 77002
L77617 77030
" />
<path d="M78123 77395
L78123 77086
L78095 77030
L78039 77002
L77926 77002
L77870 77030
" />
<path d="M78123 77367
L78067 77395
L77926 77395
L77870 77367
L77842 77311
L77842 77255
L77870 77199
L77926 77171
L78067 77171
L78123 77142
" />
<path d="M78658 77395
L78658 76805
" />
<path d="M78658 77367
L78601 77395
L78489 77395
L78433 77367
L78404 77339
L78376 77283
L78376 77114
L78404 77058
L78433 77030
L78489 77002
L78601 77002
L78658 77030
" />
<path d="M79557 77620
L79529 77592
L79473 77508
L79445 77452
L79417 77367
L79389 77227
L79389 77114
L79417 76974
L79445 76889
L79473 76833
L79529 76749
L79557 76721
" />
<path d="M80064 76805
L79782 76805
L79754 77086
L79782 77058
L79839 77030
L79979 77030
L80036 77058
L80064 77086
L80092 77142
L80092 77283
L80064 77339
L80036 77367
L79979 77395
L79839 77395
L79782 77367
L79754 77339
" />
<path d="M80345 77339
L80373 77367
L80345 77395
L80317 77367
L80345 77339
L80345 77395
" />
<path d="M80935 77395
L80598 77395
" />
<path d="M80767 77395
L80767 76805
L80710 76889
L80654 76946
L80598 76974
" />
<path d="M81188 77339
L81217 77367
L81188 77395
L81160 77367
L81188 77339
L81188 77395
" />
<path d="M81723 76805
L81610 76805
L81554 76833
L81526 76861
L81470 76946
L81442 77058
L81442 77283
L81470 77339
L81498 77367
L81554 77395
L81667 77395
L81723 77367
L81751 77339
L81779 77283
L81779 77142
L81751 77086
L81723 77058
L81667 77030
L81554 77030
L81498 77058
L81470 77086
L81442 77142
" />
<path d="M82032 77171
L82482 77171
" />
<path d="M82876 76805
L82932 76805
L82988 76833
L83016 76861
L83045 76917
L83073 77030
L83073 77171
L83045 77283
L83016 77339
L82988 77367
L82932 77395
L82876 77395
L82820 77367
L82791 77339
L82763 77283
L82735 77171
L82735 77030
L82763 76917
L82791 76861
L82820 76833
L82876 76805
" />
<path d="M83269 77620
L83298 77592
L83354 77508
L83382 77452
L83410 77367
L83438 77227
L83438 77114
L83410 76974
L83382 76889
L83354 76833
L83298 76749
L83269 76721
" />
</g>
<g style="fill:#000000; fill-opacity:0.0; 
stroke:#000000; stroke-width:39.3701; stroke-opacity:1; 
stroke-linecap:round; stroke-linejoin:round;">
</g>
<g style="fill:#000000; fill-opacity:0.0; 
stroke:#000000; stroke-width:59.0551; stroke-opacity:1; 
stroke-linecap:round; stroke-linejoin:round;">
<path d="M69685 75396
L112205 75396
" />
</g>
<g style="fill:#000000; fill-opacity:0.0; 
stroke:#000000; stroke-width:39.3701; stroke-opacity:1; 
stroke-linecap:round; stroke-linejoin:round;">
</g>
<g style="fill:#000000; fill-opacity:0.0; 
stroke:#000000; stroke-width:118.11; stroke-opacity:1; 
stroke-linecap:round; stroke-linejoin:round;">
<text x="103544" y="76321.7"
textLength="2336.9" font-size="787.402" lengthAdjust="spacingAndGlyphs"
text-anchor="start" opacity="0">Rev: </text>
<path d="M104099 76293
L103902 76012
" />
<path d="M103761 76293
L103761 75703
L103986 75703
L104042 75731
L104070 75759
L104099 75815
L104099 75899
L104070 75956
L104042 75984
L103986 76012
L103761 76012
" />
<path d="M104577 76265
L104520 76293
L104408 76293
L104352 76265
L104323 76209
L104323 75984
L104352 75928
L104408 75899
L104520 75899
L104577 75928
L104605 75984
L104605 76040
L104323 76096
" />
<path d="M104802 75899
L104942 76293
L105083 75899
" />
<path d="M105308 76237
L105336 76265
L105308 76293
L105280 76265
L105308 76237
L105308 76293
" />
<path d="M105308 75928
L105336 75956
L105308 75984
L105280 75956
L105308 75928
L105308 75984
" />
</g>
<g style="fill:#000000; fill-opacity:0.0; 
stroke:#000000; stroke-width:39.3701; stroke-opacity:1; 
stroke-linecap:round; stroke-linejoin:round;">
</g>
<g style="fill:#000000; fill-opacity:0.0; 
stroke:#000000; stroke-width:59.0551; stroke-opacity:1; 
stroke-linecap:round; stroke-linejoin:round;">
<text x="70079.6" y="76321.7"
textLength="3781.21" font-size="787.402" lengthAdjust="spacingAndGlyphs"
text-anchor="start" opacity="0">Size: A4</text>
<path d="M70221 76265
L70305 76293
L70446 76293
L70502 76265
L70530 76237
L70559 76181
L70559 76124
L70530 76068
L70502 76040
L70446 76012
L70334 75984
L70277 75956
L70249 75928
L70221 75871
L70221 75815
L70249 75759
L70277 75731
L70334 75703
L70474 75703
L70559 75731
" />
<path d="M70812 76293
L70812 75899
" />
<path d="M70812 75703
L70784 75731
L70812 75759
L70840 75731
L70812 75703
L70812 75759
" />
<path d="M71037 75899
L71346 75899
L71037 76293
L71346 76293
" />
<path d="M71796 76265
L71740 76293
L71627 76293
L71571 76265
L71543 76209
L71543 75984
L71571 75928
L71627 75899
L71740 75899
L71796 75928
L71824 75984
L71824 76040
L71543 76096
" />
<path d="M72077 76237
L72105 76265
L72077 76293
L72049 76265
L72077 76237
L72077 76293
" />
<path d="M72077 75928
L72105 75956
L72077 75984
L72049 75956
L72077 75928
L72077 75984
" />
<path d="M72780 76124
L73061 76124
" />
<path d="M72724 76293
L72921 75703
L73118 76293
" />
<path d="M73568 75899
L73568 76293
" />
<path d="M73427 75674
L73286 76096
L73652 76096
" />
</g>
<g style="fill:#000000; fill-opacity:0.0; 
stroke:#000000; stroke-width:39.3701; stroke-opacity:1; 
stroke-linecap:round; stroke-linejoin:round;">
</g>
<g style="fill:#000000; fill-opacity:0.0; 
stroke:#000000; stroke-width:59.0551; stroke-opacity:1; 
stroke-linecap:round; stroke-linejoin:round;">
<text x="103544" y="77424.1"
textLength="3349.27" font-size="787.402" lengthAdjust="spacingAndGlyphs"
text-anchor="start" opacity="0">Id: 1/1</text>
<path d="M103714 77395
L103714 76805
" />
<path d="M104248 77395
L104248 76805
" />
<path d="M104248 77367
L104192 77395
L104079 77395
L104023 77367
L103995 77339
L103967 77283
L103967 77114
L103995 77058
L104023 77030
L104079 77002
L104192 77002
L104248 77030
" />
<path d="M104529 77339
L104557 77367
L104529 77395
L104501 77367
L104529 77339
L104529 77395
" />
<path d="M104529 77030
L104557 77058
L104529 77086
L104501 77058
L104529 77030
L104529 77086
" />
<path d="M105570 77395
L105232 77395
" />
<path d="M105401 77395
L105401 76805
L105345 76889
L105289 76946
L105232 76974
" />
<path d="M106245 76777
L105739 77536
" />
<path d="M106751 77395
L106413 77395
" />
<path d="M106582 77395
L106582 76805
L106526 76889
L106470 76946
L106413 76974
" />
</g>
<g style="fill:#000000; fill-opacity:0.0; 
stroke:#000000; stroke-width:39.3701; stroke-opacity:1; 
stroke-linecap:round; stroke-linejoin:round;">
</g>
<g style="fill:#000000; fill-opacity:0.0; 
stroke:#000000; stroke-width:59.0551; stroke-opacity:1; 
stroke-linecap:round; stroke-linejoin:round;">
<path d="M69685 73821
L112205 73821
" />
</g>
<g style="fill:#000000; fill-opacity:0.0; 
stroke:#000000; stroke-width:39.3701; stroke-opacity:1; 
stroke-linecap:round; stroke-linejoin:round;">
</g>
<g style="fill:#000000; fill-opacity:0.0; 
stroke:#000000; stroke-width:157.48; stroke-opacity:1; 
stroke-linecap:round; stroke-linejoin:round;">
<text x="70079.6" y="74924.1"
textLength="3701.14" font-size="1049.87" lengthAdjust="spacingAndGlyphs"
text-anchor="start" opacity="0">Title: </text>
<path d="M70360 74099
L70810 74099
" />
<path d="M70486 74886
L70585 74099
" />
<path d="M70974 74886
L71039 74361
" />
<path d="M71072 74099
L71030 74136
L71063 74174
L71105 74136
L71072 74099
L71063 74174
" />
<path d="M71302 74361
L71602 74361
" />
<path d="M71447 74099
L71363 74774
L71391 74849
L71461 74886
L71536 74886
" />
<path d="M71911 74886
L71841 74849
L71813 74774
L71897 74099
" />
<path d="M72516 74849
L72436 74886
L72286 74886
L72216 74849
L72187 74774
L72225 74474
L72272 74399
L72352 74361
L72501 74361
L72572 74399
L72600 74474
L72591 74549
L72206 74624
" />
<path d="M72895 74811
L72928 74849
L72886 74886
L72853 74849
L72895 74811
L72886 74886
" />
<path d="M72947 74399
L72980 74436
L72937 74474
L72905 74436
L72947 74399
L72937 74474
" />
</g>
<g style="fill:#000000; fill-opacity:0.0; 
stroke:#000000; stroke-width:39.3701; stroke-opacity:1; 
stroke-linecap:round; stroke-linejoin:round;">
</g>
<g style="fill:#000000; fill-opacity:0.0; 
stroke:#000000; stroke-width:59.0551; stroke-opacity:1; 
stroke-linecap:round; stroke-linejoin:round;">
<text x="70079.6" y="73408.3"
textLength="11003.4" font-size="787.402" lengthAdjust="spacingAndGlyphs"
text-anchor="start" opacity="0">File: AB MUTE.kicad_pcb</text>
<path d="M70446 73070
L70249 73070
" />
<path d="M70249 73380
L70249 72789
L70530 72789
" />
<path d="M70755 73380
L70755 72986
" />
<path d="M70755 72789
L70727 72817
L70755 72845
L70784 72817
L70755 72789
L70755 72845
" />
<path d="M71121 73380
L71065 73352
L71037 73295
L71037 72789
" />
<path d="M71571 73352
L71515 73380
L71402 73380
L71346 73352
L71318 73295
L71318 73070
L71346 73014
L71402 72986
L71515 72986
L71571 73014
L71599 73070
L71599 73127
L71318 73183
" />
<path d="M71852 73323
L71880 73352
L71852 73380
L71824 73352
L71852 73323
L71852 73380
" />
<path d="M71852 73014
L71880 73042
L71852 73070
L71824 73042
L71852 73014
L71852 73070
" />
<path d="M72555 73211
L72836 73211
" />
<path d="M72499 73380
L72696 72789
L72893 73380
" />
<path d="M73286 73070
L73371 73099
L73399 73127
L73427 73183
L73427 73267
L73399 73323
L73371 73352
L73314 73380
L73090 73380
L73090 72789
L73286 72789
L73343 72817
L73371 72845
L73399 72902
L73399 72958
L73371 73014
L73343 73042
L73286 73070
L73090 73070
" />
<path d="M74130 73380
L74130 72789
L74327 73211
L74524 72789
L74524 73380
" />
<path d="M74805 72789
L74805 73267
L74833 73323
L74861 73352
L74917 73380
L75030 73380
L75086 73352
L75114 73323
L75142 73267
L75142 72789
" />
<path d="M75339 72789
L75677 72789
" />
<path d="M75508 73380
L75508 72789
" />
<path d="M75874 73070
L76070 73070
" />
<path d="M76155 73380
L75874 73380
L75874 72789
L76155 72789
" />
<path d="M76408 73323
L76436 73352
L76408 73380
L76380 73352
L76408 73323
L76408 73380
" />
<path d="M76689 73380
L76689 72789
" />
<path d="M76745 73155
L76914 73380
" />
<path d="M76914 72986
L76689 73211
" />
<path d="M77167 73380
L77167 72986
" />
<path d="M77167 72789
L77139 72817
L77167 72845
L77195 72817
L77167 72789
L77167 72845
" />
<path d="M77701 73352
L77645 73380
L77533 73380
L77476 73352
L77448 73323
L77420 73267
L77420 73099
L77448 73042
L77476 73014
L77533 72986
L77645 72986
L77701 73014
" />
<path d="M78208 73380
L78208 73070
L78180 73014
L78123 72986
L78011 72986
L77955 73014
" />
<path d="M78208 73352
L78151 73380
L78011 73380
L77955 73352
L77926 73295
L77926 73239
L77955 73183
L78011 73155
L78151 73155
L78208 73127
" />
<path d="M78742 73380
L78742 72789
" />
<path d="M78742 73352
L78686 73380
L78573 73380
L78517 73352
L78489 73323
L78461 73267
L78461 73099
L78489 73042
L78517 73014
L78573 72986
L78686 72986
L78742 73014
" />
<path d="M78883 73436
L79332 73436
" />
<path d="M79473 72986
L79473 73577
" />
<path d="M79473 73014
L79529 72986
L79642 72986
L79698 73014
L79726 73042
L79754 73099
L79754 73267
L79726 73323
L79698 73352
L79642 73380
L79529 73380
L79473 73352
" />
<path d="M80260 73352
L80204 73380
L80092 73380
L80036 73352
L80007 73323
L79979 73267
L79979 73099
L80007 73042
L80036 73014
L80092 72986
L80204 72986
L80260 73014
" />
<path d="M80514 73380
L80514 72789
" />
<path d="M80514 73014
L80570 72986
L80682 72986
L80739 73014
L80767 73042
L80795 73099
L80795 73267
L80767 73323
L80739 73352
L80682 73380
L80570 73380
L80514 73352
" />
</g>
<g style="fill:#000000; fill-opacity:0.0; 
stroke:#000000; stroke-width:39.3701; stroke-opacity:1; 
stroke-linecap:round; stroke-linejoin:round;">
</g>
<g style="fill:#000000; fill-opacity:0.0; 
stroke:#000000; stroke-width:59.0551; stroke-opacity:1; 
stroke-linecap:round; stroke-linejoin:round;">
<path d="M69685 71459
L112205 71459
" />
</g>
<g style="fill:#000000; fill-opacity:0.0; 
stroke:#000000; stroke-width:39.3701; stroke-opacity:1; 
stroke-linecap:round; stroke-linejoin:round;">
</g>
<g style="fill:#000000; fill-opacity:0.0; 
stroke:#000000; stroke-width:59.0551; stroke-opacity:1; 
stroke-linecap:round; stroke-linejoin:round;">
<text x="70079.6" y="72345.4"
textLength="3236.78" font-size="787.402" lengthAdjust="spacingAndGlyphs"
text-anchor="start" opacity="0">Sheet: </text>
<path d="M70221 72289
L70305 72317
L70446 72317
L70502 72289
L70530 72260
L70559 72204
L70559 72148
L70530 72092
L70502 72064
L70446 72036
L70334 72007
L70277 71979
L70249 71951
L70221 71895
L70221 71839
L70249 71782
L70277 71754
L70334 71726
L70474 71726
L70559 71754
" />
<path d="M70812 72317
L70812 71726
" />
<path d="M71065 72317
L71065 72007
L71037 71951
L70980 71923
L70896 71923
L70840 71951
L70812 71979
" />
<path d="M71571 72289
L71515 72317
L71402 72317
L71346 72289
L71318 72232
L71318 72007
L71346 71951
L71402 71923
L71515 71923
L71571 71951
L71599 72007
L71599 72064
L71318 72120
" />
<path d="M72077 72289
L72021 72317
L71908 72317
L71852 72289
L71824 72232
L71824 72007
L71852 71951
L71908 71923
L72021 71923
L72077 71951
L72105 72007
L72105 72064
L71824 72120
" />
<path d="M72274 71923
L72499 71923
" />
<path d="M72358 71726
L72358 72232
L72386 72289
L72443 72317
L72499 72317
" />
<path d="M72696 72260
L72724 72289
L72696 72317
L72668 72289
L72696 72260
L72696 72317
" />
<path d="M72696 71951
L72724 71979
L72696 72007
L72668 71979
L72696 71951
L72696 72007
" />
</g>
<g style="fill:#000000; fill-opacity:0.0; 
stroke:#000000; stroke-width:39.3701; stroke-opacity:1; 
stroke-linecap:round; stroke-linejoin:round;">
</g>
<g style="fill:#000000; fill-opacity:0.0; 
stroke:#000000; stroke-width:59.0551; stroke-opacity:1; 
stroke-linecap:round; stroke-linejoin:round;">
<path d="M77559 75396
L77559 76577
" />
</g>
<g style="fill:#000000; fill-opacity:0.0; 
stroke:#000000; stroke-width:39.3701; stroke-opacity:1; 
stroke-linecap:round; stroke-linejoin:round;">
</g>
<g style="fill:#000000; fill-opacity:0.0; 
stroke:#000000; stroke-width:59.0551; stroke-opacity:1; 
stroke-linecap:round; stroke-linejoin:round;">
<path d="M102756 75396
L102756 77955
" />
</g>
<g style="fill:#008484; fill-opacity:0.0; 
stroke:#008484; stroke-width:59.0551; stroke-opacity:1; 
stroke-linecap:round; stroke-linejoin:round;">
</g>
<g style="fill:#008484; fill-opacity:0.0; 
stroke:#008484; stroke-width:39.3701; stroke-opacity:1; 
stroke-linecap:round; stroke-linejoin:round;">
<path d="M53760 51637
L53760 51500
" />
<path d="M53908 51637
L53760 51637
" />
<path d="M58839 51637
L58681 51637
" />
<path d="M58839 51637
L58839 51490
" />
<path d="M58839 48862
L58839 49029
" />
<path d="M58839 48862
L58662 48862
" />
<path d="M53770 48862
L53947 48862
" />
<path d="M53760 48862
L53760 49029
" />
<path d="M53760 46537
L53760 46400
" />
<path d="M53908 46537
L53760 46537
" />
<path d="M58839 46537
L58681 46537
" />
<path d="M58839 46537
L58839 46390
" />
<path d="M58839 43762
L58839 43929
" />
<path d="M58839 43762
L58662 43762
" />
<path d="M53770 43762
L53947 43762
" />
<path d="M53760 43762
L53760 43929
" />
<path d="M53660 41587
L53660 41450
" />
<path d="M53808 41587
L53660 41587
" />
<path d="M58739 41587
L58581 41587
" />
<path d="M58739 41587
L58739 41440
" />
<path d="M58739 38812
L58739 38979
" />
<path d="M58739 38812
L58562 38812
" />
<path d="M53670 38812
L53847 38812
" />
<path d="M53660 38812
L53660 38979
" />
<path d="M53710 21537
L53710 21400
" />
<path d="M53858 21537
L53710 21537
" />
<path d="M58789 21537
L58631 21537
" />
<path d="M58789 21537
L58789 21390
" />
<path d="M58789 18762
L58789 18929
" />
<path d="M58789 18762
L58612 18762
" />
<path d="M53720 18762
L53897 18762
" />
<path d="M53710 18762
L53710 18929
" />
<path d="M53710 36537
L53710 36400
" />
<path d="M53858 36537
L53710 36537
" />
<path d="M58789 36537
L58631 36537
" />
<path d="M58789 36537
L58789 36390
" />
<path d="M58789 33762
L58789 33929
" />
<path d="M58789 33762
L58612 33762
" />
<path d="M53720 33762
L53897 33762
" />
<path d="M53710 33762
L53710 33929
" />
<path d="M53710 31637
L53710 31500
" />
<path d="M53858 31637
L53710 31637
" />
<path d="M58789 31637
L58631 31637
" />
<path d="M58789 31637
L58789 31490
" />
<path d="M58789 28862
L58789 29029
" />
<path d="M58789 28862
L58612 28862
" />
<path d="M53720 28862
L53897 28862
" />
<path d="M53710 28862
L53710 29029
" />
<path d="M53710 26437
L53710 26300
" />
<path d="M53858 26437
L53710 26437
" />
<path d="M58789 26437
L58631 26437
" />
<path d="M58789 26437
L58789 26290
" />
<path d="M58789 23662
L58789 23829
" />
<path d="M58789 23662
L58612 23662
" />
<path d="M53720 23662
L53897 23662
" />
<path d="M53710 23662
L53710 23829
" />
<path d="M53710 16337
L53710 16200
" />
<path d="M53858 16337
L53710 16337
" />
<path d="M58789 16337
L58631 16337
" />
<path d="M58789 16337
L58789 16190
" />
<path d="M58789 13562
L58789 13729
" />
<path d="M58789 13562
L58612 13562
" />
<path d="M53720 13562
L53897 13562
" />
<path d="M53710 13562
L53710 13729
" />
</g>
<g style="fill:#008484; fill-opacity:0.0; 
stroke:#008484; stroke-width:47.2441; stroke-opacity:1; 
stroke-linecap:round; stroke-linejoin:round;">
<path d="M57613 48085
L57613 48215
" />
<path d="M57613 48215
L55086 48215
" />
<path d="M55086 48215
L55086 48085
" />
<path d="M57613 47314
L57613 47184
" />
<path d="M57613 47184
L55086 47184
" />
<path d="M55086 47184
L55086 47314
" />
<path d="M57563 43035
L57563 43165
" />
<path d="M57563 43165
L55036 43165
" />
<path d="M55036 43165
L55036 43035
" />
<path d="M57563 42264
L57563 42134
" />
<path d="M57563 42134
L55036 42134
" />
<path d="M55036 42134
L55036 42264
" />
<path d="M57513 38035
L57513 38165
" />
<path d="M57513 38165
L54986 38165
" />
<path d="M54986 38165
L54986 38035
" />
<path d="M57513 37264
L57513 37134
" />
<path d="M57513 37134
L54986 37134
" />
<path d="M54986 37134
L54986 37264
" />
<path d="M57513 17985
L57513 18115
" />
<path d="M57513 18115
L54986 18115
" />
<path d="M54986 18115
L54986 17985
" />
<path d="M57513 17214
L57513 17084
" />
<path d="M57513 17084
L54986 17084
" />
<path d="M54986 17084
L54986 17214
" />
<path d="M57413 32935
L57413 33065
" />
<path d="M57413 33065
L54886 33065
" />
<path d="M54886 33065
L54886 32935
" />
<path d="M57413 32164
L57413 32034
" />
<path d="M57413 32034
L54886 32034
" />
<path d="M54886 32034
L54886 32164
" />
<path d="M57463 27785
L57463 27915
" />
<path d="M57463 27915
L54936 27915
" />
<path d="M54936 27915
L54936 27785
" />
<path d="M57463 27014
L57463 26884
" />
<path d="M57463 26884
L54936 26884
" />
<path d="M54936 26884
L54936 27014
" />
<path d="M57513 22935
L57513 23065
" />
<path d="M57513 23065
L54986 23065
" />
<path d="M54986 23065
L54986 22935
" />
<path d="M57513 22164
L57513 22034
" />
<path d="M57513 22034
L54986 22034
" />
<path d="M54986 22034
L54986 22164
" />
<path d="M57513 13435
L57513 13565
" />
<path d="M57513 13565
L54986 13565
" />
<path d="M54986 13565
L54986 13435
" />
<path d="M57513 12664
L57513 12534
" />
<path d="M57513 12534
L54986 12534
" />
<path d="M54986 12534
L54986 12664
" />
</g>
<g style="fill:#008484; fill-opacity:0.0; 
stroke:#008484; stroke-width:59.0551; stroke-opacity:1; 
stroke-linecap:round; stroke-linejoin:round;">
<path d="M73171 52690
L69628 52690
" />
<path d="M73171 48399
L69628 48399
" />
<path d="M73171 52690
L73171 48399
" />
<path d="M69628 52690
L69628 48399
" />
<circle cx="71400" cy="50250" r="708.661" /> 
<path d="M71400 50958
L71400 49541
" />
<path d="M72108 50250
L70691 50250
" />
<path d="M69628 42709
L73171 42709
" />
<path d="M69628 47000
L73171 47000
" />
<path d="M69628 42709
L69628 47000
" />
<path d="M73171 42709
L73171 47000
" />
<circle cx="71400" cy="45150" r="708.661" /> 
<path d="M71400 44441
L71400 45858
" />
<path d="M70691 45150
L72108 45150
" />
<path d="M73171 42621
L69628 42621
" />
<path d="M73171 38330
L69628 38330
" />
<path d="M73171 42621
L73171 38330
" />
<path d="M69628 42621
L69628 38330
" />
<circle cx="71400" cy="40180.7" r="708.661" /> 
<path d="M71400 40889
L71400 39472
" />
<path d="M72108 40180
L70691 40180
" />
<path d="M69421 52690
L65878 52690
" />
<path d="M69421 48399
L65878 48399
" />
<path d="M69421 52690
L69421 48399
" />
<path d="M65878 52690
L65878 48399
" />
<circle cx="67650" cy="50250" r="708.661" /> 
<path d="M67650 50958
L67650 49541
" />
<path d="M68358 50250
L66941 50250
" />
<path d="M65671 52690
L62128 52690
" />
<path d="M65671 48399
L62128 48399
" />
<path d="M65671 52690
L65671 48399
" />
<path d="M62128 52690
L62128 48399
" />
<circle cx="63900" cy="50250" r="708.661" /> 
<path d="M63900 50958
L63900 49541
" />
<path d="M64608 50250
L63191 50250
" />
<path d="M65878 42709
L69421 42709
" />
<path d="M65878 47000
L69421 47000
" />
<path d="M65878 42709
L65878 47000
" />
<path d="M69421 42709
L69421 47000
" />
<circle cx="67650" cy="45150" r="708.661" /> 
<path d="M67650 44441
L67650 45858
" />
<path d="M66941 45150
L68358 45150
" />
<path d="M62128 42709
L65671 42709
" />
<path d="M62128 47000
L65671 47000
" />
<path d="M62128 42709
L62128 47000
" />
<path d="M65671 42709
L65671 47000
" />
<circle cx="63900" cy="45150" r="708.661" /> 
<path d="M63900 44441
L63900 45858
" />
<path d="M63191 45150
L64608 45150
" />
<path d="M69421 42621
L65878 42621
" />
<path d="M69421 38330
L65878 38330
" />
<path d="M69421 42621
L69421 38330
" />
<path d="M65878 42621
L65878 38330
" />
<circle cx="67650" cy="40180.7" r="708.661" /> 
<path d="M67650 40889
L67650 39472
" />
<path d="M68358 40180
L66941 40180
" />
<path d="M65671 42621
L62128 42621
" />
<path d="M65671 38330
L62128 38330
" />
<path d="M65671 42621
L65671 38330
" />
<path d="M62128 42621
L62128 38330
" />
<circle cx="63900" cy="40180.7" r="708.661" /> 
<path d="M63900 40889
L63900 39472
" />
<path d="M64608 40180
L63191 40180
" />
<path d="M73171 22540
L69628 22540
" />
<path d="M73171 18249
L69628 18249
" />
<path d="M73171 22540
L73171 18249
" />
<path d="M69628 22540
L69628 18249
" />
<circle cx="71400" cy="20100" r="708.661" /> 
<path d="M71400 20808
L71400 19391
" />
<path d="M72108 20100
L70691 20100
" />
<path d="M69628 32659
L73171 32659
" />
<path d="M69628 36950
L73171 36950
" />
<path d="M69628 32659
L69628 36950
" />
<path d="M73171 32659
L73171 36950
" />
<circle cx="71400" cy="35100" r="708.661" /> 
<path d="M71400 34391
L71400 35808
" />
<path d="M70691 35100
L72108 35100
" />
<path d="M73171 32590
L69628 32590
" />
<path d="M73171 28299
L69628 28299
" />
<path d="M73171 32590
L73171 28299
" />
<path d="M69628 32590
L69628 28299
" />
<circle cx="71400" cy="30150" r="708.661" /> 
<path d="M71400 30858
L71400 29441
" />
<path d="M72108 30150
L70691 30150
" />
<path d="M69628 22609
L73171 22609
" />
<path d="M69628 26900
L73171 26900
" />
<path d="M69628 22609
L69628 26900
" />
<path d="M73171 22609
L73171 26900
" />
<circle cx="71400" cy="25050" r="708.661" /> 
<path d="M71400 24341
L71400 25758
" />
<path d="M70691 25050
L72108 25050
" />
<path d="M69421 22540
L65878 22540
" />
<path d="M69421 18249
L65878 18249
" />
<path d="M69421 22540
L69421 18249
" />
<path d="M65878 22540
L65878 18249
" />
<circle cx="67650" cy="20100" r="708.661" /> 
<path d="M67650 20808
L67650 19391
" />
<path d="M68358 20100
L66941 20100
" />
<path d="M65671 22540
L62128 22540
" />
<path d="M65671 18249
L62128 18249
" />
<path d="M65671 22540
L65671 18249
" />
<path d="M62128 22540
L62128 18249
" />
<circle cx="63900" cy="20100" r="708.661" /> 
<path d="M63900 20808
L63900 19391
" />
<path d="M64608 20100
L63191 20100
" />
<path d="M65878 32659
L69421 32659
" />
<path d="M65878 36950
L69421 36950
" />
<path d="M65878 32659
L65878 36950
" />
<path d="M69421 32659
L69421 36950
" />
<circle cx="67650" cy="35100" r="708.661" /> 
<path d="M67650 34391
L67650 35808
" />
<path d="M66941 35100
L68358 35100
" />
<path d="M62128 32659
L65671 32659
" />
<path d="M62128 36950
L65671 36950
" />
<path d="M62128 32659
L62128 36950
" />
<path d="M65671 32659
L65671 36950
" />
<circle cx="63900" cy="35100" r="708.661" /> 
<path d="M63900 34391
L63900 35808
" />
<path d="M63191 35100
L64608 35100
" />
<path d="M69421 32590
L65878 32590
" />
<path d="M69421 28299
L65878 28299
" />
<path d="M69421 32590
L69421 28299
" />
<path d="M65878 32590
L65878 28299
" />
<circle cx="67650" cy="30150" r="708.661" /> 
<path d="M67650 30858
L67650 29441
" />
<path d="M68358 30150
L66941 30150
" />
<path d="M65671 32590
L62128 32590
" />
<path d="M65671 28299
L62128 28299
" />
<path d="M65671 32590
L65671 28299
" />
<path d="M62128 32590
L62128 28299
" />
<circle cx="63900" cy="30150" r="708.661" /> 
<path d="M63900 30858
L63900 29441
" />
<path d="M64608 30150
L63191 30150
" />
<path d="M65878 22609
L69421 22609
" />
<path d="M65878 26900
L69421 26900
" />
<path d="M65878 22609
L65878 26900
" />
<path d="M69421 22609
L69421 26900
" />
<circle cx="67650" cy="25050" r="708.661" /> 
<path d="M67650 24341
L67650 25758
" />
<path d="M66941 25050
L68358 25050
" />
<path d="M62128 22609
L65671 22609
" />
<path d="M62128 26900
L65671 26900
" />
<path d="M62128 22609
L62128 26900
" />
<path d="M65671 22609
L65671 26900
" />
<circle cx="63900" cy="25050" r="708.661" /> 
<path d="M63900 24341
L63900 25758
" />
<path d="M63191 25050
L64608 25050
" />
<path d="M69628 12559
L73171 12559
" />
<path d="M69628 16850
L73171 16850
" />
<path d="M69628 12559
L69628 16850
" />
<path d="M73171 12559
L73171 16850
" />
<circle cx="71400" cy="15000" r="708.661" /> 
<path d="M71400 14291
L71400 15708
" />
<path d="M70691 15000
L72108 15000
" />
<path d="M65878 12559
L69421 12559
" />
<path d="M65878 16850
L69421 16850
" />
<path d="M65878 12559
L65878 16850
" />
<path d="M69421 12559
L69421 16850
" />
<circle cx="67650" cy="15000" r="708.661" /> 
<path d="M67650 14291
L67650 15708
" />
<path d="M66941 15000
L68358 15000
" />
<path d="M62128 12559
L65671 12559
" />
<path d="M62128 16850
L65671 16850
" />
<path d="M62128 12559
L62128 16850
" />
<path d="M65671 12559
L65671 16850
" />
<circle cx="63900" cy="15000" r="708.661" /> 
<path d="M63900 14291
L63900 15708
" />
<path d="M63191 15000
L64608 15000
" />
</g>
<g style="fill:#008484; fill-opacity:0.0; 
stroke:#008484; stroke-width:47.2441; stroke-opacity:1; 
stroke-linecap:round; stroke-linejoin:round;">
<path d="M59246 51547
L59194 51547
" />
<path d="M59194 51547
L59194 49452
" />
<path d="M59194 49452
L59246 49452
" />
<path d="M60253 51547
L60305 51547
" />
<path d="M60305 51547
L60305 49452
" />
<path d="M60305 49452
L60253 49452
" />
<path d="M59194 51216
L60305 51216
" />
<path d="M60746 51547
L60694 51547
" />
<path d="M60694 51547
L60694 49452
" />
<path d="M60694 49452
L60746 49452
" />
<path d="M61753 51547
L61805 51547
" />
<path d="M61805 51547
L61805 49452
" />
<path d="M61805 49452
L61753 49452
" />
<path d="M60694 51216
L61805 51216
" />
<path d="M59246 45897
L59194 45897
" />
<path d="M59194 45897
L59194 43802
" />
<path d="M59194 43802
L59246 43802
" />
<path d="M60253 45897
L60305 45897
" />
<path d="M60305 45897
L60305 43802
" />
<path d="M60305 43802
L60253 43802
" />
<path d="M59194 45566
L60305 45566
" />
<path d="M60746 45897
L60694 45897
" />
<path d="M60694 45897
L60694 43802
" />
<path d="M60694 43802
L60746 43802
" />
<path d="M61753 45897
L61805 45897
" />
<path d="M61805 45897
L61805 43802
" />
<path d="M61805 43802
L61753 43802
" />
<path d="M60694 45566
L61805 45566
" />
<path d="M59246 41497
L59194 41497
" />
<path d="M59194 41497
L59194 39402
" />
<path d="M59194 39402
L59246 39402
" />
<path d="M60253 41497
L60305 41497
" />
<path d="M60305 41497
L60305 39402
" />
<path d="M60305 39402
L60253 39402
" />
<path d="M59194 41166
L60305 41166
" />
<path d="M60746 41497
L60694 41497
" />
<path d="M60694 41497
L60694 39402
" />
<path d="M60694 39402
L60746 39402
" />
<path d="M61753 41497
L61805 41497
" />
<path d="M61805 41497
L61805 39402
" />
<path d="M61805 39402
L61753 39402
" />
<path d="M60694 41166
L61805 41166
" />
<path d="M59196 21447
L59144 21447
" />
<path d="M59144 21447
L59144 19352
" />
<path d="M59144 19352
L59196 19352
" />
<path d="M60203 21447
L60255 21447
" />
<path d="M60255 21447
L60255 19352
" />
<path d="M60255 19352
L60203 19352
" />
<path d="M59144 21116
L60255 21116
" />
<path d="M60746 21447
L60694 21447
" />
<path d="M60694 21447
L60694 19352
" />
<path d="M60694 19352
L60746 19352
" />
<path d="M61753 21447
L61805 21447
" />
<path d="M61805 21447
L61805 19352
" />
<path d="M61805 19352
L61753 19352
" />
<path d="M60694 21116
L61805 21116
" />
<path d="M59246 35847
L59194 35847
" />
<path d="M59194 35847
L59194 33752
" />
<path d="M59194 33752
L59246 33752
" />
<path d="M60253 35847
L60305 35847
" />
<path d="M60305 35847
L60305 33752
" />
<path d="M60305 33752
L60253 33752
" />
<path d="M59194 35516
L60305 35516
" />
<path d="M60746 35847
L60694 35847
" />
<path d="M60694 35847
L60694 33752
" />
<path d="M60694 33752
L60746 33752
" />
<path d="M61753 35847
L61805 35847
" />
<path d="M61805 35847
L61805 33752
" />
<path d="M61805 33752
L61753 33752
" />
<path d="M60694 35516
L61805 35516
" />
<path d="M59246 31497
L59194 31497
" />
<path d="M59194 31497
L59194 29402
" />
<path d="M59194 29402
L59246 29402
" />
<path d="M60253 31497
L60305 31497
" />
<path d="M60305 31497
L60305 29402
" />
<path d="M60305 29402
L60253 29402
" />
<path d="M59194 31166
L60305 31166
" />
<path d="M60746 31497
L60694 31497
" />
<path d="M60694 31497
L60694 29402
" />
<path d="M60694 29402
L60746 29402
" />
<path d="M61753 31497
L61805 31497
" />
<path d="M61805 31497
L61805 29402
" />
<path d="M61805 29402
L61753 29402
" />
<path d="M60694 31166
L61805 31166
" />
<path d="M59196 25797
L59144 25797
" />
<path d="M59144 25797
L59144 23702
" />
<path d="M59144 23702
L59196 23702
" />
<path d="M60203 25797
L60255 25797
" />
<path d="M60255 25797
L60255 23702
" />
<path d="M60255 23702
L60203 23702
" />
<path d="M59144 25466
L60255 25466
" />
<path d="M60746 25797
L60694 25797
" />
<path d="M60694 25797
L60694 23702
" />
<path d="M60694 23702
L60746 23702
" />
<path d="M61753 25797
L61805 25797
" />
<path d="M61805 25797
L61805 23702
" />
<path d="M61805 23702
L61753 23702
" />
<path d="M60694 25466
L61805 25466
" />
<path d="M59246 15747
L59194 15747
" />
<path d="M59194 15747
L59194 13652
" />
<path d="M59194 13652
L59246 13652
" />
<path d="M60253 15747
L60305 15747
" />
<path d="M60305 15747
L60305 13652
" />
<path d="M60305 13652
L60253 13652
" />
<path d="M59194 15416
L60305 15416
" />
<path d="M60746 15747
L60694 15747
" />
<path d="M60694 15747
L60694 13652
" />
<path d="M60694 13652
L60746 13652
" />
<path d="M61753 15747
L61805 15747
" />
<path d="M61805 15747
L61805 13652
" />
<path d="M61805 13652
L61753 13652
" />
<path d="M60694 15416
L61805 15416
" />
</g>
<g style="fill:#008484; fill-opacity:0.0; 
stroke:#008484; stroke-width:59.0551; stroke-opacity:1; 
stroke-linecap:round; stroke-linejoin:round;">
<text x="56244.9" y="52238.2"
textLength="1258.91" font-size="524.934" lengthAdjust="spacingAndGlyphs"
text-anchor="middle" opacity="0">SW8</text>
<path d="M55719 52200
L55776 52219
L55869 52219
L55907 52200
L55926 52181
L55944 52144
L55944 52106
L55926 52069
L55907 52050
L55869 52031
L55794 52013
L55757 51994
L55738 51975
L55719 51938
L55719 51900
L55738 51863
L55757 51844
L55794 51825
L55888 51825
L55944 51844
" />
<path d="M56076 51825
L56169 52219
L56244 51938
L56319 52219
L56413 51825
" />
<path d="M56619 51994
L56582 51975
L56563 51956
L56544 51919
L56544 51900
L56563 51863
L56582 51844
L56619 51825
L56694 51825
L56732 51844
L56751 51863
L56769 51900
L56769 51919
L56751 51956
L56732 51975
L56694 51994
L56619 51994
L56582 52013
L56563 52031
L56544 52069
L56544 52144
L56563 52181
L56582 52200
L56619 52219
L56694 52219
L56732 52200
L56751 52181
L56769 52144
L56769 52069
L56751 52031
L56732 52013
L56694 51994
" />
<text x="56244.9" y="47138.2"
textLength="1276.62" font-size="524.934" lengthAdjust="spacingAndGlyphs"
text-anchor="middle" opacity="0">SW7</text>
<path d="M55719 47100
L55776 47119
L55869 47119
L55907 47100
L55926 47081
L55944 47044
L55944 47006
L55926 46969
L55907 46950
L55869 46931
L55794 46913
L55757 46894
L55738 46875
L55719 46838
L55719 46800
L55738 46763
L55757 46744
L55794 46725
L55888 46725
L55944 46744
" />
<path d="M56076 46725
L56169 47119
L56244 46838
L56319 47119
L56413 46725
" />
<path d="M56526 46725
L56788 46725
L56619 47119
" />
<text x="56144.9" y="42188.2"
textLength="1276.62" font-size="524.934" lengthAdjust="spacingAndGlyphs"
text-anchor="middle" opacity="0">SW6</text>
<path d="M55619 42150
L55676 42169
L55769 42169
L55807 42150
L55826 42131
L55844 42094
L55844 42056
L55826 42019
L55807 42000
L55769 41981
L55694 41963
L55657 41944
L55638 41925
L55619 41888
L55619 41850
L55638 41813
L55657 41794
L55694 41775
L55788 41775
L55844 41794
" />
<path d="M55976 41775
L56069 42169
L56144 41888
L56219 42169
L56313 41775
" />
<path d="M56632 41775
L56557 41775
L56519 41794
L56501 41813
L56463 41869
L56444 41944
L56444 42094
L56463 42131
L56482 42150
L56519 42169
L56594 42169
L56632 42150
L56651 42131
L56669 42094
L56669 42000
L56651 41963
L56632 41944
L56594 41925
L56519 41925
L56482 41944
L56463 41963
L56444 42000
" />
<text x="56194.9" y="22138.2"
textLength="1276.62" font-size="524.934" lengthAdjust="spacingAndGlyphs"
text-anchor="middle" opacity="0">SW5</text>
<path d="M55669 22100
L55726 22119
L55819 22119
L55857 22100
L55876 22081
L55894 22044
L55894 22006
L55876 21969
L55857 21950
L55819 21931
L55744 21913
L55707 21894
L55688 21875
L55669 21838
L55669 21800
L55688 21763
L55707 21744
L55744 21725
L55838 21725
L55894 21744
" />
<path d="M56026 21725
L56119 22119
L56194 21838
L56269 22119
L56363 21725
" />
<path d="M56701 21725
L56513 21725
L56494 21913
L56513 21894
L56551 21875
L56644 21875
L56682 21894
L56701 21913
L56719 21950
L56719 22044
L56701 22081
L56682 22100
L56644 22119
L56551 22119
L56513 22100
L56494 22081
" />
<text x="56194.9" y="37138.2"
textLength="1276.62" font-size="524.934" lengthAdjust="spacingAndGlyphs"
text-anchor="middle" opacity="0">SW4</text>
<path d="M55669 37100
L55726 37119
L55819 37119
L55857 37100
L55876 37081
L55894 37044
L55894 37006
L55876 36969
L55857 36950
L55819 36931
L55744 36913
L55707 36894
L55688 36875
L55669 36838
L55669 36800
L55688 36763
L55707 36744
L55744 36725
L55838 36725
L55894 36744
" />
<path d="M56026 36725
L56119 37119
L56194 36838
L56269 37119
L56363 36725
" />
<path d="M56682 36856
L56682 37119
" />
<path d="M56588 36706
L56494 36988
L56738 36988
" />
<text x="56194.9" y="32238.2"
textLength="1276.62" font-size="524.934" lengthAdjust="spacingAndGlyphs"
text-anchor="middle" opacity="0">SW3</text>
<path d="M55669 32200
L55726 32219
L55819 32219
L55857 32200
L55876 32181
L55894 32144
L55894 32106
L55876 32069
L55857 32050
L55819 32031
L55744 32013
L55707 31994
L55688 31975
L55669 31938
L55669 31900
L55688 31863
L55707 31844
L55744 31825
L55838 31825
L55894 31844
" />
<path d="M56026 31825
L56119 32219
L56194 31938
L56269 32219
L56363 31825
" />
<path d="M56476 31825
L56719 31825
L56588 31975
L56644 31975
L56682 31994
L56701 32013
L56719 32050
L56719 32144
L56701 32181
L56682 32200
L56644 32219
L56532 32219
L56494 32200
L56476 32181
" />
<text x="56194.9" y="27038.2"
textLength="1276.62" font-size="524.934" lengthAdjust="spacingAndGlyphs"
text-anchor="middle" opacity="0">SW2</text>
<path d="M55669 27000
L55726 27019
L55819 27019
L55857 27000
L55876 26981
L55894 26944
L55894 26906
L55876 26869
L55857 26850
L55819 26831
L55744 26813
L55707 26794
L55688 26775
L55669 26738
L55669 26700
L55688 26663
L55707 26644
L55744 26625
L55838 26625
L55894 26644
" />
<path d="M56026 26625
L56119 27019
L56194 26738
L56269 27019
L56363 26625
" />
<path d="M56494 26663
L56513 26644
L56551 26625
L56644 26625
L56682 26644
L56701 26663
L56719 26700
L56719 26738
L56701 26794
L56476 27019
L56719 27019
" />
<text x="56194.9" y="16938.2"
textLength="1276.62" font-size="524.934" lengthAdjust="spacingAndGlyphs"
text-anchor="middle" opacity="0">SW1</text>
<path d="M55669 16900
L55726 16919
L55819 16919
L55857 16900
L55876 16881
L55894 16844
L55894 16806
L55876 16769
L55857 16750
L55819 16731
L55744 16713
L55707 16694
L55688 16675
L55669 16638
L55669 16600
L55688 16563
L55707 16544
L55744 16525
L55838 16525
L55894 16544
" />
<path d="M56026 16525
L56119 16919
L56194 16638
L56269 16919
L56363 16525
" />
<path d="M56719 16919
L56494 16919
" />
<path d="M56607 16919
L56607 16525
L56569 16581
L56532 16619
L56494 16638
" />
<text x="56350" y="48806.3"
textLength="845.426" font-size="524.934" lengthAdjust="spacingAndGlyphs"
text-anchor="middle" opacity="0">R8</text>
<path d="M56284 48787
L56153 48600
" />
<path d="M56059 48787
L56059 48393
L56209 48393
L56246 48412
L56265 48431
L56284 48468
L56284 48525
L56265 48562
L56246 48581
L56209 48600
L56059 48600
" />
<path d="M56509 48562
L56471 48543
L56453 48525
L56434 48487
L56434 48468
L56453 48431
L56471 48412
L56509 48393
L56584 48393
L56621 48412
L56640 48431
L56659 48468
L56659 48487
L56640 48525
L56621 48543
L56584 48562
L56509 48562
L56471 48581
L56453 48600
L56434 48637
L56434 48712
L56453 48750
L56471 48768
L56509 48787
L56584 48787
L56621 48768
L56640 48750
L56659 48712
L56659 48637
L56640 48600
L56621 48581
L56584 48562
" />
<text x="56300" y="43756.3"
textLength="845.426" font-size="524.934" lengthAdjust="spacingAndGlyphs"
text-anchor="middle" opacity="0">R7</text>
<path d="M56234 43737
L56103 43550
" />
<path d="M56009 43737
L56009 43343
L56159 43343
L56196 43362
L56215 43381
L56234 43418
L56234 43475
L56215 43512
L56196 43531
L56159 43550
L56009 43550
" />
<path d="M56365 43343
L56628 43343
L56459 43737
" />
<text x="56250" y="38756.3"
textLength="845.426" font-size="524.934" lengthAdjust="spacingAndGlyphs"
text-anchor="middle" opacity="0">R6</text>
<path d="M56184 38737
L56053 38550
" />
<path d="M55959 38737
L55959 38343
L56109 38343
L56146 38362
L56165 38381
L56184 38418
L56184 38475
L56165 38512
L56146 38531
L56109 38550
L55959 38550
" />
<path d="M56521 38343
L56446 38343
L56409 38362
L56390 38381
L56353 38437
L56334 38512
L56334 38662
L56353 38700
L56371 38718
L56409 38737
L56484 38737
L56521 38718
L56540 38700
L56559 38662
L56559 38568
L56540 38531
L56521 38512
L56484 38493
L56409 38493
L56371 38512
L56353 38531
L56334 38568
" />
<text x="56250" y="18706.3"
textLength="845.426" font-size="524.934" lengthAdjust="spacingAndGlyphs"
text-anchor="middle" opacity="0">R5</text>
<path d="M56184 18687
L56053 18500
" />
<path d="M55959 18687
L55959 18293
L56109 18293
L56146 18312
L56165 18331
L56184 18368
L56184 18425
L56165 18462
L56146 18481
L56109 18500
L55959 18500
" />
<path d="M56540 18293
L56353 18293
L56334 18481
L56353 18462
L56390 18443
L56484 18443
L56521 18462
L56540 18481
L56559 18518
L56559 18612
L56540 18650
L56521 18668
L56484 18687
L56390 18687
L56353 18668
L56334 18650
" />
<text x="56150" y="33656.3"
textLength="845.426" font-size="524.934" lengthAdjust="spacingAndGlyphs"
text-anchor="middle" opacity="0">R4</text>
<path d="M56084 33637
L55953 33450
" />
<path d="M55859 33637
L55859 33243
L56009 33243
L56046 33262
L56065 33281
L56084 33318
L56084 33375
L56065 33412
L56046 33431
L56009 33450
L55859 33450
" />
<path d="M56421 33375
L56421 33637
" />
<path d="M56328 33225
L56234 33506
L56478 33506
" />
<text x="56200" y="28506.3"
textLength="845.426" font-size="524.934" lengthAdjust="spacingAndGlyphs"
text-anchor="middle" opacity="0">R3</text>
<path d="M56134 28487
L56003 28300
" />
<path d="M55909 28487
L55909 28093
L56059 28093
L56096 28112
L56115 28131
L56134 28168
L56134 28225
L56115 28262
L56096 28281
L56059 28300
L55909 28300
" />
<path d="M56265 28093
L56509 28093
L56378 28243
L56434 28243
L56471 28262
L56490 28281
L56509 28318
L56509 28412
L56490 28450
L56471 28468
L56434 28487
L56321 28487
L56284 28468
L56265 28450
" />
<text x="56250" y="23656.3"
textLength="845.426" font-size="524.934" lengthAdjust="spacingAndGlyphs"
text-anchor="middle" opacity="0">R2</text>
<path d="M56184 23637
L56053 23450
" />
<path d="M55959 23637
L55959 23243
L56109 23243
L56146 23262
L56165 23281
L56184 23318
L56184 23375
L56165 23412
L56146 23431
L56109 23450
L55959 23450
" />
<path d="M56334 23281
L56353 23262
L56390 23243
L56484 23243
L56521 23262
L56540 23281
L56559 23318
L56559 23356
L56540 23412
L56315 23637
L56559 23637
" />
<text x="56250" y="14156.3"
textLength="845.426" font-size="524.934" lengthAdjust="spacingAndGlyphs"
text-anchor="middle" opacity="0">R1</text>
<path d="M56184 14137
L56053 13950
" />
<path d="M55959 14137
L55959 13743
L56109 13743
L56146 13762
L56165 13781
L56184 13818
L56184 13875
L56165 13912
L56146 13931
L56109 13950
L55959 13950
" />
<path d="M56559 14137
L56334 14137
" />
<path d="M56446 14137
L56446 13743
L56409 13800
L56371 13837
L56334 13856
" />
<text x="69800" y="48246.9"
textLength="1126.64" font-size="524.934" lengthAdjust="spacingAndGlyphs"
text-anchor="middle" opacity="0">J24</text>
<path d="M69481 47834
L69481 48115
L69462 48171
L69425 48209
L69368 48228
L69331 48228
" />
<path d="M69650 47871
L69668 47853
L69706 47834
L69800 47834
L69837 47853
L69856 47871
L69874 47909
L69874 47946
L69856 48003
L69631 48228
L69874 48228
" />
<path d="M70212 47965
L70212 48228
" />
<path d="M70118 47815
L70024 48096
L70268 48096
" />
<text x="73000" y="47546.9"
textLength="1126.64" font-size="524.934" lengthAdjust="spacingAndGlyphs"
text-anchor="middle" opacity="0">J23</text>
<path d="M72681 47134
L72681 47415
L72662 47471
L72625 47509
L72568 47528
L72531 47528
" />
<path d="M72850 47171
L72868 47153
L72906 47134
L73000 47134
L73037 47153
L73056 47171
L73074 47209
L73074 47246
L73056 47303
L72831 47528
L73074 47528
" />
<path d="M73206 47134
L73449 47134
L73318 47284
L73374 47284
L73412 47303
L73431 47321
L73449 47359
L73449 47453
L73431 47490
L73412 47509
L73374 47528
L73262 47528
L73224 47509
L73206 47490
" />
<text x="69800" y="38177.6"
textLength="1126.64" font-size="524.934" lengthAdjust="spacingAndGlyphs"
text-anchor="middle" opacity="0">J22</text>
<path d="M69481 37765
L69481 38046
L69462 38102
L69425 38140
L69368 38158
L69331 38158
" />
<path d="M69650 37802
L69668 37783
L69706 37765
L69800 37765
L69837 37783
L69856 37802
L69874 37840
L69874 37877
L69856 37933
L69631 38158
L69874 38158
" />
<path d="M70024 37802
L70043 37783
L70081 37765
L70174 37765
L70212 37783
L70231 37802
L70249 37840
L70249 37877
L70231 37933
L70006 38158
L70249 38158
" />
<text x="66050" y="48246.9"
textLength="1126.64" font-size="524.934" lengthAdjust="spacingAndGlyphs"
text-anchor="middle" opacity="0">J21</text>
<path d="M65731 47834
L65731 48115
L65712 48171
L65675 48209
L65618 48228
L65581 48228
" />
<path d="M65900 47871
L65918 47853
L65956 47834
L66050 47834
L66087 47853
L66106 47871
L66124 47909
L66124 47946
L66106 48003
L65881 48228
L66124 48228
" />
<path d="M66499 48228
L66274 48228
" />
<path d="M66387 48228
L66387 47834
L66349 47890
L66312 47928
L66274 47946
" />
<text x="62300" y="48246.9"
textLength="1126.64" font-size="524.934" lengthAdjust="spacingAndGlyphs"
text-anchor="middle" opacity="0">J20</text>
<path d="M61981 47834
L61981 48115
L61962 48171
L61925 48209
L61868 48228
L61831 48228
" />
<path d="M62150 47871
L62168 47853
L62206 47834
L62300 47834
L62337 47853
L62356 47871
L62374 47909
L62374 47946
L62356 48003
L62131 48228
L62374 48228
" />
<path d="M62618 47834
L62656 47834
L62693 47853
L62712 47871
L62731 47909
L62749 47984
L62749 48078
L62731 48153
L62712 48190
L62693 48209
L62656 48228
L62618 48228
L62581 48209
L62562 48190
L62543 48153
L62524 48078
L62524 47984
L62543 47909
L62562 47871
L62581 47853
L62618 47834
" />
<text x="69250" y="47546.9"
textLength="1126.64" font-size="524.934" lengthAdjust="spacingAndGlyphs"
text-anchor="middle" opacity="0">J19</text>
<path d="M68931 47134
L68931 47415
L68912 47471
L68875 47509
L68818 47528
L68781 47528
" />
<path d="M69324 47528
L69100 47528
" />
<path d="M69212 47528
L69212 47134
L69175 47190
L69137 47228
L69100 47246
" />
<path d="M69512 47528
L69587 47528
L69624 47509
L69643 47490
L69681 47434
L69699 47359
L69699 47209
L69681 47171
L69662 47153
L69624 47134
L69549 47134
L69512 47153
L69493 47171
L69474 47209
L69474 47303
L69493 47340
L69512 47359
L69549 47378
L69624 47378
L69662 47359
L69681 47340
L69699 47303
" />
<text x="65500" y="47546.9"
textLength="1126.64" font-size="524.934" lengthAdjust="spacingAndGlyphs"
text-anchor="middle" opacity="0">J18</text>
<path d="M65181 47134
L65181 47415
L65162 47471
L65125 47509
L65068 47528
L65031 47528
" />
<path d="M65574 47528
L65350 47528
" />
<path d="M65462 47528
L65462 47134
L65425 47190
L65387 47228
L65350 47246
" />
<path d="M65799 47303
L65762 47284
L65743 47265
L65724 47228
L65724 47209
L65743 47171
L65762 47153
L65799 47134
L65874 47134
L65912 47153
L65931 47171
L65949 47209
L65949 47228
L65931 47265
L65912 47284
L65874 47303
L65799 47303
L65762 47321
L65743 47340
L65724 47378
L65724 47453
L65743 47490
L65762 47509
L65799 47528
L65874 47528
L65912 47509
L65931 47490
L65949 47453
L65949 47378
L65931 47340
L65912 47321
L65874 47303
" />
<text x="66050" y="38177.6"
textLength="1126.64" font-size="524.934" lengthAdjust="spacingAndGlyphs"
text-anchor="middle" opacity="0">J17</text>
<path d="M65731 37765
L65731 38046
L65712 38102
L65675 38140
L65618 38158
L65581 38158
" />
<path d="M66124 38158
L65900 38158
" />
<path d="M66012 38158
L66012 37765
L65975 37821
L65937 37858
L65900 37877
" />
<path d="M66256 37765
L66518 37765
L66349 38158
" />
<text x="62300" y="38177.6"
textLength="1126.64" font-size="524.934" lengthAdjust="spacingAndGlyphs"
text-anchor="middle" opacity="0">J16</text>
<path d="M61981 37765
L61981 38046
L61962 38102
L61925 38140
L61868 38158
L61831 38158
" />
<path d="M62374 38158
L62150 38158
" />
<path d="M62262 38158
L62262 37765
L62225 37821
L62187 37858
L62150 37877
" />
<path d="M62712 37765
L62637 37765
L62599 37783
L62581 37802
L62543 37858
L62524 37933
L62524 38083
L62543 38121
L62562 38140
L62599 38158
L62674 38158
L62712 38140
L62731 38121
L62749 38083
L62749 37990
L62731 37952
L62712 37933
L62674 37915
L62599 37915
L62562 37933
L62543 37952
L62524 37990
" />
<text x="69800" y="18096.9"
textLength="1126.64" font-size="524.934" lengthAdjust="spacingAndGlyphs"
text-anchor="middle" opacity="0">J15</text>
<path d="M69481 17684
L69481 17965
L69462 18021
L69425 18059
L69368 18078
L69331 18078
" />
<path d="M69874 18078
L69650 18078
" />
<path d="M69762 18078
L69762 17684
L69725 17740
L69687 17778
L69650 17796
" />
<path d="M70231 17684
L70043 17684
L70024 17871
L70043 17853
L70081 17834
L70174 17834
L70212 17853
L70231 17871
L70249 17909
L70249 18003
L70231 18040
L70212 18059
L70174 18078
L70081 18078
L70043 18059
L70024 18040
" />
<text x="73000" y="37496.9"
textLength="1126.64" font-size="524.934" lengthAdjust="spacingAndGlyphs"
text-anchor="middle" opacity="0">J14</text>
<path d="M72681 37084
L72681 37365
L72662 37421
L72625 37459
L72568 37478
L72531 37478
" />
<path d="M73074 37478
L72850 37478
" />
<path d="M72962 37478
L72962 37084
L72925 37140
L72887 37178
L72850 37196
" />
<path d="M73412 37215
L73412 37478
" />
<path d="M73318 37065
L73224 37346
L73468 37346
" />
<text x="69800" y="28146.9"
textLength="1126.64" font-size="524.934" lengthAdjust="spacingAndGlyphs"
text-anchor="middle" opacity="0">J13</text>
<path d="M69481 27734
L69481 28015
L69462 28071
L69425 28109
L69368 28128
L69331 28128
" />
<path d="M69874 28128
L69650 28128
" />
<path d="M69762 28128
L69762 27734
L69725 27790
L69687 27828
L69650 27846
" />
<path d="M70006 27734
L70249 27734
L70118 27884
L70174 27884
L70212 27903
L70231 27921
L70249 27959
L70249 28053
L70231 28090
L70212 28109
L70174 28128
L70062 28128
L70024 28109
L70006 28090
" />
<text x="73000" y="27446.9"
textLength="1126.64" font-size="524.934" lengthAdjust="spacingAndGlyphs"
text-anchor="middle" opacity="0">J12</text>
<path d="M72681 27034
L72681 27315
L72662 27371
L72625 27409
L72568 27428
L72531 27428
" />
<path d="M73074 27428
L72850 27428
" />
<path d="M72962 27428
L72962 27034
L72925 27090
L72887 27128
L72850 27146
" />
<path d="M73224 27071
L73243 27053
L73281 27034
L73374 27034
L73412 27053
L73431 27071
L73449 27109
L73449 27146
L73431 27203
L73206 27428
L73449 27428
" />
<text x="66050" y="18096.9"
textLength="1126.64" font-size="524.934" lengthAdjust="spacingAndGlyphs"
text-anchor="middle" opacity="0">J11</text>
<path d="M65731 17684
L65731 17965
L65712 18021
L65675 18059
L65618 18078
L65581 18078
" />
<path d="M66124 18078
L65900 18078
" />
<path d="M66012 18078
L66012 17684
L65975 17740
L65937 17778
L65900 17796
" />
<path d="M66499 18078
L66274 18078
" />
<path d="M66387 18078
L66387 17684
L66349 17740
L66312 17778
L66274 17796
" />
<text x="62300" y="18096.9"
textLength="1126.64" font-size="524.934" lengthAdjust="spacingAndGlyphs"
text-anchor="middle" opacity="0">J10</text>
<path d="M61981 17684
L61981 17965
L61962 18021
L61925 18059
L61868 18078
L61831 18078
" />
<path d="M62374 18078
L62150 18078
" />
<path d="M62262 18078
L62262 17684
L62225 17740
L62187 17778
L62150 17796
" />
<path d="M62618 17684
L62656 17684
L62693 17703
L62712 17721
L62731 17759
L62749 17834
L62749 17928
L62731 18003
L62712 18040
L62693 18059
L62656 18078
L62618 18078
L62581 18059
L62562 18040
L62543 18003
L62524 17928
L62524 17834
L62543 17759
L62562 17721
L62581 17703
L62618 17684
" />
<text x="69250" y="37496.9"
textLength="751.687" font-size="524.934" lengthAdjust="spacingAndGlyphs"
text-anchor="middle" opacity="0">J9</text>
<path d="M69118 37084
L69118 37365
L69100 37421
L69062 37459
L69006 37478
L68968 37478
" />
<path d="M69324 37478
L69399 37478
L69437 37459
L69456 37440
L69493 37384
L69512 37309
L69512 37159
L69493 37121
L69474 37103
L69437 37084
L69362 37084
L69324 37103
L69306 37121
L69287 37159
L69287 37253
L69306 37290
L69324 37309
L69362 37328
L69437 37328
L69474 37309
L69493 37290
L69512 37253
" />
<text x="65500" y="37496.9"
textLength="751.687" font-size="524.934" lengthAdjust="spacingAndGlyphs"
text-anchor="middle" opacity="0">J8</text>
<path d="M65368 37084
L65368 37365
L65350 37421
L65312 37459
L65256 37478
L65218 37478
" />
<path d="M65612 37253
L65574 37234
L65556 37215
L65537 37178
L65537 37159
L65556 37121
L65574 37103
L65612 37084
L65687 37084
L65724 37103
L65743 37121
L65762 37159
L65762 37178
L65743 37215
L65724 37234
L65687 37253
L65612 37253
L65574 37271
L65556 37290
L65537 37328
L65537 37403
L65556 37440
L65574 37459
L65612 37478
L65687 37478
L65724 37459
L65743 37440
L65762 37403
L65762 37328
L65743 37290
L65724 37271
L65687 37253
" />
<text x="66050" y="28146.9"
textLength="751.687" font-size="524.934" lengthAdjust="spacingAndGlyphs"
text-anchor="middle" opacity="0">J7</text>
<path d="M65918 27734
L65918 28015
L65900 28071
L65862 28109
L65806 28128
L65768 28128
" />
<path d="M66068 27734
L66331 27734
L66162 28128
" />
<text x="62300" y="28146.9"
textLength="751.687" font-size="524.934" lengthAdjust="spacingAndGlyphs"
text-anchor="middle" opacity="0">J6</text>
<path d="M62168 27734
L62168 28015
L62150 28071
L62112 28109
L62056 28128
L62018 28128
" />
<path d="M62524 27734
L62449 27734
L62412 27753
L62393 27771
L62356 27828
L62337 27903
L62337 28053
L62356 28090
L62374 28109
L62412 28128
L62487 28128
L62524 28109
L62543 28090
L62562 28053
L62562 27959
L62543 27921
L62524 27903
L62487 27884
L62412 27884
L62374 27903
L62356 27921
L62337 27959
" />
<text x="69250" y="27446.9"
textLength="751.687" font-size="524.934" lengthAdjust="spacingAndGlyphs"
text-anchor="middle" opacity="0">J5</text>
<path d="M69118 27034
L69118 27315
L69100 27371
L69062 27409
L69006 27428
L68968 27428
" />
<path d="M69493 27034
L69306 27034
L69287 27221
L69306 27203
L69343 27184
L69437 27184
L69474 27203
L69493 27221
L69512 27259
L69512 27353
L69493 27390
L69474 27409
L69437 27428
L69343 27428
L69306 27409
L69287 27390
" />
<text x="65500" y="27446.9"
textLength="751.687" font-size="524.934" lengthAdjust="spacingAndGlyphs"
text-anchor="middle" opacity="0">J4</text>
<path d="M65368 27034
L65368 27315
L65350 27371
L65312 27409
L65256 27428
L65218 27428
" />
<path d="M65724 27165
L65724 27428
" />
<path d="M65631 27015
L65537 27296
L65781 27296
" />
<text x="73000" y="17396.9"
textLength="751.687" font-size="524.934" lengthAdjust="spacingAndGlyphs"
text-anchor="middle" opacity="0">J3</text>
<path d="M72868 16984
L72868 17265
L72850 17321
L72812 17359
L72756 17378
L72718 17378
" />
<path d="M73018 16984
L73262 16984
L73131 17134
L73187 17134
L73224 17153
L73243 17171
L73262 17209
L73262 17303
L73243 17340
L73224 17359
L73187 17378
L73074 17378
L73037 17359
L73018 17340
" />
<text x="69250" y="17396.9"
textLength="751.687" font-size="524.934" lengthAdjust="spacingAndGlyphs"
text-anchor="middle" opacity="0">J2</text>
<path d="M69118 16984
L69118 17265
L69100 17321
L69062 17359
L69006 17378
L68968 17378
" />
<path d="M69287 17021
L69306 17003
L69343 16984
L69437 16984
L69474 17003
L69493 17021
L69512 17059
L69512 17096
L69493 17153
L69268 17378
L69512 17378
" />
<text x="65500" y="17396.9"
textLength="751.687" font-size="524.934" lengthAdjust="spacingAndGlyphs"
text-anchor="middle" opacity="0">J1</text>
<path d="M65368 16984
L65368 17265
L65350 17321
L65312 17359
L65256 17378
L65218 17378
" />
<path d="M65762 17378
L65537 17378
" />
<path d="M65649 17378
L65649 16984
L65612 17040
L65574 17078
L65537 17096
" />
<g transform="rotate(-90 58801.2 50500)">
<text x="58801.2" y="50696.9"
textLength="1220.38" font-size="524.934" lengthAdjust="spacingAndGlyphs"
text-anchor="middle" opacity="0">D16</text>
</g>
<path d="M58979 50978
L58585 50978
L58585 50884
L58604 50828
L58641 50790
L58679 50771
L58754 50753
L58810 50753
L58885 50771
L58923 50790
L58960 50828
L58979 50884
L58979 50978
" />
<path d="M58979 50378
L58979 50603
" />
<path d="M58979 50490
L58585 50490
L58641 50528
L58679 50565
L58698 50603
" />
<path d="M58585 50040
L58585 50115
L58604 50153
L58623 50171
L58679 50209
L58754 50228
L58904 50228
L58941 50209
L58960 50190
L58979 50153
L58979 50078
L58960 50040
L58941 50021
L58904 50003
L58810 50003
L58773 50021
L58754 50040
L58735 50078
L58735 50153
L58754 50190
L58773 50209
L58810 50228
" />
<g transform="rotate(-90 60301.2 50500)">
<text x="60301.2" y="50696.9"
textLength="1220.38" font-size="524.934" lengthAdjust="spacingAndGlyphs"
text-anchor="middle" opacity="0">D15</text>
</g>
<path d="M60479 50978
L60085 50978
L60085 50884
L60104 50828
L60141 50790
L60179 50771
L60254 50753
L60310 50753
L60385 50771
L60423 50790
L60460 50828
L60479 50884
L60479 50978
" />
<path d="M60479 50378
L60479 50603
" />
<path d="M60479 50490
L60085 50490
L60141 50528
L60179 50565
L60198 50603
" />
<path d="M60085 50021
L60085 50209
L60273 50228
L60254 50209
L60235 50171
L60235 50078
L60254 50040
L60273 50021
L60310 50003
L60404 50003
L60441 50021
L60460 50040
L60479 50078
L60479 50171
L60460 50209
L60441 50228
" />
<g transform="rotate(-90 58801.2 44850)">
<text x="58801.2" y="45046.9"
textLength="1220.38" font-size="524.934" lengthAdjust="spacingAndGlyphs"
text-anchor="middle" opacity="0">D14</text>
</g>
<path d="M58979 45328
L58585 45328
L58585 45234
L58604 45178
L58641 45140
L58679 45121
L58754 45103
L58810 45103
L58885 45121
L58923 45140
L58960 45178
L58979 45234
L58979 45328
" />
<path d="M58979 44728
L58979 44953
" />
<path d="M58979 44840
L58585 44840
L58641 44878
L58679 44915
L58698 44953
" />
<path d="M58716 44390
L58979 44390
" />
<path d="M58566 44484
L58848 44578
L58848 44334
" />
<g transform="rotate(-90 60301.2 44850)">
<text x="60301.2" y="45046.9"
textLength="1220.38" font-size="524.934" lengthAdjust="spacingAndGlyphs"
text-anchor="middle" opacity="0">D13</text>
</g>
<path d="M60479 45328
L60085 45328
L60085 45234
L60104 45178
L60141 45140
L60179 45121
L60254 45103
L60310 45103
L60385 45121
L60423 45140
L60460 45178
L60479 45234
L60479 45328
" />
<path d="M60479 44728
L60479 44953
" />
<path d="M60479 44840
L60085 44840
L60141 44878
L60179 44915
L60198 44953
" />
<path d="M60085 44596
L60085 44353
L60235 44484
L60235 44428
L60254 44390
L60273 44371
L60310 44353
L60404 44353
L60441 44371
L60460 44390
L60479 44428
L60479 44540
L60460 44578
L60441 44596
" />
<g transform="rotate(-90 58801.2 40450)">
<text x="58801.2" y="40646.9"
textLength="1220.38" font-size="524.934" lengthAdjust="spacingAndGlyphs"
text-anchor="middle" opacity="0">D12</text>
</g>
<path d="M58979 40928
L58585 40928
L58585 40834
L58604 40778
L58641 40740
L58679 40721
L58754 40703
L58810 40703
L58885 40721
L58923 40740
L58960 40778
L58979 40834
L58979 40928
" />
<path d="M58979 40328
L58979 40553
" />
<path d="M58979 40440
L58585 40440
L58641 40478
L58679 40515
L58698 40553
" />
<path d="M58623 40178
L58604 40159
L58585 40121
L58585 40028
L58604 39990
L58623 39971
L58660 39953
L58698 39953
L58754 39971
L58979 40196
L58979 39953
" />
<g transform="rotate(-90 60301.2 40450)">
<text x="60301.2" y="40646.9"
textLength="1220.38" font-size="524.934" lengthAdjust="spacingAndGlyphs"
text-anchor="middle" opacity="0">D11</text>
</g>
<path d="M60479 40928
L60085 40928
L60085 40834
L60104 40778
L60141 40740
L60179 40721
L60254 40703
L60310 40703
L60385 40721
L60423 40740
L60460 40778
L60479 40834
L60479 40928
" />
<path d="M60479 40328
L60479 40553
" />
<path d="M60479 40440
L60085 40440
L60141 40478
L60179 40515
L60198 40553
" />
<path d="M60479 39953
L60479 40178
" />
<path d="M60479 40065
L60085 40065
L60141 40103
L60179 40140
L60198 40178
" />
<g transform="rotate(-90 58751.2 20400)">
<text x="58751.2" y="20596.9"
textLength="1220.38" font-size="524.934" lengthAdjust="spacingAndGlyphs"
text-anchor="middle" opacity="0">D10</text>
</g>
<path d="M58929 20878
L58535 20878
L58535 20784
L58554 20728
L58591 20690
L58629 20671
L58704 20653
L58760 20653
L58835 20671
L58873 20690
L58910 20728
L58929 20784
L58929 20878
" />
<path d="M58929 20278
L58929 20503
" />
<path d="M58929 20390
L58535 20390
L58591 20428
L58629 20465
L58648 20503
" />
<path d="M58535 20034
L58535 19996
L58554 19959
L58573 19940
L58610 19921
L58685 19903
L58779 19903
L58854 19921
L58891 19940
L58910 19959
L58929 19996
L58929 20034
L58910 20071
L58891 20090
L58854 20109
L58779 20128
L58685 20128
L58610 20109
L58573 20090
L58554 20071
L58535 20034
" />
<g transform="rotate(-90 60301.2 20400)">
<text x="60301.2" y="20596.9"
textLength="845.426" font-size="524.934" lengthAdjust="spacingAndGlyphs"
text-anchor="middle" opacity="0">D9</text>
</g>
<path d="M60479 20690
L60085 20690
L60085 20596
L60104 20540
L60141 20503
L60179 20484
L60254 20465
L60310 20465
L60385 20484
L60423 20503
L60460 20540
L60479 20596
L60479 20690
" />
<path d="M60479 20278
L60479 20203
L60460 20165
L60441 20146
L60385 20109
L60310 20090
L60160 20090
L60123 20109
L60104 20128
L60085 20165
L60085 20240
L60104 20278
L60123 20296
L60160 20315
L60254 20315
L60291 20296
L60310 20278
L60329 20240
L60329 20165
L60310 20128
L60291 20109
L60254 20090
" />
<g transform="rotate(-90 58801.2 34800)">
<text x="58801.2" y="34996.9"
textLength="845.426" font-size="524.934" lengthAdjust="spacingAndGlyphs"
text-anchor="middle" opacity="0">D8</text>
</g>
<path d="M58979 35090
L58585 35090
L58585 34996
L58604 34940
L58641 34903
L58679 34884
L58754 34865
L58810 34865
L58885 34884
L58923 34903
L58960 34940
L58979 34996
L58979 35090
" />
<path d="M58754 34640
L58735 34678
L58716 34696
L58679 34715
L58660 34715
L58623 34696
L58604 34678
L58585 34640
L58585 34565
L58604 34528
L58623 34509
L58660 34490
L58679 34490
L58716 34509
L58735 34528
L58754 34565
L58754 34640
L58773 34678
L58791 34696
L58829 34715
L58904 34715
L58941 34696
L58960 34678
L58979 34640
L58979 34565
L58960 34528
L58941 34509
L58904 34490
L58829 34490
L58791 34509
L58773 34528
L58754 34565
" />
<g transform="rotate(-90 60301.2 34800)">
<text x="60301.2" y="34996.9"
textLength="845.426" font-size="524.934" lengthAdjust="spacingAndGlyphs"
text-anchor="middle" opacity="0">D7</text>
</g>
<path d="M60479 35090
L60085 35090
L60085 34996
L60104 34940
L60141 34903
L60179 34884
L60254 34865
L60310 34865
L60385 34884
L60423 34903
L60460 34940
L60479 34996
L60479 35090
" />
<path d="M60085 34734
L60085 34471
L60479 34640
" />
<g transform="rotate(-90 58801.2 30450)">
<text x="58801.2" y="30646.9"
textLength="845.426" font-size="524.934" lengthAdjust="spacingAndGlyphs"
text-anchor="middle" opacity="0">D6</text>
</g>
<path d="M58979 30740
L58585 30740
L58585 30646
L58604 30590
L58641 30553
L58679 30534
L58754 30515
L58810 30515
L58885 30534
L58923 30553
L58960 30590
L58979 30646
L58979 30740
" />
<path d="M58585 30178
L58585 30253
L58604 30290
L58623 30309
L58679 30346
L58754 30365
L58904 30365
L58941 30346
L58960 30328
L58979 30290
L58979 30215
L58960 30178
L58941 30159
L58904 30140
L58810 30140
L58773 30159
L58754 30178
L58735 30215
L58735 30290
L58754 30328
L58773 30346
L58810 30365
" />
<g transform="rotate(-90 60301.2 30450)">
<text x="60301.2" y="30646.9"
textLength="845.426" font-size="524.934" lengthAdjust="spacingAndGlyphs"
text-anchor="middle" opacity="0">D5</text>
</g>
<path d="M60479 30740
L60085 30740
L60085 30646
L60104 30590
L60141 30553
L60179 30534
L60254 30515
L60310 30515
L60385 30534
L60423 30553
L60460 30590
L60479 30646
L60479 30740
" />
<path d="M60085 30159
L60085 30346
L60273 30365
L60254 30346
L60235 30309
L60235 30215
L60254 30178
L60273 30159
L60310 30140
L60404 30140
L60441 30159
L60460 30178
L60479 30215
L60479 30309
L60460 30346
L60441 30365
" />
<g transform="rotate(-90 58751.2 24750)">
<text x="58751.2" y="24946.9"
textLength="845.426" font-size="524.934" lengthAdjust="spacingAndGlyphs"
text-anchor="middle" opacity="0">D4</text>
</g>
<path d="M58929 25040
L58535 25040
L58535 24946
L58554 24890
L58591 24853
L58629 24834
L58704 24815
L58760 24815
L58835 24834
L58873 24853
L58910 24890
L58929 24946
L58929 25040
" />
<path d="M58666 24478
L58929 24478
" />
<path d="M58516 24571
L58798 24665
L58798 24421
" />
<g transform="rotate(-90 60301.2 24750)">
<text x="60301.2" y="24946.9"
textLength="845.426" font-size="524.934" lengthAdjust="spacingAndGlyphs"
text-anchor="middle" opacity="0">D3</text>
</g>
<path d="M60479 25040
L60085 25040
L60085 24946
L60104 24890
L60141 24853
L60179 24834
L60254 24815
L60310 24815
L60385 24834
L60423 24853
L60460 24890
L60479 24946
L60479 25040
" />
<path d="M60085 24684
L60085 24440
L60235 24571
L60235 24515
L60254 24478
L60273 24459
L60310 24440
L60404 24440
L60441 24459
L60460 24478
L60479 24515
L60479 24628
L60460 24665
L60441 24684
" />
<g transform="rotate(-90 58801.2 14700)">
<text x="58801.2" y="14896.9"
textLength="845.426" font-size="524.934" lengthAdjust="spacingAndGlyphs"
text-anchor="middle" opacity="0">D2</text>
</g>
<path d="M58979 14990
L58585 14990
L58585 14896
L58604 14840
L58641 14803
L58679 14784
L58754 14765
L58810 14765
L58885 14784
L58923 14803
L58960 14840
L58979 14896
L58979 14990
" />
<path d="M58623 14615
L58604 14596
L58585 14559
L58585 14465
L58604 14428
L58623 14409
L58660 14390
L58698 14390
L58754 14409
L58979 14634
L58979 14390
" />
<g transform="rotate(-90 60301.2 14700)">
<text x="60301.2" y="14896.9"
textLength="845.426" font-size="524.934" lengthAdjust="spacingAndGlyphs"
text-anchor="middle" opacity="0">D1</text>
</g>
<path d="M60479 14990
L60085 14990
L60085 14896
L60104 14840
L60141 14803
L60179 14784
L60254 14765
L60310 14765
L60385 14784
L60423 14803
L60460 14840
L60479 14896
L60479 14990
" />
<path d="M60479 14390
L60479 14615
" />
<path d="M60479 14503
L60085 14503
L60141 14540
L60179 14578
L60198 14615
" />
<g >
</g>
</g>
<g style="fill:#000000; fill-opacity:0.0; 
stroke:#000000; stroke-width:59.0551; stroke-opacity:1; 
stroke-linecap:round; stroke-linejoin:round;">
</g>
<g style="fill:#C2C200; fill-opacity:0.0; 
stroke:#C2C200; stroke-width:59.0551; stroke-opacity:1; 
stroke-linecap:round; stroke-linejoin:round;">
</g>
<g style="fill:#C2C200; fill-opacity:0.0; 
stroke:#C2C200; stroke-width:19.685; stroke-opacity:1; 
stroke-linecap:round; stroke-linejoin:round;">
<path d="M53500 52750
L53500 52000
" />
<path d="M73250 52750
L53500 52750
" />
<path d="M73250 52000
L73250 52750
" />
<path d="M53500 12500
L53500 52000
" />
<path d="M57500 12500
L53500 12500
" />
<path d="M73250 12500
L73250 52000
" />
<path d="M57500 12500
L73250 12500
" />
<g >
</g>
<g >
</g>
<g >
</g>
<g >
</g>
<g >
</g>
<g >
</g>
<g >
</g>
<g >
</g>
<g >
</g>
<g >
</g>
<g >
</g>
<g >
</g>
<g >
</g>
<g >
</g>
<g >
</g>
<g >
</g>
<g >
</g>
<g >
</g>
<g >
</g>
<g >
</g>
<g >
</g>
<g >
</g>
<g >
</g>
<g >
</g>
<g >
</g>
<g >
</g>
<g >
</g>
<g >
</g>
<g >
</g>
<g >
</g>
<g >
</g>
<g >
</g>
<g >
</g>
<g >
</g>
<g >
</g>
<g >
</g>
<g >
</g>
<g >
</g>
<g >
</g>
<g >
</g>
<g >
</g>
<g >
</g>
<g >
</g>
<g >
</g>
<g >
</g>
<g >
</g>
<g >
</g>
<g >
</g>
<g >
</g>
<g >
</g>
<g >
</g>
<g >
</g>
<g >
</g>
<g >
</g>
<g >
</g>
<g >
</g>
<g >
</g>
</g> 
</svg>
