%TF.GenerationSoftware,KiCad,Pcbnew,(5.1.6-0)*%
%TF.CreationDate,2023-02-20T11:30:03-05:00*%
%TF.ProjectId,Test Board Euro,54657374-2042-46f6-9172-64204575726f,rev?*%
%TF.SameCoordinates,Original*%
%TF.FileFunction,Legend,Bot*%
%TF.FilePolarity,Positive*%
%FSLAX46Y46*%
G04 Gerber Fmt 4.6, Leading zero omitted, Abs format (unit mm)*
G04 Created by KiCad (PCBNEW (5.1.6-0)) date 2023-02-20 11:30:03*
%MOMM*%
%LPD*%
G01*
G04 APERTURE LIST*
%ADD10C,0.120000*%
%ADD11C,0.150000*%
G04 APERTURE END LIST*
D10*
%TO.C,C2*%
X111636000Y-120974000D02*
X110086000Y-120974000D01*
X106296000Y-120974000D02*
X107846000Y-120974000D01*
X110876000Y-115634000D02*
X110086000Y-115634000D01*
X107056000Y-115634000D02*
X107846000Y-115634000D01*
X106296000Y-120974000D02*
X106296000Y-116394000D01*
X106296000Y-116394000D02*
X107056000Y-115634000D01*
X110876000Y-115634000D02*
X111636000Y-116394000D01*
X111636000Y-116394000D02*
X111636000Y-120974000D01*
%TO.C,C1*%
X106296000Y-124584000D02*
X107846000Y-124584000D01*
X111636000Y-124584000D02*
X110086000Y-124584000D01*
X107056000Y-129924000D02*
X107846000Y-129924000D01*
X110876000Y-129924000D02*
X110086000Y-129924000D01*
X111636000Y-124584000D02*
X111636000Y-129164000D01*
X111636000Y-129164000D02*
X110876000Y-129924000D01*
X107056000Y-129924000D02*
X106296000Y-129164000D01*
X106296000Y-129164000D02*
X106296000Y-124584000D01*
%TO.C,R7*%
X80276000Y-136280000D02*
X79076000Y-136280000D01*
X79076000Y-138040000D02*
X80276000Y-138040000D01*
%TO.C,R6*%
X92214000Y-136280000D02*
X91014000Y-136280000D01*
X91014000Y-138040000D02*
X92214000Y-138040000D01*
%TO.C,R5*%
X86372000Y-136280000D02*
X85172000Y-136280000D01*
X85172000Y-138040000D02*
X86372000Y-138040000D01*
%TO.C,R4*%
X121784000Y-85690000D02*
X121784000Y-84490000D01*
X120024000Y-84490000D02*
X120024000Y-85690000D01*
%TO.C,R3*%
X138040000Y-85770000D02*
X138040000Y-84570000D01*
X136280000Y-84570000D02*
X136280000Y-85770000D01*
%TO.C,R2*%
X154550000Y-85770000D02*
X154550000Y-84570000D01*
X152790000Y-84570000D02*
X152790000Y-85770000D01*
%TO.C,R1*%
X170806000Y-85770000D02*
X170806000Y-84570000D01*
X169046000Y-84570000D02*
X169046000Y-85770000D01*
%TO.C,H3*%
X105724000Y-124146000D02*
X105724000Y-129346000D01*
X87884000Y-124146000D02*
X105724000Y-124146000D01*
X85284000Y-129346000D02*
X105724000Y-129346000D01*
X87884000Y-124146000D02*
X87884000Y-126746000D01*
X87884000Y-126746000D02*
X85284000Y-126746000D01*
X85284000Y-126746000D02*
X85284000Y-129346000D01*
X86614000Y-124146000D02*
X85284000Y-124146000D01*
X85284000Y-124146000D02*
X85284000Y-125476000D01*
%TO.C,C2*%
D11*
X113243142Y-118137333D02*
X113290761Y-118089714D01*
X113338380Y-117946857D01*
X113338380Y-117851619D01*
X113290761Y-117708761D01*
X113195523Y-117613523D01*
X113100285Y-117565904D01*
X112909809Y-117518285D01*
X112766952Y-117518285D01*
X112576476Y-117565904D01*
X112481238Y-117613523D01*
X112386000Y-117708761D01*
X112338380Y-117851619D01*
X112338380Y-117946857D01*
X112386000Y-118089714D01*
X112433619Y-118137333D01*
X112433619Y-118518285D02*
X112386000Y-118565904D01*
X112338380Y-118661142D01*
X112338380Y-118899238D01*
X112386000Y-118994476D01*
X112433619Y-119042095D01*
X112528857Y-119089714D01*
X112624095Y-119089714D01*
X112766952Y-119042095D01*
X113338380Y-118470666D01*
X113338380Y-119089714D01*
X111387428Y-114543047D02*
X111387428Y-115304952D01*
X111768380Y-114924000D02*
X111006476Y-114924000D01*
%TO.C,C1*%
X104688857Y-127420666D02*
X104641238Y-127468285D01*
X104593619Y-127611142D01*
X104593619Y-127706380D01*
X104641238Y-127849238D01*
X104736476Y-127944476D01*
X104831714Y-127992095D01*
X105022190Y-128039714D01*
X105165047Y-128039714D01*
X105355523Y-127992095D01*
X105450761Y-127944476D01*
X105546000Y-127849238D01*
X105593619Y-127706380D01*
X105593619Y-127611142D01*
X105546000Y-127468285D01*
X105498380Y-127420666D01*
X104593619Y-126468285D02*
X104593619Y-127039714D01*
X104593619Y-126754000D02*
X105593619Y-126754000D01*
X105450761Y-126849238D01*
X105355523Y-126944476D01*
X105307904Y-127039714D01*
X106544571Y-131014952D02*
X106544571Y-130253047D01*
X106163619Y-130634000D02*
X106925523Y-130634000D01*
%TO.C,R7*%
X79842666Y-139312380D02*
X80176000Y-138836190D01*
X80414095Y-139312380D02*
X80414095Y-138312380D01*
X80033142Y-138312380D01*
X79937904Y-138360000D01*
X79890285Y-138407619D01*
X79842666Y-138502857D01*
X79842666Y-138645714D01*
X79890285Y-138740952D01*
X79937904Y-138788571D01*
X80033142Y-138836190D01*
X80414095Y-138836190D01*
X79509333Y-138312380D02*
X78842666Y-138312380D01*
X79271238Y-139312380D01*
%TO.C,R6*%
X91780666Y-139312380D02*
X92114000Y-138836190D01*
X92352095Y-139312380D02*
X92352095Y-138312380D01*
X91971142Y-138312380D01*
X91875904Y-138360000D01*
X91828285Y-138407619D01*
X91780666Y-138502857D01*
X91780666Y-138645714D01*
X91828285Y-138740952D01*
X91875904Y-138788571D01*
X91971142Y-138836190D01*
X92352095Y-138836190D01*
X90923523Y-138312380D02*
X91114000Y-138312380D01*
X91209238Y-138360000D01*
X91256857Y-138407619D01*
X91352095Y-138550476D01*
X91399714Y-138740952D01*
X91399714Y-139121904D01*
X91352095Y-139217142D01*
X91304476Y-139264761D01*
X91209238Y-139312380D01*
X91018761Y-139312380D01*
X90923523Y-139264761D01*
X90875904Y-139217142D01*
X90828285Y-139121904D01*
X90828285Y-138883809D01*
X90875904Y-138788571D01*
X90923523Y-138740952D01*
X91018761Y-138693333D01*
X91209238Y-138693333D01*
X91304476Y-138740952D01*
X91352095Y-138788571D01*
X91399714Y-138883809D01*
%TO.C,R5*%
X85938666Y-139312380D02*
X86272000Y-138836190D01*
X86510095Y-139312380D02*
X86510095Y-138312380D01*
X86129142Y-138312380D01*
X86033904Y-138360000D01*
X85986285Y-138407619D01*
X85938666Y-138502857D01*
X85938666Y-138645714D01*
X85986285Y-138740952D01*
X86033904Y-138788571D01*
X86129142Y-138836190D01*
X86510095Y-138836190D01*
X85033904Y-138312380D02*
X85510095Y-138312380D01*
X85557714Y-138788571D01*
X85510095Y-138740952D01*
X85414857Y-138693333D01*
X85176761Y-138693333D01*
X85081523Y-138740952D01*
X85033904Y-138788571D01*
X84986285Y-138883809D01*
X84986285Y-139121904D01*
X85033904Y-139217142D01*
X85081523Y-139264761D01*
X85176761Y-139312380D01*
X85414857Y-139312380D01*
X85510095Y-139264761D01*
X85557714Y-139217142D01*
%TO.C,R4*%
X119656380Y-84923333D02*
X119180190Y-84590000D01*
X119656380Y-84351904D02*
X118656380Y-84351904D01*
X118656380Y-84732857D01*
X118704000Y-84828095D01*
X118751619Y-84875714D01*
X118846857Y-84923333D01*
X118989714Y-84923333D01*
X119084952Y-84875714D01*
X119132571Y-84828095D01*
X119180190Y-84732857D01*
X119180190Y-84351904D01*
X118989714Y-85780476D02*
X119656380Y-85780476D01*
X118608761Y-85542380D02*
X119323047Y-85304285D01*
X119323047Y-85923333D01*
%TO.C,R3*%
X135912380Y-85003333D02*
X135436190Y-84670000D01*
X135912380Y-84431904D02*
X134912380Y-84431904D01*
X134912380Y-84812857D01*
X134960000Y-84908095D01*
X135007619Y-84955714D01*
X135102857Y-85003333D01*
X135245714Y-85003333D01*
X135340952Y-84955714D01*
X135388571Y-84908095D01*
X135436190Y-84812857D01*
X135436190Y-84431904D01*
X134912380Y-85336666D02*
X134912380Y-85955714D01*
X135293333Y-85622380D01*
X135293333Y-85765238D01*
X135340952Y-85860476D01*
X135388571Y-85908095D01*
X135483809Y-85955714D01*
X135721904Y-85955714D01*
X135817142Y-85908095D01*
X135864761Y-85860476D01*
X135912380Y-85765238D01*
X135912380Y-85479523D01*
X135864761Y-85384285D01*
X135817142Y-85336666D01*
%TO.C,R2*%
X152422380Y-85003333D02*
X151946190Y-84670000D01*
X152422380Y-84431904D02*
X151422380Y-84431904D01*
X151422380Y-84812857D01*
X151470000Y-84908095D01*
X151517619Y-84955714D01*
X151612857Y-85003333D01*
X151755714Y-85003333D01*
X151850952Y-84955714D01*
X151898571Y-84908095D01*
X151946190Y-84812857D01*
X151946190Y-84431904D01*
X151517619Y-85384285D02*
X151470000Y-85431904D01*
X151422380Y-85527142D01*
X151422380Y-85765238D01*
X151470000Y-85860476D01*
X151517619Y-85908095D01*
X151612857Y-85955714D01*
X151708095Y-85955714D01*
X151850952Y-85908095D01*
X152422380Y-85336666D01*
X152422380Y-85955714D01*
%TO.C,R1*%
X168678380Y-85003333D02*
X168202190Y-84670000D01*
X168678380Y-84431904D02*
X167678380Y-84431904D01*
X167678380Y-84812857D01*
X167726000Y-84908095D01*
X167773619Y-84955714D01*
X167868857Y-85003333D01*
X168011714Y-85003333D01*
X168106952Y-84955714D01*
X168154571Y-84908095D01*
X168202190Y-84812857D01*
X168202190Y-84431904D01*
X168678380Y-85955714D02*
X168678380Y-85384285D01*
X168678380Y-85670000D02*
X167678380Y-85670000D01*
X167821238Y-85574761D01*
X167916476Y-85479523D01*
X167964095Y-85384285D01*
%TO.C,H3*%
X84736380Y-125984095D02*
X83736380Y-125984095D01*
X84212571Y-125984095D02*
X84212571Y-126555523D01*
X84736380Y-126555523D02*
X83736380Y-126555523D01*
X83736380Y-126936476D02*
X83736380Y-127555523D01*
X84117333Y-127222190D01*
X84117333Y-127365047D01*
X84164952Y-127460285D01*
X84212571Y-127507904D01*
X84307809Y-127555523D01*
X84545904Y-127555523D01*
X84641142Y-127507904D01*
X84688761Y-127460285D01*
X84736380Y-127365047D01*
X84736380Y-127079333D01*
X84688761Y-126984095D01*
X84641142Y-126936476D01*
%TD*%
M02*
