%TF.GenerationSoftware,KiCad,Pcbnew,(5.1.6-0)*%
%TF.CreationDate,2023-02-20T11:30:03-05:00*%
%TF.ProjectId,Test Board Euro,54657374-2042-46f6-9172-64204575726f,rev?*%
%TF.SameCoordinates,Original*%
%TF.FileFunction,Soldermask,Top*%
%TF.FilePolarity,Negative*%
%FSLAX46Y46*%
G04 Gerber Fmt 4.6, Leading zero omitted, Abs format (unit mm)*
G04 Created by KiCad (PCBNEW (5.1.6-0)) date 2023-02-20 11:30:03*
%MOMM*%
%LPD*%
G01*
G04 APERTURE LIST*
%ADD10R,1.800000X1.800000*%
%ADD11O,1.800000X1.800000*%
%ADD12O,2.100000X2.500000*%
%ADD13C,1.400000*%
%ADD14C,2.100000*%
%ADD15R,2.100000X2.100000*%
%ADD16R,1.700000X1.700000*%
%ADD17O,1.700000X1.700000*%
%ADD18C,1.900000*%
%ADD19C,4.100000*%
G04 APERTURE END LIST*
D10*
%TO.C,J18*%
X92964000Y-142240000D03*
D11*
X92964000Y-139700000D03*
X95504000Y-142240000D03*
X95504000Y-139700000D03*
X98044000Y-142240000D03*
X98044000Y-139700000D03*
X100584000Y-142240000D03*
X100584000Y-139700000D03*
X103124000Y-142240000D03*
X103124000Y-139700000D03*
X105664000Y-142240000D03*
X105664000Y-139700000D03*
X108204000Y-142240000D03*
X108204000Y-139700000D03*
X110744000Y-142240000D03*
X110744000Y-139700000D03*
X113284000Y-142240000D03*
X113284000Y-139700000D03*
X115824000Y-142240000D03*
X115824000Y-139700000D03*
X118364000Y-142240000D03*
X118364000Y-139700000D03*
X120904000Y-142240000D03*
X120904000Y-139700000D03*
X123444000Y-142240000D03*
X123444000Y-139700000D03*
X125984000Y-142240000D03*
X125984000Y-139700000D03*
X128524000Y-142240000D03*
X128524000Y-139700000D03*
X131064000Y-142240000D03*
X131064000Y-139700000D03*
X133604000Y-142240000D03*
X133604000Y-139700000D03*
X136144000Y-142240000D03*
X136144000Y-139700000D03*
X138684000Y-142240000D03*
X138684000Y-139700000D03*
X141224000Y-142240000D03*
X141224000Y-139700000D03*
X143764000Y-142240000D03*
X143764000Y-139700000D03*
X146304000Y-142240000D03*
X146304000Y-139700000D03*
X148844000Y-142240000D03*
X148844000Y-139700000D03*
X151384000Y-142240000D03*
X151384000Y-139700000D03*
X153924000Y-142240000D03*
X153924000Y-139700000D03*
X156464000Y-142240000D03*
X156464000Y-139700000D03*
X159004000Y-142240000D03*
X159004000Y-139700000D03*
X161544000Y-142240000D03*
X161544000Y-139700000D03*
X164084000Y-142240000D03*
X164084000Y-139700000D03*
X166624000Y-142240000D03*
X166624000Y-139700000D03*
X169164000Y-142240000D03*
X169164000Y-139700000D03*
X171704000Y-142240000D03*
X171704000Y-139700000D03*
X174244000Y-142240000D03*
X174244000Y-139700000D03*
X176784000Y-142240000D03*
X176784000Y-139700000D03*
X179324000Y-142240000D03*
X179324000Y-139700000D03*
X181864000Y-142240000D03*
X181864000Y-139700000D03*
X184404000Y-142240000D03*
X184404000Y-139700000D03*
X186944000Y-142240000D03*
X186944000Y-139700000D03*
X189484000Y-142240000D03*
X189484000Y-139700000D03*
X192024000Y-142240000D03*
X192024000Y-139700000D03*
%TD*%
D12*
%TO.C,RV9*%
X127406999Y-91730000D03*
X114006999Y-91730000D03*
D13*
X124706999Y-102730000D03*
X120706999Y-102730000D03*
X116706999Y-102730000D03*
%TD*%
D14*
%TO.C,SW3*%
X107950000Y-64516000D03*
X105410000Y-64516000D03*
D15*
X102870000Y-64516000D03*
%TD*%
D14*
%TO.C,SW2*%
X107696000Y-44450000D03*
X105156000Y-44450000D03*
D15*
X102616000Y-44450000D03*
%TD*%
D14*
%TO.C,SW1*%
X108204000Y-82296000D03*
X105664000Y-82296000D03*
D15*
X103124000Y-82296000D03*
%TD*%
D10*
%TO.C,H6*%
X86614000Y-99314000D03*
D11*
X86614000Y-96774000D03*
X89154000Y-99314000D03*
X89154000Y-96774000D03*
X91694000Y-99314000D03*
X91694000Y-96774000D03*
X94234000Y-99314000D03*
X94234000Y-96774000D03*
X96774000Y-99314000D03*
X96774000Y-96774000D03*
X99314000Y-99314000D03*
X99314000Y-96774000D03*
X101854000Y-99314000D03*
X101854000Y-96774000D03*
X104394000Y-99314000D03*
X104394000Y-96774000D03*
%TD*%
D10*
%TO.C,H5*%
X86614000Y-105664000D03*
D11*
X86614000Y-103124000D03*
X89154000Y-105664000D03*
X89154000Y-103124000D03*
X91694000Y-105664000D03*
X91694000Y-103124000D03*
X94234000Y-105664000D03*
X94234000Y-103124000D03*
X96774000Y-105664000D03*
X96774000Y-103124000D03*
X99314000Y-105664000D03*
X99314000Y-103124000D03*
X101854000Y-105664000D03*
X101854000Y-103124000D03*
X104394000Y-105664000D03*
X104394000Y-103124000D03*
%TD*%
D10*
%TO.C,H4*%
X86614000Y-112014000D03*
D11*
X86614000Y-109474000D03*
X89154000Y-112014000D03*
X89154000Y-109474000D03*
X91694000Y-112014000D03*
X91694000Y-109474000D03*
X94234000Y-112014000D03*
X94234000Y-109474000D03*
X96774000Y-112014000D03*
X96774000Y-109474000D03*
X99314000Y-112014000D03*
X99314000Y-109474000D03*
X101854000Y-112014000D03*
X101854000Y-109474000D03*
X104394000Y-112014000D03*
X104394000Y-109474000D03*
%TD*%
D10*
%TO.C,H2*%
X86614000Y-118364000D03*
D11*
X86614000Y-115824000D03*
X89154000Y-118364000D03*
X89154000Y-115824000D03*
X91694000Y-118364000D03*
X91694000Y-115824000D03*
X94234000Y-118364000D03*
X94234000Y-115824000D03*
X96774000Y-118364000D03*
X96774000Y-115824000D03*
X99314000Y-118364000D03*
X99314000Y-115824000D03*
X101854000Y-118364000D03*
X101854000Y-115824000D03*
X104394000Y-118364000D03*
X104394000Y-115824000D03*
%TD*%
D14*
%TO.C,D7*%
X79502000Y-139700000D03*
D15*
X79502000Y-142240000D03*
%TD*%
D14*
%TO.C,D6*%
X88646000Y-139700000D03*
D15*
X88646000Y-142240000D03*
%TD*%
D14*
%TO.C,D5*%
X84074000Y-142240000D03*
D15*
X84074000Y-139700000D03*
%TD*%
D10*
%TO.C,J17*%
X189738000Y-35560000D03*
D11*
X192278000Y-35560000D03*
X189738000Y-38100000D03*
X192278000Y-38100000D03*
X189738000Y-40640000D03*
X192278000Y-40640000D03*
X189738000Y-43180000D03*
X192278000Y-43180000D03*
X189738000Y-45720000D03*
X192278000Y-45720000D03*
X189738000Y-48260000D03*
X192278000Y-48260000D03*
X189738000Y-50800000D03*
X192278000Y-50800000D03*
X189738000Y-53340000D03*
X192278000Y-53340000D03*
X189738000Y-55880000D03*
X192278000Y-55880000D03*
X189738000Y-58420000D03*
X192278000Y-58420000D03*
X189738000Y-60960000D03*
X192278000Y-60960000D03*
X189738000Y-63500000D03*
X192278000Y-63500000D03*
X189738000Y-66040000D03*
X192278000Y-66040000D03*
X189738000Y-68580000D03*
X192278000Y-68580000D03*
X189738000Y-71120000D03*
X192278000Y-71120000D03*
X189738000Y-73660000D03*
X192278000Y-73660000D03*
X189738000Y-76200000D03*
X192278000Y-76200000D03*
X189738000Y-78740000D03*
X192278000Y-78740000D03*
X189738000Y-81280000D03*
X192278000Y-81280000D03*
X189738000Y-83820000D03*
X192278000Y-83820000D03*
X189738000Y-86360000D03*
X192278000Y-86360000D03*
X189738000Y-88900000D03*
X192278000Y-88900000D03*
X189738000Y-91440000D03*
X192278000Y-91440000D03*
X189738000Y-93980000D03*
X192278000Y-93980000D03*
X189738000Y-96520000D03*
X192278000Y-96520000D03*
X189738000Y-99060000D03*
X192278000Y-99060000D03*
X189738000Y-101600000D03*
X192278000Y-101600000D03*
X189738000Y-104140000D03*
X192278000Y-104140000D03*
X189738000Y-106680000D03*
X192278000Y-106680000D03*
X189738000Y-109220000D03*
X192278000Y-109220000D03*
X189738000Y-111760000D03*
X192278000Y-111760000D03*
X189738000Y-114300000D03*
X192278000Y-114300000D03*
X189738000Y-116840000D03*
X192278000Y-116840000D03*
X189738000Y-119380000D03*
X192278000Y-119380000D03*
X189738000Y-121920000D03*
X192278000Y-121920000D03*
X189738000Y-124460000D03*
X192278000Y-124460000D03*
X189738000Y-127000000D03*
X192278000Y-127000000D03*
X189738000Y-129540000D03*
X192278000Y-129540000D03*
X189738000Y-132080000D03*
X192278000Y-132080000D03*
X189738000Y-134620000D03*
X192278000Y-134620000D03*
%TD*%
D10*
%TO.C,H3*%
X86614000Y-125476000D03*
D11*
X86614000Y-128016000D03*
X89154000Y-125476000D03*
X89154000Y-128016000D03*
X91694000Y-125476000D03*
X91694000Y-128016000D03*
X94234000Y-125476000D03*
X94234000Y-128016000D03*
X96774000Y-125476000D03*
X96774000Y-128016000D03*
X99314000Y-125476000D03*
X99314000Y-128016000D03*
X101854000Y-125476000D03*
X101854000Y-128016000D03*
X104394000Y-125476000D03*
X104394000Y-128016000D03*
%TD*%
D16*
%TO.C,U4*%
X89916000Y-76200000D03*
D17*
X97536000Y-91440000D03*
X89916000Y-78740000D03*
X97536000Y-88900000D03*
X89916000Y-81280000D03*
X97536000Y-86360000D03*
X89916000Y-83820000D03*
X97536000Y-83820000D03*
X89916000Y-86360000D03*
X97536000Y-81280000D03*
X89916000Y-88900000D03*
X97536000Y-78740000D03*
X89916000Y-91440000D03*
X97536000Y-76200000D03*
%TD*%
D16*
%TO.C,U3*%
X89916000Y-43180000D03*
D17*
X97536000Y-50800000D03*
X89916000Y-45720000D03*
X97536000Y-48260000D03*
X89916000Y-48260000D03*
X97536000Y-45720000D03*
X89916000Y-50800000D03*
X97536000Y-43180000D03*
%TD*%
D16*
%TO.C,U2*%
X89916000Y-56388000D03*
D17*
X97536000Y-71628000D03*
X89916000Y-58928000D03*
X97536000Y-69088000D03*
X89916000Y-61468000D03*
X97536000Y-66548000D03*
X89916000Y-64008000D03*
X97536000Y-64008000D03*
X89916000Y-66548000D03*
X97536000Y-61468000D03*
X89916000Y-69088000D03*
X97536000Y-58928000D03*
X89916000Y-71628000D03*
X97536000Y-56388000D03*
%TD*%
D12*
%TO.C,RV12*%
X176606999Y-91730000D03*
X163206999Y-91730000D03*
D13*
X173906999Y-102730000D03*
X169906999Y-102730000D03*
X165906999Y-102730000D03*
%TD*%
D12*
%TO.C,RV11*%
X160206999Y-91730000D03*
X146806999Y-91730000D03*
D13*
X157506999Y-102730000D03*
X153506999Y-102730000D03*
X149506999Y-102730000D03*
%TD*%
D12*
%TO.C,RV10*%
X143806999Y-91730000D03*
X130406999Y-91730000D03*
D13*
X141106999Y-102730000D03*
X137106999Y-102730000D03*
X133106999Y-102730000D03*
%TD*%
D10*
%TO.C,J16*%
X86868000Y-38100000D03*
D11*
X86868000Y-35560000D03*
X89408000Y-38100000D03*
X89408000Y-35560000D03*
X91948000Y-38100000D03*
X91948000Y-35560000D03*
X94488000Y-38100000D03*
X94488000Y-35560000D03*
X97028000Y-38100000D03*
X97028000Y-35560000D03*
X99568000Y-38100000D03*
X99568000Y-35560000D03*
X102108000Y-38100000D03*
X102108000Y-35560000D03*
X104648000Y-38100000D03*
X104648000Y-35560000D03*
X107188000Y-38100000D03*
X107188000Y-35560000D03*
X109728000Y-38100000D03*
X109728000Y-35560000D03*
X112268000Y-38100000D03*
X112268000Y-35560000D03*
X114808000Y-38100000D03*
X114808000Y-35560000D03*
X117348000Y-38100000D03*
X117348000Y-35560000D03*
X119888000Y-38100000D03*
X119888000Y-35560000D03*
X122428000Y-38100000D03*
X122428000Y-35560000D03*
X124968000Y-38100000D03*
X124968000Y-35560000D03*
X127508000Y-38100000D03*
X127508000Y-35560000D03*
X130048000Y-38100000D03*
X130048000Y-35560000D03*
X132588000Y-38100000D03*
X132588000Y-35560000D03*
X135128000Y-38100000D03*
X135128000Y-35560000D03*
X137668000Y-38100000D03*
X137668000Y-35560000D03*
X140208000Y-38100000D03*
X140208000Y-35560000D03*
X142748000Y-38100000D03*
X142748000Y-35560000D03*
X145288000Y-38100000D03*
X145288000Y-35560000D03*
X147828000Y-38100000D03*
X147828000Y-35560000D03*
X150368000Y-38100000D03*
X150368000Y-35560000D03*
X152908000Y-38100000D03*
X152908000Y-35560000D03*
X155448000Y-38100000D03*
X155448000Y-35560000D03*
X157988000Y-38100000D03*
X157988000Y-35560000D03*
X160528000Y-38100000D03*
X160528000Y-35560000D03*
X163068000Y-38100000D03*
X163068000Y-35560000D03*
X165608000Y-38100000D03*
X165608000Y-35560000D03*
X168148000Y-38100000D03*
X168148000Y-35560000D03*
X170688000Y-38100000D03*
X170688000Y-35560000D03*
X173228000Y-38100000D03*
X173228000Y-35560000D03*
X175768000Y-38100000D03*
X175768000Y-35560000D03*
X178308000Y-38100000D03*
X178308000Y-35560000D03*
X180848000Y-38100000D03*
X180848000Y-35560000D03*
X183388000Y-38100000D03*
X183388000Y-35560000D03*
X185928000Y-38100000D03*
X185928000Y-35560000D03*
%TD*%
D18*
%TO.C,J15*%
X176784000Y-109126000D03*
X176784000Y-120526000D03*
X176784000Y-117426000D03*
%TD*%
%TO.C,J14*%
X176784000Y-131920000D03*
X176784000Y-120520000D03*
X176784000Y-123620000D03*
%TD*%
%TO.C,J13*%
X166370000Y-131920000D03*
X166370000Y-120520000D03*
X166370000Y-123620000D03*
%TD*%
%TO.C,J12*%
X166370000Y-109126000D03*
X166370000Y-120526000D03*
X166370000Y-117426000D03*
%TD*%
D14*
%TO.C,D4*%
X120904000Y-92964000D03*
D15*
X120904000Y-90424000D03*
%TD*%
D14*
%TO.C,D3*%
X137106999Y-93000000D03*
D15*
X137106999Y-90460000D03*
%TD*%
D14*
%TO.C,D2*%
X153670000Y-92964000D03*
D15*
X153670000Y-90424000D03*
%TD*%
D14*
%TO.C,D1*%
X169926000Y-92964000D03*
D15*
X169926000Y-90424000D03*
%TD*%
D18*
%TO.C,J11*%
X156170000Y-131838000D03*
X156170000Y-120438000D03*
X156170000Y-123538000D03*
%TD*%
%TO.C,J10*%
X146020000Y-131838000D03*
X146020000Y-120438000D03*
X146020000Y-123538000D03*
%TD*%
%TO.C,J9*%
X156170000Y-109126000D03*
X156170000Y-120526000D03*
X156170000Y-117426000D03*
%TD*%
%TO.C,J8*%
X146020000Y-109126000D03*
X146020000Y-120526000D03*
X146020000Y-117426000D03*
%TD*%
%TO.C,J7*%
X135870000Y-131838000D03*
X135870000Y-120438000D03*
X135870000Y-123538000D03*
%TD*%
%TO.C,J5*%
X125720000Y-131838000D03*
X125720000Y-120438000D03*
X125720000Y-123538000D03*
%TD*%
%TO.C,J4*%
X135870000Y-109126000D03*
X135870000Y-120526000D03*
X135870000Y-117426000D03*
%TD*%
%TO.C,J3*%
X125720000Y-109126000D03*
X125720000Y-120526000D03*
X125720000Y-117426000D03*
%TD*%
%TO.C,J2*%
X115570000Y-131838000D03*
X115570000Y-120438000D03*
X115570000Y-123538000D03*
%TD*%
%TO.C,J1*%
X115570000Y-109126000D03*
X115570000Y-120526000D03*
X115570000Y-117426000D03*
%TD*%
%TO.C,RV8*%
X169752000Y-58928000D03*
X172252000Y-58928000D03*
X174752000Y-58928000D03*
X169752000Y-61428000D03*
X172252000Y-61428000D03*
X174752000Y-61428000D03*
D19*
X167502000Y-51428000D03*
X177002000Y-51428000D03*
%TD*%
D18*
%TO.C,RV7*%
X152440000Y-58968000D03*
X154940000Y-58968000D03*
X157440000Y-58968000D03*
X152440000Y-61468000D03*
X154940000Y-61468000D03*
X157440000Y-61468000D03*
D19*
X150190000Y-51468000D03*
X159690000Y-51468000D03*
%TD*%
D18*
%TO.C,RV6*%
X134700000Y-59182000D03*
X137200000Y-59182000D03*
X139700000Y-59182000D03*
X134700000Y-61682000D03*
X137200000Y-61682000D03*
X139700000Y-61682000D03*
D19*
X132450000Y-51682000D03*
X141950000Y-51682000D03*
%TD*%
D18*
%TO.C,RV5*%
X116158000Y-79756000D03*
X118658000Y-79756000D03*
X121158000Y-79756000D03*
D19*
X114258000Y-72756000D03*
X123058000Y-72756000D03*
%TD*%
D18*
%TO.C,RV4*%
X134446000Y-79756000D03*
X136946000Y-79756000D03*
X139446000Y-79756000D03*
D19*
X132546000Y-72756000D03*
X141346000Y-72756000D03*
%TD*%
D18*
%TO.C,RV3*%
X152522000Y-79644000D03*
X155022000Y-79644000D03*
X157522000Y-79644000D03*
D19*
X150622000Y-72644000D03*
X159422000Y-72644000D03*
%TD*%
D18*
%TO.C,RV2*%
X116296000Y-59316000D03*
X118796000Y-59316000D03*
X121296000Y-59316000D03*
X116296000Y-61816000D03*
X118796000Y-61816000D03*
X121296000Y-61816000D03*
D19*
X114046000Y-51816000D03*
X123546000Y-51816000D03*
%TD*%
D18*
%TO.C,RV1*%
X169794000Y-79644000D03*
X172294000Y-79644000D03*
X174794000Y-79644000D03*
D19*
X167894000Y-72644000D03*
X176694000Y-72644000D03*
%TD*%
D10*
%TO.C,J6*%
X80264000Y-35560000D03*
D11*
X82804000Y-35560000D03*
X80264000Y-38100000D03*
X82804000Y-38100000D03*
X80264000Y-40640000D03*
X82804000Y-40640000D03*
X80264000Y-43180000D03*
X82804000Y-43180000D03*
X80264000Y-45720000D03*
X82804000Y-45720000D03*
X80264000Y-48260000D03*
X82804000Y-48260000D03*
X80264000Y-50800000D03*
X82804000Y-50800000D03*
X80264000Y-53340000D03*
X82804000Y-53340000D03*
X80264000Y-55880000D03*
X82804000Y-55880000D03*
X80264000Y-58420000D03*
X82804000Y-58420000D03*
X80264000Y-60960000D03*
X82804000Y-60960000D03*
X80264000Y-63500000D03*
X82804000Y-63500000D03*
X80264000Y-66040000D03*
X82804000Y-66040000D03*
X80264000Y-68580000D03*
X82804000Y-68580000D03*
X80264000Y-71120000D03*
X82804000Y-71120000D03*
X80264000Y-73660000D03*
X82804000Y-73660000D03*
X80264000Y-76200000D03*
X82804000Y-76200000D03*
X80264000Y-78740000D03*
X82804000Y-78740000D03*
X80264000Y-81280000D03*
X82804000Y-81280000D03*
X80264000Y-83820000D03*
X82804000Y-83820000D03*
X80264000Y-86360000D03*
X82804000Y-86360000D03*
X80264000Y-88900000D03*
X82804000Y-88900000D03*
X80264000Y-91440000D03*
X82804000Y-91440000D03*
X80264000Y-93980000D03*
X82804000Y-93980000D03*
X80264000Y-96520000D03*
X82804000Y-96520000D03*
X80264000Y-99060000D03*
X82804000Y-99060000D03*
X80264000Y-101600000D03*
X82804000Y-101600000D03*
X80264000Y-104140000D03*
X82804000Y-104140000D03*
X80264000Y-106680000D03*
X82804000Y-106680000D03*
X80264000Y-109220000D03*
X82804000Y-109220000D03*
X80264000Y-111760000D03*
X82804000Y-111760000D03*
X80264000Y-114300000D03*
X82804000Y-114300000D03*
X80264000Y-116840000D03*
X82804000Y-116840000D03*
X80264000Y-119380000D03*
X82804000Y-119380000D03*
X80264000Y-121920000D03*
X82804000Y-121920000D03*
X80264000Y-124460000D03*
X82804000Y-124460000D03*
X80264000Y-127000000D03*
X82804000Y-127000000D03*
X80264000Y-129540000D03*
X82804000Y-129540000D03*
X80264000Y-132080000D03*
X82804000Y-132080000D03*
X80264000Y-134620000D03*
X82804000Y-134620000D03*
%TD*%
D10*
%TO.C,H1*%
X86614000Y-134620000D03*
D11*
X86614000Y-132080000D03*
X89154000Y-134620000D03*
X89154000Y-132080000D03*
X91694000Y-134620000D03*
X91694000Y-132080000D03*
X94234000Y-134620000D03*
X94234000Y-132080000D03*
X96774000Y-134620000D03*
X96774000Y-132080000D03*
X99314000Y-134620000D03*
X99314000Y-132080000D03*
X101854000Y-134620000D03*
X101854000Y-132080000D03*
X104394000Y-134620000D03*
X104394000Y-132080000D03*
%TD*%
M02*
