M48
; DRILL file {KiCad (5.1.6-0)} date Monday, February 20, 2023 at 11:30:07 AM
; FORMAT={-:-/ absolute / metric / decimal}
; #@! TF.CreationDate,2023-02-20T11:30:07-05:00
; #@! TF.GenerationSoftware,Kicad,Pcbnew,(5.1.6-0)
; #@! TF.FileFunction,Plated,1,2,PTH
FMAT,2
METRIC
T1C0.800
T2C1.000
T3C1.001
T4C1.600
T5C1.700
%
G90
G05
T1
X89.916Y-76.2
X89.916Y-78.74
X89.916Y-81.28
X89.916Y-83.82
X89.916Y-86.36
X89.916Y-88.9
X89.916Y-91.44
X97.536Y-76.2
X97.536Y-78.74
X97.536Y-81.28
X97.536Y-83.82
X97.536Y-86.36
X97.536Y-88.9
X97.536Y-91.44
X89.916Y-56.388
X89.916Y-58.928
X89.916Y-61.468
X89.916Y-64.008
X89.916Y-66.548
X89.916Y-69.088
X89.916Y-71.628
X97.536Y-56.388
X97.536Y-58.928
X97.536Y-61.468
X97.536Y-64.008
X97.536Y-66.548
X97.536Y-69.088
X97.536Y-71.628
X89.916Y-43.18
X89.916Y-45.72
X89.916Y-48.26
X89.916Y-50.8
X97.536Y-43.18
X97.536Y-45.72
X97.536Y-48.26
X97.536Y-50.8
T2
X102.616Y-44.45
X105.156Y-44.45
X107.696Y-44.45
X134.446Y-79.756
X136.946Y-79.756
X139.446Y-79.756
X133.107Y-102.73
X137.107Y-102.73
X141.107Y-102.73
X86.614Y-96.774
X86.614Y-99.314
X89.154Y-96.774
X89.154Y-99.314
X91.694Y-96.774
X91.694Y-99.314
X94.234Y-96.774
X94.234Y-99.314
X96.774Y-96.774
X96.774Y-99.314
X99.314Y-96.774
X99.314Y-99.314
X101.854Y-96.774
X101.854Y-99.314
X104.394Y-96.774
X104.394Y-99.314
X86.614Y-125.476
X86.614Y-128.016
X89.154Y-125.476
X89.154Y-128.016
X91.694Y-125.476
X91.694Y-128.016
X94.234Y-125.476
X94.234Y-128.016
X96.774Y-125.476
X96.774Y-128.016
X99.314Y-125.476
X99.314Y-128.016
X101.854Y-125.476
X101.854Y-128.016
X104.394Y-125.476
X104.394Y-128.016
X86.614Y-109.474
X86.614Y-112.014
X89.154Y-109.474
X89.154Y-112.014
X91.694Y-109.474
X91.694Y-112.014
X94.234Y-109.474
X94.234Y-112.014
X96.774Y-109.474
X96.774Y-112.014
X99.314Y-109.474
X99.314Y-112.014
X101.854Y-109.474
X101.854Y-112.014
X104.394Y-109.474
X104.394Y-112.014
X152.522Y-79.644
X155.022Y-79.644
X157.522Y-79.644
X86.868Y-35.56
X86.868Y-38.1
X89.408Y-35.56
X89.408Y-38.1
X91.948Y-35.56
X91.948Y-38.1
X94.488Y-35.56
X94.488Y-38.1
X97.028Y-35.56
X97.028Y-38.1
X99.568Y-35.56
X99.568Y-38.1
X102.108Y-35.56
X102.108Y-38.1
X104.648Y-35.56
X104.648Y-38.1
X107.188Y-35.56
X107.188Y-38.1
X109.728Y-35.56
X109.728Y-38.1
X112.268Y-35.56
X112.268Y-38.1
X114.808Y-35.56
X114.808Y-38.1
X117.348Y-35.56
X117.348Y-38.1
X119.888Y-35.56
X119.888Y-38.1
X122.428Y-35.56
X122.428Y-38.1
X124.968Y-35.56
X124.968Y-38.1
X127.508Y-35.56
X127.508Y-38.1
X130.048Y-35.56
X130.048Y-38.1
X132.588Y-35.56
X132.588Y-38.1
X135.128Y-35.56
X135.128Y-38.1
X137.668Y-35.56
X137.668Y-38.1
X140.208Y-35.56
X140.208Y-38.1
X142.748Y-35.56
X142.748Y-38.1
X145.288Y-35.56
X145.288Y-38.1
X147.828Y-35.56
X147.828Y-38.1
X150.368Y-35.56
X150.368Y-38.1
X152.908Y-35.56
X152.908Y-38.1
X155.448Y-35.56
X155.448Y-38.1
X157.988Y-35.56
X157.988Y-38.1
X160.528Y-35.56
X160.528Y-38.1
X163.068Y-35.56
X163.068Y-38.1
X165.608Y-35.56
X165.608Y-38.1
X168.148Y-35.56
X168.148Y-38.1
X170.688Y-35.56
X170.688Y-38.1
X173.228Y-35.56
X173.228Y-38.1
X175.768Y-35.56
X175.768Y-38.1
X178.308Y-35.56
X178.308Y-38.1
X180.848Y-35.56
X180.848Y-38.1
X183.388Y-35.56
X183.388Y-38.1
X185.928Y-35.56
X185.928Y-38.1
X169.752Y-58.928
X169.752Y-61.428
X172.252Y-58.928
X172.252Y-61.428
X174.752Y-58.928
X174.752Y-61.428
X86.614Y-115.824
X86.614Y-118.364
X89.154Y-115.824
X89.154Y-118.364
X91.694Y-115.824
X91.694Y-118.364
X94.234Y-115.824
X94.234Y-118.364
X96.774Y-115.824
X96.774Y-118.364
X99.314Y-115.824
X99.314Y-118.364
X101.854Y-115.824
X101.854Y-118.364
X104.394Y-115.824
X104.394Y-118.364
X86.614Y-103.124
X86.614Y-105.664
X89.154Y-103.124
X89.154Y-105.664
X91.694Y-103.124
X91.694Y-105.664
X94.234Y-103.124
X94.234Y-105.664
X96.774Y-103.124
X96.774Y-105.664
X99.314Y-103.124
X99.314Y-105.664
X101.854Y-103.124
X101.854Y-105.664
X104.394Y-103.124
X104.394Y-105.664
X102.87Y-64.516
X105.41Y-64.516
X107.95Y-64.516
X86.614Y-132.08
X86.614Y-134.62
X89.154Y-132.08
X89.154Y-134.62
X91.694Y-132.08
X91.694Y-134.62
X94.234Y-132.08
X94.234Y-134.62
X96.774Y-132.08
X96.774Y-134.62
X99.314Y-132.08
X99.314Y-134.62
X101.854Y-132.08
X101.854Y-134.62
X104.394Y-132.08
X104.394Y-134.62
X152.44Y-58.968
X152.44Y-61.468
X154.94Y-58.968
X154.94Y-61.468
X157.44Y-58.968
X157.44Y-61.468
X165.907Y-102.73
X169.907Y-102.73
X173.907Y-102.73
X134.7Y-59.182
X134.7Y-61.682
X137.2Y-59.182
X137.2Y-61.682
X139.7Y-59.182
X139.7Y-61.682
X189.738Y-35.56
X189.738Y-38.1
X189.738Y-40.64
X189.738Y-43.18
X189.738Y-45.72
X189.738Y-48.26
X189.738Y-50.8
X189.738Y-53.34
X189.738Y-55.88
X189.738Y-58.42
X189.738Y-60.96
X189.738Y-63.5
X189.738Y-66.04
X189.738Y-68.58
X189.738Y-71.12
X189.738Y-73.66
X189.738Y-76.2
X189.738Y-78.74
X189.738Y-81.28
X189.738Y-83.82
X189.738Y-86.36
X189.738Y-88.9
X189.738Y-91.44
X189.738Y-93.98
X189.738Y-96.52
X189.738Y-99.06
X189.738Y-101.6
X189.738Y-104.14
X189.738Y-106.68
X189.738Y-109.22
X189.738Y-111.76
X189.738Y-114.3
X189.738Y-116.84
X189.738Y-119.38
X189.738Y-121.92
X189.738Y-124.46
X189.738Y-127.0
X189.738Y-129.54
X189.738Y-132.08
X189.738Y-134.62
X192.278Y-35.56
X192.278Y-38.1
X192.278Y-40.64
X192.278Y-43.18
X192.278Y-45.72
X192.278Y-48.26
X192.278Y-50.8
X192.278Y-53.34
X192.278Y-55.88
X192.278Y-58.42
X192.278Y-60.96
X192.278Y-63.5
X192.278Y-66.04
X192.278Y-68.58
X192.278Y-71.12
X192.278Y-73.66
X192.278Y-76.2
X192.278Y-78.74
X192.278Y-81.28
X192.278Y-83.82
X192.278Y-86.36
X192.278Y-88.9
X192.278Y-91.44
X192.278Y-93.98
X192.278Y-96.52
X192.278Y-99.06
X192.278Y-101.6
X192.278Y-104.14
X192.278Y-106.68
X192.278Y-109.22
X192.278Y-111.76
X192.278Y-114.3
X192.278Y-116.84
X192.278Y-119.38
X192.278Y-121.92
X192.278Y-124.46
X192.278Y-127.0
X192.278Y-129.54
X192.278Y-132.08
X192.278Y-134.62
X169.794Y-79.644
X172.294Y-79.644
X174.794Y-79.644
X116.158Y-79.756
X118.658Y-79.756
X121.158Y-79.756
X149.507Y-102.73
X153.507Y-102.73
X157.507Y-102.73
X116.296Y-59.316
X116.296Y-61.816
X118.796Y-59.316
X118.796Y-61.816
X121.296Y-59.316
X121.296Y-61.816
X103.124Y-82.296
X105.664Y-82.296
X108.204Y-82.296
X92.964Y-139.7
X92.964Y-142.24
X95.504Y-139.7
X95.504Y-142.24
X98.044Y-139.7
X98.044Y-142.24
X100.584Y-139.7
X100.584Y-142.24
X103.124Y-139.7
X103.124Y-142.24
X105.664Y-139.7
X105.664Y-142.24
X108.204Y-139.7
X108.204Y-142.24
X110.744Y-139.7
X110.744Y-142.24
X113.284Y-139.7
X113.284Y-142.24
X115.824Y-139.7
X115.824Y-142.24
X118.364Y-139.7
X118.364Y-142.24
X120.904Y-139.7
X120.904Y-142.24
X123.444Y-139.7
X123.444Y-142.24
X125.984Y-139.7
X125.984Y-142.24
X128.524Y-139.7
X128.524Y-142.24
X131.064Y-139.7
X131.064Y-142.24
X133.604Y-139.7
X133.604Y-142.24
X136.144Y-139.7
X136.144Y-142.24
X138.684Y-139.7
X138.684Y-142.24
X141.224Y-139.7
X141.224Y-142.24
X143.764Y-139.7
X143.764Y-142.24
X146.304Y-139.7
X146.304Y-142.24
X148.844Y-139.7
X148.844Y-142.24
X151.384Y-139.7
X151.384Y-142.24
X153.924Y-139.7
X153.924Y-142.24
X156.464Y-139.7
X156.464Y-142.24
X159.004Y-139.7
X159.004Y-142.24
X161.544Y-139.7
X161.544Y-142.24
X164.084Y-139.7
X164.084Y-142.24
X166.624Y-139.7
X166.624Y-142.24
X169.164Y-139.7
X169.164Y-142.24
X171.704Y-139.7
X171.704Y-142.24
X174.244Y-139.7
X174.244Y-142.24
X176.784Y-139.7
X176.784Y-142.24
X179.324Y-139.7
X179.324Y-142.24
X181.864Y-139.7
X181.864Y-142.24
X184.404Y-139.7
X184.404Y-142.24
X186.944Y-139.7
X186.944Y-142.24
X189.484Y-139.7
X189.484Y-142.24
X192.024Y-139.7
X192.024Y-142.24
X80.264Y-35.56
X80.264Y-38.1
X80.264Y-40.64
X80.264Y-43.18
X80.264Y-45.72
X80.264Y-48.26
X80.264Y-50.8
X80.264Y-53.34
X80.264Y-55.88
X80.264Y-58.42
X80.264Y-60.96
X80.264Y-63.5
X80.264Y-66.04
X80.264Y-68.58
X80.264Y-71.12
X80.264Y-73.66
X80.264Y-76.2
X80.264Y-78.74
X80.264Y-81.28
X80.264Y-83.82
X80.264Y-86.36
X80.264Y-88.9
X80.264Y-91.44
X80.264Y-93.98
X80.264Y-96.52
X80.264Y-99.06
X80.264Y-101.6
X80.264Y-104.14
X80.264Y-106.68
X80.264Y-109.22
X80.264Y-111.76
X80.264Y-114.3
X80.264Y-116.84
X80.264Y-119.38
X80.264Y-121.92
X80.264Y-124.46
X80.264Y-127.0
X80.264Y-129.54
X80.264Y-132.08
X80.264Y-134.62
X82.804Y-35.56
X82.804Y-38.1
X82.804Y-40.64
X82.804Y-43.18
X82.804Y-45.72
X82.804Y-48.26
X82.804Y-50.8
X82.804Y-53.34
X82.804Y-55.88
X82.804Y-58.42
X82.804Y-60.96
X82.804Y-63.5
X82.804Y-66.04
X82.804Y-68.58
X82.804Y-71.12
X82.804Y-73.66
X82.804Y-76.2
X82.804Y-78.74
X82.804Y-81.28
X82.804Y-83.82
X82.804Y-86.36
X82.804Y-88.9
X82.804Y-91.44
X82.804Y-93.98
X82.804Y-96.52
X82.804Y-99.06
X82.804Y-101.6
X82.804Y-104.14
X82.804Y-106.68
X82.804Y-109.22
X82.804Y-111.76
X82.804Y-114.3
X82.804Y-116.84
X82.804Y-119.38
X82.804Y-121.92
X82.804Y-124.46
X82.804Y-127.0
X82.804Y-129.54
X82.804Y-132.08
X82.804Y-134.62
X116.707Y-102.73
X120.707Y-102.73
X124.707Y-102.73
T3
X84.074Y-139.7
X84.074Y-142.24
X169.926Y-90.424
X169.926Y-92.964
X120.904Y-90.424
X120.904Y-92.964
X153.67Y-90.424
X153.67Y-92.964
X88.646Y-139.7
X88.646Y-142.24
X137.107Y-90.46
X137.107Y-93.0
X79.502Y-139.7
X79.502Y-142.24
T4
X156.17Y-109.126
X156.17Y-117.426
X156.17Y-120.526
X125.72Y-109.126
X125.72Y-117.426
X125.72Y-120.526
X166.37Y-109.126
X166.37Y-117.426
X166.37Y-120.526
X156.17Y-120.438
X156.17Y-123.538
X156.17Y-131.838
X135.87Y-120.438
X135.87Y-123.538
X135.87Y-131.838
X125.72Y-120.438
X125.72Y-123.538
X125.72Y-131.838
X115.57Y-109.126
X115.57Y-117.426
X115.57Y-120.526
X176.784Y-109.126
X176.784Y-117.426
X176.784Y-120.526
X146.02Y-109.126
X146.02Y-117.426
X146.02Y-120.526
X166.37Y-120.52
X166.37Y-123.62
X166.37Y-131.92
X146.02Y-120.438
X146.02Y-123.538
X146.02Y-131.838
X135.87Y-109.126
X135.87Y-117.426
X135.87Y-120.526
X176.784Y-120.52
X176.784Y-123.62
X176.784Y-131.92
X115.57Y-120.438
X115.57Y-123.538
X115.57Y-131.838
T5
G00X160.207Y-91.53
M15
G01X160.207Y-91.93
M16
G05
G00X114.007Y-91.93
M15
G01X114.007Y-91.53
M16
G05
G00X127.407Y-91.53
M15
G01X127.407Y-91.93
M16
G05
G00X130.407Y-91.93
M15
G01X130.407Y-91.53
M16
G05
G00X143.807Y-91.53
M15
G01X143.807Y-91.93
M16
G05
G00X163.207Y-91.93
M15
G01X163.207Y-91.53
M16
G05
G00X176.607Y-91.53
M15
G01X176.607Y-91.93
M16
G05
G00X146.807Y-91.93
M15
G01X146.807Y-91.53
M16
G05
T0
M30
