%TF.GenerationSoftware,KiCad,Pcbnew,(5.1.6-0)*%
%TF.CreationDate,2023-02-20T11:30:03-05:00*%
%TF.ProjectId,Test Board Euro,54657374-2042-46f6-9172-64204575726f,rev?*%
%TF.SameCoordinates,Original*%
%TF.FileFunction,Legend,Top*%
%TF.FilePolarity,Positive*%
%FSLAX46Y46*%
G04 Gerber Fmt 4.6, Leading zero omitted, Abs format (unit mm)*
G04 Created by KiCad (PCBNEW (5.1.6-0)) date 2023-02-20 11:30:03*
%MOMM*%
%LPD*%
G01*
G04 APERTURE LIST*
%ADD10C,0.500000*%
%ADD11C,0.120000*%
%ADD12C,1.000000*%
%ADD13C,0.150000*%
%ADD14C,3.000000*%
%ADD15C,0.100000*%
G04 APERTURE END LIST*
D10*
X181102000Y-105410000D02*
X177800000Y-105410000D01*
X181102000Y-62992000D02*
X181102000Y-105410000D01*
X182626000Y-61468000D02*
X181102000Y-62992000D01*
X182626000Y-46482000D02*
X182626000Y-61468000D01*
X184658000Y-39370000D02*
X182626000Y-46482000D01*
D11*
X161798000Y-63500000D02*
X161798000Y-64008000D01*
D10*
X163830000Y-61468000D02*
X161798000Y-63500000D01*
X163830000Y-46482000D02*
X163830000Y-61468000D01*
X161798000Y-105156000D02*
X161798000Y-64008000D01*
X166878000Y-39370000D02*
X163830000Y-46482000D01*
X145288000Y-46482000D02*
X149098000Y-39370000D01*
X145288000Y-62230000D02*
X145288000Y-46482000D01*
X145288000Y-105410000D02*
X145288000Y-62230000D01*
X129032000Y-46736000D02*
X131318000Y-39370000D01*
X129032000Y-63500000D02*
X129032000Y-46736000D01*
X129032000Y-105156000D02*
X129032000Y-63500000D01*
D12*
X192532000Y-33020000D02*
X189484000Y-33020000D01*
X89408000Y-32512000D02*
X86360000Y-32512000D01*
D10*
X111252000Y-105410000D02*
X177800000Y-105410000D01*
X111252000Y-86106000D02*
X111252000Y-105410000D01*
X111252000Y-93980000D02*
X100584000Y-93980000D01*
X111252000Y-46736000D02*
X111252000Y-86106000D01*
X113538000Y-39370000D02*
X111252000Y-46736000D01*
D11*
X113792000Y-39370000D02*
X113538000Y-39370000D01*
D10*
X100330000Y-40640000D02*
X84074000Y-40640000D01*
X100330000Y-93980000D02*
X100330000Y-40640000D01*
D13*
X87106285Y-145867428D02*
X87868190Y-145867428D01*
X87487238Y-146248380D02*
X87487238Y-145486476D01*
X88820571Y-145248380D02*
X88344380Y-145248380D01*
X88296761Y-145724571D01*
X88344380Y-145676952D01*
X88439619Y-145629333D01*
X88677714Y-145629333D01*
X88772952Y-145676952D01*
X88820571Y-145724571D01*
X88868190Y-145819809D01*
X88868190Y-146057904D01*
X88820571Y-146153142D01*
X88772952Y-146200761D01*
X88677714Y-146248380D01*
X88439619Y-146248380D01*
X88344380Y-146200761D01*
X88296761Y-146153142D01*
X89153904Y-145248380D02*
X89487238Y-146248380D01*
X89820571Y-145248380D01*
X81804095Y-146121428D02*
X82566000Y-146121428D01*
X83566000Y-146502380D02*
X82994571Y-146502380D01*
X83280285Y-146502380D02*
X83280285Y-145502380D01*
X83185047Y-145645238D01*
X83089809Y-145740476D01*
X82994571Y-145788095D01*
X83946952Y-145597619D02*
X83994571Y-145550000D01*
X84089809Y-145502380D01*
X84327904Y-145502380D01*
X84423142Y-145550000D01*
X84470761Y-145597619D01*
X84518380Y-145692857D01*
X84518380Y-145788095D01*
X84470761Y-145930952D01*
X83899333Y-146502380D01*
X84518380Y-146502380D01*
X84804095Y-145502380D02*
X85137428Y-146502380D01*
X85470761Y-145502380D01*
X77232095Y-146121428D02*
X77994000Y-146121428D01*
X77613047Y-146502380D02*
X77613047Y-145740476D01*
X78994000Y-146502380D02*
X78422571Y-146502380D01*
X78708285Y-146502380D02*
X78708285Y-145502380D01*
X78613047Y-145645238D01*
X78517809Y-145740476D01*
X78422571Y-145788095D01*
X79374952Y-145597619D02*
X79422571Y-145550000D01*
X79517809Y-145502380D01*
X79755904Y-145502380D01*
X79851142Y-145550000D01*
X79898761Y-145597619D01*
X79946380Y-145692857D01*
X79946380Y-145788095D01*
X79898761Y-145930952D01*
X79327333Y-146502380D01*
X79946380Y-146502380D01*
X80232095Y-145502380D02*
X80565428Y-146502380D01*
X80898761Y-145502380D01*
D14*
X86614000Y-135890000D02*
X86614000Y-124714000D01*
D12*
X83058000Y-32766000D02*
X80010000Y-32766000D01*
D13*
X194278285Y-139851380D02*
X194849714Y-139851380D01*
X194564000Y-140851380D02*
X194564000Y-139851380D01*
X194873523Y-142501380D02*
X194540190Y-142025190D01*
X194302095Y-142501380D02*
X194302095Y-141501380D01*
X194683047Y-141501380D01*
X194778285Y-141549000D01*
X194825904Y-141596619D01*
X194873523Y-141691857D01*
X194873523Y-141834714D01*
X194825904Y-141929952D01*
X194778285Y-141977571D01*
X194683047Y-142025190D01*
X194302095Y-142025190D01*
D10*
X186436000Y-95250000D02*
X186436000Y-135890000D01*
X186436000Y-75438000D02*
X186436000Y-40640000D01*
D13*
X186269333Y-77161428D02*
X186269333Y-77637619D01*
X185983619Y-77066190D02*
X186983619Y-77399523D01*
X185983619Y-77732857D01*
X186983619Y-78066190D02*
X186174095Y-78066190D01*
X186078857Y-78113809D01*
X186031238Y-78161428D01*
X185983619Y-78256666D01*
X185983619Y-78447142D01*
X186031238Y-78542380D01*
X186078857Y-78590000D01*
X186174095Y-78637619D01*
X186983619Y-78637619D01*
X186983619Y-79018571D02*
X185983619Y-79685238D01*
X186983619Y-79685238D02*
X185983619Y-79018571D01*
X185983619Y-80828095D02*
X186983619Y-80828095D01*
X186983619Y-81209047D01*
X186936000Y-81304285D01*
X186888380Y-81351904D01*
X186793142Y-81399523D01*
X186650285Y-81399523D01*
X186555047Y-81351904D01*
X186507428Y-81304285D01*
X186459809Y-81209047D01*
X186459809Y-80828095D01*
X186269333Y-81780476D02*
X186269333Y-82256666D01*
X185983619Y-81685238D02*
X186983619Y-82018571D01*
X185983619Y-82351904D01*
X185983619Y-82685238D02*
X186983619Y-82685238D01*
X185983619Y-83732857D02*
X186459809Y-83399523D01*
X185983619Y-83161428D02*
X186983619Y-83161428D01*
X186983619Y-83542380D01*
X186936000Y-83637619D01*
X186888380Y-83685238D01*
X186793142Y-83732857D01*
X186650285Y-83732857D01*
X186555047Y-83685238D01*
X186507428Y-83637619D01*
X186459809Y-83542380D01*
X186459809Y-83161428D01*
X186507428Y-84161428D02*
X186507428Y-84494761D01*
X185983619Y-84637619D02*
X185983619Y-84161428D01*
X186983619Y-84161428D01*
X186983619Y-84637619D01*
X185983619Y-85066190D02*
X186983619Y-85066190D01*
X186983619Y-85304285D01*
X186936000Y-85447142D01*
X186840761Y-85542380D01*
X186745523Y-85590000D01*
X186555047Y-85637619D01*
X186412190Y-85637619D01*
X186221714Y-85590000D01*
X186126476Y-85542380D01*
X186031238Y-85447142D01*
X185983619Y-85304285D01*
X185983619Y-85066190D01*
X186031238Y-86780476D02*
X185983619Y-86923333D01*
X185983619Y-87161428D01*
X186031238Y-87256666D01*
X186078857Y-87304285D01*
X186174095Y-87351904D01*
X186269333Y-87351904D01*
X186364571Y-87304285D01*
X186412190Y-87256666D01*
X186459809Y-87161428D01*
X186507428Y-86970952D01*
X186555047Y-86875714D01*
X186602666Y-86828095D01*
X186697904Y-86780476D01*
X186793142Y-86780476D01*
X186888380Y-86828095D01*
X186936000Y-86875714D01*
X186983619Y-86970952D01*
X186983619Y-87209047D01*
X186936000Y-87351904D01*
X186983619Y-87970952D02*
X186983619Y-88161428D01*
X186936000Y-88256666D01*
X186840761Y-88351904D01*
X186650285Y-88399523D01*
X186316952Y-88399523D01*
X186126476Y-88351904D01*
X186031238Y-88256666D01*
X185983619Y-88161428D01*
X185983619Y-87970952D01*
X186031238Y-87875714D01*
X186126476Y-87780476D01*
X186316952Y-87732857D01*
X186650285Y-87732857D01*
X186840761Y-87780476D01*
X186936000Y-87875714D01*
X186983619Y-87970952D01*
X186078857Y-89399523D02*
X186031238Y-89351904D01*
X185983619Y-89209047D01*
X185983619Y-89113809D01*
X186031238Y-88970952D01*
X186126476Y-88875714D01*
X186221714Y-88828095D01*
X186412190Y-88780476D01*
X186555047Y-88780476D01*
X186745523Y-88828095D01*
X186840761Y-88875714D01*
X186936000Y-88970952D01*
X186983619Y-89113809D01*
X186983619Y-89209047D01*
X186936000Y-89351904D01*
X186888380Y-89399523D01*
X185983619Y-89828095D02*
X186983619Y-89828095D01*
X185983619Y-90399523D02*
X186555047Y-89970952D01*
X186983619Y-90399523D02*
X186412190Y-89828095D01*
X186507428Y-90828095D02*
X186507428Y-91161428D01*
X185983619Y-91304285D02*
X185983619Y-90828095D01*
X186983619Y-90828095D01*
X186983619Y-91304285D01*
X186983619Y-91590000D02*
X186983619Y-92161428D01*
X185983619Y-91875714D02*
X186983619Y-91875714D01*
X186031238Y-92447142D02*
X185983619Y-92590000D01*
X185983619Y-92828095D01*
X186031238Y-92923333D01*
X186078857Y-92970952D01*
X186174095Y-93018571D01*
X186269333Y-93018571D01*
X186364571Y-92970952D01*
X186412190Y-92923333D01*
X186459809Y-92828095D01*
X186507428Y-92637619D01*
X186555047Y-92542380D01*
X186602666Y-92494761D01*
X186697904Y-92447142D01*
X186793142Y-92447142D01*
X186888380Y-92494761D01*
X186936000Y-92542380D01*
X186983619Y-92637619D01*
X186983619Y-92875714D01*
X186936000Y-93018571D01*
D11*
X128270000Y-31496000D02*
X131826000Y-31496000D01*
X146050000Y-31496000D02*
X149352000Y-31496000D01*
X181610000Y-31242000D02*
X185420000Y-31242000D01*
X163830000Y-31242000D02*
X167386000Y-31242000D01*
D13*
X99123523Y-121880380D02*
X98647333Y-121880380D01*
X98599714Y-122356571D01*
X98647333Y-122308952D01*
X98742571Y-122261333D01*
X98980666Y-122261333D01*
X99075904Y-122308952D01*
X99123523Y-122356571D01*
X99171142Y-122451809D01*
X99171142Y-122689904D01*
X99123523Y-122785142D01*
X99075904Y-122832761D01*
X98980666Y-122880380D01*
X98742571Y-122880380D01*
X98647333Y-122832761D01*
X98599714Y-122785142D01*
X99456857Y-121880380D02*
X99790190Y-122880380D01*
X100123523Y-121880380D01*
X94250095Y-122499428D02*
X95012000Y-122499428D01*
X94631047Y-122880380D02*
X94631047Y-122118476D01*
X96012000Y-122880380D02*
X95440571Y-122880380D01*
X95726285Y-122880380D02*
X95726285Y-121880380D01*
X95631047Y-122023238D01*
X95535809Y-122118476D01*
X95440571Y-122166095D01*
X96392952Y-121975619D02*
X96440571Y-121928000D01*
X96535809Y-121880380D01*
X96773904Y-121880380D01*
X96869142Y-121928000D01*
X96916761Y-121975619D01*
X96964380Y-122070857D01*
X96964380Y-122166095D01*
X96916761Y-122308952D01*
X96345333Y-122880380D01*
X96964380Y-122880380D01*
X97250095Y-121880380D02*
X97583428Y-122880380D01*
X97916761Y-121880380D01*
X90932095Y-121928000D02*
X90836857Y-121880380D01*
X90694000Y-121880380D01*
X90551142Y-121928000D01*
X90455904Y-122023238D01*
X90408285Y-122118476D01*
X90360666Y-122308952D01*
X90360666Y-122451809D01*
X90408285Y-122642285D01*
X90455904Y-122737523D01*
X90551142Y-122832761D01*
X90694000Y-122880380D01*
X90789238Y-122880380D01*
X90932095Y-122832761D01*
X90979714Y-122785142D01*
X90979714Y-122451809D01*
X90789238Y-122451809D01*
X91408285Y-122880380D02*
X91408285Y-121880380D01*
X91979714Y-122880380D01*
X91979714Y-121880380D01*
X92455904Y-122880380D02*
X92455904Y-121880380D01*
X92694000Y-121880380D01*
X92836857Y-121928000D01*
X92932095Y-122023238D01*
X92979714Y-122118476D01*
X93027333Y-122308952D01*
X93027333Y-122451809D01*
X92979714Y-122642285D01*
X92932095Y-122737523D01*
X92836857Y-122832761D01*
X92694000Y-122880380D01*
X92455904Y-122880380D01*
X84598095Y-122499428D02*
X85360000Y-122499428D01*
X86360000Y-122880380D02*
X85788571Y-122880380D01*
X86074285Y-122880380D02*
X86074285Y-121880380D01*
X85979047Y-122023238D01*
X85883809Y-122118476D01*
X85788571Y-122166095D01*
X86740952Y-121975619D02*
X86788571Y-121928000D01*
X86883809Y-121880380D01*
X87121904Y-121880380D01*
X87217142Y-121928000D01*
X87264761Y-121975619D01*
X87312380Y-122070857D01*
X87312380Y-122166095D01*
X87264761Y-122308952D01*
X86693333Y-122880380D01*
X87312380Y-122880380D01*
X87598095Y-121880380D02*
X87931428Y-122880380D01*
X88264761Y-121880380D01*
D10*
X83058000Y-93980000D02*
X100330000Y-93980000D01*
D11*
X180594000Y-143510000D02*
X180594000Y-146050000D01*
X183134000Y-143510000D02*
X183134000Y-146050000D01*
X185674000Y-143510000D02*
X185674000Y-146050000D01*
X188214000Y-143510000D02*
X188214000Y-146050000D01*
X190754000Y-143764000D02*
X190754000Y-143510000D01*
X190754000Y-143764000D02*
X190754000Y-146050000D01*
X193294000Y-146050000D02*
X193294000Y-143764000D01*
X178308000Y-146050000D02*
X193294000Y-146050000D01*
X187198000Y-33528000D02*
X185420000Y-33528000D01*
X187198000Y-29210000D02*
X187198000Y-33528000D01*
X186944000Y-29210000D02*
X187198000Y-29210000D01*
X185420000Y-29210000D02*
X186944000Y-29210000D01*
X88138000Y-31496000D02*
X88138000Y-33528000D01*
X85598000Y-31496000D02*
X90678000Y-31496000D01*
X85598000Y-33528000D02*
X85598000Y-31496000D01*
X90678000Y-33528000D02*
X85598000Y-33528000D01*
X109474000Y-143510000D02*
X109474000Y-146050000D01*
X106934000Y-143510000D02*
X106934000Y-146050000D01*
X104394000Y-143510000D02*
X104394000Y-146050000D01*
X101854000Y-143510000D02*
X101854000Y-146050000D01*
X99314000Y-143510000D02*
X99314000Y-146050000D01*
X96774000Y-143510000D02*
X96774000Y-146050000D01*
X94234000Y-143510000D02*
X94234000Y-146050000D01*
X91694000Y-146050000D02*
X91694000Y-143764000D01*
X112014000Y-146050000D02*
X91694000Y-146050000D01*
X114300000Y-143510000D02*
X114300000Y-146050000D01*
X117094000Y-143510000D02*
X117094000Y-146050000D01*
X119634000Y-143510000D02*
X119634000Y-146050000D01*
X122174000Y-143510000D02*
X122174000Y-146050000D01*
X124714000Y-143510000D02*
X124714000Y-146050000D01*
X127254000Y-143510000D02*
X127254000Y-146050000D01*
X129794000Y-143510000D02*
X129794000Y-146050000D01*
X132080000Y-143510000D02*
X132080000Y-146050000D01*
X134874000Y-143510000D02*
X134874000Y-146050000D01*
X137414000Y-143510000D02*
X137414000Y-146050000D01*
X139954000Y-143510000D02*
X139954000Y-146050000D01*
X142494000Y-143510000D02*
X142494000Y-146050000D01*
X144526000Y-143510000D02*
X144526000Y-146050000D01*
X147574000Y-143510000D02*
X147574000Y-146050000D01*
X150114000Y-143510000D02*
X150114000Y-146050000D01*
X152654000Y-143510000D02*
X152654000Y-146050000D01*
X155194000Y-143510000D02*
X155194000Y-146050000D01*
X157734000Y-143510000D02*
X157734000Y-146050000D01*
X160274000Y-143510000D02*
X160274000Y-146050000D01*
X162560000Y-143510000D02*
X162560000Y-146050000D01*
X165354000Y-143510000D02*
X165354000Y-146050000D01*
X168402000Y-143510000D02*
X168402000Y-146050000D01*
X170434000Y-143510000D02*
X170434000Y-146050000D01*
X172466000Y-143510000D02*
X172466000Y-146050000D01*
X175514000Y-143510000D02*
X175514000Y-146050000D01*
X178308000Y-143764000D02*
X178308000Y-143510000D01*
X178308000Y-146050000D02*
X178308000Y-143764000D01*
X112014000Y-146050000D02*
X178308000Y-146050000D01*
X112014000Y-143510000D02*
X112014000Y-146050000D01*
D13*
X175974476Y-144232380D02*
X175974476Y-144946666D01*
X175926857Y-145089523D01*
X175831619Y-145184761D01*
X175688761Y-145232380D01*
X175593523Y-145232380D01*
X176974476Y-145232380D02*
X176403047Y-145232380D01*
X176688761Y-145232380D02*
X176688761Y-144232380D01*
X176593523Y-144375238D01*
X176498285Y-144470476D01*
X176403047Y-144518095D01*
X177831619Y-144565714D02*
X177831619Y-145232380D01*
X177593523Y-144184761D02*
X177355428Y-144899047D01*
X177974476Y-144899047D01*
X173180476Y-144232380D02*
X173180476Y-144946666D01*
X173132857Y-145089523D01*
X173037619Y-145184761D01*
X172894761Y-145232380D01*
X172799523Y-145232380D01*
X174180476Y-145232380D02*
X173609047Y-145232380D01*
X173894761Y-145232380D02*
X173894761Y-144232380D01*
X173799523Y-144375238D01*
X173704285Y-144470476D01*
X173609047Y-144518095D01*
X175085238Y-144232380D02*
X174609047Y-144232380D01*
X174561428Y-144708571D01*
X174609047Y-144660952D01*
X174704285Y-144613333D01*
X174942380Y-144613333D01*
X175037619Y-144660952D01*
X175085238Y-144708571D01*
X175132857Y-144803809D01*
X175132857Y-145041904D01*
X175085238Y-145137142D01*
X175037619Y-145184761D01*
X174942380Y-145232380D01*
X174704285Y-145232380D01*
X174609047Y-145184761D01*
X174561428Y-145137142D01*
X166068476Y-144232380D02*
X166068476Y-144946666D01*
X166020857Y-145089523D01*
X165925619Y-145184761D01*
X165782761Y-145232380D01*
X165687523Y-145232380D01*
X167068476Y-145232380D02*
X166497047Y-145232380D01*
X166782761Y-145232380D02*
X166782761Y-144232380D01*
X166687523Y-144375238D01*
X166592285Y-144470476D01*
X166497047Y-144518095D01*
X167401809Y-144232380D02*
X168020857Y-144232380D01*
X167687523Y-144613333D01*
X167830380Y-144613333D01*
X167925619Y-144660952D01*
X167973238Y-144708571D01*
X168020857Y-144803809D01*
X168020857Y-145041904D01*
X167973238Y-145137142D01*
X167925619Y-145184761D01*
X167830380Y-145232380D01*
X167544666Y-145232380D01*
X167449428Y-145184761D01*
X167401809Y-145137142D01*
X163274476Y-144232380D02*
X163274476Y-144946666D01*
X163226857Y-145089523D01*
X163131619Y-145184761D01*
X162988761Y-145232380D01*
X162893523Y-145232380D01*
X164274476Y-145232380D02*
X163703047Y-145232380D01*
X163988761Y-145232380D02*
X163988761Y-144232380D01*
X163893523Y-144375238D01*
X163798285Y-144470476D01*
X163703047Y-144518095D01*
X164655428Y-144327619D02*
X164703047Y-144280000D01*
X164798285Y-144232380D01*
X165036380Y-144232380D01*
X165131619Y-144280000D01*
X165179238Y-144327619D01*
X165226857Y-144422857D01*
X165226857Y-144518095D01*
X165179238Y-144660952D01*
X164607809Y-145232380D01*
X165226857Y-145232380D01*
X155654476Y-144232380D02*
X155654476Y-144946666D01*
X155606857Y-145089523D01*
X155511619Y-145184761D01*
X155368761Y-145232380D01*
X155273523Y-145232380D01*
X156654476Y-145232380D02*
X156083047Y-145232380D01*
X156368761Y-145232380D02*
X156368761Y-144232380D01*
X156273523Y-144375238D01*
X156178285Y-144470476D01*
X156083047Y-144518095D01*
X157606857Y-145232380D02*
X157035428Y-145232380D01*
X157321142Y-145232380D02*
X157321142Y-144232380D01*
X157225904Y-144375238D01*
X157130666Y-144470476D01*
X157035428Y-144518095D01*
X153336666Y-144232380D02*
X153336666Y-144946666D01*
X153289047Y-145089523D01*
X153193809Y-145184761D01*
X153050952Y-145232380D01*
X152955714Y-145232380D01*
X153860476Y-145232380D02*
X154050952Y-145232380D01*
X154146190Y-145184761D01*
X154193809Y-145137142D01*
X154289047Y-144994285D01*
X154336666Y-144803809D01*
X154336666Y-144422857D01*
X154289047Y-144327619D01*
X154241428Y-144280000D01*
X154146190Y-144232380D01*
X153955714Y-144232380D01*
X153860476Y-144280000D01*
X153812857Y-144327619D01*
X153765238Y-144422857D01*
X153765238Y-144660952D01*
X153812857Y-144756190D01*
X153860476Y-144803809D01*
X153955714Y-144851428D01*
X154146190Y-144851428D01*
X154241428Y-144803809D01*
X154289047Y-144756190D01*
X154336666Y-144660952D01*
X145240476Y-144232380D02*
X145240476Y-144946666D01*
X145192857Y-145089523D01*
X145097619Y-145184761D01*
X144954761Y-145232380D01*
X144859523Y-145232380D01*
X146240476Y-145232380D02*
X145669047Y-145232380D01*
X145954761Y-145232380D02*
X145954761Y-144232380D01*
X145859523Y-144375238D01*
X145764285Y-144470476D01*
X145669047Y-144518095D01*
X146859523Y-144232380D02*
X146954761Y-144232380D01*
X147050000Y-144280000D01*
X147097619Y-144327619D01*
X147145238Y-144422857D01*
X147192857Y-144613333D01*
X147192857Y-144851428D01*
X147145238Y-145041904D01*
X147097619Y-145137142D01*
X147050000Y-145184761D01*
X146954761Y-145232380D01*
X146859523Y-145232380D01*
X146764285Y-145184761D01*
X146716666Y-145137142D01*
X146669047Y-145041904D01*
X146621428Y-144851428D01*
X146621428Y-144613333D01*
X146669047Y-144422857D01*
X146716666Y-144327619D01*
X146764285Y-144280000D01*
X146859523Y-144232380D01*
X143176666Y-144232380D02*
X143176666Y-144946666D01*
X143129047Y-145089523D01*
X143033809Y-145184761D01*
X142890952Y-145232380D01*
X142795714Y-145232380D01*
X143795714Y-144660952D02*
X143700476Y-144613333D01*
X143652857Y-144565714D01*
X143605238Y-144470476D01*
X143605238Y-144422857D01*
X143652857Y-144327619D01*
X143700476Y-144280000D01*
X143795714Y-144232380D01*
X143986190Y-144232380D01*
X144081428Y-144280000D01*
X144129047Y-144327619D01*
X144176666Y-144422857D01*
X144176666Y-144470476D01*
X144129047Y-144565714D01*
X144081428Y-144613333D01*
X143986190Y-144660952D01*
X143795714Y-144660952D01*
X143700476Y-144708571D01*
X143652857Y-144756190D01*
X143605238Y-144851428D01*
X143605238Y-145041904D01*
X143652857Y-145137142D01*
X143700476Y-145184761D01*
X143795714Y-145232380D01*
X143986190Y-145232380D01*
X144081428Y-145184761D01*
X144129047Y-145137142D01*
X144176666Y-145041904D01*
X144176666Y-144851428D01*
X144129047Y-144756190D01*
X144081428Y-144708571D01*
X143986190Y-144660952D01*
X135810666Y-144232380D02*
X135810666Y-144946666D01*
X135763047Y-145089523D01*
X135667809Y-145184761D01*
X135524952Y-145232380D01*
X135429714Y-145232380D01*
X136191619Y-144232380D02*
X136858285Y-144232380D01*
X136429714Y-145232380D01*
X133016666Y-144232380D02*
X133016666Y-144946666D01*
X132969047Y-145089523D01*
X132873809Y-145184761D01*
X132730952Y-145232380D01*
X132635714Y-145232380D01*
X133921428Y-144565714D02*
X133921428Y-145232380D01*
X133683333Y-144184761D02*
X133445238Y-144899047D01*
X134064285Y-144899047D01*
X125650666Y-144486380D02*
X125650666Y-145200666D01*
X125603047Y-145343523D01*
X125507809Y-145438761D01*
X125364952Y-145486380D01*
X125269714Y-145486380D01*
X126603047Y-144486380D02*
X126126857Y-144486380D01*
X126079238Y-144962571D01*
X126126857Y-144914952D01*
X126222095Y-144867333D01*
X126460190Y-144867333D01*
X126555428Y-144914952D01*
X126603047Y-144962571D01*
X126650666Y-145057809D01*
X126650666Y-145295904D01*
X126603047Y-145391142D01*
X126555428Y-145438761D01*
X126460190Y-145486380D01*
X126222095Y-145486380D01*
X126126857Y-145438761D01*
X126079238Y-145391142D01*
X123110666Y-144486380D02*
X123110666Y-145200666D01*
X123063047Y-145343523D01*
X122967809Y-145438761D01*
X122824952Y-145486380D01*
X122729714Y-145486380D01*
X123491619Y-144486380D02*
X124110666Y-144486380D01*
X123777333Y-144867333D01*
X123920190Y-144867333D01*
X124015428Y-144914952D01*
X124063047Y-144962571D01*
X124110666Y-145057809D01*
X124110666Y-145295904D01*
X124063047Y-145391142D01*
X124015428Y-145438761D01*
X123920190Y-145486380D01*
X123634476Y-145486380D01*
X123539238Y-145438761D01*
X123491619Y-145391142D01*
X115236666Y-144486380D02*
X115236666Y-145200666D01*
X115189047Y-145343523D01*
X115093809Y-145438761D01*
X114950952Y-145486380D01*
X114855714Y-145486380D01*
X115665238Y-144581619D02*
X115712857Y-144534000D01*
X115808095Y-144486380D01*
X116046190Y-144486380D01*
X116141428Y-144534000D01*
X116189047Y-144581619D01*
X116236666Y-144676857D01*
X116236666Y-144772095D01*
X116189047Y-144914952D01*
X115617619Y-145486380D01*
X116236666Y-145486380D01*
X112950666Y-144486380D02*
X112950666Y-145200666D01*
X112903047Y-145343523D01*
X112807809Y-145438761D01*
X112664952Y-145486380D01*
X112569714Y-145486380D01*
X113950666Y-145486380D02*
X113379238Y-145486380D01*
X113664952Y-145486380D02*
X113664952Y-144486380D01*
X113569714Y-144629238D01*
X113474476Y-144724476D01*
X113379238Y-144772095D01*
D11*
X86106000Y-74930000D02*
X86106000Y-92710000D01*
X88392000Y-90424000D02*
X84074000Y-90424000D01*
X88392000Y-87630000D02*
X84074000Y-87630000D01*
X88392000Y-85090000D02*
X84074000Y-85090000D01*
X88392000Y-82550000D02*
X84074000Y-82550000D01*
X88392000Y-79756000D02*
X84074000Y-79756000D01*
X84074000Y-77216000D02*
X88392000Y-77216000D01*
X84074000Y-75184000D02*
X84074000Y-74930000D01*
X84074000Y-92710000D02*
X84074000Y-75184000D01*
X88392000Y-92710000D02*
X84074000Y-92710000D01*
X88392000Y-74930000D02*
X88392000Y-92710000D01*
X84074000Y-74930000D02*
X88392000Y-74930000D01*
X88392000Y-65024000D02*
X84074000Y-65024000D01*
X88646000Y-67818000D02*
X84074000Y-67818000D01*
X88646000Y-67564000D02*
X88646000Y-67818000D01*
X88646000Y-70612000D02*
X84074000Y-70612000D01*
X84074000Y-62230000D02*
X88646000Y-62230000D01*
X88392000Y-57404000D02*
X88646000Y-57404000D01*
X84074000Y-59690000D02*
X88646000Y-59690000D01*
X84074000Y-57404000D02*
X88392000Y-57404000D01*
X86360000Y-72898000D02*
X86360000Y-55118000D01*
X88646000Y-72898000D02*
X84074000Y-72898000D01*
X88646000Y-55118000D02*
X88646000Y-72898000D01*
X84074000Y-55118000D02*
X88646000Y-55118000D01*
X86360000Y-41910000D02*
X86360000Y-52324000D01*
X88646000Y-44196000D02*
X84074000Y-44196000D01*
X88646000Y-46736000D02*
X84074000Y-46736000D01*
X88646000Y-49530000D02*
X84074000Y-49530000D01*
X88646000Y-52324000D02*
X84074000Y-52324000D01*
X88646000Y-41910000D02*
X88646000Y-52324000D01*
X88138000Y-41910000D02*
X88646000Y-41910000D01*
X84074000Y-41910000D02*
X84328000Y-41910000D01*
X84328000Y-41910000D02*
X88138000Y-41910000D01*
X98552000Y-31496000D02*
X98552000Y-33528000D01*
X106172000Y-31496000D02*
X106172000Y-33528000D01*
X90678000Y-33528000D02*
X113792000Y-33528000D01*
X90678000Y-31496000D02*
X90678000Y-33528000D01*
X91186000Y-31496000D02*
X90678000Y-31496000D01*
X113792000Y-31496000D02*
X91186000Y-31496000D01*
X181610000Y-31242000D02*
X181610000Y-33528000D01*
X181610000Y-31242000D02*
X181610000Y-29210000D01*
X174498000Y-31242000D02*
X181610000Y-31242000D01*
X174498000Y-29210000D02*
X174498000Y-33528000D01*
X167386000Y-29210000D02*
X167386000Y-33528000D01*
X163830000Y-31242000D02*
X156972000Y-31242000D01*
X163830000Y-33528000D02*
X163830000Y-31242000D01*
X163830000Y-29210000D02*
X163830000Y-33528000D01*
X156972000Y-29210000D02*
X156972000Y-33528000D01*
X149352000Y-29210000D02*
X149352000Y-33528000D01*
X146050000Y-31496000D02*
X146050000Y-33528000D01*
X146050000Y-31496000D02*
X146050000Y-29210000D01*
X138938000Y-31496000D02*
X146050000Y-31496000D01*
X138938000Y-29210000D02*
X138938000Y-33528000D01*
X131826000Y-29210000D02*
X131826000Y-33528000D01*
X128270000Y-33528000D02*
X128270000Y-31496000D01*
X128270000Y-29210000D02*
X128270000Y-31496000D01*
X128270000Y-31496000D02*
X128270000Y-29210000D01*
X121158000Y-31496000D02*
X128270000Y-31496000D01*
X121158000Y-33274000D02*
X121158000Y-33528000D01*
X121158000Y-29210000D02*
X121158000Y-33274000D01*
X185420000Y-33528000D02*
X185420000Y-32512000D01*
X113792000Y-33528000D02*
X185420000Y-33528000D01*
X113792000Y-29210000D02*
X113792000Y-33528000D01*
X185420000Y-29210000D02*
X113792000Y-29210000D01*
X185420000Y-32512000D02*
X185420000Y-29210000D01*
D13*
X182626095Y-29917000D02*
X182530857Y-29869380D01*
X182388000Y-29869380D01*
X182245142Y-29917000D01*
X182149904Y-30012238D01*
X182102285Y-30107476D01*
X182054666Y-30297952D01*
X182054666Y-30440809D01*
X182102285Y-30631285D01*
X182149904Y-30726523D01*
X182245142Y-30821761D01*
X182388000Y-30869380D01*
X182483238Y-30869380D01*
X182626095Y-30821761D01*
X182673714Y-30774142D01*
X182673714Y-30440809D01*
X182483238Y-30440809D01*
X183102285Y-30869380D02*
X183102285Y-29869380D01*
X183673714Y-30869380D01*
X183673714Y-29869380D01*
X184149904Y-30869380D02*
X184149904Y-29869380D01*
X184388000Y-29869380D01*
X184530857Y-29917000D01*
X184626095Y-30012238D01*
X184673714Y-30107476D01*
X184721333Y-30297952D01*
X184721333Y-30440809D01*
X184673714Y-30631285D01*
X184626095Y-30726523D01*
X184530857Y-30821761D01*
X184388000Y-30869380D01*
X184149904Y-30869380D01*
X182745142Y-32519380D02*
X182268952Y-32519380D01*
X182268952Y-31519380D01*
X183078476Y-31995571D02*
X183411809Y-31995571D01*
X183554666Y-32519380D02*
X183078476Y-32519380D01*
X183078476Y-31519380D01*
X183554666Y-31519380D01*
X183983238Y-32519380D02*
X183983238Y-31519380D01*
X184221333Y-31519380D01*
X184364190Y-31567000D01*
X184459428Y-31662238D01*
X184507047Y-31757476D01*
X184554666Y-31947952D01*
X184554666Y-32090809D01*
X184507047Y-32281285D01*
X184459428Y-32376523D01*
X184364190Y-32471761D01*
X184221333Y-32519380D01*
X183983238Y-32519380D01*
X164846095Y-29917000D02*
X164750857Y-29869380D01*
X164608000Y-29869380D01*
X164465142Y-29917000D01*
X164369904Y-30012238D01*
X164322285Y-30107476D01*
X164274666Y-30297952D01*
X164274666Y-30440809D01*
X164322285Y-30631285D01*
X164369904Y-30726523D01*
X164465142Y-30821761D01*
X164608000Y-30869380D01*
X164703238Y-30869380D01*
X164846095Y-30821761D01*
X164893714Y-30774142D01*
X164893714Y-30440809D01*
X164703238Y-30440809D01*
X165322285Y-30869380D02*
X165322285Y-29869380D01*
X165893714Y-30869380D01*
X165893714Y-29869380D01*
X166369904Y-30869380D02*
X166369904Y-29869380D01*
X166608000Y-29869380D01*
X166750857Y-29917000D01*
X166846095Y-30012238D01*
X166893714Y-30107476D01*
X166941333Y-30297952D01*
X166941333Y-30440809D01*
X166893714Y-30631285D01*
X166846095Y-30726523D01*
X166750857Y-30821761D01*
X166608000Y-30869380D01*
X166369904Y-30869380D01*
X164965142Y-32519380D02*
X164488952Y-32519380D01*
X164488952Y-31519380D01*
X165298476Y-31995571D02*
X165631809Y-31995571D01*
X165774666Y-32519380D02*
X165298476Y-32519380D01*
X165298476Y-31519380D01*
X165774666Y-31519380D01*
X166203238Y-32519380D02*
X166203238Y-31519380D01*
X166441333Y-31519380D01*
X166584190Y-31567000D01*
X166679428Y-31662238D01*
X166727047Y-31757476D01*
X166774666Y-31947952D01*
X166774666Y-32090809D01*
X166727047Y-32281285D01*
X166679428Y-32376523D01*
X166584190Y-32471761D01*
X166441333Y-32519380D01*
X166203238Y-32519380D01*
X147066095Y-30171000D02*
X146970857Y-30123380D01*
X146828000Y-30123380D01*
X146685142Y-30171000D01*
X146589904Y-30266238D01*
X146542285Y-30361476D01*
X146494666Y-30551952D01*
X146494666Y-30694809D01*
X146542285Y-30885285D01*
X146589904Y-30980523D01*
X146685142Y-31075761D01*
X146828000Y-31123380D01*
X146923238Y-31123380D01*
X147066095Y-31075761D01*
X147113714Y-31028142D01*
X147113714Y-30694809D01*
X146923238Y-30694809D01*
X147542285Y-31123380D02*
X147542285Y-30123380D01*
X148113714Y-31123380D01*
X148113714Y-30123380D01*
X148589904Y-31123380D02*
X148589904Y-30123380D01*
X148828000Y-30123380D01*
X148970857Y-30171000D01*
X149066095Y-30266238D01*
X149113714Y-30361476D01*
X149161333Y-30551952D01*
X149161333Y-30694809D01*
X149113714Y-30885285D01*
X149066095Y-30980523D01*
X148970857Y-31075761D01*
X148828000Y-31123380D01*
X148589904Y-31123380D01*
X147185142Y-32773380D02*
X146708952Y-32773380D01*
X146708952Y-31773380D01*
X147518476Y-32249571D02*
X147851809Y-32249571D01*
X147994666Y-32773380D02*
X147518476Y-32773380D01*
X147518476Y-31773380D01*
X147994666Y-31773380D01*
X148423238Y-32773380D02*
X148423238Y-31773380D01*
X148661333Y-31773380D01*
X148804190Y-31821000D01*
X148899428Y-31916238D01*
X148947047Y-32011476D01*
X148994666Y-32201952D01*
X148994666Y-32344809D01*
X148947047Y-32535285D01*
X148899428Y-32630523D01*
X148804190Y-32725761D01*
X148661333Y-32773380D01*
X148423238Y-32773380D01*
X129286095Y-30171000D02*
X129190857Y-30123380D01*
X129048000Y-30123380D01*
X128905142Y-30171000D01*
X128809904Y-30266238D01*
X128762285Y-30361476D01*
X128714666Y-30551952D01*
X128714666Y-30694809D01*
X128762285Y-30885285D01*
X128809904Y-30980523D01*
X128905142Y-31075761D01*
X129048000Y-31123380D01*
X129143238Y-31123380D01*
X129286095Y-31075761D01*
X129333714Y-31028142D01*
X129333714Y-30694809D01*
X129143238Y-30694809D01*
X129762285Y-31123380D02*
X129762285Y-30123380D01*
X130333714Y-31123380D01*
X130333714Y-30123380D01*
X130809904Y-31123380D02*
X130809904Y-30123380D01*
X131048000Y-30123380D01*
X131190857Y-30171000D01*
X131286095Y-30266238D01*
X131333714Y-30361476D01*
X131381333Y-30551952D01*
X131381333Y-30694809D01*
X131333714Y-30885285D01*
X131286095Y-30980523D01*
X131190857Y-31075761D01*
X131048000Y-31123380D01*
X130809904Y-31123380D01*
X129405142Y-32773380D02*
X128928952Y-32773380D01*
X128928952Y-31773380D01*
X129738476Y-32249571D02*
X130071809Y-32249571D01*
X130214666Y-32773380D02*
X129738476Y-32773380D01*
X129738476Y-31773380D01*
X130214666Y-31773380D01*
X130643238Y-32773380D02*
X130643238Y-31773380D01*
X130881333Y-31773380D01*
X131024190Y-31821000D01*
X131119428Y-31916238D01*
X131167047Y-32011476D01*
X131214666Y-32201952D01*
X131214666Y-32344809D01*
X131167047Y-32535285D01*
X131119428Y-32630523D01*
X131024190Y-32725761D01*
X130881333Y-32773380D01*
X130643238Y-32773380D01*
X176117523Y-30869380D02*
X175546095Y-30869380D01*
X175831809Y-30869380D02*
X175831809Y-29869380D01*
X175736571Y-30012238D01*
X175641333Y-30107476D01*
X175546095Y-30155095D01*
X178022285Y-29964619D02*
X178069904Y-29917000D01*
X178165142Y-29869380D01*
X178403238Y-29869380D01*
X178498476Y-29917000D01*
X178546095Y-29964619D01*
X178593714Y-30059857D01*
X178593714Y-30155095D01*
X178546095Y-30297952D01*
X177974666Y-30869380D01*
X178593714Y-30869380D01*
X180450857Y-29869380D02*
X181069904Y-29869380D01*
X180736571Y-30250333D01*
X180879428Y-30250333D01*
X180974666Y-30297952D01*
X181022285Y-30345571D01*
X181069904Y-30440809D01*
X181069904Y-30678904D01*
X181022285Y-30774142D01*
X180974666Y-30821761D01*
X180879428Y-30869380D01*
X180593714Y-30869380D01*
X180498476Y-30821761D01*
X180450857Y-30774142D01*
X176117523Y-32519380D02*
X175546095Y-32519380D01*
X175831809Y-32519380D02*
X175831809Y-31519380D01*
X175736571Y-31662238D01*
X175641333Y-31757476D01*
X175546095Y-31805095D01*
X178022285Y-31614619D02*
X178069904Y-31567000D01*
X178165142Y-31519380D01*
X178403238Y-31519380D01*
X178498476Y-31567000D01*
X178546095Y-31614619D01*
X178593714Y-31709857D01*
X178593714Y-31805095D01*
X178546095Y-31947952D01*
X177974666Y-32519380D01*
X178593714Y-32519380D01*
X180450857Y-31519380D02*
X181069904Y-31519380D01*
X180736571Y-31900333D01*
X180879428Y-31900333D01*
X180974666Y-31947952D01*
X181022285Y-31995571D01*
X181069904Y-32090809D01*
X181069904Y-32328904D01*
X181022285Y-32424142D01*
X180974666Y-32471761D01*
X180879428Y-32519380D01*
X180593714Y-32519380D01*
X180498476Y-32471761D01*
X180450857Y-32424142D01*
X158337523Y-30869380D02*
X157766095Y-30869380D01*
X158051809Y-30869380D02*
X158051809Y-29869380D01*
X157956571Y-30012238D01*
X157861333Y-30107476D01*
X157766095Y-30155095D01*
X160242285Y-29964619D02*
X160289904Y-29917000D01*
X160385142Y-29869380D01*
X160623238Y-29869380D01*
X160718476Y-29917000D01*
X160766095Y-29964619D01*
X160813714Y-30059857D01*
X160813714Y-30155095D01*
X160766095Y-30297952D01*
X160194666Y-30869380D01*
X160813714Y-30869380D01*
X162670857Y-29869380D02*
X163289904Y-29869380D01*
X162956571Y-30250333D01*
X163099428Y-30250333D01*
X163194666Y-30297952D01*
X163242285Y-30345571D01*
X163289904Y-30440809D01*
X163289904Y-30678904D01*
X163242285Y-30774142D01*
X163194666Y-30821761D01*
X163099428Y-30869380D01*
X162813714Y-30869380D01*
X162718476Y-30821761D01*
X162670857Y-30774142D01*
X158337523Y-32519380D02*
X157766095Y-32519380D01*
X158051809Y-32519380D02*
X158051809Y-31519380D01*
X157956571Y-31662238D01*
X157861333Y-31757476D01*
X157766095Y-31805095D01*
X160242285Y-31614619D02*
X160289904Y-31567000D01*
X160385142Y-31519380D01*
X160623238Y-31519380D01*
X160718476Y-31567000D01*
X160766095Y-31614619D01*
X160813714Y-31709857D01*
X160813714Y-31805095D01*
X160766095Y-31947952D01*
X160194666Y-32519380D01*
X160813714Y-32519380D01*
X162670857Y-31519380D02*
X163289904Y-31519380D01*
X162956571Y-31900333D01*
X163099428Y-31900333D01*
X163194666Y-31947952D01*
X163242285Y-31995571D01*
X163289904Y-32090809D01*
X163289904Y-32328904D01*
X163242285Y-32424142D01*
X163194666Y-32471761D01*
X163099428Y-32519380D01*
X162813714Y-32519380D01*
X162718476Y-32471761D01*
X162670857Y-32424142D01*
X140557523Y-31123380D02*
X139986095Y-31123380D01*
X140271809Y-31123380D02*
X140271809Y-30123380D01*
X140176571Y-30266238D01*
X140081333Y-30361476D01*
X139986095Y-30409095D01*
X142462285Y-30218619D02*
X142509904Y-30171000D01*
X142605142Y-30123380D01*
X142843238Y-30123380D01*
X142938476Y-30171000D01*
X142986095Y-30218619D01*
X143033714Y-30313857D01*
X143033714Y-30409095D01*
X142986095Y-30551952D01*
X142414666Y-31123380D01*
X143033714Y-31123380D01*
X144890857Y-30123380D02*
X145509904Y-30123380D01*
X145176571Y-30504333D01*
X145319428Y-30504333D01*
X145414666Y-30551952D01*
X145462285Y-30599571D01*
X145509904Y-30694809D01*
X145509904Y-30932904D01*
X145462285Y-31028142D01*
X145414666Y-31075761D01*
X145319428Y-31123380D01*
X145033714Y-31123380D01*
X144938476Y-31075761D01*
X144890857Y-31028142D01*
X140557523Y-32773380D02*
X139986095Y-32773380D01*
X140271809Y-32773380D02*
X140271809Y-31773380D01*
X140176571Y-31916238D01*
X140081333Y-32011476D01*
X139986095Y-32059095D01*
X142462285Y-31868619D02*
X142509904Y-31821000D01*
X142605142Y-31773380D01*
X142843238Y-31773380D01*
X142938476Y-31821000D01*
X142986095Y-31868619D01*
X143033714Y-31963857D01*
X143033714Y-32059095D01*
X142986095Y-32201952D01*
X142414666Y-32773380D01*
X143033714Y-32773380D01*
X144890857Y-31773380D02*
X145509904Y-31773380D01*
X145176571Y-32154333D01*
X145319428Y-32154333D01*
X145414666Y-32201952D01*
X145462285Y-32249571D01*
X145509904Y-32344809D01*
X145509904Y-32582904D01*
X145462285Y-32678142D01*
X145414666Y-32725761D01*
X145319428Y-32773380D01*
X145033714Y-32773380D01*
X144938476Y-32725761D01*
X144890857Y-32678142D01*
X122777523Y-31123380D02*
X122206095Y-31123380D01*
X122491809Y-31123380D02*
X122491809Y-30123380D01*
X122396571Y-30266238D01*
X122301333Y-30361476D01*
X122206095Y-30409095D01*
X124682285Y-30218619D02*
X124729904Y-30171000D01*
X124825142Y-30123380D01*
X125063238Y-30123380D01*
X125158476Y-30171000D01*
X125206095Y-30218619D01*
X125253714Y-30313857D01*
X125253714Y-30409095D01*
X125206095Y-30551952D01*
X124634666Y-31123380D01*
X125253714Y-31123380D01*
X127110857Y-30123380D02*
X127729904Y-30123380D01*
X127396571Y-30504333D01*
X127539428Y-30504333D01*
X127634666Y-30551952D01*
X127682285Y-30599571D01*
X127729904Y-30694809D01*
X127729904Y-30932904D01*
X127682285Y-31028142D01*
X127634666Y-31075761D01*
X127539428Y-31123380D01*
X127253714Y-31123380D01*
X127158476Y-31075761D01*
X127110857Y-31028142D01*
X122777523Y-32773380D02*
X122206095Y-32773380D01*
X122491809Y-32773380D02*
X122491809Y-31773380D01*
X122396571Y-31916238D01*
X122301333Y-32011476D01*
X122206095Y-32059095D01*
X124682285Y-31868619D02*
X124729904Y-31821000D01*
X124825142Y-31773380D01*
X125063238Y-31773380D01*
X125158476Y-31821000D01*
X125206095Y-31868619D01*
X125253714Y-31963857D01*
X125253714Y-32059095D01*
X125206095Y-32201952D01*
X124634666Y-32773380D01*
X125253714Y-32773380D01*
X127110857Y-31773380D02*
X127729904Y-31773380D01*
X127396571Y-32154333D01*
X127539428Y-32154333D01*
X127634666Y-32201952D01*
X127682285Y-32249571D01*
X127729904Y-32344809D01*
X127729904Y-32582904D01*
X127682285Y-32678142D01*
X127634666Y-32725761D01*
X127539428Y-32773380D01*
X127253714Y-32773380D01*
X127158476Y-32725761D01*
X127110857Y-32678142D01*
X168497523Y-30869380D02*
X167926095Y-30869380D01*
X168211809Y-30869380D02*
X168211809Y-29869380D01*
X168116571Y-30012238D01*
X168021333Y-30107476D01*
X167926095Y-30155095D01*
X170402285Y-29964619D02*
X170449904Y-29917000D01*
X170545142Y-29869380D01*
X170783238Y-29869380D01*
X170878476Y-29917000D01*
X170926095Y-29964619D01*
X170973714Y-30059857D01*
X170973714Y-30155095D01*
X170926095Y-30297952D01*
X170354666Y-30869380D01*
X170973714Y-30869380D01*
X172830857Y-29869380D02*
X173449904Y-29869380D01*
X173116571Y-30250333D01*
X173259428Y-30250333D01*
X173354666Y-30297952D01*
X173402285Y-30345571D01*
X173449904Y-30440809D01*
X173449904Y-30678904D01*
X173402285Y-30774142D01*
X173354666Y-30821761D01*
X173259428Y-30869380D01*
X172973714Y-30869380D01*
X172878476Y-30821761D01*
X172830857Y-30774142D01*
X168402285Y-31852714D02*
X168402285Y-32519380D01*
X168164190Y-31471761D02*
X167926095Y-32186047D01*
X168545142Y-32186047D01*
X170926095Y-31519380D02*
X170449904Y-31519380D01*
X170402285Y-31995571D01*
X170449904Y-31947952D01*
X170545142Y-31900333D01*
X170783238Y-31900333D01*
X170878476Y-31947952D01*
X170926095Y-31995571D01*
X170973714Y-32090809D01*
X170973714Y-32328904D01*
X170926095Y-32424142D01*
X170878476Y-32471761D01*
X170783238Y-32519380D01*
X170545142Y-32519380D01*
X170449904Y-32471761D01*
X170402285Y-32424142D01*
X173354666Y-31519380D02*
X173164190Y-31519380D01*
X173068952Y-31567000D01*
X173021333Y-31614619D01*
X172926095Y-31757476D01*
X172878476Y-31947952D01*
X172878476Y-32328904D01*
X172926095Y-32424142D01*
X172973714Y-32471761D01*
X173068952Y-32519380D01*
X173259428Y-32519380D01*
X173354666Y-32471761D01*
X173402285Y-32424142D01*
X173449904Y-32328904D01*
X173449904Y-32090809D01*
X173402285Y-31995571D01*
X173354666Y-31947952D01*
X173259428Y-31900333D01*
X173068952Y-31900333D01*
X172973714Y-31947952D01*
X172926095Y-31995571D01*
X172878476Y-32090809D01*
X150717523Y-30869380D02*
X150146095Y-30869380D01*
X150431809Y-30869380D02*
X150431809Y-29869380D01*
X150336571Y-30012238D01*
X150241333Y-30107476D01*
X150146095Y-30155095D01*
X152622285Y-29964619D02*
X152669904Y-29917000D01*
X152765142Y-29869380D01*
X153003238Y-29869380D01*
X153098476Y-29917000D01*
X153146095Y-29964619D01*
X153193714Y-30059857D01*
X153193714Y-30155095D01*
X153146095Y-30297952D01*
X152574666Y-30869380D01*
X153193714Y-30869380D01*
X155050857Y-29869380D02*
X155669904Y-29869380D01*
X155336571Y-30250333D01*
X155479428Y-30250333D01*
X155574666Y-30297952D01*
X155622285Y-30345571D01*
X155669904Y-30440809D01*
X155669904Y-30678904D01*
X155622285Y-30774142D01*
X155574666Y-30821761D01*
X155479428Y-30869380D01*
X155193714Y-30869380D01*
X155098476Y-30821761D01*
X155050857Y-30774142D01*
X150622285Y-31852714D02*
X150622285Y-32519380D01*
X150384190Y-31471761D02*
X150146095Y-32186047D01*
X150765142Y-32186047D01*
X153146095Y-31519380D02*
X152669904Y-31519380D01*
X152622285Y-31995571D01*
X152669904Y-31947952D01*
X152765142Y-31900333D01*
X153003238Y-31900333D01*
X153098476Y-31947952D01*
X153146095Y-31995571D01*
X153193714Y-32090809D01*
X153193714Y-32328904D01*
X153146095Y-32424142D01*
X153098476Y-32471761D01*
X153003238Y-32519380D01*
X152765142Y-32519380D01*
X152669904Y-32471761D01*
X152622285Y-32424142D01*
X155574666Y-31519380D02*
X155384190Y-31519380D01*
X155288952Y-31567000D01*
X155241333Y-31614619D01*
X155146095Y-31757476D01*
X155098476Y-31947952D01*
X155098476Y-32328904D01*
X155146095Y-32424142D01*
X155193714Y-32471761D01*
X155288952Y-32519380D01*
X155479428Y-32519380D01*
X155574666Y-32471761D01*
X155622285Y-32424142D01*
X155669904Y-32328904D01*
X155669904Y-32090809D01*
X155622285Y-31995571D01*
X155574666Y-31947952D01*
X155479428Y-31900333D01*
X155288952Y-31900333D01*
X155193714Y-31947952D01*
X155146095Y-31995571D01*
X155098476Y-32090809D01*
X132937523Y-31123380D02*
X132366095Y-31123380D01*
X132651809Y-31123380D02*
X132651809Y-30123380D01*
X132556571Y-30266238D01*
X132461333Y-30361476D01*
X132366095Y-30409095D01*
X134842285Y-30218619D02*
X134889904Y-30171000D01*
X134985142Y-30123380D01*
X135223238Y-30123380D01*
X135318476Y-30171000D01*
X135366095Y-30218619D01*
X135413714Y-30313857D01*
X135413714Y-30409095D01*
X135366095Y-30551952D01*
X134794666Y-31123380D01*
X135413714Y-31123380D01*
X137270857Y-30123380D02*
X137889904Y-30123380D01*
X137556571Y-30504333D01*
X137699428Y-30504333D01*
X137794666Y-30551952D01*
X137842285Y-30599571D01*
X137889904Y-30694809D01*
X137889904Y-30932904D01*
X137842285Y-31028142D01*
X137794666Y-31075761D01*
X137699428Y-31123380D01*
X137413714Y-31123380D01*
X137318476Y-31075761D01*
X137270857Y-31028142D01*
X132842285Y-32106714D02*
X132842285Y-32773380D01*
X132604190Y-31725761D02*
X132366095Y-32440047D01*
X132985142Y-32440047D01*
X135366095Y-31773380D02*
X134889904Y-31773380D01*
X134842285Y-32249571D01*
X134889904Y-32201952D01*
X134985142Y-32154333D01*
X135223238Y-32154333D01*
X135318476Y-32201952D01*
X135366095Y-32249571D01*
X135413714Y-32344809D01*
X135413714Y-32582904D01*
X135366095Y-32678142D01*
X135318476Y-32725761D01*
X135223238Y-32773380D01*
X134985142Y-32773380D01*
X134889904Y-32725761D01*
X134842285Y-32678142D01*
X137794666Y-31773380D02*
X137604190Y-31773380D01*
X137508952Y-31821000D01*
X137461333Y-31868619D01*
X137366095Y-32011476D01*
X137318476Y-32201952D01*
X137318476Y-32582904D01*
X137366095Y-32678142D01*
X137413714Y-32725761D01*
X137508952Y-32773380D01*
X137699428Y-32773380D01*
X137794666Y-32725761D01*
X137842285Y-32678142D01*
X137889904Y-32582904D01*
X137889904Y-32344809D01*
X137842285Y-32249571D01*
X137794666Y-32201952D01*
X137699428Y-32154333D01*
X137508952Y-32154333D01*
X137413714Y-32201952D01*
X137366095Y-32249571D01*
X137318476Y-32344809D01*
X115157523Y-31123380D02*
X114586095Y-31123380D01*
X114871809Y-31123380D02*
X114871809Y-30123380D01*
X114776571Y-30266238D01*
X114681333Y-30361476D01*
X114586095Y-30409095D01*
X117062285Y-30218619D02*
X117109904Y-30171000D01*
X117205142Y-30123380D01*
X117443238Y-30123380D01*
X117538476Y-30171000D01*
X117586095Y-30218619D01*
X117633714Y-30313857D01*
X117633714Y-30409095D01*
X117586095Y-30551952D01*
X117014666Y-31123380D01*
X117633714Y-31123380D01*
X119490857Y-30123380D02*
X120109904Y-30123380D01*
X119776571Y-30504333D01*
X119919428Y-30504333D01*
X120014666Y-30551952D01*
X120062285Y-30599571D01*
X120109904Y-30694809D01*
X120109904Y-30932904D01*
X120062285Y-31028142D01*
X120014666Y-31075761D01*
X119919428Y-31123380D01*
X119633714Y-31123380D01*
X119538476Y-31075761D01*
X119490857Y-31028142D01*
X115062285Y-32106714D02*
X115062285Y-32773380D01*
X114824190Y-31725761D02*
X114586095Y-32440047D01*
X115205142Y-32440047D01*
X117586095Y-31773380D02*
X117109904Y-31773380D01*
X117062285Y-32249571D01*
X117109904Y-32201952D01*
X117205142Y-32154333D01*
X117443238Y-32154333D01*
X117538476Y-32201952D01*
X117586095Y-32249571D01*
X117633714Y-32344809D01*
X117633714Y-32582904D01*
X117586095Y-32678142D01*
X117538476Y-32725761D01*
X117443238Y-32773380D01*
X117205142Y-32773380D01*
X117109904Y-32725761D01*
X117062285Y-32678142D01*
X120014666Y-31773380D02*
X119824190Y-31773380D01*
X119728952Y-31821000D01*
X119681333Y-31868619D01*
X119586095Y-32011476D01*
X119538476Y-32201952D01*
X119538476Y-32582904D01*
X119586095Y-32678142D01*
X119633714Y-32725761D01*
X119728952Y-32773380D01*
X119919428Y-32773380D01*
X120014666Y-32725761D01*
X120062285Y-32678142D01*
X120109904Y-32582904D01*
X120109904Y-32344809D01*
X120062285Y-32249571D01*
X120014666Y-32201952D01*
X119919428Y-32154333D01*
X119728952Y-32154333D01*
X119633714Y-32201952D01*
X119586095Y-32249571D01*
X119538476Y-32344809D01*
X107759714Y-31138761D02*
X107902571Y-31186380D01*
X108140666Y-31186380D01*
X108235904Y-31138761D01*
X108283523Y-31091142D01*
X108331142Y-30995904D01*
X108331142Y-30900666D01*
X108283523Y-30805428D01*
X108235904Y-30757809D01*
X108140666Y-30710190D01*
X107950190Y-30662571D01*
X107854952Y-30614952D01*
X107807333Y-30567333D01*
X107759714Y-30472095D01*
X107759714Y-30376857D01*
X107807333Y-30281619D01*
X107854952Y-30234000D01*
X107950190Y-30186380D01*
X108188285Y-30186380D01*
X108331142Y-30234000D01*
X108664476Y-30186380D02*
X108902571Y-31186380D01*
X109093047Y-30472095D01*
X109283523Y-31186380D01*
X109521619Y-30186380D01*
X111188285Y-31186380D02*
X110616857Y-31186380D01*
X110902571Y-31186380D02*
X110902571Y-30186380D01*
X110807333Y-30329238D01*
X110712095Y-30424476D01*
X110616857Y-30472095D01*
X100393714Y-31138761D02*
X100536571Y-31186380D01*
X100774666Y-31186380D01*
X100869904Y-31138761D01*
X100917523Y-31091142D01*
X100965142Y-30995904D01*
X100965142Y-30900666D01*
X100917523Y-30805428D01*
X100869904Y-30757809D01*
X100774666Y-30710190D01*
X100584190Y-30662571D01*
X100488952Y-30614952D01*
X100441333Y-30567333D01*
X100393714Y-30472095D01*
X100393714Y-30376857D01*
X100441333Y-30281619D01*
X100488952Y-30234000D01*
X100584190Y-30186380D01*
X100822285Y-30186380D01*
X100965142Y-30234000D01*
X101298476Y-30186380D02*
X101536571Y-31186380D01*
X101727047Y-30472095D01*
X101917523Y-31186380D01*
X102155619Y-30186380D01*
X103250857Y-30281619D02*
X103298476Y-30234000D01*
X103393714Y-30186380D01*
X103631809Y-30186380D01*
X103727047Y-30234000D01*
X103774666Y-30281619D01*
X103822285Y-30376857D01*
X103822285Y-30472095D01*
X103774666Y-30614952D01*
X103203238Y-31186380D01*
X103822285Y-31186380D01*
X92773714Y-31138761D02*
X92916571Y-31186380D01*
X93154666Y-31186380D01*
X93249904Y-31138761D01*
X93297523Y-31091142D01*
X93345142Y-30995904D01*
X93345142Y-30900666D01*
X93297523Y-30805428D01*
X93249904Y-30757809D01*
X93154666Y-30710190D01*
X92964190Y-30662571D01*
X92868952Y-30614952D01*
X92821333Y-30567333D01*
X92773714Y-30472095D01*
X92773714Y-30376857D01*
X92821333Y-30281619D01*
X92868952Y-30234000D01*
X92964190Y-30186380D01*
X93202285Y-30186380D01*
X93345142Y-30234000D01*
X93678476Y-30186380D02*
X93916571Y-31186380D01*
X94107047Y-30472095D01*
X94297523Y-31186380D01*
X94535619Y-30186380D01*
X95583238Y-30186380D02*
X96202285Y-30186380D01*
X95868952Y-30567333D01*
X96011809Y-30567333D01*
X96107047Y-30614952D01*
X96154666Y-30662571D01*
X96202285Y-30757809D01*
X96202285Y-30995904D01*
X96154666Y-31091142D01*
X96107047Y-31138761D01*
X96011809Y-31186380D01*
X95726095Y-31186380D01*
X95630857Y-31138761D01*
X95583238Y-31091142D01*
X107537523Y-32964380D02*
X106966095Y-32964380D01*
X107251809Y-32964380D02*
X107251809Y-31964380D01*
X107156571Y-32107238D01*
X107061333Y-32202476D01*
X106966095Y-32250095D01*
X109442285Y-32059619D02*
X109489904Y-32012000D01*
X109585142Y-31964380D01*
X109823238Y-31964380D01*
X109918476Y-32012000D01*
X109966095Y-32059619D01*
X110013714Y-32154857D01*
X110013714Y-32250095D01*
X109966095Y-32392952D01*
X109394666Y-32964380D01*
X110013714Y-32964380D01*
X111870857Y-31964380D02*
X112489904Y-31964380D01*
X112156571Y-32345333D01*
X112299428Y-32345333D01*
X112394666Y-32392952D01*
X112442285Y-32440571D01*
X112489904Y-32535809D01*
X112489904Y-32773904D01*
X112442285Y-32869142D01*
X112394666Y-32916761D01*
X112299428Y-32964380D01*
X112013714Y-32964380D01*
X111918476Y-32916761D01*
X111870857Y-32869142D01*
X99917523Y-32964380D02*
X99346095Y-32964380D01*
X99631809Y-32964380D02*
X99631809Y-31964380D01*
X99536571Y-32107238D01*
X99441333Y-32202476D01*
X99346095Y-32250095D01*
X101822285Y-32059619D02*
X101869904Y-32012000D01*
X101965142Y-31964380D01*
X102203238Y-31964380D01*
X102298476Y-32012000D01*
X102346095Y-32059619D01*
X102393714Y-32154857D01*
X102393714Y-32250095D01*
X102346095Y-32392952D01*
X101774666Y-32964380D01*
X102393714Y-32964380D01*
X104250857Y-31964380D02*
X104869904Y-31964380D01*
X104536571Y-32345333D01*
X104679428Y-32345333D01*
X104774666Y-32392952D01*
X104822285Y-32440571D01*
X104869904Y-32535809D01*
X104869904Y-32773904D01*
X104822285Y-32869142D01*
X104774666Y-32916761D01*
X104679428Y-32964380D01*
X104393714Y-32964380D01*
X104298476Y-32916761D01*
X104250857Y-32869142D01*
X92297523Y-32964380D02*
X91726095Y-32964380D01*
X92011809Y-32964380D02*
X92011809Y-31964380D01*
X91916571Y-32107238D01*
X91821333Y-32202476D01*
X91726095Y-32250095D01*
X94202285Y-32059619D02*
X94249904Y-32012000D01*
X94345142Y-31964380D01*
X94583238Y-31964380D01*
X94678476Y-32012000D01*
X94726095Y-32059619D01*
X94773714Y-32154857D01*
X94773714Y-32250095D01*
X94726095Y-32392952D01*
X94154666Y-32964380D01*
X94773714Y-32964380D01*
X96630857Y-31964380D02*
X97249904Y-31964380D01*
X96916571Y-32345333D01*
X97059428Y-32345333D01*
X97154666Y-32392952D01*
X97202285Y-32440571D01*
X97249904Y-32535809D01*
X97249904Y-32773904D01*
X97202285Y-32869142D01*
X97154666Y-32916761D01*
X97059428Y-32964380D01*
X96773714Y-32964380D01*
X96678476Y-32916761D01*
X96630857Y-32869142D01*
X84994952Y-78033619D02*
X85042571Y-77986000D01*
X85137809Y-77938380D01*
X85375904Y-77938380D01*
X85471142Y-77986000D01*
X85518761Y-78033619D01*
X85566380Y-78128857D01*
X85566380Y-78224095D01*
X85518761Y-78366952D01*
X84947333Y-78938380D01*
X85566380Y-78938380D01*
X87280666Y-78938380D02*
X86709238Y-78938380D01*
X86994952Y-78938380D02*
X86994952Y-77938380D01*
X86899714Y-78081238D01*
X86804476Y-78176476D01*
X86709238Y-78224095D01*
X87614000Y-77938380D02*
X88233047Y-77938380D01*
X87899714Y-78319333D01*
X88042571Y-78319333D01*
X88137809Y-78366952D01*
X88185428Y-78414571D01*
X88233047Y-78509809D01*
X88233047Y-78747904D01*
X88185428Y-78843142D01*
X88137809Y-78890761D01*
X88042571Y-78938380D01*
X87756857Y-78938380D01*
X87661619Y-78890761D01*
X87614000Y-78843142D01*
X85169523Y-91146380D02*
X85836190Y-91146380D01*
X85407619Y-92146380D01*
X87121904Y-91574952D02*
X87026666Y-91527333D01*
X86979047Y-91479714D01*
X86931428Y-91384476D01*
X86931428Y-91336857D01*
X86979047Y-91241619D01*
X87026666Y-91194000D01*
X87121904Y-91146380D01*
X87312380Y-91146380D01*
X87407619Y-91194000D01*
X87455238Y-91241619D01*
X87502857Y-91336857D01*
X87502857Y-91384476D01*
X87455238Y-91479714D01*
X87407619Y-91527333D01*
X87312380Y-91574952D01*
X87121904Y-91574952D01*
X87026666Y-91622571D01*
X86979047Y-91670190D01*
X86931428Y-91765428D01*
X86931428Y-91955904D01*
X86979047Y-92051142D01*
X87026666Y-92098761D01*
X87121904Y-92146380D01*
X87312380Y-92146380D01*
X87407619Y-92098761D01*
X87455238Y-92051142D01*
X87502857Y-91955904D01*
X87502857Y-91765428D01*
X87455238Y-91670190D01*
X87407619Y-91622571D01*
X87312380Y-91574952D01*
X85693333Y-88352380D02*
X85502857Y-88352380D01*
X85407619Y-88400000D01*
X85360000Y-88447619D01*
X85264761Y-88590476D01*
X85217142Y-88780952D01*
X85217142Y-89161904D01*
X85264761Y-89257142D01*
X85312380Y-89304761D01*
X85407619Y-89352380D01*
X85598095Y-89352380D01*
X85693333Y-89304761D01*
X85740952Y-89257142D01*
X85788571Y-89161904D01*
X85788571Y-88923809D01*
X85740952Y-88828571D01*
X85693333Y-88780952D01*
X85598095Y-88733333D01*
X85407619Y-88733333D01*
X85312380Y-88780952D01*
X85264761Y-88828571D01*
X85217142Y-88923809D01*
X87026666Y-89352380D02*
X87217142Y-89352380D01*
X87312380Y-89304761D01*
X87360000Y-89257142D01*
X87455238Y-89114285D01*
X87502857Y-88923809D01*
X87502857Y-88542857D01*
X87455238Y-88447619D01*
X87407619Y-88400000D01*
X87312380Y-88352380D01*
X87121904Y-88352380D01*
X87026666Y-88400000D01*
X86979047Y-88447619D01*
X86931428Y-88542857D01*
X86931428Y-88780952D01*
X86979047Y-88876190D01*
X87026666Y-88923809D01*
X87121904Y-88971428D01*
X87312380Y-88971428D01*
X87407619Y-88923809D01*
X87455238Y-88876190D01*
X87502857Y-88780952D01*
X84947333Y-80478380D02*
X85566380Y-80478380D01*
X85233047Y-80859333D01*
X85375904Y-80859333D01*
X85471142Y-80906952D01*
X85518761Y-80954571D01*
X85566380Y-81049809D01*
X85566380Y-81287904D01*
X85518761Y-81383142D01*
X85471142Y-81430761D01*
X85375904Y-81478380D01*
X85090190Y-81478380D01*
X84994952Y-81430761D01*
X84947333Y-81383142D01*
X87280666Y-81478380D02*
X86709238Y-81478380D01*
X86994952Y-81478380D02*
X86994952Y-80478380D01*
X86899714Y-80621238D01*
X86804476Y-80716476D01*
X86709238Y-80764095D01*
X87661619Y-80573619D02*
X87709238Y-80526000D01*
X87804476Y-80478380D01*
X88042571Y-80478380D01*
X88137809Y-80526000D01*
X88185428Y-80573619D01*
X88233047Y-80668857D01*
X88233047Y-80764095D01*
X88185428Y-80906952D01*
X87614000Y-81478380D01*
X88233047Y-81478380D01*
X85566380Y-76652380D02*
X84994952Y-76652380D01*
X85280666Y-76652380D02*
X85280666Y-75652380D01*
X85185428Y-75795238D01*
X85090190Y-75890476D01*
X84994952Y-75938095D01*
X87280666Y-76652380D02*
X86709238Y-76652380D01*
X86994952Y-76652380D02*
X86994952Y-75652380D01*
X86899714Y-75795238D01*
X86804476Y-75890476D01*
X86709238Y-75938095D01*
X88137809Y-75985714D02*
X88137809Y-76652380D01*
X87899714Y-75604761D02*
X87661619Y-76319047D01*
X88280666Y-76319047D01*
X85518761Y-85558380D02*
X85042571Y-85558380D01*
X84994952Y-86034571D01*
X85042571Y-85986952D01*
X85137809Y-85939333D01*
X85375904Y-85939333D01*
X85471142Y-85986952D01*
X85518761Y-86034571D01*
X85566380Y-86129809D01*
X85566380Y-86367904D01*
X85518761Y-86463142D01*
X85471142Y-86510761D01*
X85375904Y-86558380D01*
X85137809Y-86558380D01*
X85042571Y-86510761D01*
X84994952Y-86463142D01*
X87280666Y-86558380D02*
X86709238Y-86558380D01*
X86994952Y-86558380D02*
X86994952Y-85558380D01*
X86899714Y-85701238D01*
X86804476Y-85796476D01*
X86709238Y-85844095D01*
X87899714Y-85558380D02*
X87994952Y-85558380D01*
X88090190Y-85606000D01*
X88137809Y-85653619D01*
X88185428Y-85748857D01*
X88233047Y-85939333D01*
X88233047Y-86177428D01*
X88185428Y-86367904D01*
X88137809Y-86463142D01*
X88090190Y-86510761D01*
X87994952Y-86558380D01*
X87899714Y-86558380D01*
X87804476Y-86510761D01*
X87756857Y-86463142D01*
X87709238Y-86367904D01*
X87661619Y-86177428D01*
X87661619Y-85939333D01*
X87709238Y-85748857D01*
X87756857Y-85653619D01*
X87804476Y-85606000D01*
X87899714Y-85558380D01*
X85471142Y-83351714D02*
X85471142Y-84018380D01*
X85233047Y-82970761D02*
X84994952Y-83685047D01*
X85614000Y-83685047D01*
X87280666Y-84018380D02*
X86709238Y-84018380D01*
X86994952Y-84018380D02*
X86994952Y-83018380D01*
X86899714Y-83161238D01*
X86804476Y-83256476D01*
X86709238Y-83304095D01*
X88233047Y-84018380D02*
X87661619Y-84018380D01*
X87947333Y-84018380D02*
X87947333Y-83018380D01*
X87852095Y-83161238D01*
X87756857Y-83256476D01*
X87661619Y-83304095D01*
X85169523Y-71080380D02*
X85836190Y-71080380D01*
X85407619Y-72080380D01*
X87121904Y-71508952D02*
X87026666Y-71461333D01*
X86979047Y-71413714D01*
X86931428Y-71318476D01*
X86931428Y-71270857D01*
X86979047Y-71175619D01*
X87026666Y-71128000D01*
X87121904Y-71080380D01*
X87312380Y-71080380D01*
X87407619Y-71128000D01*
X87455238Y-71175619D01*
X87502857Y-71270857D01*
X87502857Y-71318476D01*
X87455238Y-71413714D01*
X87407619Y-71461333D01*
X87312380Y-71508952D01*
X87121904Y-71508952D01*
X87026666Y-71556571D01*
X86979047Y-71604190D01*
X86931428Y-71699428D01*
X86931428Y-71889904D01*
X86979047Y-71985142D01*
X87026666Y-72032761D01*
X87121904Y-72080380D01*
X87312380Y-72080380D01*
X87407619Y-72032761D01*
X87455238Y-71985142D01*
X87502857Y-71889904D01*
X87502857Y-71699428D01*
X87455238Y-71604190D01*
X87407619Y-71556571D01*
X87312380Y-71508952D01*
X85693333Y-68286380D02*
X85502857Y-68286380D01*
X85407619Y-68334000D01*
X85360000Y-68381619D01*
X85264761Y-68524476D01*
X85217142Y-68714952D01*
X85217142Y-69095904D01*
X85264761Y-69191142D01*
X85312380Y-69238761D01*
X85407619Y-69286380D01*
X85598095Y-69286380D01*
X85693333Y-69238761D01*
X85740952Y-69191142D01*
X85788571Y-69095904D01*
X85788571Y-68857809D01*
X85740952Y-68762571D01*
X85693333Y-68714952D01*
X85598095Y-68667333D01*
X85407619Y-68667333D01*
X85312380Y-68714952D01*
X85264761Y-68762571D01*
X85217142Y-68857809D01*
X87026666Y-69286380D02*
X87217142Y-69286380D01*
X87312380Y-69238761D01*
X87360000Y-69191142D01*
X87455238Y-69048285D01*
X87502857Y-68857809D01*
X87502857Y-68476857D01*
X87455238Y-68381619D01*
X87407619Y-68334000D01*
X87312380Y-68286380D01*
X87121904Y-68286380D01*
X87026666Y-68334000D01*
X86979047Y-68381619D01*
X86931428Y-68476857D01*
X86931428Y-68714952D01*
X86979047Y-68810190D01*
X87026666Y-68857809D01*
X87121904Y-68905428D01*
X87312380Y-68905428D01*
X87407619Y-68857809D01*
X87455238Y-68810190D01*
X87502857Y-68714952D01*
X85518761Y-65492380D02*
X85042571Y-65492380D01*
X84994952Y-65968571D01*
X85042571Y-65920952D01*
X85137809Y-65873333D01*
X85375904Y-65873333D01*
X85471142Y-65920952D01*
X85518761Y-65968571D01*
X85566380Y-66063809D01*
X85566380Y-66301904D01*
X85518761Y-66397142D01*
X85471142Y-66444761D01*
X85375904Y-66492380D01*
X85137809Y-66492380D01*
X85042571Y-66444761D01*
X84994952Y-66397142D01*
X87280666Y-66492380D02*
X86709238Y-66492380D01*
X86994952Y-66492380D02*
X86994952Y-65492380D01*
X86899714Y-65635238D01*
X86804476Y-65730476D01*
X86709238Y-65778095D01*
X87899714Y-65492380D02*
X87994952Y-65492380D01*
X88090190Y-65540000D01*
X88137809Y-65587619D01*
X88185428Y-65682857D01*
X88233047Y-65873333D01*
X88233047Y-66111428D01*
X88185428Y-66301904D01*
X88137809Y-66397142D01*
X88090190Y-66444761D01*
X87994952Y-66492380D01*
X87899714Y-66492380D01*
X87804476Y-66444761D01*
X87756857Y-66397142D01*
X87709238Y-66301904D01*
X87661619Y-66111428D01*
X87661619Y-65873333D01*
X87709238Y-65682857D01*
X87756857Y-65587619D01*
X87804476Y-65540000D01*
X87899714Y-65492380D01*
X85471142Y-63285714D02*
X85471142Y-63952380D01*
X85233047Y-62904761D02*
X84994952Y-63619047D01*
X85614000Y-63619047D01*
X87280666Y-63952380D02*
X86709238Y-63952380D01*
X86994952Y-63952380D02*
X86994952Y-62952380D01*
X86899714Y-63095238D01*
X86804476Y-63190476D01*
X86709238Y-63238095D01*
X88233047Y-63952380D02*
X87661619Y-63952380D01*
X87947333Y-63952380D02*
X87947333Y-62952380D01*
X87852095Y-63095238D01*
X87756857Y-63190476D01*
X87661619Y-63238095D01*
X84947333Y-60412380D02*
X85566380Y-60412380D01*
X85233047Y-60793333D01*
X85375904Y-60793333D01*
X85471142Y-60840952D01*
X85518761Y-60888571D01*
X85566380Y-60983809D01*
X85566380Y-61221904D01*
X85518761Y-61317142D01*
X85471142Y-61364761D01*
X85375904Y-61412380D01*
X85090190Y-61412380D01*
X84994952Y-61364761D01*
X84947333Y-61317142D01*
X87280666Y-61412380D02*
X86709238Y-61412380D01*
X86994952Y-61412380D02*
X86994952Y-60412380D01*
X86899714Y-60555238D01*
X86804476Y-60650476D01*
X86709238Y-60698095D01*
X87661619Y-60507619D02*
X87709238Y-60460000D01*
X87804476Y-60412380D01*
X88042571Y-60412380D01*
X88137809Y-60460000D01*
X88185428Y-60507619D01*
X88233047Y-60602857D01*
X88233047Y-60698095D01*
X88185428Y-60840952D01*
X87614000Y-61412380D01*
X88233047Y-61412380D01*
X84994952Y-57967619D02*
X85042571Y-57920000D01*
X85137809Y-57872380D01*
X85375904Y-57872380D01*
X85471142Y-57920000D01*
X85518761Y-57967619D01*
X85566380Y-58062857D01*
X85566380Y-58158095D01*
X85518761Y-58300952D01*
X84947333Y-58872380D01*
X85566380Y-58872380D01*
X87280666Y-58872380D02*
X86709238Y-58872380D01*
X86994952Y-58872380D02*
X86994952Y-57872380D01*
X86899714Y-58015238D01*
X86804476Y-58110476D01*
X86709238Y-58158095D01*
X87614000Y-57872380D02*
X88233047Y-57872380D01*
X87899714Y-58253333D01*
X88042571Y-58253333D01*
X88137809Y-58300952D01*
X88185428Y-58348571D01*
X88233047Y-58443809D01*
X88233047Y-58681904D01*
X88185428Y-58777142D01*
X88137809Y-58824761D01*
X88042571Y-58872380D01*
X87756857Y-58872380D01*
X87661619Y-58824761D01*
X87614000Y-58777142D01*
X85566380Y-56586380D02*
X84994952Y-56586380D01*
X85280666Y-56586380D02*
X85280666Y-55586380D01*
X85185428Y-55729238D01*
X85090190Y-55824476D01*
X84994952Y-55872095D01*
X87280666Y-56586380D02*
X86709238Y-56586380D01*
X86994952Y-56586380D02*
X86994952Y-55586380D01*
X86899714Y-55729238D01*
X86804476Y-55824476D01*
X86709238Y-55872095D01*
X88137809Y-55919714D02*
X88137809Y-56586380D01*
X87899714Y-55538761D02*
X87661619Y-56253047D01*
X88280666Y-56253047D01*
X85693333Y-50839714D02*
X85693333Y-51506380D01*
X85455238Y-50458761D02*
X85217142Y-51173047D01*
X85836190Y-51173047D01*
X87455238Y-50506380D02*
X86979047Y-50506380D01*
X86931428Y-50982571D01*
X86979047Y-50934952D01*
X87074285Y-50887333D01*
X87312380Y-50887333D01*
X87407619Y-50934952D01*
X87455238Y-50982571D01*
X87502857Y-51077809D01*
X87502857Y-51315904D01*
X87455238Y-51411142D01*
X87407619Y-51458761D01*
X87312380Y-51506380D01*
X87074285Y-51506380D01*
X86979047Y-51458761D01*
X86931428Y-51411142D01*
X85169523Y-47712380D02*
X85788571Y-47712380D01*
X85455238Y-48093333D01*
X85598095Y-48093333D01*
X85693333Y-48140952D01*
X85740952Y-48188571D01*
X85788571Y-48283809D01*
X85788571Y-48521904D01*
X85740952Y-48617142D01*
X85693333Y-48664761D01*
X85598095Y-48712380D01*
X85312380Y-48712380D01*
X85217142Y-48664761D01*
X85169523Y-48617142D01*
X87407619Y-47712380D02*
X87217142Y-47712380D01*
X87121904Y-47760000D01*
X87074285Y-47807619D01*
X86979047Y-47950476D01*
X86931428Y-48140952D01*
X86931428Y-48521904D01*
X86979047Y-48617142D01*
X87026666Y-48664761D01*
X87121904Y-48712380D01*
X87312380Y-48712380D01*
X87407619Y-48664761D01*
X87455238Y-48617142D01*
X87502857Y-48521904D01*
X87502857Y-48283809D01*
X87455238Y-48188571D01*
X87407619Y-48140952D01*
X87312380Y-48093333D01*
X87121904Y-48093333D01*
X87026666Y-48140952D01*
X86979047Y-48188571D01*
X86931428Y-48283809D01*
X85217142Y-45267619D02*
X85264761Y-45220000D01*
X85360000Y-45172380D01*
X85598095Y-45172380D01*
X85693333Y-45220000D01*
X85740952Y-45267619D01*
X85788571Y-45362857D01*
X85788571Y-45458095D01*
X85740952Y-45600952D01*
X85169523Y-46172380D01*
X85788571Y-46172380D01*
X86883809Y-45172380D02*
X87550476Y-45172380D01*
X87121904Y-46172380D01*
X85788571Y-43632380D02*
X85217142Y-43632380D01*
X85502857Y-43632380D02*
X85502857Y-42632380D01*
X85407619Y-42775238D01*
X85312380Y-42870476D01*
X85217142Y-42918095D01*
X87121904Y-43060952D02*
X87026666Y-43013333D01*
X86979047Y-42965714D01*
X86931428Y-42870476D01*
X86931428Y-42822857D01*
X86979047Y-42727619D01*
X87026666Y-42680000D01*
X87121904Y-42632380D01*
X87312380Y-42632380D01*
X87407619Y-42680000D01*
X87455238Y-42727619D01*
X87502857Y-42822857D01*
X87502857Y-42870476D01*
X87455238Y-42965714D01*
X87407619Y-43013333D01*
X87312380Y-43060952D01*
X87121904Y-43060952D01*
X87026666Y-43108571D01*
X86979047Y-43156190D01*
X86931428Y-43251428D01*
X86931428Y-43441904D01*
X86979047Y-43537142D01*
X87026666Y-43584761D01*
X87121904Y-43632380D01*
X87312380Y-43632380D01*
X87407619Y-43584761D01*
X87455238Y-43537142D01*
X87502857Y-43441904D01*
X87502857Y-43251428D01*
X87455238Y-43156190D01*
X87407619Y-43108571D01*
X87312380Y-43060952D01*
X88823523Y-27543142D02*
X89490190Y-27543142D01*
X89775904Y-28590761D02*
X88823523Y-28590761D01*
X88823523Y-26590761D01*
X89775904Y-26590761D01*
X90633047Y-26590761D02*
X90633047Y-28209809D01*
X90728285Y-28400285D01*
X90823523Y-28495523D01*
X91014000Y-28590761D01*
X91394952Y-28590761D01*
X91585428Y-28495523D01*
X91680666Y-28400285D01*
X91775904Y-28209809D01*
X91775904Y-26590761D01*
X93871142Y-28590761D02*
X93204476Y-27638380D01*
X92728285Y-28590761D02*
X92728285Y-26590761D01*
X93490190Y-26590761D01*
X93680666Y-26686000D01*
X93775904Y-26781238D01*
X93871142Y-26971714D01*
X93871142Y-27257428D01*
X93775904Y-27447904D01*
X93680666Y-27543142D01*
X93490190Y-27638380D01*
X92728285Y-27638380D01*
X95109238Y-26590761D02*
X95490190Y-26590761D01*
X95680666Y-26686000D01*
X95871142Y-26876476D01*
X95966380Y-27257428D01*
X95966380Y-27924095D01*
X95871142Y-28305047D01*
X95680666Y-28495523D01*
X95490190Y-28590761D01*
X95109238Y-28590761D01*
X94918761Y-28495523D01*
X94728285Y-28305047D01*
X94633047Y-27924095D01*
X94633047Y-27257428D01*
X94728285Y-26876476D01*
X94918761Y-26686000D01*
X95109238Y-26590761D01*
X97966380Y-28590761D02*
X97299714Y-27638380D01*
X96823523Y-28590761D02*
X96823523Y-26590761D01*
X97585428Y-26590761D01*
X97775904Y-26686000D01*
X97871142Y-26781238D01*
X97966380Y-26971714D01*
X97966380Y-27257428D01*
X97871142Y-27447904D01*
X97775904Y-27543142D01*
X97585428Y-27638380D01*
X96823523Y-27638380D01*
X98728285Y-28019333D02*
X99680666Y-28019333D01*
X98537809Y-28590761D02*
X99204476Y-26590761D01*
X99871142Y-28590761D01*
X101680666Y-28400285D02*
X101585428Y-28495523D01*
X101299714Y-28590761D01*
X101109238Y-28590761D01*
X100823523Y-28495523D01*
X100633047Y-28305047D01*
X100537809Y-28114571D01*
X100442571Y-27733619D01*
X100442571Y-27447904D01*
X100537809Y-27066952D01*
X100633047Y-26876476D01*
X100823523Y-26686000D01*
X101109238Y-26590761D01*
X101299714Y-26590761D01*
X101585428Y-26686000D01*
X101680666Y-26781238D01*
X102537809Y-28590761D02*
X102537809Y-26590761D01*
X103680666Y-28590761D02*
X102823523Y-27447904D01*
X103680666Y-26590761D02*
X102537809Y-27733619D01*
X106728285Y-27543142D02*
X107014000Y-27638380D01*
X107109238Y-27733619D01*
X107204476Y-27924095D01*
X107204476Y-28209809D01*
X107109238Y-28400285D01*
X107014000Y-28495523D01*
X106823523Y-28590761D01*
X106061619Y-28590761D01*
X106061619Y-26590761D01*
X106728285Y-26590761D01*
X106918761Y-26686000D01*
X107014000Y-26781238D01*
X107109238Y-26971714D01*
X107109238Y-27162190D01*
X107014000Y-27352666D01*
X106918761Y-27447904D01*
X106728285Y-27543142D01*
X106061619Y-27543142D01*
X109204476Y-28590761D02*
X108537809Y-27638380D01*
X108061619Y-28590761D02*
X108061619Y-26590761D01*
X108823523Y-26590761D01*
X109014000Y-26686000D01*
X109109238Y-26781238D01*
X109204476Y-26971714D01*
X109204476Y-27257428D01*
X109109238Y-27447904D01*
X109014000Y-27543142D01*
X108823523Y-27638380D01*
X108061619Y-27638380D01*
X110061619Y-27543142D02*
X110728285Y-27543142D01*
X111014000Y-28590761D02*
X110061619Y-28590761D01*
X110061619Y-26590761D01*
X111014000Y-26590761D01*
X111775904Y-28019333D02*
X112728285Y-28019333D01*
X111585428Y-28590761D02*
X112252095Y-26590761D01*
X112918761Y-28590761D01*
X113585428Y-28590761D02*
X113585428Y-26590761D01*
X114061619Y-26590761D01*
X114347333Y-26686000D01*
X114537809Y-26876476D01*
X114633047Y-27066952D01*
X114728285Y-27447904D01*
X114728285Y-27733619D01*
X114633047Y-28114571D01*
X114537809Y-28305047D01*
X114347333Y-28495523D01*
X114061619Y-28590761D01*
X113585428Y-28590761D01*
X116252095Y-27543142D02*
X116537809Y-27638380D01*
X116633047Y-27733619D01*
X116728285Y-27924095D01*
X116728285Y-28209809D01*
X116633047Y-28400285D01*
X116537809Y-28495523D01*
X116347333Y-28590761D01*
X115585428Y-28590761D01*
X115585428Y-26590761D01*
X116252095Y-26590761D01*
X116442571Y-26686000D01*
X116537809Y-26781238D01*
X116633047Y-26971714D01*
X116633047Y-27162190D01*
X116537809Y-27352666D01*
X116442571Y-27447904D01*
X116252095Y-27543142D01*
X115585428Y-27543142D01*
X117966380Y-26590761D02*
X118347333Y-26590761D01*
X118537809Y-26686000D01*
X118728285Y-26876476D01*
X118823523Y-27257428D01*
X118823523Y-27924095D01*
X118728285Y-28305047D01*
X118537809Y-28495523D01*
X118347333Y-28590761D01*
X117966380Y-28590761D01*
X117775904Y-28495523D01*
X117585428Y-28305047D01*
X117490190Y-27924095D01*
X117490190Y-27257428D01*
X117585428Y-26876476D01*
X117775904Y-26686000D01*
X117966380Y-26590761D01*
X119585428Y-28019333D02*
X120537809Y-28019333D01*
X119394952Y-28590761D02*
X120061619Y-26590761D01*
X120728285Y-28590761D01*
X122537809Y-28590761D02*
X121871142Y-27638380D01*
X121394952Y-28590761D02*
X121394952Y-26590761D01*
X122156857Y-26590761D01*
X122347333Y-26686000D01*
X122442571Y-26781238D01*
X122537809Y-26971714D01*
X122537809Y-27257428D01*
X122442571Y-27447904D01*
X122347333Y-27543142D01*
X122156857Y-27638380D01*
X121394952Y-27638380D01*
X123394952Y-28590761D02*
X123394952Y-26590761D01*
X123871142Y-26590761D01*
X124156857Y-26686000D01*
X124347333Y-26876476D01*
X124442571Y-27066952D01*
X124537809Y-27447904D01*
X124537809Y-27733619D01*
X124442571Y-28114571D01*
X124347333Y-28305047D01*
X124156857Y-28495523D01*
X123871142Y-28590761D01*
X123394952Y-28590761D01*
X126918761Y-28590761D02*
X126918761Y-26590761D01*
X127680666Y-26590761D01*
X127871142Y-26686000D01*
X127966380Y-26781238D01*
X128061619Y-26971714D01*
X128061619Y-27257428D01*
X127966380Y-27447904D01*
X127871142Y-27543142D01*
X127680666Y-27638380D01*
X126918761Y-27638380D01*
X128823523Y-28019333D02*
X129775904Y-28019333D01*
X128633047Y-28590761D02*
X129299714Y-26590761D01*
X129966380Y-28590761D01*
X130633047Y-28590761D02*
X130633047Y-26590761D01*
X131775904Y-28590761D01*
X131775904Y-26590761D01*
X132728285Y-27543142D02*
X133394952Y-27543142D01*
X133680666Y-28590761D02*
X132728285Y-28590761D01*
X132728285Y-26590761D01*
X133680666Y-26590761D01*
X135490190Y-28590761D02*
X134537809Y-28590761D01*
X134537809Y-26590761D01*
X127652095Y-148923333D02*
X128604476Y-148923333D01*
X127461619Y-149494761D02*
X128128285Y-147494761D01*
X128794952Y-149494761D01*
X130414000Y-149494761D02*
X129461619Y-149494761D01*
X129461619Y-147494761D01*
X132033047Y-149494761D02*
X131080666Y-149494761D01*
X131080666Y-147494761D01*
X132699714Y-148447142D02*
X133366380Y-148447142D01*
X133652095Y-149494761D02*
X132699714Y-149494761D01*
X132699714Y-147494761D01*
X133652095Y-147494761D01*
X134509238Y-149494761D02*
X134509238Y-147494761D01*
X135652095Y-149494761D01*
X135652095Y-147494761D01*
X139271142Y-149494761D02*
X138604476Y-148542380D01*
X138128285Y-149494761D02*
X138128285Y-147494761D01*
X138890190Y-147494761D01*
X139080666Y-147590000D01*
X139175904Y-147685238D01*
X139271142Y-147875714D01*
X139271142Y-148161428D01*
X139175904Y-148351904D01*
X139080666Y-148447142D01*
X138890190Y-148542380D01*
X138128285Y-148542380D01*
X140033047Y-148923333D02*
X140985428Y-148923333D01*
X139842571Y-149494761D02*
X140509238Y-147494761D01*
X141175904Y-149494761D01*
X141842571Y-149494761D02*
X141842571Y-147494761D01*
X142985428Y-149494761D01*
X142985428Y-147494761D01*
X145080666Y-149304285D02*
X144985428Y-149399523D01*
X144699714Y-149494761D01*
X144509238Y-149494761D01*
X144223523Y-149399523D01*
X144033047Y-149209047D01*
X143937809Y-149018571D01*
X143842571Y-148637619D01*
X143842571Y-148351904D01*
X143937809Y-147970952D01*
X144033047Y-147780476D01*
X144223523Y-147590000D01*
X144509238Y-147494761D01*
X144699714Y-147494761D01*
X144985428Y-147590000D01*
X145080666Y-147685238D01*
X145937809Y-149494761D02*
X145937809Y-147494761D01*
X145937809Y-148447142D02*
X147080666Y-148447142D01*
X147080666Y-149494761D02*
X147080666Y-147494761D01*
D11*
%TO.C,J18*%
X193354000Y-143570000D02*
X193354000Y-138370000D01*
X94234000Y-143570000D02*
X193354000Y-143570000D01*
X91634000Y-138370000D02*
X193354000Y-138370000D01*
X94234000Y-143570000D02*
X94234000Y-140970000D01*
X94234000Y-140970000D02*
X91634000Y-140970000D01*
X91634000Y-140970000D02*
X91634000Y-138370000D01*
X92964000Y-143570000D02*
X91634000Y-143570000D01*
X91634000Y-143570000D02*
X91634000Y-142240000D01*
D13*
%TO.C,RV9*%
X119436999Y-91730000D02*
X121976999Y-91730000D01*
X120706999Y-90460000D02*
X120706999Y-93000000D01*
X123881999Y-91730000D02*
G75*
G03*
X123881999Y-91730000I-3175000J0D01*
G01*
X113206999Y-83602000D02*
X113206999Y-99858000D01*
X128206999Y-83602000D02*
X128206999Y-99858000D01*
X113213999Y-99930000D02*
X128199999Y-99930000D01*
X113213999Y-83530000D02*
X128199999Y-83530000D01*
D15*
%TO.C,SW3*%
X100560000Y-61916000D02*
X100910000Y-61916000D01*
X100560000Y-61916000D02*
X100560000Y-62416000D01*
X110260000Y-61916000D02*
X109910000Y-61916000D01*
X110260000Y-61916000D02*
X110260000Y-62416000D01*
X110260000Y-67116000D02*
X110260000Y-66616000D01*
X110260000Y-67116000D02*
X109910000Y-67116000D01*
X100560000Y-67116000D02*
X100910000Y-67116000D01*
X100560000Y-67116000D02*
X100560000Y-66616000D01*
%TO.C,SW2*%
X100306000Y-41850000D02*
X100656000Y-41850000D01*
X100306000Y-41850000D02*
X100306000Y-42350000D01*
X110006000Y-41850000D02*
X109656000Y-41850000D01*
X110006000Y-41850000D02*
X110006000Y-42350000D01*
X110006000Y-47050000D02*
X110006000Y-46550000D01*
X110006000Y-47050000D02*
X109656000Y-47050000D01*
X100306000Y-47050000D02*
X100656000Y-47050000D01*
X100306000Y-47050000D02*
X100306000Y-46550000D01*
%TO.C,SW1*%
X100814000Y-79696000D02*
X101164000Y-79696000D01*
X100814000Y-79696000D02*
X100814000Y-80196000D01*
X110514000Y-79696000D02*
X110164000Y-79696000D01*
X110514000Y-79696000D02*
X110514000Y-80196000D01*
X110514000Y-84896000D02*
X110514000Y-84396000D01*
X110514000Y-84896000D02*
X110164000Y-84896000D01*
X100814000Y-84896000D02*
X101164000Y-84896000D01*
X100814000Y-84896000D02*
X100814000Y-84396000D01*
D11*
%TO.C,H6*%
X105724000Y-100644000D02*
X105724000Y-95444000D01*
X87884000Y-100644000D02*
X105724000Y-100644000D01*
X85284000Y-95444000D02*
X105724000Y-95444000D01*
X87884000Y-100644000D02*
X87884000Y-98044000D01*
X87884000Y-98044000D02*
X85284000Y-98044000D01*
X85284000Y-98044000D02*
X85284000Y-95444000D01*
X86614000Y-100644000D02*
X85284000Y-100644000D01*
X85284000Y-100644000D02*
X85284000Y-99314000D01*
%TO.C,H5*%
X105724000Y-106994000D02*
X105724000Y-101794000D01*
X87884000Y-106994000D02*
X105724000Y-106994000D01*
X85284000Y-101794000D02*
X105724000Y-101794000D01*
X87884000Y-106994000D02*
X87884000Y-104394000D01*
X87884000Y-104394000D02*
X85284000Y-104394000D01*
X85284000Y-104394000D02*
X85284000Y-101794000D01*
X86614000Y-106994000D02*
X85284000Y-106994000D01*
X85284000Y-106994000D02*
X85284000Y-105664000D01*
%TO.C,H4*%
X105724000Y-113344000D02*
X105724000Y-108144000D01*
X87884000Y-113344000D02*
X105724000Y-113344000D01*
X85284000Y-108144000D02*
X105724000Y-108144000D01*
X87884000Y-113344000D02*
X87884000Y-110744000D01*
X87884000Y-110744000D02*
X85284000Y-110744000D01*
X85284000Y-110744000D02*
X85284000Y-108144000D01*
X86614000Y-113344000D02*
X85284000Y-113344000D01*
X85284000Y-113344000D02*
X85284000Y-112014000D01*
%TO.C,H2*%
X105724000Y-119694000D02*
X105724000Y-114494000D01*
X87884000Y-119694000D02*
X105724000Y-119694000D01*
X85284000Y-114494000D02*
X105724000Y-114494000D01*
X87884000Y-119694000D02*
X87884000Y-117094000D01*
X87884000Y-117094000D02*
X85284000Y-117094000D01*
X85284000Y-117094000D02*
X85284000Y-114494000D01*
X86614000Y-119694000D02*
X85284000Y-119694000D01*
X85284000Y-119694000D02*
X85284000Y-118364000D01*
D13*
%TO.C,D7*%
X78222000Y-142439000D02*
X78402000Y-142439000D01*
X80816000Y-142439000D02*
X80616000Y-142439000D01*
X80615253Y-141952889D02*
G75*
G03*
X80596000Y-139905000I-1079253J1013889D01*
G01*
X80842726Y-142426220D02*
G75*
G03*
X80496000Y-139189000I-1306726J1497220D01*
G01*
X78402932Y-139886994D02*
G75*
G03*
X78402000Y-141990000I1133068J-1052006D01*
G01*
X78532357Y-139211256D02*
G75*
G03*
X78216000Y-142439000I1003643J-1727744D01*
G01*
%TO.C,D6*%
X87366000Y-142439000D02*
X87546000Y-142439000D01*
X89960000Y-142439000D02*
X89760000Y-142439000D01*
X89759253Y-141952889D02*
G75*
G03*
X89740000Y-139905000I-1079253J1013889D01*
G01*
X89986726Y-142426220D02*
G75*
G03*
X89640000Y-139189000I-1306726J1497220D01*
G01*
X87546932Y-139886994D02*
G75*
G03*
X87546000Y-141990000I1133068J-1052006D01*
G01*
X87676357Y-139211256D02*
G75*
G03*
X87360000Y-142439000I1003643J-1727744D01*
G01*
%TO.C,D5*%
X85354000Y-139501000D02*
X85174000Y-139501000D01*
X82760000Y-139501000D02*
X82960000Y-139501000D01*
X82960747Y-139987111D02*
G75*
G03*
X82980000Y-142035000I1079253J-1013889D01*
G01*
X82733274Y-139513780D02*
G75*
G03*
X83080000Y-142751000I1306726J-1497220D01*
G01*
X85173068Y-142053006D02*
G75*
G03*
X85174000Y-139950000I-1133068J1052006D01*
G01*
X85043643Y-142728744D02*
G75*
G03*
X85360000Y-139501000I-1003643J1727744D01*
G01*
D11*
%TO.C,J17*%
X188408000Y-135950000D02*
X193608000Y-135950000D01*
X188408000Y-36830000D02*
X188408000Y-135950000D01*
X193608000Y-34230000D02*
X193608000Y-135950000D01*
X188408000Y-36830000D02*
X191008000Y-36830000D01*
X191008000Y-36830000D02*
X191008000Y-34230000D01*
X191008000Y-34230000D02*
X193608000Y-34230000D01*
X188408000Y-35560000D02*
X188408000Y-34230000D01*
X188408000Y-34230000D02*
X189738000Y-34230000D01*
%TO.C,U4*%
X92726000Y-74870000D02*
X91076000Y-74870000D01*
X91076000Y-74870000D02*
X91076000Y-92770000D01*
X91076000Y-92770000D02*
X96376000Y-92770000D01*
X96376000Y-92770000D02*
X96376000Y-74870000D01*
X96376000Y-74870000D02*
X94726000Y-74870000D01*
X88586000Y-74810000D02*
X88586000Y-92830000D01*
X88586000Y-92830000D02*
X98866000Y-92830000D01*
X98866000Y-92830000D02*
X98866000Y-74810000D01*
X98866000Y-74810000D02*
X88586000Y-74810000D01*
X94726000Y-74870000D02*
G75*
G02*
X92726000Y-74870000I-1000000J0D01*
G01*
%TO.C,U3*%
X92726000Y-41850000D02*
X91076000Y-41850000D01*
X91076000Y-41850000D02*
X91076000Y-52130000D01*
X91076000Y-52130000D02*
X96376000Y-52130000D01*
X96376000Y-52130000D02*
X96376000Y-41850000D01*
X96376000Y-41850000D02*
X94726000Y-41850000D01*
X94726000Y-41850000D02*
G75*
G02*
X92726000Y-41850000I-1000000J0D01*
G01*
%TO.C,U2*%
X92726000Y-55058000D02*
X91076000Y-55058000D01*
X91076000Y-55058000D02*
X91076000Y-72958000D01*
X91076000Y-72958000D02*
X96376000Y-72958000D01*
X96376000Y-72958000D02*
X96376000Y-55058000D01*
X96376000Y-55058000D02*
X94726000Y-55058000D01*
X88586000Y-54998000D02*
X88586000Y-73018000D01*
X88586000Y-73018000D02*
X98866000Y-73018000D01*
X98866000Y-73018000D02*
X98866000Y-54998000D01*
X98866000Y-54998000D02*
X88586000Y-54998000D01*
X94726000Y-55058000D02*
G75*
G02*
X92726000Y-55058000I-1000000J0D01*
G01*
D13*
%TO.C,RV12*%
X168636999Y-91730000D02*
X171176999Y-91730000D01*
X169906999Y-90460000D02*
X169906999Y-93000000D01*
X173081999Y-91730000D02*
G75*
G03*
X173081999Y-91730000I-3175000J0D01*
G01*
X162406999Y-83602000D02*
X162406999Y-99858000D01*
X177406999Y-83602000D02*
X177406999Y-99858000D01*
X162413999Y-99930000D02*
X177399999Y-99930000D01*
X162413999Y-83530000D02*
X177399999Y-83530000D01*
%TO.C,RV11*%
X152236999Y-91730000D02*
X154776999Y-91730000D01*
X153506999Y-90460000D02*
X153506999Y-93000000D01*
X156681999Y-91730000D02*
G75*
G03*
X156681999Y-91730000I-3175000J0D01*
G01*
X146006999Y-83602000D02*
X146006999Y-99858000D01*
X161006999Y-83602000D02*
X161006999Y-99858000D01*
X146013999Y-99930000D02*
X160999999Y-99930000D01*
X146013999Y-83530000D02*
X160999999Y-83530000D01*
%TO.C,RV10*%
X135836999Y-91730000D02*
X138376999Y-91730000D01*
X137106999Y-90460000D02*
X137106999Y-93000000D01*
X140281999Y-91730000D02*
G75*
G03*
X140281999Y-91730000I-3175000J0D01*
G01*
X129606999Y-83602000D02*
X129606999Y-99858000D01*
X144606999Y-83602000D02*
X144606999Y-99858000D01*
X129613999Y-99930000D02*
X144599999Y-99930000D01*
X129613999Y-83530000D02*
X144599999Y-83530000D01*
D11*
%TO.C,J16*%
X187258000Y-39430000D02*
X187258000Y-34230000D01*
X88138000Y-39430000D02*
X187258000Y-39430000D01*
X85538000Y-34230000D02*
X187258000Y-34230000D01*
X88138000Y-39430000D02*
X88138000Y-36830000D01*
X88138000Y-36830000D02*
X85538000Y-36830000D01*
X85538000Y-36830000D02*
X85538000Y-34230000D01*
X86868000Y-39430000D02*
X85538000Y-39430000D01*
X85538000Y-39430000D02*
X85538000Y-38100000D01*
D13*
%TO.C,J15*%
X174984000Y-114046000D02*
X178584000Y-114046000D01*
X176784000Y-112246000D02*
X176784000Y-115846000D01*
X178584000Y-114046000D02*
G75*
G03*
X178584000Y-114046000I-1800000J0D01*
G01*
X181284000Y-107846000D02*
X181284000Y-118746000D01*
X172284000Y-107846000D02*
X172284000Y-118746000D01*
X172284000Y-118746000D02*
X181284000Y-118746000D01*
X172284000Y-107846000D02*
X181284000Y-107846000D01*
%TO.C,J14*%
X178584000Y-127000000D02*
X174984000Y-127000000D01*
X176784000Y-128800000D02*
X176784000Y-125200000D01*
X178584000Y-127000000D02*
G75*
G03*
X178584000Y-127000000I-1800000J0D01*
G01*
X172284000Y-133200000D02*
X172284000Y-122300000D01*
X181284000Y-133200000D02*
X181284000Y-122300000D01*
X181284000Y-122300000D02*
X172284000Y-122300000D01*
X181284000Y-133200000D02*
X172284000Y-133200000D01*
%TO.C,J13*%
X168170000Y-127000000D02*
X164570000Y-127000000D01*
X166370000Y-128800000D02*
X166370000Y-125200000D01*
X168170000Y-127000000D02*
G75*
G03*
X168170000Y-127000000I-1800000J0D01*
G01*
X161870000Y-133200000D02*
X161870000Y-122300000D01*
X170870000Y-133200000D02*
X170870000Y-122300000D01*
X170870000Y-122300000D02*
X161870000Y-122300000D01*
X170870000Y-133200000D02*
X161870000Y-133200000D01*
%TO.C,J12*%
X164570000Y-114046000D02*
X168170000Y-114046000D01*
X166370000Y-112246000D02*
X166370000Y-115846000D01*
X168170000Y-114046000D02*
G75*
G03*
X168170000Y-114046000I-1800000J0D01*
G01*
X170870000Y-107846000D02*
X170870000Y-118746000D01*
X161870000Y-107846000D02*
X161870000Y-118746000D01*
X161870000Y-118746000D02*
X170870000Y-118746000D01*
X161870000Y-107846000D02*
X170870000Y-107846000D01*
%TO.C,D4*%
X122184000Y-90225000D02*
X122004000Y-90225000D01*
X119590000Y-90225000D02*
X119790000Y-90225000D01*
X119790747Y-90711111D02*
G75*
G03*
X119810000Y-92759000I1079253J-1013889D01*
G01*
X119563274Y-90237780D02*
G75*
G03*
X119910000Y-93475000I1306726J-1497220D01*
G01*
X122003068Y-92777006D02*
G75*
G03*
X122004000Y-90674000I-1133068J1052006D01*
G01*
X121873643Y-93452744D02*
G75*
G03*
X122190000Y-90225000I-1003643J1727744D01*
G01*
%TO.C,D3*%
X138386999Y-90261000D02*
X138206999Y-90261000D01*
X135792999Y-90261000D02*
X135992999Y-90261000D01*
X135993746Y-90747111D02*
G75*
G03*
X136012999Y-92795000I1079253J-1013889D01*
G01*
X135766273Y-90273780D02*
G75*
G03*
X136112999Y-93511000I1306726J-1497220D01*
G01*
X138206067Y-92813006D02*
G75*
G03*
X138206999Y-90710000I-1133068J1052006D01*
G01*
X138076642Y-93488744D02*
G75*
G03*
X138392999Y-90261000I-1003643J1727744D01*
G01*
%TO.C,D2*%
X154950000Y-90225000D02*
X154770000Y-90225000D01*
X152356000Y-90225000D02*
X152556000Y-90225000D01*
X152556747Y-90711111D02*
G75*
G03*
X152576000Y-92759000I1079253J-1013889D01*
G01*
X152329274Y-90237780D02*
G75*
G03*
X152676000Y-93475000I1306726J-1497220D01*
G01*
X154769068Y-92777006D02*
G75*
G03*
X154770000Y-90674000I-1133068J1052006D01*
G01*
X154639643Y-93452744D02*
G75*
G03*
X154956000Y-90225000I-1003643J1727744D01*
G01*
%TO.C,D1*%
X171206000Y-90225000D02*
X171026000Y-90225000D01*
X168612000Y-90225000D02*
X168812000Y-90225000D01*
X168812747Y-90711111D02*
G75*
G03*
X168832000Y-92759000I1079253J-1013889D01*
G01*
X168585274Y-90237780D02*
G75*
G03*
X168932000Y-93475000I1306726J-1497220D01*
G01*
X171025068Y-92777006D02*
G75*
G03*
X171026000Y-90674000I-1133068J1052006D01*
G01*
X170895643Y-93452744D02*
G75*
G03*
X171212000Y-90225000I-1003643J1727744D01*
G01*
%TO.C,J11*%
X157970000Y-126918000D02*
X154370000Y-126918000D01*
X156170000Y-128718000D02*
X156170000Y-125118000D01*
X157970000Y-126918000D02*
G75*
G03*
X157970000Y-126918000I-1800000J0D01*
G01*
X151670000Y-133118000D02*
X151670000Y-122218000D01*
X160670000Y-133118000D02*
X160670000Y-122218000D01*
X160670000Y-122218000D02*
X151670000Y-122218000D01*
X160670000Y-133118000D02*
X151670000Y-133118000D01*
%TO.C,J10*%
X147820000Y-126918000D02*
X144220000Y-126918000D01*
X146020000Y-128718000D02*
X146020000Y-125118000D01*
X147820000Y-126918000D02*
G75*
G03*
X147820000Y-126918000I-1800000J0D01*
G01*
X141520000Y-133118000D02*
X141520000Y-122218000D01*
X150520000Y-133118000D02*
X150520000Y-122218000D01*
X150520000Y-122218000D02*
X141520000Y-122218000D01*
X150520000Y-133118000D02*
X141520000Y-133118000D01*
%TO.C,J9*%
X154370000Y-114046000D02*
X157970000Y-114046000D01*
X156170000Y-112246000D02*
X156170000Y-115846000D01*
X157970000Y-114046000D02*
G75*
G03*
X157970000Y-114046000I-1800000J0D01*
G01*
X160670000Y-107846000D02*
X160670000Y-118746000D01*
X151670000Y-107846000D02*
X151670000Y-118746000D01*
X151670000Y-118746000D02*
X160670000Y-118746000D01*
X151670000Y-107846000D02*
X160670000Y-107846000D01*
%TO.C,J8*%
X144220000Y-114046000D02*
X147820000Y-114046000D01*
X146020000Y-112246000D02*
X146020000Y-115846000D01*
X147820000Y-114046000D02*
G75*
G03*
X147820000Y-114046000I-1800000J0D01*
G01*
X150520000Y-107846000D02*
X150520000Y-118746000D01*
X141520000Y-107846000D02*
X141520000Y-118746000D01*
X141520000Y-118746000D02*
X150520000Y-118746000D01*
X141520000Y-107846000D02*
X150520000Y-107846000D01*
%TO.C,J7*%
X137670000Y-126918000D02*
X134070000Y-126918000D01*
X135870000Y-128718000D02*
X135870000Y-125118000D01*
X137670000Y-126918000D02*
G75*
G03*
X137670000Y-126918000I-1800000J0D01*
G01*
X131370000Y-133118000D02*
X131370000Y-122218000D01*
X140370000Y-133118000D02*
X140370000Y-122218000D01*
X140370000Y-122218000D02*
X131370000Y-122218000D01*
X140370000Y-133118000D02*
X131370000Y-133118000D01*
%TO.C,J5*%
X127520000Y-126918000D02*
X123920000Y-126918000D01*
X125720000Y-128718000D02*
X125720000Y-125118000D01*
X127520000Y-126918000D02*
G75*
G03*
X127520000Y-126918000I-1800000J0D01*
G01*
X121220000Y-133118000D02*
X121220000Y-122218000D01*
X130220000Y-133118000D02*
X130220000Y-122218000D01*
X130220000Y-122218000D02*
X121220000Y-122218000D01*
X130220000Y-133118000D02*
X121220000Y-133118000D01*
%TO.C,J4*%
X134070000Y-114046000D02*
X137670000Y-114046000D01*
X135870000Y-112246000D02*
X135870000Y-115846000D01*
X137670000Y-114046000D02*
G75*
G03*
X137670000Y-114046000I-1800000J0D01*
G01*
X140370000Y-107846000D02*
X140370000Y-118746000D01*
X131370000Y-107846000D02*
X131370000Y-118746000D01*
X131370000Y-118746000D02*
X140370000Y-118746000D01*
X131370000Y-107846000D02*
X140370000Y-107846000D01*
%TO.C,J3*%
X123920000Y-114046000D02*
X127520000Y-114046000D01*
X125720000Y-112246000D02*
X125720000Y-115846000D01*
X127520000Y-114046000D02*
G75*
G03*
X127520000Y-114046000I-1800000J0D01*
G01*
X130220000Y-107846000D02*
X130220000Y-118746000D01*
X121220000Y-107846000D02*
X121220000Y-118746000D01*
X121220000Y-118746000D02*
X130220000Y-118746000D01*
X121220000Y-107846000D02*
X130220000Y-107846000D01*
%TO.C,J2*%
X117370000Y-126918000D02*
X113770000Y-126918000D01*
X115570000Y-128718000D02*
X115570000Y-125118000D01*
X117370000Y-126918000D02*
G75*
G03*
X117370000Y-126918000I-1800000J0D01*
G01*
X111070000Y-133118000D02*
X111070000Y-122218000D01*
X120070000Y-133118000D02*
X120070000Y-122218000D01*
X120070000Y-122218000D02*
X111070000Y-122218000D01*
X120070000Y-133118000D02*
X111070000Y-133118000D01*
%TO.C,J1*%
X113770000Y-114046000D02*
X117370000Y-114046000D01*
X115570000Y-112246000D02*
X115570000Y-115846000D01*
X117370000Y-114046000D02*
G75*
G03*
X117370000Y-114046000I-1800000J0D01*
G01*
X120070000Y-107846000D02*
X120070000Y-118746000D01*
X111070000Y-107846000D02*
X111070000Y-118746000D01*
X111070000Y-118746000D02*
X120070000Y-118746000D01*
X111070000Y-107846000D02*
X120070000Y-107846000D01*
D11*
%TO.C,RV8*%
X166142000Y-57988000D02*
X166142000Y-53330000D01*
X166142000Y-49525000D02*
X166142000Y-46518000D01*
X178362000Y-57988000D02*
X178362000Y-53330000D01*
X178362000Y-49525000D02*
X178362000Y-46518000D01*
X166142000Y-57988000D02*
X168927000Y-57988000D01*
X170577000Y-57988000D02*
X171427000Y-57988000D01*
X173077000Y-57988000D02*
X173927000Y-57988000D01*
X175577000Y-57988000D02*
X178362000Y-57988000D01*
X166142000Y-46518000D02*
X178362000Y-46518000D01*
X169627582Y-49973754D02*
G75*
G02*
X174876000Y-49973000I2624418J-1454246D01*
G01*
X174876100Y-52883624D02*
G75*
G02*
X169627000Y-52882000I-2624100J1455624D01*
G01*
%TO.C,RV7*%
X148830000Y-58028000D02*
X148830000Y-53370000D01*
X148830000Y-49565000D02*
X148830000Y-46558000D01*
X161050000Y-58028000D02*
X161050000Y-53370000D01*
X161050000Y-49565000D02*
X161050000Y-46558000D01*
X148830000Y-58028000D02*
X151615000Y-58028000D01*
X153265000Y-58028000D02*
X154115000Y-58028000D01*
X155765000Y-58028000D02*
X156615000Y-58028000D01*
X158265000Y-58028000D02*
X161050000Y-58028000D01*
X148830000Y-46558000D02*
X161050000Y-46558000D01*
X152315582Y-50013754D02*
G75*
G02*
X157564000Y-50013000I2624418J-1454246D01*
G01*
X157564100Y-52923624D02*
G75*
G02*
X152315000Y-52922000I-2624100J1455624D01*
G01*
%TO.C,RV6*%
X131090000Y-58242000D02*
X131090000Y-53584000D01*
X131090000Y-49779000D02*
X131090000Y-46772000D01*
X143310000Y-58242000D02*
X143310000Y-53584000D01*
X143310000Y-49779000D02*
X143310000Y-46772000D01*
X131090000Y-58242000D02*
X133875000Y-58242000D01*
X135525000Y-58242000D02*
X136375000Y-58242000D01*
X138025000Y-58242000D02*
X138875000Y-58242000D01*
X140525000Y-58242000D02*
X143310000Y-58242000D01*
X131090000Y-46772000D02*
X143310000Y-46772000D01*
X134575582Y-50227754D02*
G75*
G02*
X139824000Y-50227000I2624418J-1454246D01*
G01*
X139824100Y-53137624D02*
G75*
G02*
X134575000Y-53136000I-2624100J1455624D01*
G01*
%TO.C,RV5*%
X113697000Y-78816000D02*
X113697000Y-74950000D01*
X113697000Y-70561000D02*
X113697000Y-66696000D01*
X123618000Y-78816000D02*
X123618000Y-74950000D01*
X123618000Y-70561000D02*
X123618000Y-66696000D01*
X113697000Y-78816000D02*
X115333000Y-78816000D01*
X116983000Y-78816000D02*
X117833000Y-78816000D01*
X119483000Y-78816000D02*
X120333000Y-78816000D01*
X121983000Y-78816000D02*
X123618000Y-78816000D01*
X113697000Y-66696000D02*
X123618000Y-66696000D01*
X115895568Y-71084018D02*
G75*
G02*
X121420000Y-71083000I2762432J-1171982D01*
G01*
X120955753Y-74184295D02*
G75*
G02*
X116360000Y-74184000I-2297753J1928295D01*
G01*
%TO.C,RV4*%
X131985000Y-78816000D02*
X131985000Y-74950000D01*
X131985000Y-70561000D02*
X131985000Y-66696000D01*
X141906000Y-78816000D02*
X141906000Y-74950000D01*
X141906000Y-70561000D02*
X141906000Y-66696000D01*
X131985000Y-78816000D02*
X133621000Y-78816000D01*
X135271000Y-78816000D02*
X136121000Y-78816000D01*
X137771000Y-78816000D02*
X138621000Y-78816000D01*
X140271000Y-78816000D02*
X141906000Y-78816000D01*
X131985000Y-66696000D02*
X141906000Y-66696000D01*
X134183568Y-71084018D02*
G75*
G02*
X139708000Y-71083000I2762432J-1171982D01*
G01*
X139243753Y-74184295D02*
G75*
G02*
X134648000Y-74184000I-2297753J1928295D01*
G01*
%TO.C,RV3*%
X150061000Y-78704000D02*
X150061000Y-74838000D01*
X150061000Y-70449000D02*
X150061000Y-66584000D01*
X159982000Y-78704000D02*
X159982000Y-74838000D01*
X159982000Y-70449000D02*
X159982000Y-66584000D01*
X150061000Y-78704000D02*
X151697000Y-78704000D01*
X153347000Y-78704000D02*
X154197000Y-78704000D01*
X155847000Y-78704000D02*
X156697000Y-78704000D01*
X158347000Y-78704000D02*
X159982000Y-78704000D01*
X150061000Y-66584000D02*
X159982000Y-66584000D01*
X152259568Y-70972018D02*
G75*
G02*
X157784000Y-70971000I2762432J-1171982D01*
G01*
X157319753Y-74072295D02*
G75*
G02*
X152724000Y-74072000I-2297753J1928295D01*
G01*
%TO.C,RV2*%
X112686000Y-58376000D02*
X112686000Y-53718000D01*
X112686000Y-49913000D02*
X112686000Y-46906000D01*
X124906000Y-58376000D02*
X124906000Y-53718000D01*
X124906000Y-49913000D02*
X124906000Y-46906000D01*
X112686000Y-58376000D02*
X115471000Y-58376000D01*
X117121000Y-58376000D02*
X117971000Y-58376000D01*
X119621000Y-58376000D02*
X120471000Y-58376000D01*
X122121000Y-58376000D02*
X124906000Y-58376000D01*
X112686000Y-46906000D02*
X124906000Y-46906000D01*
X116171582Y-50361754D02*
G75*
G02*
X121420000Y-50361000I2624418J-1454246D01*
G01*
X121420100Y-53271624D02*
G75*
G02*
X116171000Y-53270000I-2624100J1455624D01*
G01*
%TO.C,RV1*%
X167333000Y-78704000D02*
X167333000Y-74838000D01*
X167333000Y-70449000D02*
X167333000Y-66584000D01*
X177254000Y-78704000D02*
X177254000Y-74838000D01*
X177254000Y-70449000D02*
X177254000Y-66584000D01*
X167333000Y-78704000D02*
X168969000Y-78704000D01*
X170619000Y-78704000D02*
X171469000Y-78704000D01*
X173119000Y-78704000D02*
X173969000Y-78704000D01*
X175619000Y-78704000D02*
X177254000Y-78704000D01*
X167333000Y-66584000D02*
X177254000Y-66584000D01*
X169531568Y-70972018D02*
G75*
G02*
X175056000Y-70971000I2762432J-1171982D01*
G01*
X174591753Y-74072295D02*
G75*
G02*
X169996000Y-74072000I-2297753J1928295D01*
G01*
%TO.C,J6*%
X78934000Y-135950000D02*
X84134000Y-135950000D01*
X78934000Y-36830000D02*
X78934000Y-135950000D01*
X84134000Y-34230000D02*
X84134000Y-135950000D01*
X78934000Y-36830000D02*
X81534000Y-36830000D01*
X81534000Y-36830000D02*
X81534000Y-34230000D01*
X81534000Y-34230000D02*
X84134000Y-34230000D01*
X78934000Y-35560000D02*
X78934000Y-34230000D01*
X78934000Y-34230000D02*
X80264000Y-34230000D01*
%TO.C,H1*%
X105724000Y-135950000D02*
X105724000Y-130750000D01*
X87884000Y-135950000D02*
X105724000Y-135950000D01*
X85284000Y-130750000D02*
X105724000Y-130750000D01*
X87884000Y-135950000D02*
X87884000Y-133350000D01*
X87884000Y-133350000D02*
X85284000Y-133350000D01*
X85284000Y-133350000D02*
X85284000Y-130750000D01*
X86614000Y-135950000D02*
X85284000Y-135950000D01*
X85284000Y-135950000D02*
X85284000Y-134620000D01*
%TO.C,J18*%
D13*
X90086380Y-141779523D02*
X90800666Y-141779523D01*
X90943523Y-141827142D01*
X91038761Y-141922380D01*
X91086380Y-142065238D01*
X91086380Y-142160476D01*
X91086380Y-140779523D02*
X91086380Y-141350952D01*
X91086380Y-141065238D02*
X90086380Y-141065238D01*
X90229238Y-141160476D01*
X90324476Y-141255714D01*
X90372095Y-141350952D01*
X90514952Y-140208095D02*
X90467333Y-140303333D01*
X90419714Y-140350952D01*
X90324476Y-140398571D01*
X90276857Y-140398571D01*
X90181619Y-140350952D01*
X90134000Y-140303333D01*
X90086380Y-140208095D01*
X90086380Y-140017619D01*
X90134000Y-139922380D01*
X90181619Y-139874761D01*
X90276857Y-139827142D01*
X90324476Y-139827142D01*
X90419714Y-139874761D01*
X90467333Y-139922380D01*
X90514952Y-140017619D01*
X90514952Y-140208095D01*
X90562571Y-140303333D01*
X90610190Y-140350952D01*
X90705428Y-140398571D01*
X90895904Y-140398571D01*
X90991142Y-140350952D01*
X91038761Y-140303333D01*
X91086380Y-140208095D01*
X91086380Y-140017619D01*
X91038761Y-139922380D01*
X90991142Y-139874761D01*
X90895904Y-139827142D01*
X90705428Y-139827142D01*
X90610190Y-139874761D01*
X90562571Y-139922380D01*
X90514952Y-140017619D01*
%TO.C,RV9*%
X120111760Y-101682380D02*
X119778427Y-101206190D01*
X119540332Y-101682380D02*
X119540332Y-100682380D01*
X119921284Y-100682380D01*
X120016522Y-100730000D01*
X120064141Y-100777619D01*
X120111760Y-100872857D01*
X120111760Y-101015714D01*
X120064141Y-101110952D01*
X120016522Y-101158571D01*
X119921284Y-101206190D01*
X119540332Y-101206190D01*
X120397475Y-100682380D02*
X120730808Y-101682380D01*
X121064141Y-100682380D01*
X121445094Y-101682380D02*
X121635570Y-101682380D01*
X121730808Y-101634761D01*
X121778427Y-101587142D01*
X121873665Y-101444285D01*
X121921284Y-101253809D01*
X121921284Y-100872857D01*
X121873665Y-100777619D01*
X121826046Y-100730000D01*
X121730808Y-100682380D01*
X121540332Y-100682380D01*
X121445094Y-100730000D01*
X121397475Y-100777619D01*
X121349856Y-100872857D01*
X121349856Y-101110952D01*
X121397475Y-101206190D01*
X121445094Y-101253809D01*
X121540332Y-101301428D01*
X121730808Y-101301428D01*
X121826046Y-101253809D01*
X121873665Y-101206190D01*
X121921284Y-101110952D01*
%TO.C,SW3*%
X104136666Y-61390761D02*
X104279523Y-61438380D01*
X104517619Y-61438380D01*
X104612857Y-61390761D01*
X104660476Y-61343142D01*
X104708095Y-61247904D01*
X104708095Y-61152666D01*
X104660476Y-61057428D01*
X104612857Y-61009809D01*
X104517619Y-60962190D01*
X104327142Y-60914571D01*
X104231904Y-60866952D01*
X104184285Y-60819333D01*
X104136666Y-60724095D01*
X104136666Y-60628857D01*
X104184285Y-60533619D01*
X104231904Y-60486000D01*
X104327142Y-60438380D01*
X104565238Y-60438380D01*
X104708095Y-60486000D01*
X105041428Y-60438380D02*
X105279523Y-61438380D01*
X105470000Y-60724095D01*
X105660476Y-61438380D01*
X105898571Y-60438380D01*
X106184285Y-60438380D02*
X106803333Y-60438380D01*
X106470000Y-60819333D01*
X106612857Y-60819333D01*
X106708095Y-60866952D01*
X106755714Y-60914571D01*
X106803333Y-61009809D01*
X106803333Y-61247904D01*
X106755714Y-61343142D01*
X106708095Y-61390761D01*
X106612857Y-61438380D01*
X106327142Y-61438380D01*
X106231904Y-61390761D01*
X106184285Y-61343142D01*
%TO.C,SW2*%
X103882666Y-41324761D02*
X104025523Y-41372380D01*
X104263619Y-41372380D01*
X104358857Y-41324761D01*
X104406476Y-41277142D01*
X104454095Y-41181904D01*
X104454095Y-41086666D01*
X104406476Y-40991428D01*
X104358857Y-40943809D01*
X104263619Y-40896190D01*
X104073142Y-40848571D01*
X103977904Y-40800952D01*
X103930285Y-40753333D01*
X103882666Y-40658095D01*
X103882666Y-40562857D01*
X103930285Y-40467619D01*
X103977904Y-40420000D01*
X104073142Y-40372380D01*
X104311238Y-40372380D01*
X104454095Y-40420000D01*
X104787428Y-40372380D02*
X105025523Y-41372380D01*
X105216000Y-40658095D01*
X105406476Y-41372380D01*
X105644571Y-40372380D01*
X105977904Y-40467619D02*
X106025523Y-40420000D01*
X106120761Y-40372380D01*
X106358857Y-40372380D01*
X106454095Y-40420000D01*
X106501714Y-40467619D01*
X106549333Y-40562857D01*
X106549333Y-40658095D01*
X106501714Y-40800952D01*
X105930285Y-41372380D01*
X106549333Y-41372380D01*
%TO.C,SW1*%
X104390666Y-79170761D02*
X104533523Y-79218380D01*
X104771619Y-79218380D01*
X104866857Y-79170761D01*
X104914476Y-79123142D01*
X104962095Y-79027904D01*
X104962095Y-78932666D01*
X104914476Y-78837428D01*
X104866857Y-78789809D01*
X104771619Y-78742190D01*
X104581142Y-78694571D01*
X104485904Y-78646952D01*
X104438285Y-78599333D01*
X104390666Y-78504095D01*
X104390666Y-78408857D01*
X104438285Y-78313619D01*
X104485904Y-78266000D01*
X104581142Y-78218380D01*
X104819238Y-78218380D01*
X104962095Y-78266000D01*
X105295428Y-78218380D02*
X105533523Y-79218380D01*
X105724000Y-78504095D01*
X105914476Y-79218380D01*
X106152571Y-78218380D01*
X107057333Y-79218380D02*
X106485904Y-79218380D01*
X106771619Y-79218380D02*
X106771619Y-78218380D01*
X106676380Y-78361238D01*
X106581142Y-78456476D01*
X106485904Y-78504095D01*
%TO.C,H6*%
X84736380Y-98805904D02*
X83736380Y-98805904D01*
X84212571Y-98805904D02*
X84212571Y-98234476D01*
X84736380Y-98234476D02*
X83736380Y-98234476D01*
X83736380Y-97329714D02*
X83736380Y-97520190D01*
X83784000Y-97615428D01*
X83831619Y-97663047D01*
X83974476Y-97758285D01*
X84164952Y-97805904D01*
X84545904Y-97805904D01*
X84641142Y-97758285D01*
X84688761Y-97710666D01*
X84736380Y-97615428D01*
X84736380Y-97424952D01*
X84688761Y-97329714D01*
X84641142Y-97282095D01*
X84545904Y-97234476D01*
X84307809Y-97234476D01*
X84212571Y-97282095D01*
X84164952Y-97329714D01*
X84117333Y-97424952D01*
X84117333Y-97615428D01*
X84164952Y-97710666D01*
X84212571Y-97758285D01*
X84307809Y-97805904D01*
%TO.C,H5*%
X84736380Y-105155904D02*
X83736380Y-105155904D01*
X84212571Y-105155904D02*
X84212571Y-104584476D01*
X84736380Y-104584476D02*
X83736380Y-104584476D01*
X83736380Y-103632095D02*
X83736380Y-104108285D01*
X84212571Y-104155904D01*
X84164952Y-104108285D01*
X84117333Y-104013047D01*
X84117333Y-103774952D01*
X84164952Y-103679714D01*
X84212571Y-103632095D01*
X84307809Y-103584476D01*
X84545904Y-103584476D01*
X84641142Y-103632095D01*
X84688761Y-103679714D01*
X84736380Y-103774952D01*
X84736380Y-104013047D01*
X84688761Y-104108285D01*
X84641142Y-104155904D01*
%TO.C,H4*%
X84736380Y-111505904D02*
X83736380Y-111505904D01*
X84212571Y-111505904D02*
X84212571Y-110934476D01*
X84736380Y-110934476D02*
X83736380Y-110934476D01*
X84069714Y-110029714D02*
X84736380Y-110029714D01*
X83688761Y-110267809D02*
X84403047Y-110505904D01*
X84403047Y-109886857D01*
%TO.C,H2*%
X84736380Y-117855904D02*
X83736380Y-117855904D01*
X84212571Y-117855904D02*
X84212571Y-117284476D01*
X84736380Y-117284476D02*
X83736380Y-117284476D01*
X83831619Y-116855904D02*
X83784000Y-116808285D01*
X83736380Y-116713047D01*
X83736380Y-116474952D01*
X83784000Y-116379714D01*
X83831619Y-116332095D01*
X83926857Y-116284476D01*
X84022095Y-116284476D01*
X84164952Y-116332095D01*
X84736380Y-116903523D01*
X84736380Y-116284476D01*
%TO.C,D7*%
X83002380Y-141708095D02*
X82002380Y-141708095D01*
X82002380Y-141470000D01*
X82050000Y-141327142D01*
X82145238Y-141231904D01*
X82240476Y-141184285D01*
X82430952Y-141136666D01*
X82573809Y-141136666D01*
X82764285Y-141184285D01*
X82859523Y-141231904D01*
X82954761Y-141327142D01*
X83002380Y-141470000D01*
X83002380Y-141708095D01*
X82002380Y-140803333D02*
X82002380Y-140136666D01*
X83002380Y-140565238D01*
X81478380Y-144279904D02*
X80478380Y-144279904D01*
X81478380Y-143708476D02*
X80906952Y-144137047D01*
X80478380Y-143708476D02*
X81049809Y-144279904D01*
%TO.C,D6*%
X92146380Y-141708095D02*
X91146380Y-141708095D01*
X91146380Y-141470000D01*
X91194000Y-141327142D01*
X91289238Y-141231904D01*
X91384476Y-141184285D01*
X91574952Y-141136666D01*
X91717809Y-141136666D01*
X91908285Y-141184285D01*
X92003523Y-141231904D01*
X92098761Y-141327142D01*
X92146380Y-141470000D01*
X92146380Y-141708095D01*
X91146380Y-140279523D02*
X91146380Y-140470000D01*
X91194000Y-140565238D01*
X91241619Y-140612857D01*
X91384476Y-140708095D01*
X91574952Y-140755714D01*
X91955904Y-140755714D01*
X92051142Y-140708095D01*
X92098761Y-140660476D01*
X92146380Y-140565238D01*
X92146380Y-140374761D01*
X92098761Y-140279523D01*
X92051142Y-140231904D01*
X91955904Y-140184285D01*
X91717809Y-140184285D01*
X91622571Y-140231904D01*
X91574952Y-140279523D01*
X91527333Y-140374761D01*
X91527333Y-140565238D01*
X91574952Y-140660476D01*
X91622571Y-140708095D01*
X91717809Y-140755714D01*
X90622380Y-144279904D02*
X89622380Y-144279904D01*
X90622380Y-143708476D02*
X90050952Y-144137047D01*
X89622380Y-143708476D02*
X90193809Y-144279904D01*
%TO.C,D5*%
X81478380Y-141708095D02*
X80478380Y-141708095D01*
X80478380Y-141470000D01*
X80526000Y-141327142D01*
X80621238Y-141231904D01*
X80716476Y-141184285D01*
X80906952Y-141136666D01*
X81049809Y-141136666D01*
X81240285Y-141184285D01*
X81335523Y-141231904D01*
X81430761Y-141327142D01*
X81478380Y-141470000D01*
X81478380Y-141708095D01*
X80478380Y-140231904D02*
X80478380Y-140708095D01*
X80954571Y-140755714D01*
X80906952Y-140708095D01*
X80859333Y-140612857D01*
X80859333Y-140374761D01*
X80906952Y-140279523D01*
X80954571Y-140231904D01*
X81049809Y-140184285D01*
X81287904Y-140184285D01*
X81383142Y-140231904D01*
X81430761Y-140279523D01*
X81478380Y-140374761D01*
X81478380Y-140612857D01*
X81430761Y-140708095D01*
X81383142Y-140755714D01*
X83002380Y-138183904D02*
X82002380Y-138183904D01*
X83002380Y-137612476D02*
X82430952Y-138041047D01*
X82002380Y-137612476D02*
X82573809Y-138183904D01*
%TO.C,J17*%
X190198476Y-32682380D02*
X190198476Y-33396666D01*
X190150857Y-33539523D01*
X190055619Y-33634761D01*
X189912761Y-33682380D01*
X189817523Y-33682380D01*
X191198476Y-33682380D02*
X190627047Y-33682380D01*
X190912761Y-33682380D02*
X190912761Y-32682380D01*
X190817523Y-32825238D01*
X190722285Y-32920476D01*
X190627047Y-32968095D01*
X191531809Y-32682380D02*
X192198476Y-32682380D01*
X191769904Y-33682380D01*
%TO.C,U4*%
X92964095Y-73322380D02*
X92964095Y-74131904D01*
X93011714Y-74227142D01*
X93059333Y-74274761D01*
X93154571Y-74322380D01*
X93345047Y-74322380D01*
X93440285Y-74274761D01*
X93487904Y-74227142D01*
X93535523Y-74131904D01*
X93535523Y-73322380D01*
X94440285Y-73655714D02*
X94440285Y-74322380D01*
X94202190Y-73274761D02*
X93964095Y-73989047D01*
X94583142Y-73989047D01*
%TO.C,U3*%
X92964095Y-40302380D02*
X92964095Y-41111904D01*
X93011714Y-41207142D01*
X93059333Y-41254761D01*
X93154571Y-41302380D01*
X93345047Y-41302380D01*
X93440285Y-41254761D01*
X93487904Y-41207142D01*
X93535523Y-41111904D01*
X93535523Y-40302380D01*
X93916476Y-40302380D02*
X94535523Y-40302380D01*
X94202190Y-40683333D01*
X94345047Y-40683333D01*
X94440285Y-40730952D01*
X94487904Y-40778571D01*
X94535523Y-40873809D01*
X94535523Y-41111904D01*
X94487904Y-41207142D01*
X94440285Y-41254761D01*
X94345047Y-41302380D01*
X94059333Y-41302380D01*
X93964095Y-41254761D01*
X93916476Y-41207142D01*
%TO.C,U2*%
X92964095Y-53510380D02*
X92964095Y-54319904D01*
X93011714Y-54415142D01*
X93059333Y-54462761D01*
X93154571Y-54510380D01*
X93345047Y-54510380D01*
X93440285Y-54462761D01*
X93487904Y-54415142D01*
X93535523Y-54319904D01*
X93535523Y-53510380D01*
X93964095Y-53605619D02*
X94011714Y-53558000D01*
X94106952Y-53510380D01*
X94345047Y-53510380D01*
X94440285Y-53558000D01*
X94487904Y-53605619D01*
X94535523Y-53700857D01*
X94535523Y-53796095D01*
X94487904Y-53938952D01*
X93916476Y-54510380D01*
X94535523Y-54510380D01*
%TO.C,RV12*%
X168835570Y-101682380D02*
X168502237Y-101206190D01*
X168264141Y-101682380D02*
X168264141Y-100682380D01*
X168645094Y-100682380D01*
X168740332Y-100730000D01*
X168787951Y-100777619D01*
X168835570Y-100872857D01*
X168835570Y-101015714D01*
X168787951Y-101110952D01*
X168740332Y-101158571D01*
X168645094Y-101206190D01*
X168264141Y-101206190D01*
X169121284Y-100682380D02*
X169454618Y-101682380D01*
X169787951Y-100682380D01*
X170645094Y-101682380D02*
X170073665Y-101682380D01*
X170359379Y-101682380D02*
X170359379Y-100682380D01*
X170264141Y-100825238D01*
X170168903Y-100920476D01*
X170073665Y-100968095D01*
X171026046Y-100777619D02*
X171073665Y-100730000D01*
X171168903Y-100682380D01*
X171406999Y-100682380D01*
X171502237Y-100730000D01*
X171549856Y-100777619D01*
X171597475Y-100872857D01*
X171597475Y-100968095D01*
X171549856Y-101110952D01*
X170978427Y-101682380D01*
X171597475Y-101682380D01*
%TO.C,RV11*%
X152435570Y-101682380D02*
X152102237Y-101206190D01*
X151864141Y-101682380D02*
X151864141Y-100682380D01*
X152245094Y-100682380D01*
X152340332Y-100730000D01*
X152387951Y-100777619D01*
X152435570Y-100872857D01*
X152435570Y-101015714D01*
X152387951Y-101110952D01*
X152340332Y-101158571D01*
X152245094Y-101206190D01*
X151864141Y-101206190D01*
X152721284Y-100682380D02*
X153054618Y-101682380D01*
X153387951Y-100682380D01*
X154245094Y-101682380D02*
X153673665Y-101682380D01*
X153959379Y-101682380D02*
X153959379Y-100682380D01*
X153864141Y-100825238D01*
X153768903Y-100920476D01*
X153673665Y-100968095D01*
X155197475Y-101682380D02*
X154626046Y-101682380D01*
X154911760Y-101682380D02*
X154911760Y-100682380D01*
X154816522Y-100825238D01*
X154721284Y-100920476D01*
X154626046Y-100968095D01*
%TO.C,RV10*%
X136035570Y-101682380D02*
X135702237Y-101206190D01*
X135464141Y-101682380D02*
X135464141Y-100682380D01*
X135845094Y-100682380D01*
X135940332Y-100730000D01*
X135987951Y-100777619D01*
X136035570Y-100872857D01*
X136035570Y-101015714D01*
X135987951Y-101110952D01*
X135940332Y-101158571D01*
X135845094Y-101206190D01*
X135464141Y-101206190D01*
X136321284Y-100682380D02*
X136654618Y-101682380D01*
X136987951Y-100682380D01*
X137845094Y-101682380D02*
X137273665Y-101682380D01*
X137559379Y-101682380D02*
X137559379Y-100682380D01*
X137464141Y-100825238D01*
X137368903Y-100920476D01*
X137273665Y-100968095D01*
X138464141Y-100682380D02*
X138559379Y-100682380D01*
X138654618Y-100730000D01*
X138702237Y-100777619D01*
X138749856Y-100872857D01*
X138797475Y-101063333D01*
X138797475Y-101301428D01*
X138749856Y-101491904D01*
X138702237Y-101587142D01*
X138654618Y-101634761D01*
X138559379Y-101682380D01*
X138464141Y-101682380D01*
X138368903Y-101634761D01*
X138321284Y-101587142D01*
X138273665Y-101491904D01*
X138226046Y-101301428D01*
X138226046Y-101063333D01*
X138273665Y-100872857D01*
X138321284Y-100777619D01*
X138368903Y-100730000D01*
X138464141Y-100682380D01*
%TO.C,J16*%
X83990380Y-37639523D02*
X84704666Y-37639523D01*
X84847523Y-37687142D01*
X84942761Y-37782380D01*
X84990380Y-37925238D01*
X84990380Y-38020476D01*
X84990380Y-36639523D02*
X84990380Y-37210952D01*
X84990380Y-36925238D02*
X83990380Y-36925238D01*
X84133238Y-37020476D01*
X84228476Y-37115714D01*
X84276095Y-37210952D01*
X83990380Y-35782380D02*
X83990380Y-35972857D01*
X84038000Y-36068095D01*
X84085619Y-36115714D01*
X84228476Y-36210952D01*
X84418952Y-36258571D01*
X84799904Y-36258571D01*
X84895142Y-36210952D01*
X84942761Y-36163333D01*
X84990380Y-36068095D01*
X84990380Y-35877619D01*
X84942761Y-35782380D01*
X84895142Y-35734761D01*
X84799904Y-35687142D01*
X84561809Y-35687142D01*
X84466571Y-35734761D01*
X84418952Y-35782380D01*
X84371333Y-35877619D01*
X84371333Y-36068095D01*
X84418952Y-36163333D01*
X84466571Y-36210952D01*
X84561809Y-36258571D01*
%TO.C,J15*%
X180038476Y-119086380D02*
X180038476Y-119800666D01*
X179990857Y-119943523D01*
X179895619Y-120038761D01*
X179752761Y-120086380D01*
X179657523Y-120086380D01*
X181038476Y-120086380D02*
X180467047Y-120086380D01*
X180752761Y-120086380D02*
X180752761Y-119086380D01*
X180657523Y-119229238D01*
X180562285Y-119324476D01*
X180467047Y-119372095D01*
X181943238Y-119086380D02*
X181467047Y-119086380D01*
X181419428Y-119562571D01*
X181467047Y-119514952D01*
X181562285Y-119467333D01*
X181800380Y-119467333D01*
X181895619Y-119514952D01*
X181943238Y-119562571D01*
X181990857Y-119657809D01*
X181990857Y-119895904D01*
X181943238Y-119991142D01*
X181895619Y-120038761D01*
X181800380Y-120086380D01*
X181562285Y-120086380D01*
X181467047Y-120038761D01*
X181419428Y-119991142D01*
%TO.C,J14*%
X171910476Y-120864380D02*
X171910476Y-121578666D01*
X171862857Y-121721523D01*
X171767619Y-121816761D01*
X171624761Y-121864380D01*
X171529523Y-121864380D01*
X172910476Y-121864380D02*
X172339047Y-121864380D01*
X172624761Y-121864380D02*
X172624761Y-120864380D01*
X172529523Y-121007238D01*
X172434285Y-121102476D01*
X172339047Y-121150095D01*
X173767619Y-121197714D02*
X173767619Y-121864380D01*
X173529523Y-120816761D02*
X173291428Y-121531047D01*
X173910476Y-121531047D01*
%TO.C,J13*%
X161496476Y-120864380D02*
X161496476Y-121578666D01*
X161448857Y-121721523D01*
X161353619Y-121816761D01*
X161210761Y-121864380D01*
X161115523Y-121864380D01*
X162496476Y-121864380D02*
X161925047Y-121864380D01*
X162210761Y-121864380D02*
X162210761Y-120864380D01*
X162115523Y-121007238D01*
X162020285Y-121102476D01*
X161925047Y-121150095D01*
X162829809Y-120864380D02*
X163448857Y-120864380D01*
X163115523Y-121245333D01*
X163258380Y-121245333D01*
X163353619Y-121292952D01*
X163401238Y-121340571D01*
X163448857Y-121435809D01*
X163448857Y-121673904D01*
X163401238Y-121769142D01*
X163353619Y-121816761D01*
X163258380Y-121864380D01*
X162972666Y-121864380D01*
X162877428Y-121816761D01*
X162829809Y-121769142D01*
%TO.C,J12*%
X169624476Y-119086380D02*
X169624476Y-119800666D01*
X169576857Y-119943523D01*
X169481619Y-120038761D01*
X169338761Y-120086380D01*
X169243523Y-120086380D01*
X170624476Y-120086380D02*
X170053047Y-120086380D01*
X170338761Y-120086380D02*
X170338761Y-119086380D01*
X170243523Y-119229238D01*
X170148285Y-119324476D01*
X170053047Y-119372095D01*
X171005428Y-119181619D02*
X171053047Y-119134000D01*
X171148285Y-119086380D01*
X171386380Y-119086380D01*
X171481619Y-119134000D01*
X171529238Y-119181619D01*
X171576857Y-119276857D01*
X171576857Y-119372095D01*
X171529238Y-119514952D01*
X170957809Y-120086380D01*
X171576857Y-120086380D01*
%TO.C,D4*%
X118308380Y-92432095D02*
X117308380Y-92432095D01*
X117308380Y-92194000D01*
X117356000Y-92051142D01*
X117451238Y-91955904D01*
X117546476Y-91908285D01*
X117736952Y-91860666D01*
X117879809Y-91860666D01*
X118070285Y-91908285D01*
X118165523Y-91955904D01*
X118260761Y-92051142D01*
X118308380Y-92194000D01*
X118308380Y-92432095D01*
X117641714Y-91003523D02*
X118308380Y-91003523D01*
X117260761Y-91241619D02*
X117975047Y-91479714D01*
X117975047Y-90860666D01*
X119832380Y-88907904D02*
X118832380Y-88907904D01*
X119832380Y-88336476D02*
X119260952Y-88765047D01*
X118832380Y-88336476D02*
X119403809Y-88907904D01*
%TO.C,D3*%
X134511379Y-92468095D02*
X133511379Y-92468095D01*
X133511379Y-92230000D01*
X133558999Y-92087142D01*
X133654237Y-91991904D01*
X133749475Y-91944285D01*
X133939951Y-91896666D01*
X134082808Y-91896666D01*
X134273284Y-91944285D01*
X134368522Y-91991904D01*
X134463760Y-92087142D01*
X134511379Y-92230000D01*
X134511379Y-92468095D01*
X133511379Y-91563333D02*
X133511379Y-90944285D01*
X133892332Y-91277619D01*
X133892332Y-91134761D01*
X133939951Y-91039523D01*
X133987570Y-90991904D01*
X134082808Y-90944285D01*
X134320903Y-90944285D01*
X134416141Y-90991904D01*
X134463760Y-91039523D01*
X134511379Y-91134761D01*
X134511379Y-91420476D01*
X134463760Y-91515714D01*
X134416141Y-91563333D01*
X136035379Y-88943904D02*
X135035379Y-88943904D01*
X136035379Y-88372476D02*
X135463951Y-88801047D01*
X135035379Y-88372476D02*
X135606808Y-88943904D01*
%TO.C,D2*%
X151074380Y-92432095D02*
X150074380Y-92432095D01*
X150074380Y-92194000D01*
X150122000Y-92051142D01*
X150217238Y-91955904D01*
X150312476Y-91908285D01*
X150502952Y-91860666D01*
X150645809Y-91860666D01*
X150836285Y-91908285D01*
X150931523Y-91955904D01*
X151026761Y-92051142D01*
X151074380Y-92194000D01*
X151074380Y-92432095D01*
X150169619Y-91479714D02*
X150122000Y-91432095D01*
X150074380Y-91336857D01*
X150074380Y-91098761D01*
X150122000Y-91003523D01*
X150169619Y-90955904D01*
X150264857Y-90908285D01*
X150360095Y-90908285D01*
X150502952Y-90955904D01*
X151074380Y-91527333D01*
X151074380Y-90908285D01*
X152598380Y-88907904D02*
X151598380Y-88907904D01*
X152598380Y-88336476D02*
X152026952Y-88765047D01*
X151598380Y-88336476D02*
X152169809Y-88907904D01*
%TO.C,D1*%
X167330380Y-92432095D02*
X166330380Y-92432095D01*
X166330380Y-92194000D01*
X166378000Y-92051142D01*
X166473238Y-91955904D01*
X166568476Y-91908285D01*
X166758952Y-91860666D01*
X166901809Y-91860666D01*
X167092285Y-91908285D01*
X167187523Y-91955904D01*
X167282761Y-92051142D01*
X167330380Y-92194000D01*
X167330380Y-92432095D01*
X167330380Y-90908285D02*
X167330380Y-91479714D01*
X167330380Y-91194000D02*
X166330380Y-91194000D01*
X166473238Y-91289238D01*
X166568476Y-91384476D01*
X166616095Y-91479714D01*
X168854380Y-88907904D02*
X167854380Y-88907904D01*
X168854380Y-88336476D02*
X168282952Y-88765047D01*
X167854380Y-88336476D02*
X168425809Y-88907904D01*
%TO.C,J11*%
X151296476Y-120782380D02*
X151296476Y-121496666D01*
X151248857Y-121639523D01*
X151153619Y-121734761D01*
X151010761Y-121782380D01*
X150915523Y-121782380D01*
X152296476Y-121782380D02*
X151725047Y-121782380D01*
X152010761Y-121782380D02*
X152010761Y-120782380D01*
X151915523Y-120925238D01*
X151820285Y-121020476D01*
X151725047Y-121068095D01*
X153248857Y-121782380D02*
X152677428Y-121782380D01*
X152963142Y-121782380D02*
X152963142Y-120782380D01*
X152867904Y-120925238D01*
X152772666Y-121020476D01*
X152677428Y-121068095D01*
%TO.C,J10*%
X141146476Y-120782380D02*
X141146476Y-121496666D01*
X141098857Y-121639523D01*
X141003619Y-121734761D01*
X140860761Y-121782380D01*
X140765523Y-121782380D01*
X142146476Y-121782380D02*
X141575047Y-121782380D01*
X141860761Y-121782380D02*
X141860761Y-120782380D01*
X141765523Y-120925238D01*
X141670285Y-121020476D01*
X141575047Y-121068095D01*
X142765523Y-120782380D02*
X142860761Y-120782380D01*
X142956000Y-120830000D01*
X143003619Y-120877619D01*
X143051238Y-120972857D01*
X143098857Y-121163333D01*
X143098857Y-121401428D01*
X143051238Y-121591904D01*
X143003619Y-121687142D01*
X142956000Y-121734761D01*
X142860761Y-121782380D01*
X142765523Y-121782380D01*
X142670285Y-121734761D01*
X142622666Y-121687142D01*
X142575047Y-121591904D01*
X142527428Y-121401428D01*
X142527428Y-121163333D01*
X142575047Y-120972857D01*
X142622666Y-120877619D01*
X142670285Y-120830000D01*
X142765523Y-120782380D01*
%TO.C,J9*%
X159900666Y-119086380D02*
X159900666Y-119800666D01*
X159853047Y-119943523D01*
X159757809Y-120038761D01*
X159614952Y-120086380D01*
X159519714Y-120086380D01*
X160424476Y-120086380D02*
X160614952Y-120086380D01*
X160710190Y-120038761D01*
X160757809Y-119991142D01*
X160853047Y-119848285D01*
X160900666Y-119657809D01*
X160900666Y-119276857D01*
X160853047Y-119181619D01*
X160805428Y-119134000D01*
X160710190Y-119086380D01*
X160519714Y-119086380D01*
X160424476Y-119134000D01*
X160376857Y-119181619D01*
X160329238Y-119276857D01*
X160329238Y-119514952D01*
X160376857Y-119610190D01*
X160424476Y-119657809D01*
X160519714Y-119705428D01*
X160710190Y-119705428D01*
X160805428Y-119657809D01*
X160853047Y-119610190D01*
X160900666Y-119514952D01*
%TO.C,J8*%
X149750666Y-119086380D02*
X149750666Y-119800666D01*
X149703047Y-119943523D01*
X149607809Y-120038761D01*
X149464952Y-120086380D01*
X149369714Y-120086380D01*
X150369714Y-119514952D02*
X150274476Y-119467333D01*
X150226857Y-119419714D01*
X150179238Y-119324476D01*
X150179238Y-119276857D01*
X150226857Y-119181619D01*
X150274476Y-119134000D01*
X150369714Y-119086380D01*
X150560190Y-119086380D01*
X150655428Y-119134000D01*
X150703047Y-119181619D01*
X150750666Y-119276857D01*
X150750666Y-119324476D01*
X150703047Y-119419714D01*
X150655428Y-119467333D01*
X150560190Y-119514952D01*
X150369714Y-119514952D01*
X150274476Y-119562571D01*
X150226857Y-119610190D01*
X150179238Y-119705428D01*
X150179238Y-119895904D01*
X150226857Y-119991142D01*
X150274476Y-120038761D01*
X150369714Y-120086380D01*
X150560190Y-120086380D01*
X150655428Y-120038761D01*
X150703047Y-119991142D01*
X150750666Y-119895904D01*
X150750666Y-119705428D01*
X150703047Y-119610190D01*
X150655428Y-119562571D01*
X150560190Y-119514952D01*
%TO.C,J7*%
X131472666Y-120782380D02*
X131472666Y-121496666D01*
X131425047Y-121639523D01*
X131329809Y-121734761D01*
X131186952Y-121782380D01*
X131091714Y-121782380D01*
X131853619Y-120782380D02*
X132520285Y-120782380D01*
X132091714Y-121782380D01*
%TO.C,J5*%
X121322666Y-120782380D02*
X121322666Y-121496666D01*
X121275047Y-121639523D01*
X121179809Y-121734761D01*
X121036952Y-121782380D01*
X120941714Y-121782380D01*
X122275047Y-120782380D02*
X121798857Y-120782380D01*
X121751238Y-121258571D01*
X121798857Y-121210952D01*
X121894095Y-121163333D01*
X122132190Y-121163333D01*
X122227428Y-121210952D01*
X122275047Y-121258571D01*
X122322666Y-121353809D01*
X122322666Y-121591904D01*
X122275047Y-121687142D01*
X122227428Y-121734761D01*
X122132190Y-121782380D01*
X121894095Y-121782380D01*
X121798857Y-121734761D01*
X121751238Y-121687142D01*
%TO.C,J4*%
X139600666Y-119086380D02*
X139600666Y-119800666D01*
X139553047Y-119943523D01*
X139457809Y-120038761D01*
X139314952Y-120086380D01*
X139219714Y-120086380D01*
X140505428Y-119419714D02*
X140505428Y-120086380D01*
X140267333Y-119038761D02*
X140029238Y-119753047D01*
X140648285Y-119753047D01*
%TO.C,J3*%
X129450666Y-119086380D02*
X129450666Y-119800666D01*
X129403047Y-119943523D01*
X129307809Y-120038761D01*
X129164952Y-120086380D01*
X129069714Y-120086380D01*
X129831619Y-119086380D02*
X130450666Y-119086380D01*
X130117333Y-119467333D01*
X130260190Y-119467333D01*
X130355428Y-119514952D01*
X130403047Y-119562571D01*
X130450666Y-119657809D01*
X130450666Y-119895904D01*
X130403047Y-119991142D01*
X130355428Y-120038761D01*
X130260190Y-120086380D01*
X129974476Y-120086380D01*
X129879238Y-120038761D01*
X129831619Y-119991142D01*
%TO.C,J2*%
X111172666Y-120782380D02*
X111172666Y-121496666D01*
X111125047Y-121639523D01*
X111029809Y-121734761D01*
X110886952Y-121782380D01*
X110791714Y-121782380D01*
X111601238Y-120877619D02*
X111648857Y-120830000D01*
X111744095Y-120782380D01*
X111982190Y-120782380D01*
X112077428Y-120830000D01*
X112125047Y-120877619D01*
X112172666Y-120972857D01*
X112172666Y-121068095D01*
X112125047Y-121210952D01*
X111553619Y-121782380D01*
X112172666Y-121782380D01*
%TO.C,J1*%
X119300666Y-119086380D02*
X119300666Y-119800666D01*
X119253047Y-119943523D01*
X119157809Y-120038761D01*
X119014952Y-120086380D01*
X118919714Y-120086380D01*
X120300666Y-120086380D02*
X119729238Y-120086380D01*
X120014952Y-120086380D02*
X120014952Y-119086380D01*
X119919714Y-119229238D01*
X119824476Y-119324476D01*
X119729238Y-119372095D01*
%TO.C,RV8*%
X164704380Y-55048238D02*
X164228190Y-55381571D01*
X164704380Y-55619666D02*
X163704380Y-55619666D01*
X163704380Y-55238714D01*
X163752000Y-55143476D01*
X163799619Y-55095857D01*
X163894857Y-55048238D01*
X164037714Y-55048238D01*
X164132952Y-55095857D01*
X164180571Y-55143476D01*
X164228190Y-55238714D01*
X164228190Y-55619666D01*
X163704380Y-54762523D02*
X164704380Y-54429190D01*
X163704380Y-54095857D01*
X164132952Y-53619666D02*
X164085333Y-53714904D01*
X164037714Y-53762523D01*
X163942476Y-53810142D01*
X163894857Y-53810142D01*
X163799619Y-53762523D01*
X163752000Y-53714904D01*
X163704380Y-53619666D01*
X163704380Y-53429190D01*
X163752000Y-53333952D01*
X163799619Y-53286333D01*
X163894857Y-53238714D01*
X163942476Y-53238714D01*
X164037714Y-53286333D01*
X164085333Y-53333952D01*
X164132952Y-53429190D01*
X164132952Y-53619666D01*
X164180571Y-53714904D01*
X164228190Y-53762523D01*
X164323428Y-53810142D01*
X164513904Y-53810142D01*
X164609142Y-53762523D01*
X164656761Y-53714904D01*
X164704380Y-53619666D01*
X164704380Y-53429190D01*
X164656761Y-53333952D01*
X164609142Y-53286333D01*
X164513904Y-53238714D01*
X164323428Y-53238714D01*
X164228190Y-53286333D01*
X164180571Y-53333952D01*
X164132952Y-53429190D01*
%TO.C,RV7*%
X147392380Y-55088238D02*
X146916190Y-55421571D01*
X147392380Y-55659666D02*
X146392380Y-55659666D01*
X146392380Y-55278714D01*
X146440000Y-55183476D01*
X146487619Y-55135857D01*
X146582857Y-55088238D01*
X146725714Y-55088238D01*
X146820952Y-55135857D01*
X146868571Y-55183476D01*
X146916190Y-55278714D01*
X146916190Y-55659666D01*
X146392380Y-54802523D02*
X147392380Y-54469190D01*
X146392380Y-54135857D01*
X146392380Y-53897761D02*
X146392380Y-53231095D01*
X147392380Y-53659666D01*
%TO.C,RV6*%
X129652380Y-55302238D02*
X129176190Y-55635571D01*
X129652380Y-55873666D02*
X128652380Y-55873666D01*
X128652380Y-55492714D01*
X128700000Y-55397476D01*
X128747619Y-55349857D01*
X128842857Y-55302238D01*
X128985714Y-55302238D01*
X129080952Y-55349857D01*
X129128571Y-55397476D01*
X129176190Y-55492714D01*
X129176190Y-55873666D01*
X128652380Y-55016523D02*
X129652380Y-54683190D01*
X128652380Y-54349857D01*
X128652380Y-53587952D02*
X128652380Y-53778428D01*
X128700000Y-53873666D01*
X128747619Y-53921285D01*
X128890476Y-54016523D01*
X129080952Y-54064142D01*
X129461904Y-54064142D01*
X129557142Y-54016523D01*
X129604761Y-53968904D01*
X129652380Y-53873666D01*
X129652380Y-53683190D01*
X129604761Y-53587952D01*
X129557142Y-53540333D01*
X129461904Y-53492714D01*
X129223809Y-53492714D01*
X129128571Y-53540333D01*
X129080952Y-53587952D01*
X129033333Y-53683190D01*
X129033333Y-53873666D01*
X129080952Y-53968904D01*
X129128571Y-54016523D01*
X129223809Y-54064142D01*
%TO.C,RV5*%
X111460380Y-74301238D02*
X110984190Y-74634571D01*
X111460380Y-74872666D02*
X110460380Y-74872666D01*
X110460380Y-74491714D01*
X110508000Y-74396476D01*
X110555619Y-74348857D01*
X110650857Y-74301238D01*
X110793714Y-74301238D01*
X110888952Y-74348857D01*
X110936571Y-74396476D01*
X110984190Y-74491714D01*
X110984190Y-74872666D01*
X110460380Y-74015523D02*
X111460380Y-73682190D01*
X110460380Y-73348857D01*
X110460380Y-72539333D02*
X110460380Y-73015523D01*
X110936571Y-73063142D01*
X110888952Y-73015523D01*
X110841333Y-72920285D01*
X110841333Y-72682190D01*
X110888952Y-72586952D01*
X110936571Y-72539333D01*
X111031809Y-72491714D01*
X111269904Y-72491714D01*
X111365142Y-72539333D01*
X111412761Y-72586952D01*
X111460380Y-72682190D01*
X111460380Y-72920285D01*
X111412761Y-73015523D01*
X111365142Y-73063142D01*
%TO.C,RV4*%
X129748380Y-74301238D02*
X129272190Y-74634571D01*
X129748380Y-74872666D02*
X128748380Y-74872666D01*
X128748380Y-74491714D01*
X128796000Y-74396476D01*
X128843619Y-74348857D01*
X128938857Y-74301238D01*
X129081714Y-74301238D01*
X129176952Y-74348857D01*
X129224571Y-74396476D01*
X129272190Y-74491714D01*
X129272190Y-74872666D01*
X128748380Y-74015523D02*
X129748380Y-73682190D01*
X128748380Y-73348857D01*
X129081714Y-72586952D02*
X129748380Y-72586952D01*
X128700761Y-72825047D02*
X129415047Y-73063142D01*
X129415047Y-72444095D01*
%TO.C,RV3*%
X147824380Y-74189238D02*
X147348190Y-74522571D01*
X147824380Y-74760666D02*
X146824380Y-74760666D01*
X146824380Y-74379714D01*
X146872000Y-74284476D01*
X146919619Y-74236857D01*
X147014857Y-74189238D01*
X147157714Y-74189238D01*
X147252952Y-74236857D01*
X147300571Y-74284476D01*
X147348190Y-74379714D01*
X147348190Y-74760666D01*
X146824380Y-73903523D02*
X147824380Y-73570190D01*
X146824380Y-73236857D01*
X146824380Y-72998761D02*
X146824380Y-72379714D01*
X147205333Y-72713047D01*
X147205333Y-72570190D01*
X147252952Y-72474952D01*
X147300571Y-72427333D01*
X147395809Y-72379714D01*
X147633904Y-72379714D01*
X147729142Y-72427333D01*
X147776761Y-72474952D01*
X147824380Y-72570190D01*
X147824380Y-72855904D01*
X147776761Y-72951142D01*
X147729142Y-72998761D01*
%TO.C,RV2*%
X111248380Y-55436238D02*
X110772190Y-55769571D01*
X111248380Y-56007666D02*
X110248380Y-56007666D01*
X110248380Y-55626714D01*
X110296000Y-55531476D01*
X110343619Y-55483857D01*
X110438857Y-55436238D01*
X110581714Y-55436238D01*
X110676952Y-55483857D01*
X110724571Y-55531476D01*
X110772190Y-55626714D01*
X110772190Y-56007666D01*
X110248380Y-55150523D02*
X111248380Y-54817190D01*
X110248380Y-54483857D01*
X110343619Y-54198142D02*
X110296000Y-54150523D01*
X110248380Y-54055285D01*
X110248380Y-53817190D01*
X110296000Y-53721952D01*
X110343619Y-53674333D01*
X110438857Y-53626714D01*
X110534095Y-53626714D01*
X110676952Y-53674333D01*
X111248380Y-54245761D01*
X111248380Y-53626714D01*
%TO.C,RV1*%
X165096380Y-74189238D02*
X164620190Y-74522571D01*
X165096380Y-74760666D02*
X164096380Y-74760666D01*
X164096380Y-74379714D01*
X164144000Y-74284476D01*
X164191619Y-74236857D01*
X164286857Y-74189238D01*
X164429714Y-74189238D01*
X164524952Y-74236857D01*
X164572571Y-74284476D01*
X164620190Y-74379714D01*
X164620190Y-74760666D01*
X164096380Y-73903523D02*
X165096380Y-73570190D01*
X164096380Y-73236857D01*
X165096380Y-72379714D02*
X165096380Y-72951142D01*
X165096380Y-72665428D02*
X164096380Y-72665428D01*
X164239238Y-72760666D01*
X164334476Y-72855904D01*
X164382095Y-72951142D01*
%TO.C,J6*%
X81200666Y-32682380D02*
X81200666Y-33396666D01*
X81153047Y-33539523D01*
X81057809Y-33634761D01*
X80914952Y-33682380D01*
X80819714Y-33682380D01*
X82105428Y-32682380D02*
X81914952Y-32682380D01*
X81819714Y-32730000D01*
X81772095Y-32777619D01*
X81676857Y-32920476D01*
X81629238Y-33110952D01*
X81629238Y-33491904D01*
X81676857Y-33587142D01*
X81724476Y-33634761D01*
X81819714Y-33682380D01*
X82010190Y-33682380D01*
X82105428Y-33634761D01*
X82153047Y-33587142D01*
X82200666Y-33491904D01*
X82200666Y-33253809D01*
X82153047Y-33158571D01*
X82105428Y-33110952D01*
X82010190Y-33063333D01*
X81819714Y-33063333D01*
X81724476Y-33110952D01*
X81676857Y-33158571D01*
X81629238Y-33253809D01*
%TO.C,H1*%
X84736380Y-134111904D02*
X83736380Y-134111904D01*
X84212571Y-134111904D02*
X84212571Y-133540476D01*
X84736380Y-133540476D02*
X83736380Y-133540476D01*
X84736380Y-132540476D02*
X84736380Y-133111904D01*
X84736380Y-132826190D02*
X83736380Y-132826190D01*
X83879238Y-132921428D01*
X83974476Y-133016666D01*
X84022095Y-133111904D01*
%TD*%
M02*
