M48
; DRILL file {KiCad (5.1.6-0)} date Thursday, January 05, 2023 at 12:22:48 PM
; FORMAT={-:-/ absolute / metric / decimal}
; #@! TF.CreationDate,2023-01-05T12:22:48-05:00
; #@! TF.GenerationSoftware,Kicad,Pcbnew,(5.1.6-0)
; #@! TF.FileFunction,Plated,1,2,PTH
FMAT,2
METRIC
T1C0.400
T2C1.000
T3C1.001
T4C1.600
T5C1.700
%
G90
G05
T1
X66.04Y-71.755
X66.675Y-56.515
X66.675Y-99.695
X66.992Y-60.642
X68.58Y-69.85
X69.215Y-85.725
X69.215Y-86.995
X69.215Y-88.265
X69.215Y-92.075
X69.532Y-47.942
X69.85Y-79.375
X71.755Y-96.52
X73.66Y-77.47
X74.295Y-89.535
X75.565Y-96.52
X76.2Y-81.915
X76.835Y-44.45
X78.105Y-85.725
X78.105Y-92.075
X80.01Y-56.515
X80.645Y-88.265
X81.28Y-42.545
X81.28Y-81.28
X81.915Y-39.37
X81.915Y-48.895
X81.915Y-52.07
X82.55Y-89.535
T2
X68.58Y-106.68
X68.58Y-109.22
X71.12Y-106.68
X71.12Y-109.22
X73.66Y-106.68
X73.66Y-109.22
X76.2Y-106.68
X76.2Y-109.22
X78.74Y-106.68
X78.74Y-109.22
X69.406Y-57.355
X73.406Y-57.355
X77.406Y-57.355
X69.406Y-63.295
X73.406Y-63.295
X77.406Y-63.295
T3
X72.136Y-46.355
X74.676Y-46.355
X72.136Y-74.295
X74.676Y-74.295
T4
X68.58Y-125.6
X68.58Y-128.7
X68.58Y-137.0
X78.105Y-114.206
X78.105Y-122.506
X78.105Y-125.6
X78.105Y-128.7
X78.105Y-137.0
X68.58Y-114.206
X68.58Y-122.506
X68.58Y-125.606
X78.105Y-125.606
T5
G00X66.706Y-46.555
M15
G01X66.706Y-46.155
M16
G05
G00X80.106Y-46.155
M15
G01X80.106Y-46.555
M16
G05
G00X66.706Y-74.495
M15
G01X66.706Y-74.095
M16
G05
G00X80.106Y-74.095
M15
G01X80.106Y-74.495
M16
G05
T0
M30
