%TF.GenerationSoftware,KiCad,Pcbnew,(5.1.6-0)*%
%TF.CreationDate,2023-01-04T15:54:57-05:00*%
%TF.ProjectId,LFO2,4c464f32-2e6b-4696-9361-645f70636258,rev?*%
%TF.SameCoordinates,Original*%
%TF.FileFunction,Soldermask,Top*%
%TF.FilePolarity,Negative*%
%FSLAX46Y46*%
G04 Gerber Fmt 4.6, Leading zero omitted, Abs format (unit mm)*
G04 Created by KiCad (PCBNEW (5.1.6-0)) date 2023-01-04 15:54:57*
%MOMM*%
%LPD*%
G01*
G04 APERTURE LIST*
%ADD10R,1.600000X3.000000*%
%ADD11R,1.500000X0.600000*%
%ADD12C,1.800000*%
%ADD13O,2.000000X2.400000*%
%ADD14C,1.300000*%
%ADD15R,1.300000X1.500000*%
%ADD16R,1.500000X1.300000*%
%ADD17R,0.800000X1.900000*%
%ADD18R,1.700000X1.700000*%
%ADD19O,1.700000X1.700000*%
%ADD20C,2.000000*%
%ADD21R,2.000000X2.000000*%
%ADD22R,1.250000X1.500000*%
G04 APERTURE END LIST*
D10*
%TO.C,C4*%
X69215000Y-96860000D03*
X69215000Y-101260000D03*
%TD*%
%TO.C,C3*%
X78105000Y-101260000D03*
X78105000Y-96860000D03*
%TD*%
D11*
%TO.C,U1*%
X76360000Y-92075000D03*
X76360000Y-90805000D03*
X76360000Y-89535000D03*
X76360000Y-88265000D03*
X76360000Y-86995000D03*
X76360000Y-85725000D03*
X76360000Y-84455000D03*
X70960000Y-84455000D03*
X70960000Y-85725000D03*
X70960000Y-86995000D03*
X70960000Y-88265000D03*
X70960000Y-89535000D03*
X70960000Y-90805000D03*
X70960000Y-92075000D03*
%TD*%
D12*
%TO.C,TRI2*%
X68580000Y-114206000D03*
X68580000Y-125606000D03*
X68580000Y-122506000D03*
%TD*%
%TO.C,TRI1*%
X78105000Y-114206000D03*
X78105000Y-125606000D03*
X78105000Y-122506000D03*
%TD*%
%TO.C,SQ2*%
X68580000Y-137000000D03*
X68580000Y-125600000D03*
X68580000Y-128700000D03*
%TD*%
%TO.C,SQ1*%
X78105000Y-137000000D03*
X78105000Y-125600000D03*
X78105000Y-128700000D03*
%TD*%
D13*
%TO.C,RV2*%
X80106000Y-74295000D03*
X66706000Y-74295000D03*
D14*
X77406000Y-63295000D03*
X73406000Y-63295000D03*
X69406000Y-63295000D03*
%TD*%
D13*
%TO.C,RV1*%
X66706000Y-46355000D03*
X80106000Y-46355000D03*
D14*
X69406000Y-57355000D03*
X73406000Y-57355000D03*
X77406000Y-57355000D03*
%TD*%
D15*
%TO.C,R24*%
X71120000Y-134065000D03*
X71120000Y-131365000D03*
%TD*%
%TO.C,R23*%
X75565000Y-134065000D03*
X75565000Y-131365000D03*
%TD*%
D16*
%TO.C,R22*%
X69930000Y-118110000D03*
X67230000Y-118110000D03*
%TD*%
D15*
%TO.C,R21*%
X66040000Y-134065000D03*
X66040000Y-131365000D03*
%TD*%
D16*
%TO.C,R20*%
X76755000Y-118110000D03*
X79455000Y-118110000D03*
%TD*%
D15*
%TO.C,R19*%
X80645000Y-134145000D03*
X80645000Y-131445000D03*
%TD*%
%TO.C,R18*%
X66675000Y-69930000D03*
X66675000Y-67230000D03*
%TD*%
%TO.C,R17*%
X66675000Y-39925000D03*
X66675000Y-42625000D03*
%TD*%
%TO.C,R16*%
X67310000Y-89535000D03*
X67310000Y-92235000D03*
%TD*%
%TO.C,R15*%
X79375000Y-86440000D03*
X79375000Y-83740000D03*
%TD*%
%TO.C,R14*%
X76200000Y-67310000D03*
X76200000Y-70010000D03*
%TD*%
%TO.C,R13*%
X76200000Y-39925000D03*
X76200000Y-42625000D03*
%TD*%
%TO.C,R12*%
X64770000Y-92155000D03*
X64770000Y-89455000D03*
%TD*%
%TO.C,R11*%
X81915000Y-86440000D03*
X81915000Y-83740000D03*
%TD*%
D16*
%TO.C,R10*%
X75010000Y-79375000D03*
X72310000Y-79375000D03*
%TD*%
%TO.C,R9*%
X78105000Y-79375000D03*
X80805000Y-79375000D03*
%TD*%
D15*
%TO.C,R8*%
X66675000Y-62150000D03*
X66675000Y-64850000D03*
%TD*%
D16*
%TO.C,R7*%
X68500000Y-50800000D03*
X71200000Y-50800000D03*
%TD*%
D15*
%TO.C,R6*%
X80645000Y-60245000D03*
X80645000Y-62945000D03*
%TD*%
D16*
%TO.C,R5*%
X78820000Y-50800000D03*
X76120000Y-50800000D03*
%TD*%
%TO.C,R4*%
X78185000Y-60325000D03*
X75485000Y-60325000D03*
%TD*%
%TO.C,R3*%
X71755000Y-60325000D03*
X69055000Y-60325000D03*
%TD*%
%TO.C,R2*%
X78740000Y-53975000D03*
X76040000Y-53975000D03*
%TD*%
%TO.C,R1*%
X71200000Y-53975000D03*
X68500000Y-53975000D03*
%TD*%
D17*
%TO.C,Q4*%
X70170000Y-70080000D03*
X72070000Y-70080000D03*
X71120000Y-67080000D03*
%TD*%
%TO.C,Q3*%
X81595000Y-67080000D03*
X79695000Y-67080000D03*
X80645000Y-70080000D03*
%TD*%
%TO.C,Q2*%
X70170000Y-42775000D03*
X72070000Y-42775000D03*
X71120000Y-39775000D03*
%TD*%
%TO.C,Q1*%
X80960000Y-39775000D03*
X79060000Y-39775000D03*
X80010000Y-42775000D03*
%TD*%
D18*
%TO.C,H1*%
X78740000Y-106680000D03*
D19*
X78740000Y-109220000D03*
X76200000Y-106680000D03*
X76200000Y-109220000D03*
X73660000Y-106680000D03*
X73660000Y-109220000D03*
X71120000Y-106680000D03*
X71120000Y-109220000D03*
X68580000Y-106680000D03*
X68580000Y-109220000D03*
%TD*%
D20*
%TO.C,D4*%
X74676000Y-74295000D03*
D21*
X72136000Y-74295000D03*
%TD*%
D20*
%TO.C,D3*%
X74676000Y-46355000D03*
D21*
X72136000Y-46355000D03*
%TD*%
D22*
%TO.C,C2*%
X67310000Y-83840000D03*
X67310000Y-86340000D03*
%TD*%
%TO.C,C1*%
X79375000Y-92055000D03*
X79375000Y-89555000D03*
%TD*%
M02*
