%TF.GenerationSoftware,KiCad,Pcbnew,(5.1.6-0)*%
%TF.CreationDate,2023-01-04T15:54:57-05:00*%
%TF.ProjectId,LFO2,4c464f32-2e6b-4696-9361-645f70636258,rev?*%
%TF.SameCoordinates,Original*%
%TF.FileFunction,Legend,Bot*%
%TF.FilePolarity,Positive*%
%FSLAX46Y46*%
G04 Gerber Fmt 4.6, Leading zero omitted, Abs format (unit mm)*
G04 Created by KiCad (PCBNEW (5.1.6-0)) date 2023-01-04 15:54:57*
%MOMM*%
%LPD*%
G01*
G04 APERTURE LIST*
%ADD10C,0.150000*%
G04 APERTURE END LIST*
D10*
%TO.C,TRI2*%
X73080000Y-112926000D02*
X64080000Y-112926000D01*
X73080000Y-123826000D02*
X64080000Y-123826000D01*
X73080000Y-112926000D02*
X73080000Y-123826000D01*
X64080000Y-112926000D02*
X64080000Y-123826000D01*
X70380000Y-119126000D02*
G75*
G03*
X70380000Y-119126000I-1800000J0D01*
G01*
X68580000Y-117326000D02*
X68580000Y-120926000D01*
X70380000Y-119126000D02*
X66780000Y-119126000D01*
%TO.C,TRI1*%
X82605000Y-112926000D02*
X73605000Y-112926000D01*
X82605000Y-123826000D02*
X73605000Y-123826000D01*
X82605000Y-112926000D02*
X82605000Y-123826000D01*
X73605000Y-112926000D02*
X73605000Y-123826000D01*
X79905000Y-119126000D02*
G75*
G03*
X79905000Y-119126000I-1800000J0D01*
G01*
X78105000Y-117326000D02*
X78105000Y-120926000D01*
X79905000Y-119126000D02*
X76305000Y-119126000D01*
%TO.C,SQ2*%
X64080000Y-138280000D02*
X73080000Y-138280000D01*
X64080000Y-127380000D02*
X73080000Y-127380000D01*
X64080000Y-138280000D02*
X64080000Y-127380000D01*
X73080000Y-138280000D02*
X73080000Y-127380000D01*
X70380000Y-132080000D02*
G75*
G03*
X70380000Y-132080000I-1800000J0D01*
G01*
X68580000Y-133880000D02*
X68580000Y-130280000D01*
X66780000Y-132080000D02*
X70380000Y-132080000D01*
%TO.C,SQ1*%
X73605000Y-138280000D02*
X82605000Y-138280000D01*
X73605000Y-127380000D02*
X82605000Y-127380000D01*
X73605000Y-138280000D02*
X73605000Y-127380000D01*
X82605000Y-138280000D02*
X82605000Y-127380000D01*
X79905000Y-132080000D02*
G75*
G03*
X79905000Y-132080000I-1800000J0D01*
G01*
X78105000Y-133880000D02*
X78105000Y-130280000D01*
X76305000Y-132080000D02*
X79905000Y-132080000D01*
%TO.C,RV2*%
X72136000Y-74295000D02*
X74676000Y-74295000D01*
X73406000Y-75565000D02*
X73406000Y-73025000D01*
X76581000Y-74295000D02*
G75*
G03*
X76581000Y-74295000I-3175000J0D01*
G01*
X65906000Y-82423000D02*
X65906000Y-66167000D01*
X80906000Y-82423000D02*
X80906000Y-66167000D01*
X65913000Y-66095000D02*
X80899000Y-66095000D01*
X65913000Y-82495000D02*
X80899000Y-82495000D01*
%TO.C,RV1*%
X74676000Y-46355000D02*
X72136000Y-46355000D01*
X73406000Y-45085000D02*
X73406000Y-47625000D01*
X76581000Y-46355000D02*
G75*
G03*
X76581000Y-46355000I-3175000J0D01*
G01*
X80906000Y-38227000D02*
X80906000Y-54483000D01*
X65906000Y-38227000D02*
X65906000Y-54483000D01*
X80899000Y-54555000D02*
X65913000Y-54555000D01*
X80899000Y-38155000D02*
X65913000Y-38155000D01*
%TO.C,D4*%
X71937000Y-75575000D02*
X71937000Y-75395000D01*
X71937000Y-72981000D02*
X71937000Y-73181000D01*
X72423111Y-73181747D02*
G75*
G02*
X74471000Y-73201000I1013889J-1079253D01*
G01*
X71949780Y-72954274D02*
G75*
G02*
X75187000Y-73301000I1497220J-1306726D01*
G01*
X74489006Y-75394068D02*
G75*
G02*
X72386000Y-75395000I-1052006J1133068D01*
G01*
X75164744Y-75264643D02*
G75*
G02*
X71937000Y-75581000I-1727744J1003643D01*
G01*
%TO.C,D3*%
X71937000Y-47635000D02*
X71937000Y-47455000D01*
X71937000Y-45041000D02*
X71937000Y-45241000D01*
X72423111Y-45241747D02*
G75*
G02*
X74471000Y-45261000I1013889J-1079253D01*
G01*
X71949780Y-45014274D02*
G75*
G02*
X75187000Y-45361000I1497220J-1306726D01*
G01*
X74489006Y-47454068D02*
G75*
G02*
X72386000Y-47455000I-1052006J1133068D01*
G01*
X75164744Y-47324643D02*
G75*
G02*
X71937000Y-47641000I-1727744J1003643D01*
G01*
%TO.C,TRI2*%
X66016000Y-124166380D02*
X65444571Y-124166380D01*
X65730285Y-125166380D02*
X65730285Y-124166380D01*
X64539809Y-125166380D02*
X64873142Y-124690190D01*
X65111238Y-125166380D02*
X65111238Y-124166380D01*
X64730285Y-124166380D01*
X64635047Y-124214000D01*
X64587428Y-124261619D01*
X64539809Y-124356857D01*
X64539809Y-124499714D01*
X64587428Y-124594952D01*
X64635047Y-124642571D01*
X64730285Y-124690190D01*
X65111238Y-124690190D01*
X64111238Y-125166380D02*
X64111238Y-124166380D01*
X63682666Y-124261619D02*
X63635047Y-124214000D01*
X63539809Y-124166380D01*
X63301714Y-124166380D01*
X63206476Y-124214000D01*
X63158857Y-124261619D01*
X63111238Y-124356857D01*
X63111238Y-124452095D01*
X63158857Y-124594952D01*
X63730285Y-125166380D01*
X63111238Y-125166380D01*
%TO.C,TRI1*%
X75541000Y-124166380D02*
X74969571Y-124166380D01*
X75255285Y-125166380D02*
X75255285Y-124166380D01*
X74064809Y-125166380D02*
X74398142Y-124690190D01*
X74636238Y-125166380D02*
X74636238Y-124166380D01*
X74255285Y-124166380D01*
X74160047Y-124214000D01*
X74112428Y-124261619D01*
X74064809Y-124356857D01*
X74064809Y-124499714D01*
X74112428Y-124594952D01*
X74160047Y-124642571D01*
X74255285Y-124690190D01*
X74636238Y-124690190D01*
X73636238Y-125166380D02*
X73636238Y-124166380D01*
X72636238Y-125166380D02*
X73207666Y-125166380D01*
X72921952Y-125166380D02*
X72921952Y-124166380D01*
X73017190Y-124309238D01*
X73112428Y-124404476D01*
X73207666Y-124452095D01*
%TO.C,SQ2*%
X73929714Y-126896761D02*
X73786857Y-126944380D01*
X73548761Y-126944380D01*
X73453523Y-126896761D01*
X73405904Y-126849142D01*
X73358285Y-126753904D01*
X73358285Y-126658666D01*
X73405904Y-126563428D01*
X73453523Y-126515809D01*
X73548761Y-126468190D01*
X73739238Y-126420571D01*
X73834476Y-126372952D01*
X73882095Y-126325333D01*
X73929714Y-126230095D01*
X73929714Y-126134857D01*
X73882095Y-126039619D01*
X73834476Y-125992000D01*
X73739238Y-125944380D01*
X73501142Y-125944380D01*
X73358285Y-125992000D01*
X72263047Y-127039619D02*
X72358285Y-126992000D01*
X72453523Y-126896761D01*
X72596380Y-126753904D01*
X72691619Y-126706285D01*
X72786857Y-126706285D01*
X72739238Y-126944380D02*
X72834476Y-126896761D01*
X72929714Y-126801523D01*
X72977333Y-126611047D01*
X72977333Y-126277714D01*
X72929714Y-126087238D01*
X72834476Y-125992000D01*
X72739238Y-125944380D01*
X72548761Y-125944380D01*
X72453523Y-125992000D01*
X72358285Y-126087238D01*
X72310666Y-126277714D01*
X72310666Y-126611047D01*
X72358285Y-126801523D01*
X72453523Y-126896761D01*
X72548761Y-126944380D01*
X72739238Y-126944380D01*
X71929714Y-126039619D02*
X71882095Y-125992000D01*
X71786857Y-125944380D01*
X71548761Y-125944380D01*
X71453523Y-125992000D01*
X71405904Y-126039619D01*
X71358285Y-126134857D01*
X71358285Y-126230095D01*
X71405904Y-126372952D01*
X71977333Y-126944380D01*
X71358285Y-126944380D01*
%TO.C,SQ1*%
X83454714Y-126896761D02*
X83311857Y-126944380D01*
X83073761Y-126944380D01*
X82978523Y-126896761D01*
X82930904Y-126849142D01*
X82883285Y-126753904D01*
X82883285Y-126658666D01*
X82930904Y-126563428D01*
X82978523Y-126515809D01*
X83073761Y-126468190D01*
X83264238Y-126420571D01*
X83359476Y-126372952D01*
X83407095Y-126325333D01*
X83454714Y-126230095D01*
X83454714Y-126134857D01*
X83407095Y-126039619D01*
X83359476Y-125992000D01*
X83264238Y-125944380D01*
X83026142Y-125944380D01*
X82883285Y-125992000D01*
X81788047Y-127039619D02*
X81883285Y-126992000D01*
X81978523Y-126896761D01*
X82121380Y-126753904D01*
X82216619Y-126706285D01*
X82311857Y-126706285D01*
X82264238Y-126944380D02*
X82359476Y-126896761D01*
X82454714Y-126801523D01*
X82502333Y-126611047D01*
X82502333Y-126277714D01*
X82454714Y-126087238D01*
X82359476Y-125992000D01*
X82264238Y-125944380D01*
X82073761Y-125944380D01*
X81978523Y-125992000D01*
X81883285Y-126087238D01*
X81835666Y-126277714D01*
X81835666Y-126611047D01*
X81883285Y-126801523D01*
X81978523Y-126896761D01*
X82073761Y-126944380D01*
X82264238Y-126944380D01*
X80883285Y-126944380D02*
X81454714Y-126944380D01*
X81169000Y-126944380D02*
X81169000Y-125944380D01*
X81264238Y-126087238D01*
X81359476Y-126182476D01*
X81454714Y-126230095D01*
%TO.C,RV2*%
X74001238Y-65247380D02*
X74334571Y-64771190D01*
X74572666Y-65247380D02*
X74572666Y-64247380D01*
X74191714Y-64247380D01*
X74096476Y-64295000D01*
X74048857Y-64342619D01*
X74001238Y-64437857D01*
X74001238Y-64580714D01*
X74048857Y-64675952D01*
X74096476Y-64723571D01*
X74191714Y-64771190D01*
X74572666Y-64771190D01*
X73715523Y-64247380D02*
X73382190Y-65247380D01*
X73048857Y-64247380D01*
X72763142Y-64342619D02*
X72715523Y-64295000D01*
X72620285Y-64247380D01*
X72382190Y-64247380D01*
X72286952Y-64295000D01*
X72239333Y-64342619D01*
X72191714Y-64437857D01*
X72191714Y-64533095D01*
X72239333Y-64675952D01*
X72810761Y-65247380D01*
X72191714Y-65247380D01*
%TO.C,RV1*%
X74001238Y-56307380D02*
X74334571Y-55831190D01*
X74572666Y-56307380D02*
X74572666Y-55307380D01*
X74191714Y-55307380D01*
X74096476Y-55355000D01*
X74048857Y-55402619D01*
X74001238Y-55497857D01*
X74001238Y-55640714D01*
X74048857Y-55735952D01*
X74096476Y-55783571D01*
X74191714Y-55831190D01*
X74572666Y-55831190D01*
X73715523Y-55307380D02*
X73382190Y-56307380D01*
X73048857Y-55307380D01*
X72191714Y-56307380D02*
X72763142Y-56307380D01*
X72477428Y-56307380D02*
X72477428Y-55307380D01*
X72572666Y-55450238D01*
X72667904Y-55545476D01*
X72763142Y-55593095D01*
%TO.C,D4*%
X74144095Y-71699380D02*
X74144095Y-70699380D01*
X73906000Y-70699380D01*
X73763142Y-70747000D01*
X73667904Y-70842238D01*
X73620285Y-70937476D01*
X73572666Y-71127952D01*
X73572666Y-71270809D01*
X73620285Y-71461285D01*
X73667904Y-71556523D01*
X73763142Y-71651761D01*
X73906000Y-71699380D01*
X74144095Y-71699380D01*
X72715523Y-71032714D02*
X72715523Y-71699380D01*
X72953619Y-70651761D02*
X73191714Y-71366047D01*
X72572666Y-71366047D01*
X70619904Y-73223380D02*
X70619904Y-72223380D01*
X70048476Y-73223380D02*
X70477047Y-72651952D01*
X70048476Y-72223380D02*
X70619904Y-72794809D01*
%TO.C,D3*%
X74144095Y-43759380D02*
X74144095Y-42759380D01*
X73906000Y-42759380D01*
X73763142Y-42807000D01*
X73667904Y-42902238D01*
X73620285Y-42997476D01*
X73572666Y-43187952D01*
X73572666Y-43330809D01*
X73620285Y-43521285D01*
X73667904Y-43616523D01*
X73763142Y-43711761D01*
X73906000Y-43759380D01*
X74144095Y-43759380D01*
X73239333Y-42759380D02*
X72620285Y-42759380D01*
X72953619Y-43140333D01*
X72810761Y-43140333D01*
X72715523Y-43187952D01*
X72667904Y-43235571D01*
X72620285Y-43330809D01*
X72620285Y-43568904D01*
X72667904Y-43664142D01*
X72715523Y-43711761D01*
X72810761Y-43759380D01*
X73096476Y-43759380D01*
X73191714Y-43711761D01*
X73239333Y-43664142D01*
X70619904Y-45283380D02*
X70619904Y-44283380D01*
X70048476Y-45283380D02*
X70477047Y-44711952D01*
X70048476Y-44283380D02*
X70619904Y-44854809D01*
%TD*%
M02*
