<?xml version="1.0" standalone="no"?>
 <!DOCTYPE svg PUBLIC "-//W3C//DTD SVG 1.1//EN" 
 "http://www.w3.org/Graphics/SVG/1.1/DTD/svg11.dtd"> 
<svg
  xmlns:svg="http://www.w3.org/2000/svg"
  xmlns="http://www.w3.org/2000/svg"
  xmlns:xlink="http://www.w3.org/1999/xlink"
  version="1.1"
  width="29.700220cm" height="21.000720cm" viewBox="0 0 116930 82680">
<title>SVG Picture created as LFO4Panel-B_SilkS.svg date 2022/12/22 12:37:15 </title>
  <desc>Picture generated by PCBNEW </desc>
<g style="fill:#000000; fill-opacity:1;stroke:#000000; stroke-opacity:1;
stroke-linecap:round; stroke-linejoin:round;"
 transform="translate(0 0) scale(1 1)">
</g>
<g style="fill:#000000; fill-opacity:0.0; 
stroke:#000000; stroke-width:-0.000393701; stroke-opacity:1; 
stroke-linecap:round; stroke-linejoin:round;">
</g>
<g style="fill:#000000; fill-opacity:0.0; 
stroke:#000000; stroke-width:39.3701; stroke-opacity:1; 
stroke-linecap:round; stroke-linejoin:round;">
</g>
<g style="fill:#000000; fill-opacity:0.0; 
stroke:#000000; stroke-width:59.0551; stroke-opacity:1; 
stroke-linecap:round; stroke-linejoin:round;">
<rect x="69685.9" y="65357.2" width="42519.7" height="12598.4" rx="0" />
</g>
<g style="fill:#000000; fill-opacity:0.0; 
stroke:#000000; stroke-width:39.3701; stroke-opacity:1; 
stroke-linecap:round; stroke-linejoin:round;">
</g>
<g style="fill:#000000; fill-opacity:0.0; 
stroke:#000000; stroke-width:59.0551; stroke-opacity:1; 
stroke-linecap:round; stroke-linejoin:round;">
<rect x="3937.01" y="3937.01" width="109056" height="74806" rx="0" />
</g>
<g style="fill:#000000; fill-opacity:0.0; 
stroke:#000000; stroke-width:39.3701; stroke-opacity:1; 
stroke-linecap:round; stroke-linejoin:round;">
</g>
<g style="fill:#000000; fill-opacity:0.0; 
stroke:#000000; stroke-width:59.0551; stroke-opacity:1; 
stroke-linecap:round; stroke-linejoin:round;">
<rect x="4724.41" y="4724.41" width="107481" height="73231.2" rx="0" />
</g>
<g style="fill:#000000; fill-opacity:0.0; 
stroke:#000000; stroke-width:39.3701; stroke-opacity:1; 
stroke-linecap:round; stroke-linejoin:round;">
</g>
<g style="fill:#000000; fill-opacity:0.0; 
stroke:#000000; stroke-width:59.0551; stroke-opacity:1; 
stroke-linecap:round; stroke-linejoin:round;">
<path d="M23622 4724
L23622 3937
" />
</g>
<g style="fill:#000000; fill-opacity:0.0; 
stroke:#000000; stroke-width:39.3701; stroke-opacity:1; 
stroke-linecap:round; stroke-linejoin:round;">
</g>
<g style="fill:#000000; fill-opacity:0.0; 
stroke:#000000; stroke-width:59.0551; stroke-opacity:1; 
stroke-linecap:round; stroke-linejoin:round;">
<path d="M43307 4724
L43307 3937
" />
</g>
<g style="fill:#000000; fill-opacity:0.0; 
stroke:#000000; stroke-width:39.3701; stroke-opacity:1; 
stroke-linecap:round; stroke-linejoin:round;">
</g>
<g style="fill:#000000; fill-opacity:0.0; 
stroke:#000000; stroke-width:59.0551; stroke-opacity:1; 
stroke-linecap:round; stroke-linejoin:round;">
<path d="M62992 4724
L62992 3937
" />
</g>
<g style="fill:#000000; fill-opacity:0.0; 
stroke:#000000; stroke-width:39.3701; stroke-opacity:1; 
stroke-linecap:round; stroke-linejoin:round;">
</g>
<g style="fill:#000000; fill-opacity:0.0; 
stroke:#000000; stroke-width:59.0551; stroke-opacity:1; 
stroke-linecap:round; stroke-linejoin:round;">
<path d="M82677 4724
L82677 3937
" />
</g>
<g style="fill:#000000; fill-opacity:0.0; 
stroke:#000000; stroke-width:39.3701; stroke-opacity:1; 
stroke-linecap:round; stroke-linejoin:round;">
</g>
<g style="fill:#000000; fill-opacity:0.0; 
stroke:#000000; stroke-width:59.0551; stroke-opacity:1; 
stroke-linecap:round; stroke-linejoin:round;">
<path d="M102362 4724
L102362 3937
" />
</g>
<g style="fill:#000000; fill-opacity:0.0; 
stroke:#000000; stroke-width:39.3701; stroke-opacity:1; 
stroke-linecap:round; stroke-linejoin:round;">
</g>
<g style="fill:#000000; fill-opacity:0.0; 
stroke:#000000; stroke-width:59.0551; stroke-opacity:1; 
stroke-linecap:round; stroke-linejoin:round;">
<text x="13779.5" y="4586.61"
textLength="487.439" font-size="682.415" lengthAdjust="spacingAndGlyphs"
text-anchor="start" opacity="0">1</text>
<path d="M14199 4562
L13906 4562
" />
<path d="M14052 4562
L14052 4050
L14004 4123
L13955 4172
L13906 4196
" />
</g>
<g style="fill:#000000; fill-opacity:0.0; 
stroke:#000000; stroke-width:39.3701; stroke-opacity:1; 
stroke-linecap:round; stroke-linejoin:round;">
</g>
<g style="fill:#000000; fill-opacity:0.0; 
stroke:#000000; stroke-width:59.0551; stroke-opacity:1; 
stroke-linecap:round; stroke-linejoin:round;">
<text x="33464.6" y="4586.61"
textLength="546.494" font-size="682.415" lengthAdjust="spacingAndGlyphs"
text-anchor="start" opacity="0">2</text>
<path d="M33591 4099
L33615 4074
L33664 4050
L33786 4050
L33835 4074
L33859 4099
L33884 4147
L33884 4196
L33859 4269
L33567 4562
L33884 4562
" />
</g>
<g style="fill:#000000; fill-opacity:0.0; 
stroke:#000000; stroke-width:39.3701; stroke-opacity:1; 
stroke-linecap:round; stroke-linejoin:round;">
</g>
<g style="fill:#000000; fill-opacity:0.0; 
stroke:#000000; stroke-width:59.0551; stroke-opacity:1; 
stroke-linecap:round; stroke-linejoin:round;">
<text x="53149.6" y="4586.61"
textLength="546.494" font-size="682.415" lengthAdjust="spacingAndGlyphs"
text-anchor="start" opacity="0">3</text>
<path d="M53252 4050
L53569 4050
L53398 4245
L53471 4245
L53520 4269
L53544 4294
L53569 4342
L53569 4464
L53544 4513
L53520 4537
L53471 4562
L53325 4562
L53276 4537
L53252 4513
" />
</g>
<g style="fill:#000000; fill-opacity:0.0; 
stroke:#000000; stroke-width:39.3701; stroke-opacity:1; 
stroke-linecap:round; stroke-linejoin:round;">
</g>
<g style="fill:#000000; fill-opacity:0.0; 
stroke:#000000; stroke-width:59.0551; stroke-opacity:1; 
stroke-linecap:round; stroke-linejoin:round;">
<text x="72834.6" y="4586.61"
textLength="546.494" font-size="682.415" lengthAdjust="spacingAndGlyphs"
text-anchor="start" opacity="0">4</text>
<path d="M73205 4221
L73205 4562
" />
<path d="M73083 4026
L72961 4391
L73278 4391
" />
</g>
<g style="fill:#000000; fill-opacity:0.0; 
stroke:#000000; stroke-width:39.3701; stroke-opacity:1; 
stroke-linecap:round; stroke-linejoin:round;">
</g>
<g style="fill:#000000; fill-opacity:0.0; 
stroke:#000000; stroke-width:59.0551; stroke-opacity:1; 
stroke-linecap:round; stroke-linejoin:round;">
<text x="92519.7" y="4586.61"
textLength="546.494" font-size="682.415" lengthAdjust="spacingAndGlyphs"
text-anchor="start" opacity="0">5</text>
<path d="M92914 4050
L92671 4050
L92646 4294
L92671 4269
L92719 4245
L92841 4245
L92890 4269
L92914 4294
L92939 4342
L92939 4464
L92914 4513
L92890 4537
L92841 4562
L92719 4562
L92671 4537
L92646 4513
" />
</g>
<g style="fill:#000000; fill-opacity:0.0; 
stroke:#000000; stroke-width:39.3701; stroke-opacity:1; 
stroke-linecap:round; stroke-linejoin:round;">
</g>
<g style="fill:#000000; fill-opacity:0.0; 
stroke:#000000; stroke-width:59.0551; stroke-opacity:1; 
stroke-linecap:round; stroke-linejoin:round;">
<text x="112205" y="4586.61"
textLength="546.494" font-size="682.415" lengthAdjust="spacingAndGlyphs"
text-anchor="start" opacity="0">6</text>
<path d="M112575 4050
L112477 4050
L112429 4074
L112404 4099
L112356 4172
L112331 4269
L112331 4464
L112356 4513
L112380 4537
L112429 4562
L112526 4562
L112575 4537
L112599 4513
L112624 4464
L112624 4342
L112599 4294
L112575 4269
L112526 4245
L112429 4245
L112380 4269
L112356 4294
L112331 4342
" />
</g>
<g style="fill:#000000; fill-opacity:0.0; 
stroke:#000000; stroke-width:39.3701; stroke-opacity:1; 
stroke-linecap:round; stroke-linejoin:round;">
</g>
<g style="fill:#000000; fill-opacity:0.0; 
stroke:#000000; stroke-width:59.0551; stroke-opacity:1; 
stroke-linecap:round; stroke-linejoin:round;">
<path d="M23622 77955
L23622 78742
" />
</g>
<g style="fill:#000000; fill-opacity:0.0; 
stroke:#000000; stroke-width:39.3701; stroke-opacity:1; 
stroke-linecap:round; stroke-linejoin:round;">
</g>
<g style="fill:#000000; fill-opacity:0.0; 
stroke:#000000; stroke-width:59.0551; stroke-opacity:1; 
stroke-linecap:round; stroke-linejoin:round;">
<path d="M43307 77955
L43307 78742
" />
</g>
<g style="fill:#000000; fill-opacity:0.0; 
stroke:#000000; stroke-width:39.3701; stroke-opacity:1; 
stroke-linecap:round; stroke-linejoin:round;">
</g>
<g style="fill:#000000; fill-opacity:0.0; 
stroke:#000000; stroke-width:59.0551; stroke-opacity:1; 
stroke-linecap:round; stroke-linejoin:round;">
<path d="M62992 77955
L62992 78742
" />
</g>
<g style="fill:#000000; fill-opacity:0.0; 
stroke:#000000; stroke-width:39.3701; stroke-opacity:1; 
stroke-linecap:round; stroke-linejoin:round;">
</g>
<g style="fill:#000000; fill-opacity:0.0; 
stroke:#000000; stroke-width:59.0551; stroke-opacity:1; 
stroke-linecap:round; stroke-linejoin:round;">
<path d="M82677 77955
L82677 78742
" />
</g>
<g style="fill:#000000; fill-opacity:0.0; 
stroke:#000000; stroke-width:39.3701; stroke-opacity:1; 
stroke-linecap:round; stroke-linejoin:round;">
</g>
<g style="fill:#000000; fill-opacity:0.0; 
stroke:#000000; stroke-width:59.0551; stroke-opacity:1; 
stroke-linecap:round; stroke-linejoin:round;">
<path d="M102362 77955
L102362 78742
" />
</g>
<g style="fill:#000000; fill-opacity:0.0; 
stroke:#000000; stroke-width:39.3701; stroke-opacity:1; 
stroke-linecap:round; stroke-linejoin:round;">
</g>
<g style="fill:#000000; fill-opacity:0.0; 
stroke:#000000; stroke-width:59.0551; stroke-opacity:1; 
stroke-linecap:round; stroke-linejoin:round;">
<text x="13779.5" y="78605.2"
textLength="546.494" font-size="682.415" lengthAdjust="spacingAndGlyphs"
text-anchor="start" opacity="0">1</text>
<path d="M14199 78580
L13906 78580
" />
<path d="M14052 78580
L14052 78069
L14004 78142
L13955 78190
L13906 78215
" />
</g>
<g style="fill:#000000; fill-opacity:0.0; 
stroke:#000000; stroke-width:39.3701; stroke-opacity:1; 
stroke-linecap:round; stroke-linejoin:round;">
</g>
<g style="fill:#000000; fill-opacity:0.0; 
stroke:#000000; stroke-width:59.0551; stroke-opacity:1; 
stroke-linecap:round; stroke-linejoin:round;">
<text x="33464.6" y="78605.2"
textLength="546.494" font-size="682.415" lengthAdjust="spacingAndGlyphs"
text-anchor="start" opacity="0">2</text>
<path d="M33591 78117
L33615 78093
L33664 78069
L33786 78069
L33835 78093
L33859 78117
L33884 78166
L33884 78215
L33859 78288
L33567 78580
L33884 78580
" />
</g>
<g style="fill:#000000; fill-opacity:0.0; 
stroke:#000000; stroke-width:39.3701; stroke-opacity:1; 
stroke-linecap:round; stroke-linejoin:round;">
</g>
<g style="fill:#000000; fill-opacity:0.0; 
stroke:#000000; stroke-width:59.0551; stroke-opacity:1; 
stroke-linecap:round; stroke-linejoin:round;">
<text x="53149.6" y="78605.2"
textLength="546.494" font-size="682.415" lengthAdjust="spacingAndGlyphs"
text-anchor="start" opacity="0">3</text>
<path d="M53252 78069
L53569 78069
L53398 78263
L53471 78263
L53520 78288
L53544 78312
L53569 78361
L53569 78483
L53544 78532
L53520 78556
L53471 78580
L53325 78580
L53276 78556
L53252 78532
" />
</g>
<g style="fill:#000000; fill-opacity:0.0; 
stroke:#000000; stroke-width:39.3701; stroke-opacity:1; 
stroke-linecap:round; stroke-linejoin:round;">
</g>
<g style="fill:#000000; fill-opacity:0.0; 
stroke:#000000; stroke-width:59.0551; stroke-opacity:1; 
stroke-linecap:round; stroke-linejoin:round;">
<text x="72834.6" y="78605.2"
textLength="546.494" font-size="682.415" lengthAdjust="spacingAndGlyphs"
text-anchor="start" opacity="0">4</text>
<path d="M73205 78239
L73205 78580
" />
<path d="M73083 78044
L72961 78410
L73278 78410
" />
</g>
<g style="fill:#000000; fill-opacity:0.0; 
stroke:#000000; stroke-width:39.3701; stroke-opacity:1; 
stroke-linecap:round; stroke-linejoin:round;">
</g>
<g style="fill:#000000; fill-opacity:0.0; 
stroke:#000000; stroke-width:59.0551; stroke-opacity:1; 
stroke-linecap:round; stroke-linejoin:round;">
<text x="92519.7" y="78605.2"
textLength="546.494" font-size="682.415" lengthAdjust="spacingAndGlyphs"
text-anchor="start" opacity="0">5</text>
<path d="M92914 78069
L92671 78069
L92646 78312
L92671 78288
L92719 78263
L92841 78263
L92890 78288
L92914 78312
L92939 78361
L92939 78483
L92914 78532
L92890 78556
L92841 78580
L92719 78580
L92671 78556
L92646 78532
" />
</g>
<g style="fill:#000000; fill-opacity:0.0; 
stroke:#000000; stroke-width:39.3701; stroke-opacity:1; 
stroke-linecap:round; stroke-linejoin:round;">
</g>
<g style="fill:#000000; fill-opacity:0.0; 
stroke:#000000; stroke-width:59.0551; stroke-opacity:1; 
stroke-linecap:round; stroke-linejoin:round;">
<text x="112205" y="78605.2"
textLength="546.494" font-size="682.415" lengthAdjust="spacingAndGlyphs"
text-anchor="start" opacity="0">6</text>
<path d="M112575 78069
L112477 78069
L112429 78093
L112404 78117
L112356 78190
L112331 78288
L112331 78483
L112356 78532
L112380 78556
L112429 78580
L112526 78580
L112575 78556
L112599 78532
L112624 78483
L112624 78361
L112599 78312
L112575 78288
L112526 78263
L112429 78263
L112380 78288
L112356 78312
L112331 78361
" />
</g>
<g style="fill:#000000; fill-opacity:0.0; 
stroke:#000000; stroke-width:39.3701; stroke-opacity:1; 
stroke-linecap:round; stroke-linejoin:round;">
</g>
<g style="fill:#000000; fill-opacity:0.0; 
stroke:#000000; stroke-width:59.0551; stroke-opacity:1; 
stroke-linecap:round; stroke-linejoin:round;">
<path d="M3937 23622
L4724 23622
" />
</g>
<g style="fill:#000000; fill-opacity:0.0; 
stroke:#000000; stroke-width:39.3701; stroke-opacity:1; 
stroke-linecap:round; stroke-linejoin:round;">
</g>
<g style="fill:#000000; fill-opacity:0.0; 
stroke:#000000; stroke-width:59.0551; stroke-opacity:1; 
stroke-linecap:round; stroke-linejoin:round;">
<path d="M3937 43307
L4724 43307
" />
</g>
<g style="fill:#000000; fill-opacity:0.0; 
stroke:#000000; stroke-width:39.3701; stroke-opacity:1; 
stroke-linecap:round; stroke-linejoin:round;">
</g>
<g style="fill:#000000; fill-opacity:0.0; 
stroke:#000000; stroke-width:59.0551; stroke-opacity:1; 
stroke-linecap:round; stroke-linejoin:round;">
<path d="M3937 62992
L4724 62992
" />
</g>
<g style="fill:#000000; fill-opacity:0.0; 
stroke:#000000; stroke-width:39.3701; stroke-opacity:1; 
stroke-linecap:round; stroke-linejoin:round;">
</g>
<g style="fill:#000000; fill-opacity:0.0; 
stroke:#000000; stroke-width:59.0551; stroke-opacity:1; 
stroke-linecap:round; stroke-linejoin:round;">
<text x="4330.71" y="14035.4"
textLength="497.75" font-size="682.415" lengthAdjust="spacingAndGlyphs"
text-anchor="middle" opacity="0">A</text>
<path d="M4208 13864
L4452 13864
" />
<path d="M4160 14011
L4330 13499
L4501 14011
" />
</g>
<g style="fill:#000000; fill-opacity:0.0; 
stroke:#000000; stroke-width:39.3701; stroke-opacity:1; 
stroke-linecap:round; stroke-linejoin:round;">
</g>
<g style="fill:#000000; fill-opacity:0.0; 
stroke:#000000; stroke-width:59.0551; stroke-opacity:1; 
stroke-linecap:round; stroke-linejoin:round;">
<text x="4330.71" y="33720.5"
textLength="570.866" font-size="682.415" lengthAdjust="spacingAndGlyphs"
text-anchor="middle" opacity="0">B</text>
<path d="M4367 33428
L4440 33452
L4464 33476
L4489 33525
L4489 33598
L4464 33647
L4440 33671
L4391 33696
L4196 33696
L4196 33184
L4367 33184
L4416 33208
L4440 33233
L4464 33281
L4464 33330
L4440 33379
L4416 33403
L4367 33428
L4196 33428
" />
</g>
<g style="fill:#000000; fill-opacity:0.0; 
stroke:#000000; stroke-width:39.3701; stroke-opacity:1; 
stroke-linecap:round; stroke-linejoin:round;">
</g>
<g style="fill:#000000; fill-opacity:0.0; 
stroke:#000000; stroke-width:59.0551; stroke-opacity:1; 
stroke-linecap:round; stroke-linejoin:round;">
<text x="4330.71" y="53405.5"
textLength="570.866" font-size="682.415" lengthAdjust="spacingAndGlyphs"
text-anchor="middle" opacity="0">C</text>
<path d="M4489 53332
L4464 53356
L4391 53381
L4342 53381
L4269 53356
L4221 53308
L4196 53259
L4172 53161
L4172 53088
L4196 52991
L4221 52942
L4269 52893
L4342 52869
L4391 52869
L4464 52893
L4489 52918
" />
</g>
<g style="fill:#000000; fill-opacity:0.0; 
stroke:#000000; stroke-width:39.3701; stroke-opacity:1; 
stroke-linecap:round; stroke-linejoin:round;">
</g>
<g style="fill:#000000; fill-opacity:0.0; 
stroke:#000000; stroke-width:59.0551; stroke-opacity:1; 
stroke-linecap:round; stroke-linejoin:round;">
<text x="4330.71" y="73090.6"
textLength="570.866" font-size="682.415" lengthAdjust="spacingAndGlyphs"
text-anchor="middle" opacity="0">D</text>
<path d="M4196 73066
L4196 72554
L4318 72554
L4391 72578
L4440 72627
L4464 72676
L4489 72773
L4489 72846
L4464 72944
L4440 72993
L4391 73041
L4318 73066
L4196 73066
" />
</g>
<g style="fill:#000000; fill-opacity:0.0; 
stroke:#000000; stroke-width:39.3701; stroke-opacity:1; 
stroke-linecap:round; stroke-linejoin:round;">
</g>
<g style="fill:#000000; fill-opacity:0.0; 
stroke:#000000; stroke-width:59.0551; stroke-opacity:1; 
stroke-linecap:round; stroke-linejoin:round;">
<path d="M112992 23622
L112205 23622
" />
</g>
<g style="fill:#000000; fill-opacity:0.0; 
stroke:#000000; stroke-width:39.3701; stroke-opacity:1; 
stroke-linecap:round; stroke-linejoin:round;">
</g>
<g style="fill:#000000; fill-opacity:0.0; 
stroke:#000000; stroke-width:59.0551; stroke-opacity:1; 
stroke-linecap:round; stroke-linejoin:round;">
<path d="M112992 43307
L112205 43307
" />
</g>
<g style="fill:#000000; fill-opacity:0.0; 
stroke:#000000; stroke-width:39.3701; stroke-opacity:1; 
stroke-linecap:round; stroke-linejoin:round;">
</g>
<g style="fill:#000000; fill-opacity:0.0; 
stroke:#000000; stroke-width:59.0551; stroke-opacity:1; 
stroke-linecap:round; stroke-linejoin:round;">
<path d="M112992 62992
L112205 62992
" />
</g>
<g style="fill:#000000; fill-opacity:0.0; 
stroke:#000000; stroke-width:39.3701; stroke-opacity:1; 
stroke-linecap:round; stroke-linejoin:round;">
</g>
<g style="fill:#000000; fill-opacity:0.0; 
stroke:#000000; stroke-width:59.0551; stroke-opacity:1; 
stroke-linecap:round; stroke-linejoin:round;">
<text x="112599" y="14035.4"
textLength="497.75" font-size="682.415" lengthAdjust="spacingAndGlyphs"
text-anchor="middle" opacity="0">A</text>
<path d="M112477 13864
L112721 13864
" />
<path d="M112428 14011
L112599 13499
L112769 14011
" />
</g>
<g style="fill:#000000; fill-opacity:0.0; 
stroke:#000000; stroke-width:39.3701; stroke-opacity:1; 
stroke-linecap:round; stroke-linejoin:round;">
</g>
<g style="fill:#000000; fill-opacity:0.0; 
stroke:#000000; stroke-width:59.0551; stroke-opacity:1; 
stroke-linecap:round; stroke-linejoin:round;">
<text x="112599" y="33720.5"
textLength="570.866" font-size="682.415" lengthAdjust="spacingAndGlyphs"
text-anchor="middle" opacity="0">B</text>
<path d="M112635 33428
L112708 33452
L112733 33476
L112757 33525
L112757 33598
L112733 33647
L112708 33671
L112660 33696
L112465 33696
L112465 33184
L112635 33184
L112684 33208
L112708 33233
L112733 33281
L112733 33330
L112708 33379
L112684 33403
L112635 33428
L112465 33428
" />
</g>
<g style="fill:#000000; fill-opacity:0.0; 
stroke:#000000; stroke-width:39.3701; stroke-opacity:1; 
stroke-linecap:round; stroke-linejoin:round;">
</g>
<g style="fill:#000000; fill-opacity:0.0; 
stroke:#000000; stroke-width:59.0551; stroke-opacity:1; 
stroke-linecap:round; stroke-linejoin:round;">
<text x="112599" y="53405.5"
textLength="570.866" font-size="682.415" lengthAdjust="spacingAndGlyphs"
text-anchor="middle" opacity="0">C</text>
<path d="M112757 53332
L112733 53356
L112660 53381
L112611 53381
L112538 53356
L112489 53308
L112465 53259
L112440 53161
L112440 53088
L112465 52991
L112489 52942
L112538 52893
L112611 52869
L112660 52869
L112733 52893
L112757 52918
" />
</g>
<g style="fill:#000000; fill-opacity:0.0; 
stroke:#000000; stroke-width:39.3701; stroke-opacity:1; 
stroke-linecap:round; stroke-linejoin:round;">
</g>
<g style="fill:#000000; fill-opacity:0.0; 
stroke:#000000; stroke-width:59.0551; stroke-opacity:1; 
stroke-linecap:round; stroke-linejoin:round;">
<text x="112599" y="73090.6"
textLength="570.866" font-size="682.415" lengthAdjust="spacingAndGlyphs"
text-anchor="middle" opacity="0">D</text>
<path d="M112465 73066
L112465 72554
L112587 72554
L112660 72578
L112708 72627
L112733 72676
L112757 72773
L112757 72846
L112733 72944
L112708 72993
L112660 73041
L112587 73066
L112465 73066
" />
</g>
<g style="fill:#000000; fill-opacity:0.0; 
stroke:#000000; stroke-width:39.3701; stroke-opacity:1; 
stroke-linecap:round; stroke-linejoin:round;">
</g>
<g style="fill:#000000; fill-opacity:0.0; 
stroke:#000000; stroke-width:59.0551; stroke-opacity:1; 
stroke-linecap:round; stroke-linejoin:round;">
<text x="78741" y="76321.7"
textLength="2758.72" font-size="787.402" lengthAdjust="spacingAndGlyphs"
text-anchor="start" opacity="0">Date: </text>
<path d="M78911 76293
L78911 75703
L79051 75703
L79136 75731
L79192 75787
L79220 75843
L79248 75956
L79248 76040
L79220 76153
L79192 76209
L79136 76265
L79051 76293
L78911 76293
" />
<path d="M79754 76293
L79754 75984
L79726 75928
L79670 75899
L79557 75899
L79501 75928
" />
<path d="M79754 76265
L79698 76293
L79557 76293
L79501 76265
L79473 76209
L79473 76153
L79501 76096
L79557 76068
L79698 76068
L79754 76040
" />
<path d="M79951 75899
L80176 75899
" />
<path d="M80036 75703
L80036 76209
L80064 76265
L80120 76293
L80176 76293
" />
<path d="M80598 76265
L80542 76293
L80429 76293
L80373 76265
L80345 76209
L80345 75984
L80373 75928
L80429 75899
L80542 75899
L80598 75928
L80626 75984
L80626 76040
L80345 76096
" />
<path d="M80879 76237
L80907 76265
L80879 76293
L80851 76265
L80879 76237
L80879 76293
" />
<path d="M80879 75928
L80907 75956
L80879 75984
L80851 75956
L80879 75928
L80879 75984
" />
</g>
<g style="fill:#000000; fill-opacity:0.0; 
stroke:#000000; stroke-width:39.3701; stroke-opacity:1; 
stroke-linecap:round; stroke-linejoin:round;">
</g>
<g style="fill:#000000; fill-opacity:0.0; 
stroke:#000000; stroke-width:59.0551; stroke-opacity:1; 
stroke-linecap:round; stroke-linejoin:round;">
<path d="M69685 76577
L112205 76577
" />
</g>
<g style="fill:#000000; fill-opacity:0.0; 
stroke:#000000; stroke-width:39.3701; stroke-opacity:1; 
stroke-linecap:round; stroke-linejoin:round;">
</g>
<g style="fill:#000000; fill-opacity:0.0; 
stroke:#000000; stroke-width:59.0551; stroke-opacity:1; 
stroke-linecap:round; stroke-linejoin:round;">
<text x="70079.6" y="77424.1"
textLength="14429.1" font-size="787.402" lengthAdjust="spacingAndGlyphs"
text-anchor="start" opacity="0">KiCad E.D.A.  pcbnew (5.1.6-0)</text>
<path d="M70249 77395
L70249 76805
" />
<path d="M70587 77395
L70334 77058
" />
<path d="M70587 76805
L70249 77142
" />
<path d="M70840 77395
L70840 77002
" />
<path d="M70840 76805
L70812 76833
L70840 76861
L70868 76833
L70840 76805
L70840 76861
" />
<path d="M71458 77339
L71430 77367
L71346 77395
L71290 77395
L71205 77367
L71149 77311
L71121 77255
L71093 77142
L71093 77058
L71121 76946
L71149 76889
L71205 76833
L71290 76805
L71346 76805
L71430 76833
L71458 76861
" />
<path d="M71965 77395
L71965 77086
L71937 77030
L71880 77002
L71768 77002
L71712 77030
" />
<path d="M71965 77367
L71908 77395
L71768 77395
L71712 77367
L71683 77311
L71683 77255
L71712 77199
L71768 77171
L71908 77171
L71965 77142
" />
<path d="M72499 77395
L72499 76805
" />
<path d="M72499 77367
L72443 77395
L72330 77395
L72274 77367
L72246 77339
L72218 77283
L72218 77114
L72246 77058
L72274 77030
L72330 77002
L72443 77002
L72499 77030
" />
<path d="M73230 77086
L73427 77086
" />
<path d="M73511 77395
L73230 77395
L73230 76805
L73511 76805
" />
<path d="M73764 77339
L73793 77367
L73764 77395
L73736 77367
L73764 77339
L73764 77395
" />
<path d="M74046 77395
L74046 76805
L74186 76805
L74271 76833
L74327 76889
L74355 76946
L74383 77058
L74383 77142
L74355 77255
L74327 77311
L74271 77367
L74186 77395
L74046 77395
" />
<path d="M74636 77339
L74664 77367
L74636 77395
L74608 77367
L74636 77339
L74636 77395
" />
<path d="M74889 77227
L75171 77227
" />
<path d="M74833 77395
L75030 76805
L75227 77395
" />
<path d="M75424 77339
L75452 77367
L75424 77395
L75395 77367
L75424 77339
L75424 77395
" />
<path d="M76605 77002
L76605 77592
" />
<path d="M76605 77030
L76661 77002
L76773 77002
L76830 77030
L76858 77058
L76886 77114
L76886 77283
L76858 77339
L76830 77367
L76773 77395
L76661 77395
L76605 77367
" />
<path d="M77392 77367
L77336 77395
L77223 77395
L77167 77367
L77139 77339
L77111 77283
L77111 77114
L77139 77058
L77167 77030
L77223 77002
L77336 77002
L77392 77030
" />
<path d="M77645 77395
L77645 76805
" />
<path d="M77645 77030
L77701 77002
L77814 77002
L77870 77030
L77898 77058
L77926 77114
L77926 77283
L77898 77339
L77870 77367
L77814 77395
L77701 77395
L77645 77367
" />
<path d="M78180 77002
L78180 77395
" />
<path d="M78180 77058
L78208 77030
L78264 77002
L78348 77002
L78404 77030
L78433 77086
L78433 77395
" />
<path d="M78939 77367
L78883 77395
L78770 77395
L78714 77367
L78686 77311
L78686 77086
L78714 77030
L78770 77002
L78883 77002
L78939 77030
L78967 77086
L78967 77142
L78686 77199
" />
<path d="M79164 77002
L79276 77395
L79389 77114
L79501 77395
L79614 77002
" />
<path d="M80457 77620
L80429 77592
L80373 77508
L80345 77452
L80317 77367
L80289 77227
L80289 77114
L80317 76974
L80345 76889
L80373 76833
L80429 76749
L80457 76721
" />
<path d="M80964 76805
L80682 76805
L80654 77086
L80682 77058
L80739 77030
L80879 77030
L80935 77058
L80964 77086
L80992 77142
L80992 77283
L80964 77339
L80935 77367
L80879 77395
L80739 77395
L80682 77367
L80654 77339
" />
<path d="M81245 77339
L81273 77367
L81245 77395
L81217 77367
L81245 77339
L81245 77395
" />
<path d="M81835 77395
L81498 77395
" />
<path d="M81667 77395
L81667 76805
L81610 76889
L81554 76946
L81498 76974
" />
<path d="M82088 77339
L82117 77367
L82088 77395
L82060 77367
L82088 77339
L82088 77395
" />
<path d="M82623 76805
L82510 76805
L82454 76833
L82426 76861
L82370 76946
L82341 77058
L82341 77283
L82370 77339
L82398 77367
L82454 77395
L82566 77395
L82623 77367
L82651 77339
L82679 77283
L82679 77142
L82651 77086
L82623 77058
L82566 77030
L82454 77030
L82398 77058
L82370 77086
L82341 77142
" />
<path d="M82932 77171
L83382 77171
" />
<path d="M83776 76805
L83832 76805
L83888 76833
L83916 76861
L83944 76917
L83973 77030
L83973 77171
L83944 77283
L83916 77339
L83888 77367
L83832 77395
L83776 77395
L83719 77367
L83691 77339
L83663 77283
L83635 77171
L83635 77030
L83663 76917
L83691 76861
L83719 76833
L83776 76805
" />
<path d="M84169 77620
L84197 77592
L84254 77508
L84282 77452
L84310 77367
L84338 77227
L84338 77114
L84310 76974
L84282 76889
L84254 76833
L84197 76749
L84169 76721
" />
</g>
<g style="fill:#000000; fill-opacity:0.0; 
stroke:#000000; stroke-width:39.3701; stroke-opacity:1; 
stroke-linecap:round; stroke-linejoin:round;">
</g>
<g style="fill:#000000; fill-opacity:0.0; 
stroke:#000000; stroke-width:59.0551; stroke-opacity:1; 
stroke-linecap:round; stroke-linejoin:round;">
<path d="M69685 75396
L112205 75396
" />
</g>
<g style="fill:#000000; fill-opacity:0.0; 
stroke:#000000; stroke-width:39.3701; stroke-opacity:1; 
stroke-linecap:round; stroke-linejoin:round;">
</g>
<g style="fill:#000000; fill-opacity:0.0; 
stroke:#000000; stroke-width:118.11; stroke-opacity:1; 
stroke-linecap:round; stroke-linejoin:round;">
<text x="103544" y="76321.7"
textLength="2336.9" font-size="787.402" lengthAdjust="spacingAndGlyphs"
text-anchor="start" opacity="0">Rev: </text>
<path d="M104099 76293
L103902 76012
" />
<path d="M103761 76293
L103761 75703
L103986 75703
L104042 75731
L104070 75759
L104099 75815
L104099 75899
L104070 75956
L104042 75984
L103986 76012
L103761 76012
" />
<path d="M104577 76265
L104520 76293
L104408 76293
L104352 76265
L104323 76209
L104323 75984
L104352 75928
L104408 75899
L104520 75899
L104577 75928
L104605 75984
L104605 76040
L104323 76096
" />
<path d="M104802 75899
L104942 76293
L105083 75899
" />
<path d="M105308 76237
L105336 76265
L105308 76293
L105280 76265
L105308 76237
L105308 76293
" />
<path d="M105308 75928
L105336 75956
L105308 75984
L105280 75956
L105308 75928
L105308 75984
" />
</g>
<g style="fill:#000000; fill-opacity:0.0; 
stroke:#000000; stroke-width:39.3701; stroke-opacity:1; 
stroke-linecap:round; stroke-linejoin:round;">
</g>
<g style="fill:#000000; fill-opacity:0.0; 
stroke:#000000; stroke-width:59.0551; stroke-opacity:1; 
stroke-linecap:round; stroke-linejoin:round;">
<text x="70079.6" y="76321.7"
textLength="3781.21" font-size="787.402" lengthAdjust="spacingAndGlyphs"
text-anchor="start" opacity="0">Size: A4</text>
<path d="M70221 76265
L70305 76293
L70446 76293
L70502 76265
L70530 76237
L70559 76181
L70559 76124
L70530 76068
L70502 76040
L70446 76012
L70334 75984
L70277 75956
L70249 75928
L70221 75871
L70221 75815
L70249 75759
L70277 75731
L70334 75703
L70474 75703
L70559 75731
" />
<path d="M70812 76293
L70812 75899
" />
<path d="M70812 75703
L70784 75731
L70812 75759
L70840 75731
L70812 75703
L70812 75759
" />
<path d="M71037 75899
L71346 75899
L71037 76293
L71346 76293
" />
<path d="M71796 76265
L71740 76293
L71627 76293
L71571 76265
L71543 76209
L71543 75984
L71571 75928
L71627 75899
L71740 75899
L71796 75928
L71824 75984
L71824 76040
L71543 76096
" />
<path d="M72077 76237
L72105 76265
L72077 76293
L72049 76265
L72077 76237
L72077 76293
" />
<path d="M72077 75928
L72105 75956
L72077 75984
L72049 75956
L72077 75928
L72077 75984
" />
<path d="M72780 76124
L73061 76124
" />
<path d="M72724 76293
L72921 75703
L73118 76293
" />
<path d="M73568 75899
L73568 76293
" />
<path d="M73427 75674
L73286 76096
L73652 76096
" />
</g>
<g style="fill:#000000; fill-opacity:0.0; 
stroke:#000000; stroke-width:39.3701; stroke-opacity:1; 
stroke-linecap:round; stroke-linejoin:round;">
</g>
<g style="fill:#000000; fill-opacity:0.0; 
stroke:#000000; stroke-width:59.0551; stroke-opacity:1; 
stroke-linecap:round; stroke-linejoin:round;">
<text x="103544" y="77424.1"
textLength="3349.27" font-size="787.402" lengthAdjust="spacingAndGlyphs"
text-anchor="start" opacity="0">Id: 1/1</text>
<path d="M103714 77395
L103714 76805
" />
<path d="M104248 77395
L104248 76805
" />
<path d="M104248 77367
L104192 77395
L104079 77395
L104023 77367
L103995 77339
L103967 77283
L103967 77114
L103995 77058
L104023 77030
L104079 77002
L104192 77002
L104248 77030
" />
<path d="M104529 77339
L104557 77367
L104529 77395
L104501 77367
L104529 77339
L104529 77395
" />
<path d="M104529 77030
L104557 77058
L104529 77086
L104501 77058
L104529 77030
L104529 77086
" />
<path d="M105570 77395
L105232 77395
" />
<path d="M105401 77395
L105401 76805
L105345 76889
L105289 76946
L105232 76974
" />
<path d="M106245 76777
L105739 77536
" />
<path d="M106751 77395
L106413 77395
" />
<path d="M106582 77395
L106582 76805
L106526 76889
L106470 76946
L106413 76974
" />
</g>
<g style="fill:#000000; fill-opacity:0.0; 
stroke:#000000; stroke-width:39.3701; stroke-opacity:1; 
stroke-linecap:round; stroke-linejoin:round;">
</g>
<g style="fill:#000000; fill-opacity:0.0; 
stroke:#000000; stroke-width:59.0551; stroke-opacity:1; 
stroke-linecap:round; stroke-linejoin:round;">
<path d="M69685 73821
L112205 73821
" />
</g>
<g style="fill:#000000; fill-opacity:0.0; 
stroke:#000000; stroke-width:39.3701; stroke-opacity:1; 
stroke-linecap:round; stroke-linejoin:round;">
</g>
<g style="fill:#000000; fill-opacity:0.0; 
stroke:#000000; stroke-width:157.48; stroke-opacity:1; 
stroke-linecap:round; stroke-linejoin:round;">
<text x="70079.6" y="74924.1"
textLength="3701.14" font-size="1049.87" lengthAdjust="spacingAndGlyphs"
text-anchor="start" opacity="0">Title: </text>
<path d="M70360 74099
L70810 74099
" />
<path d="M70486 74886
L70585 74099
" />
<path d="M70974 74886
L71039 74361
" />
<path d="M71072 74099
L71030 74136
L71063 74174
L71105 74136
L71072 74099
L71063 74174
" />
<path d="M71302 74361
L71602 74361
" />
<path d="M71447 74099
L71363 74774
L71391 74849
L71461 74886
L71536 74886
" />
<path d="M71911 74886
L71841 74849
L71813 74774
L71897 74099
" />
<path d="M72516 74849
L72436 74886
L72286 74886
L72216 74849
L72187 74774
L72225 74474
L72272 74399
L72352 74361
L72501 74361
L72572 74399
L72600 74474
L72591 74549
L72206 74624
" />
<path d="M72895 74811
L72928 74849
L72886 74886
L72853 74849
L72895 74811
L72886 74886
" />
<path d="M72947 74399
L72980 74436
L72937 74474
L72905 74436
L72947 74399
L72937 74474
" />
</g>
<g style="fill:#000000; fill-opacity:0.0; 
stroke:#000000; stroke-width:39.3701; stroke-opacity:1; 
stroke-linecap:round; stroke-linejoin:round;">
</g>
<g style="fill:#000000; fill-opacity:0.0; 
stroke:#000000; stroke-width:59.0551; stroke-opacity:1; 
stroke-linecap:round; stroke-linejoin:round;">
<text x="70079.6" y="73408.3"
textLength="11818.9" font-size="787.402" lengthAdjust="spacingAndGlyphs"
text-anchor="start" opacity="0">File: LFO4Panel.kicad_pcb</text>
<path d="M70446 73070
L70249 73070
" />
<path d="M70249 73380
L70249 72789
L70530 72789
" />
<path d="M70755 73380
L70755 72986
" />
<path d="M70755 72789
L70727 72817
L70755 72845
L70784 72817
L70755 72789
L70755 72845
" />
<path d="M71121 73380
L71065 73352
L71037 73295
L71037 72789
" />
<path d="M71571 73352
L71515 73380
L71402 73380
L71346 73352
L71318 73295
L71318 73070
L71346 73014
L71402 72986
L71515 72986
L71571 73014
L71599 73070
L71599 73127
L71318 73183
" />
<path d="M71852 73323
L71880 73352
L71852 73380
L71824 73352
L71852 73323
L71852 73380
" />
<path d="M71852 73014
L71880 73042
L71852 73070
L71824 73042
L71852 73014
L71852 73070
" />
<path d="M72865 73380
L72583 73380
L72583 72789
" />
<path d="M73258 73070
L73061 73070
" />
<path d="M73061 73380
L73061 72789
L73343 72789
" />
<path d="M73680 72789
L73793 72789
L73849 72817
L73905 72874
L73933 72986
L73933 73183
L73905 73295
L73849 73352
L73793 73380
L73680 73380
L73624 73352
L73568 73295
L73539 73183
L73539 72986
L73568 72874
L73624 72817
L73680 72789
" />
<path d="M74439 72986
L74439 73380
" />
<path d="M74299 72761
L74158 73183
L74524 73183
" />
<path d="M74749 73380
L74749 72789
L74974 72789
L75030 72817
L75058 72845
L75086 72902
L75086 72986
L75058 73042
L75030 73070
L74974 73099
L74749 73099
" />
<path d="M75592 73380
L75592 73070
L75564 73014
L75508 72986
L75395 72986
L75339 73014
" />
<path d="M75592 73352
L75536 73380
L75395 73380
L75339 73352
L75311 73295
L75311 73239
L75339 73183
L75395 73155
L75536 73155
L75592 73127
" />
<path d="M75874 72986
L75874 73380
" />
<path d="M75874 73042
L75902 73014
L75958 72986
L76042 72986
L76099 73014
L76127 73070
L76127 73380
" />
<path d="M76633 73352
L76577 73380
L76464 73380
L76408 73352
L76380 73295
L76380 73070
L76408 73014
L76464 72986
L76577 72986
L76633 73014
L76661 73070
L76661 73127
L76380 73183
" />
<path d="M76998 73380
L76942 73352
L76914 73295
L76914 72789
" />
<path d="M77223 73323
L77251 73352
L77223 73380
L77195 73352
L77223 73323
L77223 73380
" />
<path d="M77505 73380
L77505 72789
" />
<path d="M77561 73155
L77730 73380
" />
<path d="M77730 72986
L77505 73211
" />
<path d="M77983 73380
L77983 72986
" />
<path d="M77983 72789
L77955 72817
L77983 72845
L78011 72817
L77983 72789
L77983 72845
" />
<path d="M78517 73352
L78461 73380
L78348 73380
L78292 73352
L78264 73323
L78236 73267
L78236 73099
L78264 73042
L78292 73014
L78348 72986
L78461 72986
L78517 73014
" />
<path d="M79023 73380
L79023 73070
L78995 73014
L78939 72986
L78826 72986
L78770 73014
" />
<path d="M79023 73352
L78967 73380
L78826 73380
L78770 73352
L78742 73295
L78742 73239
L78770 73183
L78826 73155
L78967 73155
L79023 73127
" />
<path d="M79557 73380
L79557 72789
" />
<path d="M79557 73352
L79501 73380
L79389 73380
L79332 73352
L79304 73323
L79276 73267
L79276 73099
L79304 73042
L79332 73014
L79389 72986
L79501 72986
L79557 73014
" />
<path d="M79698 73436
L80148 73436
" />
<path d="M80289 72986
L80289 73577
" />
<path d="M80289 73014
L80345 72986
L80457 72986
L80514 73014
L80542 73042
L80570 73099
L80570 73267
L80542 73323
L80514 73352
L80457 73380
L80345 73380
L80289 73352
" />
<path d="M81076 73352
L81020 73380
L80907 73380
L80851 73352
L80823 73323
L80795 73267
L80795 73099
L80823 73042
L80851 73014
L80907 72986
L81020 72986
L81076 73014
" />
<path d="M81329 73380
L81329 72789
" />
<path d="M81329 73014
L81385 72986
L81498 72986
L81554 73014
L81582 73042
L81610 73099
L81610 73267
L81582 73323
L81554 73352
L81498 73380
L81385 73380
L81329 73352
" />
</g>
<g style="fill:#000000; fill-opacity:0.0; 
stroke:#000000; stroke-width:39.3701; stroke-opacity:1; 
stroke-linecap:round; stroke-linejoin:round;">
</g>
<g style="fill:#000000; fill-opacity:0.0; 
stroke:#000000; stroke-width:59.0551; stroke-opacity:1; 
stroke-linecap:round; stroke-linejoin:round;">
<path d="M69685 71459
L112205 71459
" />
</g>
<g style="fill:#000000; fill-opacity:0.0; 
stroke:#000000; stroke-width:39.3701; stroke-opacity:1; 
stroke-linecap:round; stroke-linejoin:round;">
</g>
<g style="fill:#000000; fill-opacity:0.0; 
stroke:#000000; stroke-width:59.0551; stroke-opacity:1; 
stroke-linecap:round; stroke-linejoin:round;">
<text x="70079.6" y="72345.4"
textLength="3236.78" font-size="787.402" lengthAdjust="spacingAndGlyphs"
text-anchor="start" opacity="0">Sheet: </text>
<path d="M70221 72289
L70305 72317
L70446 72317
L70502 72289
L70530 72260
L70559 72204
L70559 72148
L70530 72092
L70502 72064
L70446 72036
L70334 72007
L70277 71979
L70249 71951
L70221 71895
L70221 71839
L70249 71782
L70277 71754
L70334 71726
L70474 71726
L70559 71754
" />
<path d="M70812 72317
L70812 71726
" />
<path d="M71065 72317
L71065 72007
L71037 71951
L70980 71923
L70896 71923
L70840 71951
L70812 71979
" />
<path d="M71571 72289
L71515 72317
L71402 72317
L71346 72289
L71318 72232
L71318 72007
L71346 71951
L71402 71923
L71515 71923
L71571 71951
L71599 72007
L71599 72064
L71318 72120
" />
<path d="M72077 72289
L72021 72317
L71908 72317
L71852 72289
L71824 72232
L71824 72007
L71852 71951
L71908 71923
L72021 71923
L72077 71951
L72105 72007
L72105 72064
L71824 72120
" />
<path d="M72274 71923
L72499 71923
" />
<path d="M72358 71726
L72358 72232
L72386 72289
L72443 72317
L72499 72317
" />
<path d="M72696 72260
L72724 72289
L72696 72317
L72668 72289
L72696 72260
L72696 72317
" />
<path d="M72696 71951
L72724 71979
L72696 72007
L72668 71979
L72696 71951
L72696 72007
" />
</g>
<g style="fill:#000000; fill-opacity:0.0; 
stroke:#000000; stroke-width:39.3701; stroke-opacity:1; 
stroke-linecap:round; stroke-linejoin:round;">
</g>
<g style="fill:#000000; fill-opacity:0.0; 
stroke:#000000; stroke-width:59.0551; stroke-opacity:1; 
stroke-linecap:round; stroke-linejoin:round;">
<path d="M77559 75396
L77559 76577
" />
</g>
<g style="fill:#000000; fill-opacity:0.0; 
stroke:#000000; stroke-width:39.3701; stroke-opacity:1; 
stroke-linecap:round; stroke-linejoin:round;">
</g>
<g style="fill:#000000; fill-opacity:0.0; 
stroke:#000000; stroke-width:59.0551; stroke-opacity:1; 
stroke-linecap:round; stroke-linejoin:round;">
<path d="M102756 75396
L102756 77955
" />
</g>
<g style="fill:#840084; fill-opacity:0.0; 
stroke:#840084; stroke-width:59.0551; stroke-opacity:1; 
stroke-linecap:round; stroke-linejoin:round;">
<text x="31500" y="58196.9"
textLength="3465.5" font-size="524.934" lengthAdjust="spacingAndGlyphs"
text-anchor="middle" opacity="0">A.RANCH 22</text>
<path d="M33187 58065
L32999 58065
" />
<path d="M33224 58178
L33093 57784
L32962 58178
" />
<path d="M32831 58140
L32812 58159
L32831 58178
L32849 58159
L32831 58140
L32831 58178
" />
<path d="M32418 58178
L32549 57990
" />
<path d="M32643 58178
L32643 57784
L32493 57784
L32456 57803
L32437 57821
L32418 57859
L32418 57915
L32437 57953
L32456 57971
L32493 57990
L32643 57990
" />
<path d="M32268 58065
L32081 58065
" />
<path d="M32306 58178
L32174 57784
L32043 58178
" />
<path d="M31912 58178
L31912 57784
L31687 58178
L31687 57784
" />
<path d="M31275 58140
L31293 58159
L31350 58178
L31387 58178
L31443 58159
L31481 58121
L31500 58084
L31518 58009
L31518 57953
L31500 57878
L31481 57840
L31443 57803
L31387 57784
L31350 57784
L31293 57803
L31275 57821
" />
<path d="M31106 58178
L31106 57784
" />
<path d="M31106 57971
L30881 57971
" />
<path d="M30881 58178
L30881 57784
" />
<path d="M30412 57821
L30393 57803
L30356 57784
L30262 57784
L30225 57803
L30206 57821
L30187 57859
L30187 57896
L30206 57953
L30431 58178
L30187 58178
" />
<path d="M30037 57821
L30018 57803
L29981 57784
L29887 57784
L29850 57803
L29831 57821
L29812 57859
L29812 57896
L29831 57953
L30056 58178
L29812 58178
" />
<text x="31000" y="57090.6"
textLength="7291.06" font-size="1574.8" lengthAdjust="spacingAndGlyphs"
text-anchor="middle" opacity="0">MUCHO!!</text>
<path d="M34402 57034
L34402 55853
L34008 56696
L33615 55853
L33615 57034
" />
<path d="M33052 55853
L33052 56809
L32996 56921
L32940 56978
L32827 57034
L32602 57034
L32490 56978
L32434 56921
L32377 56809
L32377 55853
" />
<path d="M31140 56921
L31196 56978
L31365 57034
L31478 57034
L31646 56978
L31759 56865
L31815 56753
L31871 56528
L31871 56359
L31815 56134
L31759 56021
L31646 55909
L31478 55853
L31365 55853
L31196 55909
L31140 55965
" />
<path d="M30634 57034
L30634 55853
" />
<path d="M30634 56415
L29959 56415
" />
<path d="M29959 57034
L29959 55853
" />
<path d="M29172 55853
L28947 55853
L28834 55909
L28722 56021
L28665 56246
L28665 56640
L28722 56865
L28834 56978
L28947 57034
L29172 57034
L29284 56978
L29397 56865
L29453 56640
L29453 56246
L29397 56021
L29284 55909
L29172 55853
" />
<path d="M28159 56921
L28103 56978
L28159 57034
L28215 56978
L28159 56921
L28159 57034
" />
<path d="M28159 56584
L28215 55909
L28159 55853
L28103 55909
L28159 56584
L28159 55853
" />
<path d="M27597 56921
L27541 56978
L27597 57034
L27653 56978
L27597 56921
L27597 57034
" />
<path d="M27597 56584
L27653 55909
L27597 55853
L27541 55909
L27597 56584
L27597 55853
" />
<text x="31500" y="13840.6"
textLength="6897.36" font-size="1574.8" lengthAdjust="spacingAndGlyphs"
text-anchor="middle" opacity="0">LFOx4.0</text>
<path d="M34143 13784
L34705 13784
L34705 12603
" />
<path d="M33356 13165
L33749 13165
" />
<path d="M33749 13784
L33749 12603
L33187 12603
" />
<path d="M32512 12603
L32287 12603
L32174 12659
L32062 12771
L32006 12996
L32006 13390
L32062 13615
L32174 13728
L32287 13784
L32512 13784
L32624 13728
L32737 13615
L32793 13390
L32793 12996
L32737 12771
L32624 12659
L32512 12603
" />
<path d="M31612 13784
L30993 12996
" />
<path d="M31612 12996
L30993 13784
" />
<path d="M30037 12996
L30037 13784
" />
<path d="M30318 12546
L30600 13390
L29868 13390
" />
<path d="M29419 13671
L29362 13728
L29419 13784
L29475 13728
L29419 13671
L29419 13784
" />
<path d="M28631 12603
L28519 12603
L28406 12659
L28350 12715
L28294 12828
L28237 13053
L28237 13334
L28294 13559
L28350 13671
L28406 13728
L28519 13784
L28631 13784
L28744 13728
L28800 13671
L28856 13559
L28912 13334
L28912 13053
L28856 12828
L28800 12715
L28744 12659
L28631 12603
" />
<text x="32250" y="24734.3"
textLength="2454.16" font-size="2624.67" lengthAdjust="spacingAndGlyphs"
text-anchor="middle" opacity="0">@</text>
<path d="M31828 23703
L31921 23609
L32109 23515
L32296 23515
L32484 23609
L32578 23703
L32671 23890
L32671 24078
L32578 24265
L32484 24359
L32296 24453
L32109 24453
L31921 24359
L31828 24265
" />
<path d="M31828 23515
L31828 24265
L31734 24359
L31640 24359
L31453 24265
L31359 24078
L31359 23609
L31546 23328
L31828 23140
L32203 23046
L32578 23140
L32859 23328
L33046 23609
L33140 23984
L33046 24359
L32859 24640
L32578 24827
L32203 24921
L31828 24827
L31546 24640
" />
<text x="32500" y="36984.3"
textLength="1797.99" font-size="2624.67" lengthAdjust="spacingAndGlyphs"
text-anchor="middle" opacity="0">!!</text>
<path d="M32968 36703
L32874 36796
L32968 36890
L33062 36796
L32968 36703
L32968 36890
" />
<path d="M32968 36140
L33062 35015
L32968 34922
L32874 35015
L32968 36140
L32968 34922
" />
<path d="M32031 36703
L31937 36796
L32031 36890
L32125 36796
L32031 36703
L32031 36890
" />
<path d="M32031 36140
L32125 35015
L32031 34922
L31937 35015
L32031 36140
L32031 34922
" />
<text x="32250" y="30984.3"
textLength="2172.95" font-size="2624.67" lengthAdjust="spacingAndGlyphs"
text-anchor="middle" opacity="0">%</text>
<path d="M32999 30890
L31500 28922
" />
<path d="M32718 28922
L32531 29015
L32437 29203
L32531 29390
L32718 29484
L32906 29390
L32999 29203
L32906 29015
L32718 28922
" />
<path d="M31593 30796
L31500 30609
L31593 30421
L31781 30328
L31968 30421
L32062 30609
L31968 30796
L31781 30890
L31593 30796
" />
<text x="32500" y="18984.3"
textLength="1797.99" font-size="2624.67" lengthAdjust="spacingAndGlyphs"
text-anchor="middle" opacity="0">$</text>
<path d="M33062 18796
L32781 18890
L32312 18890
L32125 18796
L32031 18703
L31937 18515
L31937 18328
L32031 18140
L32125 18046
L32312 17953
L32687 17859
L32874 17765
L32968 17671
L33062 17484
L33062 17296
L32968 17109
L32874 17015
L32687 16922
L32218 16922
L31937 17015
" />
<path d="M32500 16640
L32500 19171
" />
<text x="29250" y="50590.6"
textLength="1273.06" font-size="1574.8" lengthAdjust="spacingAndGlyphs"
text-anchor="middle" opacity="0">%</text>
<path d="M29699 50534
L28800 49353
" />
<path d="M29531 49353
L29418 49409
L29362 49521
L29418 49634
L29531 49690
L29643 49634
L29699 49521
L29643 49409
L29531 49353
" />
<path d="M28856 50478
L28800 50365
L28856 50253
L28968 50196
L29081 50253
L29137 50365
L29081 50478
L28968 50534
L28856 50478
" />
<text x="36250" y="53340.6"
textLength="1048.09" font-size="1574.8" lengthAdjust="spacingAndGlyphs"
text-anchor="middle" opacity="0">!!</text>
<path d="M36531 53171
L36474 53228
L36531 53284
L36587 53228
L36531 53171
L36531 53284
" />
<path d="M36531 52834
L36587 52159
L36531 52103
L36474 52159
L36531 52834
L36531 52103
" />
<path d="M35968 53171
L35912 53228
L35968 53284
L36025 53228
L35968 53171
L35968 53284
" />
<path d="M35968 52834
L36025 52159
L35968 52103
L35912 52159
L35968 52834
L35968 52103
" />
<text x="36250" y="48090.6"
textLength="1441.79" font-size="1574.8" lengthAdjust="spacingAndGlyphs"
text-anchor="middle" opacity="0">@</text>
<path d="M35996 47471
L36053 47415
L36165 47359
L36278 47359
L36390 47415
L36446 47471
L36503 47584
L36503 47696
L36446 47809
L36390 47865
L36278 47921
L36165 47921
L36053 47865
L35996 47809
" />
<path d="M35996 47359
L35996 47809
L35940 47865
L35884 47865
L35771 47809
L35715 47696
L35715 47415
L35828 47246
L35996 47134
L36221 47078
L36446 47134
L36615 47246
L36728 47415
L36784 47640
L36728 47865
L36615 48034
L36446 48146
L36221 48203
L35996 48146
L35828 48034
" />
<text x="36250" y="42590.6"
textLength="1048.09" font-size="1574.8" lengthAdjust="spacingAndGlyphs"
text-anchor="middle" opacity="0">$</text>
<path d="M36587 42478
L36418 42534
L36137 42534
L36025 42478
L35968 42421
L35912 42309
L35912 42196
L35968 42084
L36025 42028
L36137 41971
L36362 41915
L36474 41859
L36531 41803
L36587 41690
L36587 41578
L36531 41465
L36474 41409
L36362 41353
L36081 41353
L35912 41409
" />
<path d="M36250 41184
L36250 42703
" />
</g>
<g style="fill:#840084; fill-opacity:0.0; 
stroke:#840084; stroke-width:39.3701; stroke-opacity:1; 
stroke-linecap:round; stroke-linejoin:round;">
</g>
<g style="fill:#840084; fill-opacity:1.0; 
stroke:#840084; stroke-width:39.3701; stroke-opacity:1; 
stroke-linecap:round; stroke-linejoin:round;">
<path style="fill:#840084; fill-opacity:1.0; 
stroke:#840084; stroke-width:39.3701; stroke-opacity:1; 
stroke-linecap:round; stroke-linejoin:round;fill-rule:evenodd;"
d="M 34500,42500
31000,42500
31000,41250
34500,41250
Z" /> 
<path style="fill:#840084; fill-opacity:1.0; 
stroke:#840084; stroke-width:39.3701; stroke-opacity:1; 
stroke-linecap:round; stroke-linejoin:round;fill-rule:evenodd;"
d="M 28250,52750
26750,52750
26750,47500
28250,47500
Z" /> 
<path style="fill:#840084; fill-opacity:1.0; 
stroke:#840084; stroke-width:39.3701; stroke-opacity:1; 
stroke-linecap:round; stroke-linejoin:round;fill-rule:evenodd;"
d="M 34500,53250
31000,53250
31000,52000
34500,52000
Z" /> 
<path style="fill:#840084; fill-opacity:1.0; 
stroke:#840084; stroke-width:39.3701; stroke-opacity:1; 
stroke-linecap:round; stroke-linejoin:round;fill-rule:evenodd;"
d="M 34500,48250
31000,48250
31000,46750
34500,46750
Z" /> 
</g>
<g style="fill:#840084; fill-opacity:1.0; 
stroke:#840084; stroke-width:59.0551; stroke-opacity:1; 
stroke-linecap:round; stroke-linejoin:round;">
</g>
<g style="fill:#840084; fill-opacity:0.0; 
stroke:#840084; stroke-width:59.0551; stroke-opacity:1; 
stroke-linecap:round; stroke-linejoin:round;">
<path d="M35578 17496
L35578 17566
" />
<path d="M35578 18517
L35578 18438
" />
<path d="M35578.3 17493.7 A786.653 786.653 0.0 0 0 34307.6 17618.3" />
<path d="M35401.6 17566.9 A608.718 608.718 0.0 0 0 34573.6 17567.3" />
<path d="M34298.8 18391.3 A782.385 782.385 0.0 0 0 35573.3 18527.8" />
<path d="M34580.7 18430.7 A582.991 582.991 0.0 0 0 35387 18438.3" />
<path d="M34496 23421
L34566 23421
" />
<path d="M35517 23421
L35438 23421
" />
<path d="M34493.7 23421.7 A786.653 786.653 0.0 0 0 34618.3 24692.4" />
<path d="M34566.9 23598.4 A608.718 608.718 0.0 0 0 34567.3 24426.4" />
<path d="M35391.3 24701.2 A782.385 782.385 0.0 0 0 35527.8 23426.7" />
<path d="M35430.7 24419.3 A582.991 582.991 0.0 0 0 35438.3 23613" />
<path d="M34496 29421
L34566 29421
" />
<path d="M35517 29421
L35438 29421
" />
<path d="M34493.7 29421.7 A786.653 786.653 0.0 0 0 34618.3 30692.4" />
<path d="M34566.9 29598.4 A608.718 608.718 0.0 0 0 34567.3 30426.4" />
<path d="M35391.3 30701.2 A782.385 782.385 0.0 0 0 35527.8 29426.7" />
<path d="M35430.7 30419.3 A582.991 582.991 0.0 0 0 35438.3 29613" />
<path d="M34496 35421
L34566 35421
" />
<path d="M35517 35421
L35438 35421
" />
<path d="M34493.7 35421.7 A786.653 786.653 0.0 0 0 34618.3 36692.4" />
<path d="M34566.9 35598.4 A608.718 608.718 0.0 0 0 34567.3 36426.4" />
<path d="M35391.3 36701.2 A782.385 782.385 0.0 0 0 35527.8 35426.7" />
<path d="M35430.7 36419.3 A582.991 582.991 0.0 0 0 35438.3 35613" />
<path d="M25590 34129
L25590 37870
" />
<path d="M30059 34129
L30059 37870
" />
<path d="M25590 37870
L30059 37870
" />
<path d="M25590 34129
L30059 34129
" />
<circle cx="27500" cy="36000" r="1250" /> 
<path d="M27000 36000
L28000 36000
" />
<path d="M27500 35500
L27500 36500
" />
<path d="M25590 28129
L25590 31870
" />
<path d="M30059 28129
L30059 31870
" />
<path d="M25590 31870
L30059 31870
" />
<path d="M25590 28129
L30059 28129
" />
<circle cx="27500" cy="30000" r="1250" /> 
<path d="M27000 30000
L28000 30000
" />
<path d="M27500 29500
L27500 30500
" />
<path d="M25590 22129
L25590 25870
" />
<path d="M30059 22129
L30059 25870
" />
<path d="M25590 25870
L30059 25870
" />
<path d="M25590 22129
L30059 22129
" />
<circle cx="27500" cy="24000" r="1250" /> 
<path d="M27000 24000
L28000 24000
" />
<path d="M27500 23500
L27500 24500
" />
<path d="M25590 16129
L25590 19870
" />
<path d="M30059 16129
L30059 19870
" />
<path d="M25590 19870
L30059 19870
" />
<path d="M25590 16129
L30059 16129
" />
<circle cx="27500" cy="18000" r="1250" /> 
<path d="M27000 18000
L28000 18000
" />
<path d="M27500 17500
L27500 18500
" />
<text x="35000" y="19396.9"
textLength="691.882" font-size="524.934" lengthAdjust="spacingAndGlyphs"
text-anchor="middle" opacity="0">D3</text>
<path d="M35290 19378
L35290 18984
L35196 18984
L35140 19003
L35103 19040
L35084 19078
L35065 19153
L35065 19209
L35084 19284
L35103 19321
L35140 19359
L35196 19378
L35290 19378
" />
<path d="M34934 18984
L34690 18984
L34821 19134
L34765 19134
L34728 19153
L34709 19171
L34690 19209
L34690 19303
L34709 19340
L34728 19359
L34765 19378
L34878 19378
L34915 19359
L34934 19340
" />
<text x="36200" y="18796.9"
textLength="316.929" font-size="524.934" lengthAdjust="spacingAndGlyphs"
text-anchor="middle" opacity="0">K</text>
<path d="M36303 18778
L36303 18384
" />
<path d="M36078 18778
L36246 18553
" />
<path d="M36078 18384
L36303 18609
" />
<g transform="rotate(-90 36200 24000)">
<text x="36200" y="24196.9"
textLength="691.882" font-size="524.934" lengthAdjust="spacingAndGlyphs"
text-anchor="middle" opacity="0">D4</text>
</g>
<path d="M36378 23709
L35984 23709
L35984 23803
L36003 23859
L36040 23896
L36078 23915
L36153 23934
L36209 23934
L36284 23915
L36321 23896
L36359 23859
L36378 23803
L36378 23709
" />
<path d="M36115 24271
L36378 24271
" />
<path d="M35965 24178
L36246 24084
L36246 24328
" />
<g transform="rotate(-90 35600 22800)">
<text x="35600" y="22996.9"
textLength="316.929" font-size="524.934" lengthAdjust="spacingAndGlyphs"
text-anchor="middle" opacity="0">K</text>
</g>
<path d="M35778 22696
L35384 22696
" />
<path d="M35778 22921
L35553 22753
" />
<path d="M35384 22921
L35609 22696
" />
<g transform="rotate(-90 36200 30000)">
<text x="36200" y="30196.9"
textLength="691.882" font-size="524.934" lengthAdjust="spacingAndGlyphs"
text-anchor="middle" opacity="0">D5</text>
</g>
<path d="M36378 29709
L35984 29709
L35984 29803
L36003 29859
L36040 29896
L36078 29915
L36153 29934
L36209 29934
L36284 29915
L36321 29896
L36359 29859
L36378 29803
L36378 29709
" />
<path d="M35984 30290
L35984 30103
L36171 30084
L36153 30103
L36134 30140
L36134 30234
L36153 30271
L36171 30290
L36209 30309
L36303 30309
L36340 30290
L36359 30271
L36378 30234
L36378 30140
L36359 30103
L36340 30084
" />
<g transform="rotate(-90 35600 28800)">
<text x="35600" y="28996.9"
textLength="316.929" font-size="524.934" lengthAdjust="spacingAndGlyphs"
text-anchor="middle" opacity="0">K</text>
</g>
<path d="M35778 28696
L35384 28696
" />
<path d="M35778 28921
L35553 28753
" />
<path d="M35384 28921
L35609 28696
" />
<g transform="rotate(-90 36200 36000)">
<text x="36200" y="36196.9"
textLength="691.882" font-size="524.934" lengthAdjust="spacingAndGlyphs"
text-anchor="middle" opacity="0">D6</text>
</g>
<path d="M36378 35709
L35984 35709
L35984 35803
L36003 35859
L36040 35896
L36078 35915
L36153 35934
L36209 35934
L36284 35915
L36321 35896
L36359 35859
L36378 35803
L36378 35709
" />
<path d="M35984 36271
L35984 36196
L36003 36159
L36021 36140
L36078 36103
L36153 36084
L36303 36084
L36340 36103
L36359 36121
L36378 36159
L36378 36234
L36359 36271
L36340 36290
L36303 36309
L36209 36309
L36171 36290
L36153 36271
L36134 36234
L36134 36159
L36153 36121
L36171 36103
L36209 36084
" />
<g transform="rotate(-90 35600 34800)">
<text x="35600" y="34996.9"
textLength="316.929" font-size="524.934" lengthAdjust="spacingAndGlyphs"
text-anchor="middle" opacity="0">K</text>
</g>
<path d="M35778 34696
L35384 34696
" />
<path d="M35778 34921
L35553 34753
" />
<path d="M35384 34921
L35609 34696
" />
<g transform="rotate(-90 31240.2 36000)">
<text x="31240.2" y="36196.9"
textLength="1029.34" font-size="524.934" lengthAdjust="spacingAndGlyphs"
text-anchor="middle" opacity="0">RV4</text>
</g>
<path d="M31418 35765
L31230 35634
" />
<path d="M31418 35540
L31024 35540
L31024 35690
L31043 35728
L31062 35746
L31099 35765
L31155 35765
L31193 35746
L31212 35728
L31230 35690
L31230 35540
" />
<path d="M31024 35878
L31418 36009
L31024 36140
" />
<path d="M31155 36440
L31418 36440
" />
<path d="M31005 36346
L31287 36253
L31287 36496
" />
<g transform="rotate(-90 31240.2 30000)">
<text x="31240.2" y="30196.9"
textLength="1029.34" font-size="524.934" lengthAdjust="spacingAndGlyphs"
text-anchor="middle" opacity="0">RV3</text>
</g>
<path d="M31418 29765
L31230 29634
" />
<path d="M31418 29540
L31024 29540
L31024 29690
L31043 29728
L31062 29746
L31099 29765
L31155 29765
L31193 29746
L31212 29728
L31230 29690
L31230 29540
" />
<path d="M31024 29878
L31418 30009
L31024 30140
" />
<path d="M31024 30234
L31024 30478
L31174 30346
L31174 30403
L31193 30440
L31212 30459
L31249 30478
L31343 30478
L31380 30459
L31399 30440
L31418 30403
L31418 30290
L31399 30253
L31380 30234
" />
<g transform="rotate(-90 31500 25000)">
<text x="31500" y="25196.9"
textLength="1029.34" font-size="524.934" lengthAdjust="spacingAndGlyphs"
text-anchor="middle" opacity="0">RV2</text>
</g>
<path d="M31678 24765
L31490 24634
" />
<path d="M31678 24540
L31284 24540
L31284 24690
L31303 24728
L31321 24746
L31359 24765
L31415 24765
L31453 24746
L31471 24728
L31490 24690
L31490 24540
" />
<path d="M31284 24878
L31678 25009
L31284 25140
" />
<path d="M31321 25253
L31303 25271
L31284 25309
L31284 25403
L31303 25440
L31321 25459
L31359 25478
L31396 25478
L31453 25459
L31678 25234
L31678 25478
" />
<g transform="rotate(-90 31240.2 18000)">
<text x="31240.2" y="18196.9"
textLength="1029.34" font-size="524.934" lengthAdjust="spacingAndGlyphs"
text-anchor="middle" opacity="0">RV1</text>
</g>
<path d="M31418 17765
L31230 17634
" />
<path d="M31418 17540
L31024 17540
L31024 17690
L31043 17728
L31062 17746
L31099 17765
L31155 17765
L31193 17746
L31212 17728
L31230 17690
L31230 17540
" />
<path d="M31024 17878
L31418 18009
L31024 18140
" />
<path d="M31418 18478
L31418 18253
" />
<path d="M31418 18365
L31024 18365
L31080 18328
L31118 18290
L31137 18253
" />
<g >
</g>
</g>
<g style="fill:#000000; fill-opacity:0.0; 
stroke:#000000; stroke-width:59.0551; stroke-opacity:1; 
stroke-linecap:round; stroke-linejoin:round;">
</g>
<g style="fill:#C2C200; fill-opacity:0.0; 
stroke:#C2C200; stroke-width:59.0551; stroke-opacity:1; 
stroke-linecap:round; stroke-linejoin:round;">
</g>
<g style="fill:#C2C200; fill-opacity:0.0; 
stroke:#C2C200; stroke-width:19.685; stroke-opacity:1; 
stroke-linecap:round; stroke-linejoin:round;">
<path d="M25250 60250
L25500 60250
" />
<path d="M25250 9750
L25250 60250
" />
<path d="M25500 9750
L25250 9750
" />
<path d="M37000 60250
L37000 60000
" />
<path d="M25500 60250
L37000 60250
" />
<path d="M37000 9750
L25500 9750
" />
<path d="M37000 10000
L37000 9750
" />
<path d="M37000 60000
L37000 55000
" />
<path d="M37000 15000
L37000 10000
" />
<circle cx="27500" cy="52500" r="1000" /> 
<circle cx="31000" cy="52500" r="1000" /> 
<circle cx="34500" cy="52500" r="1000" /> 
<circle cx="27500" cy="47500" r="1000" /> 
<circle cx="31000" cy="47500" r="1000" /> 
<circle cx="34500" cy="47500" r="1000" /> 
<circle cx="34500" cy="42000" r="1000" /> 
<circle cx="31000" cy="42000" r="1000" /> 
<circle cx="35000" cy="18000" r="750" /> 
<circle cx="35000" cy="24000" r="750" /> 
<circle cx="35000" cy="30000" r="750" /> 
<circle cx="35000" cy="36000" r="790.569" /> 
<circle cx="27500" cy="36000" r="1767.77" /> 
<circle cx="27500" cy="30000" r="1820.03" /> 
<circle cx="27500" cy="24000" r="1767.77" /> 
<circle cx="27500" cy="18000" r="1750" /> 
<path d="M37000 15000
L37000 55000
" />
<g >
</g>
<g >
</g>
<g >
</g>
<g >
</g>
<g >
</g>
<g >
</g>
<g >
</g>
<g >
</g>
<g >
</g>
<g >
</g>
<g >
</g>
<g >
</g>
<g >
</g>
<g >
</g>
<g >
</g>
<g >
</g>
<g >
</g>
<g >
</g>
<g >
</g>
<g >
</g>
<g >
</g>
<g >
</g>
<g >
</g>
<g >
</g>
<g >
</g>
<g >
</g>
<g >
</g>
<g >
</g>
<g >
</g>
<g >
</g>
<g >
</g>
<g >
</g>
<g >
</g>
<g >
</g>
<g >
</g>
<g >
</g>
<g >
</g>
<g >
</g>
<g >
</g>
<g >
</g>
<g >
</g>
<g >
</g>
<g >
</g>
<g >
</g>
<g >
</g>
<g >
</g>
<g >
</g>
<g >
</g>
<g >
</g>
<g >
</g>
<g >
</g>
<g >
</g>
<g >
</g>
<g >
</g>
<g >
</g>
<g >
</g>
<g >
</g>
<g >
</g>
<g >
</g>
<g >
</g>
<g >
</g>
<g >
</g>
<g >
</g>
<g >
</g>
<g >
</g>
<g >
</g>
<g >
</g>
<g >
</g>
<g >
</g>
<g >
</g>
<g >
</g>
<g >
</g>
<g >
</g>
<g >
</g>
</g> 
</svg>
