<?xml version="1.0" standalone="no"?>
 <!DOCTYPE svg PUBLIC "-//W3C//DTD SVG 1.1//EN" 
 "http://www.w3.org/Graphics/SVG/1.1/DTD/svg11.dtd"> 
<svg
  xmlns:svg="http://www.w3.org/2000/svg"
  xmlns="http://www.w3.org/2000/svg"
  xmlns:xlink="http://www.w3.org/1999/xlink"
  version="1.1"
  width="29.700220cm" height="21.000720cm" viewBox="0 0 116930 82680">
<title>SVG Picture created as LFO2-F_SilkS.svg date 2022/12/28 15:30:35 </title>
  <desc>Picture generated by PCBNEW </desc>
<g style="fill:#000000; fill-opacity:1;stroke:#000000; stroke-opacity:1;
stroke-linecap:round; stroke-linejoin:round;"
 transform="translate(0 0) scale(1 1)">
</g>
<g style="fill:#000000; fill-opacity:0.0; 
stroke:#000000; stroke-width:-0.000393701; stroke-opacity:1; 
stroke-linecap:round; stroke-linejoin:round;">
</g>
<g style="fill:#000000; fill-opacity:0.0; 
stroke:#000000; stroke-width:39.3701; stroke-opacity:1; 
stroke-linecap:round; stroke-linejoin:round;">
</g>
<g style="fill:#000000; fill-opacity:0.0; 
stroke:#000000; stroke-width:59.0551; stroke-opacity:1; 
stroke-linecap:round; stroke-linejoin:round;">
<rect x="69685.9" y="65357.2" width="42519.7" height="12598.4" rx="0" />
</g>
<g style="fill:#000000; fill-opacity:0.0; 
stroke:#000000; stroke-width:39.3701; stroke-opacity:1; 
stroke-linecap:round; stroke-linejoin:round;">
</g>
<g style="fill:#000000; fill-opacity:0.0; 
stroke:#000000; stroke-width:59.0551; stroke-opacity:1; 
stroke-linecap:round; stroke-linejoin:round;">
<rect x="3937.01" y="3937.01" width="109056" height="74806" rx="0" />
</g>
<g style="fill:#000000; fill-opacity:0.0; 
stroke:#000000; stroke-width:39.3701; stroke-opacity:1; 
stroke-linecap:round; stroke-linejoin:round;">
</g>
<g style="fill:#000000; fill-opacity:0.0; 
stroke:#000000; stroke-width:59.0551; stroke-opacity:1; 
stroke-linecap:round; stroke-linejoin:round;">
<rect x="4724.41" y="4724.41" width="107481" height="73231.2" rx="0" />
</g>
<g style="fill:#000000; fill-opacity:0.0; 
stroke:#000000; stroke-width:39.3701; stroke-opacity:1; 
stroke-linecap:round; stroke-linejoin:round;">
</g>
<g style="fill:#000000; fill-opacity:0.0; 
stroke:#000000; stroke-width:59.0551; stroke-opacity:1; 
stroke-linecap:round; stroke-linejoin:round;">
<path d="M23622 4724
L23622 3937
" />
</g>
<g style="fill:#000000; fill-opacity:0.0; 
stroke:#000000; stroke-width:39.3701; stroke-opacity:1; 
stroke-linecap:round; stroke-linejoin:round;">
</g>
<g style="fill:#000000; fill-opacity:0.0; 
stroke:#000000; stroke-width:59.0551; stroke-opacity:1; 
stroke-linecap:round; stroke-linejoin:round;">
<path d="M43307 4724
L43307 3937
" />
</g>
<g style="fill:#000000; fill-opacity:0.0; 
stroke:#000000; stroke-width:39.3701; stroke-opacity:1; 
stroke-linecap:round; stroke-linejoin:round;">
</g>
<g style="fill:#000000; fill-opacity:0.0; 
stroke:#000000; stroke-width:59.0551; stroke-opacity:1; 
stroke-linecap:round; stroke-linejoin:round;">
<path d="M62992 4724
L62992 3937
" />
</g>
<g style="fill:#000000; fill-opacity:0.0; 
stroke:#000000; stroke-width:39.3701; stroke-opacity:1; 
stroke-linecap:round; stroke-linejoin:round;">
</g>
<g style="fill:#000000; fill-opacity:0.0; 
stroke:#000000; stroke-width:59.0551; stroke-opacity:1; 
stroke-linecap:round; stroke-linejoin:round;">
<path d="M82677 4724
L82677 3937
" />
</g>
<g style="fill:#000000; fill-opacity:0.0; 
stroke:#000000; stroke-width:39.3701; stroke-opacity:1; 
stroke-linecap:round; stroke-linejoin:round;">
</g>
<g style="fill:#000000; fill-opacity:0.0; 
stroke:#000000; stroke-width:59.0551; stroke-opacity:1; 
stroke-linecap:round; stroke-linejoin:round;">
<path d="M102362 4724
L102362 3937
" />
</g>
<g style="fill:#000000; fill-opacity:0.0; 
stroke:#000000; stroke-width:39.3701; stroke-opacity:1; 
stroke-linecap:round; stroke-linejoin:round;">
</g>
<g style="fill:#000000; fill-opacity:0.0; 
stroke:#000000; stroke-width:59.0551; stroke-opacity:1; 
stroke-linecap:round; stroke-linejoin:round;">
<text x="13779.5" y="4586.61"
textLength="564.211" font-size="682.415" lengthAdjust="spacingAndGlyphs"
text-anchor="start" opacity="0">1</text>
<path d="M14199 4562
L13906 4562
" />
<path d="M14052 4562
L14052 4050
L14004 4123
L13955 4172
L13906 4196
" />
</g>
<g style="fill:#000000; fill-opacity:0.0; 
stroke:#000000; stroke-width:39.3701; stroke-opacity:1; 
stroke-linecap:round; stroke-linejoin:round;">
</g>
<g style="fill:#000000; fill-opacity:0.0; 
stroke:#000000; stroke-width:59.0551; stroke-opacity:1; 
stroke-linecap:round; stroke-linejoin:round;">
<text x="33464.6" y="4586.61"
textLength="546.494" font-size="682.415" lengthAdjust="spacingAndGlyphs"
text-anchor="start" opacity="0">2</text>
<path d="M33591 4099
L33615 4074
L33664 4050
L33786 4050
L33835 4074
L33859 4099
L33884 4147
L33884 4196
L33859 4269
L33567 4562
L33884 4562
" />
</g>
<g style="fill:#000000; fill-opacity:0.0; 
stroke:#000000; stroke-width:39.3701; stroke-opacity:1; 
stroke-linecap:round; stroke-linejoin:round;">
</g>
<g style="fill:#000000; fill-opacity:0.0; 
stroke:#000000; stroke-width:59.0551; stroke-opacity:1; 
stroke-linecap:round; stroke-linejoin:round;">
<text x="53149.6" y="4586.61"
textLength="546.494" font-size="682.415" lengthAdjust="spacingAndGlyphs"
text-anchor="start" opacity="0">3</text>
<path d="M53252 4050
L53569 4050
L53398 4245
L53471 4245
L53520 4269
L53544 4294
L53569 4342
L53569 4464
L53544 4513
L53520 4537
L53471 4562
L53325 4562
L53276 4537
L53252 4513
" />
</g>
<g style="fill:#000000; fill-opacity:0.0; 
stroke:#000000; stroke-width:39.3701; stroke-opacity:1; 
stroke-linecap:round; stroke-linejoin:round;">
</g>
<g style="fill:#000000; fill-opacity:0.0; 
stroke:#000000; stroke-width:59.0551; stroke-opacity:1; 
stroke-linecap:round; stroke-linejoin:round;">
<text x="72834.6" y="4586.61"
textLength="546.494" font-size="682.415" lengthAdjust="spacingAndGlyphs"
text-anchor="start" opacity="0">4</text>
<path d="M73205 4221
L73205 4562
" />
<path d="M73083 4026
L72961 4391
L73278 4391
" />
</g>
<g style="fill:#000000; fill-opacity:0.0; 
stroke:#000000; stroke-width:39.3701; stroke-opacity:1; 
stroke-linecap:round; stroke-linejoin:round;">
</g>
<g style="fill:#000000; fill-opacity:0.0; 
stroke:#000000; stroke-width:59.0551; stroke-opacity:1; 
stroke-linecap:round; stroke-linejoin:round;">
<text x="92519.7" y="4586.61"
textLength="546.494" font-size="682.415" lengthAdjust="spacingAndGlyphs"
text-anchor="start" opacity="0">5</text>
<path d="M92914 4050
L92671 4050
L92646 4294
L92671 4269
L92719 4245
L92841 4245
L92890 4269
L92914 4294
L92939 4342
L92939 4464
L92914 4513
L92890 4537
L92841 4562
L92719 4562
L92671 4537
L92646 4513
" />
</g>
<g style="fill:#000000; fill-opacity:0.0; 
stroke:#000000; stroke-width:39.3701; stroke-opacity:1; 
stroke-linecap:round; stroke-linejoin:round;">
</g>
<g style="fill:#000000; fill-opacity:0.0; 
stroke:#000000; stroke-width:59.0551; stroke-opacity:1; 
stroke-linecap:round; stroke-linejoin:round;">
<text x="112205" y="4586.61"
textLength="546.494" font-size="682.415" lengthAdjust="spacingAndGlyphs"
text-anchor="start" opacity="0">6</text>
<path d="M112575 4050
L112477 4050
L112429 4074
L112404 4099
L112356 4172
L112331 4269
L112331 4464
L112356 4513
L112380 4537
L112429 4562
L112526 4562
L112575 4537
L112599 4513
L112624 4464
L112624 4342
L112599 4294
L112575 4269
L112526 4245
L112429 4245
L112380 4269
L112356 4294
L112331 4342
" />
</g>
<g style="fill:#000000; fill-opacity:0.0; 
stroke:#000000; stroke-width:39.3701; stroke-opacity:1; 
stroke-linecap:round; stroke-linejoin:round;">
</g>
<g style="fill:#000000; fill-opacity:0.0; 
stroke:#000000; stroke-width:59.0551; stroke-opacity:1; 
stroke-linecap:round; stroke-linejoin:round;">
<path d="M23622 77955
L23622 78742
" />
</g>
<g style="fill:#000000; fill-opacity:0.0; 
stroke:#000000; stroke-width:39.3701; stroke-opacity:1; 
stroke-linecap:round; stroke-linejoin:round;">
</g>
<g style="fill:#000000; fill-opacity:0.0; 
stroke:#000000; stroke-width:59.0551; stroke-opacity:1; 
stroke-linecap:round; stroke-linejoin:round;">
<path d="M43307 77955
L43307 78742
" />
</g>
<g style="fill:#000000; fill-opacity:0.0; 
stroke:#000000; stroke-width:39.3701; stroke-opacity:1; 
stroke-linecap:round; stroke-linejoin:round;">
</g>
<g style="fill:#000000; fill-opacity:0.0; 
stroke:#000000; stroke-width:59.0551; stroke-opacity:1; 
stroke-linecap:round; stroke-linejoin:round;">
<path d="M62992 77955
L62992 78742
" />
</g>
<g style="fill:#000000; fill-opacity:0.0; 
stroke:#000000; stroke-width:39.3701; stroke-opacity:1; 
stroke-linecap:round; stroke-linejoin:round;">
</g>
<g style="fill:#000000; fill-opacity:0.0; 
stroke:#000000; stroke-width:59.0551; stroke-opacity:1; 
stroke-linecap:round; stroke-linejoin:round;">
<path d="M82677 77955
L82677 78742
" />
</g>
<g style="fill:#000000; fill-opacity:0.0; 
stroke:#000000; stroke-width:39.3701; stroke-opacity:1; 
stroke-linecap:round; stroke-linejoin:round;">
</g>
<g style="fill:#000000; fill-opacity:0.0; 
stroke:#000000; stroke-width:59.0551; stroke-opacity:1; 
stroke-linecap:round; stroke-linejoin:round;">
<path d="M102362 77955
L102362 78742
" />
</g>
<g style="fill:#000000; fill-opacity:0.0; 
stroke:#000000; stroke-width:39.3701; stroke-opacity:1; 
stroke-linecap:round; stroke-linejoin:round;">
</g>
<g style="fill:#000000; fill-opacity:0.0; 
stroke:#000000; stroke-width:59.0551; stroke-opacity:1; 
stroke-linecap:round; stroke-linejoin:round;">
<text x="13779.5" y="78605.2"
textLength="546.494" font-size="682.415" lengthAdjust="spacingAndGlyphs"
text-anchor="start" opacity="0">1</text>
<path d="M14199 78580
L13906 78580
" />
<path d="M14052 78580
L14052 78069
L14004 78142
L13955 78190
L13906 78215
" />
</g>
<g style="fill:#000000; fill-opacity:0.0; 
stroke:#000000; stroke-width:39.3701; stroke-opacity:1; 
stroke-linecap:round; stroke-linejoin:round;">
</g>
<g style="fill:#000000; fill-opacity:0.0; 
stroke:#000000; stroke-width:59.0551; stroke-opacity:1; 
stroke-linecap:round; stroke-linejoin:round;">
<text x="33464.6" y="78605.2"
textLength="546.494" font-size="682.415" lengthAdjust="spacingAndGlyphs"
text-anchor="start" opacity="0">2</text>
<path d="M33591 78117
L33615 78093
L33664 78069
L33786 78069
L33835 78093
L33859 78117
L33884 78166
L33884 78215
L33859 78288
L33567 78580
L33884 78580
" />
</g>
<g style="fill:#000000; fill-opacity:0.0; 
stroke:#000000; stroke-width:39.3701; stroke-opacity:1; 
stroke-linecap:round; stroke-linejoin:round;">
</g>
<g style="fill:#000000; fill-opacity:0.0; 
stroke:#000000; stroke-width:59.0551; stroke-opacity:1; 
stroke-linecap:round; stroke-linejoin:round;">
<text x="53149.6" y="78605.2"
textLength="546.494" font-size="682.415" lengthAdjust="spacingAndGlyphs"
text-anchor="start" opacity="0">3</text>
<path d="M53252 78069
L53569 78069
L53398 78263
L53471 78263
L53520 78288
L53544 78312
L53569 78361
L53569 78483
L53544 78532
L53520 78556
L53471 78580
L53325 78580
L53276 78556
L53252 78532
" />
</g>
<g style="fill:#000000; fill-opacity:0.0; 
stroke:#000000; stroke-width:39.3701; stroke-opacity:1; 
stroke-linecap:round; stroke-linejoin:round;">
</g>
<g style="fill:#000000; fill-opacity:0.0; 
stroke:#000000; stroke-width:59.0551; stroke-opacity:1; 
stroke-linecap:round; stroke-linejoin:round;">
<text x="72834.6" y="78605.2"
textLength="546.494" font-size="682.415" lengthAdjust="spacingAndGlyphs"
text-anchor="start" opacity="0">4</text>
<path d="M73205 78239
L73205 78580
" />
<path d="M73083 78044
L72961 78410
L73278 78410
" />
</g>
<g style="fill:#000000; fill-opacity:0.0; 
stroke:#000000; stroke-width:39.3701; stroke-opacity:1; 
stroke-linecap:round; stroke-linejoin:round;">
</g>
<g style="fill:#000000; fill-opacity:0.0; 
stroke:#000000; stroke-width:59.0551; stroke-opacity:1; 
stroke-linecap:round; stroke-linejoin:round;">
<text x="92519.7" y="78605.2"
textLength="546.494" font-size="682.415" lengthAdjust="spacingAndGlyphs"
text-anchor="start" opacity="0">5</text>
<path d="M92914 78069
L92671 78069
L92646 78312
L92671 78288
L92719 78263
L92841 78263
L92890 78288
L92914 78312
L92939 78361
L92939 78483
L92914 78532
L92890 78556
L92841 78580
L92719 78580
L92671 78556
L92646 78532
" />
</g>
<g style="fill:#000000; fill-opacity:0.0; 
stroke:#000000; stroke-width:39.3701; stroke-opacity:1; 
stroke-linecap:round; stroke-linejoin:round;">
</g>
<g style="fill:#000000; fill-opacity:0.0; 
stroke:#000000; stroke-width:59.0551; stroke-opacity:1; 
stroke-linecap:round; stroke-linejoin:round;">
<text x="112205" y="78605.2"
textLength="546.494" font-size="682.415" lengthAdjust="spacingAndGlyphs"
text-anchor="start" opacity="0">6</text>
<path d="M112575 78069
L112477 78069
L112429 78093
L112404 78117
L112356 78190
L112331 78288
L112331 78483
L112356 78532
L112380 78556
L112429 78580
L112526 78580
L112575 78556
L112599 78532
L112624 78483
L112624 78361
L112599 78312
L112575 78288
L112526 78263
L112429 78263
L112380 78288
L112356 78312
L112331 78361
" />
</g>
<g style="fill:#000000; fill-opacity:0.0; 
stroke:#000000; stroke-width:39.3701; stroke-opacity:1; 
stroke-linecap:round; stroke-linejoin:round;">
</g>
<g style="fill:#000000; fill-opacity:0.0; 
stroke:#000000; stroke-width:59.0551; stroke-opacity:1; 
stroke-linecap:round; stroke-linejoin:round;">
<path d="M3937 23622
L4724 23622
" />
</g>
<g style="fill:#000000; fill-opacity:0.0; 
stroke:#000000; stroke-width:39.3701; stroke-opacity:1; 
stroke-linecap:round; stroke-linejoin:round;">
</g>
<g style="fill:#000000; fill-opacity:0.0; 
stroke:#000000; stroke-width:59.0551; stroke-opacity:1; 
stroke-linecap:round; stroke-linejoin:round;">
<path d="M3937 43307
L4724 43307
" />
</g>
<g style="fill:#000000; fill-opacity:0.0; 
stroke:#000000; stroke-width:39.3701; stroke-opacity:1; 
stroke-linecap:round; stroke-linejoin:round;">
</g>
<g style="fill:#000000; fill-opacity:0.0; 
stroke:#000000; stroke-width:59.0551; stroke-opacity:1; 
stroke-linecap:round; stroke-linejoin:round;">
<path d="M3937 62992
L4724 62992
" />
</g>
<g style="fill:#000000; fill-opacity:0.0; 
stroke:#000000; stroke-width:39.3701; stroke-opacity:1; 
stroke-linecap:round; stroke-linejoin:round;">
</g>
<g style="fill:#000000; fill-opacity:0.0; 
stroke:#000000; stroke-width:59.0551; stroke-opacity:1; 
stroke-linecap:round; stroke-linejoin:round;">
<text x="4330.71" y="14035.4"
textLength="497.75" font-size="682.415" lengthAdjust="spacingAndGlyphs"
text-anchor="middle" opacity="0">A</text>
<path d="M4208 13864
L4452 13864
" />
<path d="M4160 14011
L4330 13499
L4501 14011
" />
</g>
<g style="fill:#000000; fill-opacity:0.0; 
stroke:#000000; stroke-width:39.3701; stroke-opacity:1; 
stroke-linecap:round; stroke-linejoin:round;">
</g>
<g style="fill:#000000; fill-opacity:0.0; 
stroke:#000000; stroke-width:59.0551; stroke-opacity:1; 
stroke-linecap:round; stroke-linejoin:round;">
<text x="4330.71" y="33720.5"
textLength="570.866" font-size="682.415" lengthAdjust="spacingAndGlyphs"
text-anchor="middle" opacity="0">B</text>
<path d="M4367 33428
L4440 33452
L4464 33476
L4489 33525
L4489 33598
L4464 33647
L4440 33671
L4391 33696
L4196 33696
L4196 33184
L4367 33184
L4416 33208
L4440 33233
L4464 33281
L4464 33330
L4440 33379
L4416 33403
L4367 33428
L4196 33428
" />
</g>
<g style="fill:#000000; fill-opacity:0.0; 
stroke:#000000; stroke-width:39.3701; stroke-opacity:1; 
stroke-linecap:round; stroke-linejoin:round;">
</g>
<g style="fill:#000000; fill-opacity:0.0; 
stroke:#000000; stroke-width:59.0551; stroke-opacity:1; 
stroke-linecap:round; stroke-linejoin:round;">
<text x="4330.71" y="53405.5"
textLength="570.866" font-size="682.415" lengthAdjust="spacingAndGlyphs"
text-anchor="middle" opacity="0">C</text>
<path d="M4489 53332
L4464 53356
L4391 53381
L4342 53381
L4269 53356
L4221 53308
L4196 53259
L4172 53161
L4172 53088
L4196 52991
L4221 52942
L4269 52893
L4342 52869
L4391 52869
L4464 52893
L4489 52918
" />
</g>
<g style="fill:#000000; fill-opacity:0.0; 
stroke:#000000; stroke-width:39.3701; stroke-opacity:1; 
stroke-linecap:round; stroke-linejoin:round;">
</g>
<g style="fill:#000000; fill-opacity:0.0; 
stroke:#000000; stroke-width:59.0551; stroke-opacity:1; 
stroke-linecap:round; stroke-linejoin:round;">
<text x="4330.71" y="73090.6"
textLength="570.866" font-size="682.415" lengthAdjust="spacingAndGlyphs"
text-anchor="middle" opacity="0">D</text>
<path d="M4196 73066
L4196 72554
L4318 72554
L4391 72578
L4440 72627
L4464 72676
L4489 72773
L4489 72846
L4464 72944
L4440 72993
L4391 73041
L4318 73066
L4196 73066
" />
</g>
<g style="fill:#000000; fill-opacity:0.0; 
stroke:#000000; stroke-width:39.3701; stroke-opacity:1; 
stroke-linecap:round; stroke-linejoin:round;">
</g>
<g style="fill:#000000; fill-opacity:0.0; 
stroke:#000000; stroke-width:59.0551; stroke-opacity:1; 
stroke-linecap:round; stroke-linejoin:round;">
<path d="M112992 23622
L112205 23622
" />
</g>
<g style="fill:#000000; fill-opacity:0.0; 
stroke:#000000; stroke-width:39.3701; stroke-opacity:1; 
stroke-linecap:round; stroke-linejoin:round;">
</g>
<g style="fill:#000000; fill-opacity:0.0; 
stroke:#000000; stroke-width:59.0551; stroke-opacity:1; 
stroke-linecap:round; stroke-linejoin:round;">
<path d="M112992 43307
L112205 43307
" />
</g>
<g style="fill:#000000; fill-opacity:0.0; 
stroke:#000000; stroke-width:39.3701; stroke-opacity:1; 
stroke-linecap:round; stroke-linejoin:round;">
</g>
<g style="fill:#000000; fill-opacity:0.0; 
stroke:#000000; stroke-width:59.0551; stroke-opacity:1; 
stroke-linecap:round; stroke-linejoin:round;">
<path d="M112992 62992
L112205 62992
" />
</g>
<g style="fill:#000000; fill-opacity:0.0; 
stroke:#000000; stroke-width:39.3701; stroke-opacity:1; 
stroke-linecap:round; stroke-linejoin:round;">
</g>
<g style="fill:#000000; fill-opacity:0.0; 
stroke:#000000; stroke-width:59.0551; stroke-opacity:1; 
stroke-linecap:round; stroke-linejoin:round;">
<text x="112599" y="14035.4"
textLength="497.75" font-size="682.415" lengthAdjust="spacingAndGlyphs"
text-anchor="middle" opacity="0">A</text>
<path d="M112477 13864
L112721 13864
" />
<path d="M112428 14011
L112599 13499
L112769 14011
" />
</g>
<g style="fill:#000000; fill-opacity:0.0; 
stroke:#000000; stroke-width:39.3701; stroke-opacity:1; 
stroke-linecap:round; stroke-linejoin:round;">
</g>
<g style="fill:#000000; fill-opacity:0.0; 
stroke:#000000; stroke-width:59.0551; stroke-opacity:1; 
stroke-linecap:round; stroke-linejoin:round;">
<text x="112599" y="33720.5"
textLength="570.866" font-size="682.415" lengthAdjust="spacingAndGlyphs"
text-anchor="middle" opacity="0">B</text>
<path d="M112635 33428
L112708 33452
L112733 33476
L112757 33525
L112757 33598
L112733 33647
L112708 33671
L112660 33696
L112465 33696
L112465 33184
L112635 33184
L112684 33208
L112708 33233
L112733 33281
L112733 33330
L112708 33379
L112684 33403
L112635 33428
L112465 33428
" />
</g>
<g style="fill:#000000; fill-opacity:0.0; 
stroke:#000000; stroke-width:39.3701; stroke-opacity:1; 
stroke-linecap:round; stroke-linejoin:round;">
</g>
<g style="fill:#000000; fill-opacity:0.0; 
stroke:#000000; stroke-width:59.0551; stroke-opacity:1; 
stroke-linecap:round; stroke-linejoin:round;">
<text x="112599" y="53405.5"
textLength="570.866" font-size="682.415" lengthAdjust="spacingAndGlyphs"
text-anchor="middle" opacity="0">C</text>
<path d="M112757 53332
L112733 53356
L112660 53381
L112611 53381
L112538 53356
L112489 53308
L112465 53259
L112440 53161
L112440 53088
L112465 52991
L112489 52942
L112538 52893
L112611 52869
L112660 52869
L112733 52893
L112757 52918
" />
</g>
<g style="fill:#000000; fill-opacity:0.0; 
stroke:#000000; stroke-width:39.3701; stroke-opacity:1; 
stroke-linecap:round; stroke-linejoin:round;">
</g>
<g style="fill:#000000; fill-opacity:0.0; 
stroke:#000000; stroke-width:59.0551; stroke-opacity:1; 
stroke-linecap:round; stroke-linejoin:round;">
<text x="112599" y="73090.6"
textLength="570.866" font-size="682.415" lengthAdjust="spacingAndGlyphs"
text-anchor="middle" opacity="0">D</text>
<path d="M112465 73066
L112465 72554
L112587 72554
L112660 72578
L112708 72627
L112733 72676
L112757 72773
L112757 72846
L112733 72944
L112708 72993
L112660 73041
L112587 73066
L112465 73066
" />
</g>
<g style="fill:#000000; fill-opacity:0.0; 
stroke:#000000; stroke-width:39.3701; stroke-opacity:1; 
stroke-linecap:round; stroke-linejoin:round;">
</g>
<g style="fill:#000000; fill-opacity:0.0; 
stroke:#000000; stroke-width:59.0551; stroke-opacity:1; 
stroke-linecap:round; stroke-linejoin:round;">
<text x="78741" y="76321.7"
textLength="2758.72" font-size="787.402" lengthAdjust="spacingAndGlyphs"
text-anchor="start" opacity="0">Date: </text>
<path d="M78911 76293
L78911 75703
L79051 75703
L79136 75731
L79192 75787
L79220 75843
L79248 75956
L79248 76040
L79220 76153
L79192 76209
L79136 76265
L79051 76293
L78911 76293
" />
<path d="M79754 76293
L79754 75984
L79726 75928
L79670 75899
L79557 75899
L79501 75928
" />
<path d="M79754 76265
L79698 76293
L79557 76293
L79501 76265
L79473 76209
L79473 76153
L79501 76096
L79557 76068
L79698 76068
L79754 76040
" />
<path d="M79951 75899
L80176 75899
" />
<path d="M80036 75703
L80036 76209
L80064 76265
L80120 76293
L80176 76293
" />
<path d="M80598 76265
L80542 76293
L80429 76293
L80373 76265
L80345 76209
L80345 75984
L80373 75928
L80429 75899
L80542 75899
L80598 75928
L80626 75984
L80626 76040
L80345 76096
" />
<path d="M80879 76237
L80907 76265
L80879 76293
L80851 76265
L80879 76237
L80879 76293
" />
<path d="M80879 75928
L80907 75956
L80879 75984
L80851 75956
L80879 75928
L80879 75984
" />
</g>
<g style="fill:#000000; fill-opacity:0.0; 
stroke:#000000; stroke-width:39.3701; stroke-opacity:1; 
stroke-linecap:round; stroke-linejoin:round;">
</g>
<g style="fill:#000000; fill-opacity:0.0; 
stroke:#000000; stroke-width:59.0551; stroke-opacity:1; 
stroke-linecap:round; stroke-linejoin:round;">
<path d="M69685 76577
L112205 76577
" />
</g>
<g style="fill:#000000; fill-opacity:0.0; 
stroke:#000000; stroke-width:39.3701; stroke-opacity:1; 
stroke-linecap:round; stroke-linejoin:round;">
</g>
<g style="fill:#000000; fill-opacity:0.0; 
stroke:#000000; stroke-width:59.0551; stroke-opacity:1; 
stroke-linecap:round; stroke-linejoin:round;">
<text x="70079.6" y="77424.1"
textLength="14429.1" font-size="787.402" lengthAdjust="spacingAndGlyphs"
text-anchor="start" opacity="0">KiCad E.D.A.  pcbnew (5.1.6-0)</text>
<path d="M70249 77395
L70249 76805
" />
<path d="M70587 77395
L70334 77058
" />
<path d="M70587 76805
L70249 77142
" />
<path d="M70840 77395
L70840 77002
" />
<path d="M70840 76805
L70812 76833
L70840 76861
L70868 76833
L70840 76805
L70840 76861
" />
<path d="M71458 77339
L71430 77367
L71346 77395
L71290 77395
L71205 77367
L71149 77311
L71121 77255
L71093 77142
L71093 77058
L71121 76946
L71149 76889
L71205 76833
L71290 76805
L71346 76805
L71430 76833
L71458 76861
" />
<path d="M71965 77395
L71965 77086
L71937 77030
L71880 77002
L71768 77002
L71712 77030
" />
<path d="M71965 77367
L71908 77395
L71768 77395
L71712 77367
L71683 77311
L71683 77255
L71712 77199
L71768 77171
L71908 77171
L71965 77142
" />
<path d="M72499 77395
L72499 76805
" />
<path d="M72499 77367
L72443 77395
L72330 77395
L72274 77367
L72246 77339
L72218 77283
L72218 77114
L72246 77058
L72274 77030
L72330 77002
L72443 77002
L72499 77030
" />
<path d="M73230 77086
L73427 77086
" />
<path d="M73511 77395
L73230 77395
L73230 76805
L73511 76805
" />
<path d="M73764 77339
L73793 77367
L73764 77395
L73736 77367
L73764 77339
L73764 77395
" />
<path d="M74046 77395
L74046 76805
L74186 76805
L74271 76833
L74327 76889
L74355 76946
L74383 77058
L74383 77142
L74355 77255
L74327 77311
L74271 77367
L74186 77395
L74046 77395
" />
<path d="M74636 77339
L74664 77367
L74636 77395
L74608 77367
L74636 77339
L74636 77395
" />
<path d="M74889 77227
L75171 77227
" />
<path d="M74833 77395
L75030 76805
L75227 77395
" />
<path d="M75424 77339
L75452 77367
L75424 77395
L75395 77367
L75424 77339
L75424 77395
" />
<path d="M76605 77002
L76605 77592
" />
<path d="M76605 77030
L76661 77002
L76773 77002
L76830 77030
L76858 77058
L76886 77114
L76886 77283
L76858 77339
L76830 77367
L76773 77395
L76661 77395
L76605 77367
" />
<path d="M77392 77367
L77336 77395
L77223 77395
L77167 77367
L77139 77339
L77111 77283
L77111 77114
L77139 77058
L77167 77030
L77223 77002
L77336 77002
L77392 77030
" />
<path d="M77645 77395
L77645 76805
" />
<path d="M77645 77030
L77701 77002
L77814 77002
L77870 77030
L77898 77058
L77926 77114
L77926 77283
L77898 77339
L77870 77367
L77814 77395
L77701 77395
L77645 77367
" />
<path d="M78180 77002
L78180 77395
" />
<path d="M78180 77058
L78208 77030
L78264 77002
L78348 77002
L78404 77030
L78433 77086
L78433 77395
" />
<path d="M78939 77367
L78883 77395
L78770 77395
L78714 77367
L78686 77311
L78686 77086
L78714 77030
L78770 77002
L78883 77002
L78939 77030
L78967 77086
L78967 77142
L78686 77199
" />
<path d="M79164 77002
L79276 77395
L79389 77114
L79501 77395
L79614 77002
" />
<path d="M80457 77620
L80429 77592
L80373 77508
L80345 77452
L80317 77367
L80289 77227
L80289 77114
L80317 76974
L80345 76889
L80373 76833
L80429 76749
L80457 76721
" />
<path d="M80964 76805
L80682 76805
L80654 77086
L80682 77058
L80739 77030
L80879 77030
L80935 77058
L80964 77086
L80992 77142
L80992 77283
L80964 77339
L80935 77367
L80879 77395
L80739 77395
L80682 77367
L80654 77339
" />
<path d="M81245 77339
L81273 77367
L81245 77395
L81217 77367
L81245 77339
L81245 77395
" />
<path d="M81835 77395
L81498 77395
" />
<path d="M81667 77395
L81667 76805
L81610 76889
L81554 76946
L81498 76974
" />
<path d="M82088 77339
L82117 77367
L82088 77395
L82060 77367
L82088 77339
L82088 77395
" />
<path d="M82623 76805
L82510 76805
L82454 76833
L82426 76861
L82370 76946
L82341 77058
L82341 77283
L82370 77339
L82398 77367
L82454 77395
L82566 77395
L82623 77367
L82651 77339
L82679 77283
L82679 77142
L82651 77086
L82623 77058
L82566 77030
L82454 77030
L82398 77058
L82370 77086
L82341 77142
" />
<path d="M82932 77171
L83382 77171
" />
<path d="M83776 76805
L83832 76805
L83888 76833
L83916 76861
L83944 76917
L83973 77030
L83973 77171
L83944 77283
L83916 77339
L83888 77367
L83832 77395
L83776 77395
L83719 77367
L83691 77339
L83663 77283
L83635 77171
L83635 77030
L83663 76917
L83691 76861
L83719 76833
L83776 76805
" />
<path d="M84169 77620
L84197 77592
L84254 77508
L84282 77452
L84310 77367
L84338 77227
L84338 77114
L84310 76974
L84282 76889
L84254 76833
L84197 76749
L84169 76721
" />
</g>
<g style="fill:#000000; fill-opacity:0.0; 
stroke:#000000; stroke-width:39.3701; stroke-opacity:1; 
stroke-linecap:round; stroke-linejoin:round;">
</g>
<g style="fill:#000000; fill-opacity:0.0; 
stroke:#000000; stroke-width:59.0551; stroke-opacity:1; 
stroke-linecap:round; stroke-linejoin:round;">
<path d="M69685 75396
L112205 75396
" />
</g>
<g style="fill:#000000; fill-opacity:0.0; 
stroke:#000000; stroke-width:39.3701; stroke-opacity:1; 
stroke-linecap:round; stroke-linejoin:round;">
</g>
<g style="fill:#000000; fill-opacity:0.0; 
stroke:#000000; stroke-width:118.11; stroke-opacity:1; 
stroke-linecap:round; stroke-linejoin:round;">
<text x="103544" y="76321.7"
textLength="2336.9" font-size="787.402" lengthAdjust="spacingAndGlyphs"
text-anchor="start" opacity="0">Rev: </text>
<path d="M104099 76293
L103902 76012
" />
<path d="M103761 76293
L103761 75703
L103986 75703
L104042 75731
L104070 75759
L104099 75815
L104099 75899
L104070 75956
L104042 75984
L103986 76012
L103761 76012
" />
<path d="M104577 76265
L104520 76293
L104408 76293
L104352 76265
L104323 76209
L104323 75984
L104352 75928
L104408 75899
L104520 75899
L104577 75928
L104605 75984
L104605 76040
L104323 76096
" />
<path d="M104802 75899
L104942 76293
L105083 75899
" />
<path d="M105308 76237
L105336 76265
L105308 76293
L105280 76265
L105308 76237
L105308 76293
" />
<path d="M105308 75928
L105336 75956
L105308 75984
L105280 75956
L105308 75928
L105308 75984
" />
</g>
<g style="fill:#000000; fill-opacity:0.0; 
stroke:#000000; stroke-width:39.3701; stroke-opacity:1; 
stroke-linecap:round; stroke-linejoin:round;">
</g>
<g style="fill:#000000; fill-opacity:0.0; 
stroke:#000000; stroke-width:59.0551; stroke-opacity:1; 
stroke-linecap:round; stroke-linejoin:round;">
<text x="70079.6" y="76321.7"
textLength="3781.21" font-size="787.402" lengthAdjust="spacingAndGlyphs"
text-anchor="start" opacity="0">Size: A4</text>
<path d="M70221 76265
L70305 76293
L70446 76293
L70502 76265
L70530 76237
L70559 76181
L70559 76124
L70530 76068
L70502 76040
L70446 76012
L70334 75984
L70277 75956
L70249 75928
L70221 75871
L70221 75815
L70249 75759
L70277 75731
L70334 75703
L70474 75703
L70559 75731
" />
<path d="M70812 76293
L70812 75899
" />
<path d="M70812 75703
L70784 75731
L70812 75759
L70840 75731
L70812 75703
L70812 75759
" />
<path d="M71037 75899
L71346 75899
L71037 76293
L71346 76293
" />
<path d="M71796 76265
L71740 76293
L71627 76293
L71571 76265
L71543 76209
L71543 75984
L71571 75928
L71627 75899
L71740 75899
L71796 75928
L71824 75984
L71824 76040
L71543 76096
" />
<path d="M72077 76237
L72105 76265
L72077 76293
L72049 76265
L72077 76237
L72077 76293
" />
<path d="M72077 75928
L72105 75956
L72077 75984
L72049 75956
L72077 75928
L72077 75984
" />
<path d="M72780 76124
L73061 76124
" />
<path d="M72724 76293
L72921 75703
L73118 76293
" />
<path d="M73568 75899
L73568 76293
" />
<path d="M73427 75674
L73286 76096
L73652 76096
" />
</g>
<g style="fill:#000000; fill-opacity:0.0; 
stroke:#000000; stroke-width:39.3701; stroke-opacity:1; 
stroke-linecap:round; stroke-linejoin:round;">
</g>
<g style="fill:#000000; fill-opacity:0.0; 
stroke:#000000; stroke-width:59.0551; stroke-opacity:1; 
stroke-linecap:round; stroke-linejoin:round;">
<text x="103544" y="77424.1"
textLength="3349.27" font-size="787.402" lengthAdjust="spacingAndGlyphs"
text-anchor="start" opacity="0">Id: 1/1</text>
<path d="M103714 77395
L103714 76805
" />
<path d="M104248 77395
L104248 76805
" />
<path d="M104248 77367
L104192 77395
L104079 77395
L104023 77367
L103995 77339
L103967 77283
L103967 77114
L103995 77058
L104023 77030
L104079 77002
L104192 77002
L104248 77030
" />
<path d="M104529 77339
L104557 77367
L104529 77395
L104501 77367
L104529 77339
L104529 77395
" />
<path d="M104529 77030
L104557 77058
L104529 77086
L104501 77058
L104529 77030
L104529 77086
" />
<path d="M105570 77395
L105232 77395
" />
<path d="M105401 77395
L105401 76805
L105345 76889
L105289 76946
L105232 76974
" />
<path d="M106245 76777
L105739 77536
" />
<path d="M106751 77395
L106413 77395
" />
<path d="M106582 77395
L106582 76805
L106526 76889
L106470 76946
L106413 76974
" />
</g>
<g style="fill:#000000; fill-opacity:0.0; 
stroke:#000000; stroke-width:39.3701; stroke-opacity:1; 
stroke-linecap:round; stroke-linejoin:round;">
</g>
<g style="fill:#000000; fill-opacity:0.0; 
stroke:#000000; stroke-width:59.0551; stroke-opacity:1; 
stroke-linecap:round; stroke-linejoin:round;">
<path d="M69685 73821
L112205 73821
" />
</g>
<g style="fill:#000000; fill-opacity:0.0; 
stroke:#000000; stroke-width:39.3701; stroke-opacity:1; 
stroke-linecap:round; stroke-linejoin:round;">
</g>
<g style="fill:#000000; fill-opacity:0.0; 
stroke:#000000; stroke-width:157.48; stroke-opacity:1; 
stroke-linecap:round; stroke-linejoin:round;">
<text x="70079.6" y="74924.1"
textLength="3701.14" font-size="1049.87" lengthAdjust="spacingAndGlyphs"
text-anchor="start" opacity="0">Title: </text>
<path d="M70360 74099
L70810 74099
" />
<path d="M70486 74886
L70585 74099
" />
<path d="M70974 74886
L71039 74361
" />
<path d="M71072 74099
L71030 74136
L71063 74174
L71105 74136
L71072 74099
L71063 74174
" />
<path d="M71302 74361
L71602 74361
" />
<path d="M71447 74099
L71363 74774
L71391 74849
L71461 74886
L71536 74886
" />
<path d="M71911 74886
L71841 74849
L71813 74774
L71897 74099
" />
<path d="M72516 74849
L72436 74886
L72286 74886
L72216 74849
L72187 74774
L72225 74474
L72272 74399
L72352 74361
L72501 74361
L72572 74399
L72600 74474
L72591 74549
L72206 74624
" />
<path d="M72895 74811
L72928 74849
L72886 74886
L72853 74849
L72895 74811
L72886 74886
" />
<path d="M72947 74399
L72980 74436
L72937 74474
L72905 74436
L72947 74399
L72937 74474
" />
</g>
<g style="fill:#000000; fill-opacity:0.0; 
stroke:#000000; stroke-width:39.3701; stroke-opacity:1; 
stroke-linecap:round; stroke-linejoin:round;">
</g>
<g style="fill:#000000; fill-opacity:0.0; 
stroke:#000000; stroke-width:59.0551; stroke-opacity:1; 
stroke-linecap:round; stroke-linejoin:round;">
<text x="70079.6" y="73408.3"
textLength="9344.21" font-size="787.402" lengthAdjust="spacingAndGlyphs"
text-anchor="start" opacity="0">File: LFO2.kicad_pcb</text>
<path d="M70446 73070
L70249 73070
" />
<path d="M70249 73380
L70249 72789
L70530 72789
" />
<path d="M70755 73380
L70755 72986
" />
<path d="M70755 72789
L70727 72817
L70755 72845
L70784 72817
L70755 72789
L70755 72845
" />
<path d="M71121 73380
L71065 73352
L71037 73295
L71037 72789
" />
<path d="M71571 73352
L71515 73380
L71402 73380
L71346 73352
L71318 73295
L71318 73070
L71346 73014
L71402 72986
L71515 72986
L71571 73014
L71599 73070
L71599 73127
L71318 73183
" />
<path d="M71852 73323
L71880 73352
L71852 73380
L71824 73352
L71852 73323
L71852 73380
" />
<path d="M71852 73014
L71880 73042
L71852 73070
L71824 73042
L71852 73014
L71852 73070
" />
<path d="M72865 73380
L72583 73380
L72583 72789
" />
<path d="M73258 73070
L73061 73070
" />
<path d="M73061 73380
L73061 72789
L73343 72789
" />
<path d="M73680 72789
L73793 72789
L73849 72817
L73905 72874
L73933 72986
L73933 73183
L73905 73295
L73849 73352
L73793 73380
L73680 73380
L73624 73352
L73568 73295
L73539 73183
L73539 72986
L73568 72874
L73624 72817
L73680 72789
" />
<path d="M74158 72845
L74186 72817
L74242 72789
L74383 72789
L74439 72817
L74467 72845
L74496 72902
L74496 72958
L74467 73042
L74130 73380
L74496 73380
" />
<path d="M74749 73323
L74777 73352
L74749 73380
L74721 73352
L74749 73323
L74749 73380
" />
<path d="M75030 73380
L75030 72789
" />
<path d="M75086 73155
L75255 73380
" />
<path d="M75255 72986
L75030 73211
" />
<path d="M75508 73380
L75508 72986
" />
<path d="M75508 72789
L75480 72817
L75508 72845
L75536 72817
L75508 72789
L75508 72845
" />
<path d="M76042 73352
L75986 73380
L75874 73380
L75817 73352
L75789 73323
L75761 73267
L75761 73099
L75789 73042
L75817 73014
L75874 72986
L75986 72986
L76042 73014
" />
<path d="M76548 73380
L76548 73070
L76520 73014
L76464 72986
L76352 72986
L76295 73014
" />
<path d="M76548 73352
L76492 73380
L76352 73380
L76295 73352
L76267 73295
L76267 73239
L76295 73183
L76352 73155
L76492 73155
L76548 73127
" />
<path d="M77083 73380
L77083 72789
" />
<path d="M77083 73352
L77027 73380
L76914 73380
L76858 73352
L76830 73323
L76802 73267
L76802 73099
L76830 73042
L76858 73014
L76914 72986
L77027 72986
L77083 73014
" />
<path d="M77223 73436
L77673 73436
" />
<path d="M77814 72986
L77814 73577
" />
<path d="M77814 73014
L77870 72986
L77983 72986
L78039 73014
L78067 73042
L78095 73099
L78095 73267
L78067 73323
L78039 73352
L77983 73380
L77870 73380
L77814 73352
" />
<path d="M78601 73352
L78545 73380
L78433 73380
L78376 73352
L78348 73323
L78320 73267
L78320 73099
L78348 73042
L78376 73014
L78433 72986
L78545 72986
L78601 73014
" />
<path d="M78854 73380
L78854 72789
" />
<path d="M78854 73014
L78911 72986
L79023 72986
L79079 73014
L79108 73042
L79136 73099
L79136 73267
L79108 73323
L79079 73352
L79023 73380
L78911 73380
L78854 73352
" />
</g>
<g style="fill:#000000; fill-opacity:0.0; 
stroke:#000000; stroke-width:39.3701; stroke-opacity:1; 
stroke-linecap:round; stroke-linejoin:round;">
</g>
<g style="fill:#000000; fill-opacity:0.0; 
stroke:#000000; stroke-width:59.0551; stroke-opacity:1; 
stroke-linecap:round; stroke-linejoin:round;">
<path d="M69685 71459
L112205 71459
" />
</g>
<g style="fill:#000000; fill-opacity:0.0; 
stroke:#000000; stroke-width:39.3701; stroke-opacity:1; 
stroke-linecap:round; stroke-linejoin:round;">
</g>
<g style="fill:#000000; fill-opacity:0.0; 
stroke:#000000; stroke-width:59.0551; stroke-opacity:1; 
stroke-linecap:round; stroke-linejoin:round;">
<text x="70079.6" y="72345.4"
textLength="3236.78" font-size="787.402" lengthAdjust="spacingAndGlyphs"
text-anchor="start" opacity="0">Sheet: </text>
<path d="M70221 72289
L70305 72317
L70446 72317
L70502 72289
L70530 72260
L70559 72204
L70559 72148
L70530 72092
L70502 72064
L70446 72036
L70334 72007
L70277 71979
L70249 71951
L70221 71895
L70221 71839
L70249 71782
L70277 71754
L70334 71726
L70474 71726
L70559 71754
" />
<path d="M70812 72317
L70812 71726
" />
<path d="M71065 72317
L71065 72007
L71037 71951
L70980 71923
L70896 71923
L70840 71951
L70812 71979
" />
<path d="M71571 72289
L71515 72317
L71402 72317
L71346 72289
L71318 72232
L71318 72007
L71346 71951
L71402 71923
L71515 71923
L71571 71951
L71599 72007
L71599 72064
L71318 72120
" />
<path d="M72077 72289
L72021 72317
L71908 72317
L71852 72289
L71824 72232
L71824 72007
L71852 71951
L71908 71923
L72021 71923
L72077 71951
L72105 72007
L72105 72064
L71824 72120
" />
<path d="M72274 71923
L72499 71923
" />
<path d="M72358 71726
L72358 72232
L72386 72289
L72443 72317
L72499 72317
" />
<path d="M72696 72260
L72724 72289
L72696 72317
L72668 72289
L72696 72260
L72696 72317
" />
<path d="M72696 71951
L72724 71979
L72696 72007
L72668 71979
L72696 71951
L72696 72007
" />
</g>
<g style="fill:#000000; fill-opacity:0.0; 
stroke:#000000; stroke-width:39.3701; stroke-opacity:1; 
stroke-linecap:round; stroke-linejoin:round;">
</g>
<g style="fill:#000000; fill-opacity:0.0; 
stroke:#000000; stroke-width:59.0551; stroke-opacity:1; 
stroke-linecap:round; stroke-linejoin:round;">
<path d="M77559 75396
L77559 76577
" />
</g>
<g style="fill:#000000; fill-opacity:0.0; 
stroke:#000000; stroke-width:39.3701; stroke-opacity:1; 
stroke-linecap:round; stroke-linejoin:round;">
</g>
<g style="fill:#000000; fill-opacity:0.0; 
stroke:#000000; stroke-width:59.0551; stroke-opacity:1; 
stroke-linecap:round; stroke-linejoin:round;">
<path d="M102756 75396
L102756 77955
" />
</g>
<g style="fill:#008484; fill-opacity:0.0; 
stroke:#008484; stroke-width:59.0551; stroke-opacity:1; 
stroke-linecap:round; stroke-linejoin:round;">
</g>
<g style="fill:#008484; fill-opacity:0.0; 
stroke:#008484; stroke-width:47.2441; stroke-opacity:1; 
stroke-linecap:round; stroke-linejoin:round;">
<path d="M26198 40051
L26809 40051
" />
<path d="M28301 40051
L27690 40051
" />
<path d="M26498 37948
L26809 37948
" />
<path d="M28001 37948
L27690 37948
" />
<path d="M28301 40051
L28301 38248
" />
<path d="M28301 38248
L28001 37948
" />
<path d="M26498 37948
L26198 38248
" />
<path d="M26198 38248
L26198 40051
" />
<path d="M31801 37948
L31190 37948
" />
<path d="M29698 37948
L30309 37948
" />
<path d="M31501 40051
L31190 40051
" />
<path d="M29998 40051
L30309 40051
" />
<path d="M29698 37948
L29698 39751
" />
<path d="M29698 39751
L29998 40051
" />
<path d="M31501 40051
L31801 39751
" />
<path d="M31801 39751
L31801 37948
" />
</g>
<g style="fill:#008484; fill-opacity:0.0; 
stroke:#008484; stroke-width:59.0551; stroke-opacity:1; 
stroke-linecap:round; stroke-linejoin:round;">
<path d="M29816 36501
L29816 36492
" />
<path d="M28183 36501
L28183 36456
" />
<path d="M28183 32998
L28183 33043
" />
<path d="M29816 32998
L29816 33043
" />
<path d="M29816 36501
L28183 36501
" />
<path d="M29816 32998
L28183 32998
" />
<path d="M29816 36492
L30358 36492
" />
</g>
<g style="fill:#008484; fill-opacity:0.0; 
stroke:#008484; stroke-width:47.2441; stroke-opacity:1; 
stroke-linecap:round; stroke-linejoin:round;">
<path d="M28346 52013
L28346 52486
" />
<path d="M27653 52486
L27653 52013
" />
<path d="M30096 52013
L30096 52486
" />
<path d="M29403 52486
L29403 52013
" />
<path d="M26763 46153
L27236 46153
" />
<path d="M27236 46846
L26763 46846
" />
<path d="M26346 52013
L26346 52486
" />
<path d="M25653 52486
L25653 52013
" />
<path d="M30986 46846
L30513 46846
" />
<path d="M30513 46153
L30986 46153
" />
<path d="M32096 52045
L32096 52517
" />
<path d="M31403 52517
L31403 52045
" />
<path d="M26596 26763
L26596 27236
" />
<path d="M25903 27236
L25903 26763
" />
<path d="M25903 16486
L25903 16013
" />
<path d="M26596 16013
L26596 16486
" />
<path d="M26153 36017
L26153 35545
" />
<path d="M26846 35545
L26846 36017
" />
<path d="M31596 33263
L31596 33736
" />
<path d="M30903 33736
L30903 33263
" />
<path d="M29653 27267
L29653 26795
" />
<path d="M30346 26795
L30346 27267
" />
<path d="M29653 16486
L29653 16013
" />
<path d="M30346 16013
L30346 16486
" />
<path d="M25846 35513
L25846 35986
" />
<path d="M25153 35986
L25153 35513
" />
<path d="M32596 33263
L32596 33736
" />
<path d="M31903 33736
L31903 33263
" />
<path d="M28763 30903
L29236 30903
" />
<path d="M29236 31596
L28763 31596
" />
<path d="M31517 31596
L31045 31596
" />
<path d="M31045 30903
L31517 30903
" />
<path d="M25903 25236
L25903 24763
" />
<path d="M26596 24763
L26596 25236
" />
<path d="M27736 20346
L27263 20346
" />
<path d="M27263 19653
L27736 19653
" />
<path d="M31403 24486
L31403 24013
" />
<path d="M32096 24013
L32096 24486
" />
<path d="M30263 19653
L30736 19653
" />
<path d="M30736 20346
L30263 20346
" />
<path d="M30013 23403
L30486 23403
" />
<path d="M30486 24096
L30013 24096
" />
<path d="M27482 23403
L27954 23403
" />
<path d="M27954 24096
L27482 24096
" />
<path d="M30232 20903
L30704 20903
" />
<path d="M30704 21596
L30232 21596
" />
<path d="M27263 20903
L27736 20903
" />
<path d="M27736 21596
L27263 21596
" />
<path d="M28622 26700
L28255 26700
" />
<path d="M27377 26700
L27744 26700
" />
<path d="M27377 26700
L27377 27944
" />
<path d="M28622 26700
L28622 27275
" />
<path d="M31127 27299
L31494 27299
" />
<path d="M32372 27299
L32005 27299
" />
<path d="M32372 27299
L32372 26055
" />
<path d="M31127 27299
L31127 26724
" />
<path d="M28622 15950
L28255 15950
" />
<path d="M27377 15950
L27744 15950
" />
<path d="M27377 15950
L27377 17194
" />
<path d="M28622 15950
L28622 16525
" />
<path d="M30877 16549
L31244 16549
" />
<path d="M32122 16549
L31755 16549
" />
<path d="M32122 16549
L32122 15305
" />
<path d="M30877 16549
L30877 15974
" />
<path d="M26476 41476
L26476 43523
" />
<path d="M30500 41476
L26476 41476
" />
<path d="M31523 43523
L26476 43523
" />
<path d="M30500 41476
L30500 42500
" />
<path d="M30500 42500
L31523 42500
" />
<path d="M31523 42500
L31523 43523
" />
<path d="M31000 41476
L31523 41476
" />
<path d="M31523 41476
L31523 42000
" />
<path d="M26834 33696
L26834 33303
" />
<path d="M26165 33303
L26165 33696
" />
<path d="M30915 35553
L30915 35946
" />
<path d="M31584 35946
L31584 35553
" />
</g>
<g style="fill:#008484; fill-opacity:0.0; 
stroke:#008484; stroke-width:59.0551; stroke-opacity:1; 
stroke-linecap:round; stroke-linejoin:round;">
<g transform="rotate(-90 25706.7 39000)">
<text x="25706.7" y="39196.9"
textLength="827.709" font-size="524.934" lengthAdjust="spacingAndGlyphs"
text-anchor="middle" opacity="0">C4</text>
</g>
<path d="M25847 39065
L25866 39084
L25884 39140
L25884 39178
L25866 39234
L25828 39271
L25791 39290
L25716 39309
L25659 39309
L25584 39290
L25547 39271
L25509 39234
L25491 39178
L25491 39140
L25509 39084
L25528 39065
" />
<path d="M25622 38728
L25884 38728
" />
<path d="M25472 38821
L25753 38915
L25753 38671
" />
<g transform="rotate(-90 26324.8 37669.3)">
<text x="26324.8" y="37866.1"
textLength="564.211" font-size="524.934" lengthAdjust="spacingAndGlyphs"
text-anchor="middle" opacity="0">+</text>
</g>
<path d="M26352 37819
L26352 37519
" />
<path d="M26502 37669
L26202 37669
" />
<g transform="rotate(-90 32293.3 39000)">
<text x="32293.3" y="39196.9"
textLength="845.426" font-size="524.934" lengthAdjust="spacingAndGlyphs"
text-anchor="middle" opacity="0">C3</text>
</g>
<path d="M32433 39065
L32452 39084
L32471 39140
L32471 39178
L32452 39234
L32415 39271
L32377 39290
L32302 39309
L32246 39309
L32171 39290
L32133 39271
L32096 39234
L32077 39178
L32077 39140
L32096 39084
L32115 39065
" />
<path d="M32077 38934
L32077 38690
L32227 38821
L32227 38765
L32246 38728
L32265 38709
L32302 38690
L32396 38690
L32433 38709
L32452 38728
L32471 38765
L32471 38878
L32452 38915
L32433 38934
" />
<g transform="rotate(-90 31675.2 40330.7)">
<text x="31675.2" y="40527.6"
textLength="564.211" font-size="524.934" lengthAdjust="spacingAndGlyphs"
text-anchor="middle" opacity="0">+</text>
</g>
<path d="M31703 40480
L31703 40180
" />
<path d="M31853 40330
L31553 40330
" />
<text x="29000" y="37063"
textLength="864.173" font-size="524.934" lengthAdjust="spacingAndGlyphs"
text-anchor="middle" opacity="0">U1</text>
<path d="M28700 36650
L28700 36969
L28718 37006
L28737 37025
L28775 37044
L28850 37044
L28887 37025
L28906 37006
L28925 36969
L28925 36650
" />
<path d="M29318 37044
L29093 37044
" />
<path d="M29206 37044
L29206 36650
L29168 36706
L29131 36744
L29093 36763
" />
<g transform="rotate(-90 27330.7 52250)">
<text x="27330.7" y="52446.9"
textLength="1220.38" font-size="524.934" lengthAdjust="spacingAndGlyphs"
text-anchor="middle" opacity="0">R24</text>
</g>
<path d="M27508 52503
L27321 52634
" />
<path d="M27508 52728
L27115 52728
L27115 52578
L27133 52540
L27152 52521
L27190 52503
L27246 52503
L27283 52521
L27302 52540
L27321 52578
L27321 52728
" />
<path d="M27152 52353
L27133 52334
L27115 52296
L27115 52203
L27133 52165
L27152 52146
L27190 52128
L27227 52128
L27283 52146
L27508 52371
L27508 52128
" />
<path d="M27246 51790
L27508 51790
" />
<path d="M27096 51884
L27377 51978
L27377 51734
" />
<g transform="rotate(-90 29080.7 52250)">
<text x="29080.7" y="52446.9"
textLength="1220.38" font-size="524.934" lengthAdjust="spacingAndGlyphs"
text-anchor="middle" opacity="0">R23</text>
</g>
<path d="M29258 52503
L29071 52634
" />
<path d="M29258 52728
L28865 52728
L28865 52578
L28883 52540
L28902 52521
L28940 52503
L28996 52503
L29033 52521
L29052 52540
L29071 52578
L29071 52728
" />
<path d="M28902 52353
L28883 52334
L28865 52296
L28865 52203
L28883 52165
L28902 52146
L28940 52128
L28977 52128
L29033 52146
L29258 52371
L29258 52128
" />
<path d="M28865 51996
L28865 51753
L29015 51884
L29015 51828
L29033 51790
L29052 51771
L29090 51753
L29183 51753
L29221 51771
L29240 51790
L29258 51828
L29258 51940
L29240 51978
L29221 51996
" />
<text x="27000" y="47366.1"
textLength="1220.38" font-size="524.934" lengthAdjust="spacingAndGlyphs"
text-anchor="middle" opacity="0">R22</text>
<path d="M26746 47347
L26615 47159
" />
<path d="M26521 47347
L26521 46953
L26671 46953
L26709 46972
L26728 46991
L26746 47028
L26746 47084
L26728 47122
L26709 47141
L26671 47159
L26521 47159
" />
<path d="M26896 46991
L26915 46972
L26953 46953
L27046 46953
L27084 46972
L27103 46991
L27121 47028
L27121 47066
L27103 47122
L26878 47347
L27121 47347
" />
<path d="M27271 46991
L27290 46972
L27328 46953
L27421 46953
L27459 46972
L27478 46991
L27496 47028
L27496 47066
L27478 47122
L27253 47347
L27496 47347
" />
<g transform="rotate(-90 25330.7 52250)">
<text x="25330.7" y="52446.9"
textLength="1220.38" font-size="524.934" lengthAdjust="spacingAndGlyphs"
text-anchor="middle" opacity="0">R21</text>
</g>
<path d="M25508 52503
L25321 52634
" />
<path d="M25508 52728
L25115 52728
L25115 52578
L25133 52540
L25152 52521
L25190 52503
L25246 52503
L25283 52521
L25302 52540
L25321 52578
L25321 52728
" />
<path d="M25152 52353
L25133 52334
L25115 52296
L25115 52203
L25133 52165
L25152 52146
L25190 52128
L25227 52128
L25283 52146
L25508 52371
L25508 52128
" />
<path d="M25508 51753
L25508 51978
" />
<path d="M25508 51865
L25115 51865
L25171 51903
L25208 51940
L25227 51978
" />
<text x="30750" y="46027.6"
textLength="1220.38" font-size="524.934" lengthAdjust="spacingAndGlyphs"
text-anchor="middle" opacity="0">R20</text>
<path d="M30496 46008
L30365 45821
" />
<path d="M30271 46008
L30271 45615
L30421 45615
L30459 45633
L30478 45652
L30496 45690
L30496 45746
L30478 45783
L30459 45802
L30421 45821
L30271 45821
" />
<path d="M30646 45652
L30665 45633
L30703 45615
L30796 45615
L30834 45633
L30853 45652
L30871 45690
L30871 45727
L30853 45783
L30628 46008
L30871 46008
" />
<path d="M31115 45615
L31153 45615
L31190 45633
L31209 45652
L31228 45690
L31246 45765
L31246 45858
L31228 45933
L31209 45971
L31190 45990
L31153 46008
L31115 46008
L31078 45990
L31059 45971
L31040 45933
L31021 45858
L31021 45765
L31040 45690
L31059 45652
L31078 45633
L31115 45615
" />
<g transform="rotate(-90 31080.7 52281.5)">
<text x="31080.7" y="52478.3"
textLength="1220.38" font-size="524.934" lengthAdjust="spacingAndGlyphs"
text-anchor="middle" opacity="0">R19</text>
</g>
<path d="M31258 52534
L31071 52665
" />
<path d="M31258 52759
L30865 52759
L30865 52609
L30883 52572
L30902 52553
L30940 52534
L30996 52534
L31033 52553
L31052 52572
L31071 52609
L31071 52759
" />
<path d="M31258 52159
L31258 52384
" />
<path d="M31258 52272
L30865 52272
L30921 52309
L30958 52347
L30977 52384
" />
<path d="M31258 51972
L31258 51897
L31240 51859
L31221 51840
L31165 51803
L31090 51784
L30940 51784
L30902 51803
L30883 51822
L30865 51859
L30865 51934
L30883 51972
L30902 51990
L30940 52009
L31033 52009
L31071 51990
L31090 51972
L31108 51934
L31108 51859
L31090 51822
L31071 51803
L31033 51784
" />
<g transform="rotate(-90 25580.7 27000)">
<text x="25580.7" y="27196.9"
textLength="1220.38" font-size="524.934" lengthAdjust="spacingAndGlyphs"
text-anchor="middle" opacity="0">R18</text>
</g>
<path d="M25758 27253
L25571 27384
" />
<path d="M25758 27478
L25365 27478
L25365 27328
L25383 27290
L25402 27271
L25440 27253
L25496 27253
L25533 27271
L25552 27290
L25571 27328
L25571 27478
" />
<path d="M25758 26878
L25758 27103
" />
<path d="M25758 26990
L25365 26990
L25421 27028
L25458 27065
L25477 27103
" />
<path d="M25533 26653
L25515 26690
L25496 26709
L25458 26728
L25440 26728
L25402 26709
L25383 26690
L25365 26653
L25365 26578
L25383 26540
L25402 26521
L25440 26503
L25458 26503
L25496 26521
L25515 26540
L25533 26578
L25533 26653
L25552 26690
L25571 26709
L25608 26728
L25683 26728
L25721 26709
L25740 26690
L25758 26653
L25758 26578
L25740 26540
L25721 26521
L25683 26503
L25608 26503
L25571 26521
L25552 26540
L25533 26578
" />
<g transform="rotate(-90 26919.3 16250)">
<text x="26919.3" y="16446.9"
textLength="1220.38" font-size="524.934" lengthAdjust="spacingAndGlyphs"
text-anchor="middle" opacity="0">R17</text>
</g>
<path d="M27097 16503
L26909 16634
" />
<path d="M27097 16728
L26703 16728
L26703 16578
L26722 16540
L26741 16521
L26778 16503
L26834 16503
L26872 16521
L26891 16540
L26909 16578
L26909 16728
" />
<path d="M27097 16128
L27097 16353
" />
<path d="M27097 16240
L26703 16240
L26759 16278
L26797 16315
L26816 16353
" />
<path d="M26703 15996
L26703 15734
L27097 15903
" />
<g transform="rotate(-90 27169.3 35781.5)">
<text x="27169.3" y="35978.3"
textLength="1220.38" font-size="524.934" lengthAdjust="spacingAndGlyphs"
text-anchor="middle" opacity="0">R16</text>
</g>
<path d="M27347 36034
L27159 36165
" />
<path d="M27347 36259
L26953 36259
L26953 36109
L26972 36072
L26991 36053
L27028 36034
L27084 36034
L27122 36053
L27141 36072
L27159 36109
L27159 36259
" />
<path d="M27347 35659
L27347 35884
" />
<path d="M27347 35772
L26953 35772
L27009 35809
L27047 35847
L27066 35884
" />
<path d="M26953 35322
L26953 35397
L26972 35434
L26991 35453
L27047 35490
L27122 35509
L27272 35509
L27309 35490
L27328 35472
L27347 35434
L27347 35359
L27328 35322
L27309 35303
L27272 35284
L27178 35284
L27141 35303
L27122 35322
L27103 35359
L27103 35434
L27122 35472
L27141 35490
L27178 35509
" />
<g transform="rotate(-90 30580.7 33500)">
<text x="30580.7" y="33696.9"
textLength="1220.38" font-size="524.934" lengthAdjust="spacingAndGlyphs"
text-anchor="middle" opacity="0">R15</text>
</g>
<path d="M30758 33753
L30571 33884
" />
<path d="M30758 33978
L30365 33978
L30365 33828
L30383 33790
L30402 33771
L30440 33753
L30496 33753
L30533 33771
L30552 33790
L30571 33828
L30571 33978
" />
<path d="M30758 33378
L30758 33603
" />
<path d="M30758 33490
L30365 33490
L30421 33528
L30458 33565
L30477 33603
" />
<path d="M30365 33021
L30365 33209
L30552 33228
L30533 33209
L30515 33171
L30515 33078
L30533 33040
L30552 33021
L30590 33003
L30683 33003
L30721 33021
L30740 33040
L30758 33078
L30758 33171
L30740 33209
L30721 33228
" />
<g transform="rotate(-90 30669.3 27031.5)">
<text x="30669.3" y="27228.3"
textLength="1220.38" font-size="524.934" lengthAdjust="spacingAndGlyphs"
text-anchor="middle" opacity="0">R14</text>
</g>
<path d="M30847 27284
L30659 27415
" />
<path d="M30847 27509
L30453 27509
L30453 27359
L30472 27322
L30491 27303
L30528 27284
L30584 27284
L30622 27303
L30641 27322
L30659 27359
L30659 27509
" />
<path d="M30847 26909
L30847 27134
" />
<path d="M30847 27022
L30453 27022
L30509 27059
L30547 27097
L30566 27134
" />
<path d="M30584 26572
L30847 26572
" />
<path d="M30434 26665
L30716 26759
L30716 26515
" />
<g transform="rotate(-90 30669.3 16250)">
<text x="30669.3" y="16446.9"
textLength="1220.38" font-size="524.934" lengthAdjust="spacingAndGlyphs"
text-anchor="middle" opacity="0">R13</text>
</g>
<path d="M30847 16503
L30659 16634
" />
<path d="M30847 16728
L30453 16728
L30453 16578
L30472 16540
L30491 16521
L30528 16503
L30584 16503
L30622 16521
L30641 16540
L30659 16578
L30659 16728
" />
<path d="M30847 16128
L30847 16353
" />
<path d="M30847 16240
L30453 16240
L30509 16278
L30547 16315
L30566 16353
" />
<path d="M30453 15996
L30453 15753
L30603 15884
L30603 15828
L30622 15790
L30641 15771
L30678 15753
L30772 15753
L30809 15771
L30828 15790
L30847 15828
L30847 15940
L30828 15978
L30809 15996
" />
<g transform="rotate(-90 24830.7 35750)">
<text x="24830.7" y="35946.9"
textLength="1220.38" font-size="524.934" lengthAdjust="spacingAndGlyphs"
text-anchor="middle" opacity="0">R12</text>
</g>
<path d="M25008 36003
L24821 36134
" />
<path d="M25008 36228
L24615 36228
L24615 36078
L24633 36040
L24652 36021
L24690 36003
L24746 36003
L24783 36021
L24802 36040
L24821 36078
L24821 36228
" />
<path d="M25008 35628
L25008 35853
" />
<path d="M25008 35740
L24615 35740
L24671 35778
L24708 35815
L24727 35853
" />
<path d="M24652 35478
L24633 35459
L24615 35421
L24615 35328
L24633 35290
L24652 35271
L24690 35253
L24727 35253
L24783 35271
L25008 35496
L25008 35253
" />
<g transform="rotate(-90 31580.7 33500)">
<text x="31580.7" y="33696.9"
textLength="1220.38" font-size="524.934" lengthAdjust="spacingAndGlyphs"
text-anchor="middle" opacity="0">R11</text>
</g>
<path d="M31758 33753
L31571 33884
" />
<path d="M31758 33978
L31365 33978
L31365 33828
L31383 33790
L31402 33771
L31440 33753
L31496 33753
L31533 33771
L31552 33790
L31571 33828
L31571 33978
" />
<path d="M31758 33378
L31758 33603
" />
<path d="M31758 33490
L31365 33490
L31421 33528
L31458 33565
L31477 33603
" />
<path d="M31758 33003
L31758 33228
" />
<path d="M31758 33115
L31365 33115
L31421 33153
L31458 33190
L31477 33228
" />
<text x="29000" y="32116.1"
textLength="1220.38" font-size="524.934" lengthAdjust="spacingAndGlyphs"
text-anchor="middle" opacity="0">R10</text>
<path d="M28746 32097
L28615 31909
" />
<path d="M28521 32097
L28521 31703
L28671 31703
L28709 31722
L28728 31741
L28746 31778
L28746 31834
L28728 31872
L28709 31891
L28671 31909
L28521 31909
" />
<path d="M29121 32097
L28896 32097
" />
<path d="M29009 32097
L29009 31703
L28971 31759
L28934 31797
L28896 31816
" />
<path d="M29365 31703
L29403 31703
L29440 31722
L29459 31741
L29478 31778
L29496 31853
L29496 31947
L29478 32022
L29459 32059
L29440 32078
L29403 32097
L29365 32097
L29328 32078
L29309 32059
L29290 32022
L29271 31947
L29271 31853
L29290 31778
L29309 31741
L29328 31722
L29365 31703
" />
<text x="31281.5" y="30777.6"
textLength="845.426" font-size="524.934" lengthAdjust="spacingAndGlyphs"
text-anchor="middle" opacity="0">R9</text>
<path d="M31215 30758
L31084 30571
" />
<path d="M30990 30758
L30990 30365
L31140 30365
L31178 30383
L31197 30402
L31215 30440
L31215 30496
L31197 30533
L31178 30552
L31140 30571
L30990 30571
" />
<path d="M31403 30758
L31478 30758
L31515 30740
L31534 30721
L31572 30665
L31590 30590
L31590 30440
L31572 30402
L31553 30383
L31515 30365
L31440 30365
L31403 30383
L31384 30402
L31365 30440
L31365 30533
L31384 30571
L31403 30590
L31440 30608
L31515 30608
L31553 30590
L31572 30571
L31590 30533
" />
<g transform="rotate(-90 26919.3 25000)">
<text x="26919.3" y="25196.9"
textLength="845.426" font-size="524.934" lengthAdjust="spacingAndGlyphs"
text-anchor="middle" opacity="0">R8</text>
</g>
<path d="M27097 25065
L26909 25196
" />
<path d="M27097 25290
L26703 25290
L26703 25140
L26722 25103
L26741 25084
L26778 25065
L26834 25065
L26872 25084
L26891 25103
L26909 25140
L26909 25290
" />
<path d="M26872 24840
L26853 24878
L26834 24896
L26797 24915
L26778 24915
L26741 24896
L26722 24878
L26703 24840
L26703 24765
L26722 24728
L26741 24709
L26778 24690
L26797 24690
L26834 24709
L26853 24728
L26872 24765
L26872 24840
L26891 24878
L26909 24896
L26947 24915
L27022 24915
L27059 24896
L27078 24878
L27097 24840
L27097 24765
L27078 24728
L27059 24709
L27022 24690
L26947 24690
L26909 24709
L26891 24728
L26872 24765
" />
<text x="27500" y="19527.6"
textLength="845.426" font-size="524.934" lengthAdjust="spacingAndGlyphs"
text-anchor="middle" opacity="0">R7</text>
<path d="M27434 19508
L27303 19321
" />
<path d="M27209 19508
L27209 19115
L27359 19115
L27396 19133
L27415 19152
L27434 19190
L27434 19246
L27415 19283
L27396 19302
L27359 19321
L27209 19321
" />
<path d="M27565 19115
L27828 19115
L27659 19508
" />
<g transform="rotate(-90 32419.3 24250)">
<text x="32419.3" y="24446.9"
textLength="845.426" font-size="524.934" lengthAdjust="spacingAndGlyphs"
text-anchor="middle" opacity="0">R6</text>
</g>
<path d="M32597 24315
L32409 24446
" />
<path d="M32597 24540
L32203 24540
L32203 24390
L32222 24353
L32241 24334
L32278 24315
L32334 24315
L32372 24334
L32391 24353
L32409 24390
L32409 24540
" />
<path d="M32203 23978
L32203 24053
L32222 24090
L32241 24109
L32297 24146
L32372 24165
L32522 24165
L32559 24146
L32578 24128
L32597 24090
L32597 24015
L32578 23978
L32559 23959
L32522 23940
L32428 23940
L32391 23959
L32372 23978
L32353 24015
L32353 24090
L32372 24128
L32391 24146
L32428 24165
" />
<text x="30500" y="20866.1"
textLength="845.426" font-size="524.934" lengthAdjust="spacingAndGlyphs"
text-anchor="middle" opacity="0">R5</text>
<path d="M30434 20847
L30303 20659
" />
<path d="M30209 20847
L30209 20453
L30359 20453
L30396 20472
L30415 20491
L30434 20528
L30434 20584
L30415 20622
L30396 20641
L30359 20659
L30209 20659
" />
<path d="M30790 20453
L30603 20453
L30584 20641
L30603 20622
L30640 20603
L30734 20603
L30771 20622
L30790 20641
L30809 20678
L30809 20772
L30790 20809
L30771 20828
L30734 20847
L30640 20847
L30603 20828
L30584 20809
" />
<text x="30250" y="24616.1"
textLength="845.426" font-size="524.934" lengthAdjust="spacingAndGlyphs"
text-anchor="middle" opacity="0">R4</text>
<path d="M30184 24597
L30053 24409
" />
<path d="M29959 24597
L29959 24203
L30109 24203
L30146 24222
L30165 24241
L30184 24278
L30184 24334
L30165 24372
L30146 24391
L30109 24409
L29959 24409
" />
<path d="M30521 24334
L30521 24597
" />
<path d="M30428 24184
L30334 24466
L30578 24466
" />
<text x="27718.5" y="24616.1"
textLength="845.426" font-size="524.934" lengthAdjust="spacingAndGlyphs"
text-anchor="middle" opacity="0">R3</text>
<path d="M27652 24597
L27521 24409
" />
<path d="M27427 24597
L27427 24203
L27577 24203
L27615 24222
L27634 24241
L27652 24278
L27652 24334
L27634 24372
L27615 24391
L27577 24409
L27427 24409
" />
<path d="M27784 24203
L28027 24203
L27896 24353
L27952 24353
L27990 24372
L28009 24391
L28027 24428
L28027 24522
L28009 24559
L27990 24578
L27952 24597
L27840 24597
L27802 24578
L27784 24559
" />
<text x="30468.5" y="22116.1"
textLength="845.426" font-size="524.934" lengthAdjust="spacingAndGlyphs"
text-anchor="middle" opacity="0">R2</text>
<path d="M30402 22097
L30271 21909
" />
<path d="M30177 22097
L30177 21703
L30327 21703
L30365 21722
L30384 21741
L30402 21778
L30402 21834
L30384 21872
L30365 21891
L30327 21909
L30177 21909
" />
<path d="M30552 21741
L30571 21722
L30609 21703
L30702 21703
L30740 21722
L30759 21741
L30777 21778
L30777 21816
L30759 21872
L30534 22097
L30777 22097
" />
<text x="27500" y="22116.1"
textLength="845.426" font-size="524.934" lengthAdjust="spacingAndGlyphs"
text-anchor="middle" opacity="0">R1</text>
<path d="M27434 22097
L27303 21909
" />
<path d="M27209 22097
L27209 21703
L27359 21703
L27396 21722
L27415 21741
L27434 21778
L27434 21834
L27415 21872
L27396 21891
L27359 21909
L27209 21909
" />
<path d="M27809 22097
L27584 22097
" />
<path d="M27696 22097
L27696 21703
L27659 21759
L27621 21797
L27584 21816
" />
<g transform="rotate(-90 27015.7 27000)">
<text x="27015.7" y="27196.9"
textLength="864.173" font-size="524.934" lengthAdjust="spacingAndGlyphs"
text-anchor="middle" opacity="0">Q4</text>
</g>
<path d="M27231 27037
L27212 27074
L27175 27112
L27118 27168
L27100 27206
L27100 27243
" />
<path d="M27193 27224
L27175 27262
L27137 27299
L27062 27318
L26931 27318
L26856 27299
L26818 27262
L26800 27224
L26800 27149
L26818 27112
L26856 27074
L26931 27056
L27062 27056
L27137 27074
L27175 27112
L27193 27149
L27193 27224
" />
<path d="M26931 26718
L27193 26718
" />
<path d="M26781 26812
L27062 26906
L27062 26662
" />
<g transform="rotate(-90 32734.3 27000)">
<text x="32734.3" y="27196.9"
textLength="864.173" font-size="524.934" lengthAdjust="spacingAndGlyphs"
text-anchor="middle" opacity="0">Q3</text>
</g>
<path d="M32949 27037
L32931 27074
L32893 27112
L32837 27168
L32818 27206
L32818 27243
" />
<path d="M32912 27224
L32893 27262
L32856 27299
L32781 27318
L32649 27318
L32574 27299
L32537 27262
L32518 27224
L32518 27149
L32537 27112
L32574 27074
L32649 27056
L32781 27056
L32856 27074
L32893 27112
L32912 27149
L32912 27224
" />
<path d="M32518 26925
L32518 26681
L32668 26812
L32668 26756
L32687 26718
L32706 26700
L32743 26681
L32837 26681
L32874 26700
L32893 26718
L32912 26756
L32912 26868
L32893 26906
L32874 26925
" />
<g transform="rotate(-90 27015.7 16250)">
<text x="27015.7" y="16446.9"
textLength="864.173" font-size="524.934" lengthAdjust="spacingAndGlyphs"
text-anchor="middle" opacity="0">Q2</text>
</g>
<path d="M27231 16287
L27212 16324
L27175 16362
L27118 16418
L27100 16456
L27100 16493
" />
<path d="M27193 16474
L27175 16512
L27137 16549
L27062 16568
L26931 16568
L26856 16549
L26818 16512
L26800 16474
L26800 16399
L26818 16362
L26856 16324
L26931 16306
L27062 16306
L27137 16324
L27175 16362
L27193 16399
L27193 16474
" />
<path d="M26837 16156
L26818 16137
L26800 16100
L26800 16006
L26818 15968
L26837 15950
L26875 15931
L26912 15931
L26968 15950
L27193 16175
L27193 15931
" />
<g transform="rotate(-90 32484.3 16250)">
<text x="32484.3" y="16446.9"
textLength="864.173" font-size="524.934" lengthAdjust="spacingAndGlyphs"
text-anchor="middle" opacity="0">Q1</text>
</g>
<path d="M32699 16287
L32681 16324
L32643 16362
L32587 16418
L32568 16456
L32568 16493
" />
<path d="M32662 16474
L32643 16512
L32606 16549
L32531 16568
L32399 16568
L32324 16549
L32287 16512
L32268 16474
L32268 16399
L32287 16362
L32324 16324
L32399 16306
L32531 16306
L32606 16324
L32643 16362
L32662 16399
L32662 16474
" />
<path d="M32662 15931
L32662 16156
" />
<path d="M32662 16043
L32268 16043
L32324 16081
L32362 16118
L32381 16156
" />
<g transform="rotate(-90 31917.3 42500)">
<text x="31917.3" y="42696.9"
textLength="864.173" font-size="524.934" lengthAdjust="spacingAndGlyphs"
text-anchor="middle" opacity="0">H1</text>
</g>
<path d="M32095 42799
L31701 42799
" />
<path d="M31889 42799
L31889 42574
" />
<path d="M32095 42574
L31701 42574
" />
<path d="M32095 42181
L32095 42406
" />
<path d="M32095 42293
L31701 42293
L31757 42331
L31795 42368
L31814 42406
" />
<g transform="rotate(-90 27189 33500)">
<text x="27189" y="33696.9"
textLength="845.426" font-size="524.934" lengthAdjust="spacingAndGlyphs"
text-anchor="middle" opacity="0">C2</text>
</g>
<path d="M27329 33565
L27348 33584
L27367 33640
L27367 33678
L27348 33734
L27310 33771
L27273 33790
L27198 33809
L27142 33809
L27067 33790
L27029 33771
L26992 33734
L26973 33678
L26973 33640
L26992 33584
L27010 33565
" />
<path d="M27010 33415
L26992 33396
L26973 33359
L26973 33265
L26992 33228
L27010 33209
L27048 33190
L27085 33190
L27142 33209
L27367 33434
L27367 33190
" />
<g transform="rotate(-90 30561 35750)">
<text x="30561" y="35946.9"
textLength="845.426" font-size="524.934" lengthAdjust="spacingAndGlyphs"
text-anchor="middle" opacity="0">C1</text>
</g>
<path d="M30701 35815
L30720 35834
L30739 35890
L30739 35928
L30720 35984
L30682 36021
L30645 36040
L30570 36059
L30514 36059
L30439 36040
L30401 36021
L30364 35984
L30345 35928
L30345 35890
L30364 35834
L30382 35815
" />
<path d="M30739 35440
L30739 35665
" />
<path d="M30739 35553
L30345 35553
L30401 35590
L30439 35628
L30457 35665
" />
<g >
</g>
</g>
<g style="fill:#000000; fill-opacity:0.0; 
stroke:#000000; stroke-width:59.0551; stroke-opacity:1; 
stroke-linecap:round; stroke-linejoin:round;">
</g>
<g style="fill:#C2C200; fill-opacity:0.0; 
stroke:#C2C200; stroke-width:59.0551; stroke-opacity:1; 
stroke-linecap:round; stroke-linejoin:round;">
</g>
<g style="fill:#C2C200; fill-opacity:0.0; 
stroke:#C2C200; stroke-width:39.3701; stroke-opacity:1; 
stroke-linecap:round; stroke-linejoin:round;">
<path d="M25000 54500
L25000 15000
" />
<path d="M32750 54500
L25000 54500
" />
<path d="M32750 15000
L32750 54500
" />
<path d="M25000 15000
L32750 15000
" />
<g >
</g>
<g >
</g>
<g >
</g>
<g >
</g>
<g >
</g>
<g >
</g>
<g >
</g>
<g >
</g>
<g >
</g>
<g >
</g>
<g >
</g>
<g >
</g>
<g >
</g>
<g >
</g>
<g >
</g>
<g >
</g>
<g >
</g>
<g >
</g>
<g >
</g>
<g >
</g>
<g >
</g>
<g >
</g>
<g >
</g>
<g >
</g>
<g >
</g>
<g >
</g>
<g >
</g>
<g >
</g>
<g >
</g>
<g >
</g>
<g >
</g>
<g >
</g>
<g >
</g>
<g >
</g>
<g >
</g>
<g >
</g>
<g >
</g>
<g >
</g>
<g >
</g>
<g >
</g>
<g >
</g>
<g >
</g>
<g >
</g>
</g> 
</svg>
