M48
; DRILL file {KiCad (5.1.6-0)} date Thursday, December 01, 2022 at 10:06:02 PM
; FORMAT={-:-/ absolute / metric / decimal}
; #@! TF.CreationDate,2022-12-01T22:06:02-05:00
; #@! TF.GenerationSoftware,Kicad,Pcbnew,(5.1.6-0)
; #@! TF.FileFunction,Plated,1,2,PTH
FMAT,2
METRIC
T1C0.700
T2C0.800
T3C1.000
T4C1.600
T5C1.800
%
G90
G05
T1
X86.36Y-117.348
X86.36Y-119.888
X71.12Y-88.392
X73.66Y-88.392
X81.788Y-99.568
X81.788Y-102.108
X77.47Y-58.928
X80.01Y-58.928
X86.36Y-99.695
X86.36Y-102.235
X68.58Y-122.428
X71.12Y-122.428
X86.36Y-122.428
X86.36Y-124.968
X83.82Y-92.964
X83.82Y-95.504
X86.36Y-109.728
X86.36Y-112.268
X68.58Y-124.968
X71.12Y-124.968
X71.628Y-109.728
X71.628Y-112.268
X70.612Y-74.676
X70.612Y-77.216
X67.31Y-58.928
X69.85Y-58.928
T2
X62.27Y-123.698
X64.77Y-123.698
X62.27Y-144.018
X64.77Y-144.018
X74.93Y-109.728
X74.93Y-112.268
X74.93Y-114.808
X74.93Y-117.348
X74.93Y-119.888
X74.93Y-122.428
X74.93Y-124.968
X82.55Y-109.728
X82.55Y-112.268
X82.55Y-114.808
X82.55Y-117.348
X82.55Y-119.888
X82.55Y-122.428
X82.55Y-124.968
T3
X71.16Y-133.978
X73.66Y-133.978
X76.16Y-133.978
X62.23Y-128.778
X62.23Y-131.318
X62.23Y-133.858
X62.23Y-136.398
X62.23Y-138.938
X64.77Y-128.778
X64.77Y-131.318
X64.77Y-133.858
X64.77Y-136.398
X64.77Y-138.938
X80.05Y-73.272
X82.55Y-73.272
X85.05Y-73.272
X62.27Y-108.578
X64.77Y-108.578
X67.27Y-108.578
X66.16Y-96.306
X66.16Y-98.806
X66.16Y-101.306
T4
X73.66Y-47.658
X73.66Y-55.958
X73.66Y-59.058
X83.82Y-59.052
X83.82Y-62.152
X83.82Y-70.452
X63.5Y-47.658
X63.5Y-55.958
X63.5Y-59.058
X63.5Y-74.836
X63.5Y-83.136
X63.5Y-86.236
X83.82Y-47.658
X83.82Y-55.958
X83.82Y-59.058
X73.66Y-59.052
X73.66Y-62.152
X73.66Y-70.452
X63.5Y-59.052
X63.5Y-62.152
X63.5Y-70.452
T5
X59.97Y-116.078
X69.57Y-116.078
X68.86Y-141.478
X78.46Y-141.478
X77.75Y-80.772
X87.35Y-80.772
X73.66Y-94.006
X73.66Y-103.606
T0
M30
