%TF.GenerationSoftware,KiCad,Pcbnew,(5.1.6-0)*%
%TF.CreationDate,2022-12-01T22:05:58-05:00*%
%TF.ProjectId,MACRO,4d414352-4f2e-46b6-9963-61645f706362,rev?*%
%TF.SameCoordinates,Original*%
%TF.FileFunction,Copper,L1,Top*%
%TF.FilePolarity,Positive*%
%FSLAX46Y46*%
G04 Gerber Fmt 4.6, Leading zero omitted, Abs format (unit mm)*
G04 Created by KiCad (PCBNEW (5.1.6-0)) date 2022-12-01 22:05:58*
%MOMM*%
%LPD*%
G01*
G04 APERTURE LIST*
%TA.AperFunction,ComponentPad*%
%ADD10C,2.000000*%
%TD*%
%TA.AperFunction,ComponentPad*%
%ADD11C,1.300000*%
%TD*%
%TA.AperFunction,ComponentPad*%
%ADD12C,1.400000*%
%TD*%
%TA.AperFunction,ComponentPad*%
%ADD13O,1.400000X1.400000*%
%TD*%
%TA.AperFunction,ComponentPad*%
%ADD14C,1.800000*%
%TD*%
%TA.AperFunction,ComponentPad*%
%ADD15R,1.700000X1.700000*%
%TD*%
%TA.AperFunction,ComponentPad*%
%ADD16O,1.700000X1.700000*%
%TD*%
%TA.AperFunction,ComponentPad*%
%ADD17R,1.600000X1.600000*%
%TD*%
%TA.AperFunction,ComponentPad*%
%ADD18C,1.600000*%
%TD*%
%TA.AperFunction,ComponentPad*%
%ADD19O,1.600000X1.600000*%
%TD*%
%TA.AperFunction,Conductor*%
%ADD20C,0.250000*%
%TD*%
G04 APERTURE END LIST*
D10*
%TO.P,RV3,*%
%TO.N,*%
X73660000Y-103606000D03*
X73660000Y-94006000D03*
D11*
%TO.P,RV3,3*%
%TO.N,Net-(R4-Pad1)*%
X66160000Y-101306000D03*
%TO.P,RV3,2*%
%TO.N,Net-(RV3-Pad2)*%
X66160000Y-98806000D03*
%TO.P,RV3,1*%
%TO.N,GND*%
X66160000Y-96306000D03*
%TD*%
D10*
%TO.P,RV4,*%
%TO.N,*%
X77750000Y-80772000D03*
X87350000Y-80772000D03*
D11*
%TO.P,RV4,3*%
%TO.N,Net-(R4-Pad1)*%
X80050000Y-73272000D03*
%TO.P,RV4,2*%
%TO.N,Net-(RV4-Pad2)*%
X82550000Y-73272000D03*
%TO.P,RV4,1*%
%TO.N,GND*%
X85050000Y-73272000D03*
%TD*%
D12*
%TO.P,R4,1*%
%TO.N,Net-(R4-Pad1)*%
X86360000Y-99695000D03*
D13*
%TO.P,R4,2*%
%TO.N,Net-(R3-Pad1)*%
X86360000Y-102235000D03*
%TD*%
D12*
%TO.P,R6,1*%
%TO.N,Net-(R6-Pad1)*%
X83820000Y-95504000D03*
D13*
%TO.P,R6,2*%
%TO.N,Net-(R4-Pad1)*%
X83820000Y-92964000D03*
%TD*%
D12*
%TO.P,R7,1*%
%TO.N,Net-(R10-Pad2)*%
X71120000Y-122428000D03*
D13*
%TO.P,R7,2*%
%TO.N,Net-(R4-Pad1)*%
X68580000Y-122428000D03*
%TD*%
D12*
%TO.P,R8,1*%
%TO.N,Net-(R11-Pad2)*%
X86360000Y-109728000D03*
D13*
%TO.P,R8,2*%
%TO.N,Net-(R5-Pad1)*%
X86360000Y-112268000D03*
%TD*%
D12*
%TO.P,R9,1*%
%TO.N,Net-(R12-Pad2)*%
X71628000Y-109728000D03*
D13*
%TO.P,R9,2*%
%TO.N,Net-(R6-Pad1)*%
X71628000Y-112268000D03*
%TD*%
D12*
%TO.P,R10,1*%
%TO.N,Net-(R10-Pad1)*%
X71120000Y-124968000D03*
D13*
%TO.P,R10,2*%
%TO.N,Net-(R10-Pad2)*%
X68580000Y-124968000D03*
%TD*%
D12*
%TO.P,R11,1*%
%TO.N,Net-(J2-Pad1)*%
X70612000Y-74676000D03*
D13*
%TO.P,R11,2*%
%TO.N,Net-(R11-Pad2)*%
X70612000Y-77216000D03*
%TD*%
D12*
%TO.P,R12,1*%
%TO.N,Net-(J4-Pad1)*%
X69850000Y-58928000D03*
D13*
%TO.P,R12,2*%
%TO.N,Net-(R12-Pad2)*%
X67310000Y-58928000D03*
%TD*%
D12*
%TO.P,R13,1*%
%TO.N,Net-(J6-Pad1)*%
X80010000Y-58928000D03*
D13*
%TO.P,R13,2*%
%TO.N,Net-(R10-Pad1)*%
X77470000Y-58928000D03*
%TD*%
D10*
%TO.P,RV1,*%
%TO.N,*%
X68860000Y-141478000D03*
X78460000Y-141478000D03*
D11*
%TO.P,RV1,3*%
%TO.N,+12V*%
X71160000Y-133978000D03*
%TO.P,RV1,2*%
%TO.N,Net-(RV1-Pad2)*%
X73660000Y-133978000D03*
%TO.P,RV1,1*%
%TO.N,GND*%
X76160000Y-133978000D03*
%TD*%
D10*
%TO.P,RV2,*%
%TO.N,*%
X59970000Y-116078000D03*
X69570000Y-116078000D03*
D11*
%TO.P,RV2,3*%
%TO.N,Net-(R4-Pad1)*%
X62270000Y-108578000D03*
%TO.P,RV2,2*%
%TO.N,Net-(RV2-Pad2)*%
X64770000Y-108578000D03*
%TO.P,RV2,1*%
%TO.N,GND*%
X67270000Y-108578000D03*
%TD*%
D12*
%TO.P,R5,1*%
%TO.N,Net-(R5-Pad1)*%
X81788000Y-102108000D03*
D13*
%TO.P,R5,2*%
%TO.N,Net-(R4-Pad1)*%
X81788000Y-99568000D03*
%TD*%
D12*
%TO.P,R2,1*%
%TO.N,Net-(R1-Pad1)*%
X73660000Y-88392000D03*
D13*
%TO.P,R2,2*%
%TO.N,Net-(J1-Pad1)*%
X71120000Y-88392000D03*
%TD*%
D12*
%TO.P,R3,1*%
%TO.N,Net-(R3-Pad1)*%
X86360000Y-124968000D03*
D13*
%TO.P,R3,2*%
%TO.N,Net-(R1-Pad1)*%
X86360000Y-122428000D03*
%TD*%
D14*
%TO.P,J3,3*%
%TO.N,GND*%
X63500000Y-47658000D03*
%TO.P,J3,1*%
%TO.N,Net-(J2-Pad1)*%
X63500000Y-59058000D03*
%TO.P,J3,2*%
%TO.N,Net-(J3-Pad2)*%
X63500000Y-55958000D03*
%TD*%
%TO.P,J4,3*%
%TO.N,GND*%
X73660000Y-70452000D03*
%TO.P,J4,1*%
%TO.N,Net-(J4-Pad1)*%
X73660000Y-59052000D03*
%TO.P,J4,2*%
%TO.N,Net-(J4-Pad2)*%
X73660000Y-62152000D03*
%TD*%
%TO.P,J5,3*%
%TO.N,GND*%
X73660000Y-47658000D03*
%TO.P,J5,1*%
%TO.N,Net-(J4-Pad1)*%
X73660000Y-59058000D03*
%TO.P,J5,2*%
%TO.N,Net-(J5-Pad2)*%
X73660000Y-55958000D03*
%TD*%
%TO.P,J6,3*%
%TO.N,GND*%
X83820000Y-70452000D03*
%TO.P,J6,1*%
%TO.N,Net-(J6-Pad1)*%
X83820000Y-59052000D03*
%TO.P,J6,2*%
%TO.N,Net-(J6-Pad2)*%
X83820000Y-62152000D03*
%TD*%
%TO.P,J7,3*%
%TO.N,GND*%
X83820000Y-47658000D03*
%TO.P,J7,1*%
%TO.N,Net-(J6-Pad1)*%
X83820000Y-59058000D03*
%TO.P,J7,2*%
%TO.N,Net-(J7-Pad2)*%
X83820000Y-55958000D03*
%TD*%
D15*
%TO.P,J8,1*%
%TO.N,+12V*%
X64770000Y-128778000D03*
D16*
%TO.P,J8,2*%
X62230000Y-128778000D03*
%TO.P,J8,3*%
%TO.N,GND*%
X64770000Y-131318000D03*
%TO.P,J8,4*%
X62230000Y-131318000D03*
%TO.P,J8,5*%
X64770000Y-133858000D03*
%TO.P,J8,6*%
X62230000Y-133858000D03*
%TO.P,J8,7*%
X64770000Y-136398000D03*
%TO.P,J8,8*%
X62230000Y-136398000D03*
%TO.P,J8,9*%
%TO.N,-12V*%
X64770000Y-138938000D03*
%TO.P,J8,10*%
X62230000Y-138938000D03*
%TD*%
D12*
%TO.P,R1,1*%
%TO.N,Net-(R1-Pad1)*%
X86360000Y-119888000D03*
D13*
%TO.P,R1,2*%
%TO.N,+12V*%
X86360000Y-117348000D03*
%TD*%
D14*
%TO.P,J1,3*%
%TO.N,GND*%
X63500000Y-74836000D03*
%TO.P,J1,1*%
%TO.N,Net-(J1-Pad1)*%
X63500000Y-86236000D03*
%TO.P,J1,2*%
%TO.N,Net-(J1-Pad2)*%
X63500000Y-83136000D03*
%TD*%
%TO.P,J2,3*%
%TO.N,GND*%
X63500000Y-70452000D03*
%TO.P,J2,1*%
%TO.N,Net-(J2-Pad1)*%
X63500000Y-59052000D03*
%TO.P,J2,2*%
%TO.N,Net-(J2-Pad2)*%
X63500000Y-62152000D03*
%TD*%
D17*
%TO.P,C2,1*%
%TO.N,GND*%
X64770000Y-144018000D03*
D18*
%TO.P,C2,2*%
%TO.N,-12V*%
X62270000Y-144018000D03*
%TD*%
D17*
%TO.P,U1,1*%
%TO.N,Net-(R3-Pad1)*%
X82550000Y-124968000D03*
D19*
%TO.P,U1,8*%
%TO.N,Net-(R12-Pad2)*%
X74930000Y-109728000D03*
%TO.P,U1,2*%
%TO.N,Net-(R1-Pad1)*%
X82550000Y-122428000D03*
%TO.P,U1,9*%
%TO.N,Net-(R6-Pad1)*%
X74930000Y-112268000D03*
%TO.P,U1,3*%
%TO.N,Net-(RV1-Pad2)*%
X82550000Y-119888000D03*
%TO.P,U1,10*%
%TO.N,Net-(RV3-Pad2)*%
X74930000Y-114808000D03*
%TO.P,U1,4*%
%TO.N,+12V*%
X82550000Y-117348000D03*
%TO.P,U1,11*%
%TO.N,-12V*%
X74930000Y-117348000D03*
%TO.P,U1,5*%
%TO.N,Net-(RV2-Pad2)*%
X82550000Y-114808000D03*
%TO.P,U1,12*%
%TO.N,Net-(RV4-Pad2)*%
X74930000Y-119888000D03*
%TO.P,U1,6*%
%TO.N,Net-(R5-Pad1)*%
X82550000Y-112268000D03*
%TO.P,U1,13*%
%TO.N,Net-(R10-Pad2)*%
X74930000Y-122428000D03*
%TO.P,U1,7*%
%TO.N,Net-(R11-Pad2)*%
X82550000Y-109728000D03*
%TO.P,U1,14*%
%TO.N,Net-(R10-Pad1)*%
X74930000Y-124968000D03*
%TD*%
D17*
%TO.P,C1,1*%
%TO.N,+12V*%
X64770000Y-123698000D03*
D18*
%TO.P,C1,2*%
%TO.N,GND*%
X62270000Y-123698000D03*
%TD*%
D20*
%TO.N,GND*%
X62270000Y-123698000D02*
X62270000Y-117562000D01*
X67270000Y-112562000D02*
X67270000Y-108578000D01*
X63500000Y-74836000D02*
X60452000Y-77884000D01*
X60452000Y-111252000D02*
X64516000Y-115316000D01*
X64516000Y-115316000D02*
X67270000Y-112562000D01*
X62270000Y-117562000D02*
X64516000Y-115316000D01*
X60666000Y-96306000D02*
X60452000Y-96520000D01*
X66160000Y-96306000D02*
X60666000Y-96306000D01*
X60452000Y-96520000D02*
X60452000Y-111252000D01*
X60452000Y-77884000D02*
X60452000Y-96520000D01*
%TO.N,-12V*%
X64770000Y-138938000D02*
X74930000Y-138938000D01*
X74930000Y-138938000D02*
X79248000Y-134620000D01*
X79248000Y-121666000D02*
X74930000Y-117348000D01*
X79248000Y-134620000D02*
X79248000Y-121666000D01*
%TO.N,Net-(R1-Pad1)*%
X86360000Y-119888000D02*
X84328000Y-117856000D01*
X84328000Y-117856000D02*
X84328000Y-107188000D01*
X84328000Y-107188000D02*
X87884000Y-103632000D01*
X87884000Y-103632000D02*
X87884000Y-94488000D01*
X87884000Y-94488000D02*
X81788000Y-88392000D01*
X81788000Y-88392000D02*
X73660000Y-88392000D01*
%TO.N,Net-(R4-Pad1)*%
X80050000Y-101306000D02*
X81788000Y-99568000D01*
X66160000Y-101306000D02*
X80050000Y-101306000D01*
%TO.N,Net-(R6-Pad1)*%
X78595001Y-115933001D02*
X74930000Y-112268000D01*
X83820000Y-115203002D02*
X83090001Y-115933001D01*
X83090001Y-115933001D02*
X78595001Y-115933001D01*
X83820000Y-95504000D02*
X83820000Y-115203002D01*
%TO.N,Net-(R11-Pad2)*%
X68580000Y-79248000D02*
X70612000Y-77216000D01*
X68580000Y-96012000D02*
X68580000Y-79248000D01*
X67056000Y-97536000D02*
X68580000Y-96012000D01*
X65024000Y-97536000D02*
X67056000Y-97536000D01*
X64516000Y-98044000D02*
X65024000Y-97536000D01*
X64516000Y-102616000D02*
X64516000Y-98044000D01*
X66831001Y-104931001D02*
X64516000Y-102616000D01*
X77753001Y-104931001D02*
X66831001Y-104931001D01*
X82550000Y-109728000D02*
X77753001Y-104931001D01*
%TO.N,Net-(RV2-Pad2)*%
X66668000Y-106680000D02*
X64770000Y-108578000D01*
X76200000Y-106680000D02*
X66668000Y-106680000D01*
X79248000Y-109728000D02*
X76200000Y-106680000D01*
X79248000Y-111506000D02*
X79248000Y-109728000D01*
X82550000Y-114808000D02*
X79248000Y-111506000D01*
%TD*%
M02*
