%TF.GenerationSoftware,KiCad,Pcbnew,(5.1.6-0)*%
%TF.CreationDate,2022-12-01T22:05:58-05:00*%
%TF.ProjectId,MACRO,4d414352-4f2e-46b6-9963-61645f706362,rev?*%
%TF.SameCoordinates,Original*%
%TF.FileFunction,Legend,Bot*%
%TF.FilePolarity,Positive*%
%FSLAX46Y46*%
G04 Gerber Fmt 4.6, Leading zero omitted, Abs format (unit mm)*
G04 Created by KiCad (PCBNEW (5.1.6-0)) date 2022-12-01 22:05:58*
%MOMM*%
%LPD*%
G01*
G04 APERTURE LIST*
%ADD10C,0.120000*%
%ADD11C,0.150000*%
G04 APERTURE END LIST*
D10*
%TO.C,J8*%
X66100000Y-140268000D02*
X60900000Y-140268000D01*
X66100000Y-130048000D02*
X66100000Y-140268000D01*
X60900000Y-127448000D02*
X60900000Y-140268000D01*
X66100000Y-130048000D02*
X63500000Y-130048000D01*
X63500000Y-130048000D02*
X63500000Y-127448000D01*
X63500000Y-127448000D02*
X60900000Y-127448000D01*
X66100000Y-128778000D02*
X66100000Y-127448000D01*
X66100000Y-127448000D02*
X64770000Y-127448000D01*
%TO.C,C2*%
X63520000Y-141468000D02*
X63520000Y-146568000D01*
X63480000Y-141468000D02*
X63480000Y-146568000D01*
X63440000Y-141469000D02*
X63440000Y-146567000D01*
X63400000Y-141470000D02*
X63400000Y-146566000D01*
X63360000Y-141472000D02*
X63360000Y-146564000D01*
X63320000Y-141475000D02*
X63320000Y-146561000D01*
X63280000Y-141479000D02*
X63280000Y-146557000D01*
X63240000Y-141483000D02*
X63240000Y-143038000D01*
X63240000Y-144998000D02*
X63240000Y-146553000D01*
X63200000Y-141487000D02*
X63200000Y-143038000D01*
X63200000Y-144998000D02*
X63200000Y-146549000D01*
X63160000Y-141493000D02*
X63160000Y-143038000D01*
X63160000Y-144998000D02*
X63160000Y-146543000D01*
X63120000Y-141499000D02*
X63120000Y-143038000D01*
X63120000Y-144998000D02*
X63120000Y-146537000D01*
X63080000Y-141505000D02*
X63080000Y-143038000D01*
X63080000Y-144998000D02*
X63080000Y-146531000D01*
X63040000Y-141512000D02*
X63040000Y-143038000D01*
X63040000Y-144998000D02*
X63040000Y-146524000D01*
X63000000Y-141520000D02*
X63000000Y-143038000D01*
X63000000Y-144998000D02*
X63000000Y-146516000D01*
X62960000Y-141529000D02*
X62960000Y-143038000D01*
X62960000Y-144998000D02*
X62960000Y-146507000D01*
X62920000Y-141538000D02*
X62920000Y-143038000D01*
X62920000Y-144998000D02*
X62920000Y-146498000D01*
X62880000Y-141548000D02*
X62880000Y-143038000D01*
X62880000Y-144998000D02*
X62880000Y-146488000D01*
X62840000Y-141558000D02*
X62840000Y-143038000D01*
X62840000Y-144998000D02*
X62840000Y-146478000D01*
X62799000Y-141570000D02*
X62799000Y-143038000D01*
X62799000Y-144998000D02*
X62799000Y-146466000D01*
X62759000Y-141582000D02*
X62759000Y-143038000D01*
X62759000Y-144998000D02*
X62759000Y-146454000D01*
X62719000Y-141594000D02*
X62719000Y-143038000D01*
X62719000Y-144998000D02*
X62719000Y-146442000D01*
X62679000Y-141608000D02*
X62679000Y-143038000D01*
X62679000Y-144998000D02*
X62679000Y-146428000D01*
X62639000Y-141622000D02*
X62639000Y-143038000D01*
X62639000Y-144998000D02*
X62639000Y-146414000D01*
X62599000Y-141636000D02*
X62599000Y-143038000D01*
X62599000Y-144998000D02*
X62599000Y-146400000D01*
X62559000Y-141652000D02*
X62559000Y-143038000D01*
X62559000Y-144998000D02*
X62559000Y-146384000D01*
X62519000Y-141668000D02*
X62519000Y-143038000D01*
X62519000Y-144998000D02*
X62519000Y-146368000D01*
X62479000Y-141685000D02*
X62479000Y-143038000D01*
X62479000Y-144998000D02*
X62479000Y-146351000D01*
X62439000Y-141703000D02*
X62439000Y-143038000D01*
X62439000Y-144998000D02*
X62439000Y-146333000D01*
X62399000Y-141722000D02*
X62399000Y-143038000D01*
X62399000Y-144998000D02*
X62399000Y-146314000D01*
X62359000Y-141742000D02*
X62359000Y-143038000D01*
X62359000Y-144998000D02*
X62359000Y-146294000D01*
X62319000Y-141762000D02*
X62319000Y-143038000D01*
X62319000Y-144998000D02*
X62319000Y-146274000D01*
X62279000Y-141784000D02*
X62279000Y-143038000D01*
X62279000Y-144998000D02*
X62279000Y-146252000D01*
X62239000Y-141806000D02*
X62239000Y-143038000D01*
X62239000Y-144998000D02*
X62239000Y-146230000D01*
X62199000Y-141829000D02*
X62199000Y-143038000D01*
X62199000Y-144998000D02*
X62199000Y-146207000D01*
X62159000Y-141853000D02*
X62159000Y-143038000D01*
X62159000Y-144998000D02*
X62159000Y-146183000D01*
X62119000Y-141878000D02*
X62119000Y-143038000D01*
X62119000Y-144998000D02*
X62119000Y-146158000D01*
X62079000Y-141905000D02*
X62079000Y-143038000D01*
X62079000Y-144998000D02*
X62079000Y-146131000D01*
X62039000Y-141932000D02*
X62039000Y-143038000D01*
X62039000Y-144998000D02*
X62039000Y-146104000D01*
X61999000Y-141960000D02*
X61999000Y-143038000D01*
X61999000Y-144998000D02*
X61999000Y-146076000D01*
X61959000Y-141990000D02*
X61959000Y-143038000D01*
X61959000Y-144998000D02*
X61959000Y-146046000D01*
X61919000Y-142021000D02*
X61919000Y-143038000D01*
X61919000Y-144998000D02*
X61919000Y-146015000D01*
X61879000Y-142053000D02*
X61879000Y-143038000D01*
X61879000Y-144998000D02*
X61879000Y-145983000D01*
X61839000Y-142086000D02*
X61839000Y-143038000D01*
X61839000Y-144998000D02*
X61839000Y-145950000D01*
X61799000Y-142121000D02*
X61799000Y-143038000D01*
X61799000Y-144998000D02*
X61799000Y-145915000D01*
X61759000Y-142157000D02*
X61759000Y-143038000D01*
X61759000Y-144998000D02*
X61759000Y-145879000D01*
X61719000Y-142195000D02*
X61719000Y-143038000D01*
X61719000Y-144998000D02*
X61719000Y-145841000D01*
X61679000Y-142235000D02*
X61679000Y-143038000D01*
X61679000Y-144998000D02*
X61679000Y-145801000D01*
X61639000Y-142276000D02*
X61639000Y-143038000D01*
X61639000Y-144998000D02*
X61639000Y-145760000D01*
X61599000Y-142319000D02*
X61599000Y-143038000D01*
X61599000Y-144998000D02*
X61599000Y-145717000D01*
X61559000Y-142364000D02*
X61559000Y-143038000D01*
X61559000Y-144998000D02*
X61559000Y-145672000D01*
X61519000Y-142412000D02*
X61519000Y-143038000D01*
X61519000Y-144998000D02*
X61519000Y-145624000D01*
X61479000Y-142462000D02*
X61479000Y-143038000D01*
X61479000Y-144998000D02*
X61479000Y-145574000D01*
X61439000Y-142514000D02*
X61439000Y-143038000D01*
X61439000Y-144998000D02*
X61439000Y-145522000D01*
X61399000Y-142570000D02*
X61399000Y-143038000D01*
X61399000Y-144998000D02*
X61399000Y-145466000D01*
X61359000Y-142628000D02*
X61359000Y-143038000D01*
X61359000Y-144998000D02*
X61359000Y-145408000D01*
X61319000Y-142691000D02*
X61319000Y-143038000D01*
X61319000Y-144998000D02*
X61319000Y-145345000D01*
X61279000Y-142757000D02*
X61279000Y-145279000D01*
X61239000Y-142829000D02*
X61239000Y-145207000D01*
X61199000Y-142906000D02*
X61199000Y-145130000D01*
X61159000Y-142990000D02*
X61159000Y-145046000D01*
X61119000Y-143084000D02*
X61119000Y-144952000D01*
X61079000Y-143189000D02*
X61079000Y-144847000D01*
X61039000Y-143311000D02*
X61039000Y-144725000D01*
X60999000Y-143459000D02*
X60999000Y-144577000D01*
X60959000Y-143664000D02*
X60959000Y-144372000D01*
X66970000Y-144018000D02*
X65770000Y-144018000D01*
X66370000Y-143368000D02*
X66370000Y-144668000D01*
X61214278Y-142838277D02*
G75*
G02*
X65825580Y-142838000I2305722J-1179723D01*
G01*
X61214278Y-145197723D02*
G75*
G03*
X65825580Y-145198000I2305722J1179723D01*
G01*
X61214278Y-145197723D02*
G75*
G02*
X61214420Y-142838000I2305722J1179723D01*
G01*
%TO.C,C1*%
X63520000Y-121148000D02*
X63520000Y-126248000D01*
X63480000Y-121148000D02*
X63480000Y-126248000D01*
X63440000Y-121149000D02*
X63440000Y-126247000D01*
X63400000Y-121150000D02*
X63400000Y-126246000D01*
X63360000Y-121152000D02*
X63360000Y-126244000D01*
X63320000Y-121155000D02*
X63320000Y-126241000D01*
X63280000Y-121159000D02*
X63280000Y-126237000D01*
X63240000Y-121163000D02*
X63240000Y-122718000D01*
X63240000Y-124678000D02*
X63240000Y-126233000D01*
X63200000Y-121167000D02*
X63200000Y-122718000D01*
X63200000Y-124678000D02*
X63200000Y-126229000D01*
X63160000Y-121173000D02*
X63160000Y-122718000D01*
X63160000Y-124678000D02*
X63160000Y-126223000D01*
X63120000Y-121179000D02*
X63120000Y-122718000D01*
X63120000Y-124678000D02*
X63120000Y-126217000D01*
X63080000Y-121185000D02*
X63080000Y-122718000D01*
X63080000Y-124678000D02*
X63080000Y-126211000D01*
X63040000Y-121192000D02*
X63040000Y-122718000D01*
X63040000Y-124678000D02*
X63040000Y-126204000D01*
X63000000Y-121200000D02*
X63000000Y-122718000D01*
X63000000Y-124678000D02*
X63000000Y-126196000D01*
X62960000Y-121209000D02*
X62960000Y-122718000D01*
X62960000Y-124678000D02*
X62960000Y-126187000D01*
X62920000Y-121218000D02*
X62920000Y-122718000D01*
X62920000Y-124678000D02*
X62920000Y-126178000D01*
X62880000Y-121228000D02*
X62880000Y-122718000D01*
X62880000Y-124678000D02*
X62880000Y-126168000D01*
X62840000Y-121238000D02*
X62840000Y-122718000D01*
X62840000Y-124678000D02*
X62840000Y-126158000D01*
X62799000Y-121250000D02*
X62799000Y-122718000D01*
X62799000Y-124678000D02*
X62799000Y-126146000D01*
X62759000Y-121262000D02*
X62759000Y-122718000D01*
X62759000Y-124678000D02*
X62759000Y-126134000D01*
X62719000Y-121274000D02*
X62719000Y-122718000D01*
X62719000Y-124678000D02*
X62719000Y-126122000D01*
X62679000Y-121288000D02*
X62679000Y-122718000D01*
X62679000Y-124678000D02*
X62679000Y-126108000D01*
X62639000Y-121302000D02*
X62639000Y-122718000D01*
X62639000Y-124678000D02*
X62639000Y-126094000D01*
X62599000Y-121316000D02*
X62599000Y-122718000D01*
X62599000Y-124678000D02*
X62599000Y-126080000D01*
X62559000Y-121332000D02*
X62559000Y-122718000D01*
X62559000Y-124678000D02*
X62559000Y-126064000D01*
X62519000Y-121348000D02*
X62519000Y-122718000D01*
X62519000Y-124678000D02*
X62519000Y-126048000D01*
X62479000Y-121365000D02*
X62479000Y-122718000D01*
X62479000Y-124678000D02*
X62479000Y-126031000D01*
X62439000Y-121383000D02*
X62439000Y-122718000D01*
X62439000Y-124678000D02*
X62439000Y-126013000D01*
X62399000Y-121402000D02*
X62399000Y-122718000D01*
X62399000Y-124678000D02*
X62399000Y-125994000D01*
X62359000Y-121422000D02*
X62359000Y-122718000D01*
X62359000Y-124678000D02*
X62359000Y-125974000D01*
X62319000Y-121442000D02*
X62319000Y-122718000D01*
X62319000Y-124678000D02*
X62319000Y-125954000D01*
X62279000Y-121464000D02*
X62279000Y-122718000D01*
X62279000Y-124678000D02*
X62279000Y-125932000D01*
X62239000Y-121486000D02*
X62239000Y-122718000D01*
X62239000Y-124678000D02*
X62239000Y-125910000D01*
X62199000Y-121509000D02*
X62199000Y-122718000D01*
X62199000Y-124678000D02*
X62199000Y-125887000D01*
X62159000Y-121533000D02*
X62159000Y-122718000D01*
X62159000Y-124678000D02*
X62159000Y-125863000D01*
X62119000Y-121558000D02*
X62119000Y-122718000D01*
X62119000Y-124678000D02*
X62119000Y-125838000D01*
X62079000Y-121585000D02*
X62079000Y-122718000D01*
X62079000Y-124678000D02*
X62079000Y-125811000D01*
X62039000Y-121612000D02*
X62039000Y-122718000D01*
X62039000Y-124678000D02*
X62039000Y-125784000D01*
X61999000Y-121640000D02*
X61999000Y-122718000D01*
X61999000Y-124678000D02*
X61999000Y-125756000D01*
X61959000Y-121670000D02*
X61959000Y-122718000D01*
X61959000Y-124678000D02*
X61959000Y-125726000D01*
X61919000Y-121701000D02*
X61919000Y-122718000D01*
X61919000Y-124678000D02*
X61919000Y-125695000D01*
X61879000Y-121733000D02*
X61879000Y-122718000D01*
X61879000Y-124678000D02*
X61879000Y-125663000D01*
X61839000Y-121766000D02*
X61839000Y-122718000D01*
X61839000Y-124678000D02*
X61839000Y-125630000D01*
X61799000Y-121801000D02*
X61799000Y-122718000D01*
X61799000Y-124678000D02*
X61799000Y-125595000D01*
X61759000Y-121837000D02*
X61759000Y-122718000D01*
X61759000Y-124678000D02*
X61759000Y-125559000D01*
X61719000Y-121875000D02*
X61719000Y-122718000D01*
X61719000Y-124678000D02*
X61719000Y-125521000D01*
X61679000Y-121915000D02*
X61679000Y-122718000D01*
X61679000Y-124678000D02*
X61679000Y-125481000D01*
X61639000Y-121956000D02*
X61639000Y-122718000D01*
X61639000Y-124678000D02*
X61639000Y-125440000D01*
X61599000Y-121999000D02*
X61599000Y-122718000D01*
X61599000Y-124678000D02*
X61599000Y-125397000D01*
X61559000Y-122044000D02*
X61559000Y-122718000D01*
X61559000Y-124678000D02*
X61559000Y-125352000D01*
X61519000Y-122092000D02*
X61519000Y-122718000D01*
X61519000Y-124678000D02*
X61519000Y-125304000D01*
X61479000Y-122142000D02*
X61479000Y-122718000D01*
X61479000Y-124678000D02*
X61479000Y-125254000D01*
X61439000Y-122194000D02*
X61439000Y-122718000D01*
X61439000Y-124678000D02*
X61439000Y-125202000D01*
X61399000Y-122250000D02*
X61399000Y-122718000D01*
X61399000Y-124678000D02*
X61399000Y-125146000D01*
X61359000Y-122308000D02*
X61359000Y-122718000D01*
X61359000Y-124678000D02*
X61359000Y-125088000D01*
X61319000Y-122371000D02*
X61319000Y-122718000D01*
X61319000Y-124678000D02*
X61319000Y-125025000D01*
X61279000Y-122437000D02*
X61279000Y-124959000D01*
X61239000Y-122509000D02*
X61239000Y-124887000D01*
X61199000Y-122586000D02*
X61199000Y-124810000D01*
X61159000Y-122670000D02*
X61159000Y-124726000D01*
X61119000Y-122764000D02*
X61119000Y-124632000D01*
X61079000Y-122869000D02*
X61079000Y-124527000D01*
X61039000Y-122991000D02*
X61039000Y-124405000D01*
X60999000Y-123139000D02*
X60999000Y-124257000D01*
X60959000Y-123344000D02*
X60959000Y-124052000D01*
X66970000Y-123698000D02*
X65770000Y-123698000D01*
X66370000Y-123048000D02*
X66370000Y-124348000D01*
X61214278Y-122518277D02*
G75*
G02*
X65825580Y-122518000I2305722J-1179723D01*
G01*
X61214278Y-124877723D02*
G75*
G03*
X65825580Y-124878000I2305722J1179723D01*
G01*
X61214278Y-124877723D02*
G75*
G02*
X61214420Y-122518000I2305722J1179723D01*
G01*
%TO.C,J8*%
D11*
X63833333Y-125900380D02*
X63833333Y-126614666D01*
X63880952Y-126757523D01*
X63976190Y-126852761D01*
X64119047Y-126900380D01*
X64214285Y-126900380D01*
X63214285Y-126328952D02*
X63309523Y-126281333D01*
X63357142Y-126233714D01*
X63404761Y-126138476D01*
X63404761Y-126090857D01*
X63357142Y-125995619D01*
X63309523Y-125948000D01*
X63214285Y-125900380D01*
X63023809Y-125900380D01*
X62928571Y-125948000D01*
X62880952Y-125995619D01*
X62833333Y-126090857D01*
X62833333Y-126138476D01*
X62880952Y-126233714D01*
X62928571Y-126281333D01*
X63023809Y-126328952D01*
X63214285Y-126328952D01*
X63309523Y-126376571D01*
X63357142Y-126424190D01*
X63404761Y-126519428D01*
X63404761Y-126709904D01*
X63357142Y-126805142D01*
X63309523Y-126852761D01*
X63214285Y-126900380D01*
X63023809Y-126900380D01*
X62928571Y-126852761D01*
X62880952Y-126805142D01*
X62833333Y-126709904D01*
X62833333Y-126519428D01*
X62880952Y-126424190D01*
X62928571Y-126376571D01*
X63023809Y-126328952D01*
%TO.C,C2*%
X63686666Y-140565142D02*
X63734285Y-140612761D01*
X63877142Y-140660380D01*
X63972380Y-140660380D01*
X64115238Y-140612761D01*
X64210476Y-140517523D01*
X64258095Y-140422285D01*
X64305714Y-140231809D01*
X64305714Y-140088952D01*
X64258095Y-139898476D01*
X64210476Y-139803238D01*
X64115238Y-139708000D01*
X63972380Y-139660380D01*
X63877142Y-139660380D01*
X63734285Y-139708000D01*
X63686666Y-139755619D01*
X63305714Y-139755619D02*
X63258095Y-139708000D01*
X63162857Y-139660380D01*
X62924761Y-139660380D01*
X62829523Y-139708000D01*
X62781904Y-139755619D01*
X62734285Y-139850857D01*
X62734285Y-139946095D01*
X62781904Y-140088952D01*
X63353333Y-140660380D01*
X62734285Y-140660380D01*
%TO.C,C1*%
X63686666Y-120245142D02*
X63734285Y-120292761D01*
X63877142Y-120340380D01*
X63972380Y-120340380D01*
X64115238Y-120292761D01*
X64210476Y-120197523D01*
X64258095Y-120102285D01*
X64305714Y-119911809D01*
X64305714Y-119768952D01*
X64258095Y-119578476D01*
X64210476Y-119483238D01*
X64115238Y-119388000D01*
X63972380Y-119340380D01*
X63877142Y-119340380D01*
X63734285Y-119388000D01*
X63686666Y-119435619D01*
X62734285Y-120340380D02*
X63305714Y-120340380D01*
X63020000Y-120340380D02*
X63020000Y-119340380D01*
X63115238Y-119483238D01*
X63210476Y-119578476D01*
X63305714Y-119626095D01*
%TD*%
M02*
