%TF.GenerationSoftware,KiCad,Pcbnew,(5.1.6-0)*%
%TF.CreationDate,2022-12-01T22:05:58-05:00*%
%TF.ProjectId,MACRO,4d414352-4f2e-46b6-9963-61645f706362,rev?*%
%TF.SameCoordinates,Original*%
%TF.FileFunction,Legend,Top*%
%TF.FilePolarity,Positive*%
%FSLAX46Y46*%
G04 Gerber Fmt 4.6, Leading zero omitted, Abs format (unit mm)*
G04 Created by KiCad (PCBNEW (5.1.6-0)) date 2022-12-01 22:05:58*
%MOMM*%
%LPD*%
G01*
G04 APERTURE LIST*
%ADD10C,0.150000*%
%ADD11C,0.120000*%
G04 APERTURE END LIST*
D10*
%TO.C,RV3*%
X78510000Y-94056000D02*
X78510000Y-103556000D01*
X67160000Y-94056000D02*
X67160000Y-103556000D01*
X78510000Y-103556000D02*
X67160000Y-103556000D01*
X78510000Y-94056000D02*
X67160000Y-94056000D01*
X76835000Y-98806000D02*
G75*
G03*
X76835000Y-98806000I-3175000J0D01*
G01*
X74930000Y-98806000D02*
X72390000Y-98806000D01*
X73660000Y-97536000D02*
X73660000Y-100076000D01*
%TO.C,RV4*%
X87300000Y-85622000D02*
X77800000Y-85622000D01*
X87300000Y-74272000D02*
X77800000Y-74272000D01*
X77800000Y-85622000D02*
X77800000Y-74272000D01*
X87300000Y-85622000D02*
X87300000Y-74272000D01*
X85725000Y-80772000D02*
G75*
G03*
X85725000Y-80772000I-3175000J0D01*
G01*
X82550000Y-82042000D02*
X82550000Y-79502000D01*
X83820000Y-80772000D02*
X81280000Y-80772000D01*
D11*
%TO.C,R4*%
X87220000Y-99695000D02*
G75*
G03*
X87220000Y-99695000I-860000J0D01*
G01*
X86360000Y-100555000D02*
X86360000Y-101235000D01*
%TO.C,R6*%
X84680000Y-95504000D02*
G75*
G03*
X84680000Y-95504000I-860000J0D01*
G01*
X83820000Y-94644000D02*
X83820000Y-93964000D01*
%TO.C,R7*%
X71980000Y-122428000D02*
G75*
G03*
X71980000Y-122428000I-860000J0D01*
G01*
X70260000Y-122428000D02*
X69580000Y-122428000D01*
%TO.C,R8*%
X87220000Y-109728000D02*
G75*
G03*
X87220000Y-109728000I-860000J0D01*
G01*
X86360000Y-110588000D02*
X86360000Y-111268000D01*
%TO.C,R9*%
X72488000Y-109728000D02*
G75*
G03*
X72488000Y-109728000I-860000J0D01*
G01*
X71628000Y-110588000D02*
X71628000Y-111268000D01*
%TO.C,R10*%
X71980000Y-124968000D02*
G75*
G03*
X71980000Y-124968000I-860000J0D01*
G01*
X70260000Y-124968000D02*
X69580000Y-124968000D01*
%TO.C,R11*%
X71472000Y-74676000D02*
G75*
G03*
X71472000Y-74676000I-860000J0D01*
G01*
X70612000Y-75536000D02*
X70612000Y-76216000D01*
%TO.C,R12*%
X70710000Y-58928000D02*
G75*
G03*
X70710000Y-58928000I-860000J0D01*
G01*
X68990000Y-58928000D02*
X68310000Y-58928000D01*
%TO.C,R13*%
X80870000Y-58928000D02*
G75*
G03*
X80870000Y-58928000I-860000J0D01*
G01*
X79150000Y-58928000D02*
X78470000Y-58928000D01*
D10*
%TO.C,RV1*%
X78410000Y-146328000D02*
X68910000Y-146328000D01*
X78410000Y-134978000D02*
X68910000Y-134978000D01*
X68910000Y-146328000D02*
X68910000Y-134978000D01*
X78410000Y-146328000D02*
X78410000Y-134978000D01*
X76835000Y-141478000D02*
G75*
G03*
X76835000Y-141478000I-3175000J0D01*
G01*
X73660000Y-142748000D02*
X73660000Y-140208000D01*
X74930000Y-141478000D02*
X72390000Y-141478000D01*
%TO.C,RV2*%
X69520000Y-120928000D02*
X60020000Y-120928000D01*
X69520000Y-109578000D02*
X60020000Y-109578000D01*
X60020000Y-120928000D02*
X60020000Y-109578000D01*
X69520000Y-120928000D02*
X69520000Y-109578000D01*
X67945000Y-116078000D02*
G75*
G03*
X67945000Y-116078000I-3175000J0D01*
G01*
X64770000Y-117348000D02*
X64770000Y-114808000D01*
X66040000Y-116078000D02*
X63500000Y-116078000D01*
D11*
%TO.C,R5*%
X82648000Y-102108000D02*
G75*
G03*
X82648000Y-102108000I-860000J0D01*
G01*
X81788000Y-101248000D02*
X81788000Y-100568000D01*
%TO.C,R2*%
X74520000Y-88392000D02*
G75*
G03*
X74520000Y-88392000I-860000J0D01*
G01*
X72800000Y-88392000D02*
X72120000Y-88392000D01*
%TO.C,R3*%
X87220000Y-124968000D02*
G75*
G03*
X87220000Y-124968000I-860000J0D01*
G01*
X86360000Y-124108000D02*
X86360000Y-123428000D01*
D10*
%TO.C,J3*%
X59000000Y-46378000D02*
X68000000Y-46378000D01*
X59000000Y-57278000D02*
X68000000Y-57278000D01*
X59000000Y-46378000D02*
X59000000Y-57278000D01*
X68000000Y-46378000D02*
X68000000Y-57278000D01*
X65300000Y-52578000D02*
G75*
G03*
X65300000Y-52578000I-1800000J0D01*
G01*
X63500000Y-50778000D02*
X63500000Y-54378000D01*
X61700000Y-52578000D02*
X65300000Y-52578000D01*
%TO.C,J4*%
X78160000Y-71732000D02*
X69160000Y-71732000D01*
X78160000Y-60832000D02*
X69160000Y-60832000D01*
X78160000Y-71732000D02*
X78160000Y-60832000D01*
X69160000Y-71732000D02*
X69160000Y-60832000D01*
X75460000Y-65532000D02*
G75*
G03*
X75460000Y-65532000I-1800000J0D01*
G01*
X73660000Y-67332000D02*
X73660000Y-63732000D01*
X75460000Y-65532000D02*
X71860000Y-65532000D01*
%TO.C,J5*%
X69160000Y-46378000D02*
X78160000Y-46378000D01*
X69160000Y-57278000D02*
X78160000Y-57278000D01*
X69160000Y-46378000D02*
X69160000Y-57278000D01*
X78160000Y-46378000D02*
X78160000Y-57278000D01*
X75460000Y-52578000D02*
G75*
G03*
X75460000Y-52578000I-1800000J0D01*
G01*
X73660000Y-50778000D02*
X73660000Y-54378000D01*
X71860000Y-52578000D02*
X75460000Y-52578000D01*
%TO.C,J6*%
X88320000Y-71732000D02*
X79320000Y-71732000D01*
X88320000Y-60832000D02*
X79320000Y-60832000D01*
X88320000Y-71732000D02*
X88320000Y-60832000D01*
X79320000Y-71732000D02*
X79320000Y-60832000D01*
X85620000Y-65532000D02*
G75*
G03*
X85620000Y-65532000I-1800000J0D01*
G01*
X83820000Y-67332000D02*
X83820000Y-63732000D01*
X85620000Y-65532000D02*
X82020000Y-65532000D01*
%TO.C,J7*%
X79320000Y-46378000D02*
X88320000Y-46378000D01*
X79320000Y-57278000D02*
X88320000Y-57278000D01*
X79320000Y-46378000D02*
X79320000Y-57278000D01*
X88320000Y-46378000D02*
X88320000Y-57278000D01*
X85620000Y-52578000D02*
G75*
G03*
X85620000Y-52578000I-1800000J0D01*
G01*
X83820000Y-50778000D02*
X83820000Y-54378000D01*
X82020000Y-52578000D02*
X85620000Y-52578000D01*
D11*
%TO.C,R1*%
X87220000Y-119888000D02*
G75*
G03*
X87220000Y-119888000I-860000J0D01*
G01*
X86360000Y-119028000D02*
X86360000Y-118348000D01*
D10*
%TO.C,J1*%
X59000000Y-73556000D02*
X68000000Y-73556000D01*
X59000000Y-84456000D02*
X68000000Y-84456000D01*
X59000000Y-73556000D02*
X59000000Y-84456000D01*
X68000000Y-73556000D02*
X68000000Y-84456000D01*
X65300000Y-79756000D02*
G75*
G03*
X65300000Y-79756000I-1800000J0D01*
G01*
X63500000Y-77956000D02*
X63500000Y-81556000D01*
X61700000Y-79756000D02*
X65300000Y-79756000D01*
%TO.C,J2*%
X68000000Y-71732000D02*
X59000000Y-71732000D01*
X68000000Y-60832000D02*
X59000000Y-60832000D01*
X68000000Y-71732000D02*
X68000000Y-60832000D01*
X59000000Y-71732000D02*
X59000000Y-60832000D01*
X65300000Y-65532000D02*
G75*
G03*
X65300000Y-65532000I-1800000J0D01*
G01*
X63500000Y-67332000D02*
X63500000Y-63732000D01*
X65300000Y-65532000D02*
X61700000Y-65532000D01*
D11*
%TO.C,U1*%
X79740000Y-126298000D02*
X81390000Y-126298000D01*
X81390000Y-126298000D02*
X81390000Y-108398000D01*
X81390000Y-108398000D02*
X76090000Y-108398000D01*
X76090000Y-108398000D02*
X76090000Y-126298000D01*
X76090000Y-126298000D02*
X77740000Y-126298000D01*
X77740000Y-126298000D02*
G75*
G02*
X79740000Y-126298000I1000000J0D01*
G01*
%TO.C,RV3*%
D10*
X64612380Y-99401238D02*
X64136190Y-99734571D01*
X64612380Y-99972666D02*
X63612380Y-99972666D01*
X63612380Y-99591714D01*
X63660000Y-99496476D01*
X63707619Y-99448857D01*
X63802857Y-99401238D01*
X63945714Y-99401238D01*
X64040952Y-99448857D01*
X64088571Y-99496476D01*
X64136190Y-99591714D01*
X64136190Y-99972666D01*
X63612380Y-99115523D02*
X64612380Y-98782190D01*
X63612380Y-98448857D01*
X63612380Y-98210761D02*
X63612380Y-97591714D01*
X63993333Y-97925047D01*
X63993333Y-97782190D01*
X64040952Y-97686952D01*
X64088571Y-97639333D01*
X64183809Y-97591714D01*
X64421904Y-97591714D01*
X64517142Y-97639333D01*
X64564761Y-97686952D01*
X64612380Y-97782190D01*
X64612380Y-98067904D01*
X64564761Y-98163142D01*
X64517142Y-98210761D01*
%TO.C,RV4*%
X81954761Y-71724380D02*
X81621428Y-71248190D01*
X81383333Y-71724380D02*
X81383333Y-70724380D01*
X81764285Y-70724380D01*
X81859523Y-70772000D01*
X81907142Y-70819619D01*
X81954761Y-70914857D01*
X81954761Y-71057714D01*
X81907142Y-71152952D01*
X81859523Y-71200571D01*
X81764285Y-71248190D01*
X81383333Y-71248190D01*
X82240476Y-70724380D02*
X82573809Y-71724380D01*
X82907142Y-70724380D01*
X83669047Y-71057714D02*
X83669047Y-71724380D01*
X83430952Y-70676761D02*
X83192857Y-71391047D01*
X83811904Y-71391047D01*
%TO.C,R4*%
X88672380Y-101131666D02*
X88196190Y-101465000D01*
X88672380Y-101703095D02*
X87672380Y-101703095D01*
X87672380Y-101322142D01*
X87720000Y-101226904D01*
X87767619Y-101179285D01*
X87862857Y-101131666D01*
X88005714Y-101131666D01*
X88100952Y-101179285D01*
X88148571Y-101226904D01*
X88196190Y-101322142D01*
X88196190Y-101703095D01*
X88005714Y-100274523D02*
X88672380Y-100274523D01*
X87624761Y-100512619D02*
X88339047Y-100750714D01*
X88339047Y-100131666D01*
%TO.C,R6*%
X82412380Y-94400666D02*
X81936190Y-94734000D01*
X82412380Y-94972095D02*
X81412380Y-94972095D01*
X81412380Y-94591142D01*
X81460000Y-94495904D01*
X81507619Y-94448285D01*
X81602857Y-94400666D01*
X81745714Y-94400666D01*
X81840952Y-94448285D01*
X81888571Y-94495904D01*
X81936190Y-94591142D01*
X81936190Y-94972095D01*
X81412380Y-93543523D02*
X81412380Y-93734000D01*
X81460000Y-93829238D01*
X81507619Y-93876857D01*
X81650476Y-93972095D01*
X81840952Y-94019714D01*
X82221904Y-94019714D01*
X82317142Y-93972095D01*
X82364761Y-93924476D01*
X82412380Y-93829238D01*
X82412380Y-93638761D01*
X82364761Y-93543523D01*
X82317142Y-93495904D01*
X82221904Y-93448285D01*
X81983809Y-93448285D01*
X81888571Y-93495904D01*
X81840952Y-93543523D01*
X81793333Y-93638761D01*
X81793333Y-93829238D01*
X81840952Y-93924476D01*
X81888571Y-93972095D01*
X81983809Y-94019714D01*
%TO.C,R7*%
X69683333Y-124740380D02*
X69350000Y-124264190D01*
X69111904Y-124740380D02*
X69111904Y-123740380D01*
X69492857Y-123740380D01*
X69588095Y-123788000D01*
X69635714Y-123835619D01*
X69683333Y-123930857D01*
X69683333Y-124073714D01*
X69635714Y-124168952D01*
X69588095Y-124216571D01*
X69492857Y-124264190D01*
X69111904Y-124264190D01*
X70016666Y-123740380D02*
X70683333Y-123740380D01*
X70254761Y-124740380D01*
%TO.C,R8*%
X88672380Y-111164666D02*
X88196190Y-111498000D01*
X88672380Y-111736095D02*
X87672380Y-111736095D01*
X87672380Y-111355142D01*
X87720000Y-111259904D01*
X87767619Y-111212285D01*
X87862857Y-111164666D01*
X88005714Y-111164666D01*
X88100952Y-111212285D01*
X88148571Y-111259904D01*
X88196190Y-111355142D01*
X88196190Y-111736095D01*
X88100952Y-110593238D02*
X88053333Y-110688476D01*
X88005714Y-110736095D01*
X87910476Y-110783714D01*
X87862857Y-110783714D01*
X87767619Y-110736095D01*
X87720000Y-110688476D01*
X87672380Y-110593238D01*
X87672380Y-110402761D01*
X87720000Y-110307523D01*
X87767619Y-110259904D01*
X87862857Y-110212285D01*
X87910476Y-110212285D01*
X88005714Y-110259904D01*
X88053333Y-110307523D01*
X88100952Y-110402761D01*
X88100952Y-110593238D01*
X88148571Y-110688476D01*
X88196190Y-110736095D01*
X88291428Y-110783714D01*
X88481904Y-110783714D01*
X88577142Y-110736095D01*
X88624761Y-110688476D01*
X88672380Y-110593238D01*
X88672380Y-110402761D01*
X88624761Y-110307523D01*
X88577142Y-110259904D01*
X88481904Y-110212285D01*
X88291428Y-110212285D01*
X88196190Y-110259904D01*
X88148571Y-110307523D01*
X88100952Y-110402761D01*
%TO.C,R9*%
X73940380Y-111164666D02*
X73464190Y-111498000D01*
X73940380Y-111736095D02*
X72940380Y-111736095D01*
X72940380Y-111355142D01*
X72988000Y-111259904D01*
X73035619Y-111212285D01*
X73130857Y-111164666D01*
X73273714Y-111164666D01*
X73368952Y-111212285D01*
X73416571Y-111259904D01*
X73464190Y-111355142D01*
X73464190Y-111736095D01*
X73940380Y-110688476D02*
X73940380Y-110498000D01*
X73892761Y-110402761D01*
X73845142Y-110355142D01*
X73702285Y-110259904D01*
X73511809Y-110212285D01*
X73130857Y-110212285D01*
X73035619Y-110259904D01*
X72988000Y-110307523D01*
X72940380Y-110402761D01*
X72940380Y-110593238D01*
X72988000Y-110688476D01*
X73035619Y-110736095D01*
X73130857Y-110783714D01*
X73368952Y-110783714D01*
X73464190Y-110736095D01*
X73511809Y-110688476D01*
X73559428Y-110593238D01*
X73559428Y-110402761D01*
X73511809Y-110307523D01*
X73464190Y-110259904D01*
X73368952Y-110212285D01*
%TO.C,R10*%
X69207142Y-127280380D02*
X68873809Y-126804190D01*
X68635714Y-127280380D02*
X68635714Y-126280380D01*
X69016666Y-126280380D01*
X69111904Y-126328000D01*
X69159523Y-126375619D01*
X69207142Y-126470857D01*
X69207142Y-126613714D01*
X69159523Y-126708952D01*
X69111904Y-126756571D01*
X69016666Y-126804190D01*
X68635714Y-126804190D01*
X70159523Y-127280380D02*
X69588095Y-127280380D01*
X69873809Y-127280380D02*
X69873809Y-126280380D01*
X69778571Y-126423238D01*
X69683333Y-126518476D01*
X69588095Y-126566095D01*
X70778571Y-126280380D02*
X70873809Y-126280380D01*
X70969047Y-126328000D01*
X71016666Y-126375619D01*
X71064285Y-126470857D01*
X71111904Y-126661333D01*
X71111904Y-126899428D01*
X71064285Y-127089904D01*
X71016666Y-127185142D01*
X70969047Y-127232761D01*
X70873809Y-127280380D01*
X70778571Y-127280380D01*
X70683333Y-127232761D01*
X70635714Y-127185142D01*
X70588095Y-127089904D01*
X70540476Y-126899428D01*
X70540476Y-126661333D01*
X70588095Y-126470857D01*
X70635714Y-126375619D01*
X70683333Y-126328000D01*
X70778571Y-126280380D01*
%TO.C,R11*%
X72924380Y-76588857D02*
X72448190Y-76922190D01*
X72924380Y-77160285D02*
X71924380Y-77160285D01*
X71924380Y-76779333D01*
X71972000Y-76684095D01*
X72019619Y-76636476D01*
X72114857Y-76588857D01*
X72257714Y-76588857D01*
X72352952Y-76636476D01*
X72400571Y-76684095D01*
X72448190Y-76779333D01*
X72448190Y-77160285D01*
X72924380Y-75636476D02*
X72924380Y-76207904D01*
X72924380Y-75922190D02*
X71924380Y-75922190D01*
X72067238Y-76017428D01*
X72162476Y-76112666D01*
X72210095Y-76207904D01*
X72924380Y-74684095D02*
X72924380Y-75255523D01*
X72924380Y-74969809D02*
X71924380Y-74969809D01*
X72067238Y-75065047D01*
X72162476Y-75160285D01*
X72210095Y-75255523D01*
%TO.C,R12*%
X67937142Y-61240380D02*
X67603809Y-60764190D01*
X67365714Y-61240380D02*
X67365714Y-60240380D01*
X67746666Y-60240380D01*
X67841904Y-60288000D01*
X67889523Y-60335619D01*
X67937142Y-60430857D01*
X67937142Y-60573714D01*
X67889523Y-60668952D01*
X67841904Y-60716571D01*
X67746666Y-60764190D01*
X67365714Y-60764190D01*
X68889523Y-61240380D02*
X68318095Y-61240380D01*
X68603809Y-61240380D02*
X68603809Y-60240380D01*
X68508571Y-60383238D01*
X68413333Y-60478476D01*
X68318095Y-60526095D01*
X69270476Y-60335619D02*
X69318095Y-60288000D01*
X69413333Y-60240380D01*
X69651428Y-60240380D01*
X69746666Y-60288000D01*
X69794285Y-60335619D01*
X69841904Y-60430857D01*
X69841904Y-60526095D01*
X69794285Y-60668952D01*
X69222857Y-61240380D01*
X69841904Y-61240380D01*
%TO.C,R13*%
X78097142Y-61240380D02*
X77763809Y-60764190D01*
X77525714Y-61240380D02*
X77525714Y-60240380D01*
X77906666Y-60240380D01*
X78001904Y-60288000D01*
X78049523Y-60335619D01*
X78097142Y-60430857D01*
X78097142Y-60573714D01*
X78049523Y-60668952D01*
X78001904Y-60716571D01*
X77906666Y-60764190D01*
X77525714Y-60764190D01*
X79049523Y-61240380D02*
X78478095Y-61240380D01*
X78763809Y-61240380D02*
X78763809Y-60240380D01*
X78668571Y-60383238D01*
X78573333Y-60478476D01*
X78478095Y-60526095D01*
X79382857Y-60240380D02*
X80001904Y-60240380D01*
X79668571Y-60621333D01*
X79811428Y-60621333D01*
X79906666Y-60668952D01*
X79954285Y-60716571D01*
X80001904Y-60811809D01*
X80001904Y-61049904D01*
X79954285Y-61145142D01*
X79906666Y-61192761D01*
X79811428Y-61240380D01*
X79525714Y-61240380D01*
X79430476Y-61192761D01*
X79382857Y-61145142D01*
%TO.C,RV1*%
X73064761Y-132430380D02*
X72731428Y-131954190D01*
X72493333Y-132430380D02*
X72493333Y-131430380D01*
X72874285Y-131430380D01*
X72969523Y-131478000D01*
X73017142Y-131525619D01*
X73064761Y-131620857D01*
X73064761Y-131763714D01*
X73017142Y-131858952D01*
X72969523Y-131906571D01*
X72874285Y-131954190D01*
X72493333Y-131954190D01*
X73350476Y-131430380D02*
X73683809Y-132430380D01*
X74017142Y-131430380D01*
X74874285Y-132430380D02*
X74302857Y-132430380D01*
X74588571Y-132430380D02*
X74588571Y-131430380D01*
X74493333Y-131573238D01*
X74398095Y-131668476D01*
X74302857Y-131716095D01*
%TO.C,RV2*%
X64174761Y-107030380D02*
X63841428Y-106554190D01*
X63603333Y-107030380D02*
X63603333Y-106030380D01*
X63984285Y-106030380D01*
X64079523Y-106078000D01*
X64127142Y-106125619D01*
X64174761Y-106220857D01*
X64174761Y-106363714D01*
X64127142Y-106458952D01*
X64079523Y-106506571D01*
X63984285Y-106554190D01*
X63603333Y-106554190D01*
X64460476Y-106030380D02*
X64793809Y-107030380D01*
X65127142Y-106030380D01*
X65412857Y-106125619D02*
X65460476Y-106078000D01*
X65555714Y-106030380D01*
X65793809Y-106030380D01*
X65889047Y-106078000D01*
X65936666Y-106125619D01*
X65984285Y-106220857D01*
X65984285Y-106316095D01*
X65936666Y-106458952D01*
X65365238Y-107030380D01*
X65984285Y-107030380D01*
%TO.C,R5*%
X80380380Y-101004666D02*
X79904190Y-101338000D01*
X80380380Y-101576095D02*
X79380380Y-101576095D01*
X79380380Y-101195142D01*
X79428000Y-101099904D01*
X79475619Y-101052285D01*
X79570857Y-101004666D01*
X79713714Y-101004666D01*
X79808952Y-101052285D01*
X79856571Y-101099904D01*
X79904190Y-101195142D01*
X79904190Y-101576095D01*
X79380380Y-100099904D02*
X79380380Y-100576095D01*
X79856571Y-100623714D01*
X79808952Y-100576095D01*
X79761333Y-100480857D01*
X79761333Y-100242761D01*
X79808952Y-100147523D01*
X79856571Y-100099904D01*
X79951809Y-100052285D01*
X80189904Y-100052285D01*
X80285142Y-100099904D01*
X80332761Y-100147523D01*
X80380380Y-100242761D01*
X80380380Y-100480857D01*
X80332761Y-100576095D01*
X80285142Y-100623714D01*
%TO.C,R2*%
X72223333Y-90704380D02*
X71890000Y-90228190D01*
X71651904Y-90704380D02*
X71651904Y-89704380D01*
X72032857Y-89704380D01*
X72128095Y-89752000D01*
X72175714Y-89799619D01*
X72223333Y-89894857D01*
X72223333Y-90037714D01*
X72175714Y-90132952D01*
X72128095Y-90180571D01*
X72032857Y-90228190D01*
X71651904Y-90228190D01*
X72604285Y-89799619D02*
X72651904Y-89752000D01*
X72747142Y-89704380D01*
X72985238Y-89704380D01*
X73080476Y-89752000D01*
X73128095Y-89799619D01*
X73175714Y-89894857D01*
X73175714Y-89990095D01*
X73128095Y-90132952D01*
X72556666Y-90704380D01*
X73175714Y-90704380D01*
%TO.C,R3*%
X84952380Y-123864666D02*
X84476190Y-124198000D01*
X84952380Y-124436095D02*
X83952380Y-124436095D01*
X83952380Y-124055142D01*
X84000000Y-123959904D01*
X84047619Y-123912285D01*
X84142857Y-123864666D01*
X84285714Y-123864666D01*
X84380952Y-123912285D01*
X84428571Y-123959904D01*
X84476190Y-124055142D01*
X84476190Y-124436095D01*
X83952380Y-123531333D02*
X83952380Y-122912285D01*
X84333333Y-123245619D01*
X84333333Y-123102761D01*
X84380952Y-123007523D01*
X84428571Y-122959904D01*
X84523809Y-122912285D01*
X84761904Y-122912285D01*
X84857142Y-122959904D01*
X84904761Y-123007523D01*
X84952380Y-123102761D01*
X84952380Y-123388476D01*
X84904761Y-123483714D01*
X84857142Y-123531333D01*
%TO.C,J3*%
X67230666Y-57618380D02*
X67230666Y-58332666D01*
X67183047Y-58475523D01*
X67087809Y-58570761D01*
X66944952Y-58618380D01*
X66849714Y-58618380D01*
X67611619Y-57618380D02*
X68230666Y-57618380D01*
X67897333Y-57999333D01*
X68040190Y-57999333D01*
X68135428Y-58046952D01*
X68183047Y-58094571D01*
X68230666Y-58189809D01*
X68230666Y-58427904D01*
X68183047Y-58523142D01*
X68135428Y-58570761D01*
X68040190Y-58618380D01*
X67754476Y-58618380D01*
X67659238Y-58570761D01*
X67611619Y-58523142D01*
%TO.C,J4*%
X69262666Y-59396380D02*
X69262666Y-60110666D01*
X69215047Y-60253523D01*
X69119809Y-60348761D01*
X68976952Y-60396380D01*
X68881714Y-60396380D01*
X70167428Y-59729714D02*
X70167428Y-60396380D01*
X69929333Y-59348761D02*
X69691238Y-60063047D01*
X70310285Y-60063047D01*
%TO.C,J5*%
X77390666Y-57618380D02*
X77390666Y-58332666D01*
X77343047Y-58475523D01*
X77247809Y-58570761D01*
X77104952Y-58618380D01*
X77009714Y-58618380D01*
X78343047Y-57618380D02*
X77866857Y-57618380D01*
X77819238Y-58094571D01*
X77866857Y-58046952D01*
X77962095Y-57999333D01*
X78200190Y-57999333D01*
X78295428Y-58046952D01*
X78343047Y-58094571D01*
X78390666Y-58189809D01*
X78390666Y-58427904D01*
X78343047Y-58523142D01*
X78295428Y-58570761D01*
X78200190Y-58618380D01*
X77962095Y-58618380D01*
X77866857Y-58570761D01*
X77819238Y-58523142D01*
%TO.C,J6*%
X79422666Y-59396380D02*
X79422666Y-60110666D01*
X79375047Y-60253523D01*
X79279809Y-60348761D01*
X79136952Y-60396380D01*
X79041714Y-60396380D01*
X80327428Y-59396380D02*
X80136952Y-59396380D01*
X80041714Y-59444000D01*
X79994095Y-59491619D01*
X79898857Y-59634476D01*
X79851238Y-59824952D01*
X79851238Y-60205904D01*
X79898857Y-60301142D01*
X79946476Y-60348761D01*
X80041714Y-60396380D01*
X80232190Y-60396380D01*
X80327428Y-60348761D01*
X80375047Y-60301142D01*
X80422666Y-60205904D01*
X80422666Y-59967809D01*
X80375047Y-59872571D01*
X80327428Y-59824952D01*
X80232190Y-59777333D01*
X80041714Y-59777333D01*
X79946476Y-59824952D01*
X79898857Y-59872571D01*
X79851238Y-59967809D01*
%TO.C,J7*%
X87550666Y-57618380D02*
X87550666Y-58332666D01*
X87503047Y-58475523D01*
X87407809Y-58570761D01*
X87264952Y-58618380D01*
X87169714Y-58618380D01*
X87931619Y-57618380D02*
X88598285Y-57618380D01*
X88169714Y-58618380D01*
%TO.C,R1*%
X84952380Y-118784666D02*
X84476190Y-119118000D01*
X84952380Y-119356095D02*
X83952380Y-119356095D01*
X83952380Y-118975142D01*
X84000000Y-118879904D01*
X84047619Y-118832285D01*
X84142857Y-118784666D01*
X84285714Y-118784666D01*
X84380952Y-118832285D01*
X84428571Y-118879904D01*
X84476190Y-118975142D01*
X84476190Y-119356095D01*
X84952380Y-117832285D02*
X84952380Y-118403714D01*
X84952380Y-118118000D02*
X83952380Y-118118000D01*
X84095238Y-118213238D01*
X84190476Y-118308476D01*
X84238095Y-118403714D01*
%TO.C,J1*%
X67230666Y-84796380D02*
X67230666Y-85510666D01*
X67183047Y-85653523D01*
X67087809Y-85748761D01*
X66944952Y-85796380D01*
X66849714Y-85796380D01*
X68230666Y-85796380D02*
X67659238Y-85796380D01*
X67944952Y-85796380D02*
X67944952Y-84796380D01*
X67849714Y-84939238D01*
X67754476Y-85034476D01*
X67659238Y-85082095D01*
%TO.C,J2*%
X59102666Y-59396380D02*
X59102666Y-60110666D01*
X59055047Y-60253523D01*
X58959809Y-60348761D01*
X58816952Y-60396380D01*
X58721714Y-60396380D01*
X59531238Y-59491619D02*
X59578857Y-59444000D01*
X59674095Y-59396380D01*
X59912190Y-59396380D01*
X60007428Y-59444000D01*
X60055047Y-59491619D01*
X60102666Y-59586857D01*
X60102666Y-59682095D01*
X60055047Y-59824952D01*
X59483619Y-60396380D01*
X60102666Y-60396380D01*
%TO.C,U1*%
X77978095Y-126750380D02*
X77978095Y-127559904D01*
X78025714Y-127655142D01*
X78073333Y-127702761D01*
X78168571Y-127750380D01*
X78359047Y-127750380D01*
X78454285Y-127702761D01*
X78501904Y-127655142D01*
X78549523Y-127559904D01*
X78549523Y-126750380D01*
X79549523Y-127750380D02*
X78978095Y-127750380D01*
X79263809Y-127750380D02*
X79263809Y-126750380D01*
X79168571Y-126893238D01*
X79073333Y-126988476D01*
X78978095Y-127036095D01*
%TD*%
M02*
