%TF.GenerationSoftware,KiCad,Pcbnew,(5.1.6-0)*%
%TF.CreationDate,2022-12-01T22:08:32-05:00*%
%TF.ProjectId,MACRO Panel,4d414352-4f20-4506-916e-656c2e6b6963,rev?*%
%TF.SameCoordinates,Original*%
%TF.FileFunction,Legend,Top*%
%TF.FilePolarity,Positive*%
%FSLAX46Y46*%
G04 Gerber Fmt 4.6, Leading zero omitted, Abs format (unit mm)*
G04 Created by KiCad (PCBNEW (5.1.6-0)) date 2022-12-01 22:08:32*
%MOMM*%
%LPD*%
G01*
G04 APERTURE LIST*
%ADD10C,0.120000*%
%ADD11C,0.150000*%
%ADD12C,0.200000*%
%ADD13C,0.400000*%
%ADD14C,0.600000*%
G04 APERTURE END LIST*
D10*
X82423000Y-71628000D02*
X82804000Y-70866000D01*
D11*
X82693000Y-68921380D02*
X82883476Y-68921380D01*
X82978714Y-68969000D01*
X83073952Y-69064238D01*
X83121571Y-69254714D01*
X83121571Y-69588047D01*
X83073952Y-69778523D01*
X82978714Y-69873761D01*
X82883476Y-69921380D01*
X82693000Y-69921380D01*
X82597761Y-69873761D01*
X82502523Y-69778523D01*
X82454904Y-69588047D01*
X82454904Y-69254714D01*
X82502523Y-69064238D01*
X82597761Y-68969000D01*
X82693000Y-68921380D01*
X83550142Y-68921380D02*
X83550142Y-69730904D01*
X83597761Y-69826142D01*
X83645380Y-69873761D01*
X83740619Y-69921380D01*
X83931095Y-69921380D01*
X84026333Y-69873761D01*
X84073952Y-69826142D01*
X84121571Y-69730904D01*
X84121571Y-68921380D01*
X84454904Y-68921380D02*
X85026333Y-68921380D01*
X84740619Y-69921380D02*
X84740619Y-68921380D01*
X72660000Y-68921380D02*
X72850476Y-68921380D01*
X72945714Y-68969000D01*
X73040952Y-69064238D01*
X73088571Y-69254714D01*
X73088571Y-69588047D01*
X73040952Y-69778523D01*
X72945714Y-69873761D01*
X72850476Y-69921380D01*
X72660000Y-69921380D01*
X72564761Y-69873761D01*
X72469523Y-69778523D01*
X72421904Y-69588047D01*
X72421904Y-69254714D01*
X72469523Y-69064238D01*
X72564761Y-68969000D01*
X72660000Y-68921380D01*
X73517142Y-68921380D02*
X73517142Y-69730904D01*
X73564761Y-69826142D01*
X73612380Y-69873761D01*
X73707619Y-69921380D01*
X73898095Y-69921380D01*
X73993333Y-69873761D01*
X74040952Y-69826142D01*
X74088571Y-69730904D01*
X74088571Y-68921380D01*
X74421904Y-68921380D02*
X74993333Y-68921380D01*
X74707619Y-69921380D02*
X74707619Y-68921380D01*
X62373000Y-68921380D02*
X62563476Y-68921380D01*
X62658714Y-68969000D01*
X62753952Y-69064238D01*
X62801571Y-69254714D01*
X62801571Y-69588047D01*
X62753952Y-69778523D01*
X62658714Y-69873761D01*
X62563476Y-69921380D01*
X62373000Y-69921380D01*
X62277761Y-69873761D01*
X62182523Y-69778523D01*
X62134904Y-69588047D01*
X62134904Y-69254714D01*
X62182523Y-69064238D01*
X62277761Y-68969000D01*
X62373000Y-68921380D01*
X63230142Y-68921380D02*
X63230142Y-69730904D01*
X63277761Y-69826142D01*
X63325380Y-69873761D01*
X63420619Y-69921380D01*
X63611095Y-69921380D01*
X63706333Y-69873761D01*
X63753952Y-69826142D01*
X63801571Y-69730904D01*
X63801571Y-68921380D01*
X64134904Y-68921380D02*
X64706333Y-68921380D01*
X64420619Y-69921380D02*
X64420619Y-68921380D01*
D10*
X83820000Y-54610000D02*
X83820000Y-63500000D01*
X73660000Y-54610000D02*
X73660000Y-63627000D01*
X63500000Y-54737000D02*
X63500000Y-63500000D01*
D11*
X75343428Y-119832428D02*
X76105333Y-119832428D01*
X77105333Y-120213380D02*
X76533904Y-120213380D01*
X76819619Y-120213380D02*
X76819619Y-119213380D01*
X76724380Y-119356238D01*
X76629142Y-119451476D01*
X76533904Y-119499095D01*
X77724380Y-119213380D02*
X77819619Y-119213380D01*
X77914857Y-119261000D01*
X77962476Y-119308619D01*
X78010095Y-119403857D01*
X78057714Y-119594333D01*
X78057714Y-119832428D01*
X78010095Y-120022904D01*
X77962476Y-120118142D01*
X77914857Y-120165761D01*
X77819619Y-120213380D01*
X77724380Y-120213380D01*
X77629142Y-120165761D01*
X77581523Y-120118142D01*
X77533904Y-120022904D01*
X77486285Y-119832428D01*
X77486285Y-119594333D01*
X77533904Y-119403857D01*
X77581523Y-119308619D01*
X77629142Y-119261000D01*
X77724380Y-119213380D01*
X78343428Y-119213380D02*
X78676761Y-120213380D01*
X79010095Y-119213380D01*
X80819619Y-119165761D02*
X79962476Y-120451476D01*
X81914857Y-119832428D02*
X82676761Y-119832428D01*
X82295809Y-120213380D02*
X82295809Y-119451476D01*
X84438666Y-120213380D02*
X83867238Y-120213380D01*
X84152952Y-120213380D02*
X84152952Y-119213380D01*
X84057714Y-119356238D01*
X83962476Y-119451476D01*
X83867238Y-119499095D01*
X85057714Y-119213380D02*
X85152952Y-119213380D01*
X85248190Y-119261000D01*
X85295809Y-119308619D01*
X85343428Y-119403857D01*
X85391047Y-119594333D01*
X85391047Y-119832428D01*
X85343428Y-120022904D01*
X85295809Y-120118142D01*
X85248190Y-120165761D01*
X85152952Y-120213380D01*
X85057714Y-120213380D01*
X84962476Y-120165761D01*
X84914857Y-120118142D01*
X84867238Y-120022904D01*
X84819619Y-119832428D01*
X84819619Y-119594333D01*
X84867238Y-119403857D01*
X84914857Y-119308619D01*
X84962476Y-119261000D01*
X85057714Y-119213380D01*
X85676761Y-119213380D02*
X86010095Y-120213380D01*
X86343428Y-119213380D01*
D12*
X78105380Y-110195142D02*
X77438714Y-110195142D01*
X77438714Y-111242761D02*
X77438714Y-109242761D01*
X78391095Y-109242761D01*
X79153000Y-111242761D02*
X79153000Y-109242761D01*
X79914904Y-109242761D02*
X81248238Y-111242761D01*
X81248238Y-109242761D02*
X79914904Y-111242761D01*
X82010142Y-110195142D02*
X82676809Y-110195142D01*
X82962523Y-111242761D02*
X82010142Y-111242761D01*
X82010142Y-109242761D01*
X82962523Y-109242761D01*
X83819666Y-111242761D02*
X83819666Y-109242761D01*
X84295857Y-109242761D01*
X84581571Y-109338000D01*
X84772047Y-109528476D01*
X84867285Y-109718952D01*
X84962523Y-110099904D01*
X84962523Y-110385619D01*
X84867285Y-110766571D01*
X84772047Y-110957047D01*
X84581571Y-111147523D01*
X84295857Y-111242761D01*
X83819666Y-111242761D01*
X76914904Y-112442761D02*
X77581571Y-114442761D01*
X78248238Y-112442761D01*
X79295857Y-112442761D02*
X79676809Y-112442761D01*
X79867285Y-112538000D01*
X80057761Y-112728476D01*
X80153000Y-113109428D01*
X80153000Y-113776095D01*
X80057761Y-114157047D01*
X79867285Y-114347523D01*
X79676809Y-114442761D01*
X79295857Y-114442761D01*
X79105380Y-114347523D01*
X78914904Y-114157047D01*
X78819666Y-113776095D01*
X78819666Y-113109428D01*
X78914904Y-112728476D01*
X79105380Y-112538000D01*
X79295857Y-112442761D01*
X81962523Y-114442761D02*
X81010142Y-114442761D01*
X81010142Y-112442761D01*
X82343476Y-112442761D02*
X83486333Y-112442761D01*
X82914904Y-114442761D02*
X82914904Y-112442761D01*
X84057761Y-114347523D02*
X84343476Y-114442761D01*
X84819666Y-114442761D01*
X85010142Y-114347523D01*
X85105380Y-114252285D01*
X85200619Y-114061809D01*
X85200619Y-113871333D01*
X85105380Y-113680857D01*
X85010142Y-113585619D01*
X84819666Y-113490380D01*
X84438714Y-113395142D01*
X84248238Y-113299904D01*
X84153000Y-113204666D01*
X84057761Y-113014190D01*
X84057761Y-112823714D01*
X84153000Y-112633238D01*
X84248238Y-112538000D01*
X84438714Y-112442761D01*
X84914904Y-112442761D01*
X85200619Y-112538000D01*
X78153000Y-117452285D02*
X78057761Y-117547523D01*
X77772047Y-117642761D01*
X77581571Y-117642761D01*
X77295857Y-117547523D01*
X77105380Y-117357047D01*
X77010142Y-117166571D01*
X76914904Y-116785619D01*
X76914904Y-116499904D01*
X77010142Y-116118952D01*
X77105380Y-115928476D01*
X77295857Y-115738000D01*
X77581571Y-115642761D01*
X77772047Y-115642761D01*
X78057761Y-115738000D01*
X78153000Y-115833238D01*
X79010142Y-117642761D02*
X79010142Y-115642761D01*
X80153000Y-117642761D01*
X80153000Y-115642761D01*
X80819666Y-115642761D02*
X81962523Y-115642761D01*
X81391095Y-117642761D02*
X81391095Y-115642761D01*
X83581571Y-117642761D02*
X82629190Y-117642761D01*
X82629190Y-115642761D01*
X85391095Y-117642761D02*
X84724428Y-116690380D01*
X84248238Y-117642761D02*
X84248238Y-115642761D01*
X85010142Y-115642761D01*
X85200619Y-115738000D01*
X85295857Y-115833238D01*
X85391095Y-116023714D01*
X85391095Y-116309428D01*
X85295857Y-116499904D01*
X85200619Y-116595142D01*
X85010142Y-116690380D01*
X84248238Y-116690380D01*
X70612095Y-125110857D02*
X72135904Y-125110857D01*
X75311095Y-125110857D02*
X76834904Y-125110857D01*
X76073000Y-125872761D02*
X76073000Y-124348952D01*
D10*
X73660000Y-127127000D02*
X73660000Y-123063000D01*
X69342000Y-88519000D02*
X64897000Y-96520000D01*
X82423000Y-73025000D02*
X82423000Y-71628000D01*
D11*
X62103047Y-107132428D02*
X62864952Y-107132428D01*
X70612047Y-90114428D02*
X71373952Y-90114428D01*
X79883047Y-72334428D02*
X80644952Y-72334428D01*
X84201047Y-72334428D02*
X84962952Y-72334428D01*
X84582000Y-72715380D02*
X84582000Y-71953476D01*
X75946047Y-90114428D02*
X76707952Y-90114428D01*
X76327000Y-90495380D02*
X76327000Y-89733476D01*
X66421047Y-107132428D02*
X67182952Y-107132428D01*
X66802000Y-107513380D02*
X66802000Y-106751476D01*
D10*
X64897000Y-96520000D02*
X64897000Y-107823000D01*
X69342000Y-76962000D02*
X69342000Y-88519000D01*
X65278000Y-70739000D02*
X69342000Y-76962000D01*
X73787000Y-90932000D02*
X73787000Y-70866000D01*
D12*
X63134904Y-86312285D02*
X63039666Y-86407523D01*
X62753952Y-86502761D01*
X62563476Y-86502761D01*
X62277761Y-86407523D01*
X62087285Y-86217047D01*
X61992047Y-86026571D01*
X61896809Y-85645619D01*
X61896809Y-85359904D01*
X61992047Y-84978952D01*
X62087285Y-84788476D01*
X62277761Y-84598000D01*
X62563476Y-84502761D01*
X62753952Y-84502761D01*
X63039666Y-84598000D01*
X63134904Y-84693238D01*
X63706333Y-84502761D02*
X64373000Y-86502761D01*
X65039666Y-84502761D01*
D11*
X71926571Y-157857000D02*
X72640857Y-157857000D01*
X71783714Y-158285571D02*
X72283714Y-156785571D01*
X72783714Y-158285571D01*
X73998000Y-158285571D02*
X73283714Y-158285571D01*
X73283714Y-156785571D01*
X75212285Y-158285571D02*
X74498000Y-158285571D01*
X74498000Y-156785571D01*
X75712285Y-157499857D02*
X76212285Y-157499857D01*
X76426571Y-158285571D02*
X75712285Y-158285571D01*
X75712285Y-156785571D01*
X76426571Y-156785571D01*
X77069428Y-158285571D02*
X77069428Y-156785571D01*
X77926571Y-158285571D01*
X77926571Y-156785571D01*
X80640857Y-158285571D02*
X80140857Y-157571285D01*
X79783714Y-158285571D02*
X79783714Y-156785571D01*
X80355142Y-156785571D01*
X80498000Y-156857000D01*
X80569428Y-156928428D01*
X80640857Y-157071285D01*
X80640857Y-157285571D01*
X80569428Y-157428428D01*
X80498000Y-157499857D01*
X80355142Y-157571285D01*
X79783714Y-157571285D01*
X81212285Y-157857000D02*
X81926571Y-157857000D01*
X81069428Y-158285571D02*
X81569428Y-156785571D01*
X82069428Y-158285571D01*
X82569428Y-158285571D02*
X82569428Y-156785571D01*
X83426571Y-158285571D01*
X83426571Y-156785571D01*
X84998000Y-158142714D02*
X84926571Y-158214142D01*
X84712285Y-158285571D01*
X84569428Y-158285571D01*
X84355142Y-158214142D01*
X84212285Y-158071285D01*
X84140857Y-157928428D01*
X84069428Y-157642714D01*
X84069428Y-157428428D01*
X84140857Y-157142714D01*
X84212285Y-156999857D01*
X84355142Y-156857000D01*
X84569428Y-156785571D01*
X84712285Y-156785571D01*
X84926571Y-156857000D01*
X84998000Y-156928428D01*
X85640857Y-158285571D02*
X85640857Y-156785571D01*
X85640857Y-157499857D02*
X86498000Y-157499857D01*
X86498000Y-158285571D02*
X86498000Y-156785571D01*
D13*
X72414571Y-38187142D02*
X72414571Y-35187142D01*
X73414571Y-37330000D01*
X74414571Y-35187142D01*
X74414571Y-38187142D01*
X75700285Y-37330000D02*
X77128857Y-37330000D01*
X75414571Y-38187142D02*
X76414571Y-35187142D01*
X77414571Y-38187142D01*
X80128857Y-37901428D02*
X79986000Y-38044285D01*
X79557428Y-38187142D01*
X79271714Y-38187142D01*
X78843142Y-38044285D01*
X78557428Y-37758571D01*
X78414571Y-37472857D01*
X78271714Y-36901428D01*
X78271714Y-36472857D01*
X78414571Y-35901428D01*
X78557428Y-35615714D01*
X78843142Y-35330000D01*
X79271714Y-35187142D01*
X79557428Y-35187142D01*
X79986000Y-35330000D01*
X80128857Y-35472857D01*
X81414571Y-38187142D02*
X81414571Y-36187142D01*
X81414571Y-36758571D02*
X81557428Y-36472857D01*
X81700285Y-36330000D01*
X81986000Y-36187142D01*
X82271714Y-36187142D01*
X83700285Y-38187142D02*
X83414571Y-38044285D01*
X83271714Y-37901428D01*
X83128857Y-37615714D01*
X83128857Y-36758571D01*
X83271714Y-36472857D01*
X83414571Y-36330000D01*
X83700285Y-36187142D01*
X84128857Y-36187142D01*
X84414571Y-36330000D01*
X84557428Y-36472857D01*
X84700285Y-36758571D01*
X84700285Y-37615714D01*
X84557428Y-37901428D01*
X84414571Y-38044285D01*
X84128857Y-38187142D01*
X83700285Y-38187142D01*
D14*
X62937761Y-45822904D02*
X62937761Y-40822904D01*
X64128238Y-40822904D01*
X64842523Y-41061000D01*
X65318714Y-41537190D01*
X65556809Y-42013380D01*
X65794904Y-42965761D01*
X65794904Y-43680047D01*
X65556809Y-44632428D01*
X65318714Y-45108619D01*
X64842523Y-45584809D01*
X64128238Y-45822904D01*
X62937761Y-45822904D01*
X67699666Y-44394333D02*
X70080619Y-44394333D01*
X67223476Y-45822904D02*
X68890142Y-40822904D01*
X70556809Y-45822904D01*
X72223476Y-45822904D02*
X72223476Y-40822904D01*
X73413952Y-40822904D01*
X74128238Y-41061000D01*
X74604428Y-41537190D01*
X74842523Y-42013380D01*
X75080619Y-42965761D01*
X75080619Y-43680047D01*
X74842523Y-44632428D01*
X74604428Y-45108619D01*
X74128238Y-45584809D01*
X73413952Y-45822904D01*
X72223476Y-45822904D01*
X77223476Y-45822904D02*
X77223476Y-40822904D01*
X78413952Y-40822904D01*
X79128238Y-41061000D01*
X79604428Y-41537190D01*
X79842523Y-42013380D01*
X80080619Y-42965761D01*
X80080619Y-43680047D01*
X79842523Y-44632428D01*
X79604428Y-45108619D01*
X79128238Y-45584809D01*
X78413952Y-45822904D01*
X77223476Y-45822904D01*
X83175857Y-43441952D02*
X83175857Y-45822904D01*
X81509190Y-40822904D02*
X83175857Y-43441952D01*
X84842523Y-40822904D01*
M02*
