%TF.GenerationSoftware,KiCad,Pcbnew,8.0.0*%
%TF.CreationDate,2024-10-31T11:27:09-04:00*%
%TF.ProjectId,Speaker Module Panel,53706561-6b65-4722-904d-6f64756c6520,rev?*%
%TF.SameCoordinates,Original*%
%TF.FileFunction,Legend,Top*%
%TF.FilePolarity,Positive*%
%FSLAX46Y46*%
G04 Gerber Fmt 4.6, Leading zero omitted, Abs format (unit mm)*
G04 Created by KiCad (PCBNEW 8.0.0) date 2024-10-31 11:27:09*
%MOMM*%
%LPD*%
G01*
G04 APERTURE LIST*
%ADD10C,0.300000*%
%ADD11C,0.250000*%
G04 APERTURE END LIST*
D10*
G36*
X109836584Y-160466418D02*
G01*
X109726930Y-160392630D01*
X109593475Y-160322509D01*
X109465964Y-160273565D01*
X109323709Y-160237663D01*
X109177092Y-160219313D01*
X109088101Y-160216484D01*
X108937812Y-160224447D01*
X108794705Y-160251788D01*
X108659527Y-160303683D01*
X108533023Y-160385309D01*
X108464916Y-160447294D01*
X108377236Y-160553728D01*
X108312609Y-160669628D01*
X108270038Y-160794996D01*
X108248532Y-160929830D01*
X108245317Y-161011129D01*
X108255900Y-161150467D01*
X108290590Y-161278208D01*
X108362134Y-161404697D01*
X108396332Y-161444391D01*
X108508890Y-161535534D01*
X108634583Y-161599559D01*
X108748482Y-161642887D01*
X108956210Y-161714108D01*
X109084019Y-161762743D01*
X109204720Y-161820604D01*
X109250987Y-161851935D01*
X109328472Y-161962502D01*
X109338035Y-162031307D01*
X109304585Y-162164407D01*
X109247030Y-162233759D01*
X109129460Y-162297932D01*
X108997143Y-162319301D01*
X108982588Y-162319489D01*
X108846286Y-162304752D01*
X108720493Y-162260364D01*
X108664731Y-162229803D01*
X108554080Y-162149114D01*
X108449564Y-162057562D01*
X108430624Y-162039220D01*
X108127934Y-162452039D01*
X108230070Y-162544875D01*
X108337413Y-162628413D01*
X108449598Y-162701350D01*
X108498548Y-162727692D01*
X108633143Y-162782529D01*
X108770731Y-162815849D01*
X108914305Y-162831172D01*
X108997756Y-162833205D01*
X109148112Y-162826043D01*
X109285263Y-162804481D01*
X109431838Y-162760722D01*
X109553731Y-162701902D01*
X109669019Y-162618137D01*
X109711946Y-162576676D01*
X109802797Y-162458490D01*
X109865866Y-162331870D01*
X109910350Y-162187322D01*
X109931333Y-162051855D01*
X109935502Y-161956788D01*
X109922143Y-161812578D01*
X109880280Y-161677217D01*
X109811428Y-161560816D01*
X109750195Y-161493191D01*
X109637958Y-161409036D01*
X109514516Y-161346067D01*
X109405959Y-161302608D01*
X109216695Y-161231387D01*
X109091723Y-161186016D01*
X108965681Y-161134575D01*
X108899497Y-161089604D01*
X108843272Y-160967599D01*
X108842784Y-160951118D01*
X108883851Y-160821369D01*
X108906751Y-160794168D01*
X109025536Y-160723359D01*
X109152728Y-160708438D01*
X109293648Y-160727080D01*
X109424232Y-160779927D01*
X109540944Y-160858084D01*
X109576099Y-160887810D01*
X109836584Y-160466418D01*
G37*
G36*
X111367950Y-160262663D02*
G01*
X111516753Y-160281579D01*
X111664498Y-160322896D01*
X111787311Y-160381729D01*
X111903977Y-160467078D01*
X111976459Y-160540500D01*
X112056582Y-160658195D01*
X112113996Y-160800405D01*
X112141845Y-160939567D01*
X112149954Y-161083669D01*
X112148568Y-161142340D01*
X112129521Y-161299074D01*
X112085252Y-161448044D01*
X112016995Y-161578530D01*
X111934312Y-161681795D01*
X111836231Y-161764641D01*
X111711031Y-161833495D01*
X111583288Y-161875267D01*
X111439009Y-161898612D01*
X111292002Y-161904691D01*
X110936556Y-161904691D01*
X110936556Y-162791000D01*
X110354256Y-162791000D01*
X110354256Y-160735476D01*
X110936556Y-160735476D01*
X110936556Y-161428564D01*
X111144284Y-161428564D01*
X111203895Y-161427119D01*
X111338289Y-161403480D01*
X111458185Y-161332943D01*
X111463097Y-161327833D01*
X111531171Y-161211857D01*
X111552487Y-161080371D01*
X111529611Y-160943448D01*
X111458185Y-160831097D01*
X111405578Y-160790928D01*
X111273591Y-160745183D01*
X111133073Y-160735476D01*
X110936556Y-160735476D01*
X110354256Y-160735476D01*
X110354256Y-160258690D01*
X111242543Y-160258690D01*
X111367950Y-160262663D01*
G37*
G36*
X113939717Y-160258690D02*
G01*
X112514633Y-160258690D01*
X112514633Y-162791000D01*
X113939717Y-162791000D01*
X113939717Y-162299705D01*
X113096933Y-162299705D01*
X113096933Y-161735870D01*
X113898171Y-161735870D01*
X113898171Y-161244576D01*
X113096933Y-161244576D01*
X113096933Y-160750644D01*
X113939717Y-160750644D01*
X113939717Y-160258690D01*
G37*
G36*
X116687009Y-162791000D02*
G01*
X116082288Y-162791000D01*
X115893025Y-162308937D01*
X114940771Y-162308937D01*
X114747550Y-162791000D01*
X114142829Y-162791000D01*
X114515686Y-161862486D01*
X115110251Y-161862486D01*
X115734096Y-161862486D01*
X115424152Y-161013766D01*
X115110251Y-161862486D01*
X114515686Y-161862486D01*
X115159710Y-160258690D01*
X115692550Y-160258690D01*
X116687009Y-162791000D01*
G37*
G36*
X117552215Y-160258690D02*
G01*
X116969916Y-160258690D01*
X116969916Y-162791000D01*
X117552215Y-162791000D01*
X117552215Y-161667287D01*
X118455669Y-162791000D01*
X119204152Y-162791000D01*
X118104180Y-161458899D01*
X119124357Y-160258690D01*
X118414124Y-160258690D01*
X117552215Y-161314478D01*
X117552215Y-160258690D01*
G37*
G36*
X120927309Y-160258690D02*
G01*
X119502226Y-160258690D01*
X119502226Y-162791000D01*
X120927309Y-162791000D01*
X120927309Y-162299705D01*
X120084525Y-162299705D01*
X120084525Y-161735870D01*
X120885764Y-161735870D01*
X120885764Y-161244576D01*
X120084525Y-161244576D01*
X120084525Y-160750644D01*
X120927309Y-160750644D01*
X120927309Y-160258690D01*
G37*
G36*
X122425231Y-160266089D02*
G01*
X122573541Y-160292309D01*
X122699273Y-160333753D01*
X122819720Y-160396124D01*
X122926120Y-160478288D01*
X122955904Y-160509121D01*
X123041761Y-160627361D01*
X123097035Y-160747222D01*
X123133896Y-160892761D01*
X123145059Y-161038826D01*
X123134950Y-161178959D01*
X123102246Y-161310408D01*
X123037881Y-161441254D01*
X122948541Y-161549904D01*
X122846358Y-161631601D01*
X122722990Y-161699637D01*
X122597051Y-161742465D01*
X123371912Y-162791000D01*
X122661678Y-162791000D01*
X121981120Y-161780713D01*
X121981120Y-162791000D01*
X121398820Y-162791000D01*
X121398820Y-160712395D01*
X121981120Y-160712395D01*
X121981120Y-161398229D01*
X122113011Y-161398229D01*
X122209665Y-161393911D01*
X122347119Y-161362684D01*
X122461203Y-161290078D01*
X122530568Y-161183390D01*
X122555505Y-161046080D01*
X122555309Y-161032924D01*
X122523736Y-160895532D01*
X122438122Y-160791530D01*
X122379965Y-160757780D01*
X122248628Y-160721578D01*
X122116967Y-160712395D01*
X121981120Y-160712395D01*
X121398820Y-160712395D01*
X121398820Y-160258690D01*
X122283150Y-160258690D01*
X122425231Y-160266089D01*
G37*
D11*
G36*
X109850949Y-164333175D02*
G01*
X109850949Y-164114528D01*
X109104739Y-164114528D01*
X109104739Y-164333175D01*
X109348591Y-164333175D01*
X109348591Y-165240000D01*
X109607097Y-165240000D01*
X109607097Y-164333175D01*
X109850949Y-164333175D01*
G37*
G36*
X109889051Y-165240000D02*
G01*
X110130852Y-165240000D01*
X110130852Y-164935478D01*
X110133653Y-164871701D01*
X110145324Y-164812068D01*
X110171748Y-164755795D01*
X110189763Y-164733244D01*
X110238301Y-164697719D01*
X110296270Y-164683315D01*
X110310517Y-164682833D01*
X110369025Y-164689940D01*
X110419840Y-164709797D01*
X110433322Y-164482944D01*
X110375620Y-164471610D01*
X110354187Y-164470928D01*
X110295205Y-164475780D01*
X110236351Y-164496263D01*
X110224934Y-164502875D01*
X110177701Y-164541635D01*
X110139619Y-164591672D01*
X110130852Y-164607215D01*
X110130852Y-164489685D01*
X109889051Y-164489685D01*
X109889051Y-165240000D01*
G37*
G36*
X110859583Y-164471122D02*
G01*
X110923832Y-164478914D01*
X110986742Y-164500359D01*
X111040699Y-164535225D01*
X111082519Y-164580251D01*
X111082519Y-164489685D01*
X111324320Y-164489685D01*
X111324320Y-165240000D01*
X111082519Y-165240000D01*
X111082519Y-165142986D01*
X111069891Y-165160902D01*
X111028893Y-165203610D01*
X110977674Y-165235467D01*
X110919314Y-165253632D01*
X110860649Y-165258757D01*
X110811440Y-165256674D01*
X110746347Y-165245712D01*
X110685188Y-165223433D01*
X110627411Y-165187700D01*
X110580161Y-165144745D01*
X110546678Y-165104577D01*
X110515272Y-165054628D01*
X110489838Y-164994399D01*
X110475401Y-164932607D01*
X110470838Y-164869825D01*
X110471303Y-164863377D01*
X110719672Y-164863377D01*
X110720937Y-164886712D01*
X110736635Y-164944270D01*
X110770084Y-164993510D01*
X110794560Y-165014253D01*
X110851351Y-165041621D01*
X110912820Y-165050662D01*
X110930893Y-165049758D01*
X110990036Y-165033483D01*
X111038849Y-164999958D01*
X111058869Y-164978406D01*
X111087544Y-164926041D01*
X111097760Y-164863377D01*
X111095660Y-164834458D01*
X111077415Y-164776619D01*
X111042073Y-164729727D01*
X111023640Y-164715074D01*
X110968643Y-164688839D01*
X110907837Y-164679316D01*
X110883690Y-164680819D01*
X110825486Y-164697364D01*
X110775067Y-164731486D01*
X110758178Y-164750105D01*
X110728945Y-164804099D01*
X110719672Y-164863377D01*
X110471303Y-164863377D01*
X110475646Y-164803106D01*
X110489400Y-164740649D01*
X110511091Y-164683254D01*
X110545082Y-164623757D01*
X110586902Y-164573510D01*
X110612667Y-164550337D01*
X110662973Y-164516451D01*
X110719304Y-164491541D01*
X110780941Y-164476176D01*
X110847167Y-164470928D01*
X110859583Y-164471122D01*
G37*
G36*
X111512778Y-165240000D02*
G01*
X111754578Y-165240000D01*
X111754578Y-164855757D01*
X111759704Y-164795126D01*
X111782235Y-164736935D01*
X111801473Y-164713021D01*
X111853187Y-164680040D01*
X111902296Y-164672575D01*
X111960905Y-164683677D01*
X111994913Y-164706280D01*
X112024619Y-164757748D01*
X112034233Y-164817316D01*
X112035067Y-164855757D01*
X112035067Y-165240000D01*
X112277160Y-165240000D01*
X112277160Y-164766657D01*
X112273849Y-164703079D01*
X112259191Y-164638610D01*
X112230076Y-164580828D01*
X112201543Y-164546545D01*
X112150206Y-164507898D01*
X112094637Y-164484886D01*
X112031923Y-164473067D01*
X111986413Y-164470928D01*
X111923522Y-164475959D01*
X111864220Y-164493368D01*
X111812029Y-164523478D01*
X111768577Y-164563519D01*
X111754578Y-164580251D01*
X111754578Y-164489685D01*
X111512778Y-164489685D01*
X111512778Y-165240000D01*
G37*
G36*
X113000217Y-164534822D02*
G01*
X112944875Y-164507172D01*
X112887137Y-164487567D01*
X112828758Y-164475965D01*
X112761964Y-164471011D01*
X112751675Y-164470928D01*
X112689361Y-164474909D01*
X112630147Y-164487616D01*
X112571798Y-164512385D01*
X112524822Y-164546545D01*
X112485645Y-164594916D01*
X112462051Y-164649108D01*
X112452513Y-164711146D01*
X112452429Y-164717711D01*
X112461559Y-164778741D01*
X112491082Y-164832889D01*
X112506358Y-164850188D01*
X112554753Y-164885888D01*
X112610975Y-164911617D01*
X112627404Y-164917013D01*
X112687781Y-164934891D01*
X112744191Y-164952743D01*
X112761640Y-164961270D01*
X112788605Y-165003768D01*
X112763399Y-165050956D01*
X112705255Y-165067004D01*
X112687781Y-165067369D01*
X112628447Y-165059813D01*
X112586958Y-165044508D01*
X112534316Y-165013258D01*
X112504599Y-164990579D01*
X112402017Y-165151486D01*
X112458020Y-165193166D01*
X112515696Y-165223037D01*
X112574245Y-165242769D01*
X112632868Y-165254031D01*
X112700287Y-165258693D01*
X112709763Y-165258757D01*
X112770653Y-165255771D01*
X112833301Y-165243663D01*
X112895070Y-165217706D01*
X112946323Y-165179918D01*
X112953322Y-165173175D01*
X112992395Y-165122474D01*
X113017115Y-165067281D01*
X113029298Y-165005480D01*
X113030405Y-164979148D01*
X113022081Y-164916612D01*
X112993413Y-164862856D01*
X112971787Y-164840223D01*
X112922621Y-164806319D01*
X112867265Y-164782979D01*
X112847516Y-164776622D01*
X112783622Y-164756985D01*
X112727447Y-164739756D01*
X112711228Y-164732365D01*
X112687781Y-164699832D01*
X112703022Y-164667006D01*
X112759892Y-164646382D01*
X112771898Y-164645903D01*
X112833328Y-164655658D01*
X112890004Y-164678834D01*
X112904376Y-164686643D01*
X113000217Y-164534822D01*
G37*
G36*
X113991452Y-165240000D02*
G01*
X113749651Y-165240000D01*
X113749651Y-165142986D01*
X113742365Y-165153125D01*
X113699426Y-165198442D01*
X113644520Y-165232729D01*
X113580826Y-165252670D01*
X113512834Y-165258757D01*
X113472577Y-165257115D01*
X113408467Y-165246420D01*
X113351604Y-165225946D01*
X113301032Y-165195895D01*
X113255792Y-165156468D01*
X113241718Y-165141642D01*
X113204739Y-165093582D01*
X113175736Y-165040761D01*
X113154848Y-164983968D01*
X113142212Y-164923991D01*
X113138309Y-164866601D01*
X113386804Y-164866601D01*
X113389200Y-164896037D01*
X113409148Y-164953602D01*
X113445422Y-164999958D01*
X113456134Y-165009132D01*
X113510738Y-165039692D01*
X113571452Y-165050662D01*
X113597744Y-165048821D01*
X113656331Y-165033165D01*
X113709205Y-165003768D01*
X113725010Y-164986967D01*
X113754846Y-164932899D01*
X113764892Y-164870704D01*
X113763129Y-164842581D01*
X113746803Y-164785978D01*
X113710963Y-164734417D01*
X113688517Y-164714530D01*
X113635108Y-164687490D01*
X113574969Y-164679316D01*
X113552624Y-164680317D01*
X113494511Y-164695228D01*
X113445422Y-164728262D01*
X113424147Y-164751682D01*
X113396078Y-164805648D01*
X113386804Y-164866601D01*
X113138309Y-164866601D01*
X113137970Y-164861618D01*
X113142639Y-164796039D01*
X113156161Y-164735127D01*
X113177805Y-164679346D01*
X113212348Y-164621373D01*
X113255792Y-164571751D01*
X113281545Y-164549579D01*
X113332142Y-164516605D01*
X113388830Y-164491867D01*
X113450503Y-164476322D01*
X113516058Y-164470928D01*
X113531590Y-164471251D01*
X113594569Y-164479695D01*
X113656168Y-164501583D01*
X113706061Y-164533857D01*
X113749651Y-164580251D01*
X113749651Y-164020739D01*
X113991452Y-164020739D01*
X113991452Y-165240000D01*
G37*
G36*
X114202478Y-164489685D02*
G01*
X114202478Y-165240000D01*
X114444278Y-165240000D01*
X114444278Y-164489685D01*
X114202478Y-164489685D01*
G37*
G36*
X114182254Y-164162009D02*
G01*
X114195995Y-164223613D01*
X114233201Y-164271285D01*
X114287847Y-164298882D01*
X114323524Y-164303279D01*
X114385072Y-164289488D01*
X114432626Y-164252211D01*
X114460124Y-164197589D01*
X114464501Y-164162009D01*
X114450767Y-164100405D01*
X114413607Y-164052733D01*
X114359084Y-164025136D01*
X114323524Y-164020739D01*
X114261793Y-164034530D01*
X114214154Y-164071808D01*
X114186633Y-164126430D01*
X114182254Y-164162009D01*
G37*
G36*
X114648856Y-165240000D02*
G01*
X114890656Y-165240000D01*
X114890656Y-164856343D01*
X114895151Y-164797511D01*
X114913722Y-164736484D01*
X114937551Y-164703056D01*
X114990017Y-164675790D01*
X115021668Y-164672575D01*
X115080040Y-164686192D01*
X115102268Y-164703056D01*
X115132103Y-164756923D01*
X115140354Y-164815465D01*
X115140956Y-164849602D01*
X115140956Y-165240000D01*
X115383050Y-165240000D01*
X115383050Y-164866308D01*
X115386991Y-164803647D01*
X115402655Y-164747040D01*
X115419979Y-164718297D01*
X115468577Y-164681154D01*
X115514062Y-164672575D01*
X115571521Y-164687589D01*
X115601403Y-164713021D01*
X115625550Y-164766963D01*
X115632851Y-164826035D01*
X115633350Y-164859567D01*
X115633350Y-165240000D01*
X115875150Y-165240000D01*
X115875150Y-164765191D01*
X115871785Y-164703430D01*
X115859310Y-164643800D01*
X115831797Y-164583180D01*
X115797774Y-164541563D01*
X115747343Y-164505829D01*
X115689326Y-164483590D01*
X115629123Y-164472863D01*
X115587921Y-164470928D01*
X115525247Y-164475858D01*
X115466869Y-164493061D01*
X115428186Y-164513133D01*
X115381442Y-164548687D01*
X115342062Y-164594379D01*
X115332638Y-164608974D01*
X115302520Y-164558248D01*
X115259402Y-164516007D01*
X115241780Y-164504633D01*
X115183366Y-164480702D01*
X115125114Y-164471675D01*
X115100803Y-164470928D01*
X115039253Y-164476586D01*
X114983474Y-164494801D01*
X114928225Y-164532299D01*
X114890656Y-164577027D01*
X114890656Y-164489685D01*
X114648856Y-164489685D01*
X114648856Y-165240000D01*
G37*
G36*
X116445575Y-164471123D02*
G01*
X116507663Y-164476038D01*
X116565257Y-164487887D01*
X116624150Y-164509588D01*
X116681744Y-164543794D01*
X116726874Y-164583768D01*
X116769724Y-164638012D01*
X116799507Y-164694999D01*
X116818424Y-164752899D01*
X116829699Y-164819157D01*
X116832680Y-164881256D01*
X116832680Y-164905582D01*
X116273168Y-164905582D01*
X116273882Y-164920864D01*
X116287583Y-164978482D01*
X116318598Y-165029853D01*
X116325673Y-165036842D01*
X116380733Y-165067588D01*
X116442868Y-165075868D01*
X116482688Y-165072963D01*
X116540468Y-165054473D01*
X116556470Y-165042465D01*
X116592345Y-164994096D01*
X116820956Y-165016957D01*
X116798848Y-165070511D01*
X116767147Y-165121118D01*
X116727500Y-165164787D01*
X116676462Y-165203363D01*
X116620830Y-165230442D01*
X116562450Y-165247437D01*
X116501871Y-165256243D01*
X116439644Y-165258757D01*
X116418699Y-165258512D01*
X116357730Y-165254279D01*
X116299496Y-165243337D01*
X116243917Y-165223810D01*
X116190911Y-165193819D01*
X116140398Y-165151486D01*
X116105741Y-165111324D01*
X116071684Y-165056542D01*
X116046228Y-164993626D01*
X116032637Y-164933545D01*
X116027851Y-164868066D01*
X116028304Y-164848418D01*
X116035078Y-164789518D01*
X116041401Y-164764898D01*
X116281668Y-164764898D01*
X116609344Y-164764898D01*
X116596083Y-164729191D01*
X116560691Y-164679902D01*
X116558129Y-164677645D01*
X116504373Y-164647875D01*
X116446386Y-164639162D01*
X116435028Y-164639441D01*
X116374385Y-164652571D01*
X116323580Y-164686643D01*
X116305495Y-164709179D01*
X116281668Y-164764898D01*
X116041401Y-164764898D01*
X116049919Y-164731731D01*
X116072759Y-164676401D01*
X116103528Y-164624873D01*
X116142157Y-164578492D01*
X116195220Y-164534935D01*
X116250864Y-164504659D01*
X116307095Y-164485426D01*
X116370781Y-164473960D01*
X116429386Y-164470928D01*
X116445575Y-164471123D01*
G37*
G36*
X116983036Y-165240000D02*
G01*
X117224836Y-165240000D01*
X117224836Y-164855757D01*
X117229962Y-164795126D01*
X117252493Y-164736935D01*
X117271731Y-164713021D01*
X117323446Y-164680040D01*
X117372554Y-164672575D01*
X117431163Y-164683677D01*
X117465171Y-164706280D01*
X117494878Y-164757748D01*
X117504491Y-164817316D01*
X117505325Y-164855757D01*
X117505325Y-165240000D01*
X117747418Y-165240000D01*
X117747418Y-164766657D01*
X117744107Y-164703079D01*
X117729449Y-164638610D01*
X117700334Y-164580828D01*
X117671801Y-164546545D01*
X117620464Y-164507898D01*
X117564896Y-164484886D01*
X117502181Y-164473067D01*
X117456672Y-164470928D01*
X117393780Y-164475959D01*
X117334478Y-164493368D01*
X117282287Y-164523478D01*
X117238836Y-164563519D01*
X117224836Y-164580251D01*
X117224836Y-164489685D01*
X116983036Y-164489685D01*
X116983036Y-165240000D01*
G37*
G36*
X118470475Y-164534822D02*
G01*
X118415133Y-164507172D01*
X118357395Y-164487567D01*
X118299016Y-164475965D01*
X118232222Y-164471011D01*
X118221933Y-164470928D01*
X118159620Y-164474909D01*
X118100405Y-164487616D01*
X118042056Y-164512385D01*
X117995081Y-164546545D01*
X117955904Y-164594916D01*
X117932310Y-164649108D01*
X117922771Y-164711146D01*
X117922687Y-164717711D01*
X117931817Y-164778741D01*
X117961340Y-164832889D01*
X117976616Y-164850188D01*
X118025012Y-164885888D01*
X118081233Y-164911617D01*
X118097663Y-164917013D01*
X118158039Y-164934891D01*
X118214449Y-164952743D01*
X118231898Y-164961270D01*
X118258863Y-165003768D01*
X118233657Y-165050956D01*
X118175513Y-165067004D01*
X118158039Y-165067369D01*
X118098706Y-165059813D01*
X118057216Y-165044508D01*
X118004574Y-165013258D01*
X117974857Y-164990579D01*
X117872275Y-165151486D01*
X117928278Y-165193166D01*
X117985954Y-165223037D01*
X118044503Y-165242769D01*
X118103126Y-165254031D01*
X118170545Y-165258693D01*
X118180021Y-165258757D01*
X118240911Y-165255771D01*
X118303559Y-165243663D01*
X118365328Y-165217706D01*
X118416581Y-165179918D01*
X118423580Y-165173175D01*
X118462653Y-165122474D01*
X118487373Y-165067281D01*
X118499556Y-165005480D01*
X118500663Y-164979148D01*
X118492339Y-164916612D01*
X118463671Y-164862856D01*
X118442045Y-164840223D01*
X118392879Y-164806319D01*
X118337524Y-164782979D01*
X118317774Y-164776622D01*
X118253880Y-164756985D01*
X118197706Y-164739756D01*
X118181487Y-164732365D01*
X118158039Y-164699832D01*
X118173280Y-164667006D01*
X118230150Y-164646382D01*
X118242157Y-164645903D01*
X118303587Y-164655658D01*
X118360262Y-164678834D01*
X118374634Y-164686643D01*
X118470475Y-164534822D01*
G37*
G36*
X118662157Y-164489685D02*
G01*
X118662157Y-165240000D01*
X118903957Y-165240000D01*
X118903957Y-164489685D01*
X118662157Y-164489685D01*
G37*
G36*
X118641933Y-164162009D02*
G01*
X118655674Y-164223613D01*
X118692880Y-164271285D01*
X118747526Y-164298882D01*
X118783203Y-164303279D01*
X118844751Y-164289488D01*
X118892305Y-164252211D01*
X118919803Y-164197589D01*
X118924180Y-164162009D01*
X118910446Y-164100405D01*
X118873286Y-164052733D01*
X118818763Y-164025136D01*
X118783203Y-164020739D01*
X118721472Y-164034530D01*
X118673833Y-164071808D01*
X118646312Y-164126430D01*
X118641933Y-164162009D01*
G37*
G36*
X119551814Y-164472316D02*
G01*
X119614997Y-164480403D01*
X119672942Y-164494897D01*
X119735070Y-164519436D01*
X119788551Y-164550248D01*
X119839212Y-164591974D01*
X119865758Y-164621611D01*
X119903549Y-164678574D01*
X119930406Y-164739819D01*
X119946439Y-164802767D01*
X119951759Y-164864842D01*
X119949047Y-164909097D01*
X119936086Y-164972164D01*
X119912333Y-165034210D01*
X119877678Y-165092677D01*
X119839212Y-165138004D01*
X119811860Y-165162463D01*
X119762929Y-165195751D01*
X119705049Y-165223550D01*
X119638823Y-165244269D01*
X119577693Y-165254982D01*
X119511536Y-165258757D01*
X119471332Y-165257376D01*
X119408239Y-165249328D01*
X119350342Y-165234894D01*
X119288213Y-165210436D01*
X119234670Y-165179694D01*
X119183859Y-165138004D01*
X119157397Y-165108367D01*
X119119652Y-165051392D01*
X119092760Y-164990107D01*
X119076665Y-164927071D01*
X119071312Y-164864842D01*
X119320147Y-164864842D01*
X119322025Y-164894421D01*
X119339154Y-164952154D01*
X119375541Y-165001716D01*
X119400816Y-165022233D01*
X119454299Y-165046449D01*
X119513294Y-165053886D01*
X119537828Y-165052583D01*
X119595702Y-165037177D01*
X119647823Y-165001716D01*
X119668703Y-164977922D01*
X119694964Y-164925074D01*
X119703217Y-164864842D01*
X119701756Y-164838421D01*
X119684960Y-164779000D01*
X119647823Y-164728262D01*
X119626824Y-164710714D01*
X119574113Y-164684845D01*
X119511536Y-164676092D01*
X119486300Y-164677395D01*
X119427569Y-164692801D01*
X119375541Y-164728262D01*
X119354661Y-164752053D01*
X119328400Y-164804832D01*
X119320147Y-164864842D01*
X119071312Y-164864842D01*
X119074042Y-164820705D01*
X119087062Y-164757743D01*
X119110864Y-164695749D01*
X119145502Y-164637299D01*
X119183859Y-164591974D01*
X119211307Y-164567503D01*
X119260331Y-164534159D01*
X119318242Y-164506282D01*
X119384437Y-164485484D01*
X119445494Y-164474722D01*
X119511536Y-164470928D01*
X119551814Y-164472316D01*
G37*
G36*
X120102701Y-165240000D02*
G01*
X120344501Y-165240000D01*
X120344501Y-164855757D01*
X120349627Y-164795126D01*
X120372158Y-164736935D01*
X120391396Y-164713021D01*
X120443111Y-164680040D01*
X120492219Y-164672575D01*
X120550828Y-164683677D01*
X120584836Y-164706280D01*
X120614543Y-164757748D01*
X120624156Y-164817316D01*
X120624990Y-164855757D01*
X120624990Y-165240000D01*
X120867083Y-165240000D01*
X120867083Y-164766657D01*
X120863772Y-164703079D01*
X120849114Y-164638610D01*
X120819999Y-164580828D01*
X120791466Y-164546545D01*
X120740129Y-164507898D01*
X120684561Y-164484886D01*
X120621847Y-164473067D01*
X120576337Y-164470928D01*
X120513446Y-164475959D01*
X120454144Y-164493368D01*
X120401952Y-164523478D01*
X120358501Y-164563519D01*
X120344501Y-164580251D01*
X120344501Y-164489685D01*
X120102701Y-164489685D01*
X120102701Y-165240000D01*
G37*
G36*
X121406184Y-164471122D02*
G01*
X121470433Y-164478914D01*
X121533343Y-164500359D01*
X121587300Y-164535225D01*
X121629121Y-164580251D01*
X121629121Y-164489685D01*
X121870921Y-164489685D01*
X121870921Y-165240000D01*
X121629121Y-165240000D01*
X121629121Y-165142986D01*
X121616493Y-165160902D01*
X121575494Y-165203610D01*
X121524275Y-165235467D01*
X121465915Y-165253632D01*
X121407251Y-165258757D01*
X121358041Y-165256674D01*
X121292949Y-165245712D01*
X121231790Y-165223433D01*
X121174013Y-165187700D01*
X121126762Y-165144745D01*
X121093279Y-165104577D01*
X121061874Y-165054628D01*
X121036439Y-164994399D01*
X121022002Y-164932607D01*
X121017439Y-164869825D01*
X121017904Y-164863377D01*
X121266274Y-164863377D01*
X121267538Y-164886712D01*
X121283237Y-164944270D01*
X121316686Y-164993510D01*
X121341161Y-165014253D01*
X121397953Y-165041621D01*
X121459421Y-165050662D01*
X121477495Y-165049758D01*
X121536637Y-165033483D01*
X121585450Y-164999958D01*
X121605470Y-164978406D01*
X121634145Y-164926041D01*
X121644362Y-164863377D01*
X121642262Y-164834458D01*
X121624016Y-164776619D01*
X121588674Y-164729727D01*
X121570242Y-164715074D01*
X121515245Y-164688839D01*
X121454439Y-164679316D01*
X121430292Y-164680819D01*
X121372087Y-164697364D01*
X121321668Y-164731486D01*
X121304780Y-164750105D01*
X121275547Y-164804099D01*
X121266274Y-164863377D01*
X121017904Y-164863377D01*
X121022248Y-164803106D01*
X121036002Y-164740649D01*
X121057692Y-164683254D01*
X121091684Y-164623757D01*
X121133503Y-164573510D01*
X121159269Y-164550337D01*
X121209575Y-164516451D01*
X121265905Y-164491541D01*
X121327543Y-164476176D01*
X121393769Y-164470928D01*
X121406184Y-164471122D01*
G37*
G36*
X122065827Y-164020739D02*
G01*
X122065827Y-165240000D01*
X122307921Y-165240000D01*
X122307921Y-164020739D01*
X122065827Y-164020739D01*
G37*
G36*
X109890809Y-166349175D02*
G01*
X109890809Y-166130528D01*
X109144599Y-166130528D01*
X109144599Y-166349175D01*
X109388451Y-166349175D01*
X109388451Y-167256000D01*
X109646957Y-167256000D01*
X109646957Y-166349175D01*
X109890809Y-166349175D01*
G37*
G36*
X109928911Y-167256000D02*
G01*
X110170712Y-167256000D01*
X110170712Y-166951478D01*
X110173513Y-166887701D01*
X110185184Y-166828068D01*
X110211608Y-166771795D01*
X110229623Y-166749244D01*
X110278161Y-166713719D01*
X110336130Y-166699315D01*
X110350377Y-166698833D01*
X110408885Y-166705940D01*
X110459700Y-166725797D01*
X110473182Y-166498944D01*
X110415480Y-166487610D01*
X110394047Y-166486928D01*
X110335065Y-166491780D01*
X110276211Y-166512263D01*
X110264794Y-166518875D01*
X110217561Y-166557635D01*
X110179479Y-166607672D01*
X110170712Y-166623215D01*
X110170712Y-166505685D01*
X109928911Y-166505685D01*
X109928911Y-167256000D01*
G37*
G36*
X110899443Y-166487122D02*
G01*
X110963692Y-166494914D01*
X111026602Y-166516359D01*
X111080559Y-166551225D01*
X111122379Y-166596251D01*
X111122379Y-166505685D01*
X111364180Y-166505685D01*
X111364180Y-167256000D01*
X111122379Y-167256000D01*
X111122379Y-167158986D01*
X111109751Y-167176902D01*
X111068753Y-167219610D01*
X111017534Y-167251467D01*
X110959174Y-167269632D01*
X110900509Y-167274757D01*
X110851300Y-167272674D01*
X110786207Y-167261712D01*
X110725048Y-167239433D01*
X110667271Y-167203700D01*
X110620021Y-167160745D01*
X110586538Y-167120577D01*
X110555132Y-167070628D01*
X110529698Y-167010399D01*
X110515261Y-166948607D01*
X110510698Y-166885825D01*
X110511163Y-166879377D01*
X110759532Y-166879377D01*
X110760797Y-166902712D01*
X110776495Y-166960270D01*
X110809944Y-167009510D01*
X110834420Y-167030253D01*
X110891211Y-167057621D01*
X110952680Y-167066662D01*
X110970753Y-167065758D01*
X111029896Y-167049483D01*
X111078709Y-167015958D01*
X111098729Y-166994406D01*
X111127404Y-166942041D01*
X111137620Y-166879377D01*
X111135520Y-166850458D01*
X111117275Y-166792619D01*
X111081933Y-166745727D01*
X111063500Y-166731074D01*
X111008503Y-166704839D01*
X110947697Y-166695316D01*
X110923550Y-166696819D01*
X110865346Y-166713364D01*
X110814927Y-166747486D01*
X110798038Y-166766105D01*
X110768805Y-166820099D01*
X110759532Y-166879377D01*
X110511163Y-166879377D01*
X110515506Y-166819106D01*
X110529260Y-166756649D01*
X110550951Y-166699254D01*
X110584942Y-166639757D01*
X110626762Y-166589510D01*
X110652527Y-166566337D01*
X110702833Y-166532451D01*
X110759164Y-166507541D01*
X110820801Y-166492176D01*
X110887027Y-166486928D01*
X110899443Y-166487122D01*
G37*
G36*
X111552638Y-167256000D02*
G01*
X111794438Y-167256000D01*
X111794438Y-166871757D01*
X111799564Y-166811126D01*
X111822095Y-166752935D01*
X111841333Y-166729021D01*
X111893047Y-166696040D01*
X111942156Y-166688575D01*
X112000765Y-166699677D01*
X112034773Y-166722280D01*
X112064479Y-166773748D01*
X112074093Y-166833316D01*
X112074927Y-166871757D01*
X112074927Y-167256000D01*
X112317020Y-167256000D01*
X112317020Y-166782657D01*
X112313709Y-166719079D01*
X112299051Y-166654610D01*
X112269936Y-166596828D01*
X112241403Y-166562545D01*
X112190066Y-166523898D01*
X112134497Y-166500886D01*
X112071783Y-166489067D01*
X112026273Y-166486928D01*
X111963382Y-166491959D01*
X111904080Y-166509368D01*
X111851889Y-166539478D01*
X111808437Y-166579519D01*
X111794438Y-166596251D01*
X111794438Y-166505685D01*
X111552638Y-166505685D01*
X111552638Y-167256000D01*
G37*
G36*
X113040077Y-166550822D02*
G01*
X112984735Y-166523172D01*
X112926997Y-166503567D01*
X112868618Y-166491965D01*
X112801824Y-166487011D01*
X112791535Y-166486928D01*
X112729221Y-166490909D01*
X112670007Y-166503616D01*
X112611658Y-166528385D01*
X112564682Y-166562545D01*
X112525505Y-166610916D01*
X112501911Y-166665108D01*
X112492373Y-166727146D01*
X112492289Y-166733711D01*
X112501419Y-166794741D01*
X112530942Y-166848889D01*
X112546218Y-166866188D01*
X112594613Y-166901888D01*
X112650835Y-166927617D01*
X112667264Y-166933013D01*
X112727641Y-166950891D01*
X112784051Y-166968743D01*
X112801500Y-166977270D01*
X112828465Y-167019768D01*
X112803259Y-167066956D01*
X112745115Y-167083004D01*
X112727641Y-167083369D01*
X112668307Y-167075813D01*
X112626818Y-167060508D01*
X112574176Y-167029258D01*
X112544459Y-167006579D01*
X112441877Y-167167486D01*
X112497880Y-167209166D01*
X112555556Y-167239037D01*
X112614105Y-167258769D01*
X112672728Y-167270031D01*
X112740147Y-167274693D01*
X112749623Y-167274757D01*
X112810513Y-167271771D01*
X112873161Y-167259663D01*
X112934930Y-167233706D01*
X112986183Y-167195918D01*
X112993182Y-167189175D01*
X113032255Y-167138474D01*
X113056975Y-167083281D01*
X113069158Y-167021480D01*
X113070265Y-166995148D01*
X113061941Y-166932612D01*
X113033273Y-166878856D01*
X113011647Y-166856223D01*
X112962481Y-166822319D01*
X112907125Y-166798979D01*
X112887376Y-166792622D01*
X112823482Y-166772985D01*
X112767307Y-166755756D01*
X112751088Y-166748365D01*
X112727641Y-166715832D01*
X112742882Y-166683006D01*
X112799752Y-166662382D01*
X112811758Y-166661903D01*
X112873188Y-166671658D01*
X112929864Y-166694834D01*
X112944236Y-166702643D01*
X113040077Y-166550822D01*
G37*
G36*
X114031312Y-167256000D02*
G01*
X113789511Y-167256000D01*
X113789511Y-167158986D01*
X113782225Y-167169125D01*
X113739286Y-167214442D01*
X113684380Y-167248729D01*
X113620686Y-167268670D01*
X113552694Y-167274757D01*
X113512437Y-167273115D01*
X113448327Y-167262420D01*
X113391464Y-167241946D01*
X113340892Y-167211895D01*
X113295652Y-167172468D01*
X113281578Y-167157642D01*
X113244599Y-167109582D01*
X113215596Y-167056761D01*
X113194708Y-166999968D01*
X113182072Y-166939991D01*
X113178169Y-166882601D01*
X113426664Y-166882601D01*
X113429060Y-166912037D01*
X113449008Y-166969602D01*
X113485282Y-167015958D01*
X113495994Y-167025132D01*
X113550598Y-167055692D01*
X113611312Y-167066662D01*
X113637604Y-167064821D01*
X113696191Y-167049165D01*
X113749065Y-167019768D01*
X113764870Y-167002967D01*
X113794706Y-166948899D01*
X113804752Y-166886704D01*
X113802989Y-166858581D01*
X113786663Y-166801978D01*
X113750823Y-166750417D01*
X113728377Y-166730530D01*
X113674968Y-166703490D01*
X113614829Y-166695316D01*
X113592484Y-166696317D01*
X113534371Y-166711228D01*
X113485282Y-166744262D01*
X113464007Y-166767682D01*
X113435938Y-166821648D01*
X113426664Y-166882601D01*
X113178169Y-166882601D01*
X113177830Y-166877618D01*
X113182499Y-166812039D01*
X113196021Y-166751127D01*
X113217665Y-166695346D01*
X113252208Y-166637373D01*
X113295652Y-166587751D01*
X113321405Y-166565579D01*
X113372002Y-166532605D01*
X113428690Y-166507867D01*
X113490363Y-166492322D01*
X113555918Y-166486928D01*
X113571450Y-166487251D01*
X113634429Y-166495695D01*
X113696028Y-166517583D01*
X113745921Y-166549857D01*
X113789511Y-166596251D01*
X113789511Y-166036739D01*
X114031312Y-166036739D01*
X114031312Y-167256000D01*
G37*
G36*
X114225631Y-166505685D02*
G01*
X114225631Y-166953529D01*
X114228768Y-167013453D01*
X114240836Y-167070876D01*
X114265817Y-167125606D01*
X114307697Y-167177451D01*
X114359588Y-167217667D01*
X114416796Y-167245205D01*
X114476538Y-167262349D01*
X114536034Y-167271382D01*
X114601421Y-167274717D01*
X114610167Y-167274757D01*
X114673131Y-167272260D01*
X114731854Y-167264356D01*
X114791737Y-167248722D01*
X114849719Y-167223075D01*
X114902740Y-167185131D01*
X114910879Y-167177451D01*
X114951482Y-167128077D01*
X114979011Y-167069548D01*
X114991675Y-167008961D01*
X114994970Y-166946509D01*
X114994996Y-166938581D01*
X114994996Y-166505685D01*
X114752903Y-166505685D01*
X114752903Y-166915134D01*
X114746015Y-166976280D01*
X114718996Y-167028559D01*
X114712749Y-167035009D01*
X114660259Y-167063154D01*
X114610167Y-167069886D01*
X114549142Y-167059315D01*
X114509344Y-167035009D01*
X114476230Y-166982559D01*
X114467477Y-166921603D01*
X114467432Y-166915134D01*
X114467432Y-166505685D01*
X114225631Y-166505685D01*
G37*
G36*
X115745017Y-166529133D02*
G01*
X115685879Y-166505967D01*
X115627191Y-166492322D01*
X115567344Y-166487070D01*
X115555094Y-166486928D01*
X115488402Y-166491062D01*
X115423457Y-166504522D01*
X115360993Y-166528889D01*
X115309987Y-166559657D01*
X115269623Y-166593027D01*
X115226057Y-166641546D01*
X115189625Y-166698731D01*
X115165847Y-166754321D01*
X115150502Y-166815700D01*
X115145059Y-166882601D01*
X115149258Y-166941537D01*
X115163959Y-167004695D01*
X115186803Y-167059697D01*
X115220361Y-167113699D01*
X115262882Y-167162210D01*
X115311951Y-167203012D01*
X115368917Y-167235982D01*
X115424211Y-167256921D01*
X115485634Y-167270148D01*
X115553336Y-167274757D01*
X115614795Y-167271373D01*
X115674064Y-167259359D01*
X115733076Y-167235924D01*
X115745017Y-167229621D01*
X115745017Y-167013027D01*
X115693080Y-167046345D01*
X115633702Y-167065849D01*
X115590265Y-167069886D01*
X115530249Y-167061617D01*
X115475149Y-167036872D01*
X115444306Y-167011268D01*
X115411264Y-166962736D01*
X115395336Y-166905477D01*
X115393894Y-166880842D01*
X115402997Y-166819982D01*
X115429700Y-166766762D01*
X115449288Y-166744262D01*
X115500452Y-166709987D01*
X115560097Y-166693660D01*
X115587041Y-166692092D01*
X115648334Y-166699381D01*
X115706389Y-166721793D01*
X115745017Y-166747486D01*
X115745017Y-166529133D01*
G37*
G36*
X116286133Y-166487123D02*
G01*
X116348221Y-166492038D01*
X116405815Y-166503887D01*
X116464708Y-166525588D01*
X116522302Y-166559794D01*
X116567432Y-166599768D01*
X116610282Y-166654012D01*
X116640065Y-166710999D01*
X116658982Y-166768899D01*
X116670257Y-166835157D01*
X116673238Y-166897256D01*
X116673238Y-166921582D01*
X116113726Y-166921582D01*
X116114440Y-166936864D01*
X116128141Y-166994482D01*
X116159155Y-167045853D01*
X116166231Y-167052842D01*
X116221291Y-167083588D01*
X116283426Y-167091868D01*
X116323246Y-167088963D01*
X116381026Y-167070473D01*
X116397028Y-167058465D01*
X116432903Y-167010096D01*
X116661514Y-167032957D01*
X116639406Y-167086511D01*
X116607705Y-167137118D01*
X116568058Y-167180787D01*
X116517020Y-167219363D01*
X116461388Y-167246442D01*
X116403008Y-167263437D01*
X116342429Y-167272243D01*
X116280202Y-167274757D01*
X116259257Y-167274512D01*
X116198288Y-167270279D01*
X116140054Y-167259337D01*
X116084475Y-167239810D01*
X116031469Y-167209819D01*
X115980956Y-167167486D01*
X115946299Y-167127324D01*
X115912242Y-167072542D01*
X115886786Y-167009626D01*
X115873194Y-166949545D01*
X115868409Y-166884066D01*
X115868862Y-166864418D01*
X115875635Y-166805518D01*
X115881958Y-166780898D01*
X116122226Y-166780898D01*
X116449902Y-166780898D01*
X116436641Y-166745191D01*
X116401249Y-166695902D01*
X116398687Y-166693645D01*
X116344931Y-166663875D01*
X116286943Y-166655162D01*
X116275585Y-166655441D01*
X116214943Y-166668571D01*
X116164138Y-166702643D01*
X116146053Y-166725179D01*
X116122226Y-166780898D01*
X115881958Y-166780898D01*
X115890477Y-166747731D01*
X115913317Y-166692401D01*
X115944086Y-166640873D01*
X115982714Y-166594492D01*
X116035777Y-166550935D01*
X116091422Y-166520659D01*
X116147653Y-166501426D01*
X116211339Y-166489960D01*
X116269944Y-166486928D01*
X116286133Y-166487123D01*
G37*
G36*
X116823594Y-167256000D02*
G01*
X117065394Y-167256000D01*
X117065394Y-166951478D01*
X117068196Y-166887701D01*
X117079866Y-166828068D01*
X117106291Y-166771795D01*
X117124306Y-166749244D01*
X117172844Y-166713719D01*
X117230813Y-166699315D01*
X117245059Y-166698833D01*
X117303568Y-166705940D01*
X117354382Y-166725797D01*
X117367864Y-166498944D01*
X117310162Y-166487610D01*
X117288730Y-166486928D01*
X117229747Y-166491780D01*
X117170894Y-166512263D01*
X117159476Y-166518875D01*
X117112243Y-166557635D01*
X117074161Y-166607672D01*
X117065394Y-166623215D01*
X117065394Y-166505685D01*
X116823594Y-166505685D01*
X116823594Y-167256000D01*
G37*
G36*
X118338925Y-166132294D02*
G01*
X118405060Y-166140702D01*
X118470725Y-166159065D01*
X118525308Y-166185212D01*
X118577160Y-166223145D01*
X118609374Y-166255778D01*
X118644984Y-166308086D01*
X118670502Y-166371291D01*
X118682879Y-166433141D01*
X118686483Y-166497186D01*
X118685867Y-166523262D01*
X118677402Y-166592921D01*
X118657726Y-166659130D01*
X118627390Y-166717124D01*
X118590642Y-166763020D01*
X118547050Y-166799840D01*
X118491406Y-166830442D01*
X118434631Y-166849007D01*
X118370507Y-166859383D01*
X118305171Y-166862085D01*
X118147195Y-166862085D01*
X118147195Y-167256000D01*
X117888395Y-167256000D01*
X117888395Y-166342434D01*
X118147195Y-166342434D01*
X118147195Y-166650473D01*
X118239518Y-166650473D01*
X118266012Y-166649831D01*
X118325743Y-166639324D01*
X118379030Y-166607974D01*
X118381213Y-166605703D01*
X118411468Y-166554159D01*
X118420942Y-166495720D01*
X118410775Y-166434866D01*
X118379030Y-166384932D01*
X118355649Y-166367079D01*
X118296988Y-166346748D01*
X118234536Y-166342434D01*
X118147195Y-166342434D01*
X117888395Y-166342434D01*
X117888395Y-166130528D01*
X118283189Y-166130528D01*
X118338925Y-166132294D01*
G37*
G36*
X119263412Y-166488316D02*
G01*
X119326594Y-166496403D01*
X119384539Y-166510897D01*
X119446668Y-166535436D01*
X119500149Y-166566248D01*
X119550809Y-166607974D01*
X119577356Y-166637611D01*
X119615147Y-166694574D01*
X119642004Y-166755819D01*
X119658037Y-166818767D01*
X119663356Y-166880842D01*
X119660645Y-166925097D01*
X119647684Y-166988164D01*
X119623931Y-167050210D01*
X119589275Y-167108677D01*
X119550809Y-167154004D01*
X119523458Y-167178463D01*
X119474527Y-167211751D01*
X119416647Y-167239550D01*
X119350420Y-167260269D01*
X119289291Y-167270982D01*
X119223133Y-167274757D01*
X119182929Y-167273376D01*
X119119837Y-167265328D01*
X119061939Y-167250894D01*
X118999811Y-167226436D01*
X118946268Y-167195694D01*
X118895457Y-167154004D01*
X118868995Y-167124367D01*
X118831250Y-167067392D01*
X118804357Y-167006107D01*
X118788263Y-166943071D01*
X118782910Y-166880842D01*
X119031744Y-166880842D01*
X119033622Y-166910421D01*
X119050752Y-166968154D01*
X119087139Y-167017716D01*
X119112413Y-167038233D01*
X119165896Y-167062449D01*
X119224892Y-167069886D01*
X119249426Y-167068583D01*
X119307299Y-167053177D01*
X119359421Y-167017716D01*
X119380301Y-166993922D01*
X119406561Y-166941074D01*
X119414815Y-166880842D01*
X119413354Y-166854421D01*
X119396558Y-166795000D01*
X119359421Y-166744262D01*
X119338421Y-166726714D01*
X119285711Y-166700845D01*
X119223133Y-166692092D01*
X119197898Y-166693395D01*
X119139167Y-166708801D01*
X119087139Y-166744262D01*
X119066259Y-166768053D01*
X119039998Y-166820832D01*
X119031744Y-166880842D01*
X118782910Y-166880842D01*
X118785639Y-166836705D01*
X118798660Y-166773743D01*
X118822461Y-166711749D01*
X118857100Y-166653299D01*
X118895457Y-166607974D01*
X118922905Y-166583503D01*
X118971928Y-166550159D01*
X119029839Y-166522282D01*
X119096035Y-166501484D01*
X119157091Y-166490722D01*
X119223133Y-166486928D01*
X119263412Y-166488316D01*
G37*
G36*
X119814299Y-167256000D02*
G01*
X120056099Y-167256000D01*
X120056099Y-166951478D01*
X120058900Y-166887701D01*
X120070571Y-166828068D01*
X120096996Y-166771795D01*
X120115010Y-166749244D01*
X120163549Y-166713719D01*
X120221517Y-166699315D01*
X120235764Y-166698833D01*
X120294272Y-166705940D01*
X120345087Y-166725797D01*
X120358569Y-166498944D01*
X120300867Y-166487610D01*
X120279435Y-166486928D01*
X120220452Y-166491780D01*
X120161598Y-166512263D01*
X120150181Y-166518875D01*
X120102948Y-166557635D01*
X120064866Y-166607672D01*
X120056099Y-166623215D01*
X120056099Y-166505685D01*
X119814299Y-166505685D01*
X119814299Y-167256000D01*
G37*
G36*
X120911047Y-166700591D02*
G01*
X120911047Y-166505685D01*
X120761570Y-166505685D01*
X120761570Y-166261833D01*
X120519476Y-166261833D01*
X120519476Y-166505685D01*
X120435652Y-166505685D01*
X120435652Y-166700591D01*
X120519476Y-166700591D01*
X120519476Y-167256000D01*
X120761570Y-167256000D01*
X120761570Y-166700591D01*
X120911047Y-166700591D01*
G37*
G36*
X121366324Y-166487122D02*
G01*
X121430572Y-166494914D01*
X121493483Y-166516359D01*
X121547439Y-166551225D01*
X121589260Y-166596251D01*
X121589260Y-166505685D01*
X121831061Y-166505685D01*
X121831061Y-167256000D01*
X121589260Y-167256000D01*
X121589260Y-167158986D01*
X121576632Y-167176902D01*
X121535634Y-167219610D01*
X121484415Y-167251467D01*
X121426055Y-167269632D01*
X121367390Y-167274757D01*
X121318181Y-167272674D01*
X121253088Y-167261712D01*
X121191929Y-167239433D01*
X121134152Y-167203700D01*
X121086901Y-167160745D01*
X121053418Y-167120577D01*
X121022013Y-167070628D01*
X120996579Y-167010399D01*
X120982141Y-166948607D01*
X120977578Y-166885825D01*
X120978043Y-166879377D01*
X121226413Y-166879377D01*
X121227678Y-166902712D01*
X121243376Y-166960270D01*
X121276825Y-167009510D01*
X121301300Y-167030253D01*
X121358092Y-167057621D01*
X121419560Y-167066662D01*
X121437634Y-167065758D01*
X121496776Y-167049483D01*
X121545590Y-167015958D01*
X121565609Y-166994406D01*
X121594285Y-166942041D01*
X121604501Y-166879377D01*
X121602401Y-166850458D01*
X121584155Y-166792619D01*
X121548814Y-166745727D01*
X121530381Y-166731074D01*
X121475384Y-166704839D01*
X121414578Y-166695316D01*
X121390431Y-166696819D01*
X121332226Y-166713364D01*
X121281807Y-166747486D01*
X121264919Y-166766105D01*
X121235686Y-166820099D01*
X121226413Y-166879377D01*
X120978043Y-166879377D01*
X120982387Y-166819106D01*
X120996141Y-166756649D01*
X121017832Y-166699254D01*
X121051823Y-166639757D01*
X121093643Y-166589510D01*
X121119408Y-166566337D01*
X121169714Y-166532451D01*
X121226044Y-166507541D01*
X121287682Y-166492176D01*
X121353908Y-166486928D01*
X121366324Y-166487122D01*
G37*
G36*
X122025966Y-166036739D02*
G01*
X122025966Y-167256000D01*
X122268060Y-167256000D01*
X122268060Y-166036739D01*
X122025966Y-166036739D01*
G37*
M02*
