%TF.GenerationSoftware,KiCad,Pcbnew,8.0.0*%
%TF.CreationDate,2024-10-31T11:27:09-04:00*%
%TF.ProjectId,Speaker Module Panel,53706561-6b65-4722-904d-6f64756c6520,rev?*%
%TF.SameCoordinates,Original*%
%TF.FileFunction,Profile,NP*%
%FSLAX46Y46*%
G04 Gerber Fmt 4.6, Leading zero omitted, Abs format (unit mm)*
G04 Created by KiCad (PCBNEW 8.0.0) date 2024-10-31 11:27:09*
%MOMM*%
%LPD*%
G01*
G04 APERTURE LIST*
%TA.AperFunction,Profile*%
%ADD10C,0.050000*%
%TD*%
%TA.AperFunction,Profile*%
%ADD11C,0.100000*%
%TD*%
G04 APERTURE END LIST*
D10*
X130685633Y-161628129D02*
G75*
G02*
X126484443Y-161628129I-2100595J0D01*
G01*
X126484443Y-161628129D02*
G75*
G02*
X130685633Y-161628129I2100595J0D01*
G01*
X111669237Y-112588725D02*
X128114352Y-129031029D01*
X100000000Y-175000000D02*
X131370000Y-175000000D01*
X131366761Y-42709720D02*
X100002458Y-42692648D01*
X103280839Y-143525174D02*
G75*
G02*
X105444319Y-141328315I1079461J1100674D01*
G01*
D11*
X125267687Y-45836257D02*
G75*
G02*
X122066125Y-45836257I-1600781J0D01*
G01*
X122066125Y-45836257D02*
G75*
G02*
X125267687Y-45836257I1600781J0D01*
G01*
D10*
X103263784Y-117303790D02*
G75*
G02*
X105462016Y-115099396I1096516J1104790D01*
G01*
X103280839Y-143525175D02*
X110623030Y-150867373D01*
X109042044Y-136172463D02*
X121549104Y-148712433D01*
X103259702Y-126020368D02*
G75*
G02*
X105465126Y-123886353I1110298J1059168D01*
G01*
X100002458Y-42692648D02*
X100000000Y-175000000D01*
X104900000Y-95700000D02*
G75*
G02*
X100700000Y-95700000I-2100000J0D01*
G01*
X100700000Y-95700000D02*
G75*
G02*
X104900000Y-95700000I2100000J0D01*
G01*
X128114352Y-129031029D02*
G75*
G02*
X125911086Y-131230423I-1105652J-1095671D01*
G01*
X109042044Y-136172463D02*
X105462355Y-132583494D01*
D11*
X109286873Y-171895364D02*
G75*
G02*
X106085311Y-171895364I-1600781J0D01*
G01*
X106085311Y-171895364D02*
G75*
G02*
X109286873Y-171895364I1600781J0D01*
G01*
D10*
X131370000Y-175000000D02*
X131366761Y-42709720D01*
X103263784Y-117303790D02*
X125913950Y-139953957D01*
D11*
X119427601Y-57350000D02*
G75*
G02*
X112072399Y-57350000I-3677601J0D01*
G01*
X112072399Y-57350000D02*
G75*
G02*
X119427601Y-57350000I3677601J0D01*
G01*
D10*
X128090181Y-137769822D02*
X105462042Y-115099370D01*
X113179472Y-135958679D02*
X103259702Y-126020368D01*
X112826999Y-148710997D02*
G75*
G02*
X110623029Y-150867373I-1100699J-1079503D01*
G01*
X105465159Y-123886321D02*
X128121556Y-146521893D01*
D11*
X109350781Y-45800000D02*
G75*
G02*
X106149219Y-45800000I-1600781J0D01*
G01*
X106149219Y-45800000D02*
G75*
G02*
X109350781Y-45800000I1600781J0D01*
G01*
D10*
X128109782Y-120305789D02*
G75*
G02*
X125908067Y-122464268I-1101082J-1079011D01*
G01*
X125906975Y-148709970D02*
X113179472Y-135958679D01*
X125769948Y-75382896D02*
G75*
G02*
X118769948Y-75382896I-3500000J0D01*
G01*
X118769948Y-75382896D02*
G75*
G02*
X125769948Y-75382896I3500000J0D01*
G01*
X128065435Y-120261442D02*
X128109782Y-120305789D01*
X128090181Y-137769822D02*
G75*
G02*
X125913950Y-139953957I-1081481J-1098678D01*
G01*
X121549104Y-148712433D02*
G75*
G02*
X119388705Y-150869977I-1080904J-1078067D01*
G01*
D11*
X125251409Y-171938147D02*
G75*
G02*
X122049847Y-171938147I-1600781J0D01*
G01*
X122049847Y-171938147D02*
G75*
G02*
X125251409Y-171938147I1600781J0D01*
G01*
D10*
X130689254Y-95705762D02*
G75*
G02*
X126488064Y-95705762I-2100595J0D01*
G01*
X126488064Y-95705762D02*
G75*
G02*
X130689254Y-95705762I2100595J0D01*
G01*
X119388705Y-150869977D02*
X103259670Y-134783336D01*
X112827000Y-148710996D02*
X105444319Y-141328315D01*
X109525032Y-114844368D02*
G75*
G02*
X111669237Y-112588725I1100668J1100668D01*
G01*
X104896379Y-161622367D02*
G75*
G02*
X100696379Y-161622367I-2100000J0D01*
G01*
X100696379Y-161622367D02*
G75*
G02*
X104896379Y-161622367I2100000J0D01*
G01*
X103259671Y-134783335D02*
G75*
G02*
X105462355Y-132583494I1100629J1100635D01*
G01*
X125908068Y-122464267D02*
X118266752Y-114823088D01*
X118266753Y-114823087D02*
G75*
G02*
X120451395Y-112647391I1100747J1079387D01*
G01*
X125911086Y-131230423D02*
X109525032Y-114844368D01*
X121683909Y-113879907D02*
X120451395Y-112647391D01*
X121683909Y-113879907D02*
X128065435Y-120261442D01*
X128121554Y-146521896D02*
G75*
G02*
X125906976Y-148709969I-1112854J-1088404D01*
G01*
M02*
