%TF.GenerationSoftware,KiCad,Pcbnew,(5.1.6-0)*%
%TF.CreationDate,2022-05-02T17:38:10-04:00*%
%TF.ProjectId,EnvFollower,456e7646-6f6c-46c6-9f77-65722e6b6963,rev?*%
%TF.SameCoordinates,Original*%
%TF.FileFunction,Copper,L1,Top*%
%TF.FilePolarity,Positive*%
%FSLAX46Y46*%
G04 Gerber Fmt 4.6, Leading zero omitted, Abs format (unit mm)*
G04 Created by KiCad (PCBNEW (5.1.6-0)) date 2022-05-02 17:38:10*
%MOMM*%
%LPD*%
G01*
G04 APERTURE LIST*
%TA.AperFunction,ComponentPad*%
%ADD10C,1.600000*%
%TD*%
%TA.AperFunction,ComponentPad*%
%ADD11O,1.600000X1.600000*%
%TD*%
%TA.AperFunction,ComponentPad*%
%ADD12R,1.800000X1.800000*%
%TD*%
%TA.AperFunction,ComponentPad*%
%ADD13O,1.800000X1.800000*%
%TD*%
%TA.AperFunction,ComponentPad*%
%ADD14C,1.524000*%
%TD*%
%TA.AperFunction,ComponentPad*%
%ADD15C,1.440000*%
%TD*%
%TA.AperFunction,ComponentPad*%
%ADD16C,2.499360*%
%TD*%
%TA.AperFunction,ComponentPad*%
%ADD17C,1.800000*%
%TD*%
%TA.AperFunction,ComponentPad*%
%ADD18C,2.500000*%
%TD*%
%TA.AperFunction,ViaPad*%
%ADD19C,5.000000*%
%TD*%
%TA.AperFunction,Conductor*%
%ADD20C,1.000000*%
%TD*%
%TA.AperFunction,Conductor*%
%ADD21C,0.254000*%
%TD*%
G04 APERTURE END LIST*
D10*
%TO.P,R2,1*%
%TO.N,Net-(D1-Pad2)*%
X100330000Y-85090000D03*
D11*
%TO.P,R2,2*%
%TO.N,Net-(C1-Pad2)*%
X100330000Y-92710000D03*
%TD*%
D12*
%TO.P,D1,1*%
%TO.N,Net-(D1-Pad1)*%
X128270000Y-86360000D03*
D13*
%TO.P,D1,2*%
%TO.N,Net-(D1-Pad2)*%
X118110000Y-86360000D03*
%TD*%
D10*
%TO.P,R4,1*%
%TO.N,Net-(R4-Pad1)*%
X120650000Y-77470000D03*
D11*
%TO.P,R4,2*%
%TO.N,Net-(D3-Pad2)*%
X120650000Y-69850000D03*
%TD*%
D14*
%TO.P,U1,8*%
%TO.N,VCC*%
X113030000Y-83820000D03*
%TO.P,U1,7*%
%TO.N,Net-(R4-Pad1)*%
X113030000Y-86360000D03*
%TO.P,U1,6*%
%TO.N,Net-(ATTACK1-Pad2)*%
X113030000Y-88900000D03*
%TO.P,U1,5*%
%TO.N,Net-(C3-Pad1)*%
X113030000Y-91440000D03*
%TO.P,U1,4*%
%TO.N,GND*%
X105410000Y-91440000D03*
%TO.P,U1,3*%
X105410000Y-88900000D03*
%TO.P,U1,2*%
%TO.N,Net-(D1-Pad2)*%
X105410000Y-86360000D03*
%TO.P,U1,1*%
%TO.N,Net-(D1-Pad1)*%
X105410000Y-83820000D03*
%TD*%
D15*
%TO.P,RV2,1*%
%TO.N,Net-(H8-Pad1)*%
X86360000Y-60960000D03*
%TO.P,RV2,2*%
%TO.N,Net-(H10-Pad1)*%
X86360000Y-58420000D03*
%TO.P,RV2,3*%
X86360000Y-55880000D03*
%TD*%
%TO.P,RV1,1*%
%TO.N,Net-(H6-Pad1)*%
X86360000Y-71120000D03*
%TO.P,RV1,2*%
%TO.N,Net-(H5-Pad1)*%
X86360000Y-68580000D03*
%TO.P,RV1,3*%
X86360000Y-66040000D03*
%TD*%
D10*
%TO.P,R7,1*%
%TO.N,Net-(H10-Pad1)*%
X96520000Y-55880000D03*
%TO.P,R7,2*%
%TO.N,Net-(H8-Pad1)*%
X96520000Y-60960000D03*
%TD*%
%TO.P,R6,1*%
%TO.N,Net-(R4-Pad1)*%
X125730000Y-68580000D03*
D11*
%TO.P,R6,2*%
%TO.N,Net-(D4-Pad2)*%
X125730000Y-60960000D03*
%TD*%
D10*
%TO.P,R5,1*%
%TO.N,Net-(H5-Pad1)*%
X96520000Y-66040000D03*
%TO.P,R5,2*%
%TO.N,Net-(H6-Pad1)*%
X96520000Y-71120000D03*
%TD*%
%TO.P,R3,1*%
%TO.N,Net-(C3-Pad1)*%
X119380000Y-97790000D03*
D11*
%TO.P,R3,2*%
%TO.N,Net-(D1-Pad2)*%
X127000000Y-97790000D03*
%TD*%
D10*
%TO.P,R1,1*%
%TO.N,Net-(C2-Pad2)*%
X99060000Y-99060000D03*
D11*
%TO.P,R1,2*%
%TO.N,Net-(H2-Pad1)*%
X91440000Y-99060000D03*
%TD*%
D16*
%TO.P,H10,1*%
%TO.N,Net-(H10-Pad1)*%
X77470000Y-55880000D03*
%TD*%
%TO.P,H8,1*%
%TO.N,Net-(H8-Pad1)*%
X77470000Y-60960000D03*
%TD*%
%TO.P,H6,1*%
%TO.N,Net-(H6-Pad1)*%
X77470000Y-71120000D03*
%TD*%
%TO.P,H5,1*%
%TO.N,Net-(H5-Pad1)*%
X77470000Y-66040000D03*
%TD*%
%TO.P,H4,1*%
%TO.N,GND*%
X77470000Y-100330000D03*
%TD*%
%TO.P,H3,1*%
%TO.N,VCC*%
X77470000Y-94094679D03*
%TD*%
%TO.P,H2,1*%
%TO.N,Net-(H2-Pad1)*%
X85090000Y-100330000D03*
%TD*%
%TO.P,H1,1*%
%TO.N,Net-(C1-Pad1)*%
X90170000Y-77470000D03*
%TD*%
D12*
%TO.P,D4,1*%
%TO.N,GND*%
X115570000Y-57150000D03*
D17*
%TO.P,D4,2*%
%TO.N,Net-(D4-Pad2)*%
X115570000Y-59690000D03*
%TD*%
D12*
%TO.P,D3,1*%
%TO.N,GND*%
X115570000Y-67310000D03*
D17*
%TO.P,D3,2*%
%TO.N,Net-(D3-Pad2)*%
X115570000Y-69850000D03*
%TD*%
D12*
%TO.P,D2,1*%
%TO.N,Net-(C3-Pad1)*%
X118110000Y-91440000D03*
D13*
%TO.P,D2,2*%
%TO.N,Net-(D1-Pad1)*%
X128270000Y-91440000D03*
%TD*%
D10*
%TO.P,C3,1*%
%TO.N,Net-(C3-Pad1)*%
X111760000Y-99060000D03*
%TO.P,C3,2*%
%TO.N,GND*%
X106760000Y-99060000D03*
%TD*%
%TO.P,C2,1*%
%TO.N,Net-(C1-Pad2)*%
X95250000Y-92710000D03*
%TO.P,C2,2*%
%TO.N,Net-(C2-Pad2)*%
X90250000Y-92710000D03*
%TD*%
%TO.P,C1,1*%
%TO.N,Net-(C1-Pad1)*%
X90170000Y-85090000D03*
%TO.P,C1,2*%
%TO.N,Net-(C1-Pad2)*%
X95170000Y-85090000D03*
%TD*%
D18*
%TO.P,ATTACK1,2*%
%TO.N,Net-(ATTACK1-Pad2)*%
X77470000Y-82550000D03*
%TO.P,ATTACK1,3*%
%TO.N,VCC*%
X77470000Y-87550000D03*
%TO.P,ATTACK1,1*%
%TO.N,GND*%
X77470000Y-77550000D03*
%TD*%
D19*
%TO.N,GND*%
X72390000Y-100330000D03*
X72390000Y-54610000D03*
%TD*%
D20*
%TO.N,VCC*%
X77470000Y-88900000D02*
X77470000Y-87550000D01*
X77470000Y-94094679D02*
X77470000Y-88900000D01*
X78820000Y-88900000D02*
X77470000Y-87550000D01*
X78820000Y-88900000D02*
X77470000Y-88900000D01*
X92710000Y-88900000D02*
X78820000Y-88900000D01*
X92710000Y-82550000D02*
X92710000Y-88900000D01*
X92902001Y-82357999D02*
X92710000Y-82550000D01*
X113030000Y-83820000D02*
X111760000Y-83820000D01*
X111760000Y-83820000D02*
X110297999Y-82357999D01*
X110297999Y-82357999D02*
X92902001Y-82357999D01*
%TO.N,GND*%
X106760000Y-92790000D02*
X105410000Y-91440000D01*
X106760000Y-99060000D02*
X106760000Y-92790000D01*
X105410000Y-91440000D02*
X105410000Y-88900000D01*
%TO.N,Net-(C1-Pad1)*%
X90170000Y-85090000D02*
X90170000Y-77470000D01*
%TO.N,Net-(C1-Pad2)*%
X95250000Y-85170000D02*
X95170000Y-85090000D01*
X95250000Y-92710000D02*
X95250000Y-85170000D01*
X100330000Y-92710000D02*
X95250000Y-92710000D01*
%TO.N,Net-(C2-Pad2)*%
X96600000Y-99060000D02*
X90250000Y-92710000D01*
X99060000Y-99060000D02*
X96600000Y-99060000D01*
%TO.N,Net-(C3-Pad1)*%
X111760000Y-99060000D02*
X111760000Y-92710000D01*
X111760000Y-92710000D02*
X113030000Y-91440000D01*
X113030000Y-91440000D02*
X118110000Y-91440000D01*
X119380000Y-92710000D02*
X118110000Y-91440000D01*
X119380000Y-97790000D02*
X119380000Y-92710000D01*
%TO.N,Net-(D1-Pad1)*%
X128270000Y-91440000D02*
X128270000Y-86360000D01*
%TO.N,Net-(D1-Pad2)*%
X101600000Y-86360000D02*
X100330000Y-85090000D01*
X105410000Y-86360000D02*
X101600000Y-86360000D01*
X105410000Y-86360000D02*
X106680000Y-86360000D01*
X106680000Y-86360000D02*
X109220000Y-88900000D01*
X109220000Y-88900000D02*
X109220000Y-101600000D01*
X109220000Y-101600000D02*
X123190000Y-101600000D01*
X123190000Y-101600000D02*
X127000000Y-97790000D01*
X127000000Y-97790000D02*
X123190000Y-93980000D01*
X123190000Y-93980000D02*
X123190000Y-88900000D01*
X123190000Y-88900000D02*
X120650000Y-88900000D01*
X120650000Y-88900000D02*
X118110000Y-86360000D01*
%TO.N,Net-(D3-Pad2)*%
X120650000Y-69850000D02*
X115570000Y-69850000D01*
%TO.N,Net-(D4-Pad2)*%
X116840000Y-60960000D02*
X115570000Y-59690000D01*
X125730000Y-60960000D02*
X116840000Y-60960000D01*
%TO.N,Net-(H2-Pad1)*%
X90170000Y-100330000D02*
X91440000Y-99060000D01*
X85090000Y-100330000D02*
X90170000Y-100330000D01*
%TO.N,Net-(H5-Pad1)*%
X86360000Y-68580000D02*
X86360000Y-66040000D01*
X77470000Y-66040000D02*
X86360000Y-66040000D01*
X86360000Y-66040000D02*
X96520000Y-66040000D01*
%TO.N,Net-(H6-Pad1)*%
X77470000Y-71120000D02*
X86360000Y-71120000D01*
X86360000Y-71120000D02*
X96520000Y-71120000D01*
%TO.N,Net-(H8-Pad1)*%
X77470000Y-60960000D02*
X86360000Y-60960000D01*
X96520000Y-60960000D02*
X86360000Y-60960000D01*
%TO.N,Net-(H10-Pad1)*%
X86360000Y-55880000D02*
X86360000Y-58420000D01*
X77470000Y-55880000D02*
X96520000Y-55880000D01*
%TO.N,Net-(R4-Pad1)*%
X120650000Y-77470000D02*
X120650000Y-73660000D01*
X120650000Y-73660000D02*
X125730000Y-68580000D01*
X115570000Y-86360000D02*
X115570000Y-82550000D01*
X115570000Y-82550000D02*
X120650000Y-77470000D01*
X113030000Y-86360000D02*
X115570000Y-86360000D01*
%TD*%
D21*
%TO.N,GND*%
G36*
X131395001Y-103455000D02*
G01*
X69265000Y-103455000D01*
X69265000Y-101643377D01*
X76336229Y-101643377D01*
X76462104Y-101933315D01*
X76794262Y-102099139D01*
X77152387Y-102196975D01*
X77522719Y-102223065D01*
X77891025Y-102176405D01*
X78243151Y-102058789D01*
X78477896Y-101933315D01*
X78603771Y-101643377D01*
X77470000Y-100509605D01*
X76336229Y-101643377D01*
X69265000Y-101643377D01*
X69265000Y-100382719D01*
X75576935Y-100382719D01*
X75623595Y-100751025D01*
X75741211Y-101103151D01*
X75866685Y-101337896D01*
X76156623Y-101463771D01*
X77290395Y-100330000D01*
X77649605Y-100330000D01*
X78783377Y-101463771D01*
X79073315Y-101337896D01*
X79239139Y-101005738D01*
X79336975Y-100647613D01*
X79363065Y-100277281D01*
X79346228Y-100144375D01*
X83205320Y-100144375D01*
X83205320Y-100515625D01*
X83277747Y-100879741D01*
X83419818Y-101222731D01*
X83626074Y-101531413D01*
X83888587Y-101793926D01*
X84197269Y-102000182D01*
X84540259Y-102142253D01*
X84904375Y-102214680D01*
X85275625Y-102214680D01*
X85639741Y-102142253D01*
X85982731Y-102000182D01*
X86291413Y-101793926D01*
X86553926Y-101531413D01*
X86598302Y-101465000D01*
X90114249Y-101465000D01*
X90170000Y-101470491D01*
X90225751Y-101465000D01*
X90225752Y-101465000D01*
X90392499Y-101448577D01*
X90606447Y-101383676D01*
X90803623Y-101278284D01*
X90976449Y-101136449D01*
X91011996Y-101093135D01*
X91617282Y-100487850D01*
X91858574Y-100439853D01*
X92119727Y-100331680D01*
X92354759Y-100174637D01*
X92554637Y-99974759D01*
X92711680Y-99739727D01*
X92819853Y-99478574D01*
X92875000Y-99201335D01*
X92875000Y-98918665D01*
X92819853Y-98641426D01*
X92711680Y-98380273D01*
X92554637Y-98145241D01*
X92354759Y-97945363D01*
X92119727Y-97788320D01*
X91858574Y-97680147D01*
X91581335Y-97625000D01*
X91298665Y-97625000D01*
X91021426Y-97680147D01*
X90760273Y-97788320D01*
X90525241Y-97945363D01*
X90325363Y-98145241D01*
X90168320Y-98380273D01*
X90060147Y-98641426D01*
X90012150Y-98882718D01*
X89699869Y-99195000D01*
X86598302Y-99195000D01*
X86553926Y-99128587D01*
X86291413Y-98866074D01*
X85982731Y-98659818D01*
X85639741Y-98517747D01*
X85275625Y-98445320D01*
X84904375Y-98445320D01*
X84540259Y-98517747D01*
X84197269Y-98659818D01*
X83888587Y-98866074D01*
X83626074Y-99128587D01*
X83419818Y-99437269D01*
X83277747Y-99780259D01*
X83205320Y-100144375D01*
X79346228Y-100144375D01*
X79316405Y-99908975D01*
X79198789Y-99556849D01*
X79073315Y-99322104D01*
X78783377Y-99196229D01*
X77649605Y-100330000D01*
X77290395Y-100330000D01*
X76156623Y-99196229D01*
X75866685Y-99322104D01*
X75700861Y-99654262D01*
X75603025Y-100012387D01*
X75576935Y-100382719D01*
X69265000Y-100382719D01*
X69265000Y-99016623D01*
X76336229Y-99016623D01*
X77470000Y-100150395D01*
X78603771Y-99016623D01*
X78477896Y-98726685D01*
X78145738Y-98560861D01*
X77787613Y-98463025D01*
X77417281Y-98436935D01*
X77048975Y-98483595D01*
X76696849Y-98601211D01*
X76462104Y-98726685D01*
X76336229Y-99016623D01*
X69265000Y-99016623D01*
X69265000Y-87364344D01*
X75585000Y-87364344D01*
X75585000Y-87735656D01*
X75657439Y-88099834D01*
X75799534Y-88442882D01*
X76005825Y-88751618D01*
X76268382Y-89014175D01*
X76335001Y-89058688D01*
X76335000Y-92586377D01*
X76268587Y-92630753D01*
X76006074Y-92893266D01*
X75799818Y-93201948D01*
X75657747Y-93544938D01*
X75585320Y-93909054D01*
X75585320Y-94280304D01*
X75657747Y-94644420D01*
X75799818Y-94987410D01*
X76006074Y-95296092D01*
X76268587Y-95558605D01*
X76577269Y-95764861D01*
X76920259Y-95906932D01*
X77284375Y-95979359D01*
X77655625Y-95979359D01*
X78019741Y-95906932D01*
X78362731Y-95764861D01*
X78671413Y-95558605D01*
X78933926Y-95296092D01*
X79140182Y-94987410D01*
X79282253Y-94644420D01*
X79354680Y-94280304D01*
X79354680Y-93909054D01*
X79282253Y-93544938D01*
X79140182Y-93201948D01*
X78933926Y-92893266D01*
X78671413Y-92630753D01*
X78605000Y-92586377D01*
X78605000Y-92568665D01*
X88815000Y-92568665D01*
X88815000Y-92851335D01*
X88870147Y-93128574D01*
X88978320Y-93389727D01*
X89135363Y-93624759D01*
X89335241Y-93824637D01*
X89570273Y-93981680D01*
X89831426Y-94089853D01*
X90072719Y-94137850D01*
X95758009Y-99823141D01*
X95793551Y-99866449D01*
X95966377Y-100008284D01*
X96163553Y-100113676D01*
X96327705Y-100163471D01*
X96377500Y-100178577D01*
X96599999Y-100200491D01*
X96655751Y-100195000D01*
X98175716Y-100195000D01*
X98380273Y-100331680D01*
X98641426Y-100439853D01*
X98918665Y-100495000D01*
X99201335Y-100495000D01*
X99478574Y-100439853D01*
X99739727Y-100331680D01*
X99974759Y-100174637D01*
X100096694Y-100052702D01*
X105946903Y-100052702D01*
X106018486Y-100296671D01*
X106273996Y-100417571D01*
X106548184Y-100486300D01*
X106830512Y-100500217D01*
X107110130Y-100458787D01*
X107376292Y-100363603D01*
X107501514Y-100296671D01*
X107573097Y-100052702D01*
X106760000Y-99239605D01*
X105946903Y-100052702D01*
X100096694Y-100052702D01*
X100174637Y-99974759D01*
X100331680Y-99739727D01*
X100439853Y-99478574D01*
X100495000Y-99201335D01*
X100495000Y-99130512D01*
X105319783Y-99130512D01*
X105361213Y-99410130D01*
X105456397Y-99676292D01*
X105523329Y-99801514D01*
X105767298Y-99873097D01*
X106580395Y-99060000D01*
X105767298Y-98246903D01*
X105523329Y-98318486D01*
X105402429Y-98573996D01*
X105333700Y-98848184D01*
X105319783Y-99130512D01*
X100495000Y-99130512D01*
X100495000Y-98918665D01*
X100439853Y-98641426D01*
X100331680Y-98380273D01*
X100174637Y-98145241D01*
X100096694Y-98067298D01*
X105946903Y-98067298D01*
X106760000Y-98880395D01*
X107573097Y-98067298D01*
X107501514Y-97823329D01*
X107246004Y-97702429D01*
X106971816Y-97633700D01*
X106689488Y-97619783D01*
X106409870Y-97661213D01*
X106143708Y-97756397D01*
X106018486Y-97823329D01*
X105946903Y-98067298D01*
X100096694Y-98067298D01*
X99974759Y-97945363D01*
X99739727Y-97788320D01*
X99478574Y-97680147D01*
X99201335Y-97625000D01*
X98918665Y-97625000D01*
X98641426Y-97680147D01*
X98380273Y-97788320D01*
X98175716Y-97925000D01*
X97070132Y-97925000D01*
X91677850Y-92532719D01*
X91629853Y-92291426D01*
X91521680Y-92030273D01*
X91364637Y-91795241D01*
X91164759Y-91595363D01*
X90929727Y-91438320D01*
X90668574Y-91330147D01*
X90391335Y-91275000D01*
X90108665Y-91275000D01*
X89831426Y-91330147D01*
X89570273Y-91438320D01*
X89335241Y-91595363D01*
X89135363Y-91795241D01*
X88978320Y-92030273D01*
X88870147Y-92291426D01*
X88815000Y-92568665D01*
X78605000Y-92568665D01*
X78605000Y-90035000D01*
X78764257Y-90035000D01*
X78819999Y-90040490D01*
X78875741Y-90035000D01*
X92654249Y-90035000D01*
X92710000Y-90040491D01*
X92932499Y-90018577D01*
X93146447Y-89953676D01*
X93343623Y-89848284D01*
X93516449Y-89706449D01*
X93658284Y-89533623D01*
X93763676Y-89336447D01*
X93828577Y-89122499D01*
X93845000Y-88955752D01*
X93845000Y-88955751D01*
X93850491Y-88900000D01*
X93845000Y-88844248D01*
X93845000Y-85641001D01*
X93898320Y-85769727D01*
X94055363Y-86004759D01*
X94115001Y-86064397D01*
X94115000Y-91825716D01*
X93978320Y-92030273D01*
X93870147Y-92291426D01*
X93815000Y-92568665D01*
X93815000Y-92851335D01*
X93870147Y-93128574D01*
X93978320Y-93389727D01*
X94135363Y-93624759D01*
X94335241Y-93824637D01*
X94570273Y-93981680D01*
X94831426Y-94089853D01*
X95108665Y-94145000D01*
X95391335Y-94145000D01*
X95668574Y-94089853D01*
X95929727Y-93981680D01*
X96134284Y-93845000D01*
X99445716Y-93845000D01*
X99650273Y-93981680D01*
X99911426Y-94089853D01*
X100188665Y-94145000D01*
X100471335Y-94145000D01*
X100748574Y-94089853D01*
X101009727Y-93981680D01*
X101244759Y-93824637D01*
X101444637Y-93624759D01*
X101601680Y-93389727D01*
X101709853Y-93128574D01*
X101765000Y-92851335D01*
X101765000Y-92568665D01*
X101732557Y-92405565D01*
X104624040Y-92405565D01*
X104691020Y-92645656D01*
X104940048Y-92762756D01*
X105207135Y-92829023D01*
X105482017Y-92841910D01*
X105754133Y-92800922D01*
X106013023Y-92707636D01*
X106128980Y-92645656D01*
X106195960Y-92405565D01*
X105410000Y-91619605D01*
X104624040Y-92405565D01*
X101732557Y-92405565D01*
X101709853Y-92291426D01*
X101601680Y-92030273D01*
X101444637Y-91795241D01*
X101244759Y-91595363D01*
X101120023Y-91512017D01*
X104008090Y-91512017D01*
X104049078Y-91784133D01*
X104142364Y-92043023D01*
X104204344Y-92158980D01*
X104444435Y-92225960D01*
X105230395Y-91440000D01*
X105589605Y-91440000D01*
X106375565Y-92225960D01*
X106615656Y-92158980D01*
X106732756Y-91909952D01*
X106799023Y-91642865D01*
X106811910Y-91367983D01*
X106770922Y-91095867D01*
X106677636Y-90836977D01*
X106615656Y-90721020D01*
X106375565Y-90654040D01*
X105589605Y-91440000D01*
X105230395Y-91440000D01*
X104444435Y-90654040D01*
X104204344Y-90721020D01*
X104087244Y-90970048D01*
X104020977Y-91237135D01*
X104008090Y-91512017D01*
X101120023Y-91512017D01*
X101009727Y-91438320D01*
X100748574Y-91330147D01*
X100471335Y-91275000D01*
X100188665Y-91275000D01*
X99911426Y-91330147D01*
X99650273Y-91438320D01*
X99445716Y-91575000D01*
X96385000Y-91575000D01*
X96385000Y-89865565D01*
X104624040Y-89865565D01*
X104691020Y-90105656D01*
X104821644Y-90167079D01*
X104806977Y-90172364D01*
X104691020Y-90234344D01*
X104624040Y-90474435D01*
X105410000Y-91260395D01*
X106195960Y-90474435D01*
X106128980Y-90234344D01*
X105998356Y-90172921D01*
X106013023Y-90167636D01*
X106128980Y-90105656D01*
X106195960Y-89865565D01*
X105410000Y-89079605D01*
X104624040Y-89865565D01*
X96385000Y-89865565D01*
X96385000Y-88972017D01*
X104008090Y-88972017D01*
X104049078Y-89244133D01*
X104142364Y-89503023D01*
X104204344Y-89618980D01*
X104444435Y-89685960D01*
X105230395Y-88900000D01*
X105589605Y-88900000D01*
X106375565Y-89685960D01*
X106615656Y-89618980D01*
X106732756Y-89369952D01*
X106799023Y-89102865D01*
X106811910Y-88827983D01*
X106770922Y-88555867D01*
X106677636Y-88296977D01*
X106615656Y-88181020D01*
X106375565Y-88114040D01*
X105589605Y-88900000D01*
X105230395Y-88900000D01*
X104444435Y-88114040D01*
X104204344Y-88181020D01*
X104087244Y-88430048D01*
X104020977Y-88697135D01*
X104008090Y-88972017D01*
X96385000Y-88972017D01*
X96385000Y-85854555D01*
X96441680Y-85769727D01*
X96549853Y-85508574D01*
X96605000Y-85231335D01*
X96605000Y-84948665D01*
X96549853Y-84671426D01*
X96441680Y-84410273D01*
X96284637Y-84175241D01*
X96084759Y-83975363D01*
X95849727Y-83818320D01*
X95588574Y-83710147D01*
X95311335Y-83655000D01*
X95028665Y-83655000D01*
X94751426Y-83710147D01*
X94490273Y-83818320D01*
X94255241Y-83975363D01*
X94055363Y-84175241D01*
X93898320Y-84410273D01*
X93845000Y-84538999D01*
X93845000Y-83492999D01*
X104050676Y-83492999D01*
X104013000Y-83682408D01*
X104013000Y-83957592D01*
X104066686Y-84227490D01*
X104171995Y-84481727D01*
X104324880Y-84710535D01*
X104519465Y-84905120D01*
X104748273Y-85058005D01*
X104825515Y-85090000D01*
X104748273Y-85121995D01*
X104594116Y-85225000D01*
X102070132Y-85225000D01*
X101757850Y-84912718D01*
X101709853Y-84671426D01*
X101601680Y-84410273D01*
X101444637Y-84175241D01*
X101244759Y-83975363D01*
X101009727Y-83818320D01*
X100748574Y-83710147D01*
X100471335Y-83655000D01*
X100188665Y-83655000D01*
X99911426Y-83710147D01*
X99650273Y-83818320D01*
X99415241Y-83975363D01*
X99215363Y-84175241D01*
X99058320Y-84410273D01*
X98950147Y-84671426D01*
X98895000Y-84948665D01*
X98895000Y-85231335D01*
X98950147Y-85508574D01*
X99058320Y-85769727D01*
X99215363Y-86004759D01*
X99415241Y-86204637D01*
X99650273Y-86361680D01*
X99911426Y-86469853D01*
X100152718Y-86517850D01*
X100758008Y-87123140D01*
X100793551Y-87166449D01*
X100966377Y-87308284D01*
X101163553Y-87413676D01*
X101327705Y-87463471D01*
X101377500Y-87478577D01*
X101398493Y-87480644D01*
X101544248Y-87495000D01*
X101544255Y-87495000D01*
X101599999Y-87500490D01*
X101655743Y-87495000D01*
X104594116Y-87495000D01*
X104748273Y-87598005D01*
X104819943Y-87627692D01*
X104806977Y-87632364D01*
X104691020Y-87694344D01*
X104624040Y-87934435D01*
X105410000Y-88720395D01*
X106195960Y-87934435D01*
X106128980Y-87694344D01*
X105993240Y-87630515D01*
X106071727Y-87598005D01*
X106216284Y-87501415D01*
X108085000Y-89370132D01*
X108085001Y-98503542D01*
X108063603Y-98443708D01*
X107996671Y-98318486D01*
X107752702Y-98246903D01*
X106939605Y-99060000D01*
X107752702Y-99873097D01*
X107996671Y-99801514D01*
X108085001Y-99614838D01*
X108085001Y-101544238D01*
X108079509Y-101600000D01*
X108101423Y-101822499D01*
X108166324Y-102036447D01*
X108271716Y-102233623D01*
X108413551Y-102406449D01*
X108586377Y-102548284D01*
X108783553Y-102653676D01*
X108997501Y-102718577D01*
X109164248Y-102735000D01*
X109164249Y-102735000D01*
X109220000Y-102740491D01*
X109275752Y-102735000D01*
X123134249Y-102735000D01*
X123190000Y-102740491D01*
X123245751Y-102735000D01*
X123245752Y-102735000D01*
X123412499Y-102718577D01*
X123626447Y-102653676D01*
X123823623Y-102548284D01*
X123996449Y-102406449D01*
X124031996Y-102363135D01*
X127177283Y-99217849D01*
X127418574Y-99169853D01*
X127679727Y-99061680D01*
X127914759Y-98904637D01*
X128114637Y-98704759D01*
X128271680Y-98469727D01*
X128379853Y-98208574D01*
X128435000Y-97931335D01*
X128435000Y-97648665D01*
X128379853Y-97371426D01*
X128271680Y-97110273D01*
X128114637Y-96875241D01*
X127914759Y-96675363D01*
X127679727Y-96518320D01*
X127418574Y-96410147D01*
X127177283Y-96362151D01*
X124325000Y-93509869D01*
X124325000Y-88955751D01*
X124330491Y-88900000D01*
X124308577Y-88677501D01*
X124243676Y-88463553D01*
X124138284Y-88266377D01*
X123996449Y-88093551D01*
X123823623Y-87951716D01*
X123626447Y-87846324D01*
X123412499Y-87781423D01*
X123245752Y-87765000D01*
X123190000Y-87759509D01*
X123134249Y-87765000D01*
X121120132Y-87765000D01*
X119645000Y-86289869D01*
X119645000Y-86208816D01*
X119586011Y-85912257D01*
X119470299Y-85632905D01*
X119354768Y-85460000D01*
X126731928Y-85460000D01*
X126731928Y-87260000D01*
X126744188Y-87384482D01*
X126780498Y-87504180D01*
X126839463Y-87614494D01*
X126918815Y-87711185D01*
X127015506Y-87790537D01*
X127125820Y-87849502D01*
X127135001Y-87852287D01*
X127135000Y-90404183D01*
X127077688Y-90461495D01*
X126909701Y-90712905D01*
X126793989Y-90992257D01*
X126735000Y-91288816D01*
X126735000Y-91591184D01*
X126793989Y-91887743D01*
X126909701Y-92167095D01*
X127077688Y-92418505D01*
X127291495Y-92632312D01*
X127542905Y-92800299D01*
X127822257Y-92916011D01*
X128118816Y-92975000D01*
X128421184Y-92975000D01*
X128717743Y-92916011D01*
X128997095Y-92800299D01*
X129248505Y-92632312D01*
X129462312Y-92418505D01*
X129630299Y-92167095D01*
X129746011Y-91887743D01*
X129805000Y-91591184D01*
X129805000Y-91288816D01*
X129746011Y-90992257D01*
X129630299Y-90712905D01*
X129462312Y-90461495D01*
X129405000Y-90404183D01*
X129405000Y-87852287D01*
X129414180Y-87849502D01*
X129524494Y-87790537D01*
X129621185Y-87711185D01*
X129700537Y-87614494D01*
X129759502Y-87504180D01*
X129795812Y-87384482D01*
X129808072Y-87260000D01*
X129808072Y-85460000D01*
X129795812Y-85335518D01*
X129759502Y-85215820D01*
X129700537Y-85105506D01*
X129621185Y-85008815D01*
X129524494Y-84929463D01*
X129414180Y-84870498D01*
X129294482Y-84834188D01*
X129170000Y-84821928D01*
X127370000Y-84821928D01*
X127245518Y-84834188D01*
X127125820Y-84870498D01*
X127015506Y-84929463D01*
X126918815Y-85008815D01*
X126839463Y-85105506D01*
X126780498Y-85215820D01*
X126744188Y-85335518D01*
X126731928Y-85460000D01*
X119354768Y-85460000D01*
X119302312Y-85381495D01*
X119088505Y-85167688D01*
X118837095Y-84999701D01*
X118557743Y-84883989D01*
X118261184Y-84825000D01*
X117958816Y-84825000D01*
X117662257Y-84883989D01*
X117382905Y-84999701D01*
X117131495Y-85167688D01*
X116917688Y-85381495D01*
X116749701Y-85632905D01*
X116705000Y-85740822D01*
X116705000Y-83020131D01*
X120827282Y-78897850D01*
X121068574Y-78849853D01*
X121329727Y-78741680D01*
X121564759Y-78584637D01*
X121764637Y-78384759D01*
X121921680Y-78149727D01*
X122029853Y-77888574D01*
X122085000Y-77611335D01*
X122085000Y-77328665D01*
X122029853Y-77051426D01*
X121921680Y-76790273D01*
X121785000Y-76585716D01*
X121785000Y-74130131D01*
X125907282Y-70007850D01*
X126148574Y-69959853D01*
X126409727Y-69851680D01*
X126644759Y-69694637D01*
X126844637Y-69494759D01*
X127001680Y-69259727D01*
X127109853Y-68998574D01*
X127165000Y-68721335D01*
X127165000Y-68438665D01*
X127109853Y-68161426D01*
X127001680Y-67900273D01*
X126844637Y-67665241D01*
X126644759Y-67465363D01*
X126409727Y-67308320D01*
X126148574Y-67200147D01*
X125871335Y-67145000D01*
X125588665Y-67145000D01*
X125311426Y-67200147D01*
X125050273Y-67308320D01*
X124815241Y-67465363D01*
X124615363Y-67665241D01*
X124458320Y-67900273D01*
X124350147Y-68161426D01*
X124302150Y-68402718D01*
X119886860Y-72818009D01*
X119843552Y-72853551D01*
X119701717Y-73026377D01*
X119645384Y-73131770D01*
X119596324Y-73223554D01*
X119531423Y-73437502D01*
X119509509Y-73660000D01*
X119515001Y-73715761D01*
X119515000Y-76585716D01*
X119378320Y-76790273D01*
X119270147Y-77051426D01*
X119222150Y-77292718D01*
X114806860Y-81708009D01*
X114763552Y-81743551D01*
X114621717Y-81916377D01*
X114576931Y-82000166D01*
X114516324Y-82113554D01*
X114451423Y-82327502D01*
X114429509Y-82550000D01*
X114435001Y-82605761D01*
X114435000Y-85225000D01*
X113845884Y-85225000D01*
X113691727Y-85121995D01*
X113614485Y-85090000D01*
X113691727Y-85058005D01*
X113920535Y-84905120D01*
X114115120Y-84710535D01*
X114268005Y-84481727D01*
X114373314Y-84227490D01*
X114427000Y-83957592D01*
X114427000Y-83682408D01*
X114373314Y-83412510D01*
X114268005Y-83158273D01*
X114115120Y-82929465D01*
X113920535Y-82734880D01*
X113691727Y-82581995D01*
X113437490Y-82476686D01*
X113167592Y-82423000D01*
X112892408Y-82423000D01*
X112622510Y-82476686D01*
X112368273Y-82581995D01*
X112223717Y-82678584D01*
X111139994Y-81594863D01*
X111104448Y-81551550D01*
X110931622Y-81409715D01*
X110734446Y-81304323D01*
X110520498Y-81239422D01*
X110353751Y-81222999D01*
X110353750Y-81222999D01*
X110297999Y-81217508D01*
X110242248Y-81222999D01*
X92957742Y-81222999D01*
X92902000Y-81217509D01*
X92846259Y-81222999D01*
X92846249Y-81222999D01*
X92679502Y-81239422D01*
X92465554Y-81304323D01*
X92268378Y-81409715D01*
X92095552Y-81551550D01*
X92060005Y-81594864D01*
X91946865Y-81708004D01*
X91903551Y-81743551D01*
X91761716Y-81916377D01*
X91656325Y-82113553D01*
X91656324Y-82113554D01*
X91591423Y-82327502D01*
X91569509Y-82550000D01*
X91575000Y-82605752D01*
X91575000Y-84797849D01*
X91549853Y-84671426D01*
X91441680Y-84410273D01*
X91305000Y-84205716D01*
X91305000Y-78978302D01*
X91371413Y-78933926D01*
X91633926Y-78671413D01*
X91840182Y-78362731D01*
X91982253Y-78019741D01*
X92054680Y-77655625D01*
X92054680Y-77284375D01*
X91982253Y-76920259D01*
X91840182Y-76577269D01*
X91633926Y-76268587D01*
X91371413Y-76006074D01*
X91062731Y-75799818D01*
X90719741Y-75657747D01*
X90355625Y-75585320D01*
X89984375Y-75585320D01*
X89620259Y-75657747D01*
X89277269Y-75799818D01*
X88968587Y-76006074D01*
X88706074Y-76268587D01*
X88499818Y-76577269D01*
X88357747Y-76920259D01*
X88285320Y-77284375D01*
X88285320Y-77655625D01*
X88357747Y-78019741D01*
X88499818Y-78362731D01*
X88706074Y-78671413D01*
X88968587Y-78933926D01*
X89035001Y-78978303D01*
X89035000Y-84205716D01*
X88898320Y-84410273D01*
X88790147Y-84671426D01*
X88735000Y-84948665D01*
X88735000Y-85231335D01*
X88790147Y-85508574D01*
X88898320Y-85769727D01*
X89055363Y-86004759D01*
X89255241Y-86204637D01*
X89490273Y-86361680D01*
X89751426Y-86469853D01*
X90028665Y-86525000D01*
X90311335Y-86525000D01*
X90588574Y-86469853D01*
X90849727Y-86361680D01*
X91084759Y-86204637D01*
X91284637Y-86004759D01*
X91441680Y-85769727D01*
X91549853Y-85508574D01*
X91575000Y-85382151D01*
X91575001Y-87765000D01*
X79349163Y-87765000D01*
X79355000Y-87735656D01*
X79355000Y-87364344D01*
X79282561Y-87000166D01*
X79140466Y-86657118D01*
X78934175Y-86348382D01*
X78671618Y-86085825D01*
X78362882Y-85879534D01*
X78019834Y-85737439D01*
X77655656Y-85665000D01*
X77284344Y-85665000D01*
X76920166Y-85737439D01*
X76577118Y-85879534D01*
X76268382Y-86085825D01*
X76005825Y-86348382D01*
X75799534Y-86657118D01*
X75657439Y-87000166D01*
X75585000Y-87364344D01*
X69265000Y-87364344D01*
X69265000Y-82364344D01*
X75585000Y-82364344D01*
X75585000Y-82735656D01*
X75657439Y-83099834D01*
X75799534Y-83442882D01*
X76005825Y-83751618D01*
X76268382Y-84014175D01*
X76577118Y-84220466D01*
X76920166Y-84362561D01*
X77284344Y-84435000D01*
X77655656Y-84435000D01*
X78019834Y-84362561D01*
X78362882Y-84220466D01*
X78671618Y-84014175D01*
X78934175Y-83751618D01*
X79140466Y-83442882D01*
X79282561Y-83099834D01*
X79355000Y-82735656D01*
X79355000Y-82364344D01*
X79282561Y-82000166D01*
X79140466Y-81657118D01*
X78934175Y-81348382D01*
X78671618Y-81085825D01*
X78362882Y-80879534D01*
X78019834Y-80737439D01*
X77655656Y-80665000D01*
X77284344Y-80665000D01*
X76920166Y-80737439D01*
X76577118Y-80879534D01*
X76268382Y-81085825D01*
X76005825Y-81348382D01*
X75799534Y-81657118D01*
X75657439Y-82000166D01*
X75585000Y-82364344D01*
X69265000Y-82364344D01*
X69265000Y-78863605D01*
X76336000Y-78863605D01*
X76461914Y-79153577D01*
X76794126Y-79319433D01*
X77152312Y-79417290D01*
X77522706Y-79443389D01*
X77891075Y-79396725D01*
X78243262Y-79279094D01*
X78478086Y-79153577D01*
X78604000Y-78863605D01*
X77470000Y-77729605D01*
X76336000Y-78863605D01*
X69265000Y-78863605D01*
X69265000Y-77602706D01*
X75576611Y-77602706D01*
X75623275Y-77971075D01*
X75740906Y-78323262D01*
X75866423Y-78558086D01*
X76156395Y-78684000D01*
X77290395Y-77550000D01*
X77649605Y-77550000D01*
X78783605Y-78684000D01*
X79073577Y-78558086D01*
X79239433Y-78225874D01*
X79337290Y-77867688D01*
X79363389Y-77497294D01*
X79316725Y-77128925D01*
X79199094Y-76776738D01*
X79073577Y-76541914D01*
X78783605Y-76416000D01*
X77649605Y-77550000D01*
X77290395Y-77550000D01*
X76156395Y-76416000D01*
X75866423Y-76541914D01*
X75700567Y-76874126D01*
X75602710Y-77232312D01*
X75576611Y-77602706D01*
X69265000Y-77602706D01*
X69265000Y-76236395D01*
X76336000Y-76236395D01*
X77470000Y-77370395D01*
X78604000Y-76236395D01*
X78478086Y-75946423D01*
X78145874Y-75780567D01*
X77787688Y-75682710D01*
X77417294Y-75656611D01*
X77048925Y-75703275D01*
X76696738Y-75820906D01*
X76461914Y-75946423D01*
X76336000Y-76236395D01*
X69265000Y-76236395D01*
X69265000Y-65854375D01*
X75585320Y-65854375D01*
X75585320Y-66225625D01*
X75657747Y-66589741D01*
X75799818Y-66932731D01*
X76006074Y-67241413D01*
X76268587Y-67503926D01*
X76577269Y-67710182D01*
X76920259Y-67852253D01*
X77284375Y-67924680D01*
X77655625Y-67924680D01*
X78019741Y-67852253D01*
X78362731Y-67710182D01*
X78671413Y-67503926D01*
X78933926Y-67241413D01*
X78978302Y-67175000D01*
X85225001Y-67175000D01*
X85225000Y-67839712D01*
X85159215Y-67938167D01*
X85057072Y-68184761D01*
X85005000Y-68446544D01*
X85005000Y-68713456D01*
X85057072Y-68975239D01*
X85159215Y-69221833D01*
X85307503Y-69443762D01*
X85496238Y-69632497D01*
X85718167Y-69780785D01*
X85885266Y-69850000D01*
X85718167Y-69919215D01*
X85619713Y-69985000D01*
X78978302Y-69985000D01*
X78933926Y-69918587D01*
X78671413Y-69656074D01*
X78362731Y-69449818D01*
X78019741Y-69307747D01*
X77655625Y-69235320D01*
X77284375Y-69235320D01*
X76920259Y-69307747D01*
X76577269Y-69449818D01*
X76268587Y-69656074D01*
X76006074Y-69918587D01*
X75799818Y-70227269D01*
X75657747Y-70570259D01*
X75585320Y-70934375D01*
X75585320Y-71305625D01*
X75657747Y-71669741D01*
X75799818Y-72012731D01*
X76006074Y-72321413D01*
X76268587Y-72583926D01*
X76577269Y-72790182D01*
X76920259Y-72932253D01*
X77284375Y-73004680D01*
X77655625Y-73004680D01*
X78019741Y-72932253D01*
X78362731Y-72790182D01*
X78671413Y-72583926D01*
X78933926Y-72321413D01*
X78978302Y-72255000D01*
X85619713Y-72255000D01*
X85718167Y-72320785D01*
X85964761Y-72422928D01*
X86226544Y-72475000D01*
X86493456Y-72475000D01*
X86755239Y-72422928D01*
X87001833Y-72320785D01*
X87100287Y-72255000D01*
X95635716Y-72255000D01*
X95840273Y-72391680D01*
X96101426Y-72499853D01*
X96378665Y-72555000D01*
X96661335Y-72555000D01*
X96938574Y-72499853D01*
X97199727Y-72391680D01*
X97434759Y-72234637D01*
X97634637Y-72034759D01*
X97791680Y-71799727D01*
X97899853Y-71538574D01*
X97955000Y-71261335D01*
X97955000Y-70978665D01*
X97899853Y-70701426D01*
X97791680Y-70440273D01*
X97634637Y-70205241D01*
X97434759Y-70005363D01*
X97199727Y-69848320D01*
X96938574Y-69740147D01*
X96661335Y-69685000D01*
X96378665Y-69685000D01*
X96101426Y-69740147D01*
X95840273Y-69848320D01*
X95635716Y-69985000D01*
X87100287Y-69985000D01*
X87001833Y-69919215D01*
X86834734Y-69850000D01*
X87001833Y-69780785D01*
X87223762Y-69632497D01*
X87412497Y-69443762D01*
X87560785Y-69221833D01*
X87662928Y-68975239D01*
X87715000Y-68713456D01*
X87715000Y-68446544D01*
X87667949Y-68210000D01*
X114031928Y-68210000D01*
X114044188Y-68334482D01*
X114080498Y-68454180D01*
X114139463Y-68564494D01*
X114218815Y-68661185D01*
X114315506Y-68740537D01*
X114425820Y-68799502D01*
X114444127Y-68805056D01*
X114377688Y-68871495D01*
X114209701Y-69122905D01*
X114093989Y-69402257D01*
X114035000Y-69698816D01*
X114035000Y-70001184D01*
X114093989Y-70297743D01*
X114209701Y-70577095D01*
X114377688Y-70828505D01*
X114591495Y-71042312D01*
X114842905Y-71210299D01*
X115122257Y-71326011D01*
X115418816Y-71385000D01*
X115721184Y-71385000D01*
X116017743Y-71326011D01*
X116297095Y-71210299D01*
X116548505Y-71042312D01*
X116605817Y-70985000D01*
X119765716Y-70985000D01*
X119970273Y-71121680D01*
X120231426Y-71229853D01*
X120508665Y-71285000D01*
X120791335Y-71285000D01*
X121068574Y-71229853D01*
X121329727Y-71121680D01*
X121564759Y-70964637D01*
X121764637Y-70764759D01*
X121921680Y-70529727D01*
X122029853Y-70268574D01*
X122085000Y-69991335D01*
X122085000Y-69708665D01*
X122029853Y-69431426D01*
X121921680Y-69170273D01*
X121764637Y-68935241D01*
X121564759Y-68735363D01*
X121329727Y-68578320D01*
X121068574Y-68470147D01*
X120791335Y-68415000D01*
X120508665Y-68415000D01*
X120231426Y-68470147D01*
X119970273Y-68578320D01*
X119765716Y-68715000D01*
X116855611Y-68715000D01*
X116921185Y-68661185D01*
X117000537Y-68564494D01*
X117059502Y-68454180D01*
X117095812Y-68334482D01*
X117108072Y-68210000D01*
X117105000Y-67595750D01*
X116946250Y-67437000D01*
X115697000Y-67437000D01*
X115697000Y-67457000D01*
X115443000Y-67457000D01*
X115443000Y-67437000D01*
X114193750Y-67437000D01*
X114035000Y-67595750D01*
X114031928Y-68210000D01*
X87667949Y-68210000D01*
X87662928Y-68184761D01*
X87560785Y-67938167D01*
X87495000Y-67839713D01*
X87495000Y-67175000D01*
X95635716Y-67175000D01*
X95840273Y-67311680D01*
X96101426Y-67419853D01*
X96378665Y-67475000D01*
X96661335Y-67475000D01*
X96938574Y-67419853D01*
X97199727Y-67311680D01*
X97434759Y-67154637D01*
X97634637Y-66954759D01*
X97791680Y-66719727D01*
X97899853Y-66458574D01*
X97909515Y-66410000D01*
X114031928Y-66410000D01*
X114035000Y-67024250D01*
X114193750Y-67183000D01*
X115443000Y-67183000D01*
X115443000Y-65933750D01*
X115697000Y-65933750D01*
X115697000Y-67183000D01*
X116946250Y-67183000D01*
X117105000Y-67024250D01*
X117108072Y-66410000D01*
X117095812Y-66285518D01*
X117059502Y-66165820D01*
X117000537Y-66055506D01*
X116921185Y-65958815D01*
X116824494Y-65879463D01*
X116714180Y-65820498D01*
X116594482Y-65784188D01*
X116470000Y-65771928D01*
X115855750Y-65775000D01*
X115697000Y-65933750D01*
X115443000Y-65933750D01*
X115284250Y-65775000D01*
X114670000Y-65771928D01*
X114545518Y-65784188D01*
X114425820Y-65820498D01*
X114315506Y-65879463D01*
X114218815Y-65958815D01*
X114139463Y-66055506D01*
X114080498Y-66165820D01*
X114044188Y-66285518D01*
X114031928Y-66410000D01*
X97909515Y-66410000D01*
X97955000Y-66181335D01*
X97955000Y-65898665D01*
X97899853Y-65621426D01*
X97791680Y-65360273D01*
X97634637Y-65125241D01*
X97434759Y-64925363D01*
X97199727Y-64768320D01*
X96938574Y-64660147D01*
X96661335Y-64605000D01*
X96378665Y-64605000D01*
X96101426Y-64660147D01*
X95840273Y-64768320D01*
X95635716Y-64905000D01*
X87100287Y-64905000D01*
X87001833Y-64839215D01*
X86755239Y-64737072D01*
X86493456Y-64685000D01*
X86226544Y-64685000D01*
X85964761Y-64737072D01*
X85718167Y-64839215D01*
X85619713Y-64905000D01*
X78978302Y-64905000D01*
X78933926Y-64838587D01*
X78671413Y-64576074D01*
X78362731Y-64369818D01*
X78019741Y-64227747D01*
X77655625Y-64155320D01*
X77284375Y-64155320D01*
X76920259Y-64227747D01*
X76577269Y-64369818D01*
X76268587Y-64576074D01*
X76006074Y-64838587D01*
X75799818Y-65147269D01*
X75657747Y-65490259D01*
X75585320Y-65854375D01*
X69265000Y-65854375D01*
X69265000Y-55694375D01*
X75585320Y-55694375D01*
X75585320Y-56065625D01*
X75657747Y-56429741D01*
X75799818Y-56772731D01*
X76006074Y-57081413D01*
X76268587Y-57343926D01*
X76577269Y-57550182D01*
X76920259Y-57692253D01*
X77284375Y-57764680D01*
X77655625Y-57764680D01*
X78019741Y-57692253D01*
X78362731Y-57550182D01*
X78671413Y-57343926D01*
X78933926Y-57081413D01*
X78978302Y-57015000D01*
X85225000Y-57015000D01*
X85225001Y-57679712D01*
X85159215Y-57778167D01*
X85057072Y-58024761D01*
X85005000Y-58286544D01*
X85005000Y-58553456D01*
X85057072Y-58815239D01*
X85159215Y-59061833D01*
X85307503Y-59283762D01*
X85496238Y-59472497D01*
X85718167Y-59620785D01*
X85885266Y-59690000D01*
X85718167Y-59759215D01*
X85619713Y-59825000D01*
X78978302Y-59825000D01*
X78933926Y-59758587D01*
X78671413Y-59496074D01*
X78362731Y-59289818D01*
X78019741Y-59147747D01*
X77655625Y-59075320D01*
X77284375Y-59075320D01*
X76920259Y-59147747D01*
X76577269Y-59289818D01*
X76268587Y-59496074D01*
X76006074Y-59758587D01*
X75799818Y-60067269D01*
X75657747Y-60410259D01*
X75585320Y-60774375D01*
X75585320Y-61145625D01*
X75657747Y-61509741D01*
X75799818Y-61852731D01*
X76006074Y-62161413D01*
X76268587Y-62423926D01*
X76577269Y-62630182D01*
X76920259Y-62772253D01*
X77284375Y-62844680D01*
X77655625Y-62844680D01*
X78019741Y-62772253D01*
X78362731Y-62630182D01*
X78671413Y-62423926D01*
X78933926Y-62161413D01*
X78978302Y-62095000D01*
X85619713Y-62095000D01*
X85718167Y-62160785D01*
X85964761Y-62262928D01*
X86226544Y-62315000D01*
X86493456Y-62315000D01*
X86755239Y-62262928D01*
X87001833Y-62160785D01*
X87100287Y-62095000D01*
X95635716Y-62095000D01*
X95840273Y-62231680D01*
X96101426Y-62339853D01*
X96378665Y-62395000D01*
X96661335Y-62395000D01*
X96938574Y-62339853D01*
X97199727Y-62231680D01*
X97434759Y-62074637D01*
X97634637Y-61874759D01*
X97791680Y-61639727D01*
X97899853Y-61378574D01*
X97955000Y-61101335D01*
X97955000Y-60818665D01*
X97899853Y-60541426D01*
X97791680Y-60280273D01*
X97634637Y-60045241D01*
X97434759Y-59845363D01*
X97199727Y-59688320D01*
X96938574Y-59580147D01*
X96661335Y-59525000D01*
X96378665Y-59525000D01*
X96101426Y-59580147D01*
X95840273Y-59688320D01*
X95635716Y-59825000D01*
X87100287Y-59825000D01*
X87001833Y-59759215D01*
X86834734Y-59690000D01*
X87001833Y-59620785D01*
X87223762Y-59472497D01*
X87412497Y-59283762D01*
X87560785Y-59061833D01*
X87662928Y-58815239D01*
X87715000Y-58553456D01*
X87715000Y-58286544D01*
X87667949Y-58050000D01*
X114031928Y-58050000D01*
X114044188Y-58174482D01*
X114080498Y-58294180D01*
X114139463Y-58404494D01*
X114218815Y-58501185D01*
X114315506Y-58580537D01*
X114425820Y-58639502D01*
X114444127Y-58645056D01*
X114377688Y-58711495D01*
X114209701Y-58962905D01*
X114093989Y-59242257D01*
X114035000Y-59538816D01*
X114035000Y-59841184D01*
X114093989Y-60137743D01*
X114209701Y-60417095D01*
X114377688Y-60668505D01*
X114591495Y-60882312D01*
X114842905Y-61050299D01*
X115122257Y-61166011D01*
X115418816Y-61225000D01*
X115499868Y-61225000D01*
X115998008Y-61723140D01*
X116033551Y-61766449D01*
X116206377Y-61908284D01*
X116403553Y-62013676D01*
X116567705Y-62063471D01*
X116617500Y-62078577D01*
X116638493Y-62080644D01*
X116784248Y-62095000D01*
X116784255Y-62095000D01*
X116839999Y-62100490D01*
X116895743Y-62095000D01*
X124845716Y-62095000D01*
X125050273Y-62231680D01*
X125311426Y-62339853D01*
X125588665Y-62395000D01*
X125871335Y-62395000D01*
X126148574Y-62339853D01*
X126409727Y-62231680D01*
X126644759Y-62074637D01*
X126844637Y-61874759D01*
X127001680Y-61639727D01*
X127109853Y-61378574D01*
X127165000Y-61101335D01*
X127165000Y-60818665D01*
X127109853Y-60541426D01*
X127001680Y-60280273D01*
X126844637Y-60045241D01*
X126644759Y-59845363D01*
X126409727Y-59688320D01*
X126148574Y-59580147D01*
X125871335Y-59525000D01*
X125588665Y-59525000D01*
X125311426Y-59580147D01*
X125050273Y-59688320D01*
X124845716Y-59825000D01*
X117310132Y-59825000D01*
X117105000Y-59619868D01*
X117105000Y-59538816D01*
X117046011Y-59242257D01*
X116930299Y-58962905D01*
X116762312Y-58711495D01*
X116695873Y-58645056D01*
X116714180Y-58639502D01*
X116824494Y-58580537D01*
X116921185Y-58501185D01*
X117000537Y-58404494D01*
X117059502Y-58294180D01*
X117095812Y-58174482D01*
X117108072Y-58050000D01*
X117105000Y-57435750D01*
X116946250Y-57277000D01*
X115697000Y-57277000D01*
X115697000Y-57297000D01*
X115443000Y-57297000D01*
X115443000Y-57277000D01*
X114193750Y-57277000D01*
X114035000Y-57435750D01*
X114031928Y-58050000D01*
X87667949Y-58050000D01*
X87662928Y-58024761D01*
X87560785Y-57778167D01*
X87495000Y-57679713D01*
X87495000Y-57015000D01*
X95635716Y-57015000D01*
X95840273Y-57151680D01*
X96101426Y-57259853D01*
X96378665Y-57315000D01*
X96661335Y-57315000D01*
X96938574Y-57259853D01*
X97199727Y-57151680D01*
X97434759Y-56994637D01*
X97634637Y-56794759D01*
X97791680Y-56559727D01*
X97899853Y-56298574D01*
X97909515Y-56250000D01*
X114031928Y-56250000D01*
X114035000Y-56864250D01*
X114193750Y-57023000D01*
X115443000Y-57023000D01*
X115443000Y-55773750D01*
X115697000Y-55773750D01*
X115697000Y-57023000D01*
X116946250Y-57023000D01*
X117105000Y-56864250D01*
X117108072Y-56250000D01*
X117095812Y-56125518D01*
X117059502Y-56005820D01*
X117000537Y-55895506D01*
X116921185Y-55798815D01*
X116824494Y-55719463D01*
X116714180Y-55660498D01*
X116594482Y-55624188D01*
X116470000Y-55611928D01*
X115855750Y-55615000D01*
X115697000Y-55773750D01*
X115443000Y-55773750D01*
X115284250Y-55615000D01*
X114670000Y-55611928D01*
X114545518Y-55624188D01*
X114425820Y-55660498D01*
X114315506Y-55719463D01*
X114218815Y-55798815D01*
X114139463Y-55895506D01*
X114080498Y-56005820D01*
X114044188Y-56125518D01*
X114031928Y-56250000D01*
X97909515Y-56250000D01*
X97955000Y-56021335D01*
X97955000Y-55738665D01*
X97899853Y-55461426D01*
X97791680Y-55200273D01*
X97634637Y-54965241D01*
X97434759Y-54765363D01*
X97199727Y-54608320D01*
X96938574Y-54500147D01*
X96661335Y-54445000D01*
X96378665Y-54445000D01*
X96101426Y-54500147D01*
X95840273Y-54608320D01*
X95635716Y-54745000D01*
X87100287Y-54745000D01*
X87001833Y-54679215D01*
X86755239Y-54577072D01*
X86493456Y-54525000D01*
X86226544Y-54525000D01*
X85964761Y-54577072D01*
X85718167Y-54679215D01*
X85619713Y-54745000D01*
X78978302Y-54745000D01*
X78933926Y-54678587D01*
X78671413Y-54416074D01*
X78362731Y-54209818D01*
X78019741Y-54067747D01*
X77655625Y-53995320D01*
X77284375Y-53995320D01*
X76920259Y-54067747D01*
X76577269Y-54209818D01*
X76268587Y-54416074D01*
X76006074Y-54678587D01*
X75799818Y-54987269D01*
X75657747Y-55330259D01*
X75585320Y-55694375D01*
X69265000Y-55694375D01*
X69265000Y-50215000D01*
X131395000Y-50215000D01*
X131395001Y-103455000D01*
G37*
X131395001Y-103455000D02*
X69265000Y-103455000D01*
X69265000Y-101643377D01*
X76336229Y-101643377D01*
X76462104Y-101933315D01*
X76794262Y-102099139D01*
X77152387Y-102196975D01*
X77522719Y-102223065D01*
X77891025Y-102176405D01*
X78243151Y-102058789D01*
X78477896Y-101933315D01*
X78603771Y-101643377D01*
X77470000Y-100509605D01*
X76336229Y-101643377D01*
X69265000Y-101643377D01*
X69265000Y-100382719D01*
X75576935Y-100382719D01*
X75623595Y-100751025D01*
X75741211Y-101103151D01*
X75866685Y-101337896D01*
X76156623Y-101463771D01*
X77290395Y-100330000D01*
X77649605Y-100330000D01*
X78783377Y-101463771D01*
X79073315Y-101337896D01*
X79239139Y-101005738D01*
X79336975Y-100647613D01*
X79363065Y-100277281D01*
X79346228Y-100144375D01*
X83205320Y-100144375D01*
X83205320Y-100515625D01*
X83277747Y-100879741D01*
X83419818Y-101222731D01*
X83626074Y-101531413D01*
X83888587Y-101793926D01*
X84197269Y-102000182D01*
X84540259Y-102142253D01*
X84904375Y-102214680D01*
X85275625Y-102214680D01*
X85639741Y-102142253D01*
X85982731Y-102000182D01*
X86291413Y-101793926D01*
X86553926Y-101531413D01*
X86598302Y-101465000D01*
X90114249Y-101465000D01*
X90170000Y-101470491D01*
X90225751Y-101465000D01*
X90225752Y-101465000D01*
X90392499Y-101448577D01*
X90606447Y-101383676D01*
X90803623Y-101278284D01*
X90976449Y-101136449D01*
X91011996Y-101093135D01*
X91617282Y-100487850D01*
X91858574Y-100439853D01*
X92119727Y-100331680D01*
X92354759Y-100174637D01*
X92554637Y-99974759D01*
X92711680Y-99739727D01*
X92819853Y-99478574D01*
X92875000Y-99201335D01*
X92875000Y-98918665D01*
X92819853Y-98641426D01*
X92711680Y-98380273D01*
X92554637Y-98145241D01*
X92354759Y-97945363D01*
X92119727Y-97788320D01*
X91858574Y-97680147D01*
X91581335Y-97625000D01*
X91298665Y-97625000D01*
X91021426Y-97680147D01*
X90760273Y-97788320D01*
X90525241Y-97945363D01*
X90325363Y-98145241D01*
X90168320Y-98380273D01*
X90060147Y-98641426D01*
X90012150Y-98882718D01*
X89699869Y-99195000D01*
X86598302Y-99195000D01*
X86553926Y-99128587D01*
X86291413Y-98866074D01*
X85982731Y-98659818D01*
X85639741Y-98517747D01*
X85275625Y-98445320D01*
X84904375Y-98445320D01*
X84540259Y-98517747D01*
X84197269Y-98659818D01*
X83888587Y-98866074D01*
X83626074Y-99128587D01*
X83419818Y-99437269D01*
X83277747Y-99780259D01*
X83205320Y-100144375D01*
X79346228Y-100144375D01*
X79316405Y-99908975D01*
X79198789Y-99556849D01*
X79073315Y-99322104D01*
X78783377Y-99196229D01*
X77649605Y-100330000D01*
X77290395Y-100330000D01*
X76156623Y-99196229D01*
X75866685Y-99322104D01*
X75700861Y-99654262D01*
X75603025Y-100012387D01*
X75576935Y-100382719D01*
X69265000Y-100382719D01*
X69265000Y-99016623D01*
X76336229Y-99016623D01*
X77470000Y-100150395D01*
X78603771Y-99016623D01*
X78477896Y-98726685D01*
X78145738Y-98560861D01*
X77787613Y-98463025D01*
X77417281Y-98436935D01*
X77048975Y-98483595D01*
X76696849Y-98601211D01*
X76462104Y-98726685D01*
X76336229Y-99016623D01*
X69265000Y-99016623D01*
X69265000Y-87364344D01*
X75585000Y-87364344D01*
X75585000Y-87735656D01*
X75657439Y-88099834D01*
X75799534Y-88442882D01*
X76005825Y-88751618D01*
X76268382Y-89014175D01*
X76335001Y-89058688D01*
X76335000Y-92586377D01*
X76268587Y-92630753D01*
X76006074Y-92893266D01*
X75799818Y-93201948D01*
X75657747Y-93544938D01*
X75585320Y-93909054D01*
X75585320Y-94280304D01*
X75657747Y-94644420D01*
X75799818Y-94987410D01*
X76006074Y-95296092D01*
X76268587Y-95558605D01*
X76577269Y-95764861D01*
X76920259Y-95906932D01*
X77284375Y-95979359D01*
X77655625Y-95979359D01*
X78019741Y-95906932D01*
X78362731Y-95764861D01*
X78671413Y-95558605D01*
X78933926Y-95296092D01*
X79140182Y-94987410D01*
X79282253Y-94644420D01*
X79354680Y-94280304D01*
X79354680Y-93909054D01*
X79282253Y-93544938D01*
X79140182Y-93201948D01*
X78933926Y-92893266D01*
X78671413Y-92630753D01*
X78605000Y-92586377D01*
X78605000Y-92568665D01*
X88815000Y-92568665D01*
X88815000Y-92851335D01*
X88870147Y-93128574D01*
X88978320Y-93389727D01*
X89135363Y-93624759D01*
X89335241Y-93824637D01*
X89570273Y-93981680D01*
X89831426Y-94089853D01*
X90072719Y-94137850D01*
X95758009Y-99823141D01*
X95793551Y-99866449D01*
X95966377Y-100008284D01*
X96163553Y-100113676D01*
X96327705Y-100163471D01*
X96377500Y-100178577D01*
X96599999Y-100200491D01*
X96655751Y-100195000D01*
X98175716Y-100195000D01*
X98380273Y-100331680D01*
X98641426Y-100439853D01*
X98918665Y-100495000D01*
X99201335Y-100495000D01*
X99478574Y-100439853D01*
X99739727Y-100331680D01*
X99974759Y-100174637D01*
X100096694Y-100052702D01*
X105946903Y-100052702D01*
X106018486Y-100296671D01*
X106273996Y-100417571D01*
X106548184Y-100486300D01*
X106830512Y-100500217D01*
X107110130Y-100458787D01*
X107376292Y-100363603D01*
X107501514Y-100296671D01*
X107573097Y-100052702D01*
X106760000Y-99239605D01*
X105946903Y-100052702D01*
X100096694Y-100052702D01*
X100174637Y-99974759D01*
X100331680Y-99739727D01*
X100439853Y-99478574D01*
X100495000Y-99201335D01*
X100495000Y-99130512D01*
X105319783Y-99130512D01*
X105361213Y-99410130D01*
X105456397Y-99676292D01*
X105523329Y-99801514D01*
X105767298Y-99873097D01*
X106580395Y-99060000D01*
X105767298Y-98246903D01*
X105523329Y-98318486D01*
X105402429Y-98573996D01*
X105333700Y-98848184D01*
X105319783Y-99130512D01*
X100495000Y-99130512D01*
X100495000Y-98918665D01*
X100439853Y-98641426D01*
X100331680Y-98380273D01*
X100174637Y-98145241D01*
X100096694Y-98067298D01*
X105946903Y-98067298D01*
X106760000Y-98880395D01*
X107573097Y-98067298D01*
X107501514Y-97823329D01*
X107246004Y-97702429D01*
X106971816Y-97633700D01*
X106689488Y-97619783D01*
X106409870Y-97661213D01*
X106143708Y-97756397D01*
X106018486Y-97823329D01*
X105946903Y-98067298D01*
X100096694Y-98067298D01*
X99974759Y-97945363D01*
X99739727Y-97788320D01*
X99478574Y-97680147D01*
X99201335Y-97625000D01*
X98918665Y-97625000D01*
X98641426Y-97680147D01*
X98380273Y-97788320D01*
X98175716Y-97925000D01*
X97070132Y-97925000D01*
X91677850Y-92532719D01*
X91629853Y-92291426D01*
X91521680Y-92030273D01*
X91364637Y-91795241D01*
X91164759Y-91595363D01*
X90929727Y-91438320D01*
X90668574Y-91330147D01*
X90391335Y-91275000D01*
X90108665Y-91275000D01*
X89831426Y-91330147D01*
X89570273Y-91438320D01*
X89335241Y-91595363D01*
X89135363Y-91795241D01*
X88978320Y-92030273D01*
X88870147Y-92291426D01*
X88815000Y-92568665D01*
X78605000Y-92568665D01*
X78605000Y-90035000D01*
X78764257Y-90035000D01*
X78819999Y-90040490D01*
X78875741Y-90035000D01*
X92654249Y-90035000D01*
X92710000Y-90040491D01*
X92932499Y-90018577D01*
X93146447Y-89953676D01*
X93343623Y-89848284D01*
X93516449Y-89706449D01*
X93658284Y-89533623D01*
X93763676Y-89336447D01*
X93828577Y-89122499D01*
X93845000Y-88955752D01*
X93845000Y-88955751D01*
X93850491Y-88900000D01*
X93845000Y-88844248D01*
X93845000Y-85641001D01*
X93898320Y-85769727D01*
X94055363Y-86004759D01*
X94115001Y-86064397D01*
X94115000Y-91825716D01*
X93978320Y-92030273D01*
X93870147Y-92291426D01*
X93815000Y-92568665D01*
X93815000Y-92851335D01*
X93870147Y-93128574D01*
X93978320Y-93389727D01*
X94135363Y-93624759D01*
X94335241Y-93824637D01*
X94570273Y-93981680D01*
X94831426Y-94089853D01*
X95108665Y-94145000D01*
X95391335Y-94145000D01*
X95668574Y-94089853D01*
X95929727Y-93981680D01*
X96134284Y-93845000D01*
X99445716Y-93845000D01*
X99650273Y-93981680D01*
X99911426Y-94089853D01*
X100188665Y-94145000D01*
X100471335Y-94145000D01*
X100748574Y-94089853D01*
X101009727Y-93981680D01*
X101244759Y-93824637D01*
X101444637Y-93624759D01*
X101601680Y-93389727D01*
X101709853Y-93128574D01*
X101765000Y-92851335D01*
X101765000Y-92568665D01*
X101732557Y-92405565D01*
X104624040Y-92405565D01*
X104691020Y-92645656D01*
X104940048Y-92762756D01*
X105207135Y-92829023D01*
X105482017Y-92841910D01*
X105754133Y-92800922D01*
X106013023Y-92707636D01*
X106128980Y-92645656D01*
X106195960Y-92405565D01*
X105410000Y-91619605D01*
X104624040Y-92405565D01*
X101732557Y-92405565D01*
X101709853Y-92291426D01*
X101601680Y-92030273D01*
X101444637Y-91795241D01*
X101244759Y-91595363D01*
X101120023Y-91512017D01*
X104008090Y-91512017D01*
X104049078Y-91784133D01*
X104142364Y-92043023D01*
X104204344Y-92158980D01*
X104444435Y-92225960D01*
X105230395Y-91440000D01*
X105589605Y-91440000D01*
X106375565Y-92225960D01*
X106615656Y-92158980D01*
X106732756Y-91909952D01*
X106799023Y-91642865D01*
X106811910Y-91367983D01*
X106770922Y-91095867D01*
X106677636Y-90836977D01*
X106615656Y-90721020D01*
X106375565Y-90654040D01*
X105589605Y-91440000D01*
X105230395Y-91440000D01*
X104444435Y-90654040D01*
X104204344Y-90721020D01*
X104087244Y-90970048D01*
X104020977Y-91237135D01*
X104008090Y-91512017D01*
X101120023Y-91512017D01*
X101009727Y-91438320D01*
X100748574Y-91330147D01*
X100471335Y-91275000D01*
X100188665Y-91275000D01*
X99911426Y-91330147D01*
X99650273Y-91438320D01*
X99445716Y-91575000D01*
X96385000Y-91575000D01*
X96385000Y-89865565D01*
X104624040Y-89865565D01*
X104691020Y-90105656D01*
X104821644Y-90167079D01*
X104806977Y-90172364D01*
X104691020Y-90234344D01*
X104624040Y-90474435D01*
X105410000Y-91260395D01*
X106195960Y-90474435D01*
X106128980Y-90234344D01*
X105998356Y-90172921D01*
X106013023Y-90167636D01*
X106128980Y-90105656D01*
X106195960Y-89865565D01*
X105410000Y-89079605D01*
X104624040Y-89865565D01*
X96385000Y-89865565D01*
X96385000Y-88972017D01*
X104008090Y-88972017D01*
X104049078Y-89244133D01*
X104142364Y-89503023D01*
X104204344Y-89618980D01*
X104444435Y-89685960D01*
X105230395Y-88900000D01*
X105589605Y-88900000D01*
X106375565Y-89685960D01*
X106615656Y-89618980D01*
X106732756Y-89369952D01*
X106799023Y-89102865D01*
X106811910Y-88827983D01*
X106770922Y-88555867D01*
X106677636Y-88296977D01*
X106615656Y-88181020D01*
X106375565Y-88114040D01*
X105589605Y-88900000D01*
X105230395Y-88900000D01*
X104444435Y-88114040D01*
X104204344Y-88181020D01*
X104087244Y-88430048D01*
X104020977Y-88697135D01*
X104008090Y-88972017D01*
X96385000Y-88972017D01*
X96385000Y-85854555D01*
X96441680Y-85769727D01*
X96549853Y-85508574D01*
X96605000Y-85231335D01*
X96605000Y-84948665D01*
X96549853Y-84671426D01*
X96441680Y-84410273D01*
X96284637Y-84175241D01*
X96084759Y-83975363D01*
X95849727Y-83818320D01*
X95588574Y-83710147D01*
X95311335Y-83655000D01*
X95028665Y-83655000D01*
X94751426Y-83710147D01*
X94490273Y-83818320D01*
X94255241Y-83975363D01*
X94055363Y-84175241D01*
X93898320Y-84410273D01*
X93845000Y-84538999D01*
X93845000Y-83492999D01*
X104050676Y-83492999D01*
X104013000Y-83682408D01*
X104013000Y-83957592D01*
X104066686Y-84227490D01*
X104171995Y-84481727D01*
X104324880Y-84710535D01*
X104519465Y-84905120D01*
X104748273Y-85058005D01*
X104825515Y-85090000D01*
X104748273Y-85121995D01*
X104594116Y-85225000D01*
X102070132Y-85225000D01*
X101757850Y-84912718D01*
X101709853Y-84671426D01*
X101601680Y-84410273D01*
X101444637Y-84175241D01*
X101244759Y-83975363D01*
X101009727Y-83818320D01*
X100748574Y-83710147D01*
X100471335Y-83655000D01*
X100188665Y-83655000D01*
X99911426Y-83710147D01*
X99650273Y-83818320D01*
X99415241Y-83975363D01*
X99215363Y-84175241D01*
X99058320Y-84410273D01*
X98950147Y-84671426D01*
X98895000Y-84948665D01*
X98895000Y-85231335D01*
X98950147Y-85508574D01*
X99058320Y-85769727D01*
X99215363Y-86004759D01*
X99415241Y-86204637D01*
X99650273Y-86361680D01*
X99911426Y-86469853D01*
X100152718Y-86517850D01*
X100758008Y-87123140D01*
X100793551Y-87166449D01*
X100966377Y-87308284D01*
X101163553Y-87413676D01*
X101327705Y-87463471D01*
X101377500Y-87478577D01*
X101398493Y-87480644D01*
X101544248Y-87495000D01*
X101544255Y-87495000D01*
X101599999Y-87500490D01*
X101655743Y-87495000D01*
X104594116Y-87495000D01*
X104748273Y-87598005D01*
X104819943Y-87627692D01*
X104806977Y-87632364D01*
X104691020Y-87694344D01*
X104624040Y-87934435D01*
X105410000Y-88720395D01*
X106195960Y-87934435D01*
X106128980Y-87694344D01*
X105993240Y-87630515D01*
X106071727Y-87598005D01*
X106216284Y-87501415D01*
X108085000Y-89370132D01*
X108085001Y-98503542D01*
X108063603Y-98443708D01*
X107996671Y-98318486D01*
X107752702Y-98246903D01*
X106939605Y-99060000D01*
X107752702Y-99873097D01*
X107996671Y-99801514D01*
X108085001Y-99614838D01*
X108085001Y-101544238D01*
X108079509Y-101600000D01*
X108101423Y-101822499D01*
X108166324Y-102036447D01*
X108271716Y-102233623D01*
X108413551Y-102406449D01*
X108586377Y-102548284D01*
X108783553Y-102653676D01*
X108997501Y-102718577D01*
X109164248Y-102735000D01*
X109164249Y-102735000D01*
X109220000Y-102740491D01*
X109275752Y-102735000D01*
X123134249Y-102735000D01*
X123190000Y-102740491D01*
X123245751Y-102735000D01*
X123245752Y-102735000D01*
X123412499Y-102718577D01*
X123626447Y-102653676D01*
X123823623Y-102548284D01*
X123996449Y-102406449D01*
X124031996Y-102363135D01*
X127177283Y-99217849D01*
X127418574Y-99169853D01*
X127679727Y-99061680D01*
X127914759Y-98904637D01*
X128114637Y-98704759D01*
X128271680Y-98469727D01*
X128379853Y-98208574D01*
X128435000Y-97931335D01*
X128435000Y-97648665D01*
X128379853Y-97371426D01*
X128271680Y-97110273D01*
X128114637Y-96875241D01*
X127914759Y-96675363D01*
X127679727Y-96518320D01*
X127418574Y-96410147D01*
X127177283Y-96362151D01*
X124325000Y-93509869D01*
X124325000Y-88955751D01*
X124330491Y-88900000D01*
X124308577Y-88677501D01*
X124243676Y-88463553D01*
X124138284Y-88266377D01*
X123996449Y-88093551D01*
X123823623Y-87951716D01*
X123626447Y-87846324D01*
X123412499Y-87781423D01*
X123245752Y-87765000D01*
X123190000Y-87759509D01*
X123134249Y-87765000D01*
X121120132Y-87765000D01*
X119645000Y-86289869D01*
X119645000Y-86208816D01*
X119586011Y-85912257D01*
X119470299Y-85632905D01*
X119354768Y-85460000D01*
X126731928Y-85460000D01*
X126731928Y-87260000D01*
X126744188Y-87384482D01*
X126780498Y-87504180D01*
X126839463Y-87614494D01*
X126918815Y-87711185D01*
X127015506Y-87790537D01*
X127125820Y-87849502D01*
X127135001Y-87852287D01*
X127135000Y-90404183D01*
X127077688Y-90461495D01*
X126909701Y-90712905D01*
X126793989Y-90992257D01*
X126735000Y-91288816D01*
X126735000Y-91591184D01*
X126793989Y-91887743D01*
X126909701Y-92167095D01*
X127077688Y-92418505D01*
X127291495Y-92632312D01*
X127542905Y-92800299D01*
X127822257Y-92916011D01*
X128118816Y-92975000D01*
X128421184Y-92975000D01*
X128717743Y-92916011D01*
X128997095Y-92800299D01*
X129248505Y-92632312D01*
X129462312Y-92418505D01*
X129630299Y-92167095D01*
X129746011Y-91887743D01*
X129805000Y-91591184D01*
X129805000Y-91288816D01*
X129746011Y-90992257D01*
X129630299Y-90712905D01*
X129462312Y-90461495D01*
X129405000Y-90404183D01*
X129405000Y-87852287D01*
X129414180Y-87849502D01*
X129524494Y-87790537D01*
X129621185Y-87711185D01*
X129700537Y-87614494D01*
X129759502Y-87504180D01*
X129795812Y-87384482D01*
X129808072Y-87260000D01*
X129808072Y-85460000D01*
X129795812Y-85335518D01*
X129759502Y-85215820D01*
X129700537Y-85105506D01*
X129621185Y-85008815D01*
X129524494Y-84929463D01*
X129414180Y-84870498D01*
X129294482Y-84834188D01*
X129170000Y-84821928D01*
X127370000Y-84821928D01*
X127245518Y-84834188D01*
X127125820Y-84870498D01*
X127015506Y-84929463D01*
X126918815Y-85008815D01*
X126839463Y-85105506D01*
X126780498Y-85215820D01*
X126744188Y-85335518D01*
X126731928Y-85460000D01*
X119354768Y-85460000D01*
X119302312Y-85381495D01*
X119088505Y-85167688D01*
X118837095Y-84999701D01*
X118557743Y-84883989D01*
X118261184Y-84825000D01*
X117958816Y-84825000D01*
X117662257Y-84883989D01*
X117382905Y-84999701D01*
X117131495Y-85167688D01*
X116917688Y-85381495D01*
X116749701Y-85632905D01*
X116705000Y-85740822D01*
X116705000Y-83020131D01*
X120827282Y-78897850D01*
X121068574Y-78849853D01*
X121329727Y-78741680D01*
X121564759Y-78584637D01*
X121764637Y-78384759D01*
X121921680Y-78149727D01*
X122029853Y-77888574D01*
X122085000Y-77611335D01*
X122085000Y-77328665D01*
X122029853Y-77051426D01*
X121921680Y-76790273D01*
X121785000Y-76585716D01*
X121785000Y-74130131D01*
X125907282Y-70007850D01*
X126148574Y-69959853D01*
X126409727Y-69851680D01*
X126644759Y-69694637D01*
X126844637Y-69494759D01*
X127001680Y-69259727D01*
X127109853Y-68998574D01*
X127165000Y-68721335D01*
X127165000Y-68438665D01*
X127109853Y-68161426D01*
X127001680Y-67900273D01*
X126844637Y-67665241D01*
X126644759Y-67465363D01*
X126409727Y-67308320D01*
X126148574Y-67200147D01*
X125871335Y-67145000D01*
X125588665Y-67145000D01*
X125311426Y-67200147D01*
X125050273Y-67308320D01*
X124815241Y-67465363D01*
X124615363Y-67665241D01*
X124458320Y-67900273D01*
X124350147Y-68161426D01*
X124302150Y-68402718D01*
X119886860Y-72818009D01*
X119843552Y-72853551D01*
X119701717Y-73026377D01*
X119645384Y-73131770D01*
X119596324Y-73223554D01*
X119531423Y-73437502D01*
X119509509Y-73660000D01*
X119515001Y-73715761D01*
X119515000Y-76585716D01*
X119378320Y-76790273D01*
X119270147Y-77051426D01*
X119222150Y-77292718D01*
X114806860Y-81708009D01*
X114763552Y-81743551D01*
X114621717Y-81916377D01*
X114576931Y-82000166D01*
X114516324Y-82113554D01*
X114451423Y-82327502D01*
X114429509Y-82550000D01*
X114435001Y-82605761D01*
X114435000Y-85225000D01*
X113845884Y-85225000D01*
X113691727Y-85121995D01*
X113614485Y-85090000D01*
X113691727Y-85058005D01*
X113920535Y-84905120D01*
X114115120Y-84710535D01*
X114268005Y-84481727D01*
X114373314Y-84227490D01*
X114427000Y-83957592D01*
X114427000Y-83682408D01*
X114373314Y-83412510D01*
X114268005Y-83158273D01*
X114115120Y-82929465D01*
X113920535Y-82734880D01*
X113691727Y-82581995D01*
X113437490Y-82476686D01*
X113167592Y-82423000D01*
X112892408Y-82423000D01*
X112622510Y-82476686D01*
X112368273Y-82581995D01*
X112223717Y-82678584D01*
X111139994Y-81594863D01*
X111104448Y-81551550D01*
X110931622Y-81409715D01*
X110734446Y-81304323D01*
X110520498Y-81239422D01*
X110353751Y-81222999D01*
X110353750Y-81222999D01*
X110297999Y-81217508D01*
X110242248Y-81222999D01*
X92957742Y-81222999D01*
X92902000Y-81217509D01*
X92846259Y-81222999D01*
X92846249Y-81222999D01*
X92679502Y-81239422D01*
X92465554Y-81304323D01*
X92268378Y-81409715D01*
X92095552Y-81551550D01*
X92060005Y-81594864D01*
X91946865Y-81708004D01*
X91903551Y-81743551D01*
X91761716Y-81916377D01*
X91656325Y-82113553D01*
X91656324Y-82113554D01*
X91591423Y-82327502D01*
X91569509Y-82550000D01*
X91575000Y-82605752D01*
X91575000Y-84797849D01*
X91549853Y-84671426D01*
X91441680Y-84410273D01*
X91305000Y-84205716D01*
X91305000Y-78978302D01*
X91371413Y-78933926D01*
X91633926Y-78671413D01*
X91840182Y-78362731D01*
X91982253Y-78019741D01*
X92054680Y-77655625D01*
X92054680Y-77284375D01*
X91982253Y-76920259D01*
X91840182Y-76577269D01*
X91633926Y-76268587D01*
X91371413Y-76006074D01*
X91062731Y-75799818D01*
X90719741Y-75657747D01*
X90355625Y-75585320D01*
X89984375Y-75585320D01*
X89620259Y-75657747D01*
X89277269Y-75799818D01*
X88968587Y-76006074D01*
X88706074Y-76268587D01*
X88499818Y-76577269D01*
X88357747Y-76920259D01*
X88285320Y-77284375D01*
X88285320Y-77655625D01*
X88357747Y-78019741D01*
X88499818Y-78362731D01*
X88706074Y-78671413D01*
X88968587Y-78933926D01*
X89035001Y-78978303D01*
X89035000Y-84205716D01*
X88898320Y-84410273D01*
X88790147Y-84671426D01*
X88735000Y-84948665D01*
X88735000Y-85231335D01*
X88790147Y-85508574D01*
X88898320Y-85769727D01*
X89055363Y-86004759D01*
X89255241Y-86204637D01*
X89490273Y-86361680D01*
X89751426Y-86469853D01*
X90028665Y-86525000D01*
X90311335Y-86525000D01*
X90588574Y-86469853D01*
X90849727Y-86361680D01*
X91084759Y-86204637D01*
X91284637Y-86004759D01*
X91441680Y-85769727D01*
X91549853Y-85508574D01*
X91575000Y-85382151D01*
X91575001Y-87765000D01*
X79349163Y-87765000D01*
X79355000Y-87735656D01*
X79355000Y-87364344D01*
X79282561Y-87000166D01*
X79140466Y-86657118D01*
X78934175Y-86348382D01*
X78671618Y-86085825D01*
X78362882Y-85879534D01*
X78019834Y-85737439D01*
X77655656Y-85665000D01*
X77284344Y-85665000D01*
X76920166Y-85737439D01*
X76577118Y-85879534D01*
X76268382Y-86085825D01*
X76005825Y-86348382D01*
X75799534Y-86657118D01*
X75657439Y-87000166D01*
X75585000Y-87364344D01*
X69265000Y-87364344D01*
X69265000Y-82364344D01*
X75585000Y-82364344D01*
X75585000Y-82735656D01*
X75657439Y-83099834D01*
X75799534Y-83442882D01*
X76005825Y-83751618D01*
X76268382Y-84014175D01*
X76577118Y-84220466D01*
X76920166Y-84362561D01*
X77284344Y-84435000D01*
X77655656Y-84435000D01*
X78019834Y-84362561D01*
X78362882Y-84220466D01*
X78671618Y-84014175D01*
X78934175Y-83751618D01*
X79140466Y-83442882D01*
X79282561Y-83099834D01*
X79355000Y-82735656D01*
X79355000Y-82364344D01*
X79282561Y-82000166D01*
X79140466Y-81657118D01*
X78934175Y-81348382D01*
X78671618Y-81085825D01*
X78362882Y-80879534D01*
X78019834Y-80737439D01*
X77655656Y-80665000D01*
X77284344Y-80665000D01*
X76920166Y-80737439D01*
X76577118Y-80879534D01*
X76268382Y-81085825D01*
X76005825Y-81348382D01*
X75799534Y-81657118D01*
X75657439Y-82000166D01*
X75585000Y-82364344D01*
X69265000Y-82364344D01*
X69265000Y-78863605D01*
X76336000Y-78863605D01*
X76461914Y-79153577D01*
X76794126Y-79319433D01*
X77152312Y-79417290D01*
X77522706Y-79443389D01*
X77891075Y-79396725D01*
X78243262Y-79279094D01*
X78478086Y-79153577D01*
X78604000Y-78863605D01*
X77470000Y-77729605D01*
X76336000Y-78863605D01*
X69265000Y-78863605D01*
X69265000Y-77602706D01*
X75576611Y-77602706D01*
X75623275Y-77971075D01*
X75740906Y-78323262D01*
X75866423Y-78558086D01*
X76156395Y-78684000D01*
X77290395Y-77550000D01*
X77649605Y-77550000D01*
X78783605Y-78684000D01*
X79073577Y-78558086D01*
X79239433Y-78225874D01*
X79337290Y-77867688D01*
X79363389Y-77497294D01*
X79316725Y-77128925D01*
X79199094Y-76776738D01*
X79073577Y-76541914D01*
X78783605Y-76416000D01*
X77649605Y-77550000D01*
X77290395Y-77550000D01*
X76156395Y-76416000D01*
X75866423Y-76541914D01*
X75700567Y-76874126D01*
X75602710Y-77232312D01*
X75576611Y-77602706D01*
X69265000Y-77602706D01*
X69265000Y-76236395D01*
X76336000Y-76236395D01*
X77470000Y-77370395D01*
X78604000Y-76236395D01*
X78478086Y-75946423D01*
X78145874Y-75780567D01*
X77787688Y-75682710D01*
X77417294Y-75656611D01*
X77048925Y-75703275D01*
X76696738Y-75820906D01*
X76461914Y-75946423D01*
X76336000Y-76236395D01*
X69265000Y-76236395D01*
X69265000Y-65854375D01*
X75585320Y-65854375D01*
X75585320Y-66225625D01*
X75657747Y-66589741D01*
X75799818Y-66932731D01*
X76006074Y-67241413D01*
X76268587Y-67503926D01*
X76577269Y-67710182D01*
X76920259Y-67852253D01*
X77284375Y-67924680D01*
X77655625Y-67924680D01*
X78019741Y-67852253D01*
X78362731Y-67710182D01*
X78671413Y-67503926D01*
X78933926Y-67241413D01*
X78978302Y-67175000D01*
X85225001Y-67175000D01*
X85225000Y-67839712D01*
X85159215Y-67938167D01*
X85057072Y-68184761D01*
X85005000Y-68446544D01*
X85005000Y-68713456D01*
X85057072Y-68975239D01*
X85159215Y-69221833D01*
X85307503Y-69443762D01*
X85496238Y-69632497D01*
X85718167Y-69780785D01*
X85885266Y-69850000D01*
X85718167Y-69919215D01*
X85619713Y-69985000D01*
X78978302Y-69985000D01*
X78933926Y-69918587D01*
X78671413Y-69656074D01*
X78362731Y-69449818D01*
X78019741Y-69307747D01*
X77655625Y-69235320D01*
X77284375Y-69235320D01*
X76920259Y-69307747D01*
X76577269Y-69449818D01*
X76268587Y-69656074D01*
X76006074Y-69918587D01*
X75799818Y-70227269D01*
X75657747Y-70570259D01*
X75585320Y-70934375D01*
X75585320Y-71305625D01*
X75657747Y-71669741D01*
X75799818Y-72012731D01*
X76006074Y-72321413D01*
X76268587Y-72583926D01*
X76577269Y-72790182D01*
X76920259Y-72932253D01*
X77284375Y-73004680D01*
X77655625Y-73004680D01*
X78019741Y-72932253D01*
X78362731Y-72790182D01*
X78671413Y-72583926D01*
X78933926Y-72321413D01*
X78978302Y-72255000D01*
X85619713Y-72255000D01*
X85718167Y-72320785D01*
X85964761Y-72422928D01*
X86226544Y-72475000D01*
X86493456Y-72475000D01*
X86755239Y-72422928D01*
X87001833Y-72320785D01*
X87100287Y-72255000D01*
X95635716Y-72255000D01*
X95840273Y-72391680D01*
X96101426Y-72499853D01*
X96378665Y-72555000D01*
X96661335Y-72555000D01*
X96938574Y-72499853D01*
X97199727Y-72391680D01*
X97434759Y-72234637D01*
X97634637Y-72034759D01*
X97791680Y-71799727D01*
X97899853Y-71538574D01*
X97955000Y-71261335D01*
X97955000Y-70978665D01*
X97899853Y-70701426D01*
X97791680Y-70440273D01*
X97634637Y-70205241D01*
X97434759Y-70005363D01*
X97199727Y-69848320D01*
X96938574Y-69740147D01*
X96661335Y-69685000D01*
X96378665Y-69685000D01*
X96101426Y-69740147D01*
X95840273Y-69848320D01*
X95635716Y-69985000D01*
X87100287Y-69985000D01*
X87001833Y-69919215D01*
X86834734Y-69850000D01*
X87001833Y-69780785D01*
X87223762Y-69632497D01*
X87412497Y-69443762D01*
X87560785Y-69221833D01*
X87662928Y-68975239D01*
X87715000Y-68713456D01*
X87715000Y-68446544D01*
X87667949Y-68210000D01*
X114031928Y-68210000D01*
X114044188Y-68334482D01*
X114080498Y-68454180D01*
X114139463Y-68564494D01*
X114218815Y-68661185D01*
X114315506Y-68740537D01*
X114425820Y-68799502D01*
X114444127Y-68805056D01*
X114377688Y-68871495D01*
X114209701Y-69122905D01*
X114093989Y-69402257D01*
X114035000Y-69698816D01*
X114035000Y-70001184D01*
X114093989Y-70297743D01*
X114209701Y-70577095D01*
X114377688Y-70828505D01*
X114591495Y-71042312D01*
X114842905Y-71210299D01*
X115122257Y-71326011D01*
X115418816Y-71385000D01*
X115721184Y-71385000D01*
X116017743Y-71326011D01*
X116297095Y-71210299D01*
X116548505Y-71042312D01*
X116605817Y-70985000D01*
X119765716Y-70985000D01*
X119970273Y-71121680D01*
X120231426Y-71229853D01*
X120508665Y-71285000D01*
X120791335Y-71285000D01*
X121068574Y-71229853D01*
X121329727Y-71121680D01*
X121564759Y-70964637D01*
X121764637Y-70764759D01*
X121921680Y-70529727D01*
X122029853Y-70268574D01*
X122085000Y-69991335D01*
X122085000Y-69708665D01*
X122029853Y-69431426D01*
X121921680Y-69170273D01*
X121764637Y-68935241D01*
X121564759Y-68735363D01*
X121329727Y-68578320D01*
X121068574Y-68470147D01*
X120791335Y-68415000D01*
X120508665Y-68415000D01*
X120231426Y-68470147D01*
X119970273Y-68578320D01*
X119765716Y-68715000D01*
X116855611Y-68715000D01*
X116921185Y-68661185D01*
X117000537Y-68564494D01*
X117059502Y-68454180D01*
X117095812Y-68334482D01*
X117108072Y-68210000D01*
X117105000Y-67595750D01*
X116946250Y-67437000D01*
X115697000Y-67437000D01*
X115697000Y-67457000D01*
X115443000Y-67457000D01*
X115443000Y-67437000D01*
X114193750Y-67437000D01*
X114035000Y-67595750D01*
X114031928Y-68210000D01*
X87667949Y-68210000D01*
X87662928Y-68184761D01*
X87560785Y-67938167D01*
X87495000Y-67839713D01*
X87495000Y-67175000D01*
X95635716Y-67175000D01*
X95840273Y-67311680D01*
X96101426Y-67419853D01*
X96378665Y-67475000D01*
X96661335Y-67475000D01*
X96938574Y-67419853D01*
X97199727Y-67311680D01*
X97434759Y-67154637D01*
X97634637Y-66954759D01*
X97791680Y-66719727D01*
X97899853Y-66458574D01*
X97909515Y-66410000D01*
X114031928Y-66410000D01*
X114035000Y-67024250D01*
X114193750Y-67183000D01*
X115443000Y-67183000D01*
X115443000Y-65933750D01*
X115697000Y-65933750D01*
X115697000Y-67183000D01*
X116946250Y-67183000D01*
X117105000Y-67024250D01*
X117108072Y-66410000D01*
X117095812Y-66285518D01*
X117059502Y-66165820D01*
X117000537Y-66055506D01*
X116921185Y-65958815D01*
X116824494Y-65879463D01*
X116714180Y-65820498D01*
X116594482Y-65784188D01*
X116470000Y-65771928D01*
X115855750Y-65775000D01*
X115697000Y-65933750D01*
X115443000Y-65933750D01*
X115284250Y-65775000D01*
X114670000Y-65771928D01*
X114545518Y-65784188D01*
X114425820Y-65820498D01*
X114315506Y-65879463D01*
X114218815Y-65958815D01*
X114139463Y-66055506D01*
X114080498Y-66165820D01*
X114044188Y-66285518D01*
X114031928Y-66410000D01*
X97909515Y-66410000D01*
X97955000Y-66181335D01*
X97955000Y-65898665D01*
X97899853Y-65621426D01*
X97791680Y-65360273D01*
X97634637Y-65125241D01*
X97434759Y-64925363D01*
X97199727Y-64768320D01*
X96938574Y-64660147D01*
X96661335Y-64605000D01*
X96378665Y-64605000D01*
X96101426Y-64660147D01*
X95840273Y-64768320D01*
X95635716Y-64905000D01*
X87100287Y-64905000D01*
X87001833Y-64839215D01*
X86755239Y-64737072D01*
X86493456Y-64685000D01*
X86226544Y-64685000D01*
X85964761Y-64737072D01*
X85718167Y-64839215D01*
X85619713Y-64905000D01*
X78978302Y-64905000D01*
X78933926Y-64838587D01*
X78671413Y-64576074D01*
X78362731Y-64369818D01*
X78019741Y-64227747D01*
X77655625Y-64155320D01*
X77284375Y-64155320D01*
X76920259Y-64227747D01*
X76577269Y-64369818D01*
X76268587Y-64576074D01*
X76006074Y-64838587D01*
X75799818Y-65147269D01*
X75657747Y-65490259D01*
X75585320Y-65854375D01*
X69265000Y-65854375D01*
X69265000Y-55694375D01*
X75585320Y-55694375D01*
X75585320Y-56065625D01*
X75657747Y-56429741D01*
X75799818Y-56772731D01*
X76006074Y-57081413D01*
X76268587Y-57343926D01*
X76577269Y-57550182D01*
X76920259Y-57692253D01*
X77284375Y-57764680D01*
X77655625Y-57764680D01*
X78019741Y-57692253D01*
X78362731Y-57550182D01*
X78671413Y-57343926D01*
X78933926Y-57081413D01*
X78978302Y-57015000D01*
X85225000Y-57015000D01*
X85225001Y-57679712D01*
X85159215Y-57778167D01*
X85057072Y-58024761D01*
X85005000Y-58286544D01*
X85005000Y-58553456D01*
X85057072Y-58815239D01*
X85159215Y-59061833D01*
X85307503Y-59283762D01*
X85496238Y-59472497D01*
X85718167Y-59620785D01*
X85885266Y-59690000D01*
X85718167Y-59759215D01*
X85619713Y-59825000D01*
X78978302Y-59825000D01*
X78933926Y-59758587D01*
X78671413Y-59496074D01*
X78362731Y-59289818D01*
X78019741Y-59147747D01*
X77655625Y-59075320D01*
X77284375Y-59075320D01*
X76920259Y-59147747D01*
X76577269Y-59289818D01*
X76268587Y-59496074D01*
X76006074Y-59758587D01*
X75799818Y-60067269D01*
X75657747Y-60410259D01*
X75585320Y-60774375D01*
X75585320Y-61145625D01*
X75657747Y-61509741D01*
X75799818Y-61852731D01*
X76006074Y-62161413D01*
X76268587Y-62423926D01*
X76577269Y-62630182D01*
X76920259Y-62772253D01*
X77284375Y-62844680D01*
X77655625Y-62844680D01*
X78019741Y-62772253D01*
X78362731Y-62630182D01*
X78671413Y-62423926D01*
X78933926Y-62161413D01*
X78978302Y-62095000D01*
X85619713Y-62095000D01*
X85718167Y-62160785D01*
X85964761Y-62262928D01*
X86226544Y-62315000D01*
X86493456Y-62315000D01*
X86755239Y-62262928D01*
X87001833Y-62160785D01*
X87100287Y-62095000D01*
X95635716Y-62095000D01*
X95840273Y-62231680D01*
X96101426Y-62339853D01*
X96378665Y-62395000D01*
X96661335Y-62395000D01*
X96938574Y-62339853D01*
X97199727Y-62231680D01*
X97434759Y-62074637D01*
X97634637Y-61874759D01*
X97791680Y-61639727D01*
X97899853Y-61378574D01*
X97955000Y-61101335D01*
X97955000Y-60818665D01*
X97899853Y-60541426D01*
X97791680Y-60280273D01*
X97634637Y-60045241D01*
X97434759Y-59845363D01*
X97199727Y-59688320D01*
X96938574Y-59580147D01*
X96661335Y-59525000D01*
X96378665Y-59525000D01*
X96101426Y-59580147D01*
X95840273Y-59688320D01*
X95635716Y-59825000D01*
X87100287Y-59825000D01*
X87001833Y-59759215D01*
X86834734Y-59690000D01*
X87001833Y-59620785D01*
X87223762Y-59472497D01*
X87412497Y-59283762D01*
X87560785Y-59061833D01*
X87662928Y-58815239D01*
X87715000Y-58553456D01*
X87715000Y-58286544D01*
X87667949Y-58050000D01*
X114031928Y-58050000D01*
X114044188Y-58174482D01*
X114080498Y-58294180D01*
X114139463Y-58404494D01*
X114218815Y-58501185D01*
X114315506Y-58580537D01*
X114425820Y-58639502D01*
X114444127Y-58645056D01*
X114377688Y-58711495D01*
X114209701Y-58962905D01*
X114093989Y-59242257D01*
X114035000Y-59538816D01*
X114035000Y-59841184D01*
X114093989Y-60137743D01*
X114209701Y-60417095D01*
X114377688Y-60668505D01*
X114591495Y-60882312D01*
X114842905Y-61050299D01*
X115122257Y-61166011D01*
X115418816Y-61225000D01*
X115499868Y-61225000D01*
X115998008Y-61723140D01*
X116033551Y-61766449D01*
X116206377Y-61908284D01*
X116403553Y-62013676D01*
X116567705Y-62063471D01*
X116617500Y-62078577D01*
X116638493Y-62080644D01*
X116784248Y-62095000D01*
X116784255Y-62095000D01*
X116839999Y-62100490D01*
X116895743Y-62095000D01*
X124845716Y-62095000D01*
X125050273Y-62231680D01*
X125311426Y-62339853D01*
X125588665Y-62395000D01*
X125871335Y-62395000D01*
X126148574Y-62339853D01*
X126409727Y-62231680D01*
X126644759Y-62074637D01*
X126844637Y-61874759D01*
X127001680Y-61639727D01*
X127109853Y-61378574D01*
X127165000Y-61101335D01*
X127165000Y-60818665D01*
X127109853Y-60541426D01*
X127001680Y-60280273D01*
X126844637Y-60045241D01*
X126644759Y-59845363D01*
X126409727Y-59688320D01*
X126148574Y-59580147D01*
X125871335Y-59525000D01*
X125588665Y-59525000D01*
X125311426Y-59580147D01*
X125050273Y-59688320D01*
X124845716Y-59825000D01*
X117310132Y-59825000D01*
X117105000Y-59619868D01*
X117105000Y-59538816D01*
X117046011Y-59242257D01*
X116930299Y-58962905D01*
X116762312Y-58711495D01*
X116695873Y-58645056D01*
X116714180Y-58639502D01*
X116824494Y-58580537D01*
X116921185Y-58501185D01*
X117000537Y-58404494D01*
X117059502Y-58294180D01*
X117095812Y-58174482D01*
X117108072Y-58050000D01*
X117105000Y-57435750D01*
X116946250Y-57277000D01*
X115697000Y-57277000D01*
X115697000Y-57297000D01*
X115443000Y-57297000D01*
X115443000Y-57277000D01*
X114193750Y-57277000D01*
X114035000Y-57435750D01*
X114031928Y-58050000D01*
X87667949Y-58050000D01*
X87662928Y-58024761D01*
X87560785Y-57778167D01*
X87495000Y-57679713D01*
X87495000Y-57015000D01*
X95635716Y-57015000D01*
X95840273Y-57151680D01*
X96101426Y-57259853D01*
X96378665Y-57315000D01*
X96661335Y-57315000D01*
X96938574Y-57259853D01*
X97199727Y-57151680D01*
X97434759Y-56994637D01*
X97634637Y-56794759D01*
X97791680Y-56559727D01*
X97899853Y-56298574D01*
X97909515Y-56250000D01*
X114031928Y-56250000D01*
X114035000Y-56864250D01*
X114193750Y-57023000D01*
X115443000Y-57023000D01*
X115443000Y-55773750D01*
X115697000Y-55773750D01*
X115697000Y-57023000D01*
X116946250Y-57023000D01*
X117105000Y-56864250D01*
X117108072Y-56250000D01*
X117095812Y-56125518D01*
X117059502Y-56005820D01*
X117000537Y-55895506D01*
X116921185Y-55798815D01*
X116824494Y-55719463D01*
X116714180Y-55660498D01*
X116594482Y-55624188D01*
X116470000Y-55611928D01*
X115855750Y-55615000D01*
X115697000Y-55773750D01*
X115443000Y-55773750D01*
X115284250Y-55615000D01*
X114670000Y-55611928D01*
X114545518Y-55624188D01*
X114425820Y-55660498D01*
X114315506Y-55719463D01*
X114218815Y-55798815D01*
X114139463Y-55895506D01*
X114080498Y-56005820D01*
X114044188Y-56125518D01*
X114031928Y-56250000D01*
X97909515Y-56250000D01*
X97955000Y-56021335D01*
X97955000Y-55738665D01*
X97899853Y-55461426D01*
X97791680Y-55200273D01*
X97634637Y-54965241D01*
X97434759Y-54765363D01*
X97199727Y-54608320D01*
X96938574Y-54500147D01*
X96661335Y-54445000D01*
X96378665Y-54445000D01*
X96101426Y-54500147D01*
X95840273Y-54608320D01*
X95635716Y-54745000D01*
X87100287Y-54745000D01*
X87001833Y-54679215D01*
X86755239Y-54577072D01*
X86493456Y-54525000D01*
X86226544Y-54525000D01*
X85964761Y-54577072D01*
X85718167Y-54679215D01*
X85619713Y-54745000D01*
X78978302Y-54745000D01*
X78933926Y-54678587D01*
X78671413Y-54416074D01*
X78362731Y-54209818D01*
X78019741Y-54067747D01*
X77655625Y-53995320D01*
X77284375Y-53995320D01*
X76920259Y-54067747D01*
X76577269Y-54209818D01*
X76268587Y-54416074D01*
X76006074Y-54678587D01*
X75799818Y-54987269D01*
X75657747Y-55330259D01*
X75585320Y-55694375D01*
X69265000Y-55694375D01*
X69265000Y-50215000D01*
X131395000Y-50215000D01*
X131395001Y-103455000D01*
%TD*%
M02*
