M48
; DRILL file {KiCad (5.1.6-0)} date Tuesday, May 03, 2022 at 02:12:46 PM
; FORMAT={-:-/ absolute / metric / decimal}
; #@! TF.CreationDate,2022-05-03T14:12:46-04:00
; #@! TF.GenerationSoftware,Kicad,Pcbnew,(5.1.6-0)
; #@! TF.FileFunction,Plated,1,2,PTH
FMAT,2
METRIC
T1C0.762
T2C0.800
T3C0.900
T4C1.001
T5C1.200
T6C4.000
%
G90
G05
T1
X105.41Y-83.82
X105.41Y-86.36
X105.41Y-88.9
X105.41Y-91.44
X113.03Y-83.82
X113.03Y-86.36
X113.03Y-88.9
X113.03Y-91.44
T2
X86.36Y-66.04
X86.36Y-68.58
X86.36Y-71.12
X125.73Y-60.96
X125.73Y-68.58
X119.38Y-97.79
X127.0Y-97.79
X90.25Y-92.71
X95.25Y-92.71
X86.36Y-55.88
X86.36Y-58.42
X86.36Y-60.96
X100.33Y-85.09
X100.33Y-92.71
X96.52Y-55.88
X96.52Y-60.96
X91.44Y-99.06
X99.06Y-99.06
X120.65Y-69.85
X120.65Y-77.47
X90.17Y-85.09
X95.17Y-85.09
X106.76Y-99.06
X111.76Y-99.06
X96.52Y-66.04
X96.52Y-71.12
T3
X118.11Y-86.36
X128.27Y-86.36
X115.57Y-67.31
X115.57Y-69.85
X118.11Y-91.44
X128.27Y-91.44
X115.57Y-57.15
X115.57Y-59.69
T4
X77.47Y-66.04
X77.47Y-71.12
X77.47Y-100.33
X77.47Y-94.095
X85.09Y-100.33
X77.47Y-55.88
X90.17Y-77.47
X77.47Y-60.96
T5
X77.47Y-77.55
X77.47Y-82.55
X77.47Y-87.55
T6
X72.39Y-54.61
X72.39Y-100.33
T0
M30
