%TF.GenerationSoftware,KiCad,Pcbnew,(5.1.6-0)*%
%TF.CreationDate,2022-05-02T17:38:10-04:00*%
%TF.ProjectId,EnvFollower,456e7646-6f6c-46c6-9f77-65722e6b6963,rev?*%
%TF.SameCoordinates,Original*%
%TF.FileFunction,Soldermask,Bot*%
%TF.FilePolarity,Negative*%
%FSLAX46Y46*%
G04 Gerber Fmt 4.6, Leading zero omitted, Abs format (unit mm)*
G04 Created by KiCad (PCBNEW (5.1.6-0)) date 2022-05-02 17:38:10*
%MOMM*%
%LPD*%
G01*
G04 APERTURE LIST*
%ADD10C,1.700000*%
%ADD11O,1.700000X1.700000*%
%ADD12R,1.900000X1.900000*%
%ADD13O,1.900000X1.900000*%
%ADD14C,1.624000*%
%ADD15C,1.540000*%
%ADD16C,2.599360*%
%ADD17C,1.900000*%
%ADD18C,2.600000*%
G04 APERTURE END LIST*
D10*
%TO.C,R2*%
X100330000Y-85090000D03*
D11*
X100330000Y-92710000D03*
%TD*%
D12*
%TO.C,D1*%
X128270000Y-86360000D03*
D13*
X118110000Y-86360000D03*
%TD*%
D10*
%TO.C,R4*%
X120650000Y-77470000D03*
D11*
X120650000Y-69850000D03*
%TD*%
D14*
%TO.C,U1*%
X113030000Y-83820000D03*
X113030000Y-86360000D03*
X113030000Y-88900000D03*
X113030000Y-91440000D03*
X105410000Y-91440000D03*
X105410000Y-88900000D03*
X105410000Y-86360000D03*
X105410000Y-83820000D03*
%TD*%
D15*
%TO.C,RV2*%
X86360000Y-60960000D03*
X86360000Y-58420000D03*
X86360000Y-55880000D03*
%TD*%
%TO.C,RV1*%
X86360000Y-71120000D03*
X86360000Y-68580000D03*
X86360000Y-66040000D03*
%TD*%
D10*
%TO.C,R7*%
X96520000Y-55880000D03*
X96520000Y-60960000D03*
%TD*%
%TO.C,R6*%
X125730000Y-68580000D03*
D11*
X125730000Y-60960000D03*
%TD*%
D10*
%TO.C,R5*%
X96520000Y-66040000D03*
X96520000Y-71120000D03*
%TD*%
%TO.C,R3*%
X119380000Y-97790000D03*
D11*
X127000000Y-97790000D03*
%TD*%
D10*
%TO.C,R1*%
X99060000Y-99060000D03*
D11*
X91440000Y-99060000D03*
%TD*%
D16*
%TO.C,H10*%
X77470000Y-55880000D03*
%TD*%
%TO.C,H8*%
X77470000Y-60960000D03*
%TD*%
%TO.C,H6*%
X77470000Y-71120000D03*
%TD*%
%TO.C,H5*%
X77470000Y-66040000D03*
%TD*%
%TO.C,H4*%
X77470000Y-100330000D03*
%TD*%
%TO.C,H3*%
X77470000Y-94094679D03*
%TD*%
%TO.C,H2*%
X85090000Y-100330000D03*
%TD*%
%TO.C,H1*%
X90170000Y-77470000D03*
%TD*%
D12*
%TO.C,D4*%
X115570000Y-57150000D03*
D17*
X115570000Y-59690000D03*
%TD*%
D12*
%TO.C,D3*%
X115570000Y-67310000D03*
D17*
X115570000Y-69850000D03*
%TD*%
D12*
%TO.C,D2*%
X118110000Y-91440000D03*
D13*
X128270000Y-91440000D03*
%TD*%
D10*
%TO.C,C3*%
X111760000Y-99060000D03*
X106760000Y-99060000D03*
%TD*%
%TO.C,C2*%
X95250000Y-92710000D03*
X90250000Y-92710000D03*
%TD*%
%TO.C,C1*%
X90170000Y-85090000D03*
X95170000Y-85090000D03*
%TD*%
D18*
%TO.C,ATTACK1*%
X77470000Y-82550000D03*
X77470000Y-87550000D03*
X77470000Y-77550000D03*
%TD*%
M02*
