%TF.GenerationSoftware,KiCad,Pcbnew,(5.1.6-0)*%
%TF.CreationDate,2022-12-04T14:57:16-05:00*%
%TF.ProjectId,KickDrum,4b69636b-4472-4756-9d2e-6b696361645f,rev?*%
%TF.SameCoordinates,Original*%
%TF.FileFunction,Copper,L2,Bot*%
%TF.FilePolarity,Positive*%
%FSLAX46Y46*%
G04 Gerber Fmt 4.6, Leading zero omitted, Abs format (unit mm)*
G04 Created by KiCad (PCBNEW (5.1.6-0)) date 2022-12-04 14:57:16*
%MOMM*%
%LPD*%
G01*
G04 APERTURE LIST*
%TA.AperFunction,ComponentPad*%
%ADD10C,2.000000*%
%TD*%
%TA.AperFunction,ComponentPad*%
%ADD11C,1.300000*%
%TD*%
%TA.AperFunction,ComponentPad*%
%ADD12C,1.800000*%
%TD*%
%TA.AperFunction,ComponentPad*%
%ADD13R,1.700000X1.700000*%
%TD*%
%TA.AperFunction,ComponentPad*%
%ADD14O,1.700000X1.700000*%
%TD*%
%TA.AperFunction,ViaPad*%
%ADD15C,0.800000*%
%TD*%
%TA.AperFunction,Conductor*%
%ADD16C,0.250000*%
%TD*%
%TA.AperFunction,Conductor*%
%ADD17C,0.254000*%
%TD*%
G04 APERTURE END LIST*
D10*
%TO.P,FREQ1,*%
%TO.N,*%
X117120000Y-81280000D03*
X126720000Y-81280000D03*
D11*
%TO.P,FREQ1,3*%
%TO.N,Net-(FREQ1-Pad3)*%
X119420000Y-88780000D03*
%TO.P,FREQ1,2*%
%TO.N,GND*%
X121920000Y-88780000D03*
%TO.P,FREQ1,1*%
X124420000Y-88780000D03*
%TD*%
D10*
%TO.P,TONE1,*%
%TO.N,*%
X126720000Y-136525000D03*
X117120000Y-136525000D03*
D11*
%TO.P,TONE1,3*%
%TO.N,Net-(C6-Pad2)*%
X124420000Y-129025000D03*
%TO.P,TONE1,2*%
X121920000Y-129025000D03*
%TO.P,TONE1,1*%
%TO.N,Net-(R16-Pad1)*%
X119420000Y-129025000D03*
%TD*%
D10*
%TO.P,DIST1,*%
%TO.N,*%
X117120000Y-118110000D03*
X126720000Y-118110000D03*
D11*
%TO.P,DIST1,3*%
%TO.N,Net-(D5-Pad1)*%
X119420000Y-125610000D03*
%TO.P,DIST1,2*%
X121920000Y-125610000D03*
%TO.P,DIST1,1*%
%TO.N,Net-(D5-Pad2)*%
X124420000Y-125610000D03*
%TD*%
D10*
%TO.P,DECAY1,*%
%TO.N,*%
X126720000Y-99695000D03*
X117120000Y-99695000D03*
D11*
%TO.P,DECAY1,3*%
%TO.N,Net-(DECAY1-Pad3)*%
X124420000Y-92195000D03*
%TO.P,DECAY1,2*%
%TO.N,GND*%
X121920000Y-92195000D03*
%TO.P,DECAY1,1*%
X119420000Y-92195000D03*
%TD*%
D12*
%TO.P,OUT1,3*%
%TO.N,Net-(OUT1-Pad3)*%
X116840000Y-174465000D03*
%TO.P,OUT1,1*%
%TO.N,GND*%
X116840000Y-163065000D03*
%TO.P,OUT1,2*%
%TO.N,Net-(OUT1-Pad2)*%
X116840000Y-166165000D03*
%TD*%
D13*
%TO.P,J2,1*%
%TO.N,Net-(C7-Pad1)*%
X127000000Y-153924000D03*
D14*
%TO.P,J2,2*%
X127000000Y-156464000D03*
%TO.P,J2,3*%
%TO.N,GND*%
X124460000Y-153924000D03*
%TO.P,J2,4*%
X124460000Y-156464000D03*
%TO.P,J2,5*%
X121920000Y-153924000D03*
%TO.P,J2,6*%
X121920000Y-156464000D03*
%TO.P,J2,7*%
X119380000Y-153924000D03*
%TO.P,J2,8*%
X119380000Y-156464000D03*
%TO.P,J2,9*%
%TO.N,Net-(C8-Pad2)*%
X116840000Y-153924000D03*
%TO.P,J2,10*%
X116840000Y-156464000D03*
%TD*%
D12*
%TO.P,GATE_IN1,3*%
%TO.N,Net-(GATE_IN1-Pad3)*%
X126365000Y-174465000D03*
%TO.P,GATE_IN1,1*%
%TO.N,GND*%
X126365000Y-163065000D03*
%TO.P,GATE_IN1,2*%
%TO.N,Net-(GATE_IN1-Pad2)*%
X126365000Y-166165000D03*
%TD*%
D15*
%TO.N,*%
X100965000Y-83820000D03*
%TO.N,GND*%
X120396000Y-141732000D03*
X122936000Y-143256000D03*
X125476000Y-102108000D03*
X127508000Y-102616000D03*
X119380000Y-114300000D03*
X118745000Y-116205000D03*
X127635000Y-130810000D03*
X129540000Y-164465000D03*
X114300000Y-164465000D03*
%TO.N,Net-(C6-Pad2)*%
X124460000Y-108712000D03*
%TO.N,Net-(C7-Pad1)*%
X123444000Y-104140000D03*
%TO.N,Net-(C8-Pad2)*%
X121920000Y-109728000D03*
%TD*%
D16*
%TO.N,Net-(C6-Pad2)*%
X124420000Y-129025000D02*
X126492000Y-126953000D01*
X126492000Y-126953000D02*
X126492000Y-121920000D01*
X124460000Y-108712000D02*
X124460000Y-119888000D01*
X126492000Y-121920000D02*
X124460000Y-119888000D01*
%TO.N,Net-(C7-Pad1)*%
X126492000Y-104140000D02*
X123444000Y-104140000D01*
X129540000Y-107188000D02*
X126492000Y-104140000D01*
X129540000Y-151384000D02*
X129540000Y-107188000D01*
X127000000Y-153924000D02*
X129540000Y-151384000D01*
%TO.N,Net-(C8-Pad2)*%
X113792000Y-115824000D02*
X119888000Y-109728000D01*
X119888000Y-109728000D02*
X121920000Y-109728000D01*
X113792000Y-150876000D02*
X113792000Y-115824000D01*
X116840000Y-153924000D02*
X113792000Y-150876000D01*
%TD*%
D17*
%TO.N,GND*%
G36*
X130785001Y-175870000D02*
G01*
X126984178Y-175870000D01*
X127092095Y-175825299D01*
X127343505Y-175657312D01*
X127557312Y-175443505D01*
X127725299Y-175192095D01*
X127841011Y-174912743D01*
X127900000Y-174616184D01*
X127900000Y-174313816D01*
X127841011Y-174017257D01*
X127725299Y-173737905D01*
X127557312Y-173486495D01*
X127343505Y-173272688D01*
X127092095Y-173104701D01*
X126812743Y-172988989D01*
X126516184Y-172930000D01*
X126213816Y-172930000D01*
X125917257Y-172988989D01*
X125637905Y-173104701D01*
X125386495Y-173272688D01*
X125172688Y-173486495D01*
X125004701Y-173737905D01*
X124888989Y-174017257D01*
X124830000Y-174313816D01*
X124830000Y-174616184D01*
X124888989Y-174912743D01*
X125004701Y-175192095D01*
X125172688Y-175443505D01*
X125386495Y-175657312D01*
X125637905Y-175825299D01*
X125745822Y-175870000D01*
X117459178Y-175870000D01*
X117567095Y-175825299D01*
X117818505Y-175657312D01*
X118032312Y-175443505D01*
X118200299Y-175192095D01*
X118316011Y-174912743D01*
X118375000Y-174616184D01*
X118375000Y-174313816D01*
X118316011Y-174017257D01*
X118200299Y-173737905D01*
X118032312Y-173486495D01*
X117818505Y-173272688D01*
X117567095Y-173104701D01*
X117287743Y-172988989D01*
X116991184Y-172930000D01*
X116688816Y-172930000D01*
X116392257Y-172988989D01*
X116112905Y-173104701D01*
X115861495Y-173272688D01*
X115647688Y-173486495D01*
X115479701Y-173737905D01*
X115363989Y-174017257D01*
X115305000Y-174313816D01*
X115305000Y-174616184D01*
X115363989Y-174912743D01*
X115479701Y-175192095D01*
X115647688Y-175443505D01*
X115861495Y-175657312D01*
X116112905Y-175825299D01*
X116220822Y-175870000D01*
X112420000Y-175870000D01*
X112420000Y-166013816D01*
X115305000Y-166013816D01*
X115305000Y-166316184D01*
X115363989Y-166612743D01*
X115479701Y-166892095D01*
X115647688Y-167143505D01*
X115861495Y-167357312D01*
X116112905Y-167525299D01*
X116392257Y-167641011D01*
X116688816Y-167700000D01*
X116991184Y-167700000D01*
X117287743Y-167641011D01*
X117567095Y-167525299D01*
X117818505Y-167357312D01*
X118032312Y-167143505D01*
X118200299Y-166892095D01*
X118316011Y-166612743D01*
X118375000Y-166316184D01*
X118375000Y-166013816D01*
X124830000Y-166013816D01*
X124830000Y-166316184D01*
X124888989Y-166612743D01*
X125004701Y-166892095D01*
X125172688Y-167143505D01*
X125386495Y-167357312D01*
X125637905Y-167525299D01*
X125917257Y-167641011D01*
X126213816Y-167700000D01*
X126516184Y-167700000D01*
X126812743Y-167641011D01*
X127092095Y-167525299D01*
X127343505Y-167357312D01*
X127557312Y-167143505D01*
X127725299Y-166892095D01*
X127841011Y-166612743D01*
X127900000Y-166316184D01*
X127900000Y-166013816D01*
X127841011Y-165717257D01*
X127725299Y-165437905D01*
X127557312Y-165186495D01*
X127343505Y-164972688D01*
X127092095Y-164804701D01*
X126812743Y-164688989D01*
X126516184Y-164630000D01*
X126213816Y-164630000D01*
X125917257Y-164688989D01*
X125637905Y-164804701D01*
X125386495Y-164972688D01*
X125172688Y-165186495D01*
X125004701Y-165437905D01*
X124888989Y-165717257D01*
X124830000Y-166013816D01*
X118375000Y-166013816D01*
X118316011Y-165717257D01*
X118200299Y-165437905D01*
X118032312Y-165186495D01*
X117818505Y-164972688D01*
X117567095Y-164804701D01*
X117287743Y-164688989D01*
X116991184Y-164630000D01*
X116688816Y-164630000D01*
X116392257Y-164688989D01*
X116112905Y-164804701D01*
X115861495Y-164972688D01*
X115647688Y-165186495D01*
X115479701Y-165437905D01*
X115363989Y-165717257D01*
X115305000Y-166013816D01*
X112420000Y-166013816D01*
X112420000Y-164129080D01*
X115955525Y-164129080D01*
X116039208Y-164383261D01*
X116311775Y-164514158D01*
X116604642Y-164589365D01*
X116906553Y-164605991D01*
X117205907Y-164563397D01*
X117491199Y-164463222D01*
X117640792Y-164383261D01*
X117724475Y-164129080D01*
X125480525Y-164129080D01*
X125564208Y-164383261D01*
X125836775Y-164514158D01*
X126129642Y-164589365D01*
X126431553Y-164605991D01*
X126730907Y-164563397D01*
X127016199Y-164463222D01*
X127165792Y-164383261D01*
X127249475Y-164129080D01*
X126365000Y-163244605D01*
X125480525Y-164129080D01*
X117724475Y-164129080D01*
X116840000Y-163244605D01*
X115955525Y-164129080D01*
X112420000Y-164129080D01*
X112420000Y-163131553D01*
X115299009Y-163131553D01*
X115341603Y-163430907D01*
X115441778Y-163716199D01*
X115521739Y-163865792D01*
X115775920Y-163949475D01*
X116660395Y-163065000D01*
X117019605Y-163065000D01*
X117904080Y-163949475D01*
X118158261Y-163865792D01*
X118289158Y-163593225D01*
X118364365Y-163300358D01*
X118373660Y-163131553D01*
X124824009Y-163131553D01*
X124866603Y-163430907D01*
X124966778Y-163716199D01*
X125046739Y-163865792D01*
X125300920Y-163949475D01*
X126185395Y-163065000D01*
X126544605Y-163065000D01*
X127429080Y-163949475D01*
X127683261Y-163865792D01*
X127814158Y-163593225D01*
X127889365Y-163300358D01*
X127905991Y-162998447D01*
X127863397Y-162699093D01*
X127763222Y-162413801D01*
X127683261Y-162264208D01*
X127429080Y-162180525D01*
X126544605Y-163065000D01*
X126185395Y-163065000D01*
X125300920Y-162180525D01*
X125046739Y-162264208D01*
X124915842Y-162536775D01*
X124840635Y-162829642D01*
X124824009Y-163131553D01*
X118373660Y-163131553D01*
X118380991Y-162998447D01*
X118338397Y-162699093D01*
X118238222Y-162413801D01*
X118158261Y-162264208D01*
X117904080Y-162180525D01*
X117019605Y-163065000D01*
X116660395Y-163065000D01*
X115775920Y-162180525D01*
X115521739Y-162264208D01*
X115390842Y-162536775D01*
X115315635Y-162829642D01*
X115299009Y-163131553D01*
X112420000Y-163131553D01*
X112420000Y-162000920D01*
X115955525Y-162000920D01*
X116840000Y-162885395D01*
X117724475Y-162000920D01*
X125480525Y-162000920D01*
X126365000Y-162885395D01*
X127249475Y-162000920D01*
X127165792Y-161746739D01*
X126893225Y-161615842D01*
X126600358Y-161540635D01*
X126298447Y-161524009D01*
X125999093Y-161566603D01*
X125713801Y-161666778D01*
X125564208Y-161746739D01*
X125480525Y-162000920D01*
X117724475Y-162000920D01*
X117640792Y-161746739D01*
X117368225Y-161615842D01*
X117075358Y-161540635D01*
X116773447Y-161524009D01*
X116474093Y-161566603D01*
X116188801Y-161666778D01*
X116039208Y-161746739D01*
X115955525Y-162000920D01*
X112420000Y-162000920D01*
X112420000Y-115824000D01*
X113028324Y-115824000D01*
X113032001Y-115861333D01*
X113032000Y-150838678D01*
X113028324Y-150876000D01*
X113032000Y-150913322D01*
X113032000Y-150913332D01*
X113042997Y-151024985D01*
X113063251Y-151091754D01*
X113086454Y-151168246D01*
X113157026Y-151300276D01*
X113196871Y-151348826D01*
X113251999Y-151416001D01*
X113281003Y-151439804D01*
X115398790Y-153557592D01*
X115355000Y-153777740D01*
X115355000Y-154070260D01*
X115412068Y-154357158D01*
X115524010Y-154627411D01*
X115686525Y-154870632D01*
X115893368Y-155077475D01*
X116067760Y-155194000D01*
X115893368Y-155310525D01*
X115686525Y-155517368D01*
X115524010Y-155760589D01*
X115412068Y-156030842D01*
X115355000Y-156317740D01*
X115355000Y-156610260D01*
X115412068Y-156897158D01*
X115524010Y-157167411D01*
X115686525Y-157410632D01*
X115893368Y-157617475D01*
X116136589Y-157779990D01*
X116406842Y-157891932D01*
X116693740Y-157949000D01*
X116986260Y-157949000D01*
X117273158Y-157891932D01*
X117543411Y-157779990D01*
X117786632Y-157617475D01*
X117993475Y-157410632D01*
X118115195Y-157228466D01*
X118184822Y-157345355D01*
X118379731Y-157561588D01*
X118613080Y-157735641D01*
X118875901Y-157860825D01*
X119023110Y-157905476D01*
X119253000Y-157784155D01*
X119253000Y-156591000D01*
X119507000Y-156591000D01*
X119507000Y-157784155D01*
X119736890Y-157905476D01*
X119884099Y-157860825D01*
X120146920Y-157735641D01*
X120380269Y-157561588D01*
X120575178Y-157345355D01*
X120650000Y-157219745D01*
X120724822Y-157345355D01*
X120919731Y-157561588D01*
X121153080Y-157735641D01*
X121415901Y-157860825D01*
X121563110Y-157905476D01*
X121793000Y-157784155D01*
X121793000Y-156591000D01*
X122047000Y-156591000D01*
X122047000Y-157784155D01*
X122276890Y-157905476D01*
X122424099Y-157860825D01*
X122686920Y-157735641D01*
X122920269Y-157561588D01*
X123115178Y-157345355D01*
X123190000Y-157219745D01*
X123264822Y-157345355D01*
X123459731Y-157561588D01*
X123693080Y-157735641D01*
X123955901Y-157860825D01*
X124103110Y-157905476D01*
X124333000Y-157784155D01*
X124333000Y-156591000D01*
X122047000Y-156591000D01*
X121793000Y-156591000D01*
X119507000Y-156591000D01*
X119253000Y-156591000D01*
X119233000Y-156591000D01*
X119233000Y-156337000D01*
X119253000Y-156337000D01*
X119253000Y-154051000D01*
X119507000Y-154051000D01*
X119507000Y-156337000D01*
X121793000Y-156337000D01*
X121793000Y-154051000D01*
X122047000Y-154051000D01*
X122047000Y-156337000D01*
X124333000Y-156337000D01*
X124333000Y-154051000D01*
X122047000Y-154051000D01*
X121793000Y-154051000D01*
X119507000Y-154051000D01*
X119253000Y-154051000D01*
X119233000Y-154051000D01*
X119233000Y-153797000D01*
X119253000Y-153797000D01*
X119253000Y-152603845D01*
X119507000Y-152603845D01*
X119507000Y-153797000D01*
X121793000Y-153797000D01*
X121793000Y-152603845D01*
X122047000Y-152603845D01*
X122047000Y-153797000D01*
X124333000Y-153797000D01*
X124333000Y-152603845D01*
X124103110Y-152482524D01*
X123955901Y-152527175D01*
X123693080Y-152652359D01*
X123459731Y-152826412D01*
X123264822Y-153042645D01*
X123190000Y-153168255D01*
X123115178Y-153042645D01*
X122920269Y-152826412D01*
X122686920Y-152652359D01*
X122424099Y-152527175D01*
X122276890Y-152482524D01*
X122047000Y-152603845D01*
X121793000Y-152603845D01*
X121563110Y-152482524D01*
X121415901Y-152527175D01*
X121153080Y-152652359D01*
X120919731Y-152826412D01*
X120724822Y-153042645D01*
X120650000Y-153168255D01*
X120575178Y-153042645D01*
X120380269Y-152826412D01*
X120146920Y-152652359D01*
X119884099Y-152527175D01*
X119736890Y-152482524D01*
X119507000Y-152603845D01*
X119253000Y-152603845D01*
X119023110Y-152482524D01*
X118875901Y-152527175D01*
X118613080Y-152652359D01*
X118379731Y-152826412D01*
X118184822Y-153042645D01*
X118115195Y-153159534D01*
X117993475Y-152977368D01*
X117786632Y-152770525D01*
X117543411Y-152608010D01*
X117273158Y-152496068D01*
X116986260Y-152439000D01*
X116693740Y-152439000D01*
X116473592Y-152482790D01*
X114552000Y-150561199D01*
X114552000Y-136363967D01*
X115485000Y-136363967D01*
X115485000Y-136686033D01*
X115547832Y-137001912D01*
X115671082Y-137299463D01*
X115850013Y-137567252D01*
X116077748Y-137794987D01*
X116345537Y-137973918D01*
X116643088Y-138097168D01*
X116958967Y-138160000D01*
X117281033Y-138160000D01*
X117596912Y-138097168D01*
X117894463Y-137973918D01*
X118162252Y-137794987D01*
X118389987Y-137567252D01*
X118568918Y-137299463D01*
X118692168Y-137001912D01*
X118755000Y-136686033D01*
X118755000Y-136363967D01*
X125085000Y-136363967D01*
X125085000Y-136686033D01*
X125147832Y-137001912D01*
X125271082Y-137299463D01*
X125450013Y-137567252D01*
X125677748Y-137794987D01*
X125945537Y-137973918D01*
X126243088Y-138097168D01*
X126558967Y-138160000D01*
X126881033Y-138160000D01*
X127196912Y-138097168D01*
X127494463Y-137973918D01*
X127762252Y-137794987D01*
X127989987Y-137567252D01*
X128168918Y-137299463D01*
X128292168Y-137001912D01*
X128355000Y-136686033D01*
X128355000Y-136363967D01*
X128292168Y-136048088D01*
X128168918Y-135750537D01*
X127989987Y-135482748D01*
X127762252Y-135255013D01*
X127494463Y-135076082D01*
X127196912Y-134952832D01*
X126881033Y-134890000D01*
X126558967Y-134890000D01*
X126243088Y-134952832D01*
X125945537Y-135076082D01*
X125677748Y-135255013D01*
X125450013Y-135482748D01*
X125271082Y-135750537D01*
X125147832Y-136048088D01*
X125085000Y-136363967D01*
X118755000Y-136363967D01*
X118692168Y-136048088D01*
X118568918Y-135750537D01*
X118389987Y-135482748D01*
X118162252Y-135255013D01*
X117894463Y-135076082D01*
X117596912Y-134952832D01*
X117281033Y-134890000D01*
X116958967Y-134890000D01*
X116643088Y-134952832D01*
X116345537Y-135076082D01*
X116077748Y-135255013D01*
X115850013Y-135482748D01*
X115671082Y-135750537D01*
X115547832Y-136048088D01*
X115485000Y-136363967D01*
X114552000Y-136363967D01*
X114552000Y-128898439D01*
X118135000Y-128898439D01*
X118135000Y-129151561D01*
X118184381Y-129399821D01*
X118281247Y-129633676D01*
X118421875Y-129844140D01*
X118600860Y-130023125D01*
X118811324Y-130163753D01*
X119045179Y-130260619D01*
X119293439Y-130310000D01*
X119546561Y-130310000D01*
X119794821Y-130260619D01*
X120028676Y-130163753D01*
X120239140Y-130023125D01*
X120418125Y-129844140D01*
X120558753Y-129633676D01*
X120655619Y-129399821D01*
X120670000Y-129327521D01*
X120684381Y-129399821D01*
X120781247Y-129633676D01*
X120921875Y-129844140D01*
X121100860Y-130023125D01*
X121311324Y-130163753D01*
X121545179Y-130260619D01*
X121793439Y-130310000D01*
X122046561Y-130310000D01*
X122294821Y-130260619D01*
X122528676Y-130163753D01*
X122739140Y-130023125D01*
X122918125Y-129844140D01*
X123058753Y-129633676D01*
X123155619Y-129399821D01*
X123170000Y-129327521D01*
X123184381Y-129399821D01*
X123281247Y-129633676D01*
X123421875Y-129844140D01*
X123600860Y-130023125D01*
X123811324Y-130163753D01*
X124045179Y-130260619D01*
X124293439Y-130310000D01*
X124546561Y-130310000D01*
X124794821Y-130260619D01*
X125028676Y-130163753D01*
X125239140Y-130023125D01*
X125418125Y-129844140D01*
X125558753Y-129633676D01*
X125655619Y-129399821D01*
X125705000Y-129151561D01*
X125705000Y-128898439D01*
X125691124Y-128828678D01*
X127003004Y-127516798D01*
X127032001Y-127493001D01*
X127126974Y-127377276D01*
X127197546Y-127245247D01*
X127241003Y-127101986D01*
X127252000Y-126990333D01*
X127252000Y-126990332D01*
X127255677Y-126953000D01*
X127252000Y-126915667D01*
X127252000Y-121957323D01*
X127255676Y-121920000D01*
X127252000Y-121882677D01*
X127252000Y-121882667D01*
X127241003Y-121771014D01*
X127197546Y-121627753D01*
X127126974Y-121495723D01*
X127055799Y-121408997D01*
X127032001Y-121379999D01*
X127003003Y-121356201D01*
X125220000Y-119573199D01*
X125220000Y-118761140D01*
X125271082Y-118884463D01*
X125450013Y-119152252D01*
X125677748Y-119379987D01*
X125945537Y-119558918D01*
X126243088Y-119682168D01*
X126558967Y-119745000D01*
X126881033Y-119745000D01*
X127196912Y-119682168D01*
X127494463Y-119558918D01*
X127762252Y-119379987D01*
X127989987Y-119152252D01*
X128168918Y-118884463D01*
X128292168Y-118586912D01*
X128355000Y-118271033D01*
X128355000Y-117948967D01*
X128292168Y-117633088D01*
X128168918Y-117335537D01*
X127989987Y-117067748D01*
X127762252Y-116840013D01*
X127494463Y-116661082D01*
X127196912Y-116537832D01*
X126881033Y-116475000D01*
X126558967Y-116475000D01*
X126243088Y-116537832D01*
X125945537Y-116661082D01*
X125677748Y-116840013D01*
X125450013Y-117067748D01*
X125271082Y-117335537D01*
X125220000Y-117458860D01*
X125220000Y-109415711D01*
X125263937Y-109371774D01*
X125377205Y-109202256D01*
X125455226Y-109013898D01*
X125495000Y-108813939D01*
X125495000Y-108610061D01*
X125455226Y-108410102D01*
X125377205Y-108221744D01*
X125263937Y-108052226D01*
X125119774Y-107908063D01*
X124950256Y-107794795D01*
X124761898Y-107716774D01*
X124561939Y-107677000D01*
X124358061Y-107677000D01*
X124158102Y-107716774D01*
X123969744Y-107794795D01*
X123800226Y-107908063D01*
X123656063Y-108052226D01*
X123542795Y-108221744D01*
X123464774Y-108410102D01*
X123425000Y-108610061D01*
X123425000Y-108813939D01*
X123464774Y-109013898D01*
X123542795Y-109202256D01*
X123656063Y-109371774D01*
X123700000Y-109415711D01*
X123700001Y-119850668D01*
X123696324Y-119888000D01*
X123710998Y-120036985D01*
X123754454Y-120180246D01*
X123825026Y-120312276D01*
X123896201Y-120399002D01*
X123920000Y-120428001D01*
X123948998Y-120451799D01*
X125732001Y-122234803D01*
X125732000Y-126638198D01*
X124616322Y-127753876D01*
X124546561Y-127740000D01*
X124293439Y-127740000D01*
X124045179Y-127789381D01*
X123811324Y-127886247D01*
X123600860Y-128026875D01*
X123421875Y-128205860D01*
X123281247Y-128416324D01*
X123184381Y-128650179D01*
X123170000Y-128722479D01*
X123155619Y-128650179D01*
X123058753Y-128416324D01*
X122918125Y-128205860D01*
X122739140Y-128026875D01*
X122528676Y-127886247D01*
X122294821Y-127789381D01*
X122046561Y-127740000D01*
X121793439Y-127740000D01*
X121545179Y-127789381D01*
X121311324Y-127886247D01*
X121100860Y-128026875D01*
X120921875Y-128205860D01*
X120781247Y-128416324D01*
X120684381Y-128650179D01*
X120670000Y-128722479D01*
X120655619Y-128650179D01*
X120558753Y-128416324D01*
X120418125Y-128205860D01*
X120239140Y-128026875D01*
X120028676Y-127886247D01*
X119794821Y-127789381D01*
X119546561Y-127740000D01*
X119293439Y-127740000D01*
X119045179Y-127789381D01*
X118811324Y-127886247D01*
X118600860Y-128026875D01*
X118421875Y-128205860D01*
X118281247Y-128416324D01*
X118184381Y-128650179D01*
X118135000Y-128898439D01*
X114552000Y-128898439D01*
X114552000Y-125483439D01*
X118135000Y-125483439D01*
X118135000Y-125736561D01*
X118184381Y-125984821D01*
X118281247Y-126218676D01*
X118421875Y-126429140D01*
X118600860Y-126608125D01*
X118811324Y-126748753D01*
X119045179Y-126845619D01*
X119293439Y-126895000D01*
X119546561Y-126895000D01*
X119794821Y-126845619D01*
X120028676Y-126748753D01*
X120239140Y-126608125D01*
X120418125Y-126429140D01*
X120558753Y-126218676D01*
X120655619Y-125984821D01*
X120670000Y-125912521D01*
X120684381Y-125984821D01*
X120781247Y-126218676D01*
X120921875Y-126429140D01*
X121100860Y-126608125D01*
X121311324Y-126748753D01*
X121545179Y-126845619D01*
X121793439Y-126895000D01*
X122046561Y-126895000D01*
X122294821Y-126845619D01*
X122528676Y-126748753D01*
X122739140Y-126608125D01*
X122918125Y-126429140D01*
X123058753Y-126218676D01*
X123155619Y-125984821D01*
X123170000Y-125912521D01*
X123184381Y-125984821D01*
X123281247Y-126218676D01*
X123421875Y-126429140D01*
X123600860Y-126608125D01*
X123811324Y-126748753D01*
X124045179Y-126845619D01*
X124293439Y-126895000D01*
X124546561Y-126895000D01*
X124794821Y-126845619D01*
X125028676Y-126748753D01*
X125239140Y-126608125D01*
X125418125Y-126429140D01*
X125558753Y-126218676D01*
X125655619Y-125984821D01*
X125705000Y-125736561D01*
X125705000Y-125483439D01*
X125655619Y-125235179D01*
X125558753Y-125001324D01*
X125418125Y-124790860D01*
X125239140Y-124611875D01*
X125028676Y-124471247D01*
X124794821Y-124374381D01*
X124546561Y-124325000D01*
X124293439Y-124325000D01*
X124045179Y-124374381D01*
X123811324Y-124471247D01*
X123600860Y-124611875D01*
X123421875Y-124790860D01*
X123281247Y-125001324D01*
X123184381Y-125235179D01*
X123170000Y-125307479D01*
X123155619Y-125235179D01*
X123058753Y-125001324D01*
X122918125Y-124790860D01*
X122739140Y-124611875D01*
X122528676Y-124471247D01*
X122294821Y-124374381D01*
X122046561Y-124325000D01*
X121793439Y-124325000D01*
X121545179Y-124374381D01*
X121311324Y-124471247D01*
X121100860Y-124611875D01*
X120921875Y-124790860D01*
X120781247Y-125001324D01*
X120684381Y-125235179D01*
X120670000Y-125307479D01*
X120655619Y-125235179D01*
X120558753Y-125001324D01*
X120418125Y-124790860D01*
X120239140Y-124611875D01*
X120028676Y-124471247D01*
X119794821Y-124374381D01*
X119546561Y-124325000D01*
X119293439Y-124325000D01*
X119045179Y-124374381D01*
X118811324Y-124471247D01*
X118600860Y-124611875D01*
X118421875Y-124790860D01*
X118281247Y-125001324D01*
X118184381Y-125235179D01*
X118135000Y-125483439D01*
X114552000Y-125483439D01*
X114552000Y-117948967D01*
X115485000Y-117948967D01*
X115485000Y-118271033D01*
X115547832Y-118586912D01*
X115671082Y-118884463D01*
X115850013Y-119152252D01*
X116077748Y-119379987D01*
X116345537Y-119558918D01*
X116643088Y-119682168D01*
X116958967Y-119745000D01*
X117281033Y-119745000D01*
X117596912Y-119682168D01*
X117894463Y-119558918D01*
X118162252Y-119379987D01*
X118389987Y-119152252D01*
X118568918Y-118884463D01*
X118692168Y-118586912D01*
X118755000Y-118271033D01*
X118755000Y-117948967D01*
X118692168Y-117633088D01*
X118568918Y-117335537D01*
X118389987Y-117067748D01*
X118162252Y-116840013D01*
X117894463Y-116661082D01*
X117596912Y-116537832D01*
X117281033Y-116475000D01*
X116958967Y-116475000D01*
X116643088Y-116537832D01*
X116345537Y-116661082D01*
X116077748Y-116840013D01*
X115850013Y-117067748D01*
X115671082Y-117335537D01*
X115547832Y-117633088D01*
X115485000Y-117948967D01*
X114552000Y-117948967D01*
X114552000Y-116138801D01*
X120202802Y-110488000D01*
X121216289Y-110488000D01*
X121260226Y-110531937D01*
X121429744Y-110645205D01*
X121618102Y-110723226D01*
X121818061Y-110763000D01*
X122021939Y-110763000D01*
X122221898Y-110723226D01*
X122410256Y-110645205D01*
X122579774Y-110531937D01*
X122723937Y-110387774D01*
X122837205Y-110218256D01*
X122915226Y-110029898D01*
X122955000Y-109829939D01*
X122955000Y-109626061D01*
X122915226Y-109426102D01*
X122837205Y-109237744D01*
X122723937Y-109068226D01*
X122579774Y-108924063D01*
X122410256Y-108810795D01*
X122221898Y-108732774D01*
X122021939Y-108693000D01*
X121818061Y-108693000D01*
X121618102Y-108732774D01*
X121429744Y-108810795D01*
X121260226Y-108924063D01*
X121216289Y-108968000D01*
X119925323Y-108968000D01*
X119888000Y-108964324D01*
X119850677Y-108968000D01*
X119850667Y-108968000D01*
X119739014Y-108978997D01*
X119623959Y-109013898D01*
X119595753Y-109022454D01*
X119463723Y-109093026D01*
X119380083Y-109161668D01*
X119347999Y-109187999D01*
X119324201Y-109216997D01*
X113280998Y-115260201D01*
X113252000Y-115283999D01*
X113228202Y-115312997D01*
X113228201Y-115312998D01*
X113157026Y-115399724D01*
X113086454Y-115531754D01*
X113042998Y-115675015D01*
X113028324Y-115824000D01*
X112420000Y-115824000D01*
X112420000Y-104038061D01*
X122409000Y-104038061D01*
X122409000Y-104241939D01*
X122448774Y-104441898D01*
X122526795Y-104630256D01*
X122640063Y-104799774D01*
X122784226Y-104943937D01*
X122953744Y-105057205D01*
X123142102Y-105135226D01*
X123342061Y-105175000D01*
X123545939Y-105175000D01*
X123745898Y-105135226D01*
X123934256Y-105057205D01*
X124103774Y-104943937D01*
X124147711Y-104900000D01*
X126177199Y-104900000D01*
X128780001Y-107502803D01*
X128780000Y-151069197D01*
X127413270Y-152435928D01*
X126150000Y-152435928D01*
X126025518Y-152448188D01*
X125905820Y-152484498D01*
X125795506Y-152543463D01*
X125698815Y-152622815D01*
X125619463Y-152719506D01*
X125560498Y-152829820D01*
X125536034Y-152910466D01*
X125460269Y-152826412D01*
X125226920Y-152652359D01*
X124964099Y-152527175D01*
X124816890Y-152482524D01*
X124587000Y-152603845D01*
X124587000Y-153797000D01*
X124607000Y-153797000D01*
X124607000Y-154051000D01*
X124587000Y-154051000D01*
X124587000Y-156337000D01*
X124607000Y-156337000D01*
X124607000Y-156591000D01*
X124587000Y-156591000D01*
X124587000Y-157784155D01*
X124816890Y-157905476D01*
X124964099Y-157860825D01*
X125226920Y-157735641D01*
X125460269Y-157561588D01*
X125655178Y-157345355D01*
X125724805Y-157228466D01*
X125846525Y-157410632D01*
X126053368Y-157617475D01*
X126296589Y-157779990D01*
X126566842Y-157891932D01*
X126853740Y-157949000D01*
X127146260Y-157949000D01*
X127433158Y-157891932D01*
X127703411Y-157779990D01*
X127946632Y-157617475D01*
X128153475Y-157410632D01*
X128315990Y-157167411D01*
X128427932Y-156897158D01*
X128485000Y-156610260D01*
X128485000Y-156317740D01*
X128427932Y-156030842D01*
X128315990Y-155760589D01*
X128153475Y-155517368D01*
X128021620Y-155385513D01*
X128094180Y-155363502D01*
X128204494Y-155304537D01*
X128301185Y-155225185D01*
X128380537Y-155128494D01*
X128439502Y-155018180D01*
X128475812Y-154898482D01*
X128488072Y-154774000D01*
X128488072Y-153510730D01*
X130051009Y-151947794D01*
X130080001Y-151924001D01*
X130103795Y-151895008D01*
X130103799Y-151895004D01*
X130174973Y-151808277D01*
X130174974Y-151808276D01*
X130245546Y-151676247D01*
X130289003Y-151532986D01*
X130300000Y-151421333D01*
X130300000Y-151421324D01*
X130303676Y-151384001D01*
X130300000Y-151346678D01*
X130300000Y-107225323D01*
X130303676Y-107188000D01*
X130300000Y-107150677D01*
X130300000Y-107150667D01*
X130289003Y-107039014D01*
X130245546Y-106895753D01*
X130174974Y-106763723D01*
X130103799Y-106676997D01*
X130080001Y-106647999D01*
X130051003Y-106624201D01*
X127055804Y-103629003D01*
X127032001Y-103599999D01*
X126916276Y-103505026D01*
X126784247Y-103434454D01*
X126640986Y-103390997D01*
X126529333Y-103380000D01*
X126529322Y-103380000D01*
X126492000Y-103376324D01*
X126454678Y-103380000D01*
X124147711Y-103380000D01*
X124103774Y-103336063D01*
X123934256Y-103222795D01*
X123745898Y-103144774D01*
X123545939Y-103105000D01*
X123342061Y-103105000D01*
X123142102Y-103144774D01*
X122953744Y-103222795D01*
X122784226Y-103336063D01*
X122640063Y-103480226D01*
X122526795Y-103649744D01*
X122448774Y-103838102D01*
X122409000Y-104038061D01*
X112420000Y-104038061D01*
X112420000Y-99533967D01*
X115485000Y-99533967D01*
X115485000Y-99856033D01*
X115547832Y-100171912D01*
X115671082Y-100469463D01*
X115850013Y-100737252D01*
X116077748Y-100964987D01*
X116345537Y-101143918D01*
X116643088Y-101267168D01*
X116958967Y-101330000D01*
X117281033Y-101330000D01*
X117596912Y-101267168D01*
X117894463Y-101143918D01*
X118162252Y-100964987D01*
X118389987Y-100737252D01*
X118568918Y-100469463D01*
X118692168Y-100171912D01*
X118755000Y-99856033D01*
X118755000Y-99533967D01*
X125085000Y-99533967D01*
X125085000Y-99856033D01*
X125147832Y-100171912D01*
X125271082Y-100469463D01*
X125450013Y-100737252D01*
X125677748Y-100964987D01*
X125945537Y-101143918D01*
X126243088Y-101267168D01*
X126558967Y-101330000D01*
X126881033Y-101330000D01*
X127196912Y-101267168D01*
X127494463Y-101143918D01*
X127762252Y-100964987D01*
X127989987Y-100737252D01*
X128168918Y-100469463D01*
X128292168Y-100171912D01*
X128355000Y-99856033D01*
X128355000Y-99533967D01*
X128292168Y-99218088D01*
X128168918Y-98920537D01*
X127989987Y-98652748D01*
X127762252Y-98425013D01*
X127494463Y-98246082D01*
X127196912Y-98122832D01*
X126881033Y-98060000D01*
X126558967Y-98060000D01*
X126243088Y-98122832D01*
X125945537Y-98246082D01*
X125677748Y-98425013D01*
X125450013Y-98652748D01*
X125271082Y-98920537D01*
X125147832Y-99218088D01*
X125085000Y-99533967D01*
X118755000Y-99533967D01*
X118692168Y-99218088D01*
X118568918Y-98920537D01*
X118389987Y-98652748D01*
X118162252Y-98425013D01*
X117894463Y-98246082D01*
X117596912Y-98122832D01*
X117281033Y-98060000D01*
X116958967Y-98060000D01*
X116643088Y-98122832D01*
X116345537Y-98246082D01*
X116077748Y-98425013D01*
X115850013Y-98652748D01*
X115671082Y-98920537D01*
X115547832Y-99218088D01*
X115485000Y-99533967D01*
X112420000Y-99533967D01*
X112420000Y-93080527D01*
X118714078Y-93080527D01*
X118767466Y-93309201D01*
X118997374Y-93415095D01*
X119243524Y-93474102D01*
X119496455Y-93483952D01*
X119746449Y-93444270D01*
X119983896Y-93356578D01*
X120072534Y-93309201D01*
X120125922Y-93080527D01*
X121214078Y-93080527D01*
X121267466Y-93309201D01*
X121497374Y-93415095D01*
X121743524Y-93474102D01*
X121996455Y-93483952D01*
X122246449Y-93444270D01*
X122483896Y-93356578D01*
X122572534Y-93309201D01*
X122625922Y-93080527D01*
X121920000Y-92374605D01*
X121214078Y-93080527D01*
X120125922Y-93080527D01*
X119420000Y-92374605D01*
X118714078Y-93080527D01*
X112420000Y-93080527D01*
X112420000Y-92271455D01*
X118131048Y-92271455D01*
X118170730Y-92521449D01*
X118258422Y-92758896D01*
X118305799Y-92847534D01*
X118534473Y-92900922D01*
X119240395Y-92195000D01*
X119599605Y-92195000D01*
X120305527Y-92900922D01*
X120534201Y-92847534D01*
X120640095Y-92617626D01*
X120667711Y-92502427D01*
X120670730Y-92521449D01*
X120758422Y-92758896D01*
X120805799Y-92847534D01*
X121034473Y-92900922D01*
X121740395Y-92195000D01*
X122099605Y-92195000D01*
X122805527Y-92900922D01*
X123034201Y-92847534D01*
X123140095Y-92617626D01*
X123169495Y-92494983D01*
X123184381Y-92569821D01*
X123281247Y-92803676D01*
X123421875Y-93014140D01*
X123600860Y-93193125D01*
X123811324Y-93333753D01*
X124045179Y-93430619D01*
X124293439Y-93480000D01*
X124546561Y-93480000D01*
X124794821Y-93430619D01*
X125028676Y-93333753D01*
X125239140Y-93193125D01*
X125418125Y-93014140D01*
X125558753Y-92803676D01*
X125655619Y-92569821D01*
X125705000Y-92321561D01*
X125705000Y-92068439D01*
X125655619Y-91820179D01*
X125558753Y-91586324D01*
X125418125Y-91375860D01*
X125239140Y-91196875D01*
X125028676Y-91056247D01*
X124794821Y-90959381D01*
X124546561Y-90910000D01*
X124293439Y-90910000D01*
X124045179Y-90959381D01*
X123811324Y-91056247D01*
X123600860Y-91196875D01*
X123421875Y-91375860D01*
X123281247Y-91586324D01*
X123184381Y-91820179D01*
X123171706Y-91883900D01*
X123169270Y-91868551D01*
X123081578Y-91631104D01*
X123034201Y-91542466D01*
X122805527Y-91489078D01*
X122099605Y-92195000D01*
X121740395Y-92195000D01*
X121034473Y-91489078D01*
X120805799Y-91542466D01*
X120699905Y-91772374D01*
X120672289Y-91887573D01*
X120669270Y-91868551D01*
X120581578Y-91631104D01*
X120534201Y-91542466D01*
X120305527Y-91489078D01*
X119599605Y-92195000D01*
X119240395Y-92195000D01*
X118534473Y-91489078D01*
X118305799Y-91542466D01*
X118199905Y-91772374D01*
X118140898Y-92018524D01*
X118131048Y-92271455D01*
X112420000Y-92271455D01*
X112420000Y-91309473D01*
X118714078Y-91309473D01*
X119420000Y-92015395D01*
X120125922Y-91309473D01*
X121214078Y-91309473D01*
X121920000Y-92015395D01*
X122625922Y-91309473D01*
X122572534Y-91080799D01*
X122342626Y-90974905D01*
X122096476Y-90915898D01*
X121843545Y-90906048D01*
X121593551Y-90945730D01*
X121356104Y-91033422D01*
X121267466Y-91080799D01*
X121214078Y-91309473D01*
X120125922Y-91309473D01*
X120072534Y-91080799D01*
X119842626Y-90974905D01*
X119596476Y-90915898D01*
X119343545Y-90906048D01*
X119093551Y-90945730D01*
X118856104Y-91033422D01*
X118767466Y-91080799D01*
X118714078Y-91309473D01*
X112420000Y-91309473D01*
X112420000Y-88653439D01*
X118135000Y-88653439D01*
X118135000Y-88906561D01*
X118184381Y-89154821D01*
X118281247Y-89388676D01*
X118421875Y-89599140D01*
X118600860Y-89778125D01*
X118811324Y-89918753D01*
X119045179Y-90015619D01*
X119293439Y-90065000D01*
X119546561Y-90065000D01*
X119794821Y-90015619D01*
X120028676Y-89918753D01*
X120239140Y-89778125D01*
X120351738Y-89665527D01*
X121214078Y-89665527D01*
X121267466Y-89894201D01*
X121497374Y-90000095D01*
X121743524Y-90059102D01*
X121996455Y-90068952D01*
X122246449Y-90029270D01*
X122483896Y-89941578D01*
X122572534Y-89894201D01*
X122625922Y-89665527D01*
X123714078Y-89665527D01*
X123767466Y-89894201D01*
X123997374Y-90000095D01*
X124243524Y-90059102D01*
X124496455Y-90068952D01*
X124746449Y-90029270D01*
X124983896Y-89941578D01*
X125072534Y-89894201D01*
X125125922Y-89665527D01*
X124420000Y-88959605D01*
X123714078Y-89665527D01*
X122625922Y-89665527D01*
X121920000Y-88959605D01*
X121214078Y-89665527D01*
X120351738Y-89665527D01*
X120418125Y-89599140D01*
X120558753Y-89388676D01*
X120655619Y-89154821D01*
X120668294Y-89091100D01*
X120670730Y-89106449D01*
X120758422Y-89343896D01*
X120805799Y-89432534D01*
X121034473Y-89485922D01*
X121740395Y-88780000D01*
X122099605Y-88780000D01*
X122805527Y-89485922D01*
X123034201Y-89432534D01*
X123140095Y-89202626D01*
X123167711Y-89087427D01*
X123170730Y-89106449D01*
X123258422Y-89343896D01*
X123305799Y-89432534D01*
X123534473Y-89485922D01*
X124240395Y-88780000D01*
X124599605Y-88780000D01*
X125305527Y-89485922D01*
X125534201Y-89432534D01*
X125640095Y-89202626D01*
X125699102Y-88956476D01*
X125708952Y-88703545D01*
X125669270Y-88453551D01*
X125581578Y-88216104D01*
X125534201Y-88127466D01*
X125305527Y-88074078D01*
X124599605Y-88780000D01*
X124240395Y-88780000D01*
X123534473Y-88074078D01*
X123305799Y-88127466D01*
X123199905Y-88357374D01*
X123172289Y-88472573D01*
X123169270Y-88453551D01*
X123081578Y-88216104D01*
X123034201Y-88127466D01*
X122805527Y-88074078D01*
X122099605Y-88780000D01*
X121740395Y-88780000D01*
X121034473Y-88074078D01*
X120805799Y-88127466D01*
X120699905Y-88357374D01*
X120670505Y-88480017D01*
X120655619Y-88405179D01*
X120558753Y-88171324D01*
X120418125Y-87960860D01*
X120351738Y-87894473D01*
X121214078Y-87894473D01*
X121920000Y-88600395D01*
X122625922Y-87894473D01*
X123714078Y-87894473D01*
X124420000Y-88600395D01*
X125125922Y-87894473D01*
X125072534Y-87665799D01*
X124842626Y-87559905D01*
X124596476Y-87500898D01*
X124343545Y-87491048D01*
X124093551Y-87530730D01*
X123856104Y-87618422D01*
X123767466Y-87665799D01*
X123714078Y-87894473D01*
X122625922Y-87894473D01*
X122572534Y-87665799D01*
X122342626Y-87559905D01*
X122096476Y-87500898D01*
X121843545Y-87491048D01*
X121593551Y-87530730D01*
X121356104Y-87618422D01*
X121267466Y-87665799D01*
X121214078Y-87894473D01*
X120351738Y-87894473D01*
X120239140Y-87781875D01*
X120028676Y-87641247D01*
X119794821Y-87544381D01*
X119546561Y-87495000D01*
X119293439Y-87495000D01*
X119045179Y-87544381D01*
X118811324Y-87641247D01*
X118600860Y-87781875D01*
X118421875Y-87960860D01*
X118281247Y-88171324D01*
X118184381Y-88405179D01*
X118135000Y-88653439D01*
X112420000Y-88653439D01*
X112420000Y-81118967D01*
X115485000Y-81118967D01*
X115485000Y-81441033D01*
X115547832Y-81756912D01*
X115671082Y-82054463D01*
X115850013Y-82322252D01*
X116077748Y-82549987D01*
X116345537Y-82728918D01*
X116643088Y-82852168D01*
X116958967Y-82915000D01*
X117281033Y-82915000D01*
X117596912Y-82852168D01*
X117894463Y-82728918D01*
X118162252Y-82549987D01*
X118389987Y-82322252D01*
X118568918Y-82054463D01*
X118692168Y-81756912D01*
X118755000Y-81441033D01*
X118755000Y-81118967D01*
X125085000Y-81118967D01*
X125085000Y-81441033D01*
X125147832Y-81756912D01*
X125271082Y-82054463D01*
X125450013Y-82322252D01*
X125677748Y-82549987D01*
X125945537Y-82728918D01*
X126243088Y-82852168D01*
X126558967Y-82915000D01*
X126881033Y-82915000D01*
X127196912Y-82852168D01*
X127494463Y-82728918D01*
X127762252Y-82549987D01*
X127989987Y-82322252D01*
X128168918Y-82054463D01*
X128292168Y-81756912D01*
X128355000Y-81441033D01*
X128355000Y-81118967D01*
X128292168Y-80803088D01*
X128168918Y-80505537D01*
X127989987Y-80237748D01*
X127762252Y-80010013D01*
X127494463Y-79831082D01*
X127196912Y-79707832D01*
X126881033Y-79645000D01*
X126558967Y-79645000D01*
X126243088Y-79707832D01*
X125945537Y-79831082D01*
X125677748Y-80010013D01*
X125450013Y-80237748D01*
X125271082Y-80505537D01*
X125147832Y-80803088D01*
X125085000Y-81118967D01*
X118755000Y-81118967D01*
X118692168Y-80803088D01*
X118568918Y-80505537D01*
X118389987Y-80237748D01*
X118162252Y-80010013D01*
X117894463Y-79831082D01*
X117596912Y-79707832D01*
X117281033Y-79645000D01*
X116958967Y-79645000D01*
X116643088Y-79707832D01*
X116345537Y-79831082D01*
X116077748Y-80010013D01*
X115850013Y-80237748D01*
X115671082Y-80505537D01*
X115547832Y-80803088D01*
X115485000Y-81118967D01*
X112420000Y-81118967D01*
X112420000Y-76860000D01*
X130785000Y-76860000D01*
X130785001Y-175870000D01*
G37*
X130785001Y-175870000D02*
X126984178Y-175870000D01*
X127092095Y-175825299D01*
X127343505Y-175657312D01*
X127557312Y-175443505D01*
X127725299Y-175192095D01*
X127841011Y-174912743D01*
X127900000Y-174616184D01*
X127900000Y-174313816D01*
X127841011Y-174017257D01*
X127725299Y-173737905D01*
X127557312Y-173486495D01*
X127343505Y-173272688D01*
X127092095Y-173104701D01*
X126812743Y-172988989D01*
X126516184Y-172930000D01*
X126213816Y-172930000D01*
X125917257Y-172988989D01*
X125637905Y-173104701D01*
X125386495Y-173272688D01*
X125172688Y-173486495D01*
X125004701Y-173737905D01*
X124888989Y-174017257D01*
X124830000Y-174313816D01*
X124830000Y-174616184D01*
X124888989Y-174912743D01*
X125004701Y-175192095D01*
X125172688Y-175443505D01*
X125386495Y-175657312D01*
X125637905Y-175825299D01*
X125745822Y-175870000D01*
X117459178Y-175870000D01*
X117567095Y-175825299D01*
X117818505Y-175657312D01*
X118032312Y-175443505D01*
X118200299Y-175192095D01*
X118316011Y-174912743D01*
X118375000Y-174616184D01*
X118375000Y-174313816D01*
X118316011Y-174017257D01*
X118200299Y-173737905D01*
X118032312Y-173486495D01*
X117818505Y-173272688D01*
X117567095Y-173104701D01*
X117287743Y-172988989D01*
X116991184Y-172930000D01*
X116688816Y-172930000D01*
X116392257Y-172988989D01*
X116112905Y-173104701D01*
X115861495Y-173272688D01*
X115647688Y-173486495D01*
X115479701Y-173737905D01*
X115363989Y-174017257D01*
X115305000Y-174313816D01*
X115305000Y-174616184D01*
X115363989Y-174912743D01*
X115479701Y-175192095D01*
X115647688Y-175443505D01*
X115861495Y-175657312D01*
X116112905Y-175825299D01*
X116220822Y-175870000D01*
X112420000Y-175870000D01*
X112420000Y-166013816D01*
X115305000Y-166013816D01*
X115305000Y-166316184D01*
X115363989Y-166612743D01*
X115479701Y-166892095D01*
X115647688Y-167143505D01*
X115861495Y-167357312D01*
X116112905Y-167525299D01*
X116392257Y-167641011D01*
X116688816Y-167700000D01*
X116991184Y-167700000D01*
X117287743Y-167641011D01*
X117567095Y-167525299D01*
X117818505Y-167357312D01*
X118032312Y-167143505D01*
X118200299Y-166892095D01*
X118316011Y-166612743D01*
X118375000Y-166316184D01*
X118375000Y-166013816D01*
X124830000Y-166013816D01*
X124830000Y-166316184D01*
X124888989Y-166612743D01*
X125004701Y-166892095D01*
X125172688Y-167143505D01*
X125386495Y-167357312D01*
X125637905Y-167525299D01*
X125917257Y-167641011D01*
X126213816Y-167700000D01*
X126516184Y-167700000D01*
X126812743Y-167641011D01*
X127092095Y-167525299D01*
X127343505Y-167357312D01*
X127557312Y-167143505D01*
X127725299Y-166892095D01*
X127841011Y-166612743D01*
X127900000Y-166316184D01*
X127900000Y-166013816D01*
X127841011Y-165717257D01*
X127725299Y-165437905D01*
X127557312Y-165186495D01*
X127343505Y-164972688D01*
X127092095Y-164804701D01*
X126812743Y-164688989D01*
X126516184Y-164630000D01*
X126213816Y-164630000D01*
X125917257Y-164688989D01*
X125637905Y-164804701D01*
X125386495Y-164972688D01*
X125172688Y-165186495D01*
X125004701Y-165437905D01*
X124888989Y-165717257D01*
X124830000Y-166013816D01*
X118375000Y-166013816D01*
X118316011Y-165717257D01*
X118200299Y-165437905D01*
X118032312Y-165186495D01*
X117818505Y-164972688D01*
X117567095Y-164804701D01*
X117287743Y-164688989D01*
X116991184Y-164630000D01*
X116688816Y-164630000D01*
X116392257Y-164688989D01*
X116112905Y-164804701D01*
X115861495Y-164972688D01*
X115647688Y-165186495D01*
X115479701Y-165437905D01*
X115363989Y-165717257D01*
X115305000Y-166013816D01*
X112420000Y-166013816D01*
X112420000Y-164129080D01*
X115955525Y-164129080D01*
X116039208Y-164383261D01*
X116311775Y-164514158D01*
X116604642Y-164589365D01*
X116906553Y-164605991D01*
X117205907Y-164563397D01*
X117491199Y-164463222D01*
X117640792Y-164383261D01*
X117724475Y-164129080D01*
X125480525Y-164129080D01*
X125564208Y-164383261D01*
X125836775Y-164514158D01*
X126129642Y-164589365D01*
X126431553Y-164605991D01*
X126730907Y-164563397D01*
X127016199Y-164463222D01*
X127165792Y-164383261D01*
X127249475Y-164129080D01*
X126365000Y-163244605D01*
X125480525Y-164129080D01*
X117724475Y-164129080D01*
X116840000Y-163244605D01*
X115955525Y-164129080D01*
X112420000Y-164129080D01*
X112420000Y-163131553D01*
X115299009Y-163131553D01*
X115341603Y-163430907D01*
X115441778Y-163716199D01*
X115521739Y-163865792D01*
X115775920Y-163949475D01*
X116660395Y-163065000D01*
X117019605Y-163065000D01*
X117904080Y-163949475D01*
X118158261Y-163865792D01*
X118289158Y-163593225D01*
X118364365Y-163300358D01*
X118373660Y-163131553D01*
X124824009Y-163131553D01*
X124866603Y-163430907D01*
X124966778Y-163716199D01*
X125046739Y-163865792D01*
X125300920Y-163949475D01*
X126185395Y-163065000D01*
X126544605Y-163065000D01*
X127429080Y-163949475D01*
X127683261Y-163865792D01*
X127814158Y-163593225D01*
X127889365Y-163300358D01*
X127905991Y-162998447D01*
X127863397Y-162699093D01*
X127763222Y-162413801D01*
X127683261Y-162264208D01*
X127429080Y-162180525D01*
X126544605Y-163065000D01*
X126185395Y-163065000D01*
X125300920Y-162180525D01*
X125046739Y-162264208D01*
X124915842Y-162536775D01*
X124840635Y-162829642D01*
X124824009Y-163131553D01*
X118373660Y-163131553D01*
X118380991Y-162998447D01*
X118338397Y-162699093D01*
X118238222Y-162413801D01*
X118158261Y-162264208D01*
X117904080Y-162180525D01*
X117019605Y-163065000D01*
X116660395Y-163065000D01*
X115775920Y-162180525D01*
X115521739Y-162264208D01*
X115390842Y-162536775D01*
X115315635Y-162829642D01*
X115299009Y-163131553D01*
X112420000Y-163131553D01*
X112420000Y-162000920D01*
X115955525Y-162000920D01*
X116840000Y-162885395D01*
X117724475Y-162000920D01*
X125480525Y-162000920D01*
X126365000Y-162885395D01*
X127249475Y-162000920D01*
X127165792Y-161746739D01*
X126893225Y-161615842D01*
X126600358Y-161540635D01*
X126298447Y-161524009D01*
X125999093Y-161566603D01*
X125713801Y-161666778D01*
X125564208Y-161746739D01*
X125480525Y-162000920D01*
X117724475Y-162000920D01*
X117640792Y-161746739D01*
X117368225Y-161615842D01*
X117075358Y-161540635D01*
X116773447Y-161524009D01*
X116474093Y-161566603D01*
X116188801Y-161666778D01*
X116039208Y-161746739D01*
X115955525Y-162000920D01*
X112420000Y-162000920D01*
X112420000Y-115824000D01*
X113028324Y-115824000D01*
X113032001Y-115861333D01*
X113032000Y-150838678D01*
X113028324Y-150876000D01*
X113032000Y-150913322D01*
X113032000Y-150913332D01*
X113042997Y-151024985D01*
X113063251Y-151091754D01*
X113086454Y-151168246D01*
X113157026Y-151300276D01*
X113196871Y-151348826D01*
X113251999Y-151416001D01*
X113281003Y-151439804D01*
X115398790Y-153557592D01*
X115355000Y-153777740D01*
X115355000Y-154070260D01*
X115412068Y-154357158D01*
X115524010Y-154627411D01*
X115686525Y-154870632D01*
X115893368Y-155077475D01*
X116067760Y-155194000D01*
X115893368Y-155310525D01*
X115686525Y-155517368D01*
X115524010Y-155760589D01*
X115412068Y-156030842D01*
X115355000Y-156317740D01*
X115355000Y-156610260D01*
X115412068Y-156897158D01*
X115524010Y-157167411D01*
X115686525Y-157410632D01*
X115893368Y-157617475D01*
X116136589Y-157779990D01*
X116406842Y-157891932D01*
X116693740Y-157949000D01*
X116986260Y-157949000D01*
X117273158Y-157891932D01*
X117543411Y-157779990D01*
X117786632Y-157617475D01*
X117993475Y-157410632D01*
X118115195Y-157228466D01*
X118184822Y-157345355D01*
X118379731Y-157561588D01*
X118613080Y-157735641D01*
X118875901Y-157860825D01*
X119023110Y-157905476D01*
X119253000Y-157784155D01*
X119253000Y-156591000D01*
X119507000Y-156591000D01*
X119507000Y-157784155D01*
X119736890Y-157905476D01*
X119884099Y-157860825D01*
X120146920Y-157735641D01*
X120380269Y-157561588D01*
X120575178Y-157345355D01*
X120650000Y-157219745D01*
X120724822Y-157345355D01*
X120919731Y-157561588D01*
X121153080Y-157735641D01*
X121415901Y-157860825D01*
X121563110Y-157905476D01*
X121793000Y-157784155D01*
X121793000Y-156591000D01*
X122047000Y-156591000D01*
X122047000Y-157784155D01*
X122276890Y-157905476D01*
X122424099Y-157860825D01*
X122686920Y-157735641D01*
X122920269Y-157561588D01*
X123115178Y-157345355D01*
X123190000Y-157219745D01*
X123264822Y-157345355D01*
X123459731Y-157561588D01*
X123693080Y-157735641D01*
X123955901Y-157860825D01*
X124103110Y-157905476D01*
X124333000Y-157784155D01*
X124333000Y-156591000D01*
X122047000Y-156591000D01*
X121793000Y-156591000D01*
X119507000Y-156591000D01*
X119253000Y-156591000D01*
X119233000Y-156591000D01*
X119233000Y-156337000D01*
X119253000Y-156337000D01*
X119253000Y-154051000D01*
X119507000Y-154051000D01*
X119507000Y-156337000D01*
X121793000Y-156337000D01*
X121793000Y-154051000D01*
X122047000Y-154051000D01*
X122047000Y-156337000D01*
X124333000Y-156337000D01*
X124333000Y-154051000D01*
X122047000Y-154051000D01*
X121793000Y-154051000D01*
X119507000Y-154051000D01*
X119253000Y-154051000D01*
X119233000Y-154051000D01*
X119233000Y-153797000D01*
X119253000Y-153797000D01*
X119253000Y-152603845D01*
X119507000Y-152603845D01*
X119507000Y-153797000D01*
X121793000Y-153797000D01*
X121793000Y-152603845D01*
X122047000Y-152603845D01*
X122047000Y-153797000D01*
X124333000Y-153797000D01*
X124333000Y-152603845D01*
X124103110Y-152482524D01*
X123955901Y-152527175D01*
X123693080Y-152652359D01*
X123459731Y-152826412D01*
X123264822Y-153042645D01*
X123190000Y-153168255D01*
X123115178Y-153042645D01*
X122920269Y-152826412D01*
X122686920Y-152652359D01*
X122424099Y-152527175D01*
X122276890Y-152482524D01*
X122047000Y-152603845D01*
X121793000Y-152603845D01*
X121563110Y-152482524D01*
X121415901Y-152527175D01*
X121153080Y-152652359D01*
X120919731Y-152826412D01*
X120724822Y-153042645D01*
X120650000Y-153168255D01*
X120575178Y-153042645D01*
X120380269Y-152826412D01*
X120146920Y-152652359D01*
X119884099Y-152527175D01*
X119736890Y-152482524D01*
X119507000Y-152603845D01*
X119253000Y-152603845D01*
X119023110Y-152482524D01*
X118875901Y-152527175D01*
X118613080Y-152652359D01*
X118379731Y-152826412D01*
X118184822Y-153042645D01*
X118115195Y-153159534D01*
X117993475Y-152977368D01*
X117786632Y-152770525D01*
X117543411Y-152608010D01*
X117273158Y-152496068D01*
X116986260Y-152439000D01*
X116693740Y-152439000D01*
X116473592Y-152482790D01*
X114552000Y-150561199D01*
X114552000Y-136363967D01*
X115485000Y-136363967D01*
X115485000Y-136686033D01*
X115547832Y-137001912D01*
X115671082Y-137299463D01*
X115850013Y-137567252D01*
X116077748Y-137794987D01*
X116345537Y-137973918D01*
X116643088Y-138097168D01*
X116958967Y-138160000D01*
X117281033Y-138160000D01*
X117596912Y-138097168D01*
X117894463Y-137973918D01*
X118162252Y-137794987D01*
X118389987Y-137567252D01*
X118568918Y-137299463D01*
X118692168Y-137001912D01*
X118755000Y-136686033D01*
X118755000Y-136363967D01*
X125085000Y-136363967D01*
X125085000Y-136686033D01*
X125147832Y-137001912D01*
X125271082Y-137299463D01*
X125450013Y-137567252D01*
X125677748Y-137794987D01*
X125945537Y-137973918D01*
X126243088Y-138097168D01*
X126558967Y-138160000D01*
X126881033Y-138160000D01*
X127196912Y-138097168D01*
X127494463Y-137973918D01*
X127762252Y-137794987D01*
X127989987Y-137567252D01*
X128168918Y-137299463D01*
X128292168Y-137001912D01*
X128355000Y-136686033D01*
X128355000Y-136363967D01*
X128292168Y-136048088D01*
X128168918Y-135750537D01*
X127989987Y-135482748D01*
X127762252Y-135255013D01*
X127494463Y-135076082D01*
X127196912Y-134952832D01*
X126881033Y-134890000D01*
X126558967Y-134890000D01*
X126243088Y-134952832D01*
X125945537Y-135076082D01*
X125677748Y-135255013D01*
X125450013Y-135482748D01*
X125271082Y-135750537D01*
X125147832Y-136048088D01*
X125085000Y-136363967D01*
X118755000Y-136363967D01*
X118692168Y-136048088D01*
X118568918Y-135750537D01*
X118389987Y-135482748D01*
X118162252Y-135255013D01*
X117894463Y-135076082D01*
X117596912Y-134952832D01*
X117281033Y-134890000D01*
X116958967Y-134890000D01*
X116643088Y-134952832D01*
X116345537Y-135076082D01*
X116077748Y-135255013D01*
X115850013Y-135482748D01*
X115671082Y-135750537D01*
X115547832Y-136048088D01*
X115485000Y-136363967D01*
X114552000Y-136363967D01*
X114552000Y-128898439D01*
X118135000Y-128898439D01*
X118135000Y-129151561D01*
X118184381Y-129399821D01*
X118281247Y-129633676D01*
X118421875Y-129844140D01*
X118600860Y-130023125D01*
X118811324Y-130163753D01*
X119045179Y-130260619D01*
X119293439Y-130310000D01*
X119546561Y-130310000D01*
X119794821Y-130260619D01*
X120028676Y-130163753D01*
X120239140Y-130023125D01*
X120418125Y-129844140D01*
X120558753Y-129633676D01*
X120655619Y-129399821D01*
X120670000Y-129327521D01*
X120684381Y-129399821D01*
X120781247Y-129633676D01*
X120921875Y-129844140D01*
X121100860Y-130023125D01*
X121311324Y-130163753D01*
X121545179Y-130260619D01*
X121793439Y-130310000D01*
X122046561Y-130310000D01*
X122294821Y-130260619D01*
X122528676Y-130163753D01*
X122739140Y-130023125D01*
X122918125Y-129844140D01*
X123058753Y-129633676D01*
X123155619Y-129399821D01*
X123170000Y-129327521D01*
X123184381Y-129399821D01*
X123281247Y-129633676D01*
X123421875Y-129844140D01*
X123600860Y-130023125D01*
X123811324Y-130163753D01*
X124045179Y-130260619D01*
X124293439Y-130310000D01*
X124546561Y-130310000D01*
X124794821Y-130260619D01*
X125028676Y-130163753D01*
X125239140Y-130023125D01*
X125418125Y-129844140D01*
X125558753Y-129633676D01*
X125655619Y-129399821D01*
X125705000Y-129151561D01*
X125705000Y-128898439D01*
X125691124Y-128828678D01*
X127003004Y-127516798D01*
X127032001Y-127493001D01*
X127126974Y-127377276D01*
X127197546Y-127245247D01*
X127241003Y-127101986D01*
X127252000Y-126990333D01*
X127252000Y-126990332D01*
X127255677Y-126953000D01*
X127252000Y-126915667D01*
X127252000Y-121957323D01*
X127255676Y-121920000D01*
X127252000Y-121882677D01*
X127252000Y-121882667D01*
X127241003Y-121771014D01*
X127197546Y-121627753D01*
X127126974Y-121495723D01*
X127055799Y-121408997D01*
X127032001Y-121379999D01*
X127003003Y-121356201D01*
X125220000Y-119573199D01*
X125220000Y-118761140D01*
X125271082Y-118884463D01*
X125450013Y-119152252D01*
X125677748Y-119379987D01*
X125945537Y-119558918D01*
X126243088Y-119682168D01*
X126558967Y-119745000D01*
X126881033Y-119745000D01*
X127196912Y-119682168D01*
X127494463Y-119558918D01*
X127762252Y-119379987D01*
X127989987Y-119152252D01*
X128168918Y-118884463D01*
X128292168Y-118586912D01*
X128355000Y-118271033D01*
X128355000Y-117948967D01*
X128292168Y-117633088D01*
X128168918Y-117335537D01*
X127989987Y-117067748D01*
X127762252Y-116840013D01*
X127494463Y-116661082D01*
X127196912Y-116537832D01*
X126881033Y-116475000D01*
X126558967Y-116475000D01*
X126243088Y-116537832D01*
X125945537Y-116661082D01*
X125677748Y-116840013D01*
X125450013Y-117067748D01*
X125271082Y-117335537D01*
X125220000Y-117458860D01*
X125220000Y-109415711D01*
X125263937Y-109371774D01*
X125377205Y-109202256D01*
X125455226Y-109013898D01*
X125495000Y-108813939D01*
X125495000Y-108610061D01*
X125455226Y-108410102D01*
X125377205Y-108221744D01*
X125263937Y-108052226D01*
X125119774Y-107908063D01*
X124950256Y-107794795D01*
X124761898Y-107716774D01*
X124561939Y-107677000D01*
X124358061Y-107677000D01*
X124158102Y-107716774D01*
X123969744Y-107794795D01*
X123800226Y-107908063D01*
X123656063Y-108052226D01*
X123542795Y-108221744D01*
X123464774Y-108410102D01*
X123425000Y-108610061D01*
X123425000Y-108813939D01*
X123464774Y-109013898D01*
X123542795Y-109202256D01*
X123656063Y-109371774D01*
X123700000Y-109415711D01*
X123700001Y-119850668D01*
X123696324Y-119888000D01*
X123710998Y-120036985D01*
X123754454Y-120180246D01*
X123825026Y-120312276D01*
X123896201Y-120399002D01*
X123920000Y-120428001D01*
X123948998Y-120451799D01*
X125732001Y-122234803D01*
X125732000Y-126638198D01*
X124616322Y-127753876D01*
X124546561Y-127740000D01*
X124293439Y-127740000D01*
X124045179Y-127789381D01*
X123811324Y-127886247D01*
X123600860Y-128026875D01*
X123421875Y-128205860D01*
X123281247Y-128416324D01*
X123184381Y-128650179D01*
X123170000Y-128722479D01*
X123155619Y-128650179D01*
X123058753Y-128416324D01*
X122918125Y-128205860D01*
X122739140Y-128026875D01*
X122528676Y-127886247D01*
X122294821Y-127789381D01*
X122046561Y-127740000D01*
X121793439Y-127740000D01*
X121545179Y-127789381D01*
X121311324Y-127886247D01*
X121100860Y-128026875D01*
X120921875Y-128205860D01*
X120781247Y-128416324D01*
X120684381Y-128650179D01*
X120670000Y-128722479D01*
X120655619Y-128650179D01*
X120558753Y-128416324D01*
X120418125Y-128205860D01*
X120239140Y-128026875D01*
X120028676Y-127886247D01*
X119794821Y-127789381D01*
X119546561Y-127740000D01*
X119293439Y-127740000D01*
X119045179Y-127789381D01*
X118811324Y-127886247D01*
X118600860Y-128026875D01*
X118421875Y-128205860D01*
X118281247Y-128416324D01*
X118184381Y-128650179D01*
X118135000Y-128898439D01*
X114552000Y-128898439D01*
X114552000Y-125483439D01*
X118135000Y-125483439D01*
X118135000Y-125736561D01*
X118184381Y-125984821D01*
X118281247Y-126218676D01*
X118421875Y-126429140D01*
X118600860Y-126608125D01*
X118811324Y-126748753D01*
X119045179Y-126845619D01*
X119293439Y-126895000D01*
X119546561Y-126895000D01*
X119794821Y-126845619D01*
X120028676Y-126748753D01*
X120239140Y-126608125D01*
X120418125Y-126429140D01*
X120558753Y-126218676D01*
X120655619Y-125984821D01*
X120670000Y-125912521D01*
X120684381Y-125984821D01*
X120781247Y-126218676D01*
X120921875Y-126429140D01*
X121100860Y-126608125D01*
X121311324Y-126748753D01*
X121545179Y-126845619D01*
X121793439Y-126895000D01*
X122046561Y-126895000D01*
X122294821Y-126845619D01*
X122528676Y-126748753D01*
X122739140Y-126608125D01*
X122918125Y-126429140D01*
X123058753Y-126218676D01*
X123155619Y-125984821D01*
X123170000Y-125912521D01*
X123184381Y-125984821D01*
X123281247Y-126218676D01*
X123421875Y-126429140D01*
X123600860Y-126608125D01*
X123811324Y-126748753D01*
X124045179Y-126845619D01*
X124293439Y-126895000D01*
X124546561Y-126895000D01*
X124794821Y-126845619D01*
X125028676Y-126748753D01*
X125239140Y-126608125D01*
X125418125Y-126429140D01*
X125558753Y-126218676D01*
X125655619Y-125984821D01*
X125705000Y-125736561D01*
X125705000Y-125483439D01*
X125655619Y-125235179D01*
X125558753Y-125001324D01*
X125418125Y-124790860D01*
X125239140Y-124611875D01*
X125028676Y-124471247D01*
X124794821Y-124374381D01*
X124546561Y-124325000D01*
X124293439Y-124325000D01*
X124045179Y-124374381D01*
X123811324Y-124471247D01*
X123600860Y-124611875D01*
X123421875Y-124790860D01*
X123281247Y-125001324D01*
X123184381Y-125235179D01*
X123170000Y-125307479D01*
X123155619Y-125235179D01*
X123058753Y-125001324D01*
X122918125Y-124790860D01*
X122739140Y-124611875D01*
X122528676Y-124471247D01*
X122294821Y-124374381D01*
X122046561Y-124325000D01*
X121793439Y-124325000D01*
X121545179Y-124374381D01*
X121311324Y-124471247D01*
X121100860Y-124611875D01*
X120921875Y-124790860D01*
X120781247Y-125001324D01*
X120684381Y-125235179D01*
X120670000Y-125307479D01*
X120655619Y-125235179D01*
X120558753Y-125001324D01*
X120418125Y-124790860D01*
X120239140Y-124611875D01*
X120028676Y-124471247D01*
X119794821Y-124374381D01*
X119546561Y-124325000D01*
X119293439Y-124325000D01*
X119045179Y-124374381D01*
X118811324Y-124471247D01*
X118600860Y-124611875D01*
X118421875Y-124790860D01*
X118281247Y-125001324D01*
X118184381Y-125235179D01*
X118135000Y-125483439D01*
X114552000Y-125483439D01*
X114552000Y-117948967D01*
X115485000Y-117948967D01*
X115485000Y-118271033D01*
X115547832Y-118586912D01*
X115671082Y-118884463D01*
X115850013Y-119152252D01*
X116077748Y-119379987D01*
X116345537Y-119558918D01*
X116643088Y-119682168D01*
X116958967Y-119745000D01*
X117281033Y-119745000D01*
X117596912Y-119682168D01*
X117894463Y-119558918D01*
X118162252Y-119379987D01*
X118389987Y-119152252D01*
X118568918Y-118884463D01*
X118692168Y-118586912D01*
X118755000Y-118271033D01*
X118755000Y-117948967D01*
X118692168Y-117633088D01*
X118568918Y-117335537D01*
X118389987Y-117067748D01*
X118162252Y-116840013D01*
X117894463Y-116661082D01*
X117596912Y-116537832D01*
X117281033Y-116475000D01*
X116958967Y-116475000D01*
X116643088Y-116537832D01*
X116345537Y-116661082D01*
X116077748Y-116840013D01*
X115850013Y-117067748D01*
X115671082Y-117335537D01*
X115547832Y-117633088D01*
X115485000Y-117948967D01*
X114552000Y-117948967D01*
X114552000Y-116138801D01*
X120202802Y-110488000D01*
X121216289Y-110488000D01*
X121260226Y-110531937D01*
X121429744Y-110645205D01*
X121618102Y-110723226D01*
X121818061Y-110763000D01*
X122021939Y-110763000D01*
X122221898Y-110723226D01*
X122410256Y-110645205D01*
X122579774Y-110531937D01*
X122723937Y-110387774D01*
X122837205Y-110218256D01*
X122915226Y-110029898D01*
X122955000Y-109829939D01*
X122955000Y-109626061D01*
X122915226Y-109426102D01*
X122837205Y-109237744D01*
X122723937Y-109068226D01*
X122579774Y-108924063D01*
X122410256Y-108810795D01*
X122221898Y-108732774D01*
X122021939Y-108693000D01*
X121818061Y-108693000D01*
X121618102Y-108732774D01*
X121429744Y-108810795D01*
X121260226Y-108924063D01*
X121216289Y-108968000D01*
X119925323Y-108968000D01*
X119888000Y-108964324D01*
X119850677Y-108968000D01*
X119850667Y-108968000D01*
X119739014Y-108978997D01*
X119623959Y-109013898D01*
X119595753Y-109022454D01*
X119463723Y-109093026D01*
X119380083Y-109161668D01*
X119347999Y-109187999D01*
X119324201Y-109216997D01*
X113280998Y-115260201D01*
X113252000Y-115283999D01*
X113228202Y-115312997D01*
X113228201Y-115312998D01*
X113157026Y-115399724D01*
X113086454Y-115531754D01*
X113042998Y-115675015D01*
X113028324Y-115824000D01*
X112420000Y-115824000D01*
X112420000Y-104038061D01*
X122409000Y-104038061D01*
X122409000Y-104241939D01*
X122448774Y-104441898D01*
X122526795Y-104630256D01*
X122640063Y-104799774D01*
X122784226Y-104943937D01*
X122953744Y-105057205D01*
X123142102Y-105135226D01*
X123342061Y-105175000D01*
X123545939Y-105175000D01*
X123745898Y-105135226D01*
X123934256Y-105057205D01*
X124103774Y-104943937D01*
X124147711Y-104900000D01*
X126177199Y-104900000D01*
X128780001Y-107502803D01*
X128780000Y-151069197D01*
X127413270Y-152435928D01*
X126150000Y-152435928D01*
X126025518Y-152448188D01*
X125905820Y-152484498D01*
X125795506Y-152543463D01*
X125698815Y-152622815D01*
X125619463Y-152719506D01*
X125560498Y-152829820D01*
X125536034Y-152910466D01*
X125460269Y-152826412D01*
X125226920Y-152652359D01*
X124964099Y-152527175D01*
X124816890Y-152482524D01*
X124587000Y-152603845D01*
X124587000Y-153797000D01*
X124607000Y-153797000D01*
X124607000Y-154051000D01*
X124587000Y-154051000D01*
X124587000Y-156337000D01*
X124607000Y-156337000D01*
X124607000Y-156591000D01*
X124587000Y-156591000D01*
X124587000Y-157784155D01*
X124816890Y-157905476D01*
X124964099Y-157860825D01*
X125226920Y-157735641D01*
X125460269Y-157561588D01*
X125655178Y-157345355D01*
X125724805Y-157228466D01*
X125846525Y-157410632D01*
X126053368Y-157617475D01*
X126296589Y-157779990D01*
X126566842Y-157891932D01*
X126853740Y-157949000D01*
X127146260Y-157949000D01*
X127433158Y-157891932D01*
X127703411Y-157779990D01*
X127946632Y-157617475D01*
X128153475Y-157410632D01*
X128315990Y-157167411D01*
X128427932Y-156897158D01*
X128485000Y-156610260D01*
X128485000Y-156317740D01*
X128427932Y-156030842D01*
X128315990Y-155760589D01*
X128153475Y-155517368D01*
X128021620Y-155385513D01*
X128094180Y-155363502D01*
X128204494Y-155304537D01*
X128301185Y-155225185D01*
X128380537Y-155128494D01*
X128439502Y-155018180D01*
X128475812Y-154898482D01*
X128488072Y-154774000D01*
X128488072Y-153510730D01*
X130051009Y-151947794D01*
X130080001Y-151924001D01*
X130103795Y-151895008D01*
X130103799Y-151895004D01*
X130174973Y-151808277D01*
X130174974Y-151808276D01*
X130245546Y-151676247D01*
X130289003Y-151532986D01*
X130300000Y-151421333D01*
X130300000Y-151421324D01*
X130303676Y-151384001D01*
X130300000Y-151346678D01*
X130300000Y-107225323D01*
X130303676Y-107188000D01*
X130300000Y-107150677D01*
X130300000Y-107150667D01*
X130289003Y-107039014D01*
X130245546Y-106895753D01*
X130174974Y-106763723D01*
X130103799Y-106676997D01*
X130080001Y-106647999D01*
X130051003Y-106624201D01*
X127055804Y-103629003D01*
X127032001Y-103599999D01*
X126916276Y-103505026D01*
X126784247Y-103434454D01*
X126640986Y-103390997D01*
X126529333Y-103380000D01*
X126529322Y-103380000D01*
X126492000Y-103376324D01*
X126454678Y-103380000D01*
X124147711Y-103380000D01*
X124103774Y-103336063D01*
X123934256Y-103222795D01*
X123745898Y-103144774D01*
X123545939Y-103105000D01*
X123342061Y-103105000D01*
X123142102Y-103144774D01*
X122953744Y-103222795D01*
X122784226Y-103336063D01*
X122640063Y-103480226D01*
X122526795Y-103649744D01*
X122448774Y-103838102D01*
X122409000Y-104038061D01*
X112420000Y-104038061D01*
X112420000Y-99533967D01*
X115485000Y-99533967D01*
X115485000Y-99856033D01*
X115547832Y-100171912D01*
X115671082Y-100469463D01*
X115850013Y-100737252D01*
X116077748Y-100964987D01*
X116345537Y-101143918D01*
X116643088Y-101267168D01*
X116958967Y-101330000D01*
X117281033Y-101330000D01*
X117596912Y-101267168D01*
X117894463Y-101143918D01*
X118162252Y-100964987D01*
X118389987Y-100737252D01*
X118568918Y-100469463D01*
X118692168Y-100171912D01*
X118755000Y-99856033D01*
X118755000Y-99533967D01*
X125085000Y-99533967D01*
X125085000Y-99856033D01*
X125147832Y-100171912D01*
X125271082Y-100469463D01*
X125450013Y-100737252D01*
X125677748Y-100964987D01*
X125945537Y-101143918D01*
X126243088Y-101267168D01*
X126558967Y-101330000D01*
X126881033Y-101330000D01*
X127196912Y-101267168D01*
X127494463Y-101143918D01*
X127762252Y-100964987D01*
X127989987Y-100737252D01*
X128168918Y-100469463D01*
X128292168Y-100171912D01*
X128355000Y-99856033D01*
X128355000Y-99533967D01*
X128292168Y-99218088D01*
X128168918Y-98920537D01*
X127989987Y-98652748D01*
X127762252Y-98425013D01*
X127494463Y-98246082D01*
X127196912Y-98122832D01*
X126881033Y-98060000D01*
X126558967Y-98060000D01*
X126243088Y-98122832D01*
X125945537Y-98246082D01*
X125677748Y-98425013D01*
X125450013Y-98652748D01*
X125271082Y-98920537D01*
X125147832Y-99218088D01*
X125085000Y-99533967D01*
X118755000Y-99533967D01*
X118692168Y-99218088D01*
X118568918Y-98920537D01*
X118389987Y-98652748D01*
X118162252Y-98425013D01*
X117894463Y-98246082D01*
X117596912Y-98122832D01*
X117281033Y-98060000D01*
X116958967Y-98060000D01*
X116643088Y-98122832D01*
X116345537Y-98246082D01*
X116077748Y-98425013D01*
X115850013Y-98652748D01*
X115671082Y-98920537D01*
X115547832Y-99218088D01*
X115485000Y-99533967D01*
X112420000Y-99533967D01*
X112420000Y-93080527D01*
X118714078Y-93080527D01*
X118767466Y-93309201D01*
X118997374Y-93415095D01*
X119243524Y-93474102D01*
X119496455Y-93483952D01*
X119746449Y-93444270D01*
X119983896Y-93356578D01*
X120072534Y-93309201D01*
X120125922Y-93080527D01*
X121214078Y-93080527D01*
X121267466Y-93309201D01*
X121497374Y-93415095D01*
X121743524Y-93474102D01*
X121996455Y-93483952D01*
X122246449Y-93444270D01*
X122483896Y-93356578D01*
X122572534Y-93309201D01*
X122625922Y-93080527D01*
X121920000Y-92374605D01*
X121214078Y-93080527D01*
X120125922Y-93080527D01*
X119420000Y-92374605D01*
X118714078Y-93080527D01*
X112420000Y-93080527D01*
X112420000Y-92271455D01*
X118131048Y-92271455D01*
X118170730Y-92521449D01*
X118258422Y-92758896D01*
X118305799Y-92847534D01*
X118534473Y-92900922D01*
X119240395Y-92195000D01*
X119599605Y-92195000D01*
X120305527Y-92900922D01*
X120534201Y-92847534D01*
X120640095Y-92617626D01*
X120667711Y-92502427D01*
X120670730Y-92521449D01*
X120758422Y-92758896D01*
X120805799Y-92847534D01*
X121034473Y-92900922D01*
X121740395Y-92195000D01*
X122099605Y-92195000D01*
X122805527Y-92900922D01*
X123034201Y-92847534D01*
X123140095Y-92617626D01*
X123169495Y-92494983D01*
X123184381Y-92569821D01*
X123281247Y-92803676D01*
X123421875Y-93014140D01*
X123600860Y-93193125D01*
X123811324Y-93333753D01*
X124045179Y-93430619D01*
X124293439Y-93480000D01*
X124546561Y-93480000D01*
X124794821Y-93430619D01*
X125028676Y-93333753D01*
X125239140Y-93193125D01*
X125418125Y-93014140D01*
X125558753Y-92803676D01*
X125655619Y-92569821D01*
X125705000Y-92321561D01*
X125705000Y-92068439D01*
X125655619Y-91820179D01*
X125558753Y-91586324D01*
X125418125Y-91375860D01*
X125239140Y-91196875D01*
X125028676Y-91056247D01*
X124794821Y-90959381D01*
X124546561Y-90910000D01*
X124293439Y-90910000D01*
X124045179Y-90959381D01*
X123811324Y-91056247D01*
X123600860Y-91196875D01*
X123421875Y-91375860D01*
X123281247Y-91586324D01*
X123184381Y-91820179D01*
X123171706Y-91883900D01*
X123169270Y-91868551D01*
X123081578Y-91631104D01*
X123034201Y-91542466D01*
X122805527Y-91489078D01*
X122099605Y-92195000D01*
X121740395Y-92195000D01*
X121034473Y-91489078D01*
X120805799Y-91542466D01*
X120699905Y-91772374D01*
X120672289Y-91887573D01*
X120669270Y-91868551D01*
X120581578Y-91631104D01*
X120534201Y-91542466D01*
X120305527Y-91489078D01*
X119599605Y-92195000D01*
X119240395Y-92195000D01*
X118534473Y-91489078D01*
X118305799Y-91542466D01*
X118199905Y-91772374D01*
X118140898Y-92018524D01*
X118131048Y-92271455D01*
X112420000Y-92271455D01*
X112420000Y-91309473D01*
X118714078Y-91309473D01*
X119420000Y-92015395D01*
X120125922Y-91309473D01*
X121214078Y-91309473D01*
X121920000Y-92015395D01*
X122625922Y-91309473D01*
X122572534Y-91080799D01*
X122342626Y-90974905D01*
X122096476Y-90915898D01*
X121843545Y-90906048D01*
X121593551Y-90945730D01*
X121356104Y-91033422D01*
X121267466Y-91080799D01*
X121214078Y-91309473D01*
X120125922Y-91309473D01*
X120072534Y-91080799D01*
X119842626Y-90974905D01*
X119596476Y-90915898D01*
X119343545Y-90906048D01*
X119093551Y-90945730D01*
X118856104Y-91033422D01*
X118767466Y-91080799D01*
X118714078Y-91309473D01*
X112420000Y-91309473D01*
X112420000Y-88653439D01*
X118135000Y-88653439D01*
X118135000Y-88906561D01*
X118184381Y-89154821D01*
X118281247Y-89388676D01*
X118421875Y-89599140D01*
X118600860Y-89778125D01*
X118811324Y-89918753D01*
X119045179Y-90015619D01*
X119293439Y-90065000D01*
X119546561Y-90065000D01*
X119794821Y-90015619D01*
X120028676Y-89918753D01*
X120239140Y-89778125D01*
X120351738Y-89665527D01*
X121214078Y-89665527D01*
X121267466Y-89894201D01*
X121497374Y-90000095D01*
X121743524Y-90059102D01*
X121996455Y-90068952D01*
X122246449Y-90029270D01*
X122483896Y-89941578D01*
X122572534Y-89894201D01*
X122625922Y-89665527D01*
X123714078Y-89665527D01*
X123767466Y-89894201D01*
X123997374Y-90000095D01*
X124243524Y-90059102D01*
X124496455Y-90068952D01*
X124746449Y-90029270D01*
X124983896Y-89941578D01*
X125072534Y-89894201D01*
X125125922Y-89665527D01*
X124420000Y-88959605D01*
X123714078Y-89665527D01*
X122625922Y-89665527D01*
X121920000Y-88959605D01*
X121214078Y-89665527D01*
X120351738Y-89665527D01*
X120418125Y-89599140D01*
X120558753Y-89388676D01*
X120655619Y-89154821D01*
X120668294Y-89091100D01*
X120670730Y-89106449D01*
X120758422Y-89343896D01*
X120805799Y-89432534D01*
X121034473Y-89485922D01*
X121740395Y-88780000D01*
X122099605Y-88780000D01*
X122805527Y-89485922D01*
X123034201Y-89432534D01*
X123140095Y-89202626D01*
X123167711Y-89087427D01*
X123170730Y-89106449D01*
X123258422Y-89343896D01*
X123305799Y-89432534D01*
X123534473Y-89485922D01*
X124240395Y-88780000D01*
X124599605Y-88780000D01*
X125305527Y-89485922D01*
X125534201Y-89432534D01*
X125640095Y-89202626D01*
X125699102Y-88956476D01*
X125708952Y-88703545D01*
X125669270Y-88453551D01*
X125581578Y-88216104D01*
X125534201Y-88127466D01*
X125305527Y-88074078D01*
X124599605Y-88780000D01*
X124240395Y-88780000D01*
X123534473Y-88074078D01*
X123305799Y-88127466D01*
X123199905Y-88357374D01*
X123172289Y-88472573D01*
X123169270Y-88453551D01*
X123081578Y-88216104D01*
X123034201Y-88127466D01*
X122805527Y-88074078D01*
X122099605Y-88780000D01*
X121740395Y-88780000D01*
X121034473Y-88074078D01*
X120805799Y-88127466D01*
X120699905Y-88357374D01*
X120670505Y-88480017D01*
X120655619Y-88405179D01*
X120558753Y-88171324D01*
X120418125Y-87960860D01*
X120351738Y-87894473D01*
X121214078Y-87894473D01*
X121920000Y-88600395D01*
X122625922Y-87894473D01*
X123714078Y-87894473D01*
X124420000Y-88600395D01*
X125125922Y-87894473D01*
X125072534Y-87665799D01*
X124842626Y-87559905D01*
X124596476Y-87500898D01*
X124343545Y-87491048D01*
X124093551Y-87530730D01*
X123856104Y-87618422D01*
X123767466Y-87665799D01*
X123714078Y-87894473D01*
X122625922Y-87894473D01*
X122572534Y-87665799D01*
X122342626Y-87559905D01*
X122096476Y-87500898D01*
X121843545Y-87491048D01*
X121593551Y-87530730D01*
X121356104Y-87618422D01*
X121267466Y-87665799D01*
X121214078Y-87894473D01*
X120351738Y-87894473D01*
X120239140Y-87781875D01*
X120028676Y-87641247D01*
X119794821Y-87544381D01*
X119546561Y-87495000D01*
X119293439Y-87495000D01*
X119045179Y-87544381D01*
X118811324Y-87641247D01*
X118600860Y-87781875D01*
X118421875Y-87960860D01*
X118281247Y-88171324D01*
X118184381Y-88405179D01*
X118135000Y-88653439D01*
X112420000Y-88653439D01*
X112420000Y-81118967D01*
X115485000Y-81118967D01*
X115485000Y-81441033D01*
X115547832Y-81756912D01*
X115671082Y-82054463D01*
X115850013Y-82322252D01*
X116077748Y-82549987D01*
X116345537Y-82728918D01*
X116643088Y-82852168D01*
X116958967Y-82915000D01*
X117281033Y-82915000D01*
X117596912Y-82852168D01*
X117894463Y-82728918D01*
X118162252Y-82549987D01*
X118389987Y-82322252D01*
X118568918Y-82054463D01*
X118692168Y-81756912D01*
X118755000Y-81441033D01*
X118755000Y-81118967D01*
X125085000Y-81118967D01*
X125085000Y-81441033D01*
X125147832Y-81756912D01*
X125271082Y-82054463D01*
X125450013Y-82322252D01*
X125677748Y-82549987D01*
X125945537Y-82728918D01*
X126243088Y-82852168D01*
X126558967Y-82915000D01*
X126881033Y-82915000D01*
X127196912Y-82852168D01*
X127494463Y-82728918D01*
X127762252Y-82549987D01*
X127989987Y-82322252D01*
X128168918Y-82054463D01*
X128292168Y-81756912D01*
X128355000Y-81441033D01*
X128355000Y-81118967D01*
X128292168Y-80803088D01*
X128168918Y-80505537D01*
X127989987Y-80237748D01*
X127762252Y-80010013D01*
X127494463Y-79831082D01*
X127196912Y-79707832D01*
X126881033Y-79645000D01*
X126558967Y-79645000D01*
X126243088Y-79707832D01*
X125945537Y-79831082D01*
X125677748Y-80010013D01*
X125450013Y-80237748D01*
X125271082Y-80505537D01*
X125147832Y-80803088D01*
X125085000Y-81118967D01*
X118755000Y-81118967D01*
X118692168Y-80803088D01*
X118568918Y-80505537D01*
X118389987Y-80237748D01*
X118162252Y-80010013D01*
X117894463Y-79831082D01*
X117596912Y-79707832D01*
X117281033Y-79645000D01*
X116958967Y-79645000D01*
X116643088Y-79707832D01*
X116345537Y-79831082D01*
X116077748Y-80010013D01*
X115850013Y-80237748D01*
X115671082Y-80505537D01*
X115547832Y-80803088D01*
X115485000Y-81118967D01*
X112420000Y-81118967D01*
X112420000Y-76860000D01*
X130785000Y-76860000D01*
X130785001Y-175870000D01*
%TD*%
M02*
