%TF.GenerationSoftware,KiCad,Pcbnew,(5.1.6-0)*%
%TF.CreationDate,2022-12-04T14:57:16-05:00*%
%TF.ProjectId,KickDrum,4b69636b-4472-4756-9d2e-6b696361645f,rev?*%
%TF.SameCoordinates,Original*%
%TF.FileFunction,Legend,Top*%
%TF.FilePolarity,Positive*%
%FSLAX46Y46*%
G04 Gerber Fmt 4.6, Leading zero omitted, Abs format (unit mm)*
G04 Created by KiCad (PCBNEW (5.1.6-0)) date 2022-12-04 14:57:16*
%MOMM*%
%LPD*%
G01*
G04 APERTURE LIST*
%ADD10C,0.300000*%
%ADD11C,0.120000*%
%ADD12C,0.150000*%
G04 APERTURE END LIST*
D10*
X115320714Y-160698571D02*
X115320714Y-159198571D01*
X116177857Y-160698571D02*
X115535000Y-159841428D01*
X116177857Y-159198571D02*
X115320714Y-160055714D01*
X116820714Y-160698571D02*
X116820714Y-159198571D01*
X118392142Y-160555714D02*
X118320714Y-160627142D01*
X118106428Y-160698571D01*
X117963571Y-160698571D01*
X117749285Y-160627142D01*
X117606428Y-160484285D01*
X117535000Y-160341428D01*
X117463571Y-160055714D01*
X117463571Y-159841428D01*
X117535000Y-159555714D01*
X117606428Y-159412857D01*
X117749285Y-159270000D01*
X117963571Y-159198571D01*
X118106428Y-159198571D01*
X118320714Y-159270000D01*
X118392142Y-159341428D01*
X119035000Y-160698571D02*
X119035000Y-159198571D01*
X119892142Y-160698571D02*
X119249285Y-159841428D01*
X119892142Y-159198571D02*
X119035000Y-160055714D01*
X121677857Y-160698571D02*
X121677857Y-159198571D01*
X122035000Y-159198571D01*
X122249285Y-159270000D01*
X122392142Y-159412857D01*
X122463571Y-159555714D01*
X122535000Y-159841428D01*
X122535000Y-160055714D01*
X122463571Y-160341428D01*
X122392142Y-160484285D01*
X122249285Y-160627142D01*
X122035000Y-160698571D01*
X121677857Y-160698571D01*
X124035000Y-160698571D02*
X123535000Y-159984285D01*
X123177857Y-160698571D02*
X123177857Y-159198571D01*
X123749285Y-159198571D01*
X123892142Y-159270000D01*
X123963571Y-159341428D01*
X124035000Y-159484285D01*
X124035000Y-159698571D01*
X123963571Y-159841428D01*
X123892142Y-159912857D01*
X123749285Y-159984285D01*
X123177857Y-159984285D01*
X124677857Y-159198571D02*
X124677857Y-160412857D01*
X124749285Y-160555714D01*
X124820714Y-160627142D01*
X124963571Y-160698571D01*
X125249285Y-160698571D01*
X125392142Y-160627142D01*
X125463571Y-160555714D01*
X125535000Y-160412857D01*
X125535000Y-159198571D01*
X126249285Y-160698571D02*
X126249285Y-159198571D01*
X126749285Y-160270000D01*
X127249285Y-159198571D01*
X127249285Y-160698571D01*
D11*
%TO.C,C8*%
X113888000Y-148588000D02*
X116068000Y-148588000D01*
X120488000Y-148588000D02*
X118308000Y-148588000D01*
X114648000Y-141988000D02*
X116068000Y-141988000D01*
X119728000Y-141988000D02*
X118308000Y-141988000D01*
X113888000Y-148588000D02*
X113888000Y-142748000D01*
X113888000Y-142748000D02*
X114648000Y-141988000D01*
X119728000Y-141988000D02*
X120488000Y-142748000D01*
X120488000Y-142748000D02*
X120488000Y-148588000D01*
%TO.C,C7*%
X129284000Y-141988000D02*
X127104000Y-141988000D01*
X122684000Y-141988000D02*
X124864000Y-141988000D01*
X128524000Y-148588000D02*
X127104000Y-148588000D01*
X123444000Y-148588000D02*
X124864000Y-148588000D01*
X129284000Y-141988000D02*
X129284000Y-147828000D01*
X129284000Y-147828000D02*
X128524000Y-148588000D01*
X123444000Y-148588000D02*
X122684000Y-147828000D01*
X122684000Y-147828000D02*
X122684000Y-141988000D01*
D12*
%TO.C,U1*%
X126370000Y-106510000D02*
X126345000Y-106510000D01*
X126370000Y-110660000D02*
X126255000Y-110660000D01*
X117470000Y-110660000D02*
X117585000Y-110660000D01*
X117470000Y-106510000D02*
X117585000Y-106510000D01*
X126370000Y-106510000D02*
X126370000Y-110660000D01*
X117470000Y-106510000D02*
X117470000Y-110660000D01*
X126345000Y-106510000D02*
X126345000Y-105135000D01*
D11*
%TO.C,R21*%
X115180000Y-169580000D02*
X115180000Y-170780000D01*
X113420000Y-170780000D02*
X113420000Y-169580000D01*
%TO.C,R20*%
X118500000Y-170780000D02*
X118500000Y-169580000D01*
X120260000Y-169580000D02*
X120260000Y-170780000D01*
%TO.C,R19*%
X125568000Y-114672000D02*
X124368000Y-114672000D01*
X124368000Y-112912000D02*
X125568000Y-112912000D01*
%TO.C,R18*%
X121494000Y-115452000D02*
X122694000Y-115452000D01*
X122694000Y-117212000D02*
X121494000Y-117212000D01*
%TO.C,R17*%
X127092000Y-133468000D02*
X125892000Y-133468000D01*
X125892000Y-131708000D02*
X127092000Y-131708000D01*
%TO.C,R16*%
X116704000Y-126908000D02*
X116704000Y-128108000D01*
X114944000Y-128108000D02*
X114944000Y-126908000D01*
%TO.C,R15*%
X116424000Y-115180000D02*
X115224000Y-115180000D01*
X115224000Y-113420000D02*
X116424000Y-113420000D01*
%TO.C,R14*%
X127136000Y-128108000D02*
X127136000Y-126908000D01*
X128896000Y-126908000D02*
X128896000Y-128108000D01*
%TO.C,R13*%
X115180000Y-107938000D02*
X115180000Y-109138000D01*
X113420000Y-109138000D02*
X113420000Y-107938000D01*
%TO.C,R12*%
X114672000Y-81014000D02*
X114672000Y-82214000D01*
X112912000Y-82214000D02*
X112912000Y-81014000D01*
%TO.C,R11*%
X115180000Y-94396000D02*
X115180000Y-95596000D01*
X113420000Y-95596000D02*
X113420000Y-94396000D01*
%TO.C,R10*%
X114716000Y-89036000D02*
X115916000Y-89036000D01*
X115916000Y-90796000D02*
X114716000Y-90796000D01*
%TO.C,R9*%
X116748000Y-76844000D02*
X117948000Y-76844000D01*
X117948000Y-78604000D02*
X116748000Y-78604000D01*
%TO.C,R8*%
X121040000Y-82214000D02*
X121040000Y-81014000D01*
X122800000Y-81014000D02*
X122800000Y-82214000D01*
%TO.C,R7*%
X122564000Y-101184000D02*
X122564000Y-99984000D01*
X124324000Y-99984000D02*
X124324000Y-101184000D01*
%TO.C,R6*%
X125384000Y-85480000D02*
X126584000Y-85480000D01*
X126584000Y-87240000D02*
X125384000Y-87240000D01*
%TO.C,R5*%
X125384000Y-83448000D02*
X126584000Y-83448000D01*
X126584000Y-85208000D02*
X125384000Y-85208000D01*
%TO.C,R4*%
X128660000Y-100502000D02*
X128660000Y-99302000D01*
X130420000Y-99302000D02*
X130420000Y-100502000D01*
%TO.C,R3*%
X128660000Y-106090000D02*
X128660000Y-104890000D01*
X130420000Y-104890000D02*
X130420000Y-106090000D01*
%TO.C,R2*%
X128660000Y-111344000D02*
X128660000Y-110144000D01*
X130420000Y-110144000D02*
X130420000Y-111344000D01*
%TO.C,R1*%
X122310000Y-170860000D02*
X122310000Y-169660000D01*
X124070000Y-169660000D02*
X124070000Y-170860000D01*
%TO.C,J2*%
X115510000Y-152594000D02*
X115510000Y-157794000D01*
X125730000Y-152594000D02*
X115510000Y-152594000D01*
X128330000Y-157794000D02*
X115510000Y-157794000D01*
X125730000Y-152594000D02*
X125730000Y-155194000D01*
X125730000Y-155194000D02*
X128330000Y-155194000D01*
X128330000Y-155194000D02*
X128330000Y-157794000D01*
X127000000Y-152594000D02*
X128330000Y-152594000D01*
X128330000Y-152594000D02*
X128330000Y-153924000D01*
%TO.C,D6*%
X123266000Y-121196000D02*
X123266000Y-119596000D01*
X123266000Y-119596000D02*
X120666000Y-119596000D01*
X123266000Y-121196000D02*
X120666000Y-121196000D01*
%TO.C,D5*%
X120066000Y-122136000D02*
X120066000Y-123736000D01*
X120066000Y-123736000D02*
X122666000Y-123736000D01*
X120066000Y-122136000D02*
X122666000Y-122136000D01*
%TO.C,D4*%
X118148000Y-93904000D02*
X116548000Y-93904000D01*
X116548000Y-93904000D02*
X116548000Y-96504000D01*
X118148000Y-93904000D02*
X118148000Y-96504000D01*
%TO.C,D3*%
X119596000Y-97104000D02*
X121196000Y-97104000D01*
X121196000Y-97104000D02*
X121196000Y-94504000D01*
X119596000Y-97104000D02*
X119596000Y-94504000D01*
%TO.C,D2*%
X123025000Y-97612000D02*
X124625000Y-97612000D01*
X124625000Y-97612000D02*
X124625000Y-95012000D01*
X123025000Y-97612000D02*
X123025000Y-95012000D01*
%TO.C,D1*%
X125565000Y-171780000D02*
X127165000Y-171780000D01*
X127165000Y-171780000D02*
X127165000Y-169180000D01*
X125565000Y-171780000D02*
X125565000Y-169180000D01*
%TO.C,C6*%
X117848000Y-131738000D02*
X116848000Y-131738000D01*
X116848000Y-133438000D02*
X117848000Y-133438000D01*
%TO.C,C5*%
X115150000Y-102100000D02*
X115150000Y-101100000D01*
X113450000Y-101100000D02*
X113450000Y-102100000D01*
%TO.C,C4*%
X115816000Y-86018000D02*
X114816000Y-86018000D01*
X114816000Y-87718000D02*
X115816000Y-87718000D01*
%TO.C,C3*%
X119546000Y-100084000D02*
X119546000Y-101084000D01*
X121246000Y-101084000D02*
X121246000Y-100084000D01*
%TO.C,C2*%
X127770000Y-96354000D02*
X128770000Y-96354000D01*
X128770000Y-94654000D02*
X127770000Y-94654000D01*
%TO.C,C1*%
X128690000Y-169660000D02*
X128690000Y-170660000D01*
X130390000Y-170660000D02*
X130390000Y-169660000D01*
%TO.C,C8*%
D12*
X112985142Y-145454666D02*
X113032761Y-145502285D01*
X113080380Y-145645142D01*
X113080380Y-145740380D01*
X113032761Y-145883238D01*
X112937523Y-145978476D01*
X112842285Y-146026095D01*
X112651809Y-146073714D01*
X112508952Y-146073714D01*
X112318476Y-146026095D01*
X112223238Y-145978476D01*
X112128000Y-145883238D01*
X112080380Y-145740380D01*
X112080380Y-145645142D01*
X112128000Y-145502285D01*
X112175619Y-145454666D01*
X112508952Y-144883238D02*
X112461333Y-144978476D01*
X112413714Y-145026095D01*
X112318476Y-145073714D01*
X112270857Y-145073714D01*
X112175619Y-145026095D01*
X112128000Y-144978476D01*
X112080380Y-144883238D01*
X112080380Y-144692761D01*
X112128000Y-144597523D01*
X112175619Y-144549904D01*
X112270857Y-144502285D01*
X112318476Y-144502285D01*
X112413714Y-144549904D01*
X112461333Y-144597523D01*
X112508952Y-144692761D01*
X112508952Y-144883238D01*
X112556571Y-144978476D01*
X112604190Y-145026095D01*
X112699428Y-145073714D01*
X112889904Y-145073714D01*
X112985142Y-145026095D01*
X113032761Y-144978476D01*
X113080380Y-144883238D01*
X113080380Y-144692761D01*
X113032761Y-144597523D01*
X112985142Y-144549904D01*
X112889904Y-144502285D01*
X112699428Y-144502285D01*
X112604190Y-144549904D01*
X112556571Y-144597523D01*
X112508952Y-144692761D01*
X113482380Y-150344047D02*
X113482380Y-150915476D01*
X113482380Y-150629761D02*
X112482380Y-150629761D01*
X112625238Y-150725000D01*
X112720476Y-150820238D01*
X112768095Y-150915476D01*
X112482380Y-149725000D02*
X112482380Y-149629761D01*
X112530000Y-149534523D01*
X112577619Y-149486904D01*
X112672857Y-149439285D01*
X112863333Y-149391666D01*
X113101428Y-149391666D01*
X113291904Y-149439285D01*
X113387142Y-149486904D01*
X113434761Y-149534523D01*
X113482380Y-149629761D01*
X113482380Y-149725000D01*
X113434761Y-149820238D01*
X113387142Y-149867857D01*
X113291904Y-149915476D01*
X113101428Y-149963095D01*
X112863333Y-149963095D01*
X112672857Y-149915476D01*
X112577619Y-149867857D01*
X112530000Y-149820238D01*
X112482380Y-149725000D01*
X112482380Y-148772619D02*
X112482380Y-148677380D01*
X112530000Y-148582142D01*
X112577619Y-148534523D01*
X112672857Y-148486904D01*
X112863333Y-148439285D01*
X113101428Y-148439285D01*
X113291904Y-148486904D01*
X113387142Y-148534523D01*
X113434761Y-148582142D01*
X113482380Y-148677380D01*
X113482380Y-148772619D01*
X113434761Y-148867857D01*
X113387142Y-148915476D01*
X113291904Y-148963095D01*
X113101428Y-149010714D01*
X112863333Y-149010714D01*
X112672857Y-148963095D01*
X112577619Y-148915476D01*
X112530000Y-148867857D01*
X112482380Y-148772619D01*
X112815714Y-147582142D02*
X113482380Y-147582142D01*
X112815714Y-148010714D02*
X113339523Y-148010714D01*
X113434761Y-147963095D01*
X113482380Y-147867857D01*
X113482380Y-147725000D01*
X113434761Y-147629761D01*
X113387142Y-147582142D01*
X114299428Y-141388952D02*
X114299428Y-140627047D01*
X114680380Y-141008000D02*
X113918476Y-141008000D01*
%TO.C,C7*%
X130901142Y-145454666D02*
X130948761Y-145502285D01*
X130996380Y-145645142D01*
X130996380Y-145740380D01*
X130948761Y-145883238D01*
X130853523Y-145978476D01*
X130758285Y-146026095D01*
X130567809Y-146073714D01*
X130424952Y-146073714D01*
X130234476Y-146026095D01*
X130139238Y-145978476D01*
X130044000Y-145883238D01*
X129996380Y-145740380D01*
X129996380Y-145645142D01*
X130044000Y-145502285D01*
X130091619Y-145454666D01*
X129996380Y-145121333D02*
X129996380Y-144454666D01*
X130996380Y-144883238D01*
X130627380Y-150344047D02*
X130627380Y-150915476D01*
X130627380Y-150629761D02*
X129627380Y-150629761D01*
X129770238Y-150725000D01*
X129865476Y-150820238D01*
X129913095Y-150915476D01*
X129627380Y-149725000D02*
X129627380Y-149629761D01*
X129675000Y-149534523D01*
X129722619Y-149486904D01*
X129817857Y-149439285D01*
X130008333Y-149391666D01*
X130246428Y-149391666D01*
X130436904Y-149439285D01*
X130532142Y-149486904D01*
X130579761Y-149534523D01*
X130627380Y-149629761D01*
X130627380Y-149725000D01*
X130579761Y-149820238D01*
X130532142Y-149867857D01*
X130436904Y-149915476D01*
X130246428Y-149963095D01*
X130008333Y-149963095D01*
X129817857Y-149915476D01*
X129722619Y-149867857D01*
X129675000Y-149820238D01*
X129627380Y-149725000D01*
X129627380Y-148772619D02*
X129627380Y-148677380D01*
X129675000Y-148582142D01*
X129722619Y-148534523D01*
X129817857Y-148486904D01*
X130008333Y-148439285D01*
X130246428Y-148439285D01*
X130436904Y-148486904D01*
X130532142Y-148534523D01*
X130579761Y-148582142D01*
X130627380Y-148677380D01*
X130627380Y-148772619D01*
X130579761Y-148867857D01*
X130532142Y-148915476D01*
X130436904Y-148963095D01*
X130246428Y-149010714D01*
X130008333Y-149010714D01*
X129817857Y-148963095D01*
X129722619Y-148915476D01*
X129675000Y-148867857D01*
X129627380Y-148772619D01*
X129960714Y-147582142D02*
X130627380Y-147582142D01*
X129960714Y-148010714D02*
X130484523Y-148010714D01*
X130579761Y-147963095D01*
X130627380Y-147867857D01*
X130627380Y-147725000D01*
X130579761Y-147629761D01*
X130532142Y-147582142D01*
X129015428Y-149948952D02*
X129015428Y-149187047D01*
X129396380Y-149568000D02*
X128634476Y-149568000D01*
%TO.C,U1*%
X121372380Y-109346904D02*
X122181904Y-109346904D01*
X122277142Y-109299285D01*
X122324761Y-109251666D01*
X122372380Y-109156428D01*
X122372380Y-108965952D01*
X122324761Y-108870714D01*
X122277142Y-108823095D01*
X122181904Y-108775476D01*
X121372380Y-108775476D01*
X122372380Y-107775476D02*
X122372380Y-108346904D01*
X122372380Y-108061190D02*
X121372380Y-108061190D01*
X121515238Y-108156428D01*
X121610476Y-108251666D01*
X121658095Y-108346904D01*
X119800952Y-103592380D02*
X120372380Y-103592380D01*
X120086666Y-104592380D02*
X120086666Y-103592380D01*
X121181904Y-104592380D02*
X120705714Y-104592380D01*
X120705714Y-103592380D01*
X121705714Y-103592380D02*
X121800952Y-103592380D01*
X121896190Y-103640000D01*
X121943809Y-103687619D01*
X121991428Y-103782857D01*
X122039047Y-103973333D01*
X122039047Y-104211428D01*
X121991428Y-104401904D01*
X121943809Y-104497142D01*
X121896190Y-104544761D01*
X121800952Y-104592380D01*
X121705714Y-104592380D01*
X121610476Y-104544761D01*
X121562857Y-104497142D01*
X121515238Y-104401904D01*
X121467619Y-104211428D01*
X121467619Y-103973333D01*
X121515238Y-103782857D01*
X121562857Y-103687619D01*
X121610476Y-103640000D01*
X121705714Y-103592380D01*
X122372380Y-103592380D02*
X123039047Y-103592380D01*
X122610476Y-104592380D01*
X123848571Y-103925714D02*
X123848571Y-104592380D01*
X123610476Y-103544761D02*
X123372380Y-104259047D01*
X123991428Y-104259047D01*
%TO.C,R21*%
X113052380Y-170822857D02*
X112576190Y-171156190D01*
X113052380Y-171394285D02*
X112052380Y-171394285D01*
X112052380Y-171013333D01*
X112100000Y-170918095D01*
X112147619Y-170870476D01*
X112242857Y-170822857D01*
X112385714Y-170822857D01*
X112480952Y-170870476D01*
X112528571Y-170918095D01*
X112576190Y-171013333D01*
X112576190Y-171394285D01*
X112147619Y-170441904D02*
X112100000Y-170394285D01*
X112052380Y-170299047D01*
X112052380Y-170060952D01*
X112100000Y-169965714D01*
X112147619Y-169918095D01*
X112242857Y-169870476D01*
X112338095Y-169870476D01*
X112480952Y-169918095D01*
X113052380Y-170489523D01*
X113052380Y-169870476D01*
X113052380Y-168918095D02*
X113052380Y-169489523D01*
X113052380Y-169203809D02*
X112052380Y-169203809D01*
X112195238Y-169299047D01*
X112290476Y-169394285D01*
X112338095Y-169489523D01*
X114752380Y-166266666D02*
X114752380Y-166838095D01*
X114752380Y-166552380D02*
X113752380Y-166552380D01*
X113895238Y-166647619D01*
X113990476Y-166742857D01*
X114038095Y-166838095D01*
X113752380Y-165647619D02*
X113752380Y-165552380D01*
X113800000Y-165457142D01*
X113847619Y-165409523D01*
X113942857Y-165361904D01*
X114133333Y-165314285D01*
X114371428Y-165314285D01*
X114561904Y-165361904D01*
X114657142Y-165409523D01*
X114704761Y-165457142D01*
X114752380Y-165552380D01*
X114752380Y-165647619D01*
X114704761Y-165742857D01*
X114657142Y-165790476D01*
X114561904Y-165838095D01*
X114371428Y-165885714D01*
X114133333Y-165885714D01*
X113942857Y-165838095D01*
X113847619Y-165790476D01*
X113800000Y-165742857D01*
X113752380Y-165647619D01*
X113752380Y-164695238D02*
X113752380Y-164600000D01*
X113800000Y-164504761D01*
X113847619Y-164457142D01*
X113942857Y-164409523D01*
X114133333Y-164361904D01*
X114371428Y-164361904D01*
X114561904Y-164409523D01*
X114657142Y-164457142D01*
X114704761Y-164504761D01*
X114752380Y-164600000D01*
X114752380Y-164695238D01*
X114704761Y-164790476D01*
X114657142Y-164838095D01*
X114561904Y-164885714D01*
X114371428Y-164933333D01*
X114133333Y-164933333D01*
X113942857Y-164885714D01*
X113847619Y-164838095D01*
X113800000Y-164790476D01*
X113752380Y-164695238D01*
X114752380Y-163933333D02*
X113752380Y-163933333D01*
X114752380Y-163361904D02*
X114180952Y-163790476D01*
X113752380Y-163361904D02*
X114323809Y-163933333D01*
%TO.C,R20*%
X119832380Y-175267857D02*
X119356190Y-175601190D01*
X119832380Y-175839285D02*
X118832380Y-175839285D01*
X118832380Y-175458333D01*
X118880000Y-175363095D01*
X118927619Y-175315476D01*
X119022857Y-175267857D01*
X119165714Y-175267857D01*
X119260952Y-175315476D01*
X119308571Y-175363095D01*
X119356190Y-175458333D01*
X119356190Y-175839285D01*
X118927619Y-174886904D02*
X118880000Y-174839285D01*
X118832380Y-174744047D01*
X118832380Y-174505952D01*
X118880000Y-174410714D01*
X118927619Y-174363095D01*
X119022857Y-174315476D01*
X119118095Y-174315476D01*
X119260952Y-174363095D01*
X119832380Y-174934523D01*
X119832380Y-174315476D01*
X118832380Y-173696428D02*
X118832380Y-173601190D01*
X118880000Y-173505952D01*
X118927619Y-173458333D01*
X119022857Y-173410714D01*
X119213333Y-173363095D01*
X119451428Y-173363095D01*
X119641904Y-173410714D01*
X119737142Y-173458333D01*
X119784761Y-173505952D01*
X119832380Y-173601190D01*
X119832380Y-173696428D01*
X119784761Y-173791666D01*
X119737142Y-173839285D01*
X119641904Y-173886904D01*
X119451428Y-173934523D01*
X119213333Y-173934523D01*
X119022857Y-173886904D01*
X118927619Y-173839285D01*
X118880000Y-173791666D01*
X118832380Y-173696428D01*
X119832380Y-165949285D02*
X119832380Y-166520714D01*
X119832380Y-166235000D02*
X118832380Y-166235000D01*
X118975238Y-166330238D01*
X119070476Y-166425476D01*
X119118095Y-166520714D01*
X119832380Y-165520714D02*
X118832380Y-165520714D01*
X119832380Y-164949285D02*
X119260952Y-165377857D01*
X118832380Y-164949285D02*
X119403809Y-165520714D01*
%TO.C,R19*%
X126992142Y-116022380D02*
X126658809Y-115546190D01*
X126420714Y-116022380D02*
X126420714Y-115022380D01*
X126801666Y-115022380D01*
X126896904Y-115070000D01*
X126944523Y-115117619D01*
X126992142Y-115212857D01*
X126992142Y-115355714D01*
X126944523Y-115450952D01*
X126896904Y-115498571D01*
X126801666Y-115546190D01*
X126420714Y-115546190D01*
X127944523Y-116022380D02*
X127373095Y-116022380D01*
X127658809Y-116022380D02*
X127658809Y-115022380D01*
X127563571Y-115165238D01*
X127468333Y-115260476D01*
X127373095Y-115308095D01*
X128420714Y-116022380D02*
X128611190Y-116022380D01*
X128706428Y-115974761D01*
X128754047Y-115927142D01*
X128849285Y-115784285D01*
X128896904Y-115593809D01*
X128896904Y-115212857D01*
X128849285Y-115117619D01*
X128801666Y-115070000D01*
X128706428Y-115022380D01*
X128515952Y-115022380D01*
X128420714Y-115070000D01*
X128373095Y-115117619D01*
X128325476Y-115212857D01*
X128325476Y-115450952D01*
X128373095Y-115546190D01*
X128420714Y-115593809D01*
X128515952Y-115641428D01*
X128706428Y-115641428D01*
X128801666Y-115593809D01*
X128849285Y-115546190D01*
X128896904Y-115450952D01*
X124134666Y-114994380D02*
X124753714Y-114994380D01*
X124420380Y-115375333D01*
X124563238Y-115375333D01*
X124658476Y-115422952D01*
X124706095Y-115470571D01*
X124753714Y-115565809D01*
X124753714Y-115803904D01*
X124706095Y-115899142D01*
X124658476Y-115946761D01*
X124563238Y-115994380D01*
X124277523Y-115994380D01*
X124182285Y-115946761D01*
X124134666Y-115899142D01*
X125182285Y-115994380D02*
X125182285Y-114994380D01*
X125753714Y-115994380D02*
X125325142Y-115422952D01*
X125753714Y-114994380D02*
X125182285Y-115565809D01*
%TO.C,R18*%
X121451142Y-118484380D02*
X121117809Y-118008190D01*
X120879714Y-118484380D02*
X120879714Y-117484380D01*
X121260666Y-117484380D01*
X121355904Y-117532000D01*
X121403523Y-117579619D01*
X121451142Y-117674857D01*
X121451142Y-117817714D01*
X121403523Y-117912952D01*
X121355904Y-117960571D01*
X121260666Y-118008190D01*
X120879714Y-118008190D01*
X122403523Y-118484380D02*
X121832095Y-118484380D01*
X122117809Y-118484380D02*
X122117809Y-117484380D01*
X122022571Y-117627238D01*
X121927333Y-117722476D01*
X121832095Y-117770095D01*
X122974952Y-117912952D02*
X122879714Y-117865333D01*
X122832095Y-117817714D01*
X122784476Y-117722476D01*
X122784476Y-117674857D01*
X122832095Y-117579619D01*
X122879714Y-117532000D01*
X122974952Y-117484380D01*
X123165428Y-117484380D01*
X123260666Y-117532000D01*
X123308285Y-117579619D01*
X123355904Y-117674857D01*
X123355904Y-117722476D01*
X123308285Y-117817714D01*
X123260666Y-117865333D01*
X123165428Y-117912952D01*
X122974952Y-117912952D01*
X122879714Y-117960571D01*
X122832095Y-118008190D01*
X122784476Y-118103428D01*
X122784476Y-118293904D01*
X122832095Y-118389142D01*
X122879714Y-118436761D01*
X122974952Y-118484380D01*
X123165428Y-118484380D01*
X123260666Y-118436761D01*
X123308285Y-118389142D01*
X123355904Y-118293904D01*
X123355904Y-118103428D01*
X123308285Y-118008190D01*
X123260666Y-117960571D01*
X123165428Y-117912952D01*
X121879714Y-115034380D02*
X121308285Y-115034380D01*
X121594000Y-115034380D02*
X121594000Y-114034380D01*
X121498761Y-114177238D01*
X121403523Y-114272476D01*
X121308285Y-114320095D01*
X122308285Y-115034380D02*
X122308285Y-114034380D01*
X122879714Y-115034380D02*
X122451142Y-114462952D01*
X122879714Y-114034380D02*
X122308285Y-114605809D01*
%TO.C,R17*%
X125849142Y-131340380D02*
X125515809Y-130864190D01*
X125277714Y-131340380D02*
X125277714Y-130340380D01*
X125658666Y-130340380D01*
X125753904Y-130388000D01*
X125801523Y-130435619D01*
X125849142Y-130530857D01*
X125849142Y-130673714D01*
X125801523Y-130768952D01*
X125753904Y-130816571D01*
X125658666Y-130864190D01*
X125277714Y-130864190D01*
X126801523Y-131340380D02*
X126230095Y-131340380D01*
X126515809Y-131340380D02*
X126515809Y-130340380D01*
X126420571Y-130483238D01*
X126325333Y-130578476D01*
X126230095Y-130626095D01*
X127134857Y-130340380D02*
X127801523Y-130340380D01*
X127372952Y-131340380D01*
X125325333Y-134790380D02*
X124753904Y-134790380D01*
X125039619Y-134790380D02*
X125039619Y-133790380D01*
X124944380Y-133933238D01*
X124849142Y-134028476D01*
X124753904Y-134076095D01*
X125944380Y-133790380D02*
X126039619Y-133790380D01*
X126134857Y-133838000D01*
X126182476Y-133885619D01*
X126230095Y-133980857D01*
X126277714Y-134171333D01*
X126277714Y-134409428D01*
X126230095Y-134599904D01*
X126182476Y-134695142D01*
X126134857Y-134742761D01*
X126039619Y-134790380D01*
X125944380Y-134790380D01*
X125849142Y-134742761D01*
X125801523Y-134695142D01*
X125753904Y-134599904D01*
X125706285Y-134409428D01*
X125706285Y-134171333D01*
X125753904Y-133980857D01*
X125801523Y-133885619D01*
X125849142Y-133838000D01*
X125944380Y-133790380D01*
X126896761Y-133790380D02*
X126992000Y-133790380D01*
X127087238Y-133838000D01*
X127134857Y-133885619D01*
X127182476Y-133980857D01*
X127230095Y-134171333D01*
X127230095Y-134409428D01*
X127182476Y-134599904D01*
X127134857Y-134695142D01*
X127087238Y-134742761D01*
X126992000Y-134790380D01*
X126896761Y-134790380D01*
X126801523Y-134742761D01*
X126753904Y-134695142D01*
X126706285Y-134599904D01*
X126658666Y-134409428D01*
X126658666Y-134171333D01*
X126706285Y-133980857D01*
X126753904Y-133885619D01*
X126801523Y-133838000D01*
X126896761Y-133790380D01*
X127658666Y-134790380D02*
X127658666Y-133790380D01*
X128230095Y-134790380D02*
X127801523Y-134218952D01*
X128230095Y-133790380D02*
X127658666Y-134361809D01*
%TO.C,R16*%
X114576380Y-128150857D02*
X114100190Y-128484190D01*
X114576380Y-128722285D02*
X113576380Y-128722285D01*
X113576380Y-128341333D01*
X113624000Y-128246095D01*
X113671619Y-128198476D01*
X113766857Y-128150857D01*
X113909714Y-128150857D01*
X114004952Y-128198476D01*
X114052571Y-128246095D01*
X114100190Y-128341333D01*
X114100190Y-128722285D01*
X114576380Y-127198476D02*
X114576380Y-127769904D01*
X114576380Y-127484190D02*
X113576380Y-127484190D01*
X113719238Y-127579428D01*
X113814476Y-127674666D01*
X113862095Y-127769904D01*
X113576380Y-126341333D02*
X113576380Y-126531809D01*
X113624000Y-126627047D01*
X113671619Y-126674666D01*
X113814476Y-126769904D01*
X114004952Y-126817523D01*
X114385904Y-126817523D01*
X114481142Y-126769904D01*
X114528761Y-126722285D01*
X114576380Y-126627047D01*
X114576380Y-126436571D01*
X114528761Y-126341333D01*
X114481142Y-126293714D01*
X114385904Y-126246095D01*
X114147809Y-126246095D01*
X114052571Y-126293714D01*
X114004952Y-126341333D01*
X113957333Y-126436571D01*
X113957333Y-126627047D01*
X114004952Y-126722285D01*
X114052571Y-126769904D01*
X114147809Y-126817523D01*
X117121619Y-129246095D02*
X117074000Y-129198476D01*
X117026380Y-129103238D01*
X117026380Y-128865142D01*
X117074000Y-128769904D01*
X117121619Y-128722285D01*
X117216857Y-128674666D01*
X117312095Y-128674666D01*
X117454952Y-128722285D01*
X118026380Y-129293714D01*
X118026380Y-128674666D01*
X117121619Y-128293714D02*
X117074000Y-128246095D01*
X117026380Y-128150857D01*
X117026380Y-127912761D01*
X117074000Y-127817523D01*
X117121619Y-127769904D01*
X117216857Y-127722285D01*
X117312095Y-127722285D01*
X117454952Y-127769904D01*
X118026380Y-128341333D01*
X118026380Y-127722285D01*
X117026380Y-127103238D02*
X117026380Y-127008000D01*
X117074000Y-126912761D01*
X117121619Y-126865142D01*
X117216857Y-126817523D01*
X117407333Y-126769904D01*
X117645428Y-126769904D01*
X117835904Y-126817523D01*
X117931142Y-126865142D01*
X117978761Y-126912761D01*
X118026380Y-127008000D01*
X118026380Y-127103238D01*
X117978761Y-127198476D01*
X117931142Y-127246095D01*
X117835904Y-127293714D01*
X117645428Y-127341333D01*
X117407333Y-127341333D01*
X117216857Y-127293714D01*
X117121619Y-127246095D01*
X117074000Y-127198476D01*
X117026380Y-127103238D01*
X118026380Y-125769904D02*
X117550190Y-126103238D01*
X118026380Y-126341333D02*
X117026380Y-126341333D01*
X117026380Y-125960380D01*
X117074000Y-125865142D01*
X117121619Y-125817523D01*
X117216857Y-125769904D01*
X117359714Y-125769904D01*
X117454952Y-125817523D01*
X117502571Y-125865142D01*
X117550190Y-125960380D01*
X117550190Y-126341333D01*
%TO.C,R15*%
X115181142Y-113052380D02*
X114847809Y-112576190D01*
X114609714Y-113052380D02*
X114609714Y-112052380D01*
X114990666Y-112052380D01*
X115085904Y-112100000D01*
X115133523Y-112147619D01*
X115181142Y-112242857D01*
X115181142Y-112385714D01*
X115133523Y-112480952D01*
X115085904Y-112528571D01*
X114990666Y-112576190D01*
X114609714Y-112576190D01*
X116133523Y-113052380D02*
X115562095Y-113052380D01*
X115847809Y-113052380D02*
X115847809Y-112052380D01*
X115752571Y-112195238D01*
X115657333Y-112290476D01*
X115562095Y-112338095D01*
X117038285Y-112052380D02*
X116562095Y-112052380D01*
X116514476Y-112528571D01*
X116562095Y-112480952D01*
X116657333Y-112433333D01*
X116895428Y-112433333D01*
X116990666Y-112480952D01*
X117038285Y-112528571D01*
X117085904Y-112623809D01*
X117085904Y-112861904D01*
X117038285Y-112957142D01*
X116990666Y-113004761D01*
X116895428Y-113052380D01*
X116657333Y-113052380D01*
X116562095Y-113004761D01*
X116514476Y-112957142D01*
X115133523Y-116502380D02*
X114562095Y-116502380D01*
X114847809Y-116502380D02*
X114847809Y-115502380D01*
X114752571Y-115645238D01*
X114657333Y-115740476D01*
X114562095Y-115788095D01*
X115752571Y-115502380D02*
X115847809Y-115502380D01*
X115943047Y-115550000D01*
X115990666Y-115597619D01*
X116038285Y-115692857D01*
X116085904Y-115883333D01*
X116085904Y-116121428D01*
X116038285Y-116311904D01*
X115990666Y-116407142D01*
X115943047Y-116454761D01*
X115847809Y-116502380D01*
X115752571Y-116502380D01*
X115657333Y-116454761D01*
X115609714Y-116407142D01*
X115562095Y-116311904D01*
X115514476Y-116121428D01*
X115514476Y-115883333D01*
X115562095Y-115692857D01*
X115609714Y-115597619D01*
X115657333Y-115550000D01*
X115752571Y-115502380D01*
X116514476Y-116502380D02*
X116514476Y-115502380D01*
X117085904Y-116502380D02*
X116657333Y-115930952D01*
X117085904Y-115502380D02*
X116514476Y-116073809D01*
%TO.C,R14*%
X130168380Y-128150857D02*
X129692190Y-128484190D01*
X130168380Y-128722285D02*
X129168380Y-128722285D01*
X129168380Y-128341333D01*
X129216000Y-128246095D01*
X129263619Y-128198476D01*
X129358857Y-128150857D01*
X129501714Y-128150857D01*
X129596952Y-128198476D01*
X129644571Y-128246095D01*
X129692190Y-128341333D01*
X129692190Y-128722285D01*
X130168380Y-127198476D02*
X130168380Y-127769904D01*
X130168380Y-127484190D02*
X129168380Y-127484190D01*
X129311238Y-127579428D01*
X129406476Y-127674666D01*
X129454095Y-127769904D01*
X129501714Y-126341333D02*
X130168380Y-126341333D01*
X129120761Y-126579428D02*
X129835047Y-126817523D01*
X129835047Y-126198476D01*
X126718380Y-127722285D02*
X126718380Y-128293714D01*
X126718380Y-128008000D02*
X125718380Y-128008000D01*
X125861238Y-128103238D01*
X125956476Y-128198476D01*
X126004095Y-128293714D01*
X126718380Y-127293714D02*
X125718380Y-127293714D01*
X126718380Y-126722285D02*
X126146952Y-127150857D01*
X125718380Y-126722285D02*
X126289809Y-127293714D01*
%TO.C,R13*%
X113052380Y-109180857D02*
X112576190Y-109514190D01*
X113052380Y-109752285D02*
X112052380Y-109752285D01*
X112052380Y-109371333D01*
X112100000Y-109276095D01*
X112147619Y-109228476D01*
X112242857Y-109180857D01*
X112385714Y-109180857D01*
X112480952Y-109228476D01*
X112528571Y-109276095D01*
X112576190Y-109371333D01*
X112576190Y-109752285D01*
X113052380Y-108228476D02*
X113052380Y-108799904D01*
X113052380Y-108514190D02*
X112052380Y-108514190D01*
X112195238Y-108609428D01*
X112290476Y-108704666D01*
X112338095Y-108799904D01*
X112052380Y-107895142D02*
X112052380Y-107276095D01*
X112433333Y-107609428D01*
X112433333Y-107466571D01*
X112480952Y-107371333D01*
X112528571Y-107323714D01*
X112623809Y-107276095D01*
X112861904Y-107276095D01*
X112957142Y-107323714D01*
X113004761Y-107371333D01*
X113052380Y-107466571D01*
X113052380Y-107752285D01*
X113004761Y-107847523D01*
X112957142Y-107895142D01*
X115835714Y-109323714D02*
X116502380Y-109323714D01*
X115454761Y-109561809D02*
X116169047Y-109799904D01*
X116169047Y-109180857D01*
X115502380Y-108895142D02*
X115502380Y-108228476D01*
X116502380Y-108657047D01*
X116502380Y-107847523D02*
X115502380Y-107847523D01*
X116502380Y-107276095D02*
X115930952Y-107704666D01*
X115502380Y-107276095D02*
X116073809Y-107847523D01*
%TO.C,R12*%
X113482380Y-78112857D02*
X113006190Y-78446190D01*
X113482380Y-78684285D02*
X112482380Y-78684285D01*
X112482380Y-78303333D01*
X112530000Y-78208095D01*
X112577619Y-78160476D01*
X112672857Y-78112857D01*
X112815714Y-78112857D01*
X112910952Y-78160476D01*
X112958571Y-78208095D01*
X113006190Y-78303333D01*
X113006190Y-78684285D01*
X113482380Y-77160476D02*
X113482380Y-77731904D01*
X113482380Y-77446190D02*
X112482380Y-77446190D01*
X112625238Y-77541428D01*
X112720476Y-77636666D01*
X112768095Y-77731904D01*
X112577619Y-76779523D02*
X112530000Y-76731904D01*
X112482380Y-76636666D01*
X112482380Y-76398571D01*
X112530000Y-76303333D01*
X112577619Y-76255714D01*
X112672857Y-76208095D01*
X112768095Y-76208095D01*
X112910952Y-76255714D01*
X113482380Y-76827142D01*
X113482380Y-76208095D01*
X115327714Y-82875904D02*
X115994380Y-82875904D01*
X114946761Y-83114000D02*
X115661047Y-83352095D01*
X115661047Y-82733047D01*
X114994380Y-82447333D02*
X114994380Y-81780666D01*
X115994380Y-82209238D01*
X114994380Y-81209238D02*
X114994380Y-81114000D01*
X115042000Y-81018761D01*
X115089619Y-80971142D01*
X115184857Y-80923523D01*
X115375333Y-80875904D01*
X115613428Y-80875904D01*
X115803904Y-80923523D01*
X115899142Y-80971142D01*
X115946761Y-81018761D01*
X115994380Y-81114000D01*
X115994380Y-81209238D01*
X115946761Y-81304476D01*
X115899142Y-81352095D01*
X115803904Y-81399714D01*
X115613428Y-81447333D01*
X115375333Y-81447333D01*
X115184857Y-81399714D01*
X115089619Y-81352095D01*
X115042000Y-81304476D01*
X114994380Y-81209238D01*
X115994380Y-80447333D02*
X114994380Y-80447333D01*
X115994380Y-79875904D02*
X115422952Y-80304476D01*
X114994380Y-79875904D02*
X115565809Y-80447333D01*
%TO.C,R11*%
X113052380Y-95638857D02*
X112576190Y-95972190D01*
X113052380Y-96210285D02*
X112052380Y-96210285D01*
X112052380Y-95829333D01*
X112100000Y-95734095D01*
X112147619Y-95686476D01*
X112242857Y-95638857D01*
X112385714Y-95638857D01*
X112480952Y-95686476D01*
X112528571Y-95734095D01*
X112576190Y-95829333D01*
X112576190Y-96210285D01*
X113052380Y-94686476D02*
X113052380Y-95257904D01*
X113052380Y-94972190D02*
X112052380Y-94972190D01*
X112195238Y-95067428D01*
X112290476Y-95162666D01*
X112338095Y-95257904D01*
X113052380Y-93734095D02*
X113052380Y-94305523D01*
X113052380Y-94019809D02*
X112052380Y-94019809D01*
X112195238Y-94115047D01*
X112290476Y-94210285D01*
X112338095Y-94305523D01*
X115597619Y-96234095D02*
X115550000Y-96186476D01*
X115502380Y-96091238D01*
X115502380Y-95853142D01*
X115550000Y-95757904D01*
X115597619Y-95710285D01*
X115692857Y-95662666D01*
X115788095Y-95662666D01*
X115930952Y-95710285D01*
X116502380Y-96281714D01*
X116502380Y-95662666D01*
X115597619Y-95281714D02*
X115550000Y-95234095D01*
X115502380Y-95138857D01*
X115502380Y-94900761D01*
X115550000Y-94805523D01*
X115597619Y-94757904D01*
X115692857Y-94710285D01*
X115788095Y-94710285D01*
X115930952Y-94757904D01*
X116502380Y-95329333D01*
X116502380Y-94710285D01*
X115502380Y-94091238D02*
X115502380Y-93996000D01*
X115550000Y-93900761D01*
X115597619Y-93853142D01*
X115692857Y-93805523D01*
X115883333Y-93757904D01*
X116121428Y-93757904D01*
X116311904Y-93805523D01*
X116407142Y-93853142D01*
X116454761Y-93900761D01*
X116502380Y-93996000D01*
X116502380Y-94091238D01*
X116454761Y-94186476D01*
X116407142Y-94234095D01*
X116311904Y-94281714D01*
X116121428Y-94329333D01*
X115883333Y-94329333D01*
X115692857Y-94281714D01*
X115597619Y-94234095D01*
X115550000Y-94186476D01*
X115502380Y-94091238D01*
%TO.C,R10*%
X114673142Y-92068380D02*
X114339809Y-91592190D01*
X114101714Y-92068380D02*
X114101714Y-91068380D01*
X114482666Y-91068380D01*
X114577904Y-91116000D01*
X114625523Y-91163619D01*
X114673142Y-91258857D01*
X114673142Y-91401714D01*
X114625523Y-91496952D01*
X114577904Y-91544571D01*
X114482666Y-91592190D01*
X114101714Y-91592190D01*
X115625523Y-92068380D02*
X115054095Y-92068380D01*
X115339809Y-92068380D02*
X115339809Y-91068380D01*
X115244571Y-91211238D01*
X115149333Y-91306476D01*
X115054095Y-91354095D01*
X116244571Y-91068380D02*
X116339809Y-91068380D01*
X116435047Y-91116000D01*
X116482666Y-91163619D01*
X116530285Y-91258857D01*
X116577904Y-91449333D01*
X116577904Y-91687428D01*
X116530285Y-91877904D01*
X116482666Y-91973142D01*
X116435047Y-92020761D01*
X116339809Y-92068380D01*
X116244571Y-92068380D01*
X116149333Y-92020761D01*
X116101714Y-91973142D01*
X116054095Y-91877904D01*
X116006476Y-91687428D01*
X116006476Y-91449333D01*
X116054095Y-91258857D01*
X116101714Y-91163619D01*
X116149333Y-91116000D01*
X116244571Y-91068380D01*
X118594285Y-90590714D02*
X118594285Y-91257380D01*
X118356190Y-90209761D02*
X118118095Y-90924047D01*
X118737142Y-90924047D01*
X119022857Y-90257380D02*
X119689523Y-90257380D01*
X119260952Y-91257380D01*
X120070476Y-91257380D02*
X120070476Y-90257380D01*
X120641904Y-91257380D02*
X120213333Y-90685952D01*
X120641904Y-90257380D02*
X120070476Y-90828809D01*
%TO.C,R9*%
X120483333Y-77922380D02*
X120150000Y-77446190D01*
X119911904Y-77922380D02*
X119911904Y-76922380D01*
X120292857Y-76922380D01*
X120388095Y-76970000D01*
X120435714Y-77017619D01*
X120483333Y-77112857D01*
X120483333Y-77255714D01*
X120435714Y-77350952D01*
X120388095Y-77398571D01*
X120292857Y-77446190D01*
X119911904Y-77446190D01*
X120959523Y-77922380D02*
X121150000Y-77922380D01*
X121245238Y-77874761D01*
X121292857Y-77827142D01*
X121388095Y-77684285D01*
X121435714Y-77493809D01*
X121435714Y-77112857D01*
X121388095Y-77017619D01*
X121340476Y-76970000D01*
X121245238Y-76922380D01*
X121054761Y-76922380D01*
X120959523Y-76970000D01*
X120911904Y-77017619D01*
X120864285Y-77112857D01*
X120864285Y-77350952D01*
X120911904Y-77446190D01*
X120959523Y-77493809D01*
X121054761Y-77541428D01*
X121245238Y-77541428D01*
X121340476Y-77493809D01*
X121388095Y-77446190D01*
X121435714Y-77350952D01*
X117189285Y-79827380D02*
X116617857Y-79827380D01*
X116903571Y-79827380D02*
X116903571Y-78827380D01*
X116808333Y-78970238D01*
X116713095Y-79065476D01*
X116617857Y-79113095D01*
X117617857Y-79827380D02*
X117617857Y-78827380D01*
X117951190Y-79541666D01*
X118284523Y-78827380D01*
X118284523Y-79827380D01*
%TO.C,R8*%
X124072380Y-81780666D02*
X123596190Y-82114000D01*
X124072380Y-82352095D02*
X123072380Y-82352095D01*
X123072380Y-81971142D01*
X123120000Y-81875904D01*
X123167619Y-81828285D01*
X123262857Y-81780666D01*
X123405714Y-81780666D01*
X123500952Y-81828285D01*
X123548571Y-81875904D01*
X123596190Y-81971142D01*
X123596190Y-82352095D01*
X123500952Y-81209238D02*
X123453333Y-81304476D01*
X123405714Y-81352095D01*
X123310476Y-81399714D01*
X123262857Y-81399714D01*
X123167619Y-81352095D01*
X123120000Y-81304476D01*
X123072380Y-81209238D01*
X123072380Y-81018761D01*
X123120000Y-80923523D01*
X123167619Y-80875904D01*
X123262857Y-80828285D01*
X123310476Y-80828285D01*
X123405714Y-80875904D01*
X123453333Y-80923523D01*
X123500952Y-81018761D01*
X123500952Y-81209238D01*
X123548571Y-81304476D01*
X123596190Y-81352095D01*
X123691428Y-81399714D01*
X123881904Y-81399714D01*
X123977142Y-81352095D01*
X124024761Y-81304476D01*
X124072380Y-81209238D01*
X124072380Y-81018761D01*
X124024761Y-80923523D01*
X123977142Y-80875904D01*
X123881904Y-80828285D01*
X123691428Y-80828285D01*
X123596190Y-80875904D01*
X123548571Y-80923523D01*
X123500952Y-81018761D01*
X119955714Y-82875904D02*
X120622380Y-82875904D01*
X119574761Y-83114000D02*
X120289047Y-83352095D01*
X120289047Y-82733047D01*
X119622380Y-82447333D02*
X119622380Y-81780666D01*
X120622380Y-82209238D01*
X119622380Y-81209238D02*
X119622380Y-81114000D01*
X119670000Y-81018761D01*
X119717619Y-80971142D01*
X119812857Y-80923523D01*
X120003333Y-80875904D01*
X120241428Y-80875904D01*
X120431904Y-80923523D01*
X120527142Y-80971142D01*
X120574761Y-81018761D01*
X120622380Y-81114000D01*
X120622380Y-81209238D01*
X120574761Y-81304476D01*
X120527142Y-81352095D01*
X120431904Y-81399714D01*
X120241428Y-81447333D01*
X120003333Y-81447333D01*
X119812857Y-81399714D01*
X119717619Y-81352095D01*
X119670000Y-81304476D01*
X119622380Y-81209238D01*
X120622380Y-80447333D02*
X119622380Y-80447333D01*
X120622380Y-79875904D02*
X120050952Y-80304476D01*
X119622380Y-79875904D02*
X120193809Y-80447333D01*
%TO.C,R7*%
X125547380Y-103671666D02*
X125071190Y-104005000D01*
X125547380Y-104243095D02*
X124547380Y-104243095D01*
X124547380Y-103862142D01*
X124595000Y-103766904D01*
X124642619Y-103719285D01*
X124737857Y-103671666D01*
X124880714Y-103671666D01*
X124975952Y-103719285D01*
X125023571Y-103766904D01*
X125071190Y-103862142D01*
X125071190Y-104243095D01*
X124547380Y-103338333D02*
X124547380Y-102671666D01*
X125547380Y-103100238D01*
X119197380Y-101655476D02*
X119197380Y-102226904D01*
X119197380Y-101941190D02*
X118197380Y-101941190D01*
X118340238Y-102036428D01*
X118435476Y-102131666D01*
X118483095Y-102226904D01*
X118197380Y-101036428D02*
X118197380Y-100941190D01*
X118245000Y-100845952D01*
X118292619Y-100798333D01*
X118387857Y-100750714D01*
X118578333Y-100703095D01*
X118816428Y-100703095D01*
X119006904Y-100750714D01*
X119102142Y-100798333D01*
X119149761Y-100845952D01*
X119197380Y-100941190D01*
X119197380Y-101036428D01*
X119149761Y-101131666D01*
X119102142Y-101179285D01*
X119006904Y-101226904D01*
X118816428Y-101274523D01*
X118578333Y-101274523D01*
X118387857Y-101226904D01*
X118292619Y-101179285D01*
X118245000Y-101131666D01*
X118197380Y-101036428D01*
X119197380Y-100274523D02*
X118197380Y-100274523D01*
X119197380Y-99703095D02*
X118625952Y-100131666D01*
X118197380Y-99703095D02*
X118768809Y-100274523D01*
%TO.C,R6*%
X129373333Y-86812380D02*
X129040000Y-86336190D01*
X128801904Y-86812380D02*
X128801904Y-85812380D01*
X129182857Y-85812380D01*
X129278095Y-85860000D01*
X129325714Y-85907619D01*
X129373333Y-86002857D01*
X129373333Y-86145714D01*
X129325714Y-86240952D01*
X129278095Y-86288571D01*
X129182857Y-86336190D01*
X128801904Y-86336190D01*
X130230476Y-85812380D02*
X130040000Y-85812380D01*
X129944761Y-85860000D01*
X129897142Y-85907619D01*
X129801904Y-86050476D01*
X129754285Y-86240952D01*
X129754285Y-86621904D01*
X129801904Y-86717142D01*
X129849523Y-86764761D01*
X129944761Y-86812380D01*
X130135238Y-86812380D01*
X130230476Y-86764761D01*
X130278095Y-86717142D01*
X130325714Y-86621904D01*
X130325714Y-86383809D01*
X130278095Y-86288571D01*
X130230476Y-86240952D01*
X130135238Y-86193333D01*
X129944761Y-86193333D01*
X129849523Y-86240952D01*
X129801904Y-86288571D01*
X129754285Y-86383809D01*
X128849523Y-88717380D02*
X128278095Y-88717380D01*
X128563809Y-88717380D02*
X128563809Y-87717380D01*
X128468571Y-87860238D01*
X128373333Y-87955476D01*
X128278095Y-88003095D01*
X129468571Y-87717380D02*
X129563809Y-87717380D01*
X129659047Y-87765000D01*
X129706666Y-87812619D01*
X129754285Y-87907857D01*
X129801904Y-88098333D01*
X129801904Y-88336428D01*
X129754285Y-88526904D01*
X129706666Y-88622142D01*
X129659047Y-88669761D01*
X129563809Y-88717380D01*
X129468571Y-88717380D01*
X129373333Y-88669761D01*
X129325714Y-88622142D01*
X129278095Y-88526904D01*
X129230476Y-88336428D01*
X129230476Y-88098333D01*
X129278095Y-87907857D01*
X129325714Y-87812619D01*
X129373333Y-87765000D01*
X129468571Y-87717380D01*
X130230476Y-88717380D02*
X130230476Y-87717380D01*
X130801904Y-88717380D02*
X130373333Y-88145952D01*
X130801904Y-87717380D02*
X130230476Y-88288809D01*
%TO.C,R5*%
X129373333Y-84907380D02*
X129040000Y-84431190D01*
X128801904Y-84907380D02*
X128801904Y-83907380D01*
X129182857Y-83907380D01*
X129278095Y-83955000D01*
X129325714Y-84002619D01*
X129373333Y-84097857D01*
X129373333Y-84240714D01*
X129325714Y-84335952D01*
X129278095Y-84383571D01*
X129182857Y-84431190D01*
X128801904Y-84431190D01*
X130278095Y-83907380D02*
X129801904Y-83907380D01*
X129754285Y-84383571D01*
X129801904Y-84335952D01*
X129897142Y-84288333D01*
X130135238Y-84288333D01*
X130230476Y-84335952D01*
X130278095Y-84383571D01*
X130325714Y-84478809D01*
X130325714Y-84716904D01*
X130278095Y-84812142D01*
X130230476Y-84859761D01*
X130135238Y-84907380D01*
X129897142Y-84907380D01*
X129801904Y-84859761D01*
X129754285Y-84812142D01*
X128849523Y-83030380D02*
X128278095Y-83030380D01*
X128563809Y-83030380D02*
X128563809Y-82030380D01*
X128468571Y-82173238D01*
X128373333Y-82268476D01*
X128278095Y-82316095D01*
X129468571Y-82030380D02*
X129563809Y-82030380D01*
X129659047Y-82078000D01*
X129706666Y-82125619D01*
X129754285Y-82220857D01*
X129801904Y-82411333D01*
X129801904Y-82649428D01*
X129754285Y-82839904D01*
X129706666Y-82935142D01*
X129659047Y-82982761D01*
X129563809Y-83030380D01*
X129468571Y-83030380D01*
X129373333Y-82982761D01*
X129325714Y-82935142D01*
X129278095Y-82839904D01*
X129230476Y-82649428D01*
X129230476Y-82411333D01*
X129278095Y-82220857D01*
X129325714Y-82125619D01*
X129373333Y-82078000D01*
X129468571Y-82030380D01*
X130230476Y-83030380D02*
X130230476Y-82030380D01*
X130801904Y-83030380D02*
X130373333Y-82458952D01*
X130801904Y-82030380D02*
X130230476Y-82601809D01*
%TO.C,R4*%
X128087380Y-97956666D02*
X127611190Y-98290000D01*
X128087380Y-98528095D02*
X127087380Y-98528095D01*
X127087380Y-98147142D01*
X127135000Y-98051904D01*
X127182619Y-98004285D01*
X127277857Y-97956666D01*
X127420714Y-97956666D01*
X127515952Y-98004285D01*
X127563571Y-98051904D01*
X127611190Y-98147142D01*
X127611190Y-98528095D01*
X127420714Y-97099523D02*
X128087380Y-97099523D01*
X127039761Y-97337619D02*
X127754047Y-97575714D01*
X127754047Y-96956666D01*
X128242380Y-101814285D02*
X128242380Y-102385714D01*
X128242380Y-102100000D02*
X127242380Y-102100000D01*
X127385238Y-102195238D01*
X127480476Y-102290476D01*
X127528095Y-102385714D01*
X128242380Y-101385714D02*
X127242380Y-101385714D01*
X128242380Y-100814285D02*
X127670952Y-101242857D01*
X127242380Y-100814285D02*
X127813809Y-101385714D01*
%TO.C,R3*%
X128087380Y-104306666D02*
X127611190Y-104640000D01*
X128087380Y-104878095D02*
X127087380Y-104878095D01*
X127087380Y-104497142D01*
X127135000Y-104401904D01*
X127182619Y-104354285D01*
X127277857Y-104306666D01*
X127420714Y-104306666D01*
X127515952Y-104354285D01*
X127563571Y-104401904D01*
X127611190Y-104497142D01*
X127611190Y-104878095D01*
X127087380Y-103973333D02*
X127087380Y-103354285D01*
X127468333Y-103687619D01*
X127468333Y-103544761D01*
X127515952Y-103449523D01*
X127563571Y-103401904D01*
X127658809Y-103354285D01*
X127896904Y-103354285D01*
X127992142Y-103401904D01*
X128039761Y-103449523D01*
X128087380Y-103544761D01*
X128087380Y-103830476D01*
X128039761Y-103925714D01*
X127992142Y-103973333D01*
X128242380Y-107370476D02*
X128242380Y-107941904D01*
X128242380Y-107656190D02*
X127242380Y-107656190D01*
X127385238Y-107751428D01*
X127480476Y-107846666D01*
X127528095Y-107941904D01*
X127242380Y-106751428D02*
X127242380Y-106656190D01*
X127290000Y-106560952D01*
X127337619Y-106513333D01*
X127432857Y-106465714D01*
X127623333Y-106418095D01*
X127861428Y-106418095D01*
X128051904Y-106465714D01*
X128147142Y-106513333D01*
X128194761Y-106560952D01*
X128242380Y-106656190D01*
X128242380Y-106751428D01*
X128194761Y-106846666D01*
X128147142Y-106894285D01*
X128051904Y-106941904D01*
X127861428Y-106989523D01*
X127623333Y-106989523D01*
X127432857Y-106941904D01*
X127337619Y-106894285D01*
X127290000Y-106846666D01*
X127242380Y-106751428D01*
X128242380Y-105989523D02*
X127242380Y-105989523D01*
X128242380Y-105418095D02*
X127670952Y-105846666D01*
X127242380Y-105418095D02*
X127813809Y-105989523D01*
%TO.C,R2*%
X130627380Y-115101666D02*
X130151190Y-115435000D01*
X130627380Y-115673095D02*
X129627380Y-115673095D01*
X129627380Y-115292142D01*
X129675000Y-115196904D01*
X129722619Y-115149285D01*
X129817857Y-115101666D01*
X129960714Y-115101666D01*
X130055952Y-115149285D01*
X130103571Y-115196904D01*
X130151190Y-115292142D01*
X130151190Y-115673095D01*
X129722619Y-114720714D02*
X129675000Y-114673095D01*
X129627380Y-114577857D01*
X129627380Y-114339761D01*
X129675000Y-114244523D01*
X129722619Y-114196904D01*
X129817857Y-114149285D01*
X129913095Y-114149285D01*
X130055952Y-114196904D01*
X130627380Y-114768333D01*
X130627380Y-114149285D01*
X128242380Y-110958285D02*
X128242380Y-111529714D01*
X128242380Y-111244000D02*
X127242380Y-111244000D01*
X127385238Y-111339238D01*
X127480476Y-111434476D01*
X127528095Y-111529714D01*
X128242380Y-110529714D02*
X127242380Y-110529714D01*
X128242380Y-109958285D02*
X127670952Y-110386857D01*
X127242380Y-109958285D02*
X127813809Y-110529714D01*
%TO.C,R1*%
X123642380Y-174156666D02*
X123166190Y-174490000D01*
X123642380Y-174728095D02*
X122642380Y-174728095D01*
X122642380Y-174347142D01*
X122690000Y-174251904D01*
X122737619Y-174204285D01*
X122832857Y-174156666D01*
X122975714Y-174156666D01*
X123070952Y-174204285D01*
X123118571Y-174251904D01*
X123166190Y-174347142D01*
X123166190Y-174728095D01*
X123642380Y-173204285D02*
X123642380Y-173775714D01*
X123642380Y-173490000D02*
X122642380Y-173490000D01*
X122785238Y-173585238D01*
X122880476Y-173680476D01*
X122928095Y-173775714D01*
X123642380Y-166266666D02*
X123642380Y-166838095D01*
X123642380Y-166552380D02*
X122642380Y-166552380D01*
X122785238Y-166647619D01*
X122880476Y-166742857D01*
X122928095Y-166838095D01*
X122642380Y-165647619D02*
X122642380Y-165552380D01*
X122690000Y-165457142D01*
X122737619Y-165409523D01*
X122832857Y-165361904D01*
X123023333Y-165314285D01*
X123261428Y-165314285D01*
X123451904Y-165361904D01*
X123547142Y-165409523D01*
X123594761Y-165457142D01*
X123642380Y-165552380D01*
X123642380Y-165647619D01*
X123594761Y-165742857D01*
X123547142Y-165790476D01*
X123451904Y-165838095D01*
X123261428Y-165885714D01*
X123023333Y-165885714D01*
X122832857Y-165838095D01*
X122737619Y-165790476D01*
X122690000Y-165742857D01*
X122642380Y-165647619D01*
X122642380Y-164695238D02*
X122642380Y-164600000D01*
X122690000Y-164504761D01*
X122737619Y-164457142D01*
X122832857Y-164409523D01*
X123023333Y-164361904D01*
X123261428Y-164361904D01*
X123451904Y-164409523D01*
X123547142Y-164457142D01*
X123594761Y-164504761D01*
X123642380Y-164600000D01*
X123642380Y-164695238D01*
X123594761Y-164790476D01*
X123547142Y-164838095D01*
X123451904Y-164885714D01*
X123261428Y-164933333D01*
X123023333Y-164933333D01*
X122832857Y-164885714D01*
X122737619Y-164838095D01*
X122690000Y-164790476D01*
X122642380Y-164695238D01*
X123642380Y-163933333D02*
X122642380Y-163933333D01*
X123642380Y-163361904D02*
X123070952Y-163790476D01*
X122642380Y-163361904D02*
X123213809Y-163933333D01*
%TO.C,J2*%
X129627380Y-155527333D02*
X130341666Y-155527333D01*
X130484523Y-155574952D01*
X130579761Y-155670190D01*
X130627380Y-155813047D01*
X130627380Y-155908285D01*
X129722619Y-155098761D02*
X129675000Y-155051142D01*
X129627380Y-154955904D01*
X129627380Y-154717809D01*
X129675000Y-154622571D01*
X129722619Y-154574952D01*
X129817857Y-154527333D01*
X129913095Y-154527333D01*
X130055952Y-154574952D01*
X130627380Y-155146380D01*
X130627380Y-154527333D01*
X114117380Y-155582857D02*
X113641190Y-155916190D01*
X114117380Y-156154285D02*
X113117380Y-156154285D01*
X113117380Y-155773333D01*
X113165000Y-155678095D01*
X113212619Y-155630476D01*
X113307857Y-155582857D01*
X113450714Y-155582857D01*
X113545952Y-155630476D01*
X113593571Y-155678095D01*
X113641190Y-155773333D01*
X113641190Y-156154285D01*
X113593571Y-155154285D02*
X113593571Y-154820952D01*
X114117380Y-154678095D02*
X114117380Y-155154285D01*
X113117380Y-155154285D01*
X113117380Y-154678095D01*
X114117380Y-154249523D02*
X113117380Y-154249523D01*
X113117380Y-154011428D01*
X113165000Y-153868571D01*
X113260238Y-153773333D01*
X113355476Y-153725714D01*
X113545952Y-153678095D01*
X113688809Y-153678095D01*
X113879285Y-153725714D01*
X113974523Y-153773333D01*
X114069761Y-153868571D01*
X114117380Y-154011428D01*
X114117380Y-154249523D01*
%TO.C,D6*%
X117371904Y-121102380D02*
X117371904Y-120102380D01*
X117610000Y-120102380D01*
X117752857Y-120150000D01*
X117848095Y-120245238D01*
X117895714Y-120340476D01*
X117943333Y-120530952D01*
X117943333Y-120673809D01*
X117895714Y-120864285D01*
X117848095Y-120959523D01*
X117752857Y-121054761D01*
X117610000Y-121102380D01*
X117371904Y-121102380D01*
X118800476Y-120102380D02*
X118610000Y-120102380D01*
X118514761Y-120150000D01*
X118467142Y-120197619D01*
X118371904Y-120340476D01*
X118324285Y-120530952D01*
X118324285Y-120911904D01*
X118371904Y-121007142D01*
X118419523Y-121054761D01*
X118514761Y-121102380D01*
X118705238Y-121102380D01*
X118800476Y-121054761D01*
X118848095Y-121007142D01*
X118895714Y-120911904D01*
X118895714Y-120673809D01*
X118848095Y-120578571D01*
X118800476Y-120530952D01*
X118705238Y-120483333D01*
X118514761Y-120483333D01*
X118419523Y-120530952D01*
X118371904Y-120578571D01*
X118324285Y-120673809D01*
X124491904Y-120435714D02*
X124491904Y-121102380D01*
X124253809Y-120054761D02*
X124015714Y-120769047D01*
X124634761Y-120769047D01*
X125539523Y-121102380D02*
X124968095Y-121102380D01*
X125253809Y-121102380D02*
X125253809Y-120102380D01*
X125158571Y-120245238D01*
X125063333Y-120340476D01*
X124968095Y-120388095D01*
X126396666Y-120435714D02*
X126396666Y-121102380D01*
X126158571Y-120054761D02*
X125920476Y-120769047D01*
X126539523Y-120769047D01*
X127063333Y-120530952D02*
X126968095Y-120483333D01*
X126920476Y-120435714D01*
X126872857Y-120340476D01*
X126872857Y-120292857D01*
X126920476Y-120197619D01*
X126968095Y-120150000D01*
X127063333Y-120102380D01*
X127253809Y-120102380D01*
X127349047Y-120150000D01*
X127396666Y-120197619D01*
X127444285Y-120292857D01*
X127444285Y-120340476D01*
X127396666Y-120435714D01*
X127349047Y-120483333D01*
X127253809Y-120530952D01*
X127063333Y-120530952D01*
X126968095Y-120578571D01*
X126920476Y-120626190D01*
X126872857Y-120721428D01*
X126872857Y-120911904D01*
X126920476Y-121007142D01*
X126968095Y-121054761D01*
X127063333Y-121102380D01*
X127253809Y-121102380D01*
X127349047Y-121054761D01*
X127396666Y-121007142D01*
X127444285Y-120911904D01*
X127444285Y-120721428D01*
X127396666Y-120626190D01*
X127349047Y-120578571D01*
X127253809Y-120530952D01*
%TO.C,D5*%
X117371904Y-123642380D02*
X117371904Y-122642380D01*
X117610000Y-122642380D01*
X117752857Y-122690000D01*
X117848095Y-122785238D01*
X117895714Y-122880476D01*
X117943333Y-123070952D01*
X117943333Y-123213809D01*
X117895714Y-123404285D01*
X117848095Y-123499523D01*
X117752857Y-123594761D01*
X117610000Y-123642380D01*
X117371904Y-123642380D01*
X118848095Y-122642380D02*
X118371904Y-122642380D01*
X118324285Y-123118571D01*
X118371904Y-123070952D01*
X118467142Y-123023333D01*
X118705238Y-123023333D01*
X118800476Y-123070952D01*
X118848095Y-123118571D01*
X118895714Y-123213809D01*
X118895714Y-123451904D01*
X118848095Y-123547142D01*
X118800476Y-123594761D01*
X118705238Y-123642380D01*
X118467142Y-123642380D01*
X118371904Y-123594761D01*
X118324285Y-123547142D01*
X124491904Y-122975714D02*
X124491904Y-123642380D01*
X124253809Y-122594761D02*
X124015714Y-123309047D01*
X124634761Y-123309047D01*
X125539523Y-123642380D02*
X124968095Y-123642380D01*
X125253809Y-123642380D02*
X125253809Y-122642380D01*
X125158571Y-122785238D01*
X125063333Y-122880476D01*
X124968095Y-122928095D01*
X126396666Y-122975714D02*
X126396666Y-123642380D01*
X126158571Y-122594761D02*
X125920476Y-123309047D01*
X126539523Y-123309047D01*
X127063333Y-123070952D02*
X126968095Y-123023333D01*
X126920476Y-122975714D01*
X126872857Y-122880476D01*
X126872857Y-122832857D01*
X126920476Y-122737619D01*
X126968095Y-122690000D01*
X127063333Y-122642380D01*
X127253809Y-122642380D01*
X127349047Y-122690000D01*
X127396666Y-122737619D01*
X127444285Y-122832857D01*
X127444285Y-122880476D01*
X127396666Y-122975714D01*
X127349047Y-123023333D01*
X127253809Y-123070952D01*
X127063333Y-123070952D01*
X126968095Y-123118571D01*
X126920476Y-123166190D01*
X126872857Y-123261428D01*
X126872857Y-123451904D01*
X126920476Y-123547142D01*
X126968095Y-123594761D01*
X127063333Y-123642380D01*
X127253809Y-123642380D01*
X127349047Y-123594761D01*
X127396666Y-123547142D01*
X127444285Y-123451904D01*
X127444285Y-123261428D01*
X127396666Y-123166190D01*
X127349047Y-123118571D01*
X127253809Y-123070952D01*
%TO.C,D4*%
X116657380Y-98528095D02*
X115657380Y-98528095D01*
X115657380Y-98290000D01*
X115705000Y-98147142D01*
X115800238Y-98051904D01*
X115895476Y-98004285D01*
X116085952Y-97956666D01*
X116228809Y-97956666D01*
X116419285Y-98004285D01*
X116514523Y-98051904D01*
X116609761Y-98147142D01*
X116657380Y-98290000D01*
X116657380Y-98528095D01*
X115990714Y-97099523D02*
X116657380Y-97099523D01*
X115609761Y-97337619D02*
X116324047Y-97575714D01*
X116324047Y-96956666D01*
X118530714Y-96488095D02*
X119197380Y-96488095D01*
X118149761Y-96726190D02*
X118864047Y-96964285D01*
X118864047Y-96345238D01*
X119197380Y-95440476D02*
X119197380Y-96011904D01*
X119197380Y-95726190D02*
X118197380Y-95726190D01*
X118340238Y-95821428D01*
X118435476Y-95916666D01*
X118483095Y-96011904D01*
X118530714Y-94583333D02*
X119197380Y-94583333D01*
X118149761Y-94821428D02*
X118864047Y-95059523D01*
X118864047Y-94440476D01*
X118625952Y-93916666D02*
X118578333Y-94011904D01*
X118530714Y-94059523D01*
X118435476Y-94107142D01*
X118387857Y-94107142D01*
X118292619Y-94059523D01*
X118245000Y-94011904D01*
X118197380Y-93916666D01*
X118197380Y-93726190D01*
X118245000Y-93630952D01*
X118292619Y-93583333D01*
X118387857Y-93535714D01*
X118435476Y-93535714D01*
X118530714Y-93583333D01*
X118578333Y-93630952D01*
X118625952Y-93726190D01*
X118625952Y-93916666D01*
X118673571Y-94011904D01*
X118721190Y-94059523D01*
X118816428Y-94107142D01*
X119006904Y-94107142D01*
X119102142Y-94059523D01*
X119149761Y-94011904D01*
X119197380Y-93916666D01*
X119197380Y-93726190D01*
X119149761Y-93630952D01*
X119102142Y-93583333D01*
X119006904Y-93535714D01*
X118816428Y-93535714D01*
X118721190Y-93583333D01*
X118673571Y-93630952D01*
X118625952Y-93726190D01*
%TO.C,D3*%
X119248380Y-99163095D02*
X118248380Y-99163095D01*
X118248380Y-98925000D01*
X118296000Y-98782142D01*
X118391238Y-98686904D01*
X118486476Y-98639285D01*
X118676952Y-98591666D01*
X118819809Y-98591666D01*
X119010285Y-98639285D01*
X119105523Y-98686904D01*
X119200761Y-98782142D01*
X119248380Y-98925000D01*
X119248380Y-99163095D01*
X118248380Y-98258333D02*
X118248380Y-97639285D01*
X118629333Y-97972619D01*
X118629333Y-97829761D01*
X118676952Y-97734523D01*
X118724571Y-97686904D01*
X118819809Y-97639285D01*
X119057904Y-97639285D01*
X119153142Y-97686904D01*
X119200761Y-97734523D01*
X119248380Y-97829761D01*
X119248380Y-98115476D01*
X119200761Y-98210714D01*
X119153142Y-98258333D01*
X121705714Y-96488095D02*
X122372380Y-96488095D01*
X121324761Y-96726190D02*
X122039047Y-96964285D01*
X122039047Y-96345238D01*
X122372380Y-95440476D02*
X122372380Y-96011904D01*
X122372380Y-95726190D02*
X121372380Y-95726190D01*
X121515238Y-95821428D01*
X121610476Y-95916666D01*
X121658095Y-96011904D01*
X121705714Y-94583333D02*
X122372380Y-94583333D01*
X121324761Y-94821428D02*
X122039047Y-95059523D01*
X122039047Y-94440476D01*
X121800952Y-93916666D02*
X121753333Y-94011904D01*
X121705714Y-94059523D01*
X121610476Y-94107142D01*
X121562857Y-94107142D01*
X121467619Y-94059523D01*
X121420000Y-94011904D01*
X121372380Y-93916666D01*
X121372380Y-93726190D01*
X121420000Y-93630952D01*
X121467619Y-93583333D01*
X121562857Y-93535714D01*
X121610476Y-93535714D01*
X121705714Y-93583333D01*
X121753333Y-93630952D01*
X121800952Y-93726190D01*
X121800952Y-93916666D01*
X121848571Y-94011904D01*
X121896190Y-94059523D01*
X121991428Y-94107142D01*
X122181904Y-94107142D01*
X122277142Y-94059523D01*
X122324761Y-94011904D01*
X122372380Y-93916666D01*
X122372380Y-93726190D01*
X122324761Y-93630952D01*
X122277142Y-93583333D01*
X122181904Y-93535714D01*
X121991428Y-93535714D01*
X121896190Y-93583333D01*
X121848571Y-93630952D01*
X121800952Y-93726190D01*
%TO.C,D2*%
X126182380Y-93448095D02*
X125182380Y-93448095D01*
X125182380Y-93210000D01*
X125230000Y-93067142D01*
X125325238Y-92971904D01*
X125420476Y-92924285D01*
X125610952Y-92876666D01*
X125753809Y-92876666D01*
X125944285Y-92924285D01*
X126039523Y-92971904D01*
X126134761Y-93067142D01*
X126182380Y-93210000D01*
X126182380Y-93448095D01*
X125277619Y-92495714D02*
X125230000Y-92448095D01*
X125182380Y-92352857D01*
X125182380Y-92114761D01*
X125230000Y-92019523D01*
X125277619Y-91971904D01*
X125372857Y-91924285D01*
X125468095Y-91924285D01*
X125610952Y-91971904D01*
X126182380Y-92543333D01*
X126182380Y-91924285D01*
X125310714Y-97250095D02*
X125977380Y-97250095D01*
X124929761Y-97488190D02*
X125644047Y-97726285D01*
X125644047Y-97107238D01*
X125977380Y-96202476D02*
X125977380Y-96773904D01*
X125977380Y-96488190D02*
X124977380Y-96488190D01*
X125120238Y-96583428D01*
X125215476Y-96678666D01*
X125263095Y-96773904D01*
X125310714Y-95345333D02*
X125977380Y-95345333D01*
X124929761Y-95583428D02*
X125644047Y-95821523D01*
X125644047Y-95202476D01*
X125405952Y-94678666D02*
X125358333Y-94773904D01*
X125310714Y-94821523D01*
X125215476Y-94869142D01*
X125167857Y-94869142D01*
X125072619Y-94821523D01*
X125025000Y-94773904D01*
X124977380Y-94678666D01*
X124977380Y-94488190D01*
X125025000Y-94392952D01*
X125072619Y-94345333D01*
X125167857Y-94297714D01*
X125215476Y-94297714D01*
X125310714Y-94345333D01*
X125358333Y-94392952D01*
X125405952Y-94488190D01*
X125405952Y-94678666D01*
X125453571Y-94773904D01*
X125501190Y-94821523D01*
X125596428Y-94869142D01*
X125786904Y-94869142D01*
X125882142Y-94821523D01*
X125929761Y-94773904D01*
X125977380Y-94678666D01*
X125977380Y-94488190D01*
X125929761Y-94392952D01*
X125882142Y-94345333D01*
X125786904Y-94297714D01*
X125596428Y-94297714D01*
X125501190Y-94345333D01*
X125453571Y-94392952D01*
X125405952Y-94488190D01*
%TO.C,D1*%
X125217380Y-170918095D02*
X124217380Y-170918095D01*
X124217380Y-170680000D01*
X124265000Y-170537142D01*
X124360238Y-170441904D01*
X124455476Y-170394285D01*
X124645952Y-170346666D01*
X124788809Y-170346666D01*
X124979285Y-170394285D01*
X125074523Y-170441904D01*
X125169761Y-170537142D01*
X125217380Y-170680000D01*
X125217380Y-170918095D01*
X125217380Y-169394285D02*
X125217380Y-169965714D01*
X125217380Y-169680000D02*
X124217380Y-169680000D01*
X124360238Y-169775238D01*
X124455476Y-169870476D01*
X124503095Y-169965714D01*
X125126904Y-172505714D02*
X125126904Y-173172380D01*
X124888809Y-172124761D02*
X124650714Y-172839047D01*
X125269761Y-172839047D01*
X126174523Y-173172380D02*
X125603095Y-173172380D01*
X125888809Y-173172380D02*
X125888809Y-172172380D01*
X125793571Y-172315238D01*
X125698333Y-172410476D01*
X125603095Y-172458095D01*
X127031666Y-172505714D02*
X127031666Y-173172380D01*
X126793571Y-172124761D02*
X126555476Y-172839047D01*
X127174523Y-172839047D01*
X127698333Y-172600952D02*
X127603095Y-172553333D01*
X127555476Y-172505714D01*
X127507857Y-172410476D01*
X127507857Y-172362857D01*
X127555476Y-172267619D01*
X127603095Y-172220000D01*
X127698333Y-172172380D01*
X127888809Y-172172380D01*
X127984047Y-172220000D01*
X128031666Y-172267619D01*
X128079285Y-172362857D01*
X128079285Y-172410476D01*
X128031666Y-172505714D01*
X127984047Y-172553333D01*
X127888809Y-172600952D01*
X127698333Y-172600952D01*
X127603095Y-172648571D01*
X127555476Y-172696190D01*
X127507857Y-172791428D01*
X127507857Y-172981904D01*
X127555476Y-173077142D01*
X127603095Y-173124761D01*
X127698333Y-173172380D01*
X127888809Y-173172380D01*
X127984047Y-173124761D01*
X128031666Y-173077142D01*
X128079285Y-172981904D01*
X128079285Y-172791428D01*
X128031666Y-172696190D01*
X127984047Y-172648571D01*
X127888809Y-172600952D01*
%TO.C,C6*%
X117181333Y-131195142D02*
X117133714Y-131242761D01*
X116990857Y-131290380D01*
X116895619Y-131290380D01*
X116752761Y-131242761D01*
X116657523Y-131147523D01*
X116609904Y-131052285D01*
X116562285Y-130861809D01*
X116562285Y-130718952D01*
X116609904Y-130528476D01*
X116657523Y-130433238D01*
X116752761Y-130338000D01*
X116895619Y-130290380D01*
X116990857Y-130290380D01*
X117133714Y-130338000D01*
X117181333Y-130385619D01*
X118038476Y-130290380D02*
X117848000Y-130290380D01*
X117752761Y-130338000D01*
X117705142Y-130385619D01*
X117609904Y-130528476D01*
X117562285Y-130718952D01*
X117562285Y-131099904D01*
X117609904Y-131195142D01*
X117657523Y-131242761D01*
X117752761Y-131290380D01*
X117943238Y-131290380D01*
X118038476Y-131242761D01*
X118086095Y-131195142D01*
X118133714Y-131099904D01*
X118133714Y-130861809D01*
X118086095Y-130766571D01*
X118038476Y-130718952D01*
X117943238Y-130671333D01*
X117752761Y-130671333D01*
X117657523Y-130718952D01*
X117609904Y-130766571D01*
X117562285Y-130861809D01*
X116228952Y-134790380D02*
X115657523Y-134790380D01*
X115943238Y-134790380D02*
X115943238Y-133790380D01*
X115848000Y-133933238D01*
X115752761Y-134028476D01*
X115657523Y-134076095D01*
X116848000Y-133790380D02*
X116943238Y-133790380D01*
X117038476Y-133838000D01*
X117086095Y-133885619D01*
X117133714Y-133980857D01*
X117181333Y-134171333D01*
X117181333Y-134409428D01*
X117133714Y-134599904D01*
X117086095Y-134695142D01*
X117038476Y-134742761D01*
X116943238Y-134790380D01*
X116848000Y-134790380D01*
X116752761Y-134742761D01*
X116705142Y-134695142D01*
X116657523Y-134599904D01*
X116609904Y-134409428D01*
X116609904Y-134171333D01*
X116657523Y-133980857D01*
X116705142Y-133885619D01*
X116752761Y-133838000D01*
X116848000Y-133790380D01*
X117800380Y-133790380D02*
X117895619Y-133790380D01*
X117990857Y-133838000D01*
X118038476Y-133885619D01*
X118086095Y-133980857D01*
X118133714Y-134171333D01*
X118133714Y-134409428D01*
X118086095Y-134599904D01*
X118038476Y-134695142D01*
X117990857Y-134742761D01*
X117895619Y-134790380D01*
X117800380Y-134790380D01*
X117705142Y-134742761D01*
X117657523Y-134695142D01*
X117609904Y-134599904D01*
X117562285Y-134409428D01*
X117562285Y-134171333D01*
X117609904Y-133980857D01*
X117657523Y-133885619D01*
X117705142Y-133838000D01*
X117800380Y-133790380D01*
X118562285Y-134123714D02*
X118562285Y-134790380D01*
X118562285Y-134218952D02*
X118609904Y-134171333D01*
X118705142Y-134123714D01*
X118848000Y-134123714D01*
X118943238Y-134171333D01*
X118990857Y-134266571D01*
X118990857Y-134790380D01*
%TO.C,C5*%
X112752142Y-101766666D02*
X112799761Y-101814285D01*
X112847380Y-101957142D01*
X112847380Y-102052380D01*
X112799761Y-102195238D01*
X112704523Y-102290476D01*
X112609285Y-102338095D01*
X112418809Y-102385714D01*
X112275952Y-102385714D01*
X112085476Y-102338095D01*
X111990238Y-102290476D01*
X111895000Y-102195238D01*
X111847380Y-102052380D01*
X111847380Y-101957142D01*
X111895000Y-101814285D01*
X111942619Y-101766666D01*
X111847380Y-100861904D02*
X111847380Y-101338095D01*
X112323571Y-101385714D01*
X112275952Y-101338095D01*
X112228333Y-101242857D01*
X112228333Y-101004761D01*
X112275952Y-100909523D01*
X112323571Y-100861904D01*
X112418809Y-100814285D01*
X112656904Y-100814285D01*
X112752142Y-100861904D01*
X112799761Y-100909523D01*
X112847380Y-101004761D01*
X112847380Y-101242857D01*
X112799761Y-101338095D01*
X112752142Y-101385714D01*
X116657380Y-103989047D02*
X116657380Y-104560476D01*
X116657380Y-104274761D02*
X115657380Y-104274761D01*
X115800238Y-104370000D01*
X115895476Y-104465238D01*
X115943095Y-104560476D01*
X115657380Y-103370000D02*
X115657380Y-103274761D01*
X115705000Y-103179523D01*
X115752619Y-103131904D01*
X115847857Y-103084285D01*
X116038333Y-103036666D01*
X116276428Y-103036666D01*
X116466904Y-103084285D01*
X116562142Y-103131904D01*
X116609761Y-103179523D01*
X116657380Y-103274761D01*
X116657380Y-103370000D01*
X116609761Y-103465238D01*
X116562142Y-103512857D01*
X116466904Y-103560476D01*
X116276428Y-103608095D01*
X116038333Y-103608095D01*
X115847857Y-103560476D01*
X115752619Y-103512857D01*
X115705000Y-103465238D01*
X115657380Y-103370000D01*
X115657380Y-102417619D02*
X115657380Y-102322380D01*
X115705000Y-102227142D01*
X115752619Y-102179523D01*
X115847857Y-102131904D01*
X116038333Y-102084285D01*
X116276428Y-102084285D01*
X116466904Y-102131904D01*
X116562142Y-102179523D01*
X116609761Y-102227142D01*
X116657380Y-102322380D01*
X116657380Y-102417619D01*
X116609761Y-102512857D01*
X116562142Y-102560476D01*
X116466904Y-102608095D01*
X116276428Y-102655714D01*
X116038333Y-102655714D01*
X115847857Y-102608095D01*
X115752619Y-102560476D01*
X115705000Y-102512857D01*
X115657380Y-102417619D01*
X115990714Y-101655714D02*
X116657380Y-101655714D01*
X116085952Y-101655714D02*
X116038333Y-101608095D01*
X115990714Y-101512857D01*
X115990714Y-101370000D01*
X116038333Y-101274761D01*
X116133571Y-101227142D01*
X116657380Y-101227142D01*
%TO.C,C4*%
X115149333Y-85475142D02*
X115101714Y-85522761D01*
X114958857Y-85570380D01*
X114863619Y-85570380D01*
X114720761Y-85522761D01*
X114625523Y-85427523D01*
X114577904Y-85332285D01*
X114530285Y-85141809D01*
X114530285Y-84998952D01*
X114577904Y-84808476D01*
X114625523Y-84713238D01*
X114720761Y-84618000D01*
X114863619Y-84570380D01*
X114958857Y-84570380D01*
X115101714Y-84618000D01*
X115149333Y-84665619D01*
X116006476Y-84903714D02*
X116006476Y-85570380D01*
X115768380Y-84522761D02*
X115530285Y-85237047D01*
X116149333Y-85237047D01*
X118895952Y-87447380D02*
X118324523Y-87447380D01*
X118610238Y-87447380D02*
X118610238Y-86447380D01*
X118515000Y-86590238D01*
X118419761Y-86685476D01*
X118324523Y-86733095D01*
X119515000Y-86447380D02*
X119610238Y-86447380D01*
X119705476Y-86495000D01*
X119753095Y-86542619D01*
X119800714Y-86637857D01*
X119848333Y-86828333D01*
X119848333Y-87066428D01*
X119800714Y-87256904D01*
X119753095Y-87352142D01*
X119705476Y-87399761D01*
X119610238Y-87447380D01*
X119515000Y-87447380D01*
X119419761Y-87399761D01*
X119372142Y-87352142D01*
X119324523Y-87256904D01*
X119276904Y-87066428D01*
X119276904Y-86828333D01*
X119324523Y-86637857D01*
X119372142Y-86542619D01*
X119419761Y-86495000D01*
X119515000Y-86447380D01*
X120467380Y-86447380D02*
X120562619Y-86447380D01*
X120657857Y-86495000D01*
X120705476Y-86542619D01*
X120753095Y-86637857D01*
X120800714Y-86828333D01*
X120800714Y-87066428D01*
X120753095Y-87256904D01*
X120705476Y-87352142D01*
X120657857Y-87399761D01*
X120562619Y-87447380D01*
X120467380Y-87447380D01*
X120372142Y-87399761D01*
X120324523Y-87352142D01*
X120276904Y-87256904D01*
X120229285Y-87066428D01*
X120229285Y-86828333D01*
X120276904Y-86637857D01*
X120324523Y-86542619D01*
X120372142Y-86495000D01*
X120467380Y-86447380D01*
X121229285Y-86780714D02*
X121229285Y-87447380D01*
X121229285Y-86875952D02*
X121276904Y-86828333D01*
X121372142Y-86780714D01*
X121515000Y-86780714D01*
X121610238Y-86828333D01*
X121657857Y-86923571D01*
X121657857Y-87447380D01*
%TO.C,C3*%
X119003142Y-103671666D02*
X119050761Y-103719285D01*
X119098380Y-103862142D01*
X119098380Y-103957380D01*
X119050761Y-104100238D01*
X118955523Y-104195476D01*
X118860285Y-104243095D01*
X118669809Y-104290714D01*
X118526952Y-104290714D01*
X118336476Y-104243095D01*
X118241238Y-104195476D01*
X118146000Y-104100238D01*
X118098380Y-103957380D01*
X118098380Y-103862142D01*
X118146000Y-103719285D01*
X118193619Y-103671666D01*
X118098380Y-103338333D02*
X118098380Y-102719285D01*
X118479333Y-103052619D01*
X118479333Y-102909761D01*
X118526952Y-102814523D01*
X118574571Y-102766904D01*
X118669809Y-102719285D01*
X118907904Y-102719285D01*
X119003142Y-102766904D01*
X119050761Y-102814523D01*
X119098380Y-102909761D01*
X119098380Y-103195476D01*
X119050761Y-103290714D01*
X119003142Y-103338333D01*
X125547380Y-101449047D02*
X125547380Y-102020476D01*
X125547380Y-101734761D02*
X124547380Y-101734761D01*
X124690238Y-101830000D01*
X124785476Y-101925238D01*
X124833095Y-102020476D01*
X124547380Y-100830000D02*
X124547380Y-100734761D01*
X124595000Y-100639523D01*
X124642619Y-100591904D01*
X124737857Y-100544285D01*
X124928333Y-100496666D01*
X125166428Y-100496666D01*
X125356904Y-100544285D01*
X125452142Y-100591904D01*
X125499761Y-100639523D01*
X125547380Y-100734761D01*
X125547380Y-100830000D01*
X125499761Y-100925238D01*
X125452142Y-100972857D01*
X125356904Y-101020476D01*
X125166428Y-101068095D01*
X124928333Y-101068095D01*
X124737857Y-101020476D01*
X124642619Y-100972857D01*
X124595000Y-100925238D01*
X124547380Y-100830000D01*
X124547380Y-99877619D02*
X124547380Y-99782380D01*
X124595000Y-99687142D01*
X124642619Y-99639523D01*
X124737857Y-99591904D01*
X124928333Y-99544285D01*
X125166428Y-99544285D01*
X125356904Y-99591904D01*
X125452142Y-99639523D01*
X125499761Y-99687142D01*
X125547380Y-99782380D01*
X125547380Y-99877619D01*
X125499761Y-99972857D01*
X125452142Y-100020476D01*
X125356904Y-100068095D01*
X125166428Y-100115714D01*
X124928333Y-100115714D01*
X124737857Y-100068095D01*
X124642619Y-100020476D01*
X124595000Y-99972857D01*
X124547380Y-99877619D01*
X124880714Y-99115714D02*
X125547380Y-99115714D01*
X124975952Y-99115714D02*
X124928333Y-99068095D01*
X124880714Y-98972857D01*
X124880714Y-98830000D01*
X124928333Y-98734761D01*
X125023571Y-98687142D01*
X125547380Y-98687142D01*
%TO.C,C2*%
X130008333Y-92432142D02*
X129960714Y-92479761D01*
X129817857Y-92527380D01*
X129722619Y-92527380D01*
X129579761Y-92479761D01*
X129484523Y-92384523D01*
X129436904Y-92289285D01*
X129389285Y-92098809D01*
X129389285Y-91955952D01*
X129436904Y-91765476D01*
X129484523Y-91670238D01*
X129579761Y-91575000D01*
X129722619Y-91527380D01*
X129817857Y-91527380D01*
X129960714Y-91575000D01*
X130008333Y-91622619D01*
X130389285Y-91622619D02*
X130436904Y-91575000D01*
X130532142Y-91527380D01*
X130770238Y-91527380D01*
X130865476Y-91575000D01*
X130913095Y-91622619D01*
X130960714Y-91717857D01*
X130960714Y-91813095D01*
X130913095Y-91955952D01*
X130341666Y-92527380D01*
X130960714Y-92527380D01*
X127150952Y-94206380D02*
X126579523Y-94206380D01*
X126865238Y-94206380D02*
X126865238Y-93206380D01*
X126770000Y-93349238D01*
X126674761Y-93444476D01*
X126579523Y-93492095D01*
X127770000Y-93206380D02*
X127865238Y-93206380D01*
X127960476Y-93254000D01*
X128008095Y-93301619D01*
X128055714Y-93396857D01*
X128103333Y-93587333D01*
X128103333Y-93825428D01*
X128055714Y-94015904D01*
X128008095Y-94111142D01*
X127960476Y-94158761D01*
X127865238Y-94206380D01*
X127770000Y-94206380D01*
X127674761Y-94158761D01*
X127627142Y-94111142D01*
X127579523Y-94015904D01*
X127531904Y-93825428D01*
X127531904Y-93587333D01*
X127579523Y-93396857D01*
X127627142Y-93301619D01*
X127674761Y-93254000D01*
X127770000Y-93206380D01*
X128722380Y-93206380D02*
X128817619Y-93206380D01*
X128912857Y-93254000D01*
X128960476Y-93301619D01*
X129008095Y-93396857D01*
X129055714Y-93587333D01*
X129055714Y-93825428D01*
X129008095Y-94015904D01*
X128960476Y-94111142D01*
X128912857Y-94158761D01*
X128817619Y-94206380D01*
X128722380Y-94206380D01*
X128627142Y-94158761D01*
X128579523Y-94111142D01*
X128531904Y-94015904D01*
X128484285Y-93825428D01*
X128484285Y-93587333D01*
X128531904Y-93396857D01*
X128579523Y-93301619D01*
X128627142Y-93254000D01*
X128722380Y-93206380D01*
X129484285Y-93539714D02*
X129484285Y-94206380D01*
X129484285Y-93634952D02*
X129531904Y-93587333D01*
X129627142Y-93539714D01*
X129770000Y-93539714D01*
X129865238Y-93587333D01*
X129912857Y-93682571D01*
X129912857Y-94206380D01*
%TO.C,C1*%
X129897142Y-174156666D02*
X129944761Y-174204285D01*
X129992380Y-174347142D01*
X129992380Y-174442380D01*
X129944761Y-174585238D01*
X129849523Y-174680476D01*
X129754285Y-174728095D01*
X129563809Y-174775714D01*
X129420952Y-174775714D01*
X129230476Y-174728095D01*
X129135238Y-174680476D01*
X129040000Y-174585238D01*
X128992380Y-174442380D01*
X128992380Y-174347142D01*
X129040000Y-174204285D01*
X129087619Y-174156666D01*
X129992380Y-173204285D02*
X129992380Y-173775714D01*
X129992380Y-173490000D02*
X128992380Y-173490000D01*
X129135238Y-173585238D01*
X129230476Y-173680476D01*
X129278095Y-173775714D01*
X129992380Y-166219047D02*
X129992380Y-166790476D01*
X129992380Y-166504761D02*
X128992380Y-166504761D01*
X129135238Y-166600000D01*
X129230476Y-166695238D01*
X129278095Y-166790476D01*
X128992380Y-165600000D02*
X128992380Y-165504761D01*
X129040000Y-165409523D01*
X129087619Y-165361904D01*
X129182857Y-165314285D01*
X129373333Y-165266666D01*
X129611428Y-165266666D01*
X129801904Y-165314285D01*
X129897142Y-165361904D01*
X129944761Y-165409523D01*
X129992380Y-165504761D01*
X129992380Y-165600000D01*
X129944761Y-165695238D01*
X129897142Y-165742857D01*
X129801904Y-165790476D01*
X129611428Y-165838095D01*
X129373333Y-165838095D01*
X129182857Y-165790476D01*
X129087619Y-165742857D01*
X129040000Y-165695238D01*
X128992380Y-165600000D01*
X128992380Y-164647619D02*
X128992380Y-164552380D01*
X129040000Y-164457142D01*
X129087619Y-164409523D01*
X129182857Y-164361904D01*
X129373333Y-164314285D01*
X129611428Y-164314285D01*
X129801904Y-164361904D01*
X129897142Y-164409523D01*
X129944761Y-164457142D01*
X129992380Y-164552380D01*
X129992380Y-164647619D01*
X129944761Y-164742857D01*
X129897142Y-164790476D01*
X129801904Y-164838095D01*
X129611428Y-164885714D01*
X129373333Y-164885714D01*
X129182857Y-164838095D01*
X129087619Y-164790476D01*
X129040000Y-164742857D01*
X128992380Y-164647619D01*
X129325714Y-163885714D02*
X129992380Y-163885714D01*
X129420952Y-163885714D02*
X129373333Y-163838095D01*
X129325714Y-163742857D01*
X129325714Y-163600000D01*
X129373333Y-163504761D01*
X129468571Y-163457142D01*
X129992380Y-163457142D01*
%TD*%
M02*
