<?xml version="1.0" standalone="no"?>
 <!DOCTYPE svg PUBLIC "-//W3C//DTD SVG 1.1//EN" 
 "http://www.w3.org/Graphics/SVG/1.1/DTD/svg11.dtd"> 
<svg
  xmlns:svg="http://www.w3.org/2000/svg"
  xmlns="http://www.w3.org/2000/svg"
  xmlns:xlink="http://www.w3.org/1999/xlink"
  version="1.1"
  width="29.700220cm" height="21.000720cm" viewBox="0 0 116930 82680">
<title>SVG Picture created as KickDrumPanel-F_SilkS.svg date 2022/12/17 09:46:12 </title>
  <desc>Picture generated by PCBNEW </desc>
<g style="fill:#000000; fill-opacity:1;stroke:#000000; stroke-opacity:1;
stroke-linecap:round; stroke-linejoin:round;"
 transform="translate(0 0) scale(1 1)">
</g>
<g style="fill:#000000; fill-opacity:0.0; 
stroke:#000000; stroke-width:-0.000393701; stroke-opacity:1; 
stroke-linecap:round; stroke-linejoin:round;">
</g>
<g style="fill:#000000; fill-opacity:0.0; 
stroke:#000000; stroke-width:196.85; stroke-opacity:1; 
stroke-linecap:round; stroke-linejoin:round;">
<text x="62600" y="53934.3"
textLength="7149.98" font-size="2624.67" lengthAdjust="spacingAndGlyphs"
text-anchor="middle" opacity="0">KICK</text>
<path d="M59647 53840
L59647 51872
" />
<path d="M60772 53840
L59928 52715
" />
<path d="M60772 51872
L59647 52996
" />
<path d="M61615 53840
L61615 51872
" />
<path d="M63677 53653
L63584 53746
L63303 53840
L63115 53840
L62834 53746
L62646 53559
L62553 53371
L62459 52996
L62459 52715
L62553 52340
L62646 52153
L62834 51965
L63115 51872
L63303 51872
L63584 51965
L63677 52059
" />
<path d="M64521 53840
L64521 51872
" />
<path d="M65646 53840
L64802 52715
" />
<path d="M65646 51872
L64521 52996
" />
</g>
<g style="fill:#000000; fill-opacity:0.0; 
stroke:#000000; stroke-width:59.0551; stroke-opacity:1; 
stroke-linecap:round; stroke-linejoin:round;">
<text x="64750" y="66122"
textLength="1999.44" font-size="524.934" lengthAdjust="spacingAndGlyphs"
text-anchor="middle" opacity="0">ALLEN</text>
<path d="M63953 65990
L64140 65990
" />
<path d="M63915 66103
L64046 65709
L64178 66103
" />
<path d="M64496 66103
L64309 66103
L64309 65709
" />
<path d="M64815 66103
L64628 66103
L64628 65709
" />
<path d="M64946 65897
L65078 65897
" />
<path d="M65134 66103
L64946 66103
L64946 65709
L65134 65709
" />
<path d="M65303 66103
L65303 65709
L65528 66103
L65528 65709
" />
<text x="64750" y="66771.7"
textLength="2026.53" font-size="524.934" lengthAdjust="spacingAndGlyphs"
text-anchor="middle" opacity="0">RANCH</text>
<path d="M64093 66752
L63962 66565
" />
<path d="M63868 66752
L63868 66359
L64018 66359
L64056 66377
L64075 66396
L64093 66434
L64093 66490
L64075 66527
L64056 66546
L64018 66565
L63868 66565
" />
<path d="M64243 66640
L64431 66640
" />
<path d="M64206 66752
L64337 66359
L64468 66752
" />
<path d="M64600 66752
L64600 66359
L64824 66752
L64824 66359
" />
<path d="M65237 66715
L65218 66734
L65162 66752
L65124 66752
L65068 66734
L65031 66696
L65012 66659
L64993 66584
L64993 66527
L65012 66452
L65031 66415
L65068 66377
L65124 66359
L65162 66359
L65218 66377
L65237 66396
" />
<path d="M65406 66752
L65406 66359
" />
<path d="M65406 66546
L65631 66546
" />
<path d="M65631 66752
L65631 66359
" />
<text x="64450" y="56746.9"
textLength="1201.63" font-size="524.934" lengthAdjust="spacingAndGlyphs"
text-anchor="middle" opacity="0">OUT</text>
<path d="M64056 56334
L64131 56334
L64168 56353
L64206 56390
L64225 56465
L64225 56596
L64206 56671
L64168 56709
L64131 56728
L64056 56728
L64018 56709
L63981 56671
L63962 56596
L63962 56465
L63981 56390
L64018 56353
L64056 56334
" />
<path d="M64393 56334
L64393 56653
L64412 56690
L64431 56709
L64468 56728
L64543 56728
L64581 56709
L64599 56690
L64618 56653
L64618 56334
" />
<path d="M64749 56334
L64974 56334
" />
<path d="M64862 56728
L64862 56334
" />
<text x="60700" y="56746.9"
textLength="2363.99" font-size="524.934" lengthAdjust="spacingAndGlyphs"
text-anchor="middle" opacity="0">GATE IN</text>
<path d="M59856 56353
L59818 56334
L59762 56334
L59706 56353
L59668 56390
L59650 56428
L59631 56503
L59631 56559
L59650 56634
L59668 56671
L59706 56709
L59762 56728
L59800 56728
L59856 56709
L59875 56690
L59875 56559
L59800 56559
" />
<path d="M60025 56615
L60212 56615
" />
<path d="M59987 56728
L60118 56334
L60250 56728
" />
<path d="M60325 56334
L60550 56334
" />
<path d="M60437 56728
L60437 56334
" />
<path d="M60681 56521
L60812 56521
" />
<path d="M60868 56728
L60681 56728
L60681 56334
L60868 56334
" />
<path d="M61337 56728
L61337 56334
" />
<path d="M61524 56728
L61524 56334
L61749 56728
L61749 56334
" />
</g>
<g style="fill:#000000; fill-opacity:0.0; 
stroke:#000000; stroke-width:78.7402; stroke-opacity:1; 
stroke-linecap:round; stroke-linejoin:round;">
<g transform="rotate(-90 65850 46300)">
<text x="65850" y="46693.7"
textLength="3038.9" font-size="1049.87" lengthAdjust="spacingAndGlyphs"
text-anchor="middle" opacity="0">TONE</text>
</g>
<path d="M65418 47706
L65418 47256
" />
<path d="M66206 47481
L65418 47481
" />
<path d="M65418 46843
L65418 46693
L65456 46618
L65531 46543
L65681 46506
L65943 46506
L66093 46543
L66168 46618
L66206 46693
L66206 46843
L66168 46918
L66093 46993
L65943 47031
L65681 47031
L65531 46993
L65456 46918
L65418 46843
" />
<path d="M66206 46168
L65418 46168
L66206 45718
L65418 45718
" />
<path d="M65793 45343
L65793 45081
" />
<path d="M66206 44968
L66206 45343
L65418 45343
L65418 44968
" />
<g transform="rotate(-90 65850 39000)">
<text x="65850" y="39393.7"
textLength="4826.77" font-size="1049.87" lengthAdjust="spacingAndGlyphs"
text-anchor="middle" opacity="0">DISTORT</text>
</g>
<path d="M66206 41174
L65418 41174
L65418 40987
L65456 40874
L65531 40799
L65606 40762
L65756 40724
L65868 40724
L66018 40762
L66093 40799
L66168 40874
L66206 40987
L66206 41174
" />
<path d="M66206 40387
L65418 40387
" />
<path d="M66168 40049
L66206 39937
L66206 39749
L66168 39674
L66131 39637
L66056 39599
L65981 39599
L65906 39637
L65868 39674
L65831 39749
L65793 39899
L65756 39974
L65718 40012
L65643 40049
L65568 40049
L65493 40012
L65456 39974
L65418 39899
L65418 39712
L65456 39599
" />
<path d="M65418 39374
L65418 38925
" />
<path d="M66206 39149
L65418 39149
" />
<path d="M65418 38512
L65418 38362
L65456 38287
L65531 38212
L65681 38175
L65943 38175
L66093 38212
L66168 38287
L66206 38362
L66206 38512
L66168 38587
L66093 38662
L65943 38700
L65681 38700
L65531 38662
L65456 38587
L65418 38512
" />
<path d="M66206 37387
L65831 37650
" />
<path d="M66206 37837
L65418 37837
L65418 37537
L65456 37462
L65493 37425
L65568 37387
L65681 37387
L65756 37425
L65793 37462
L65831 37537
L65831 37837
" />
<path d="M65418 37162
L65418 36712
" />
<path d="M66206 36937
L65418 36937
" />
<g transform="rotate(-90 65850 31800)">
<text x="65850" y="32193.7"
textLength="3739.41" font-size="1049.87" lengthAdjust="spacingAndGlyphs"
text-anchor="middle" opacity="0">DECAY</text>
</g>
<path d="M66206 33431
L65418 33431
L65418 33243
L65456 33131
L65531 33056
L65606 33018
L65756 32981
L65868 32981
L66018 33018
L66093 33056
L66168 33131
L66206 33243
L66206 33431
" />
<path d="M65793 32643
L65793 32381
" />
<path d="M66206 32268
L66206 32643
L65418 32643
L65418 32268
" />
<path d="M66131 31481
L66168 31518
L66206 31631
L66206 31706
L66168 31818
L66093 31893
L66018 31931
L65868 31968
L65756 31968
L65606 31931
L65531 31893
L65456 31818
L65418 31706
L65418 31631
L65456 31518
L65493 31481
" />
<path d="M65981 31181
L65981 30806
" />
<path d="M66206 31256
L65418 30993
L66206 30731
" />
<path d="M65831 30318
L66206 30318
" />
<path d="M65418 30581
L65831 30318
L65418 30056
" />
<g transform="rotate(-90 65850 24600)">
<text x="65850" y="24993.7"
textLength="3101.99" font-size="1049.87" lengthAdjust="spacingAndGlyphs"
text-anchor="middle" opacity="0">FREQ</text>
</g>
<path d="M65793 25649
L65793 25912
" />
<path d="M66206 25912
L65418 25912
L65418 25537
" />
<path d="M66206 24787
L65831 25049
" />
<path d="M66206 25237
L65418 25237
L65418 24937
L65456 24862
L65493 24824
L65568 24787
L65681 24787
L65756 24824
L65793 24862
L65831 24937
L65831 25237
" />
<path d="M65793 24450
L65793 24187
" />
<path d="M66206 24075
L66206 24450
L65418 24450
L65418 24075
" />
<path d="M66281 23212
L66243 23287
L66168 23362
L66056 23475
L66018 23550
L66018 23625
" />
<path d="M66206 23587
L66168 23662
L66093 23737
L65943 23775
L65681 23775
L65531 23737
L65456 23662
L65418 23587
L65418 23437
L65456 23362
L65531 23287
L65681 23250
L65943 23250
L66093 23287
L66168 23362
L66206 23437
L66206 23587
" />
<g >
</g>
</g> 
</svg>
