%TF.GenerationSoftware,KiCad,Pcbnew,(5.1.6-0)*%
%TF.CreationDate,2022-12-04T14:57:16-05:00*%
%TF.ProjectId,KickDrum,4b69636b-4472-4756-9d2e-6b696361645f,rev?*%
%TF.SameCoordinates,Original*%
%TF.FileFunction,Copper,L1,Top*%
%TF.FilePolarity,Positive*%
%FSLAX46Y46*%
G04 Gerber Fmt 4.6, Leading zero omitted, Abs format (unit mm)*
G04 Created by KiCad (PCBNEW (5.1.6-0)) date 2022-12-04 14:57:16*
%MOMM*%
%LPD*%
G01*
G04 APERTURE LIST*
%TA.AperFunction,ComponentPad*%
%ADD10C,2.000000*%
%TD*%
%TA.AperFunction,ComponentPad*%
%ADD11C,1.300000*%
%TD*%
%TA.AperFunction,SMDPad,CuDef*%
%ADD12R,1.600000X3.500000*%
%TD*%
%TA.AperFunction,SMDPad,CuDef*%
%ADD13R,0.600000X1.500000*%
%TD*%
%TA.AperFunction,SMDPad,CuDef*%
%ADD14R,1.300000X1.500000*%
%TD*%
%TA.AperFunction,SMDPad,CuDef*%
%ADD15R,1.500000X1.300000*%
%TD*%
%TA.AperFunction,ComponentPad*%
%ADD16C,1.800000*%
%TD*%
%TA.AperFunction,ComponentPad*%
%ADD17R,1.700000X1.700000*%
%TD*%
%TA.AperFunction,ComponentPad*%
%ADD18O,1.700000X1.700000*%
%TD*%
%TA.AperFunction,SMDPad,CuDef*%
%ADD19R,0.800000X0.900000*%
%TD*%
%TA.AperFunction,SMDPad,CuDef*%
%ADD20R,0.900000X0.800000*%
%TD*%
%TA.AperFunction,SMDPad,CuDef*%
%ADD21R,1.500000X1.250000*%
%TD*%
%TA.AperFunction,SMDPad,CuDef*%
%ADD22R,1.250000X1.500000*%
%TD*%
%TA.AperFunction,ViaPad*%
%ADD23C,0.800000*%
%TD*%
%TA.AperFunction,Conductor*%
%ADD24C,0.250000*%
%TD*%
%TA.AperFunction,Conductor*%
%ADD25C,0.254000*%
%TD*%
G04 APERTURE END LIST*
D10*
%TO.P,FREQ1,*%
%TO.N,*%
X117120000Y-81280000D03*
X126720000Y-81280000D03*
D11*
%TO.P,FREQ1,3*%
%TO.N,Net-(FREQ1-Pad3)*%
X119420000Y-88780000D03*
%TO.P,FREQ1,2*%
%TO.N,GND*%
X121920000Y-88780000D03*
%TO.P,FREQ1,1*%
X124420000Y-88780000D03*
%TD*%
D12*
%TO.P,C8,1*%
%TO.N,GND*%
X117188000Y-142588000D03*
%TO.P,C8,2*%
%TO.N,Net-(C8-Pad2)*%
X117188000Y-147988000D03*
%TD*%
%TO.P,C7,1*%
%TO.N,Net-(C7-Pad1)*%
X125984000Y-147988000D03*
%TO.P,C7,2*%
%TO.N,GND*%
X125984000Y-142588000D03*
%TD*%
D13*
%TO.P,U1,1*%
%TO.N,Net-(R3-Pad1)*%
X125730000Y-105885000D03*
%TO.P,U1,2*%
%TO.N,Net-(R2-Pad1)*%
X124460000Y-105885000D03*
%TO.P,U1,3*%
%TO.N,Net-(C1-Pad1)*%
X123190000Y-105885000D03*
%TO.P,U1,4*%
%TO.N,Net-(C7-Pad1)*%
X121920000Y-105885000D03*
%TO.P,U1,5*%
%TO.N,Net-(D2-Pad1)*%
X120650000Y-105885000D03*
%TO.P,U1,6*%
%TO.N,Net-(C3-Pad1)*%
X119380000Y-105885000D03*
%TO.P,U1,7*%
%TO.N,Net-(C5-Pad2)*%
X118110000Y-105885000D03*
%TO.P,U1,8*%
%TO.N,Net-(D5-Pad1)*%
X118110000Y-111285000D03*
%TO.P,U1,9*%
%TO.N,Net-(D5-Pad2)*%
X119380000Y-111285000D03*
%TO.P,U1,10*%
%TO.N,Net-(R13-Pad1)*%
X120650000Y-111285000D03*
%TO.P,U1,11*%
%TO.N,Net-(C8-Pad2)*%
X121920000Y-111285000D03*
%TO.P,U1,12*%
%TO.N,Net-(C6-Pad2)*%
X123190000Y-111285000D03*
%TO.P,U1,13*%
%TO.N,Net-(R18-Pad1)*%
X124460000Y-111285000D03*
%TO.P,U1,14*%
%TO.N,Net-(R19-Pad2)*%
X125730000Y-111285000D03*
%TD*%
D10*
%TO.P,TONE1,*%
%TO.N,*%
X126720000Y-136525000D03*
X117120000Y-136525000D03*
D11*
%TO.P,TONE1,3*%
%TO.N,Net-(C6-Pad2)*%
X124420000Y-129025000D03*
%TO.P,TONE1,2*%
X121920000Y-129025000D03*
%TO.P,TONE1,1*%
%TO.N,Net-(R16-Pad1)*%
X119420000Y-129025000D03*
%TD*%
D10*
%TO.P,DIST1,*%
%TO.N,*%
X117120000Y-118110000D03*
X126720000Y-118110000D03*
D11*
%TO.P,DIST1,3*%
%TO.N,Net-(D5-Pad1)*%
X119420000Y-125610000D03*
%TO.P,DIST1,2*%
X121920000Y-125610000D03*
%TO.P,DIST1,1*%
%TO.N,Net-(D5-Pad2)*%
X124420000Y-125610000D03*
%TD*%
D10*
%TO.P,DECAY1,*%
%TO.N,*%
X126720000Y-99695000D03*
X117120000Y-99695000D03*
D11*
%TO.P,DECAY1,3*%
%TO.N,Net-(DECAY1-Pad3)*%
X124420000Y-92195000D03*
%TO.P,DECAY1,2*%
%TO.N,GND*%
X121920000Y-92195000D03*
%TO.P,DECAY1,1*%
X119420000Y-92195000D03*
%TD*%
D14*
%TO.P,R21,1*%
%TO.N,Net-(OUT1-Pad3)*%
X114300000Y-171530000D03*
%TO.P,R21,2*%
%TO.N,GND*%
X114300000Y-168830000D03*
%TD*%
%TO.P,R20,1*%
%TO.N,Net-(R19-Pad2)*%
X119380000Y-168830000D03*
%TO.P,R20,2*%
%TO.N,Net-(OUT1-Pad3)*%
X119380000Y-171530000D03*
%TD*%
D15*
%TO.P,R19,1*%
%TO.N,Net-(R18-Pad1)*%
X123618000Y-113792000D03*
%TO.P,R19,2*%
%TO.N,Net-(R19-Pad2)*%
X126318000Y-113792000D03*
%TD*%
%TO.P,R18,1*%
%TO.N,Net-(R18-Pad1)*%
X123444000Y-116332000D03*
%TO.P,R18,2*%
%TO.N,GND*%
X120744000Y-116332000D03*
%TD*%
%TO.P,R17,1*%
%TO.N,Net-(C6-Pad2)*%
X125142000Y-132588000D03*
%TO.P,R17,2*%
%TO.N,GND*%
X127842000Y-132588000D03*
%TD*%
D14*
%TO.P,R16,1*%
%TO.N,Net-(R16-Pad1)*%
X115824000Y-128858000D03*
%TO.P,R16,2*%
%TO.N,Net-(D5-Pad1)*%
X115824000Y-126158000D03*
%TD*%
D15*
%TO.P,R15,1*%
%TO.N,Net-(R13-Pad1)*%
X114474000Y-114300000D03*
%TO.P,R15,2*%
%TO.N,GND*%
X117174000Y-114300000D03*
%TD*%
D14*
%TO.P,R14,1*%
%TO.N,Net-(D5-Pad2)*%
X128016000Y-126158000D03*
%TO.P,R14,2*%
%TO.N,GND*%
X128016000Y-128858000D03*
%TD*%
%TO.P,R13,1*%
%TO.N,Net-(R13-Pad1)*%
X114300000Y-109888000D03*
%TO.P,R13,2*%
%TO.N,Net-(C5-Pad2)*%
X114300000Y-107188000D03*
%TD*%
%TO.P,R12,1*%
%TO.N,Net-(C4-Pad2)*%
X113792000Y-82964000D03*
%TO.P,R12,2*%
%TO.N,Net-(C5-Pad2)*%
X113792000Y-80264000D03*
%TD*%
%TO.P,R11,1*%
%TO.N,Net-(C3-Pad2)*%
X114300000Y-96346000D03*
%TO.P,R11,2*%
%TO.N,Net-(FREQ1-Pad3)*%
X114300000Y-93646000D03*
%TD*%
D15*
%TO.P,R10,1*%
%TO.N,Net-(DECAY1-Pad3)*%
X116666000Y-89916000D03*
%TO.P,R10,2*%
%TO.N,Net-(C4-Pad1)*%
X113966000Y-89916000D03*
%TD*%
%TO.P,R9,1*%
%TO.N,Net-(C3-Pad1)*%
X118698000Y-77724000D03*
%TO.P,R9,2*%
%TO.N,Net-(C5-Pad2)*%
X115998000Y-77724000D03*
%TD*%
D14*
%TO.P,R8,1*%
%TO.N,Net-(C3-Pad1)*%
X121920000Y-80264000D03*
%TO.P,R8,2*%
%TO.N,Net-(C4-Pad2)*%
X121920000Y-82964000D03*
%TD*%
%TO.P,R7,1*%
%TO.N,Net-(D2-Pad1)*%
X123444000Y-99234000D03*
%TO.P,R7,2*%
%TO.N,GND*%
X123444000Y-101934000D03*
%TD*%
D15*
%TO.P,R6,1*%
%TO.N,Net-(C2-Pad2)*%
X127334000Y-86360000D03*
%TO.P,R6,2*%
%TO.N,GND*%
X124634000Y-86360000D03*
%TD*%
%TO.P,R5,1*%
%TO.N,Net-(C2-Pad1)*%
X127334000Y-84328000D03*
%TO.P,R5,2*%
%TO.N,GND*%
X124634000Y-84328000D03*
%TD*%
D14*
%TO.P,R4,1*%
%TO.N,Net-(C2-Pad1)*%
X129540000Y-98552000D03*
%TO.P,R4,2*%
%TO.N,Net-(R3-Pad1)*%
X129540000Y-101252000D03*
%TD*%
%TO.P,R3,1*%
%TO.N,Net-(R3-Pad1)*%
X129540000Y-104140000D03*
%TO.P,R3,2*%
%TO.N,Net-(R2-Pad1)*%
X129540000Y-106840000D03*
%TD*%
%TO.P,R2,1*%
%TO.N,Net-(R2-Pad1)*%
X129540000Y-109394000D03*
%TO.P,R2,2*%
%TO.N,GND*%
X129540000Y-112094000D03*
%TD*%
%TO.P,R1,1*%
%TO.N,Net-(C1-Pad1)*%
X123190000Y-168910000D03*
%TO.P,R1,2*%
%TO.N,Net-(GATE_IN1-Pad3)*%
X123190000Y-171610000D03*
%TD*%
D16*
%TO.P,OUT1,3*%
%TO.N,Net-(OUT1-Pad3)*%
X116840000Y-174465000D03*
%TO.P,OUT1,1*%
%TO.N,GND*%
X116840000Y-163065000D03*
%TO.P,OUT1,2*%
%TO.N,Net-(OUT1-Pad2)*%
X116840000Y-166165000D03*
%TD*%
D17*
%TO.P,J2,1*%
%TO.N,Net-(C7-Pad1)*%
X127000000Y-153924000D03*
D18*
%TO.P,J2,2*%
X127000000Y-156464000D03*
%TO.P,J2,3*%
%TO.N,GND*%
X124460000Y-153924000D03*
%TO.P,J2,4*%
X124460000Y-156464000D03*
%TO.P,J2,5*%
X121920000Y-153924000D03*
%TO.P,J2,6*%
X121920000Y-156464000D03*
%TO.P,J2,7*%
X119380000Y-153924000D03*
%TO.P,J2,8*%
X119380000Y-156464000D03*
%TO.P,J2,9*%
%TO.N,Net-(C8-Pad2)*%
X116840000Y-153924000D03*
%TO.P,J2,10*%
X116840000Y-156464000D03*
%TD*%
D16*
%TO.P,GATE_IN1,3*%
%TO.N,Net-(GATE_IN1-Pad3)*%
X126365000Y-174465000D03*
%TO.P,GATE_IN1,1*%
%TO.N,GND*%
X126365000Y-163065000D03*
%TO.P,GATE_IN1,2*%
%TO.N,Net-(GATE_IN1-Pad2)*%
X126365000Y-166165000D03*
%TD*%
D19*
%TO.P,D6,1*%
%TO.N,Net-(D5-Pad2)*%
X122716000Y-120396000D03*
%TO.P,D6,2*%
%TO.N,Net-(D5-Pad1)*%
X120616000Y-120396000D03*
%TD*%
%TO.P,D5,1*%
%TO.N,Net-(D5-Pad1)*%
X120616000Y-122936000D03*
%TO.P,D5,2*%
%TO.N,Net-(D5-Pad2)*%
X122716000Y-122936000D03*
%TD*%
D20*
%TO.P,D4,1*%
%TO.N,GND*%
X117348000Y-94454000D03*
%TO.P,D4,2*%
%TO.N,Net-(C3-Pad2)*%
X117348000Y-96554000D03*
%TD*%
%TO.P,D3,1*%
%TO.N,Net-(C3-Pad2)*%
X120396000Y-96554000D03*
%TO.P,D3,2*%
%TO.N,GND*%
X120396000Y-94454000D03*
%TD*%
%TO.P,D2,1*%
%TO.N,Net-(D2-Pad1)*%
X123825000Y-97062000D03*
%TO.P,D2,2*%
%TO.N,Net-(C2-Pad2)*%
X123825000Y-94962000D03*
%TD*%
%TO.P,D1,1*%
%TO.N,Net-(C1-Pad1)*%
X126365000Y-171230000D03*
%TO.P,D1,2*%
%TO.N,GND*%
X126365000Y-169130000D03*
%TD*%
D21*
%TO.P,C6,1*%
%TO.N,GND*%
X116098000Y-132588000D03*
%TO.P,C6,2*%
%TO.N,Net-(C6-Pad2)*%
X118598000Y-132588000D03*
%TD*%
D22*
%TO.P,C5,1*%
%TO.N,Net-(C3-Pad2)*%
X114300000Y-100350000D03*
%TO.P,C5,2*%
%TO.N,Net-(C5-Pad2)*%
X114300000Y-102850000D03*
%TD*%
D21*
%TO.P,C4,1*%
%TO.N,Net-(C4-Pad1)*%
X114066000Y-86868000D03*
%TO.P,C4,2*%
%TO.N,Net-(C4-Pad2)*%
X116566000Y-86868000D03*
%TD*%
D22*
%TO.P,C3,1*%
%TO.N,Net-(C3-Pad1)*%
X120396000Y-101834000D03*
%TO.P,C3,2*%
%TO.N,Net-(C3-Pad2)*%
X120396000Y-99334000D03*
%TD*%
D21*
%TO.P,C2,1*%
%TO.N,Net-(C2-Pad1)*%
X129520000Y-95504000D03*
%TO.P,C2,2*%
%TO.N,Net-(C2-Pad2)*%
X127020000Y-95504000D03*
%TD*%
D22*
%TO.P,C1,1*%
%TO.N,Net-(C1-Pad1)*%
X129540000Y-171410000D03*
%TO.P,C1,2*%
%TO.N,GND*%
X129540000Y-168910000D03*
%TD*%
D23*
%TO.N,*%
X100965000Y-83820000D03*
%TO.N,GND*%
X120396000Y-141732000D03*
X122936000Y-143256000D03*
X125476000Y-102108000D03*
X127508000Y-102616000D03*
X119380000Y-114300000D03*
X118745000Y-116205000D03*
X127635000Y-130810000D03*
X129540000Y-164465000D03*
X114300000Y-164465000D03*
%TO.N,Net-(C6-Pad2)*%
X124460000Y-108712000D03*
%TO.N,Net-(C7-Pad1)*%
X123444000Y-104140000D03*
%TO.N,Net-(C8-Pad2)*%
X121920000Y-109728000D03*
%TD*%
D24*
%TO.N,Net-(C1-Pad1)*%
X123410000Y-169130000D02*
X123190000Y-168910000D01*
X117856000Y-170180000D02*
X121920000Y-170180000D01*
X121920000Y-170180000D02*
X123190000Y-168910000D01*
X123190000Y-105885000D02*
X123190000Y-106934000D01*
X121412000Y-108712000D02*
X113284000Y-108712000D01*
X112776000Y-109220000D02*
X112776000Y-165100000D01*
X113284000Y-108712000D02*
X112776000Y-109220000D01*
X123190000Y-106934000D02*
X121412000Y-108712000D01*
X117856000Y-170180000D02*
X113284000Y-170180000D01*
X113284000Y-170180000D02*
X112776000Y-169672000D01*
X112776000Y-169672000D02*
X112776000Y-165100000D01*
X126545000Y-171410000D02*
X126365000Y-171230000D01*
X129540000Y-171410000D02*
X126545000Y-171410000D01*
X125510000Y-171230000D02*
X123190000Y-168910000D01*
X126365000Y-171230000D02*
X125510000Y-171230000D01*
%TO.N,Net-(C2-Pad1)*%
X129540000Y-95524000D02*
X129520000Y-95504000D01*
X129540000Y-98552000D02*
X129540000Y-95524000D01*
X128524000Y-84328000D02*
X127334000Y-84328000D01*
X129520000Y-85324000D02*
X128524000Y-84328000D01*
X129520000Y-95504000D02*
X129520000Y-85324000D01*
%TO.N,Net-(C2-Pad2)*%
X127020000Y-95504000D02*
X126492000Y-95504000D01*
X123825000Y-94962000D02*
X124426000Y-94962000D01*
X124968000Y-95504000D02*
X127020000Y-95504000D01*
X124426000Y-94962000D02*
X124968000Y-95504000D01*
X127334000Y-95190000D02*
X127020000Y-95504000D01*
X127334000Y-86360000D02*
X127334000Y-95190000D01*
%TO.N,Net-(C3-Pad1)*%
X119380000Y-105885000D02*
X119380000Y-104648000D01*
X120396000Y-103632000D02*
X120396000Y-101834000D01*
X119380000Y-104648000D02*
X120396000Y-103632000D01*
X121238000Y-80264000D02*
X118698000Y-77724000D01*
X121920000Y-80264000D02*
X121238000Y-80264000D01*
X121920000Y-94996000D02*
X121920000Y-100310000D01*
X125984000Y-92964000D02*
X124968000Y-93980000D01*
X124968000Y-93980000D02*
X122936000Y-93980000D01*
X122555002Y-80264000D02*
X121920000Y-80264000D01*
X125984000Y-83692998D02*
X122555002Y-80264000D01*
X125984000Y-92964000D02*
X125984000Y-83692998D01*
X121920000Y-100310000D02*
X120396000Y-101834000D01*
X121920000Y-94996000D02*
X122936000Y-93980000D01*
%TO.N,Net-(C3-Pad2)*%
X120396000Y-99334000D02*
X120396000Y-96554000D01*
X120396000Y-96554000D02*
X117348000Y-96554000D01*
X114508000Y-96554000D02*
X114300000Y-96346000D01*
X117348000Y-96554000D02*
X114508000Y-96554000D01*
X114300000Y-100350000D02*
X114300000Y-96346000D01*
%TO.N,Net-(C4-Pad1)*%
X113966000Y-86968000D02*
X114066000Y-86868000D01*
X113966000Y-89916000D02*
X113966000Y-86968000D01*
%TO.N,Net-(C4-Pad2)*%
X121412000Y-83472000D02*
X121920000Y-82964000D01*
X116566000Y-86868000D02*
X116566000Y-83866000D01*
X121018000Y-83866000D02*
X121920000Y-82964000D01*
X116566000Y-83866000D02*
X121018000Y-83866000D01*
X114694000Y-83866000D02*
X113792000Y-82964000D01*
X116566000Y-83866000D02*
X114694000Y-83866000D01*
%TO.N,Net-(C5-Pad2)*%
X118110000Y-105885000D02*
X114521000Y-105885000D01*
X114300000Y-105664000D02*
X114300000Y-102850000D01*
X114521000Y-105885000D02*
X114300000Y-105664000D01*
X114300000Y-107188000D02*
X114300000Y-105664000D01*
X113792000Y-79930000D02*
X115998000Y-77724000D01*
X113792000Y-80264000D02*
X113792000Y-79930000D01*
X113792000Y-80264000D02*
X112776000Y-81280000D01*
X112776000Y-101326000D02*
X114300000Y-102850000D01*
X112776000Y-81280000D02*
X112776000Y-101326000D01*
%TO.N,Net-(C6-Pad2)*%
X118598000Y-132347000D02*
X121920000Y-129025000D01*
X118598000Y-132588000D02*
X118598000Y-132347000D01*
X121920000Y-129025000D02*
X124420000Y-129025000D01*
X125142000Y-129747000D02*
X124420000Y-129025000D01*
X125142000Y-132588000D02*
X125142000Y-129747000D01*
X123190000Y-111285000D02*
X123190000Y-109982000D01*
X123190000Y-109982000D02*
X124460000Y-108712000D01*
X124460000Y-108712000D02*
X124460000Y-108712000D01*
%TO.N,Net-(D2-Pad1)*%
X123444000Y-99234000D02*
X123444000Y-96935000D01*
X121920000Y-101472998D02*
X123444000Y-99948998D01*
X120650000Y-104902000D02*
X121920000Y-103632000D01*
X123444000Y-99948998D02*
X123444000Y-99234000D01*
X121920000Y-103632000D02*
X121920000Y-101472998D01*
X120650000Y-105885000D02*
X120650000Y-104902000D01*
%TO.N,Net-(D5-Pad1)*%
X120616000Y-120396000D02*
X120616000Y-122936000D01*
X120616000Y-125524000D02*
X120530000Y-125610000D01*
X120530000Y-125610000D02*
X119420000Y-125610000D01*
X120616000Y-122936000D02*
X120616000Y-125524000D01*
X121920000Y-125610000D02*
X120530000Y-125610000D01*
%TO.N,Net-(D5-Pad2)*%
X124968000Y-126158000D02*
X124420000Y-125610000D01*
X128016000Y-126158000D02*
X124968000Y-126158000D01*
X124420000Y-124640000D02*
X122716000Y-122936000D01*
X124420000Y-125610000D02*
X124420000Y-124640000D01*
X122716000Y-122936000D02*
X122716000Y-120396000D01*
X119380000Y-111285000D02*
X119380000Y-111760000D01*
X119380000Y-111760000D02*
X121920000Y-114300000D01*
X121920000Y-114300000D02*
X121920000Y-118364000D01*
X122716000Y-119160000D02*
X122716000Y-120396000D01*
X121920000Y-118364000D02*
X122716000Y-119160000D01*
%TO.N,Net-(R2-Pad1)*%
X124460000Y-105885000D02*
X124460000Y-107188000D01*
X124460000Y-107188000D02*
X126652000Y-109380000D01*
X129526000Y-109380000D02*
X129540000Y-109394000D01*
X126652000Y-109380000D02*
X129526000Y-109380000D01*
X129540000Y-109394000D02*
X129540000Y-106840000D01*
%TO.N,Net-(R3-Pad1)*%
X127795000Y-105885000D02*
X129540000Y-104140000D01*
X125730000Y-105885000D02*
X127795000Y-105885000D01*
X129540000Y-104140000D02*
X129540000Y-101252000D01*
%TO.N,Net-(R13-Pad1)*%
X120650000Y-111285000D02*
X120650000Y-109982000D01*
X120650000Y-109982000D02*
X120396000Y-109728000D01*
X114460000Y-109728000D02*
X114300000Y-109888000D01*
X120396000Y-109728000D02*
X114460000Y-109728000D01*
X114474000Y-110062000D02*
X114300000Y-109888000D01*
X114474000Y-114300000D02*
X114474000Y-110062000D01*
%TO.N,Net-(R16-Pad1)*%
X119253000Y-128858000D02*
X119420000Y-129025000D01*
X115824000Y-128858000D02*
X119253000Y-128858000D01*
%TO.N,Net-(D5-Pad1)*%
X115824000Y-122936000D02*
X115824000Y-126158000D01*
X114808000Y-117348000D02*
X114808000Y-119380000D01*
X115824000Y-120396000D02*
X115824000Y-122936000D01*
X115824000Y-116332000D02*
X114808000Y-117348000D01*
X115824000Y-112268000D02*
X115824000Y-116332000D01*
X114808000Y-119380000D02*
X115824000Y-120396000D01*
X116807000Y-111285000D02*
X115824000Y-112268000D01*
X118110000Y-111285000D02*
X116807000Y-111285000D01*
X118872000Y-126158000D02*
X119420000Y-125610000D01*
X115824000Y-126158000D02*
X118872000Y-126158000D01*
%TO.N,Net-(R18-Pad1)*%
X123444000Y-113966000D02*
X123618000Y-113792000D01*
X123444000Y-116332000D02*
X123444000Y-113966000D01*
X124460000Y-112950000D02*
X123618000Y-113792000D01*
X124460000Y-111285000D02*
X124460000Y-112950000D01*
%TO.N,Net-(R19-Pad2)*%
X125730000Y-111285000D02*
X125730000Y-112014000D01*
X125730000Y-113204000D02*
X126318000Y-113792000D01*
X125730000Y-111285000D02*
X125730000Y-113204000D01*
X126318000Y-113792000D02*
X127000000Y-113792000D01*
X127000000Y-113792000D02*
X129540000Y-116332000D01*
X129540000Y-116332000D02*
X129540000Y-157988000D01*
X129540000Y-157988000D02*
X127000000Y-160528000D01*
X127000000Y-160528000D02*
X123444000Y-160528000D01*
X123444000Y-160528000D02*
X119380000Y-164592000D01*
X119380000Y-164592000D02*
X119380000Y-168830000D01*
%TO.N,Net-(DECAY1-Pad3)*%
X124420000Y-92195000D02*
X122649000Y-90424000D01*
X117174000Y-90424000D02*
X116666000Y-89916000D01*
X122649000Y-90424000D02*
X117174000Y-90424000D01*
%TO.N,Net-(FREQ1-Pad3)*%
X119420000Y-88780000D02*
X118244000Y-88780000D01*
X118244000Y-88780000D02*
X117856000Y-88392000D01*
X115824000Y-88392000D02*
X115316000Y-88900000D01*
X117856000Y-88392000D02*
X115824000Y-88392000D01*
X115316000Y-92630000D02*
X114300000Y-93646000D01*
X115316000Y-88900000D02*
X115316000Y-92630000D01*
%TO.N,Net-(GATE_IN1-Pad3)*%
X123190000Y-171610000D02*
X123190000Y-172466000D01*
X125189000Y-174465000D02*
X126365000Y-174465000D01*
X123190000Y-172466000D02*
X125189000Y-174465000D01*
%TO.N,Net-(OUT1-Pad3)*%
X116840000Y-171704000D02*
X116666000Y-171530000D01*
X116840000Y-174465000D02*
X116840000Y-171704000D01*
X116666000Y-171530000D02*
X119380000Y-171530000D01*
X114300000Y-171530000D02*
X116666000Y-171530000D01*
%TO.N,Net-(C7-Pad1)*%
X127000000Y-156464000D02*
X127000000Y-153924000D01*
X127000000Y-153924000D02*
X127000000Y-151892000D01*
X125984000Y-150876000D02*
X125984000Y-147988000D01*
X127000000Y-151892000D02*
X125984000Y-150876000D01*
X121920000Y-105885000D02*
X121920000Y-105156000D01*
X121920000Y-105156000D02*
X122936000Y-104140000D01*
X122936000Y-104140000D02*
X123444000Y-104140000D01*
X123444000Y-104140000D02*
X123444000Y-104140000D01*
%TO.N,Net-(C8-Pad2)*%
X116840000Y-156464000D02*
X116840000Y-153924000D01*
X116840000Y-148336000D02*
X117188000Y-147988000D01*
X116840000Y-153924000D02*
X116840000Y-148336000D01*
X121920000Y-111285000D02*
X121920000Y-109728000D01*
X121920000Y-109728000D02*
X121920000Y-109728000D01*
%TD*%
D25*
%TO.N,GND*%
G36*
X126614667Y-110140000D02*
G01*
X126614676Y-110140000D01*
X126651999Y-110143676D01*
X126689322Y-110140000D01*
X128251928Y-110140000D01*
X128251928Y-110144000D01*
X128264188Y-110268482D01*
X128300498Y-110388180D01*
X128359463Y-110498494D01*
X128438815Y-110595185D01*
X128535506Y-110674537D01*
X128645820Y-110733502D01*
X128680427Y-110744000D01*
X128645820Y-110754498D01*
X128535506Y-110813463D01*
X128438815Y-110892815D01*
X128359463Y-110989506D01*
X128300498Y-111099820D01*
X128264188Y-111219518D01*
X128251928Y-111344000D01*
X128255000Y-111808250D01*
X128413750Y-111967000D01*
X129413000Y-111967000D01*
X129413000Y-111947000D01*
X129667000Y-111947000D01*
X129667000Y-111967000D01*
X129687000Y-111967000D01*
X129687000Y-112221000D01*
X129667000Y-112221000D01*
X129667000Y-113320250D01*
X129825750Y-113479000D01*
X130190000Y-113482072D01*
X130314482Y-113469812D01*
X130434180Y-113433502D01*
X130544494Y-113374537D01*
X130641185Y-113295185D01*
X130720537Y-113198494D01*
X130779502Y-113088180D01*
X130785000Y-113070054D01*
X130785001Y-168016361D01*
X130754502Y-167915820D01*
X130695537Y-167805506D01*
X130616185Y-167708815D01*
X130519494Y-167629463D01*
X130409180Y-167570498D01*
X130289482Y-167534188D01*
X130165000Y-167521928D01*
X129825750Y-167525000D01*
X129667000Y-167683750D01*
X129667000Y-168783000D01*
X129687000Y-168783000D01*
X129687000Y-169037000D01*
X129667000Y-169037000D01*
X129667000Y-169057000D01*
X129413000Y-169057000D01*
X129413000Y-169037000D01*
X128438750Y-169037000D01*
X128280000Y-169195750D01*
X128276928Y-169660000D01*
X128289188Y-169784482D01*
X128325498Y-169904180D01*
X128384463Y-170014494D01*
X128463815Y-170111185D01*
X128523296Y-170160000D01*
X128463815Y-170208815D01*
X128384463Y-170305506D01*
X128325498Y-170415820D01*
X128289188Y-170535518D01*
X128277913Y-170650000D01*
X127423971Y-170650000D01*
X127404502Y-170585820D01*
X127345537Y-170475506D01*
X127266185Y-170378815D01*
X127169494Y-170299463D01*
X127059180Y-170240498D01*
X126939482Y-170204188D01*
X126815000Y-170191928D01*
X125915000Y-170191928D01*
X125790518Y-170204188D01*
X125670820Y-170240498D01*
X125621606Y-170266804D01*
X124884802Y-169530000D01*
X125276928Y-169530000D01*
X125289188Y-169654482D01*
X125325498Y-169774180D01*
X125384463Y-169884494D01*
X125463815Y-169981185D01*
X125560506Y-170060537D01*
X125670820Y-170119502D01*
X125790518Y-170155812D01*
X125915000Y-170168072D01*
X126079250Y-170165000D01*
X126238000Y-170006250D01*
X126238000Y-169257000D01*
X126492000Y-169257000D01*
X126492000Y-170006250D01*
X126650750Y-170165000D01*
X126815000Y-170168072D01*
X126939482Y-170155812D01*
X127059180Y-170119502D01*
X127169494Y-170060537D01*
X127266185Y-169981185D01*
X127345537Y-169884494D01*
X127404502Y-169774180D01*
X127440812Y-169654482D01*
X127453072Y-169530000D01*
X127450000Y-169415750D01*
X127291250Y-169257000D01*
X126492000Y-169257000D01*
X126238000Y-169257000D01*
X125438750Y-169257000D01*
X125280000Y-169415750D01*
X125276928Y-169530000D01*
X124884802Y-169530000D01*
X124478072Y-169123270D01*
X124478072Y-168730000D01*
X125276928Y-168730000D01*
X125280000Y-168844250D01*
X125438750Y-169003000D01*
X126238000Y-169003000D01*
X126238000Y-168253750D01*
X126492000Y-168253750D01*
X126492000Y-169003000D01*
X127291250Y-169003000D01*
X127450000Y-168844250D01*
X127453072Y-168730000D01*
X127440812Y-168605518D01*
X127404502Y-168485820D01*
X127345537Y-168375506D01*
X127266185Y-168278815D01*
X127169494Y-168199463D01*
X127095666Y-168160000D01*
X128276928Y-168160000D01*
X128280000Y-168624250D01*
X128438750Y-168783000D01*
X129413000Y-168783000D01*
X129413000Y-167683750D01*
X129254250Y-167525000D01*
X128915000Y-167521928D01*
X128790518Y-167534188D01*
X128670820Y-167570498D01*
X128560506Y-167629463D01*
X128463815Y-167708815D01*
X128384463Y-167805506D01*
X128325498Y-167915820D01*
X128289188Y-168035518D01*
X128276928Y-168160000D01*
X127095666Y-168160000D01*
X127059180Y-168140498D01*
X126939482Y-168104188D01*
X126815000Y-168091928D01*
X126650750Y-168095000D01*
X126492000Y-168253750D01*
X126238000Y-168253750D01*
X126079250Y-168095000D01*
X125915000Y-168091928D01*
X125790518Y-168104188D01*
X125670820Y-168140498D01*
X125560506Y-168199463D01*
X125463815Y-168278815D01*
X125384463Y-168375506D01*
X125325498Y-168485820D01*
X125289188Y-168605518D01*
X125276928Y-168730000D01*
X124478072Y-168730000D01*
X124478072Y-168160000D01*
X124465812Y-168035518D01*
X124429502Y-167915820D01*
X124370537Y-167805506D01*
X124291185Y-167708815D01*
X124194494Y-167629463D01*
X124084180Y-167570498D01*
X123964482Y-167534188D01*
X123840000Y-167521928D01*
X122540000Y-167521928D01*
X122415518Y-167534188D01*
X122295820Y-167570498D01*
X122185506Y-167629463D01*
X122088815Y-167708815D01*
X122009463Y-167805506D01*
X121950498Y-167915820D01*
X121914188Y-168035518D01*
X121901928Y-168160000D01*
X121901928Y-169123271D01*
X121605199Y-169420000D01*
X120668072Y-169420000D01*
X120668072Y-168080000D01*
X120655812Y-167955518D01*
X120619502Y-167835820D01*
X120560537Y-167725506D01*
X120481185Y-167628815D01*
X120384494Y-167549463D01*
X120274180Y-167490498D01*
X120154482Y-167454188D01*
X120140000Y-167452762D01*
X120140000Y-166013816D01*
X124830000Y-166013816D01*
X124830000Y-166316184D01*
X124888989Y-166612743D01*
X125004701Y-166892095D01*
X125172688Y-167143505D01*
X125386495Y-167357312D01*
X125637905Y-167525299D01*
X125917257Y-167641011D01*
X126213816Y-167700000D01*
X126516184Y-167700000D01*
X126812743Y-167641011D01*
X127092095Y-167525299D01*
X127343505Y-167357312D01*
X127557312Y-167143505D01*
X127725299Y-166892095D01*
X127841011Y-166612743D01*
X127900000Y-166316184D01*
X127900000Y-166013816D01*
X127841011Y-165717257D01*
X127725299Y-165437905D01*
X127557312Y-165186495D01*
X127343505Y-164972688D01*
X127092095Y-164804701D01*
X126812743Y-164688989D01*
X126516184Y-164630000D01*
X126213816Y-164630000D01*
X125917257Y-164688989D01*
X125637905Y-164804701D01*
X125386495Y-164972688D01*
X125172688Y-165186495D01*
X125004701Y-165437905D01*
X124888989Y-165717257D01*
X124830000Y-166013816D01*
X120140000Y-166013816D01*
X120140000Y-164906801D01*
X120917721Y-164129080D01*
X125480525Y-164129080D01*
X125564208Y-164383261D01*
X125836775Y-164514158D01*
X126129642Y-164589365D01*
X126431553Y-164605991D01*
X126730907Y-164563397D01*
X127016199Y-164463222D01*
X127165792Y-164383261D01*
X127249475Y-164129080D01*
X126365000Y-163244605D01*
X125480525Y-164129080D01*
X120917721Y-164129080D01*
X121915248Y-163131553D01*
X124824009Y-163131553D01*
X124866603Y-163430907D01*
X124966778Y-163716199D01*
X125046739Y-163865792D01*
X125300920Y-163949475D01*
X126185395Y-163065000D01*
X126544605Y-163065000D01*
X127429080Y-163949475D01*
X127683261Y-163865792D01*
X127814158Y-163593225D01*
X127889365Y-163300358D01*
X127905991Y-162998447D01*
X127863397Y-162699093D01*
X127763222Y-162413801D01*
X127683261Y-162264208D01*
X127429080Y-162180525D01*
X126544605Y-163065000D01*
X126185395Y-163065000D01*
X125300920Y-162180525D01*
X125046739Y-162264208D01*
X124915842Y-162536775D01*
X124840635Y-162829642D01*
X124824009Y-163131553D01*
X121915248Y-163131553D01*
X123045881Y-162000920D01*
X125480525Y-162000920D01*
X126365000Y-162885395D01*
X127249475Y-162000920D01*
X127165792Y-161746739D01*
X126893225Y-161615842D01*
X126600358Y-161540635D01*
X126298447Y-161524009D01*
X125999093Y-161566603D01*
X125713801Y-161666778D01*
X125564208Y-161746739D01*
X125480525Y-162000920D01*
X123045881Y-162000920D01*
X123758802Y-161288000D01*
X126962678Y-161288000D01*
X127000000Y-161291676D01*
X127037322Y-161288000D01*
X127037333Y-161288000D01*
X127148986Y-161277003D01*
X127292247Y-161233546D01*
X127424276Y-161162974D01*
X127540001Y-161068001D01*
X127563804Y-161038997D01*
X130051008Y-158551795D01*
X130080001Y-158528001D01*
X130103795Y-158499008D01*
X130103799Y-158499004D01*
X130174973Y-158412277D01*
X130174974Y-158412276D01*
X130245546Y-158280247D01*
X130289003Y-158136986D01*
X130300000Y-158025333D01*
X130300000Y-158025324D01*
X130303676Y-157988001D01*
X130300000Y-157950678D01*
X130300000Y-116369322D01*
X130303676Y-116331999D01*
X130300000Y-116294676D01*
X130300000Y-116294667D01*
X130289003Y-116183014D01*
X130245546Y-116039753D01*
X130174974Y-115907724D01*
X130161811Y-115891685D01*
X130103799Y-115820996D01*
X130103795Y-115820992D01*
X130080001Y-115791999D01*
X130051009Y-115768206D01*
X127706072Y-113423271D01*
X127706072Y-113142000D01*
X127693812Y-113017518D01*
X127657502Y-112897820D01*
X127628735Y-112844000D01*
X128251928Y-112844000D01*
X128264188Y-112968482D01*
X128300498Y-113088180D01*
X128359463Y-113198494D01*
X128438815Y-113295185D01*
X128535506Y-113374537D01*
X128645820Y-113433502D01*
X128765518Y-113469812D01*
X128890000Y-113482072D01*
X129254250Y-113479000D01*
X129413000Y-113320250D01*
X129413000Y-112221000D01*
X128413750Y-112221000D01*
X128255000Y-112379750D01*
X128251928Y-112844000D01*
X127628735Y-112844000D01*
X127598537Y-112787506D01*
X127519185Y-112690815D01*
X127422494Y-112611463D01*
X127312180Y-112552498D01*
X127192482Y-112516188D01*
X127068000Y-112503928D01*
X126490000Y-112503928D01*
X126490000Y-112475444D01*
X126560537Y-112389494D01*
X126619502Y-112279180D01*
X126655812Y-112159482D01*
X126668072Y-112035000D01*
X126668072Y-110535000D01*
X126655812Y-110410518D01*
X126619502Y-110290820D01*
X126560537Y-110180506D01*
X126519611Y-110130638D01*
X126614667Y-110140000D01*
G37*
X126614667Y-110140000D02*
X126614676Y-110140000D01*
X126651999Y-110143676D01*
X126689322Y-110140000D01*
X128251928Y-110140000D01*
X128251928Y-110144000D01*
X128264188Y-110268482D01*
X128300498Y-110388180D01*
X128359463Y-110498494D01*
X128438815Y-110595185D01*
X128535506Y-110674537D01*
X128645820Y-110733502D01*
X128680427Y-110744000D01*
X128645820Y-110754498D01*
X128535506Y-110813463D01*
X128438815Y-110892815D01*
X128359463Y-110989506D01*
X128300498Y-111099820D01*
X128264188Y-111219518D01*
X128251928Y-111344000D01*
X128255000Y-111808250D01*
X128413750Y-111967000D01*
X129413000Y-111967000D01*
X129413000Y-111947000D01*
X129667000Y-111947000D01*
X129667000Y-111967000D01*
X129687000Y-111967000D01*
X129687000Y-112221000D01*
X129667000Y-112221000D01*
X129667000Y-113320250D01*
X129825750Y-113479000D01*
X130190000Y-113482072D01*
X130314482Y-113469812D01*
X130434180Y-113433502D01*
X130544494Y-113374537D01*
X130641185Y-113295185D01*
X130720537Y-113198494D01*
X130779502Y-113088180D01*
X130785000Y-113070054D01*
X130785001Y-168016361D01*
X130754502Y-167915820D01*
X130695537Y-167805506D01*
X130616185Y-167708815D01*
X130519494Y-167629463D01*
X130409180Y-167570498D01*
X130289482Y-167534188D01*
X130165000Y-167521928D01*
X129825750Y-167525000D01*
X129667000Y-167683750D01*
X129667000Y-168783000D01*
X129687000Y-168783000D01*
X129687000Y-169037000D01*
X129667000Y-169037000D01*
X129667000Y-169057000D01*
X129413000Y-169057000D01*
X129413000Y-169037000D01*
X128438750Y-169037000D01*
X128280000Y-169195750D01*
X128276928Y-169660000D01*
X128289188Y-169784482D01*
X128325498Y-169904180D01*
X128384463Y-170014494D01*
X128463815Y-170111185D01*
X128523296Y-170160000D01*
X128463815Y-170208815D01*
X128384463Y-170305506D01*
X128325498Y-170415820D01*
X128289188Y-170535518D01*
X128277913Y-170650000D01*
X127423971Y-170650000D01*
X127404502Y-170585820D01*
X127345537Y-170475506D01*
X127266185Y-170378815D01*
X127169494Y-170299463D01*
X127059180Y-170240498D01*
X126939482Y-170204188D01*
X126815000Y-170191928D01*
X125915000Y-170191928D01*
X125790518Y-170204188D01*
X125670820Y-170240498D01*
X125621606Y-170266804D01*
X124884802Y-169530000D01*
X125276928Y-169530000D01*
X125289188Y-169654482D01*
X125325498Y-169774180D01*
X125384463Y-169884494D01*
X125463815Y-169981185D01*
X125560506Y-170060537D01*
X125670820Y-170119502D01*
X125790518Y-170155812D01*
X125915000Y-170168072D01*
X126079250Y-170165000D01*
X126238000Y-170006250D01*
X126238000Y-169257000D01*
X126492000Y-169257000D01*
X126492000Y-170006250D01*
X126650750Y-170165000D01*
X126815000Y-170168072D01*
X126939482Y-170155812D01*
X127059180Y-170119502D01*
X127169494Y-170060537D01*
X127266185Y-169981185D01*
X127345537Y-169884494D01*
X127404502Y-169774180D01*
X127440812Y-169654482D01*
X127453072Y-169530000D01*
X127450000Y-169415750D01*
X127291250Y-169257000D01*
X126492000Y-169257000D01*
X126238000Y-169257000D01*
X125438750Y-169257000D01*
X125280000Y-169415750D01*
X125276928Y-169530000D01*
X124884802Y-169530000D01*
X124478072Y-169123270D01*
X124478072Y-168730000D01*
X125276928Y-168730000D01*
X125280000Y-168844250D01*
X125438750Y-169003000D01*
X126238000Y-169003000D01*
X126238000Y-168253750D01*
X126492000Y-168253750D01*
X126492000Y-169003000D01*
X127291250Y-169003000D01*
X127450000Y-168844250D01*
X127453072Y-168730000D01*
X127440812Y-168605518D01*
X127404502Y-168485820D01*
X127345537Y-168375506D01*
X127266185Y-168278815D01*
X127169494Y-168199463D01*
X127095666Y-168160000D01*
X128276928Y-168160000D01*
X128280000Y-168624250D01*
X128438750Y-168783000D01*
X129413000Y-168783000D01*
X129413000Y-167683750D01*
X129254250Y-167525000D01*
X128915000Y-167521928D01*
X128790518Y-167534188D01*
X128670820Y-167570498D01*
X128560506Y-167629463D01*
X128463815Y-167708815D01*
X128384463Y-167805506D01*
X128325498Y-167915820D01*
X128289188Y-168035518D01*
X128276928Y-168160000D01*
X127095666Y-168160000D01*
X127059180Y-168140498D01*
X126939482Y-168104188D01*
X126815000Y-168091928D01*
X126650750Y-168095000D01*
X126492000Y-168253750D01*
X126238000Y-168253750D01*
X126079250Y-168095000D01*
X125915000Y-168091928D01*
X125790518Y-168104188D01*
X125670820Y-168140498D01*
X125560506Y-168199463D01*
X125463815Y-168278815D01*
X125384463Y-168375506D01*
X125325498Y-168485820D01*
X125289188Y-168605518D01*
X125276928Y-168730000D01*
X124478072Y-168730000D01*
X124478072Y-168160000D01*
X124465812Y-168035518D01*
X124429502Y-167915820D01*
X124370537Y-167805506D01*
X124291185Y-167708815D01*
X124194494Y-167629463D01*
X124084180Y-167570498D01*
X123964482Y-167534188D01*
X123840000Y-167521928D01*
X122540000Y-167521928D01*
X122415518Y-167534188D01*
X122295820Y-167570498D01*
X122185506Y-167629463D01*
X122088815Y-167708815D01*
X122009463Y-167805506D01*
X121950498Y-167915820D01*
X121914188Y-168035518D01*
X121901928Y-168160000D01*
X121901928Y-169123271D01*
X121605199Y-169420000D01*
X120668072Y-169420000D01*
X120668072Y-168080000D01*
X120655812Y-167955518D01*
X120619502Y-167835820D01*
X120560537Y-167725506D01*
X120481185Y-167628815D01*
X120384494Y-167549463D01*
X120274180Y-167490498D01*
X120154482Y-167454188D01*
X120140000Y-167452762D01*
X120140000Y-166013816D01*
X124830000Y-166013816D01*
X124830000Y-166316184D01*
X124888989Y-166612743D01*
X125004701Y-166892095D01*
X125172688Y-167143505D01*
X125386495Y-167357312D01*
X125637905Y-167525299D01*
X125917257Y-167641011D01*
X126213816Y-167700000D01*
X126516184Y-167700000D01*
X126812743Y-167641011D01*
X127092095Y-167525299D01*
X127343505Y-167357312D01*
X127557312Y-167143505D01*
X127725299Y-166892095D01*
X127841011Y-166612743D01*
X127900000Y-166316184D01*
X127900000Y-166013816D01*
X127841011Y-165717257D01*
X127725299Y-165437905D01*
X127557312Y-165186495D01*
X127343505Y-164972688D01*
X127092095Y-164804701D01*
X126812743Y-164688989D01*
X126516184Y-164630000D01*
X126213816Y-164630000D01*
X125917257Y-164688989D01*
X125637905Y-164804701D01*
X125386495Y-164972688D01*
X125172688Y-165186495D01*
X125004701Y-165437905D01*
X124888989Y-165717257D01*
X124830000Y-166013816D01*
X120140000Y-166013816D01*
X120140000Y-164906801D01*
X120917721Y-164129080D01*
X125480525Y-164129080D01*
X125564208Y-164383261D01*
X125836775Y-164514158D01*
X126129642Y-164589365D01*
X126431553Y-164605991D01*
X126730907Y-164563397D01*
X127016199Y-164463222D01*
X127165792Y-164383261D01*
X127249475Y-164129080D01*
X126365000Y-163244605D01*
X125480525Y-164129080D01*
X120917721Y-164129080D01*
X121915248Y-163131553D01*
X124824009Y-163131553D01*
X124866603Y-163430907D01*
X124966778Y-163716199D01*
X125046739Y-163865792D01*
X125300920Y-163949475D01*
X126185395Y-163065000D01*
X126544605Y-163065000D01*
X127429080Y-163949475D01*
X127683261Y-163865792D01*
X127814158Y-163593225D01*
X127889365Y-163300358D01*
X127905991Y-162998447D01*
X127863397Y-162699093D01*
X127763222Y-162413801D01*
X127683261Y-162264208D01*
X127429080Y-162180525D01*
X126544605Y-163065000D01*
X126185395Y-163065000D01*
X125300920Y-162180525D01*
X125046739Y-162264208D01*
X124915842Y-162536775D01*
X124840635Y-162829642D01*
X124824009Y-163131553D01*
X121915248Y-163131553D01*
X123045881Y-162000920D01*
X125480525Y-162000920D01*
X126365000Y-162885395D01*
X127249475Y-162000920D01*
X127165792Y-161746739D01*
X126893225Y-161615842D01*
X126600358Y-161540635D01*
X126298447Y-161524009D01*
X125999093Y-161566603D01*
X125713801Y-161666778D01*
X125564208Y-161746739D01*
X125480525Y-162000920D01*
X123045881Y-162000920D01*
X123758802Y-161288000D01*
X126962678Y-161288000D01*
X127000000Y-161291676D01*
X127037322Y-161288000D01*
X127037333Y-161288000D01*
X127148986Y-161277003D01*
X127292247Y-161233546D01*
X127424276Y-161162974D01*
X127540001Y-161068001D01*
X127563804Y-161038997D01*
X130051008Y-158551795D01*
X130080001Y-158528001D01*
X130103795Y-158499008D01*
X130103799Y-158499004D01*
X130174973Y-158412277D01*
X130174974Y-158412276D01*
X130245546Y-158280247D01*
X130289003Y-158136986D01*
X130300000Y-158025333D01*
X130300000Y-158025324D01*
X130303676Y-157988001D01*
X130300000Y-157950678D01*
X130300000Y-116369322D01*
X130303676Y-116331999D01*
X130300000Y-116294676D01*
X130300000Y-116294667D01*
X130289003Y-116183014D01*
X130245546Y-116039753D01*
X130174974Y-115907724D01*
X130161811Y-115891685D01*
X130103799Y-115820996D01*
X130103795Y-115820992D01*
X130080001Y-115791999D01*
X130051009Y-115768206D01*
X127706072Y-113423271D01*
X127706072Y-113142000D01*
X127693812Y-113017518D01*
X127657502Y-112897820D01*
X127628735Y-112844000D01*
X128251928Y-112844000D01*
X128264188Y-112968482D01*
X128300498Y-113088180D01*
X128359463Y-113198494D01*
X128438815Y-113295185D01*
X128535506Y-113374537D01*
X128645820Y-113433502D01*
X128765518Y-113469812D01*
X128890000Y-113482072D01*
X129254250Y-113479000D01*
X129413000Y-113320250D01*
X129413000Y-112221000D01*
X128413750Y-112221000D01*
X128255000Y-112379750D01*
X128251928Y-112844000D01*
X127628735Y-112844000D01*
X127598537Y-112787506D01*
X127519185Y-112690815D01*
X127422494Y-112611463D01*
X127312180Y-112552498D01*
X127192482Y-112516188D01*
X127068000Y-112503928D01*
X126490000Y-112503928D01*
X126490000Y-112475444D01*
X126560537Y-112389494D01*
X126619502Y-112279180D01*
X126655812Y-112159482D01*
X126668072Y-112035000D01*
X126668072Y-110535000D01*
X126655812Y-110410518D01*
X126619502Y-110290820D01*
X126560537Y-110180506D01*
X126519611Y-110130638D01*
X126614667Y-110140000D01*
G36*
X113599518Y-115575812D02*
G01*
X113724000Y-115588072D01*
X115064001Y-115588072D01*
X115064001Y-116017197D01*
X114297002Y-116784196D01*
X114267999Y-116807999D01*
X114215475Y-116872000D01*
X114173026Y-116923724D01*
X114102455Y-117055753D01*
X114102454Y-117055754D01*
X114058997Y-117199015D01*
X114048000Y-117310668D01*
X114048000Y-117310678D01*
X114044324Y-117348000D01*
X114048000Y-117385323D01*
X114048001Y-119342668D01*
X114044324Y-119380000D01*
X114058998Y-119528985D01*
X114102454Y-119672246D01*
X114173026Y-119804276D01*
X114223310Y-119865546D01*
X114268000Y-119920001D01*
X114296998Y-119943799D01*
X115064000Y-120710802D01*
X115064001Y-122898658D01*
X115064000Y-122898668D01*
X115064001Y-124780762D01*
X115049518Y-124782188D01*
X114929820Y-124818498D01*
X114819506Y-124877463D01*
X114722815Y-124956815D01*
X114643463Y-125053506D01*
X114584498Y-125163820D01*
X114548188Y-125283518D01*
X114535928Y-125408000D01*
X114535928Y-126908000D01*
X114548188Y-127032482D01*
X114584498Y-127152180D01*
X114643463Y-127262494D01*
X114722815Y-127359185D01*
X114819506Y-127438537D01*
X114929820Y-127497502D01*
X114964427Y-127508000D01*
X114929820Y-127518498D01*
X114819506Y-127577463D01*
X114722815Y-127656815D01*
X114643463Y-127753506D01*
X114584498Y-127863820D01*
X114548188Y-127983518D01*
X114535928Y-128108000D01*
X114535928Y-129608000D01*
X114548188Y-129732482D01*
X114584498Y-129852180D01*
X114643463Y-129962494D01*
X114722815Y-130059185D01*
X114819506Y-130138537D01*
X114929820Y-130197502D01*
X115049518Y-130233812D01*
X115174000Y-130246072D01*
X116474000Y-130246072D01*
X116598482Y-130233812D01*
X116718180Y-130197502D01*
X116828494Y-130138537D01*
X116925185Y-130059185D01*
X117004537Y-129962494D01*
X117063502Y-129852180D01*
X117099812Y-129732482D01*
X117111087Y-129618000D01*
X118274754Y-129618000D01*
X118281247Y-129633676D01*
X118421875Y-129844140D01*
X118600860Y-130023125D01*
X118811324Y-130163753D01*
X119045179Y-130260619D01*
X119293439Y-130310000D01*
X119546561Y-130310000D01*
X119563584Y-130306614D01*
X118545271Y-131324928D01*
X117848000Y-131324928D01*
X117723518Y-131337188D01*
X117603820Y-131373498D01*
X117493506Y-131432463D01*
X117396815Y-131511815D01*
X117348000Y-131571296D01*
X117299185Y-131511815D01*
X117202494Y-131432463D01*
X117092180Y-131373498D01*
X116972482Y-131337188D01*
X116848000Y-131324928D01*
X116383750Y-131328000D01*
X116225000Y-131486750D01*
X116225000Y-132461000D01*
X116245000Y-132461000D01*
X116245000Y-132715000D01*
X116225000Y-132715000D01*
X116225000Y-133689250D01*
X116383750Y-133848000D01*
X116848000Y-133851072D01*
X116972482Y-133838812D01*
X117092180Y-133802502D01*
X117202494Y-133743537D01*
X117299185Y-133664185D01*
X117348000Y-133604704D01*
X117396815Y-133664185D01*
X117493506Y-133743537D01*
X117603820Y-133802502D01*
X117723518Y-133838812D01*
X117848000Y-133851072D01*
X119348000Y-133851072D01*
X119472482Y-133838812D01*
X119592180Y-133802502D01*
X119702494Y-133743537D01*
X119799185Y-133664185D01*
X119878537Y-133567494D01*
X119937502Y-133457180D01*
X119973812Y-133337482D01*
X119986072Y-133213000D01*
X119986072Y-132033730D01*
X121723678Y-130296124D01*
X121793439Y-130310000D01*
X122046561Y-130310000D01*
X122294821Y-130260619D01*
X122528676Y-130163753D01*
X122739140Y-130023125D01*
X122918125Y-129844140D01*
X122957641Y-129785000D01*
X123382359Y-129785000D01*
X123421875Y-129844140D01*
X123600860Y-130023125D01*
X123811324Y-130163753D01*
X124045179Y-130260619D01*
X124293439Y-130310000D01*
X124382001Y-130310000D01*
X124382000Y-131300913D01*
X124267518Y-131312188D01*
X124147820Y-131348498D01*
X124037506Y-131407463D01*
X123940815Y-131486815D01*
X123861463Y-131583506D01*
X123802498Y-131693820D01*
X123766188Y-131813518D01*
X123753928Y-131938000D01*
X123753928Y-133238000D01*
X123766188Y-133362482D01*
X123802498Y-133482180D01*
X123861463Y-133592494D01*
X123940815Y-133689185D01*
X124037506Y-133768537D01*
X124147820Y-133827502D01*
X124267518Y-133863812D01*
X124392000Y-133876072D01*
X125892000Y-133876072D01*
X126016482Y-133863812D01*
X126136180Y-133827502D01*
X126246494Y-133768537D01*
X126343185Y-133689185D01*
X126422537Y-133592494D01*
X126481502Y-133482180D01*
X126492000Y-133447573D01*
X126502498Y-133482180D01*
X126561463Y-133592494D01*
X126640815Y-133689185D01*
X126737506Y-133768537D01*
X126847820Y-133827502D01*
X126967518Y-133863812D01*
X127092000Y-133876072D01*
X127556250Y-133873000D01*
X127715000Y-133714250D01*
X127715000Y-132715000D01*
X127695000Y-132715000D01*
X127695000Y-132461000D01*
X127715000Y-132461000D01*
X127715000Y-131461750D01*
X127556250Y-131303000D01*
X127092000Y-131299928D01*
X126967518Y-131312188D01*
X126847820Y-131348498D01*
X126737506Y-131407463D01*
X126640815Y-131486815D01*
X126561463Y-131583506D01*
X126502498Y-131693820D01*
X126492000Y-131728427D01*
X126481502Y-131693820D01*
X126422537Y-131583506D01*
X126343185Y-131486815D01*
X126246494Y-131407463D01*
X126136180Y-131348498D01*
X126016482Y-131312188D01*
X125902000Y-131300913D01*
X125902000Y-129784322D01*
X125905676Y-129746999D01*
X125902000Y-129709676D01*
X125902000Y-129709667D01*
X125891987Y-129608000D01*
X126727928Y-129608000D01*
X126740188Y-129732482D01*
X126776498Y-129852180D01*
X126835463Y-129962494D01*
X126914815Y-130059185D01*
X127011506Y-130138537D01*
X127121820Y-130197502D01*
X127241518Y-130233812D01*
X127366000Y-130246072D01*
X127730250Y-130243000D01*
X127889000Y-130084250D01*
X127889000Y-128985000D01*
X126889750Y-128985000D01*
X126731000Y-129143750D01*
X126727928Y-129608000D01*
X125891987Y-129608000D01*
X125891003Y-129598014D01*
X125847546Y-129454753D01*
X125776974Y-129322724D01*
X125691637Y-129218741D01*
X125705000Y-129151561D01*
X125705000Y-128898439D01*
X125655619Y-128650179D01*
X125558753Y-128416324D01*
X125418125Y-128205860D01*
X125239140Y-128026875D01*
X125028676Y-127886247D01*
X124794821Y-127789381D01*
X124546561Y-127740000D01*
X124293439Y-127740000D01*
X124045179Y-127789381D01*
X123811324Y-127886247D01*
X123600860Y-128026875D01*
X123421875Y-128205860D01*
X123382359Y-128265000D01*
X122957641Y-128265000D01*
X122918125Y-128205860D01*
X122739140Y-128026875D01*
X122528676Y-127886247D01*
X122294821Y-127789381D01*
X122046561Y-127740000D01*
X121793439Y-127740000D01*
X121545179Y-127789381D01*
X121311324Y-127886247D01*
X121100860Y-128026875D01*
X120921875Y-128205860D01*
X120781247Y-128416324D01*
X120684381Y-128650179D01*
X120670000Y-128722479D01*
X120655619Y-128650179D01*
X120558753Y-128416324D01*
X120418125Y-128205860D01*
X120239140Y-128026875D01*
X120028676Y-127886247D01*
X119794821Y-127789381D01*
X119546561Y-127740000D01*
X119293439Y-127740000D01*
X119045179Y-127789381D01*
X118811324Y-127886247D01*
X118600860Y-128026875D01*
X118529735Y-128098000D01*
X117111087Y-128098000D01*
X117099812Y-127983518D01*
X117063502Y-127863820D01*
X117004537Y-127753506D01*
X116925185Y-127656815D01*
X116828494Y-127577463D01*
X116718180Y-127518498D01*
X116683573Y-127508000D01*
X116718180Y-127497502D01*
X116828494Y-127438537D01*
X116925185Y-127359185D01*
X117004537Y-127262494D01*
X117063502Y-127152180D01*
X117099812Y-127032482D01*
X117111087Y-126918000D01*
X118834678Y-126918000D01*
X118872000Y-126921676D01*
X118909322Y-126918000D01*
X118909333Y-126918000D01*
X119020986Y-126907003D01*
X119152785Y-126867023D01*
X119293439Y-126895000D01*
X119546561Y-126895000D01*
X119794821Y-126845619D01*
X120028676Y-126748753D01*
X120239140Y-126608125D01*
X120418125Y-126429140D01*
X120457641Y-126370000D01*
X120492678Y-126370000D01*
X120530000Y-126373676D01*
X120567322Y-126370000D01*
X120882359Y-126370000D01*
X120921875Y-126429140D01*
X121100860Y-126608125D01*
X121311324Y-126748753D01*
X121545179Y-126845619D01*
X121793439Y-126895000D01*
X122046561Y-126895000D01*
X122294821Y-126845619D01*
X122528676Y-126748753D01*
X122739140Y-126608125D01*
X122918125Y-126429140D01*
X123058753Y-126218676D01*
X123155619Y-125984821D01*
X123170000Y-125912521D01*
X123184381Y-125984821D01*
X123281247Y-126218676D01*
X123421875Y-126429140D01*
X123600860Y-126608125D01*
X123811324Y-126748753D01*
X124045179Y-126845619D01*
X124293439Y-126895000D01*
X124546561Y-126895000D01*
X124687215Y-126867023D01*
X124819014Y-126907003D01*
X124930667Y-126918000D01*
X124930676Y-126918000D01*
X124967999Y-126921676D01*
X125005322Y-126918000D01*
X126728913Y-126918000D01*
X126740188Y-127032482D01*
X126776498Y-127152180D01*
X126835463Y-127262494D01*
X126914815Y-127359185D01*
X127011506Y-127438537D01*
X127121820Y-127497502D01*
X127156427Y-127508000D01*
X127121820Y-127518498D01*
X127011506Y-127577463D01*
X126914815Y-127656815D01*
X126835463Y-127753506D01*
X126776498Y-127863820D01*
X126740188Y-127983518D01*
X126727928Y-128108000D01*
X126731000Y-128572250D01*
X126889750Y-128731000D01*
X127889000Y-128731000D01*
X127889000Y-128711000D01*
X128143000Y-128711000D01*
X128143000Y-128731000D01*
X128163000Y-128731000D01*
X128163000Y-128985000D01*
X128143000Y-128985000D01*
X128143000Y-130084250D01*
X128301750Y-130243000D01*
X128666000Y-130246072D01*
X128780000Y-130234844D01*
X128780000Y-131331456D01*
X128716482Y-131312188D01*
X128592000Y-131299928D01*
X128127750Y-131303000D01*
X127969000Y-131461750D01*
X127969000Y-132461000D01*
X127989000Y-132461000D01*
X127989000Y-132715000D01*
X127969000Y-132715000D01*
X127969000Y-133714250D01*
X128127750Y-133873000D01*
X128592000Y-133876072D01*
X128716482Y-133863812D01*
X128780000Y-133844544D01*
X128780001Y-157673196D01*
X126685199Y-159768000D01*
X123481323Y-159768000D01*
X123444000Y-159764324D01*
X123406677Y-159768000D01*
X123406667Y-159768000D01*
X123295014Y-159778997D01*
X123151753Y-159822454D01*
X123019723Y-159893026D01*
X122936083Y-159961668D01*
X122903999Y-159987999D01*
X122880201Y-160016997D01*
X118869003Y-164028196D01*
X118839999Y-164051999D01*
X118784871Y-164119174D01*
X118745026Y-164167724D01*
X118674455Y-164299753D01*
X118674454Y-164299754D01*
X118630997Y-164443015D01*
X118620000Y-164554668D01*
X118620000Y-164554678D01*
X118616324Y-164592000D01*
X118620000Y-164629323D01*
X118620001Y-167452762D01*
X118605518Y-167454188D01*
X118485820Y-167490498D01*
X118375506Y-167549463D01*
X118278815Y-167628815D01*
X118199463Y-167725506D01*
X118140498Y-167835820D01*
X118104188Y-167955518D01*
X118091928Y-168080000D01*
X118091928Y-169420000D01*
X115587013Y-169420000D01*
X115585000Y-169115750D01*
X115426250Y-168957000D01*
X114427000Y-168957000D01*
X114427000Y-168977000D01*
X114173000Y-168977000D01*
X114173000Y-168957000D01*
X114153000Y-168957000D01*
X114153000Y-168703000D01*
X114173000Y-168703000D01*
X114173000Y-167603750D01*
X114427000Y-167603750D01*
X114427000Y-168703000D01*
X115426250Y-168703000D01*
X115585000Y-168544250D01*
X115588072Y-168080000D01*
X115575812Y-167955518D01*
X115539502Y-167835820D01*
X115480537Y-167725506D01*
X115401185Y-167628815D01*
X115304494Y-167549463D01*
X115194180Y-167490498D01*
X115074482Y-167454188D01*
X114950000Y-167441928D01*
X114585750Y-167445000D01*
X114427000Y-167603750D01*
X114173000Y-167603750D01*
X114014250Y-167445000D01*
X113650000Y-167441928D01*
X113536000Y-167453156D01*
X113536000Y-166013816D01*
X115305000Y-166013816D01*
X115305000Y-166316184D01*
X115363989Y-166612743D01*
X115479701Y-166892095D01*
X115647688Y-167143505D01*
X115861495Y-167357312D01*
X116112905Y-167525299D01*
X116392257Y-167641011D01*
X116688816Y-167700000D01*
X116991184Y-167700000D01*
X117287743Y-167641011D01*
X117567095Y-167525299D01*
X117818505Y-167357312D01*
X118032312Y-167143505D01*
X118200299Y-166892095D01*
X118316011Y-166612743D01*
X118375000Y-166316184D01*
X118375000Y-166013816D01*
X118316011Y-165717257D01*
X118200299Y-165437905D01*
X118032312Y-165186495D01*
X117818505Y-164972688D01*
X117567095Y-164804701D01*
X117287743Y-164688989D01*
X116991184Y-164630000D01*
X116688816Y-164630000D01*
X116392257Y-164688989D01*
X116112905Y-164804701D01*
X115861495Y-164972688D01*
X115647688Y-165186495D01*
X115479701Y-165437905D01*
X115363989Y-165717257D01*
X115305000Y-166013816D01*
X113536000Y-166013816D01*
X113536000Y-164129080D01*
X115955525Y-164129080D01*
X116039208Y-164383261D01*
X116311775Y-164514158D01*
X116604642Y-164589365D01*
X116906553Y-164605991D01*
X117205907Y-164563397D01*
X117491199Y-164463222D01*
X117640792Y-164383261D01*
X117724475Y-164129080D01*
X116840000Y-163244605D01*
X115955525Y-164129080D01*
X113536000Y-164129080D01*
X113536000Y-163131553D01*
X115299009Y-163131553D01*
X115341603Y-163430907D01*
X115441778Y-163716199D01*
X115521739Y-163865792D01*
X115775920Y-163949475D01*
X116660395Y-163065000D01*
X117019605Y-163065000D01*
X117904080Y-163949475D01*
X118158261Y-163865792D01*
X118289158Y-163593225D01*
X118364365Y-163300358D01*
X118380991Y-162998447D01*
X118338397Y-162699093D01*
X118238222Y-162413801D01*
X118158261Y-162264208D01*
X117904080Y-162180525D01*
X117019605Y-163065000D01*
X116660395Y-163065000D01*
X115775920Y-162180525D01*
X115521739Y-162264208D01*
X115390842Y-162536775D01*
X115315635Y-162829642D01*
X115299009Y-163131553D01*
X113536000Y-163131553D01*
X113536000Y-162000920D01*
X115955525Y-162000920D01*
X116840000Y-162885395D01*
X117724475Y-162000920D01*
X117640792Y-161746739D01*
X117368225Y-161615842D01*
X117075358Y-161540635D01*
X116773447Y-161524009D01*
X116474093Y-161566603D01*
X116188801Y-161666778D01*
X116039208Y-161746739D01*
X115955525Y-162000920D01*
X113536000Y-162000920D01*
X113536000Y-153777740D01*
X115355000Y-153777740D01*
X115355000Y-154070260D01*
X115412068Y-154357158D01*
X115524010Y-154627411D01*
X115686525Y-154870632D01*
X115893368Y-155077475D01*
X116067760Y-155194000D01*
X115893368Y-155310525D01*
X115686525Y-155517368D01*
X115524010Y-155760589D01*
X115412068Y-156030842D01*
X115355000Y-156317740D01*
X115355000Y-156610260D01*
X115412068Y-156897158D01*
X115524010Y-157167411D01*
X115686525Y-157410632D01*
X115893368Y-157617475D01*
X116136589Y-157779990D01*
X116406842Y-157891932D01*
X116693740Y-157949000D01*
X116986260Y-157949000D01*
X117273158Y-157891932D01*
X117543411Y-157779990D01*
X117786632Y-157617475D01*
X117993475Y-157410632D01*
X118115195Y-157228466D01*
X118184822Y-157345355D01*
X118379731Y-157561588D01*
X118613080Y-157735641D01*
X118875901Y-157860825D01*
X119023110Y-157905476D01*
X119253000Y-157784155D01*
X119253000Y-156591000D01*
X119507000Y-156591000D01*
X119507000Y-157784155D01*
X119736890Y-157905476D01*
X119884099Y-157860825D01*
X120146920Y-157735641D01*
X120380269Y-157561588D01*
X120575178Y-157345355D01*
X120650000Y-157219745D01*
X120724822Y-157345355D01*
X120919731Y-157561588D01*
X121153080Y-157735641D01*
X121415901Y-157860825D01*
X121563110Y-157905476D01*
X121793000Y-157784155D01*
X121793000Y-156591000D01*
X122047000Y-156591000D01*
X122047000Y-157784155D01*
X122276890Y-157905476D01*
X122424099Y-157860825D01*
X122686920Y-157735641D01*
X122920269Y-157561588D01*
X123115178Y-157345355D01*
X123190000Y-157219745D01*
X123264822Y-157345355D01*
X123459731Y-157561588D01*
X123693080Y-157735641D01*
X123955901Y-157860825D01*
X124103110Y-157905476D01*
X124333000Y-157784155D01*
X124333000Y-156591000D01*
X122047000Y-156591000D01*
X121793000Y-156591000D01*
X119507000Y-156591000D01*
X119253000Y-156591000D01*
X119233000Y-156591000D01*
X119233000Y-156337000D01*
X119253000Y-156337000D01*
X119253000Y-154051000D01*
X119507000Y-154051000D01*
X119507000Y-156337000D01*
X121793000Y-156337000D01*
X121793000Y-154051000D01*
X122047000Y-154051000D01*
X122047000Y-156337000D01*
X124333000Y-156337000D01*
X124333000Y-154051000D01*
X122047000Y-154051000D01*
X121793000Y-154051000D01*
X119507000Y-154051000D01*
X119253000Y-154051000D01*
X119233000Y-154051000D01*
X119233000Y-153797000D01*
X119253000Y-153797000D01*
X119253000Y-152603845D01*
X119507000Y-152603845D01*
X119507000Y-153797000D01*
X121793000Y-153797000D01*
X121793000Y-152603845D01*
X122047000Y-152603845D01*
X122047000Y-153797000D01*
X124333000Y-153797000D01*
X124333000Y-152603845D01*
X124103110Y-152482524D01*
X123955901Y-152527175D01*
X123693080Y-152652359D01*
X123459731Y-152826412D01*
X123264822Y-153042645D01*
X123190000Y-153168255D01*
X123115178Y-153042645D01*
X122920269Y-152826412D01*
X122686920Y-152652359D01*
X122424099Y-152527175D01*
X122276890Y-152482524D01*
X122047000Y-152603845D01*
X121793000Y-152603845D01*
X121563110Y-152482524D01*
X121415901Y-152527175D01*
X121153080Y-152652359D01*
X120919731Y-152826412D01*
X120724822Y-153042645D01*
X120650000Y-153168255D01*
X120575178Y-153042645D01*
X120380269Y-152826412D01*
X120146920Y-152652359D01*
X119884099Y-152527175D01*
X119736890Y-152482524D01*
X119507000Y-152603845D01*
X119253000Y-152603845D01*
X119023110Y-152482524D01*
X118875901Y-152527175D01*
X118613080Y-152652359D01*
X118379731Y-152826412D01*
X118184822Y-153042645D01*
X118115195Y-153159534D01*
X117993475Y-152977368D01*
X117786632Y-152770525D01*
X117600000Y-152645822D01*
X117600000Y-150376072D01*
X117988000Y-150376072D01*
X118112482Y-150363812D01*
X118232180Y-150327502D01*
X118342494Y-150268537D01*
X118439185Y-150189185D01*
X118518537Y-150092494D01*
X118577502Y-149982180D01*
X118613812Y-149862482D01*
X118626072Y-149738000D01*
X118626072Y-146238000D01*
X124545928Y-146238000D01*
X124545928Y-149738000D01*
X124558188Y-149862482D01*
X124594498Y-149982180D01*
X124653463Y-150092494D01*
X124732815Y-150189185D01*
X124829506Y-150268537D01*
X124939820Y-150327502D01*
X125059518Y-150363812D01*
X125184000Y-150376072D01*
X125224000Y-150376072D01*
X125224000Y-150838677D01*
X125220324Y-150876000D01*
X125224000Y-150913322D01*
X125224000Y-150913332D01*
X125234997Y-151024985D01*
X125266344Y-151128323D01*
X125278454Y-151168246D01*
X125349026Y-151300276D01*
X125388871Y-151348826D01*
X125443999Y-151416001D01*
X125473002Y-151439804D01*
X126240001Y-152206803D01*
X126240001Y-152435928D01*
X126150000Y-152435928D01*
X126025518Y-152448188D01*
X125905820Y-152484498D01*
X125795506Y-152543463D01*
X125698815Y-152622815D01*
X125619463Y-152719506D01*
X125560498Y-152829820D01*
X125536034Y-152910466D01*
X125460269Y-152826412D01*
X125226920Y-152652359D01*
X124964099Y-152527175D01*
X124816890Y-152482524D01*
X124587000Y-152603845D01*
X124587000Y-153797000D01*
X124607000Y-153797000D01*
X124607000Y-154051000D01*
X124587000Y-154051000D01*
X124587000Y-156337000D01*
X124607000Y-156337000D01*
X124607000Y-156591000D01*
X124587000Y-156591000D01*
X124587000Y-157784155D01*
X124816890Y-157905476D01*
X124964099Y-157860825D01*
X125226920Y-157735641D01*
X125460269Y-157561588D01*
X125655178Y-157345355D01*
X125724805Y-157228466D01*
X125846525Y-157410632D01*
X126053368Y-157617475D01*
X126296589Y-157779990D01*
X126566842Y-157891932D01*
X126853740Y-157949000D01*
X127146260Y-157949000D01*
X127433158Y-157891932D01*
X127703411Y-157779990D01*
X127946632Y-157617475D01*
X128153475Y-157410632D01*
X128315990Y-157167411D01*
X128427932Y-156897158D01*
X128485000Y-156610260D01*
X128485000Y-156317740D01*
X128427932Y-156030842D01*
X128315990Y-155760589D01*
X128153475Y-155517368D01*
X128021620Y-155385513D01*
X128094180Y-155363502D01*
X128204494Y-155304537D01*
X128301185Y-155225185D01*
X128380537Y-155128494D01*
X128439502Y-155018180D01*
X128475812Y-154898482D01*
X128488072Y-154774000D01*
X128488072Y-153074000D01*
X128475812Y-152949518D01*
X128439502Y-152829820D01*
X128380537Y-152719506D01*
X128301185Y-152622815D01*
X128204494Y-152543463D01*
X128094180Y-152484498D01*
X127974482Y-152448188D01*
X127850000Y-152435928D01*
X127760000Y-152435928D01*
X127760000Y-151929322D01*
X127763676Y-151892000D01*
X127760000Y-151854677D01*
X127760000Y-151854667D01*
X127749003Y-151743014D01*
X127705546Y-151599753D01*
X127658092Y-151510974D01*
X127634974Y-151467723D01*
X127563799Y-151380997D01*
X127540001Y-151351999D01*
X127511003Y-151328201D01*
X126744000Y-150561199D01*
X126744000Y-150376072D01*
X126784000Y-150376072D01*
X126908482Y-150363812D01*
X127028180Y-150327502D01*
X127138494Y-150268537D01*
X127235185Y-150189185D01*
X127314537Y-150092494D01*
X127373502Y-149982180D01*
X127409812Y-149862482D01*
X127422072Y-149738000D01*
X127422072Y-146238000D01*
X127409812Y-146113518D01*
X127373502Y-145993820D01*
X127314537Y-145883506D01*
X127235185Y-145786815D01*
X127138494Y-145707463D01*
X127028180Y-145648498D01*
X126908482Y-145612188D01*
X126784000Y-145599928D01*
X125184000Y-145599928D01*
X125059518Y-145612188D01*
X124939820Y-145648498D01*
X124829506Y-145707463D01*
X124732815Y-145786815D01*
X124653463Y-145883506D01*
X124594498Y-145993820D01*
X124558188Y-146113518D01*
X124545928Y-146238000D01*
X118626072Y-146238000D01*
X118613812Y-146113518D01*
X118577502Y-145993820D01*
X118518537Y-145883506D01*
X118439185Y-145786815D01*
X118342494Y-145707463D01*
X118232180Y-145648498D01*
X118112482Y-145612188D01*
X117988000Y-145599928D01*
X116388000Y-145599928D01*
X116263518Y-145612188D01*
X116143820Y-145648498D01*
X116033506Y-145707463D01*
X115936815Y-145786815D01*
X115857463Y-145883506D01*
X115798498Y-145993820D01*
X115762188Y-146113518D01*
X115749928Y-146238000D01*
X115749928Y-149738000D01*
X115762188Y-149862482D01*
X115798498Y-149982180D01*
X115857463Y-150092494D01*
X115936815Y-150189185D01*
X116033506Y-150268537D01*
X116080001Y-150293389D01*
X116080000Y-152645821D01*
X115893368Y-152770525D01*
X115686525Y-152977368D01*
X115524010Y-153220589D01*
X115412068Y-153490842D01*
X115355000Y-153777740D01*
X113536000Y-153777740D01*
X113536000Y-144338000D01*
X115749928Y-144338000D01*
X115762188Y-144462482D01*
X115798498Y-144582180D01*
X115857463Y-144692494D01*
X115936815Y-144789185D01*
X116033506Y-144868537D01*
X116143820Y-144927502D01*
X116263518Y-144963812D01*
X116388000Y-144976072D01*
X116902250Y-144973000D01*
X117061000Y-144814250D01*
X117061000Y-142715000D01*
X117315000Y-142715000D01*
X117315000Y-144814250D01*
X117473750Y-144973000D01*
X117988000Y-144976072D01*
X118112482Y-144963812D01*
X118232180Y-144927502D01*
X118342494Y-144868537D01*
X118439185Y-144789185D01*
X118518537Y-144692494D01*
X118577502Y-144582180D01*
X118613812Y-144462482D01*
X118626072Y-144338000D01*
X124545928Y-144338000D01*
X124558188Y-144462482D01*
X124594498Y-144582180D01*
X124653463Y-144692494D01*
X124732815Y-144789185D01*
X124829506Y-144868537D01*
X124939820Y-144927502D01*
X125059518Y-144963812D01*
X125184000Y-144976072D01*
X125698250Y-144973000D01*
X125857000Y-144814250D01*
X125857000Y-142715000D01*
X126111000Y-142715000D01*
X126111000Y-144814250D01*
X126269750Y-144973000D01*
X126784000Y-144976072D01*
X126908482Y-144963812D01*
X127028180Y-144927502D01*
X127138494Y-144868537D01*
X127235185Y-144789185D01*
X127314537Y-144692494D01*
X127373502Y-144582180D01*
X127409812Y-144462482D01*
X127422072Y-144338000D01*
X127419000Y-142873750D01*
X127260250Y-142715000D01*
X126111000Y-142715000D01*
X125857000Y-142715000D01*
X124707750Y-142715000D01*
X124549000Y-142873750D01*
X124545928Y-144338000D01*
X118626072Y-144338000D01*
X118623000Y-142873750D01*
X118464250Y-142715000D01*
X117315000Y-142715000D01*
X117061000Y-142715000D01*
X115911750Y-142715000D01*
X115753000Y-142873750D01*
X115749928Y-144338000D01*
X113536000Y-144338000D01*
X113536000Y-140838000D01*
X115749928Y-140838000D01*
X115753000Y-142302250D01*
X115911750Y-142461000D01*
X117061000Y-142461000D01*
X117061000Y-140361750D01*
X117315000Y-140361750D01*
X117315000Y-142461000D01*
X118464250Y-142461000D01*
X118623000Y-142302250D01*
X118626072Y-140838000D01*
X124545928Y-140838000D01*
X124549000Y-142302250D01*
X124707750Y-142461000D01*
X125857000Y-142461000D01*
X125857000Y-140361750D01*
X126111000Y-140361750D01*
X126111000Y-142461000D01*
X127260250Y-142461000D01*
X127419000Y-142302250D01*
X127422072Y-140838000D01*
X127409812Y-140713518D01*
X127373502Y-140593820D01*
X127314537Y-140483506D01*
X127235185Y-140386815D01*
X127138494Y-140307463D01*
X127028180Y-140248498D01*
X126908482Y-140212188D01*
X126784000Y-140199928D01*
X126269750Y-140203000D01*
X126111000Y-140361750D01*
X125857000Y-140361750D01*
X125698250Y-140203000D01*
X125184000Y-140199928D01*
X125059518Y-140212188D01*
X124939820Y-140248498D01*
X124829506Y-140307463D01*
X124732815Y-140386815D01*
X124653463Y-140483506D01*
X124594498Y-140593820D01*
X124558188Y-140713518D01*
X124545928Y-140838000D01*
X118626072Y-140838000D01*
X118613812Y-140713518D01*
X118577502Y-140593820D01*
X118518537Y-140483506D01*
X118439185Y-140386815D01*
X118342494Y-140307463D01*
X118232180Y-140248498D01*
X118112482Y-140212188D01*
X117988000Y-140199928D01*
X117473750Y-140203000D01*
X117315000Y-140361750D01*
X117061000Y-140361750D01*
X116902250Y-140203000D01*
X116388000Y-140199928D01*
X116263518Y-140212188D01*
X116143820Y-140248498D01*
X116033506Y-140307463D01*
X115936815Y-140386815D01*
X115857463Y-140483506D01*
X115798498Y-140593820D01*
X115762188Y-140713518D01*
X115749928Y-140838000D01*
X113536000Y-140838000D01*
X113536000Y-136363967D01*
X115485000Y-136363967D01*
X115485000Y-136686033D01*
X115547832Y-137001912D01*
X115671082Y-137299463D01*
X115850013Y-137567252D01*
X116077748Y-137794987D01*
X116345537Y-137973918D01*
X116643088Y-138097168D01*
X116958967Y-138160000D01*
X117281033Y-138160000D01*
X117596912Y-138097168D01*
X117894463Y-137973918D01*
X118162252Y-137794987D01*
X118389987Y-137567252D01*
X118568918Y-137299463D01*
X118692168Y-137001912D01*
X118755000Y-136686033D01*
X118755000Y-136363967D01*
X125085000Y-136363967D01*
X125085000Y-136686033D01*
X125147832Y-137001912D01*
X125271082Y-137299463D01*
X125450013Y-137567252D01*
X125677748Y-137794987D01*
X125945537Y-137973918D01*
X126243088Y-138097168D01*
X126558967Y-138160000D01*
X126881033Y-138160000D01*
X127196912Y-138097168D01*
X127494463Y-137973918D01*
X127762252Y-137794987D01*
X127989987Y-137567252D01*
X128168918Y-137299463D01*
X128292168Y-137001912D01*
X128355000Y-136686033D01*
X128355000Y-136363967D01*
X128292168Y-136048088D01*
X128168918Y-135750537D01*
X127989987Y-135482748D01*
X127762252Y-135255013D01*
X127494463Y-135076082D01*
X127196912Y-134952832D01*
X126881033Y-134890000D01*
X126558967Y-134890000D01*
X126243088Y-134952832D01*
X125945537Y-135076082D01*
X125677748Y-135255013D01*
X125450013Y-135482748D01*
X125271082Y-135750537D01*
X125147832Y-136048088D01*
X125085000Y-136363967D01*
X118755000Y-136363967D01*
X118692168Y-136048088D01*
X118568918Y-135750537D01*
X118389987Y-135482748D01*
X118162252Y-135255013D01*
X117894463Y-135076082D01*
X117596912Y-134952832D01*
X117281033Y-134890000D01*
X116958967Y-134890000D01*
X116643088Y-134952832D01*
X116345537Y-135076082D01*
X116077748Y-135255013D01*
X115850013Y-135482748D01*
X115671082Y-135750537D01*
X115547832Y-136048088D01*
X115485000Y-136363967D01*
X113536000Y-136363967D01*
X113536000Y-133213000D01*
X114709928Y-133213000D01*
X114722188Y-133337482D01*
X114758498Y-133457180D01*
X114817463Y-133567494D01*
X114896815Y-133664185D01*
X114993506Y-133743537D01*
X115103820Y-133802502D01*
X115223518Y-133838812D01*
X115348000Y-133851072D01*
X115812250Y-133848000D01*
X115971000Y-133689250D01*
X115971000Y-132715000D01*
X114871750Y-132715000D01*
X114713000Y-132873750D01*
X114709928Y-133213000D01*
X113536000Y-133213000D01*
X113536000Y-131963000D01*
X114709928Y-131963000D01*
X114713000Y-132302250D01*
X114871750Y-132461000D01*
X115971000Y-132461000D01*
X115971000Y-131486750D01*
X115812250Y-131328000D01*
X115348000Y-131324928D01*
X115223518Y-131337188D01*
X115103820Y-131373498D01*
X114993506Y-131432463D01*
X114896815Y-131511815D01*
X114817463Y-131608506D01*
X114758498Y-131718820D01*
X114722188Y-131838518D01*
X114709928Y-131963000D01*
X113536000Y-131963000D01*
X113536000Y-115556544D01*
X113599518Y-115575812D01*
G37*
X113599518Y-115575812D02*
X113724000Y-115588072D01*
X115064001Y-115588072D01*
X115064001Y-116017197D01*
X114297002Y-116784196D01*
X114267999Y-116807999D01*
X114215475Y-116872000D01*
X114173026Y-116923724D01*
X114102455Y-117055753D01*
X114102454Y-117055754D01*
X114058997Y-117199015D01*
X114048000Y-117310668D01*
X114048000Y-117310678D01*
X114044324Y-117348000D01*
X114048000Y-117385323D01*
X114048001Y-119342668D01*
X114044324Y-119380000D01*
X114058998Y-119528985D01*
X114102454Y-119672246D01*
X114173026Y-119804276D01*
X114223310Y-119865546D01*
X114268000Y-119920001D01*
X114296998Y-119943799D01*
X115064000Y-120710802D01*
X115064001Y-122898658D01*
X115064000Y-122898668D01*
X115064001Y-124780762D01*
X115049518Y-124782188D01*
X114929820Y-124818498D01*
X114819506Y-124877463D01*
X114722815Y-124956815D01*
X114643463Y-125053506D01*
X114584498Y-125163820D01*
X114548188Y-125283518D01*
X114535928Y-125408000D01*
X114535928Y-126908000D01*
X114548188Y-127032482D01*
X114584498Y-127152180D01*
X114643463Y-127262494D01*
X114722815Y-127359185D01*
X114819506Y-127438537D01*
X114929820Y-127497502D01*
X114964427Y-127508000D01*
X114929820Y-127518498D01*
X114819506Y-127577463D01*
X114722815Y-127656815D01*
X114643463Y-127753506D01*
X114584498Y-127863820D01*
X114548188Y-127983518D01*
X114535928Y-128108000D01*
X114535928Y-129608000D01*
X114548188Y-129732482D01*
X114584498Y-129852180D01*
X114643463Y-129962494D01*
X114722815Y-130059185D01*
X114819506Y-130138537D01*
X114929820Y-130197502D01*
X115049518Y-130233812D01*
X115174000Y-130246072D01*
X116474000Y-130246072D01*
X116598482Y-130233812D01*
X116718180Y-130197502D01*
X116828494Y-130138537D01*
X116925185Y-130059185D01*
X117004537Y-129962494D01*
X117063502Y-129852180D01*
X117099812Y-129732482D01*
X117111087Y-129618000D01*
X118274754Y-129618000D01*
X118281247Y-129633676D01*
X118421875Y-129844140D01*
X118600860Y-130023125D01*
X118811324Y-130163753D01*
X119045179Y-130260619D01*
X119293439Y-130310000D01*
X119546561Y-130310000D01*
X119563584Y-130306614D01*
X118545271Y-131324928D01*
X117848000Y-131324928D01*
X117723518Y-131337188D01*
X117603820Y-131373498D01*
X117493506Y-131432463D01*
X117396815Y-131511815D01*
X117348000Y-131571296D01*
X117299185Y-131511815D01*
X117202494Y-131432463D01*
X117092180Y-131373498D01*
X116972482Y-131337188D01*
X116848000Y-131324928D01*
X116383750Y-131328000D01*
X116225000Y-131486750D01*
X116225000Y-132461000D01*
X116245000Y-132461000D01*
X116245000Y-132715000D01*
X116225000Y-132715000D01*
X116225000Y-133689250D01*
X116383750Y-133848000D01*
X116848000Y-133851072D01*
X116972482Y-133838812D01*
X117092180Y-133802502D01*
X117202494Y-133743537D01*
X117299185Y-133664185D01*
X117348000Y-133604704D01*
X117396815Y-133664185D01*
X117493506Y-133743537D01*
X117603820Y-133802502D01*
X117723518Y-133838812D01*
X117848000Y-133851072D01*
X119348000Y-133851072D01*
X119472482Y-133838812D01*
X119592180Y-133802502D01*
X119702494Y-133743537D01*
X119799185Y-133664185D01*
X119878537Y-133567494D01*
X119937502Y-133457180D01*
X119973812Y-133337482D01*
X119986072Y-133213000D01*
X119986072Y-132033730D01*
X121723678Y-130296124D01*
X121793439Y-130310000D01*
X122046561Y-130310000D01*
X122294821Y-130260619D01*
X122528676Y-130163753D01*
X122739140Y-130023125D01*
X122918125Y-129844140D01*
X122957641Y-129785000D01*
X123382359Y-129785000D01*
X123421875Y-129844140D01*
X123600860Y-130023125D01*
X123811324Y-130163753D01*
X124045179Y-130260619D01*
X124293439Y-130310000D01*
X124382001Y-130310000D01*
X124382000Y-131300913D01*
X124267518Y-131312188D01*
X124147820Y-131348498D01*
X124037506Y-131407463D01*
X123940815Y-131486815D01*
X123861463Y-131583506D01*
X123802498Y-131693820D01*
X123766188Y-131813518D01*
X123753928Y-131938000D01*
X123753928Y-133238000D01*
X123766188Y-133362482D01*
X123802498Y-133482180D01*
X123861463Y-133592494D01*
X123940815Y-133689185D01*
X124037506Y-133768537D01*
X124147820Y-133827502D01*
X124267518Y-133863812D01*
X124392000Y-133876072D01*
X125892000Y-133876072D01*
X126016482Y-133863812D01*
X126136180Y-133827502D01*
X126246494Y-133768537D01*
X126343185Y-133689185D01*
X126422537Y-133592494D01*
X126481502Y-133482180D01*
X126492000Y-133447573D01*
X126502498Y-133482180D01*
X126561463Y-133592494D01*
X126640815Y-133689185D01*
X126737506Y-133768537D01*
X126847820Y-133827502D01*
X126967518Y-133863812D01*
X127092000Y-133876072D01*
X127556250Y-133873000D01*
X127715000Y-133714250D01*
X127715000Y-132715000D01*
X127695000Y-132715000D01*
X127695000Y-132461000D01*
X127715000Y-132461000D01*
X127715000Y-131461750D01*
X127556250Y-131303000D01*
X127092000Y-131299928D01*
X126967518Y-131312188D01*
X126847820Y-131348498D01*
X126737506Y-131407463D01*
X126640815Y-131486815D01*
X126561463Y-131583506D01*
X126502498Y-131693820D01*
X126492000Y-131728427D01*
X126481502Y-131693820D01*
X126422537Y-131583506D01*
X126343185Y-131486815D01*
X126246494Y-131407463D01*
X126136180Y-131348498D01*
X126016482Y-131312188D01*
X125902000Y-131300913D01*
X125902000Y-129784322D01*
X125905676Y-129746999D01*
X125902000Y-129709676D01*
X125902000Y-129709667D01*
X125891987Y-129608000D01*
X126727928Y-129608000D01*
X126740188Y-129732482D01*
X126776498Y-129852180D01*
X126835463Y-129962494D01*
X126914815Y-130059185D01*
X127011506Y-130138537D01*
X127121820Y-130197502D01*
X127241518Y-130233812D01*
X127366000Y-130246072D01*
X127730250Y-130243000D01*
X127889000Y-130084250D01*
X127889000Y-128985000D01*
X126889750Y-128985000D01*
X126731000Y-129143750D01*
X126727928Y-129608000D01*
X125891987Y-129608000D01*
X125891003Y-129598014D01*
X125847546Y-129454753D01*
X125776974Y-129322724D01*
X125691637Y-129218741D01*
X125705000Y-129151561D01*
X125705000Y-128898439D01*
X125655619Y-128650179D01*
X125558753Y-128416324D01*
X125418125Y-128205860D01*
X125239140Y-128026875D01*
X125028676Y-127886247D01*
X124794821Y-127789381D01*
X124546561Y-127740000D01*
X124293439Y-127740000D01*
X124045179Y-127789381D01*
X123811324Y-127886247D01*
X123600860Y-128026875D01*
X123421875Y-128205860D01*
X123382359Y-128265000D01*
X122957641Y-128265000D01*
X122918125Y-128205860D01*
X122739140Y-128026875D01*
X122528676Y-127886247D01*
X122294821Y-127789381D01*
X122046561Y-127740000D01*
X121793439Y-127740000D01*
X121545179Y-127789381D01*
X121311324Y-127886247D01*
X121100860Y-128026875D01*
X120921875Y-128205860D01*
X120781247Y-128416324D01*
X120684381Y-128650179D01*
X120670000Y-128722479D01*
X120655619Y-128650179D01*
X120558753Y-128416324D01*
X120418125Y-128205860D01*
X120239140Y-128026875D01*
X120028676Y-127886247D01*
X119794821Y-127789381D01*
X119546561Y-127740000D01*
X119293439Y-127740000D01*
X119045179Y-127789381D01*
X118811324Y-127886247D01*
X118600860Y-128026875D01*
X118529735Y-128098000D01*
X117111087Y-128098000D01*
X117099812Y-127983518D01*
X117063502Y-127863820D01*
X117004537Y-127753506D01*
X116925185Y-127656815D01*
X116828494Y-127577463D01*
X116718180Y-127518498D01*
X116683573Y-127508000D01*
X116718180Y-127497502D01*
X116828494Y-127438537D01*
X116925185Y-127359185D01*
X117004537Y-127262494D01*
X117063502Y-127152180D01*
X117099812Y-127032482D01*
X117111087Y-126918000D01*
X118834678Y-126918000D01*
X118872000Y-126921676D01*
X118909322Y-126918000D01*
X118909333Y-126918000D01*
X119020986Y-126907003D01*
X119152785Y-126867023D01*
X119293439Y-126895000D01*
X119546561Y-126895000D01*
X119794821Y-126845619D01*
X120028676Y-126748753D01*
X120239140Y-126608125D01*
X120418125Y-126429140D01*
X120457641Y-126370000D01*
X120492678Y-126370000D01*
X120530000Y-126373676D01*
X120567322Y-126370000D01*
X120882359Y-126370000D01*
X120921875Y-126429140D01*
X121100860Y-126608125D01*
X121311324Y-126748753D01*
X121545179Y-126845619D01*
X121793439Y-126895000D01*
X122046561Y-126895000D01*
X122294821Y-126845619D01*
X122528676Y-126748753D01*
X122739140Y-126608125D01*
X122918125Y-126429140D01*
X123058753Y-126218676D01*
X123155619Y-125984821D01*
X123170000Y-125912521D01*
X123184381Y-125984821D01*
X123281247Y-126218676D01*
X123421875Y-126429140D01*
X123600860Y-126608125D01*
X123811324Y-126748753D01*
X124045179Y-126845619D01*
X124293439Y-126895000D01*
X124546561Y-126895000D01*
X124687215Y-126867023D01*
X124819014Y-126907003D01*
X124930667Y-126918000D01*
X124930676Y-126918000D01*
X124967999Y-126921676D01*
X125005322Y-126918000D01*
X126728913Y-126918000D01*
X126740188Y-127032482D01*
X126776498Y-127152180D01*
X126835463Y-127262494D01*
X126914815Y-127359185D01*
X127011506Y-127438537D01*
X127121820Y-127497502D01*
X127156427Y-127508000D01*
X127121820Y-127518498D01*
X127011506Y-127577463D01*
X126914815Y-127656815D01*
X126835463Y-127753506D01*
X126776498Y-127863820D01*
X126740188Y-127983518D01*
X126727928Y-128108000D01*
X126731000Y-128572250D01*
X126889750Y-128731000D01*
X127889000Y-128731000D01*
X127889000Y-128711000D01*
X128143000Y-128711000D01*
X128143000Y-128731000D01*
X128163000Y-128731000D01*
X128163000Y-128985000D01*
X128143000Y-128985000D01*
X128143000Y-130084250D01*
X128301750Y-130243000D01*
X128666000Y-130246072D01*
X128780000Y-130234844D01*
X128780000Y-131331456D01*
X128716482Y-131312188D01*
X128592000Y-131299928D01*
X128127750Y-131303000D01*
X127969000Y-131461750D01*
X127969000Y-132461000D01*
X127989000Y-132461000D01*
X127989000Y-132715000D01*
X127969000Y-132715000D01*
X127969000Y-133714250D01*
X128127750Y-133873000D01*
X128592000Y-133876072D01*
X128716482Y-133863812D01*
X128780000Y-133844544D01*
X128780001Y-157673196D01*
X126685199Y-159768000D01*
X123481323Y-159768000D01*
X123444000Y-159764324D01*
X123406677Y-159768000D01*
X123406667Y-159768000D01*
X123295014Y-159778997D01*
X123151753Y-159822454D01*
X123019723Y-159893026D01*
X122936083Y-159961668D01*
X122903999Y-159987999D01*
X122880201Y-160016997D01*
X118869003Y-164028196D01*
X118839999Y-164051999D01*
X118784871Y-164119174D01*
X118745026Y-164167724D01*
X118674455Y-164299753D01*
X118674454Y-164299754D01*
X118630997Y-164443015D01*
X118620000Y-164554668D01*
X118620000Y-164554678D01*
X118616324Y-164592000D01*
X118620000Y-164629323D01*
X118620001Y-167452762D01*
X118605518Y-167454188D01*
X118485820Y-167490498D01*
X118375506Y-167549463D01*
X118278815Y-167628815D01*
X118199463Y-167725506D01*
X118140498Y-167835820D01*
X118104188Y-167955518D01*
X118091928Y-168080000D01*
X118091928Y-169420000D01*
X115587013Y-169420000D01*
X115585000Y-169115750D01*
X115426250Y-168957000D01*
X114427000Y-168957000D01*
X114427000Y-168977000D01*
X114173000Y-168977000D01*
X114173000Y-168957000D01*
X114153000Y-168957000D01*
X114153000Y-168703000D01*
X114173000Y-168703000D01*
X114173000Y-167603750D01*
X114427000Y-167603750D01*
X114427000Y-168703000D01*
X115426250Y-168703000D01*
X115585000Y-168544250D01*
X115588072Y-168080000D01*
X115575812Y-167955518D01*
X115539502Y-167835820D01*
X115480537Y-167725506D01*
X115401185Y-167628815D01*
X115304494Y-167549463D01*
X115194180Y-167490498D01*
X115074482Y-167454188D01*
X114950000Y-167441928D01*
X114585750Y-167445000D01*
X114427000Y-167603750D01*
X114173000Y-167603750D01*
X114014250Y-167445000D01*
X113650000Y-167441928D01*
X113536000Y-167453156D01*
X113536000Y-166013816D01*
X115305000Y-166013816D01*
X115305000Y-166316184D01*
X115363989Y-166612743D01*
X115479701Y-166892095D01*
X115647688Y-167143505D01*
X115861495Y-167357312D01*
X116112905Y-167525299D01*
X116392257Y-167641011D01*
X116688816Y-167700000D01*
X116991184Y-167700000D01*
X117287743Y-167641011D01*
X117567095Y-167525299D01*
X117818505Y-167357312D01*
X118032312Y-167143505D01*
X118200299Y-166892095D01*
X118316011Y-166612743D01*
X118375000Y-166316184D01*
X118375000Y-166013816D01*
X118316011Y-165717257D01*
X118200299Y-165437905D01*
X118032312Y-165186495D01*
X117818505Y-164972688D01*
X117567095Y-164804701D01*
X117287743Y-164688989D01*
X116991184Y-164630000D01*
X116688816Y-164630000D01*
X116392257Y-164688989D01*
X116112905Y-164804701D01*
X115861495Y-164972688D01*
X115647688Y-165186495D01*
X115479701Y-165437905D01*
X115363989Y-165717257D01*
X115305000Y-166013816D01*
X113536000Y-166013816D01*
X113536000Y-164129080D01*
X115955525Y-164129080D01*
X116039208Y-164383261D01*
X116311775Y-164514158D01*
X116604642Y-164589365D01*
X116906553Y-164605991D01*
X117205907Y-164563397D01*
X117491199Y-164463222D01*
X117640792Y-164383261D01*
X117724475Y-164129080D01*
X116840000Y-163244605D01*
X115955525Y-164129080D01*
X113536000Y-164129080D01*
X113536000Y-163131553D01*
X115299009Y-163131553D01*
X115341603Y-163430907D01*
X115441778Y-163716199D01*
X115521739Y-163865792D01*
X115775920Y-163949475D01*
X116660395Y-163065000D01*
X117019605Y-163065000D01*
X117904080Y-163949475D01*
X118158261Y-163865792D01*
X118289158Y-163593225D01*
X118364365Y-163300358D01*
X118380991Y-162998447D01*
X118338397Y-162699093D01*
X118238222Y-162413801D01*
X118158261Y-162264208D01*
X117904080Y-162180525D01*
X117019605Y-163065000D01*
X116660395Y-163065000D01*
X115775920Y-162180525D01*
X115521739Y-162264208D01*
X115390842Y-162536775D01*
X115315635Y-162829642D01*
X115299009Y-163131553D01*
X113536000Y-163131553D01*
X113536000Y-162000920D01*
X115955525Y-162000920D01*
X116840000Y-162885395D01*
X117724475Y-162000920D01*
X117640792Y-161746739D01*
X117368225Y-161615842D01*
X117075358Y-161540635D01*
X116773447Y-161524009D01*
X116474093Y-161566603D01*
X116188801Y-161666778D01*
X116039208Y-161746739D01*
X115955525Y-162000920D01*
X113536000Y-162000920D01*
X113536000Y-153777740D01*
X115355000Y-153777740D01*
X115355000Y-154070260D01*
X115412068Y-154357158D01*
X115524010Y-154627411D01*
X115686525Y-154870632D01*
X115893368Y-155077475D01*
X116067760Y-155194000D01*
X115893368Y-155310525D01*
X115686525Y-155517368D01*
X115524010Y-155760589D01*
X115412068Y-156030842D01*
X115355000Y-156317740D01*
X115355000Y-156610260D01*
X115412068Y-156897158D01*
X115524010Y-157167411D01*
X115686525Y-157410632D01*
X115893368Y-157617475D01*
X116136589Y-157779990D01*
X116406842Y-157891932D01*
X116693740Y-157949000D01*
X116986260Y-157949000D01*
X117273158Y-157891932D01*
X117543411Y-157779990D01*
X117786632Y-157617475D01*
X117993475Y-157410632D01*
X118115195Y-157228466D01*
X118184822Y-157345355D01*
X118379731Y-157561588D01*
X118613080Y-157735641D01*
X118875901Y-157860825D01*
X119023110Y-157905476D01*
X119253000Y-157784155D01*
X119253000Y-156591000D01*
X119507000Y-156591000D01*
X119507000Y-157784155D01*
X119736890Y-157905476D01*
X119884099Y-157860825D01*
X120146920Y-157735641D01*
X120380269Y-157561588D01*
X120575178Y-157345355D01*
X120650000Y-157219745D01*
X120724822Y-157345355D01*
X120919731Y-157561588D01*
X121153080Y-157735641D01*
X121415901Y-157860825D01*
X121563110Y-157905476D01*
X121793000Y-157784155D01*
X121793000Y-156591000D01*
X122047000Y-156591000D01*
X122047000Y-157784155D01*
X122276890Y-157905476D01*
X122424099Y-157860825D01*
X122686920Y-157735641D01*
X122920269Y-157561588D01*
X123115178Y-157345355D01*
X123190000Y-157219745D01*
X123264822Y-157345355D01*
X123459731Y-157561588D01*
X123693080Y-157735641D01*
X123955901Y-157860825D01*
X124103110Y-157905476D01*
X124333000Y-157784155D01*
X124333000Y-156591000D01*
X122047000Y-156591000D01*
X121793000Y-156591000D01*
X119507000Y-156591000D01*
X119253000Y-156591000D01*
X119233000Y-156591000D01*
X119233000Y-156337000D01*
X119253000Y-156337000D01*
X119253000Y-154051000D01*
X119507000Y-154051000D01*
X119507000Y-156337000D01*
X121793000Y-156337000D01*
X121793000Y-154051000D01*
X122047000Y-154051000D01*
X122047000Y-156337000D01*
X124333000Y-156337000D01*
X124333000Y-154051000D01*
X122047000Y-154051000D01*
X121793000Y-154051000D01*
X119507000Y-154051000D01*
X119253000Y-154051000D01*
X119233000Y-154051000D01*
X119233000Y-153797000D01*
X119253000Y-153797000D01*
X119253000Y-152603845D01*
X119507000Y-152603845D01*
X119507000Y-153797000D01*
X121793000Y-153797000D01*
X121793000Y-152603845D01*
X122047000Y-152603845D01*
X122047000Y-153797000D01*
X124333000Y-153797000D01*
X124333000Y-152603845D01*
X124103110Y-152482524D01*
X123955901Y-152527175D01*
X123693080Y-152652359D01*
X123459731Y-152826412D01*
X123264822Y-153042645D01*
X123190000Y-153168255D01*
X123115178Y-153042645D01*
X122920269Y-152826412D01*
X122686920Y-152652359D01*
X122424099Y-152527175D01*
X122276890Y-152482524D01*
X122047000Y-152603845D01*
X121793000Y-152603845D01*
X121563110Y-152482524D01*
X121415901Y-152527175D01*
X121153080Y-152652359D01*
X120919731Y-152826412D01*
X120724822Y-153042645D01*
X120650000Y-153168255D01*
X120575178Y-153042645D01*
X120380269Y-152826412D01*
X120146920Y-152652359D01*
X119884099Y-152527175D01*
X119736890Y-152482524D01*
X119507000Y-152603845D01*
X119253000Y-152603845D01*
X119023110Y-152482524D01*
X118875901Y-152527175D01*
X118613080Y-152652359D01*
X118379731Y-152826412D01*
X118184822Y-153042645D01*
X118115195Y-153159534D01*
X117993475Y-152977368D01*
X117786632Y-152770525D01*
X117600000Y-152645822D01*
X117600000Y-150376072D01*
X117988000Y-150376072D01*
X118112482Y-150363812D01*
X118232180Y-150327502D01*
X118342494Y-150268537D01*
X118439185Y-150189185D01*
X118518537Y-150092494D01*
X118577502Y-149982180D01*
X118613812Y-149862482D01*
X118626072Y-149738000D01*
X118626072Y-146238000D01*
X124545928Y-146238000D01*
X124545928Y-149738000D01*
X124558188Y-149862482D01*
X124594498Y-149982180D01*
X124653463Y-150092494D01*
X124732815Y-150189185D01*
X124829506Y-150268537D01*
X124939820Y-150327502D01*
X125059518Y-150363812D01*
X125184000Y-150376072D01*
X125224000Y-150376072D01*
X125224000Y-150838677D01*
X125220324Y-150876000D01*
X125224000Y-150913322D01*
X125224000Y-150913332D01*
X125234997Y-151024985D01*
X125266344Y-151128323D01*
X125278454Y-151168246D01*
X125349026Y-151300276D01*
X125388871Y-151348826D01*
X125443999Y-151416001D01*
X125473002Y-151439804D01*
X126240001Y-152206803D01*
X126240001Y-152435928D01*
X126150000Y-152435928D01*
X126025518Y-152448188D01*
X125905820Y-152484498D01*
X125795506Y-152543463D01*
X125698815Y-152622815D01*
X125619463Y-152719506D01*
X125560498Y-152829820D01*
X125536034Y-152910466D01*
X125460269Y-152826412D01*
X125226920Y-152652359D01*
X124964099Y-152527175D01*
X124816890Y-152482524D01*
X124587000Y-152603845D01*
X124587000Y-153797000D01*
X124607000Y-153797000D01*
X124607000Y-154051000D01*
X124587000Y-154051000D01*
X124587000Y-156337000D01*
X124607000Y-156337000D01*
X124607000Y-156591000D01*
X124587000Y-156591000D01*
X124587000Y-157784155D01*
X124816890Y-157905476D01*
X124964099Y-157860825D01*
X125226920Y-157735641D01*
X125460269Y-157561588D01*
X125655178Y-157345355D01*
X125724805Y-157228466D01*
X125846525Y-157410632D01*
X126053368Y-157617475D01*
X126296589Y-157779990D01*
X126566842Y-157891932D01*
X126853740Y-157949000D01*
X127146260Y-157949000D01*
X127433158Y-157891932D01*
X127703411Y-157779990D01*
X127946632Y-157617475D01*
X128153475Y-157410632D01*
X128315990Y-157167411D01*
X128427932Y-156897158D01*
X128485000Y-156610260D01*
X128485000Y-156317740D01*
X128427932Y-156030842D01*
X128315990Y-155760589D01*
X128153475Y-155517368D01*
X128021620Y-155385513D01*
X128094180Y-155363502D01*
X128204494Y-155304537D01*
X128301185Y-155225185D01*
X128380537Y-155128494D01*
X128439502Y-155018180D01*
X128475812Y-154898482D01*
X128488072Y-154774000D01*
X128488072Y-153074000D01*
X128475812Y-152949518D01*
X128439502Y-152829820D01*
X128380537Y-152719506D01*
X128301185Y-152622815D01*
X128204494Y-152543463D01*
X128094180Y-152484498D01*
X127974482Y-152448188D01*
X127850000Y-152435928D01*
X127760000Y-152435928D01*
X127760000Y-151929322D01*
X127763676Y-151892000D01*
X127760000Y-151854677D01*
X127760000Y-151854667D01*
X127749003Y-151743014D01*
X127705546Y-151599753D01*
X127658092Y-151510974D01*
X127634974Y-151467723D01*
X127563799Y-151380997D01*
X127540001Y-151351999D01*
X127511003Y-151328201D01*
X126744000Y-150561199D01*
X126744000Y-150376072D01*
X126784000Y-150376072D01*
X126908482Y-150363812D01*
X127028180Y-150327502D01*
X127138494Y-150268537D01*
X127235185Y-150189185D01*
X127314537Y-150092494D01*
X127373502Y-149982180D01*
X127409812Y-149862482D01*
X127422072Y-149738000D01*
X127422072Y-146238000D01*
X127409812Y-146113518D01*
X127373502Y-145993820D01*
X127314537Y-145883506D01*
X127235185Y-145786815D01*
X127138494Y-145707463D01*
X127028180Y-145648498D01*
X126908482Y-145612188D01*
X126784000Y-145599928D01*
X125184000Y-145599928D01*
X125059518Y-145612188D01*
X124939820Y-145648498D01*
X124829506Y-145707463D01*
X124732815Y-145786815D01*
X124653463Y-145883506D01*
X124594498Y-145993820D01*
X124558188Y-146113518D01*
X124545928Y-146238000D01*
X118626072Y-146238000D01*
X118613812Y-146113518D01*
X118577502Y-145993820D01*
X118518537Y-145883506D01*
X118439185Y-145786815D01*
X118342494Y-145707463D01*
X118232180Y-145648498D01*
X118112482Y-145612188D01*
X117988000Y-145599928D01*
X116388000Y-145599928D01*
X116263518Y-145612188D01*
X116143820Y-145648498D01*
X116033506Y-145707463D01*
X115936815Y-145786815D01*
X115857463Y-145883506D01*
X115798498Y-145993820D01*
X115762188Y-146113518D01*
X115749928Y-146238000D01*
X115749928Y-149738000D01*
X115762188Y-149862482D01*
X115798498Y-149982180D01*
X115857463Y-150092494D01*
X115936815Y-150189185D01*
X116033506Y-150268537D01*
X116080001Y-150293389D01*
X116080000Y-152645821D01*
X115893368Y-152770525D01*
X115686525Y-152977368D01*
X115524010Y-153220589D01*
X115412068Y-153490842D01*
X115355000Y-153777740D01*
X113536000Y-153777740D01*
X113536000Y-144338000D01*
X115749928Y-144338000D01*
X115762188Y-144462482D01*
X115798498Y-144582180D01*
X115857463Y-144692494D01*
X115936815Y-144789185D01*
X116033506Y-144868537D01*
X116143820Y-144927502D01*
X116263518Y-144963812D01*
X116388000Y-144976072D01*
X116902250Y-144973000D01*
X117061000Y-144814250D01*
X117061000Y-142715000D01*
X117315000Y-142715000D01*
X117315000Y-144814250D01*
X117473750Y-144973000D01*
X117988000Y-144976072D01*
X118112482Y-144963812D01*
X118232180Y-144927502D01*
X118342494Y-144868537D01*
X118439185Y-144789185D01*
X118518537Y-144692494D01*
X118577502Y-144582180D01*
X118613812Y-144462482D01*
X118626072Y-144338000D01*
X124545928Y-144338000D01*
X124558188Y-144462482D01*
X124594498Y-144582180D01*
X124653463Y-144692494D01*
X124732815Y-144789185D01*
X124829506Y-144868537D01*
X124939820Y-144927502D01*
X125059518Y-144963812D01*
X125184000Y-144976072D01*
X125698250Y-144973000D01*
X125857000Y-144814250D01*
X125857000Y-142715000D01*
X126111000Y-142715000D01*
X126111000Y-144814250D01*
X126269750Y-144973000D01*
X126784000Y-144976072D01*
X126908482Y-144963812D01*
X127028180Y-144927502D01*
X127138494Y-144868537D01*
X127235185Y-144789185D01*
X127314537Y-144692494D01*
X127373502Y-144582180D01*
X127409812Y-144462482D01*
X127422072Y-144338000D01*
X127419000Y-142873750D01*
X127260250Y-142715000D01*
X126111000Y-142715000D01*
X125857000Y-142715000D01*
X124707750Y-142715000D01*
X124549000Y-142873750D01*
X124545928Y-144338000D01*
X118626072Y-144338000D01*
X118623000Y-142873750D01*
X118464250Y-142715000D01*
X117315000Y-142715000D01*
X117061000Y-142715000D01*
X115911750Y-142715000D01*
X115753000Y-142873750D01*
X115749928Y-144338000D01*
X113536000Y-144338000D01*
X113536000Y-140838000D01*
X115749928Y-140838000D01*
X115753000Y-142302250D01*
X115911750Y-142461000D01*
X117061000Y-142461000D01*
X117061000Y-140361750D01*
X117315000Y-140361750D01*
X117315000Y-142461000D01*
X118464250Y-142461000D01*
X118623000Y-142302250D01*
X118626072Y-140838000D01*
X124545928Y-140838000D01*
X124549000Y-142302250D01*
X124707750Y-142461000D01*
X125857000Y-142461000D01*
X125857000Y-140361750D01*
X126111000Y-140361750D01*
X126111000Y-142461000D01*
X127260250Y-142461000D01*
X127419000Y-142302250D01*
X127422072Y-140838000D01*
X127409812Y-140713518D01*
X127373502Y-140593820D01*
X127314537Y-140483506D01*
X127235185Y-140386815D01*
X127138494Y-140307463D01*
X127028180Y-140248498D01*
X126908482Y-140212188D01*
X126784000Y-140199928D01*
X126269750Y-140203000D01*
X126111000Y-140361750D01*
X125857000Y-140361750D01*
X125698250Y-140203000D01*
X125184000Y-140199928D01*
X125059518Y-140212188D01*
X124939820Y-140248498D01*
X124829506Y-140307463D01*
X124732815Y-140386815D01*
X124653463Y-140483506D01*
X124594498Y-140593820D01*
X124558188Y-140713518D01*
X124545928Y-140838000D01*
X118626072Y-140838000D01*
X118613812Y-140713518D01*
X118577502Y-140593820D01*
X118518537Y-140483506D01*
X118439185Y-140386815D01*
X118342494Y-140307463D01*
X118232180Y-140248498D01*
X118112482Y-140212188D01*
X117988000Y-140199928D01*
X117473750Y-140203000D01*
X117315000Y-140361750D01*
X117061000Y-140361750D01*
X116902250Y-140203000D01*
X116388000Y-140199928D01*
X116263518Y-140212188D01*
X116143820Y-140248498D01*
X116033506Y-140307463D01*
X115936815Y-140386815D01*
X115857463Y-140483506D01*
X115798498Y-140593820D01*
X115762188Y-140713518D01*
X115749928Y-140838000D01*
X113536000Y-140838000D01*
X113536000Y-136363967D01*
X115485000Y-136363967D01*
X115485000Y-136686033D01*
X115547832Y-137001912D01*
X115671082Y-137299463D01*
X115850013Y-137567252D01*
X116077748Y-137794987D01*
X116345537Y-137973918D01*
X116643088Y-138097168D01*
X116958967Y-138160000D01*
X117281033Y-138160000D01*
X117596912Y-138097168D01*
X117894463Y-137973918D01*
X118162252Y-137794987D01*
X118389987Y-137567252D01*
X118568918Y-137299463D01*
X118692168Y-137001912D01*
X118755000Y-136686033D01*
X118755000Y-136363967D01*
X125085000Y-136363967D01*
X125085000Y-136686033D01*
X125147832Y-137001912D01*
X125271082Y-137299463D01*
X125450013Y-137567252D01*
X125677748Y-137794987D01*
X125945537Y-137973918D01*
X126243088Y-138097168D01*
X126558967Y-138160000D01*
X126881033Y-138160000D01*
X127196912Y-138097168D01*
X127494463Y-137973918D01*
X127762252Y-137794987D01*
X127989987Y-137567252D01*
X128168918Y-137299463D01*
X128292168Y-137001912D01*
X128355000Y-136686033D01*
X128355000Y-136363967D01*
X128292168Y-136048088D01*
X128168918Y-135750537D01*
X127989987Y-135482748D01*
X127762252Y-135255013D01*
X127494463Y-135076082D01*
X127196912Y-134952832D01*
X126881033Y-134890000D01*
X126558967Y-134890000D01*
X126243088Y-134952832D01*
X125945537Y-135076082D01*
X125677748Y-135255013D01*
X125450013Y-135482748D01*
X125271082Y-135750537D01*
X125147832Y-136048088D01*
X125085000Y-136363967D01*
X118755000Y-136363967D01*
X118692168Y-136048088D01*
X118568918Y-135750537D01*
X118389987Y-135482748D01*
X118162252Y-135255013D01*
X117894463Y-135076082D01*
X117596912Y-134952832D01*
X117281033Y-134890000D01*
X116958967Y-134890000D01*
X116643088Y-134952832D01*
X116345537Y-135076082D01*
X116077748Y-135255013D01*
X115850013Y-135482748D01*
X115671082Y-135750537D01*
X115547832Y-136048088D01*
X115485000Y-136363967D01*
X113536000Y-136363967D01*
X113536000Y-133213000D01*
X114709928Y-133213000D01*
X114722188Y-133337482D01*
X114758498Y-133457180D01*
X114817463Y-133567494D01*
X114896815Y-133664185D01*
X114993506Y-133743537D01*
X115103820Y-133802502D01*
X115223518Y-133838812D01*
X115348000Y-133851072D01*
X115812250Y-133848000D01*
X115971000Y-133689250D01*
X115971000Y-132715000D01*
X114871750Y-132715000D01*
X114713000Y-132873750D01*
X114709928Y-133213000D01*
X113536000Y-133213000D01*
X113536000Y-131963000D01*
X114709928Y-131963000D01*
X114713000Y-132302250D01*
X114871750Y-132461000D01*
X115971000Y-132461000D01*
X115971000Y-131486750D01*
X115812250Y-131328000D01*
X115348000Y-131324928D01*
X115223518Y-131337188D01*
X115103820Y-131373498D01*
X114993506Y-131432463D01*
X114896815Y-131511815D01*
X114817463Y-131608506D01*
X114758498Y-131718820D01*
X114722188Y-131838518D01*
X114709928Y-131963000D01*
X113536000Y-131963000D01*
X113536000Y-115556544D01*
X113599518Y-115575812D01*
G36*
X117184188Y-112159482D02*
G01*
X117220498Y-112279180D01*
X117279463Y-112389494D01*
X117358815Y-112486185D01*
X117455506Y-112565537D01*
X117565820Y-112624502D01*
X117685518Y-112660812D01*
X117810000Y-112673072D01*
X118410000Y-112673072D01*
X118534482Y-112660812D01*
X118654180Y-112624502D01*
X118745000Y-112575957D01*
X118835820Y-112624502D01*
X118955518Y-112660812D01*
X119080000Y-112673072D01*
X119218271Y-112673072D01*
X121160000Y-114614803D01*
X121160000Y-115046138D01*
X121029750Y-115047000D01*
X120871000Y-115205750D01*
X120871000Y-116205000D01*
X120891000Y-116205000D01*
X120891000Y-116459000D01*
X120871000Y-116459000D01*
X120871000Y-117458250D01*
X121029750Y-117617000D01*
X121160001Y-117617862D01*
X121160001Y-118326668D01*
X121156324Y-118364000D01*
X121170998Y-118512985D01*
X121214454Y-118656246D01*
X121285026Y-118788276D01*
X121350252Y-118867753D01*
X121380000Y-118904001D01*
X121408998Y-118927799D01*
X121925890Y-119444692D01*
X121864815Y-119494815D01*
X121785463Y-119591506D01*
X121726498Y-119701820D01*
X121690188Y-119821518D01*
X121677928Y-119946000D01*
X121677928Y-120846000D01*
X121690188Y-120970482D01*
X121726498Y-121090180D01*
X121785463Y-121200494D01*
X121864815Y-121297185D01*
X121956001Y-121372019D01*
X121956000Y-121959981D01*
X121864815Y-122034815D01*
X121785463Y-122131506D01*
X121726498Y-122241820D01*
X121690188Y-122361518D01*
X121677928Y-122486000D01*
X121677928Y-123386000D01*
X121690188Y-123510482D01*
X121726498Y-123630180D01*
X121785463Y-123740494D01*
X121864815Y-123837185D01*
X121961506Y-123916537D01*
X122071820Y-123975502D01*
X122191518Y-124011812D01*
X122316000Y-124024072D01*
X122729271Y-124024072D01*
X123458967Y-124753768D01*
X123421875Y-124790860D01*
X123281247Y-125001324D01*
X123184381Y-125235179D01*
X123170000Y-125307479D01*
X123155619Y-125235179D01*
X123058753Y-125001324D01*
X122918125Y-124790860D01*
X122739140Y-124611875D01*
X122528676Y-124471247D01*
X122294821Y-124374381D01*
X122046561Y-124325000D01*
X121793439Y-124325000D01*
X121545179Y-124374381D01*
X121376000Y-124444457D01*
X121376000Y-123912018D01*
X121467185Y-123837185D01*
X121546537Y-123740494D01*
X121605502Y-123630180D01*
X121641812Y-123510482D01*
X121654072Y-123386000D01*
X121654072Y-122486000D01*
X121641812Y-122361518D01*
X121605502Y-122241820D01*
X121546537Y-122131506D01*
X121467185Y-122034815D01*
X121376000Y-121959982D01*
X121376000Y-121372018D01*
X121467185Y-121297185D01*
X121546537Y-121200494D01*
X121605502Y-121090180D01*
X121641812Y-120970482D01*
X121654072Y-120846000D01*
X121654072Y-119946000D01*
X121641812Y-119821518D01*
X121605502Y-119701820D01*
X121546537Y-119591506D01*
X121467185Y-119494815D01*
X121370494Y-119415463D01*
X121260180Y-119356498D01*
X121140482Y-119320188D01*
X121016000Y-119307928D01*
X120216000Y-119307928D01*
X120091518Y-119320188D01*
X119971820Y-119356498D01*
X119861506Y-119415463D01*
X119764815Y-119494815D01*
X119685463Y-119591506D01*
X119626498Y-119701820D01*
X119590188Y-119821518D01*
X119577928Y-119946000D01*
X119577928Y-120846000D01*
X119590188Y-120970482D01*
X119626498Y-121090180D01*
X119685463Y-121200494D01*
X119764815Y-121297185D01*
X119856000Y-121372019D01*
X119856001Y-121959981D01*
X119764815Y-122034815D01*
X119685463Y-122131506D01*
X119626498Y-122241820D01*
X119590188Y-122361518D01*
X119577928Y-122486000D01*
X119577928Y-123386000D01*
X119590188Y-123510482D01*
X119626498Y-123630180D01*
X119685463Y-123740494D01*
X119764815Y-123837185D01*
X119856000Y-123912019D01*
X119856001Y-124399722D01*
X119794821Y-124374381D01*
X119546561Y-124325000D01*
X119293439Y-124325000D01*
X119045179Y-124374381D01*
X118811324Y-124471247D01*
X118600860Y-124611875D01*
X118421875Y-124790860D01*
X118281247Y-125001324D01*
X118184381Y-125235179D01*
X118151995Y-125398000D01*
X117111087Y-125398000D01*
X117099812Y-125283518D01*
X117063502Y-125163820D01*
X117004537Y-125053506D01*
X116925185Y-124956815D01*
X116828494Y-124877463D01*
X116718180Y-124818498D01*
X116598482Y-124782188D01*
X116584000Y-124780762D01*
X116584000Y-120433322D01*
X116587676Y-120396000D01*
X116584000Y-120358677D01*
X116584000Y-120358667D01*
X116573003Y-120247014D01*
X116529546Y-120103753D01*
X116458975Y-119971725D01*
X116458974Y-119971723D01*
X116387799Y-119884997D01*
X116364001Y-119855999D01*
X116335004Y-119832202D01*
X115568000Y-119065199D01*
X115568000Y-118635602D01*
X115671082Y-118884463D01*
X115850013Y-119152252D01*
X116077748Y-119379987D01*
X116345537Y-119558918D01*
X116643088Y-119682168D01*
X116958967Y-119745000D01*
X117281033Y-119745000D01*
X117596912Y-119682168D01*
X117894463Y-119558918D01*
X118162252Y-119379987D01*
X118389987Y-119152252D01*
X118568918Y-118884463D01*
X118692168Y-118586912D01*
X118755000Y-118271033D01*
X118755000Y-117948967D01*
X118692168Y-117633088D01*
X118568918Y-117335537D01*
X118389987Y-117067748D01*
X118304239Y-116982000D01*
X119355928Y-116982000D01*
X119368188Y-117106482D01*
X119404498Y-117226180D01*
X119463463Y-117336494D01*
X119542815Y-117433185D01*
X119639506Y-117512537D01*
X119749820Y-117571502D01*
X119869518Y-117607812D01*
X119994000Y-117620072D01*
X120458250Y-117617000D01*
X120617000Y-117458250D01*
X120617000Y-116459000D01*
X119517750Y-116459000D01*
X119359000Y-116617750D01*
X119355928Y-116982000D01*
X118304239Y-116982000D01*
X118162252Y-116840013D01*
X117894463Y-116661082D01*
X117596912Y-116537832D01*
X117281033Y-116475000D01*
X116958967Y-116475000D01*
X116643088Y-116537832D01*
X116543210Y-116579203D01*
X116573003Y-116480986D01*
X116584000Y-116369333D01*
X116584000Y-116369323D01*
X116587676Y-116332000D01*
X116584000Y-116294678D01*
X116584000Y-115682000D01*
X119355928Y-115682000D01*
X119359000Y-116046250D01*
X119517750Y-116205000D01*
X120617000Y-116205000D01*
X120617000Y-115205750D01*
X120458250Y-115047000D01*
X119994000Y-115043928D01*
X119869518Y-115056188D01*
X119749820Y-115092498D01*
X119639506Y-115151463D01*
X119542815Y-115230815D01*
X119463463Y-115327506D01*
X119404498Y-115437820D01*
X119368188Y-115557518D01*
X119355928Y-115682000D01*
X116584000Y-115682000D01*
X116584000Y-115587013D01*
X116888250Y-115585000D01*
X117047000Y-115426250D01*
X117047000Y-114427000D01*
X117301000Y-114427000D01*
X117301000Y-115426250D01*
X117459750Y-115585000D01*
X117924000Y-115588072D01*
X118048482Y-115575812D01*
X118168180Y-115539502D01*
X118278494Y-115480537D01*
X118375185Y-115401185D01*
X118454537Y-115304494D01*
X118513502Y-115194180D01*
X118549812Y-115074482D01*
X118562072Y-114950000D01*
X118559000Y-114585750D01*
X118400250Y-114427000D01*
X117301000Y-114427000D01*
X117047000Y-114427000D01*
X117027000Y-114427000D01*
X117027000Y-114173000D01*
X117047000Y-114173000D01*
X117047000Y-113173750D01*
X117301000Y-113173750D01*
X117301000Y-114173000D01*
X118400250Y-114173000D01*
X118559000Y-114014250D01*
X118562072Y-113650000D01*
X118549812Y-113525518D01*
X118513502Y-113405820D01*
X118454537Y-113295506D01*
X118375185Y-113198815D01*
X118278494Y-113119463D01*
X118168180Y-113060498D01*
X118048482Y-113024188D01*
X117924000Y-113011928D01*
X117459750Y-113015000D01*
X117301000Y-113173750D01*
X117047000Y-113173750D01*
X116888250Y-113015000D01*
X116584000Y-113012987D01*
X116584000Y-112582801D01*
X117121802Y-112045000D01*
X117172913Y-112045000D01*
X117184188Y-112159482D01*
G37*
X117184188Y-112159482D02*
X117220498Y-112279180D01*
X117279463Y-112389494D01*
X117358815Y-112486185D01*
X117455506Y-112565537D01*
X117565820Y-112624502D01*
X117685518Y-112660812D01*
X117810000Y-112673072D01*
X118410000Y-112673072D01*
X118534482Y-112660812D01*
X118654180Y-112624502D01*
X118745000Y-112575957D01*
X118835820Y-112624502D01*
X118955518Y-112660812D01*
X119080000Y-112673072D01*
X119218271Y-112673072D01*
X121160000Y-114614803D01*
X121160000Y-115046138D01*
X121029750Y-115047000D01*
X120871000Y-115205750D01*
X120871000Y-116205000D01*
X120891000Y-116205000D01*
X120891000Y-116459000D01*
X120871000Y-116459000D01*
X120871000Y-117458250D01*
X121029750Y-117617000D01*
X121160001Y-117617862D01*
X121160001Y-118326668D01*
X121156324Y-118364000D01*
X121170998Y-118512985D01*
X121214454Y-118656246D01*
X121285026Y-118788276D01*
X121350252Y-118867753D01*
X121380000Y-118904001D01*
X121408998Y-118927799D01*
X121925890Y-119444692D01*
X121864815Y-119494815D01*
X121785463Y-119591506D01*
X121726498Y-119701820D01*
X121690188Y-119821518D01*
X121677928Y-119946000D01*
X121677928Y-120846000D01*
X121690188Y-120970482D01*
X121726498Y-121090180D01*
X121785463Y-121200494D01*
X121864815Y-121297185D01*
X121956001Y-121372019D01*
X121956000Y-121959981D01*
X121864815Y-122034815D01*
X121785463Y-122131506D01*
X121726498Y-122241820D01*
X121690188Y-122361518D01*
X121677928Y-122486000D01*
X121677928Y-123386000D01*
X121690188Y-123510482D01*
X121726498Y-123630180D01*
X121785463Y-123740494D01*
X121864815Y-123837185D01*
X121961506Y-123916537D01*
X122071820Y-123975502D01*
X122191518Y-124011812D01*
X122316000Y-124024072D01*
X122729271Y-124024072D01*
X123458967Y-124753768D01*
X123421875Y-124790860D01*
X123281247Y-125001324D01*
X123184381Y-125235179D01*
X123170000Y-125307479D01*
X123155619Y-125235179D01*
X123058753Y-125001324D01*
X122918125Y-124790860D01*
X122739140Y-124611875D01*
X122528676Y-124471247D01*
X122294821Y-124374381D01*
X122046561Y-124325000D01*
X121793439Y-124325000D01*
X121545179Y-124374381D01*
X121376000Y-124444457D01*
X121376000Y-123912018D01*
X121467185Y-123837185D01*
X121546537Y-123740494D01*
X121605502Y-123630180D01*
X121641812Y-123510482D01*
X121654072Y-123386000D01*
X121654072Y-122486000D01*
X121641812Y-122361518D01*
X121605502Y-122241820D01*
X121546537Y-122131506D01*
X121467185Y-122034815D01*
X121376000Y-121959982D01*
X121376000Y-121372018D01*
X121467185Y-121297185D01*
X121546537Y-121200494D01*
X121605502Y-121090180D01*
X121641812Y-120970482D01*
X121654072Y-120846000D01*
X121654072Y-119946000D01*
X121641812Y-119821518D01*
X121605502Y-119701820D01*
X121546537Y-119591506D01*
X121467185Y-119494815D01*
X121370494Y-119415463D01*
X121260180Y-119356498D01*
X121140482Y-119320188D01*
X121016000Y-119307928D01*
X120216000Y-119307928D01*
X120091518Y-119320188D01*
X119971820Y-119356498D01*
X119861506Y-119415463D01*
X119764815Y-119494815D01*
X119685463Y-119591506D01*
X119626498Y-119701820D01*
X119590188Y-119821518D01*
X119577928Y-119946000D01*
X119577928Y-120846000D01*
X119590188Y-120970482D01*
X119626498Y-121090180D01*
X119685463Y-121200494D01*
X119764815Y-121297185D01*
X119856000Y-121372019D01*
X119856001Y-121959981D01*
X119764815Y-122034815D01*
X119685463Y-122131506D01*
X119626498Y-122241820D01*
X119590188Y-122361518D01*
X119577928Y-122486000D01*
X119577928Y-123386000D01*
X119590188Y-123510482D01*
X119626498Y-123630180D01*
X119685463Y-123740494D01*
X119764815Y-123837185D01*
X119856000Y-123912019D01*
X119856001Y-124399722D01*
X119794821Y-124374381D01*
X119546561Y-124325000D01*
X119293439Y-124325000D01*
X119045179Y-124374381D01*
X118811324Y-124471247D01*
X118600860Y-124611875D01*
X118421875Y-124790860D01*
X118281247Y-125001324D01*
X118184381Y-125235179D01*
X118151995Y-125398000D01*
X117111087Y-125398000D01*
X117099812Y-125283518D01*
X117063502Y-125163820D01*
X117004537Y-125053506D01*
X116925185Y-124956815D01*
X116828494Y-124877463D01*
X116718180Y-124818498D01*
X116598482Y-124782188D01*
X116584000Y-124780762D01*
X116584000Y-120433322D01*
X116587676Y-120396000D01*
X116584000Y-120358677D01*
X116584000Y-120358667D01*
X116573003Y-120247014D01*
X116529546Y-120103753D01*
X116458975Y-119971725D01*
X116458974Y-119971723D01*
X116387799Y-119884997D01*
X116364001Y-119855999D01*
X116335004Y-119832202D01*
X115568000Y-119065199D01*
X115568000Y-118635602D01*
X115671082Y-118884463D01*
X115850013Y-119152252D01*
X116077748Y-119379987D01*
X116345537Y-119558918D01*
X116643088Y-119682168D01*
X116958967Y-119745000D01*
X117281033Y-119745000D01*
X117596912Y-119682168D01*
X117894463Y-119558918D01*
X118162252Y-119379987D01*
X118389987Y-119152252D01*
X118568918Y-118884463D01*
X118692168Y-118586912D01*
X118755000Y-118271033D01*
X118755000Y-117948967D01*
X118692168Y-117633088D01*
X118568918Y-117335537D01*
X118389987Y-117067748D01*
X118304239Y-116982000D01*
X119355928Y-116982000D01*
X119368188Y-117106482D01*
X119404498Y-117226180D01*
X119463463Y-117336494D01*
X119542815Y-117433185D01*
X119639506Y-117512537D01*
X119749820Y-117571502D01*
X119869518Y-117607812D01*
X119994000Y-117620072D01*
X120458250Y-117617000D01*
X120617000Y-117458250D01*
X120617000Y-116459000D01*
X119517750Y-116459000D01*
X119359000Y-116617750D01*
X119355928Y-116982000D01*
X118304239Y-116982000D01*
X118162252Y-116840013D01*
X117894463Y-116661082D01*
X117596912Y-116537832D01*
X117281033Y-116475000D01*
X116958967Y-116475000D01*
X116643088Y-116537832D01*
X116543210Y-116579203D01*
X116573003Y-116480986D01*
X116584000Y-116369333D01*
X116584000Y-116369323D01*
X116587676Y-116332000D01*
X116584000Y-116294678D01*
X116584000Y-115682000D01*
X119355928Y-115682000D01*
X119359000Y-116046250D01*
X119517750Y-116205000D01*
X120617000Y-116205000D01*
X120617000Y-115205750D01*
X120458250Y-115047000D01*
X119994000Y-115043928D01*
X119869518Y-115056188D01*
X119749820Y-115092498D01*
X119639506Y-115151463D01*
X119542815Y-115230815D01*
X119463463Y-115327506D01*
X119404498Y-115437820D01*
X119368188Y-115557518D01*
X119355928Y-115682000D01*
X116584000Y-115682000D01*
X116584000Y-115587013D01*
X116888250Y-115585000D01*
X117047000Y-115426250D01*
X117047000Y-114427000D01*
X117301000Y-114427000D01*
X117301000Y-115426250D01*
X117459750Y-115585000D01*
X117924000Y-115588072D01*
X118048482Y-115575812D01*
X118168180Y-115539502D01*
X118278494Y-115480537D01*
X118375185Y-115401185D01*
X118454537Y-115304494D01*
X118513502Y-115194180D01*
X118549812Y-115074482D01*
X118562072Y-114950000D01*
X118559000Y-114585750D01*
X118400250Y-114427000D01*
X117301000Y-114427000D01*
X117047000Y-114427000D01*
X117027000Y-114427000D01*
X117027000Y-114173000D01*
X117047000Y-114173000D01*
X117047000Y-113173750D01*
X117301000Y-113173750D01*
X117301000Y-114173000D01*
X118400250Y-114173000D01*
X118559000Y-114014250D01*
X118562072Y-113650000D01*
X118549812Y-113525518D01*
X118513502Y-113405820D01*
X118454537Y-113295506D01*
X118375185Y-113198815D01*
X118278494Y-113119463D01*
X118168180Y-113060498D01*
X118048482Y-113024188D01*
X117924000Y-113011928D01*
X117459750Y-113015000D01*
X117301000Y-113173750D01*
X117047000Y-113173750D01*
X116888250Y-113015000D01*
X116584000Y-113012987D01*
X116584000Y-112582801D01*
X117121802Y-112045000D01*
X117172913Y-112045000D01*
X117184188Y-112159482D01*
G36*
X124819014Y-96253003D02*
G01*
X124930667Y-96264000D01*
X124930675Y-96264000D01*
X124968000Y-96267676D01*
X125005325Y-96264000D01*
X125647379Y-96264000D01*
X125680498Y-96373180D01*
X125739463Y-96483494D01*
X125818815Y-96580185D01*
X125915506Y-96659537D01*
X126025820Y-96718502D01*
X126145518Y-96754812D01*
X126270000Y-96767072D01*
X127770000Y-96767072D01*
X127894482Y-96754812D01*
X128014180Y-96718502D01*
X128124494Y-96659537D01*
X128221185Y-96580185D01*
X128270000Y-96520704D01*
X128318815Y-96580185D01*
X128415506Y-96659537D01*
X128525820Y-96718502D01*
X128645518Y-96754812D01*
X128770000Y-96767072D01*
X128780001Y-96767072D01*
X128780000Y-97174762D01*
X128765518Y-97176188D01*
X128645820Y-97212498D01*
X128535506Y-97271463D01*
X128438815Y-97350815D01*
X128359463Y-97447506D01*
X128300498Y-97557820D01*
X128264188Y-97677518D01*
X128251928Y-97802000D01*
X128251928Y-99120940D01*
X128168918Y-98920537D01*
X127989987Y-98652748D01*
X127762252Y-98425013D01*
X127494463Y-98246082D01*
X127196912Y-98122832D01*
X126881033Y-98060000D01*
X126558967Y-98060000D01*
X126243088Y-98122832D01*
X125945537Y-98246082D01*
X125677748Y-98425013D01*
X125450013Y-98652748D01*
X125271082Y-98920537D01*
X125147832Y-99218088D01*
X125085000Y-99533967D01*
X125085000Y-99856033D01*
X125147832Y-100171912D01*
X125271082Y-100469463D01*
X125450013Y-100737252D01*
X125677748Y-100964987D01*
X125945537Y-101143918D01*
X126243088Y-101267168D01*
X126558967Y-101330000D01*
X126881033Y-101330000D01*
X127196912Y-101267168D01*
X127494463Y-101143918D01*
X127762252Y-100964987D01*
X127989987Y-100737252D01*
X128168918Y-100469463D01*
X128292168Y-100171912D01*
X128355000Y-99856033D01*
X128355000Y-99648144D01*
X128359463Y-99656494D01*
X128438815Y-99753185D01*
X128535506Y-99832537D01*
X128645820Y-99891502D01*
X128680427Y-99902000D01*
X128645820Y-99912498D01*
X128535506Y-99971463D01*
X128438815Y-100050815D01*
X128359463Y-100147506D01*
X128300498Y-100257820D01*
X128264188Y-100377518D01*
X128251928Y-100502000D01*
X128251928Y-102002000D01*
X128264188Y-102126482D01*
X128300498Y-102246180D01*
X128359463Y-102356494D01*
X128438815Y-102453185D01*
X128535506Y-102532537D01*
X128645820Y-102591502D01*
X128765518Y-102627812D01*
X128780001Y-102629238D01*
X128780000Y-102762762D01*
X128765518Y-102764188D01*
X128645820Y-102800498D01*
X128535506Y-102859463D01*
X128438815Y-102938815D01*
X128359463Y-103035506D01*
X128300498Y-103145820D01*
X128264188Y-103265518D01*
X128251928Y-103390000D01*
X128251928Y-104353270D01*
X127480199Y-105125000D01*
X126667087Y-105125000D01*
X126655812Y-105010518D01*
X126619502Y-104890820D01*
X126560537Y-104780506D01*
X126481185Y-104683815D01*
X126384494Y-104604463D01*
X126274180Y-104545498D01*
X126154482Y-104509188D01*
X126030000Y-104496928D01*
X125430000Y-104496928D01*
X125305518Y-104509188D01*
X125185820Y-104545498D01*
X125095000Y-104594043D01*
X125004180Y-104545498D01*
X124884482Y-104509188D01*
X124760000Y-104496928D01*
X124416432Y-104496928D01*
X124439226Y-104441898D01*
X124479000Y-104241939D01*
X124479000Y-104038061D01*
X124439226Y-103838102D01*
X124361205Y-103649744D01*
X124247937Y-103480226D01*
X124103774Y-103336063D01*
X124082692Y-103321977D01*
X124094000Y-103322072D01*
X124218482Y-103309812D01*
X124338180Y-103273502D01*
X124448494Y-103214537D01*
X124545185Y-103135185D01*
X124624537Y-103038494D01*
X124683502Y-102928180D01*
X124719812Y-102808482D01*
X124732072Y-102684000D01*
X124729000Y-102219750D01*
X124570250Y-102061000D01*
X123571000Y-102061000D01*
X123571000Y-102081000D01*
X123317000Y-102081000D01*
X123317000Y-102061000D01*
X123297000Y-102061000D01*
X123297000Y-101807000D01*
X123317000Y-101807000D01*
X123317000Y-101787000D01*
X123571000Y-101787000D01*
X123571000Y-101807000D01*
X124570250Y-101807000D01*
X124729000Y-101648250D01*
X124732072Y-101184000D01*
X124719812Y-101059518D01*
X124683502Y-100939820D01*
X124624537Y-100829506D01*
X124545185Y-100732815D01*
X124448494Y-100653463D01*
X124338180Y-100594498D01*
X124303573Y-100584000D01*
X124338180Y-100573502D01*
X124448494Y-100514537D01*
X124545185Y-100435185D01*
X124624537Y-100338494D01*
X124683502Y-100228180D01*
X124719812Y-100108482D01*
X124732072Y-99984000D01*
X124732072Y-98484000D01*
X124719812Y-98359518D01*
X124683502Y-98239820D01*
X124624537Y-98129506D01*
X124547916Y-98036142D01*
X124629494Y-97992537D01*
X124726185Y-97913185D01*
X124805537Y-97816494D01*
X124864502Y-97706180D01*
X124900812Y-97586482D01*
X124913072Y-97462000D01*
X124913072Y-96662000D01*
X124900812Y-96537518D01*
X124864502Y-96417820D01*
X124805537Y-96307506D01*
X124741515Y-96229494D01*
X124819014Y-96253003D01*
G37*
X124819014Y-96253003D02*
X124930667Y-96264000D01*
X124930675Y-96264000D01*
X124968000Y-96267676D01*
X125005325Y-96264000D01*
X125647379Y-96264000D01*
X125680498Y-96373180D01*
X125739463Y-96483494D01*
X125818815Y-96580185D01*
X125915506Y-96659537D01*
X126025820Y-96718502D01*
X126145518Y-96754812D01*
X126270000Y-96767072D01*
X127770000Y-96767072D01*
X127894482Y-96754812D01*
X128014180Y-96718502D01*
X128124494Y-96659537D01*
X128221185Y-96580185D01*
X128270000Y-96520704D01*
X128318815Y-96580185D01*
X128415506Y-96659537D01*
X128525820Y-96718502D01*
X128645518Y-96754812D01*
X128770000Y-96767072D01*
X128780001Y-96767072D01*
X128780000Y-97174762D01*
X128765518Y-97176188D01*
X128645820Y-97212498D01*
X128535506Y-97271463D01*
X128438815Y-97350815D01*
X128359463Y-97447506D01*
X128300498Y-97557820D01*
X128264188Y-97677518D01*
X128251928Y-97802000D01*
X128251928Y-99120940D01*
X128168918Y-98920537D01*
X127989987Y-98652748D01*
X127762252Y-98425013D01*
X127494463Y-98246082D01*
X127196912Y-98122832D01*
X126881033Y-98060000D01*
X126558967Y-98060000D01*
X126243088Y-98122832D01*
X125945537Y-98246082D01*
X125677748Y-98425013D01*
X125450013Y-98652748D01*
X125271082Y-98920537D01*
X125147832Y-99218088D01*
X125085000Y-99533967D01*
X125085000Y-99856033D01*
X125147832Y-100171912D01*
X125271082Y-100469463D01*
X125450013Y-100737252D01*
X125677748Y-100964987D01*
X125945537Y-101143918D01*
X126243088Y-101267168D01*
X126558967Y-101330000D01*
X126881033Y-101330000D01*
X127196912Y-101267168D01*
X127494463Y-101143918D01*
X127762252Y-100964987D01*
X127989987Y-100737252D01*
X128168918Y-100469463D01*
X128292168Y-100171912D01*
X128355000Y-99856033D01*
X128355000Y-99648144D01*
X128359463Y-99656494D01*
X128438815Y-99753185D01*
X128535506Y-99832537D01*
X128645820Y-99891502D01*
X128680427Y-99902000D01*
X128645820Y-99912498D01*
X128535506Y-99971463D01*
X128438815Y-100050815D01*
X128359463Y-100147506D01*
X128300498Y-100257820D01*
X128264188Y-100377518D01*
X128251928Y-100502000D01*
X128251928Y-102002000D01*
X128264188Y-102126482D01*
X128300498Y-102246180D01*
X128359463Y-102356494D01*
X128438815Y-102453185D01*
X128535506Y-102532537D01*
X128645820Y-102591502D01*
X128765518Y-102627812D01*
X128780001Y-102629238D01*
X128780000Y-102762762D01*
X128765518Y-102764188D01*
X128645820Y-102800498D01*
X128535506Y-102859463D01*
X128438815Y-102938815D01*
X128359463Y-103035506D01*
X128300498Y-103145820D01*
X128264188Y-103265518D01*
X128251928Y-103390000D01*
X128251928Y-104353270D01*
X127480199Y-105125000D01*
X126667087Y-105125000D01*
X126655812Y-105010518D01*
X126619502Y-104890820D01*
X126560537Y-104780506D01*
X126481185Y-104683815D01*
X126384494Y-104604463D01*
X126274180Y-104545498D01*
X126154482Y-104509188D01*
X126030000Y-104496928D01*
X125430000Y-104496928D01*
X125305518Y-104509188D01*
X125185820Y-104545498D01*
X125095000Y-104594043D01*
X125004180Y-104545498D01*
X124884482Y-104509188D01*
X124760000Y-104496928D01*
X124416432Y-104496928D01*
X124439226Y-104441898D01*
X124479000Y-104241939D01*
X124479000Y-104038061D01*
X124439226Y-103838102D01*
X124361205Y-103649744D01*
X124247937Y-103480226D01*
X124103774Y-103336063D01*
X124082692Y-103321977D01*
X124094000Y-103322072D01*
X124218482Y-103309812D01*
X124338180Y-103273502D01*
X124448494Y-103214537D01*
X124545185Y-103135185D01*
X124624537Y-103038494D01*
X124683502Y-102928180D01*
X124719812Y-102808482D01*
X124732072Y-102684000D01*
X124729000Y-102219750D01*
X124570250Y-102061000D01*
X123571000Y-102061000D01*
X123571000Y-102081000D01*
X123317000Y-102081000D01*
X123317000Y-102061000D01*
X123297000Y-102061000D01*
X123297000Y-101807000D01*
X123317000Y-101807000D01*
X123317000Y-101787000D01*
X123571000Y-101787000D01*
X123571000Y-101807000D01*
X124570250Y-101807000D01*
X124729000Y-101648250D01*
X124732072Y-101184000D01*
X124719812Y-101059518D01*
X124683502Y-100939820D01*
X124624537Y-100829506D01*
X124545185Y-100732815D01*
X124448494Y-100653463D01*
X124338180Y-100594498D01*
X124303573Y-100584000D01*
X124338180Y-100573502D01*
X124448494Y-100514537D01*
X124545185Y-100435185D01*
X124624537Y-100338494D01*
X124683502Y-100228180D01*
X124719812Y-100108482D01*
X124732072Y-99984000D01*
X124732072Y-98484000D01*
X124719812Y-98359518D01*
X124683502Y-98239820D01*
X124624537Y-98129506D01*
X124547916Y-98036142D01*
X124629494Y-97992537D01*
X124726185Y-97913185D01*
X124805537Y-97816494D01*
X124864502Y-97706180D01*
X124900812Y-97586482D01*
X124913072Y-97462000D01*
X124913072Y-96662000D01*
X124900812Y-96537518D01*
X124864502Y-96417820D01*
X124805537Y-96307506D01*
X124741515Y-96229494D01*
X124819014Y-96253003D01*
G36*
X118714078Y-91309473D02*
G01*
X119420000Y-92015395D01*
X120125922Y-91309473D01*
X120096628Y-91184000D01*
X121243372Y-91184000D01*
X121214078Y-91309473D01*
X121920000Y-92015395D01*
X121934143Y-92001253D01*
X122113748Y-92180858D01*
X122099605Y-92195000D01*
X122805527Y-92900922D01*
X123034201Y-92847534D01*
X123140095Y-92617626D01*
X123169495Y-92494983D01*
X123184381Y-92569821D01*
X123281247Y-92803676D01*
X123421875Y-93014140D01*
X123600860Y-93193125D01*
X123641081Y-93220000D01*
X122973322Y-93220000D01*
X122936000Y-93216324D01*
X122898677Y-93220000D01*
X122898667Y-93220000D01*
X122787014Y-93230997D01*
X122643753Y-93274454D01*
X122511723Y-93345026D01*
X122428083Y-93413668D01*
X122395999Y-93439999D01*
X122372201Y-93468997D01*
X121481000Y-94360198D01*
X121481000Y-94326998D01*
X121322252Y-94326998D01*
X121481000Y-94168250D01*
X121484072Y-94054000D01*
X121471812Y-93929518D01*
X121435502Y-93809820D01*
X121376537Y-93699506D01*
X121297185Y-93602815D01*
X121200494Y-93523463D01*
X121090180Y-93464498D01*
X120970482Y-93428188D01*
X120846000Y-93415928D01*
X120681750Y-93419000D01*
X120523000Y-93577750D01*
X120523000Y-94327000D01*
X120543000Y-94327000D01*
X120543000Y-94581000D01*
X120523000Y-94581000D01*
X120523000Y-95330250D01*
X120681750Y-95489000D01*
X120846000Y-95492072D01*
X120970482Y-95479812D01*
X121090180Y-95443502D01*
X121160000Y-95406182D01*
X121160000Y-95601818D01*
X121090180Y-95564498D01*
X120970482Y-95528188D01*
X120846000Y-95515928D01*
X119946000Y-95515928D01*
X119821518Y-95528188D01*
X119701820Y-95564498D01*
X119591506Y-95623463D01*
X119494815Y-95702815D01*
X119419982Y-95794000D01*
X118324018Y-95794000D01*
X118249185Y-95702815D01*
X118152494Y-95623463D01*
X118042180Y-95564498D01*
X117922482Y-95528188D01*
X117798000Y-95515928D01*
X116898000Y-95515928D01*
X116773518Y-95528188D01*
X116653820Y-95564498D01*
X116543506Y-95623463D01*
X116446815Y-95702815D01*
X116371982Y-95794000D01*
X115588072Y-95794000D01*
X115588072Y-95596000D01*
X115575812Y-95471518D01*
X115539502Y-95351820D01*
X115480537Y-95241506D01*
X115401185Y-95144815D01*
X115304494Y-95065463D01*
X115194180Y-95006498D01*
X115159573Y-94996000D01*
X115194180Y-94985502D01*
X115304494Y-94926537D01*
X115392880Y-94854000D01*
X116259928Y-94854000D01*
X116272188Y-94978482D01*
X116308498Y-95098180D01*
X116367463Y-95208494D01*
X116446815Y-95305185D01*
X116543506Y-95384537D01*
X116653820Y-95443502D01*
X116773518Y-95479812D01*
X116898000Y-95492072D01*
X117062250Y-95489000D01*
X117221000Y-95330250D01*
X117221000Y-94581000D01*
X117475000Y-94581000D01*
X117475000Y-95330250D01*
X117633750Y-95489000D01*
X117798000Y-95492072D01*
X117922482Y-95479812D01*
X118042180Y-95443502D01*
X118152494Y-95384537D01*
X118249185Y-95305185D01*
X118328537Y-95208494D01*
X118387502Y-95098180D01*
X118423812Y-94978482D01*
X118436072Y-94854000D01*
X119307928Y-94854000D01*
X119320188Y-94978482D01*
X119356498Y-95098180D01*
X119415463Y-95208494D01*
X119494815Y-95305185D01*
X119591506Y-95384537D01*
X119701820Y-95443502D01*
X119821518Y-95479812D01*
X119946000Y-95492072D01*
X120110250Y-95489000D01*
X120269000Y-95330250D01*
X120269000Y-94581000D01*
X119469750Y-94581000D01*
X119311000Y-94739750D01*
X119307928Y-94854000D01*
X118436072Y-94854000D01*
X118433000Y-94739750D01*
X118274250Y-94581000D01*
X117475000Y-94581000D01*
X117221000Y-94581000D01*
X116421750Y-94581000D01*
X116263000Y-94739750D01*
X116259928Y-94854000D01*
X115392880Y-94854000D01*
X115401185Y-94847185D01*
X115480537Y-94750494D01*
X115539502Y-94640180D01*
X115575812Y-94520482D01*
X115588072Y-94396000D01*
X115588072Y-94054000D01*
X116259928Y-94054000D01*
X116263000Y-94168250D01*
X116421750Y-94327000D01*
X117221000Y-94327000D01*
X117221000Y-93577750D01*
X117475000Y-93577750D01*
X117475000Y-94327000D01*
X118274250Y-94327000D01*
X118433000Y-94168250D01*
X118436072Y-94054000D01*
X119307928Y-94054000D01*
X119311000Y-94168250D01*
X119469750Y-94327000D01*
X120269000Y-94327000D01*
X120269000Y-93577750D01*
X120110250Y-93419000D01*
X119946000Y-93415928D01*
X119821518Y-93428188D01*
X119701820Y-93464498D01*
X119591506Y-93523463D01*
X119494815Y-93602815D01*
X119415463Y-93699506D01*
X119356498Y-93809820D01*
X119320188Y-93929518D01*
X119307928Y-94054000D01*
X118436072Y-94054000D01*
X118423812Y-93929518D01*
X118387502Y-93809820D01*
X118328537Y-93699506D01*
X118249185Y-93602815D01*
X118152494Y-93523463D01*
X118042180Y-93464498D01*
X117922482Y-93428188D01*
X117798000Y-93415928D01*
X117633750Y-93419000D01*
X117475000Y-93577750D01*
X117221000Y-93577750D01*
X117062250Y-93419000D01*
X116898000Y-93415928D01*
X116773518Y-93428188D01*
X116653820Y-93464498D01*
X116543506Y-93523463D01*
X116446815Y-93602815D01*
X116367463Y-93699506D01*
X116308498Y-93809820D01*
X116272188Y-93929518D01*
X116259928Y-94054000D01*
X115588072Y-94054000D01*
X115588072Y-93432730D01*
X115827003Y-93193799D01*
X115856001Y-93170001D01*
X115902793Y-93112985D01*
X115929430Y-93080527D01*
X118714078Y-93080527D01*
X118767466Y-93309201D01*
X118997374Y-93415095D01*
X119243524Y-93474102D01*
X119496455Y-93483952D01*
X119746449Y-93444270D01*
X119983896Y-93356578D01*
X120072534Y-93309201D01*
X120125922Y-93080527D01*
X121214078Y-93080527D01*
X121267466Y-93309201D01*
X121497374Y-93415095D01*
X121743524Y-93474102D01*
X121996455Y-93483952D01*
X122246449Y-93444270D01*
X122483896Y-93356578D01*
X122572534Y-93309201D01*
X122625922Y-93080527D01*
X121920000Y-92374605D01*
X121214078Y-93080527D01*
X120125922Y-93080527D01*
X119420000Y-92374605D01*
X118714078Y-93080527D01*
X115929430Y-93080527D01*
X115950974Y-93054277D01*
X116021546Y-92922247D01*
X116029508Y-92896000D01*
X116065003Y-92778986D01*
X116076000Y-92667333D01*
X116076000Y-92667323D01*
X116079676Y-92630000D01*
X116076000Y-92592678D01*
X116076000Y-92271455D01*
X118131048Y-92271455D01*
X118170730Y-92521449D01*
X118258422Y-92758896D01*
X118305799Y-92847534D01*
X118534473Y-92900922D01*
X119240395Y-92195000D01*
X119599605Y-92195000D01*
X120305527Y-92900922D01*
X120534201Y-92847534D01*
X120640095Y-92617626D01*
X120667711Y-92502427D01*
X120670730Y-92521449D01*
X120758422Y-92758896D01*
X120805799Y-92847534D01*
X121034473Y-92900922D01*
X121740395Y-92195000D01*
X121034473Y-91489078D01*
X120805799Y-91542466D01*
X120699905Y-91772374D01*
X120672289Y-91887573D01*
X120669270Y-91868551D01*
X120581578Y-91631104D01*
X120534201Y-91542466D01*
X120305527Y-91489078D01*
X119599605Y-92195000D01*
X119240395Y-92195000D01*
X118534473Y-91489078D01*
X118305799Y-91542466D01*
X118199905Y-91772374D01*
X118140898Y-92018524D01*
X118131048Y-92271455D01*
X116076000Y-92271455D01*
X116076000Y-91204072D01*
X117416000Y-91204072D01*
X117540482Y-91191812D01*
X117566235Y-91184000D01*
X118743372Y-91184000D01*
X118714078Y-91309473D01*
G37*
X118714078Y-91309473D02*
X119420000Y-92015395D01*
X120125922Y-91309473D01*
X120096628Y-91184000D01*
X121243372Y-91184000D01*
X121214078Y-91309473D01*
X121920000Y-92015395D01*
X121934143Y-92001253D01*
X122113748Y-92180858D01*
X122099605Y-92195000D01*
X122805527Y-92900922D01*
X123034201Y-92847534D01*
X123140095Y-92617626D01*
X123169495Y-92494983D01*
X123184381Y-92569821D01*
X123281247Y-92803676D01*
X123421875Y-93014140D01*
X123600860Y-93193125D01*
X123641081Y-93220000D01*
X122973322Y-93220000D01*
X122936000Y-93216324D01*
X122898677Y-93220000D01*
X122898667Y-93220000D01*
X122787014Y-93230997D01*
X122643753Y-93274454D01*
X122511723Y-93345026D01*
X122428083Y-93413668D01*
X122395999Y-93439999D01*
X122372201Y-93468997D01*
X121481000Y-94360198D01*
X121481000Y-94326998D01*
X121322252Y-94326998D01*
X121481000Y-94168250D01*
X121484072Y-94054000D01*
X121471812Y-93929518D01*
X121435502Y-93809820D01*
X121376537Y-93699506D01*
X121297185Y-93602815D01*
X121200494Y-93523463D01*
X121090180Y-93464498D01*
X120970482Y-93428188D01*
X120846000Y-93415928D01*
X120681750Y-93419000D01*
X120523000Y-93577750D01*
X120523000Y-94327000D01*
X120543000Y-94327000D01*
X120543000Y-94581000D01*
X120523000Y-94581000D01*
X120523000Y-95330250D01*
X120681750Y-95489000D01*
X120846000Y-95492072D01*
X120970482Y-95479812D01*
X121090180Y-95443502D01*
X121160000Y-95406182D01*
X121160000Y-95601818D01*
X121090180Y-95564498D01*
X120970482Y-95528188D01*
X120846000Y-95515928D01*
X119946000Y-95515928D01*
X119821518Y-95528188D01*
X119701820Y-95564498D01*
X119591506Y-95623463D01*
X119494815Y-95702815D01*
X119419982Y-95794000D01*
X118324018Y-95794000D01*
X118249185Y-95702815D01*
X118152494Y-95623463D01*
X118042180Y-95564498D01*
X117922482Y-95528188D01*
X117798000Y-95515928D01*
X116898000Y-95515928D01*
X116773518Y-95528188D01*
X116653820Y-95564498D01*
X116543506Y-95623463D01*
X116446815Y-95702815D01*
X116371982Y-95794000D01*
X115588072Y-95794000D01*
X115588072Y-95596000D01*
X115575812Y-95471518D01*
X115539502Y-95351820D01*
X115480537Y-95241506D01*
X115401185Y-95144815D01*
X115304494Y-95065463D01*
X115194180Y-95006498D01*
X115159573Y-94996000D01*
X115194180Y-94985502D01*
X115304494Y-94926537D01*
X115392880Y-94854000D01*
X116259928Y-94854000D01*
X116272188Y-94978482D01*
X116308498Y-95098180D01*
X116367463Y-95208494D01*
X116446815Y-95305185D01*
X116543506Y-95384537D01*
X116653820Y-95443502D01*
X116773518Y-95479812D01*
X116898000Y-95492072D01*
X117062250Y-95489000D01*
X117221000Y-95330250D01*
X117221000Y-94581000D01*
X117475000Y-94581000D01*
X117475000Y-95330250D01*
X117633750Y-95489000D01*
X117798000Y-95492072D01*
X117922482Y-95479812D01*
X118042180Y-95443502D01*
X118152494Y-95384537D01*
X118249185Y-95305185D01*
X118328537Y-95208494D01*
X118387502Y-95098180D01*
X118423812Y-94978482D01*
X118436072Y-94854000D01*
X119307928Y-94854000D01*
X119320188Y-94978482D01*
X119356498Y-95098180D01*
X119415463Y-95208494D01*
X119494815Y-95305185D01*
X119591506Y-95384537D01*
X119701820Y-95443502D01*
X119821518Y-95479812D01*
X119946000Y-95492072D01*
X120110250Y-95489000D01*
X120269000Y-95330250D01*
X120269000Y-94581000D01*
X119469750Y-94581000D01*
X119311000Y-94739750D01*
X119307928Y-94854000D01*
X118436072Y-94854000D01*
X118433000Y-94739750D01*
X118274250Y-94581000D01*
X117475000Y-94581000D01*
X117221000Y-94581000D01*
X116421750Y-94581000D01*
X116263000Y-94739750D01*
X116259928Y-94854000D01*
X115392880Y-94854000D01*
X115401185Y-94847185D01*
X115480537Y-94750494D01*
X115539502Y-94640180D01*
X115575812Y-94520482D01*
X115588072Y-94396000D01*
X115588072Y-94054000D01*
X116259928Y-94054000D01*
X116263000Y-94168250D01*
X116421750Y-94327000D01*
X117221000Y-94327000D01*
X117221000Y-93577750D01*
X117475000Y-93577750D01*
X117475000Y-94327000D01*
X118274250Y-94327000D01*
X118433000Y-94168250D01*
X118436072Y-94054000D01*
X119307928Y-94054000D01*
X119311000Y-94168250D01*
X119469750Y-94327000D01*
X120269000Y-94327000D01*
X120269000Y-93577750D01*
X120110250Y-93419000D01*
X119946000Y-93415928D01*
X119821518Y-93428188D01*
X119701820Y-93464498D01*
X119591506Y-93523463D01*
X119494815Y-93602815D01*
X119415463Y-93699506D01*
X119356498Y-93809820D01*
X119320188Y-93929518D01*
X119307928Y-94054000D01*
X118436072Y-94054000D01*
X118423812Y-93929518D01*
X118387502Y-93809820D01*
X118328537Y-93699506D01*
X118249185Y-93602815D01*
X118152494Y-93523463D01*
X118042180Y-93464498D01*
X117922482Y-93428188D01*
X117798000Y-93415928D01*
X117633750Y-93419000D01*
X117475000Y-93577750D01*
X117221000Y-93577750D01*
X117062250Y-93419000D01*
X116898000Y-93415928D01*
X116773518Y-93428188D01*
X116653820Y-93464498D01*
X116543506Y-93523463D01*
X116446815Y-93602815D01*
X116367463Y-93699506D01*
X116308498Y-93809820D01*
X116272188Y-93929518D01*
X116259928Y-94054000D01*
X115588072Y-94054000D01*
X115588072Y-93432730D01*
X115827003Y-93193799D01*
X115856001Y-93170001D01*
X115902793Y-93112985D01*
X115929430Y-93080527D01*
X118714078Y-93080527D01*
X118767466Y-93309201D01*
X118997374Y-93415095D01*
X119243524Y-93474102D01*
X119496455Y-93483952D01*
X119746449Y-93444270D01*
X119983896Y-93356578D01*
X120072534Y-93309201D01*
X120125922Y-93080527D01*
X121214078Y-93080527D01*
X121267466Y-93309201D01*
X121497374Y-93415095D01*
X121743524Y-93474102D01*
X121996455Y-93483952D01*
X122246449Y-93444270D01*
X122483896Y-93356578D01*
X122572534Y-93309201D01*
X122625922Y-93080527D01*
X121920000Y-92374605D01*
X121214078Y-93080527D01*
X120125922Y-93080527D01*
X119420000Y-92374605D01*
X118714078Y-93080527D01*
X115929430Y-93080527D01*
X115950974Y-93054277D01*
X116021546Y-92922247D01*
X116029508Y-92896000D01*
X116065003Y-92778986D01*
X116076000Y-92667333D01*
X116076000Y-92667323D01*
X116079676Y-92630000D01*
X116076000Y-92592678D01*
X116076000Y-92271455D01*
X118131048Y-92271455D01*
X118170730Y-92521449D01*
X118258422Y-92758896D01*
X118305799Y-92847534D01*
X118534473Y-92900922D01*
X119240395Y-92195000D01*
X119599605Y-92195000D01*
X120305527Y-92900922D01*
X120534201Y-92847534D01*
X120640095Y-92617626D01*
X120667711Y-92502427D01*
X120670730Y-92521449D01*
X120758422Y-92758896D01*
X120805799Y-92847534D01*
X121034473Y-92900922D01*
X121740395Y-92195000D01*
X121034473Y-91489078D01*
X120805799Y-91542466D01*
X120699905Y-91772374D01*
X120672289Y-91887573D01*
X120669270Y-91868551D01*
X120581578Y-91631104D01*
X120534201Y-91542466D01*
X120305527Y-91489078D01*
X119599605Y-92195000D01*
X119240395Y-92195000D01*
X118534473Y-91489078D01*
X118305799Y-91542466D01*
X118199905Y-91772374D01*
X118140898Y-92018524D01*
X118131048Y-92271455D01*
X116076000Y-92271455D01*
X116076000Y-91204072D01*
X117416000Y-91204072D01*
X117540482Y-91191812D01*
X117566235Y-91184000D01*
X118743372Y-91184000D01*
X118714078Y-91309473D01*
G36*
X124258607Y-83042407D02*
G01*
X123884000Y-83039928D01*
X123759518Y-83052188D01*
X123639820Y-83088498D01*
X123529506Y-83147463D01*
X123432815Y-83226815D01*
X123353463Y-83323506D01*
X123294498Y-83433820D01*
X123258188Y-83553518D01*
X123245928Y-83678000D01*
X123249000Y-84042250D01*
X123407750Y-84201000D01*
X124507000Y-84201000D01*
X124507000Y-84181000D01*
X124761000Y-84181000D01*
X124761000Y-84201000D01*
X124781000Y-84201000D01*
X124781000Y-84455000D01*
X124761000Y-84455000D01*
X124761000Y-86233000D01*
X124781000Y-86233000D01*
X124781000Y-86487000D01*
X124761000Y-86487000D01*
X124761000Y-86507000D01*
X124507000Y-86507000D01*
X124507000Y-86487000D01*
X123407750Y-86487000D01*
X123249000Y-86645750D01*
X123245928Y-87010000D01*
X123258188Y-87134482D01*
X123294498Y-87254180D01*
X123353463Y-87364494D01*
X123432815Y-87461185D01*
X123529506Y-87540537D01*
X123639820Y-87599502D01*
X123759518Y-87635812D01*
X123813603Y-87641139D01*
X123767466Y-87665799D01*
X123714078Y-87894473D01*
X124420000Y-88600395D01*
X124434143Y-88586253D01*
X124613748Y-88765858D01*
X124599605Y-88780000D01*
X124613748Y-88794143D01*
X124434143Y-88973748D01*
X124420000Y-88959605D01*
X123714078Y-89665527D01*
X123767466Y-89894201D01*
X123997374Y-90000095D01*
X124243524Y-90059102D01*
X124496455Y-90068952D01*
X124746449Y-90029270D01*
X124983896Y-89941578D01*
X125072534Y-89894201D01*
X125125921Y-89665529D01*
X125224000Y-89763608D01*
X125224000Y-91186759D01*
X125028676Y-91056247D01*
X124794821Y-90959381D01*
X124546561Y-90910000D01*
X124293439Y-90910000D01*
X124223678Y-90923876D01*
X123212804Y-89913003D01*
X123189001Y-89883999D01*
X123073276Y-89789026D01*
X122941247Y-89718454D01*
X122838041Y-89687147D01*
X122922398Y-89602790D01*
X122805529Y-89485921D01*
X123034201Y-89432534D01*
X123140095Y-89202626D01*
X123167711Y-89087427D01*
X123170730Y-89106449D01*
X123258422Y-89343896D01*
X123305799Y-89432534D01*
X123534473Y-89485922D01*
X124240395Y-88780000D01*
X123534473Y-88074078D01*
X123305799Y-88127466D01*
X123199905Y-88357374D01*
X123172289Y-88472573D01*
X123169270Y-88453551D01*
X123081578Y-88216104D01*
X123034201Y-88127466D01*
X122805527Y-88074078D01*
X122099605Y-88780000D01*
X122113748Y-88794143D01*
X121934143Y-88973748D01*
X121920000Y-88959605D01*
X121905858Y-88973748D01*
X121726253Y-88794143D01*
X121740395Y-88780000D01*
X121034473Y-88074078D01*
X120805799Y-88127466D01*
X120699905Y-88357374D01*
X120670505Y-88480017D01*
X120655619Y-88405179D01*
X120558753Y-88171324D01*
X120418125Y-87960860D01*
X120351738Y-87894473D01*
X121214078Y-87894473D01*
X121920000Y-88600395D01*
X122625922Y-87894473D01*
X122572534Y-87665799D01*
X122342626Y-87559905D01*
X122096476Y-87500898D01*
X121843545Y-87491048D01*
X121593551Y-87530730D01*
X121356104Y-87618422D01*
X121267466Y-87665799D01*
X121214078Y-87894473D01*
X120351738Y-87894473D01*
X120239140Y-87781875D01*
X120028676Y-87641247D01*
X119794821Y-87544381D01*
X119546561Y-87495000D01*
X119293439Y-87495000D01*
X119045179Y-87544381D01*
X118811324Y-87641247D01*
X118600860Y-87781875D01*
X118460768Y-87921967D01*
X118419804Y-87881003D01*
X118396001Y-87851999D01*
X118280276Y-87757026D01*
X118148247Y-87686454D01*
X118004986Y-87642997D01*
X117936129Y-87636215D01*
X117941812Y-87617482D01*
X117954072Y-87493000D01*
X117954072Y-86243000D01*
X117941812Y-86118518D01*
X117905502Y-85998820D01*
X117846537Y-85888506D01*
X117767185Y-85791815D01*
X117670494Y-85712463D01*
X117560180Y-85653498D01*
X117440482Y-85617188D01*
X117326000Y-85605913D01*
X117326000Y-84978000D01*
X123245928Y-84978000D01*
X123258188Y-85102482D01*
X123294498Y-85222180D01*
X123353463Y-85332494D01*
X123362906Y-85344000D01*
X123353463Y-85355506D01*
X123294498Y-85465820D01*
X123258188Y-85585518D01*
X123245928Y-85710000D01*
X123249000Y-86074250D01*
X123407750Y-86233000D01*
X124507000Y-86233000D01*
X124507000Y-84455000D01*
X123407750Y-84455000D01*
X123249000Y-84613750D01*
X123245928Y-84978000D01*
X117326000Y-84978000D01*
X117326000Y-84626000D01*
X120980678Y-84626000D01*
X121018000Y-84629676D01*
X121055322Y-84626000D01*
X121055333Y-84626000D01*
X121166986Y-84615003D01*
X121310247Y-84571546D01*
X121442276Y-84500974D01*
X121558001Y-84406001D01*
X121581803Y-84376998D01*
X121606729Y-84352072D01*
X122570000Y-84352072D01*
X122694482Y-84339812D01*
X122814180Y-84303502D01*
X122924494Y-84244537D01*
X123021185Y-84165185D01*
X123100537Y-84068494D01*
X123159502Y-83958180D01*
X123195812Y-83838482D01*
X123208072Y-83714000D01*
X123208072Y-82214000D01*
X123195812Y-82089518D01*
X123159502Y-81969820D01*
X123129050Y-81912850D01*
X124258607Y-83042407D01*
G37*
X124258607Y-83042407D02*
X123884000Y-83039928D01*
X123759518Y-83052188D01*
X123639820Y-83088498D01*
X123529506Y-83147463D01*
X123432815Y-83226815D01*
X123353463Y-83323506D01*
X123294498Y-83433820D01*
X123258188Y-83553518D01*
X123245928Y-83678000D01*
X123249000Y-84042250D01*
X123407750Y-84201000D01*
X124507000Y-84201000D01*
X124507000Y-84181000D01*
X124761000Y-84181000D01*
X124761000Y-84201000D01*
X124781000Y-84201000D01*
X124781000Y-84455000D01*
X124761000Y-84455000D01*
X124761000Y-86233000D01*
X124781000Y-86233000D01*
X124781000Y-86487000D01*
X124761000Y-86487000D01*
X124761000Y-86507000D01*
X124507000Y-86507000D01*
X124507000Y-86487000D01*
X123407750Y-86487000D01*
X123249000Y-86645750D01*
X123245928Y-87010000D01*
X123258188Y-87134482D01*
X123294498Y-87254180D01*
X123353463Y-87364494D01*
X123432815Y-87461185D01*
X123529506Y-87540537D01*
X123639820Y-87599502D01*
X123759518Y-87635812D01*
X123813603Y-87641139D01*
X123767466Y-87665799D01*
X123714078Y-87894473D01*
X124420000Y-88600395D01*
X124434143Y-88586253D01*
X124613748Y-88765858D01*
X124599605Y-88780000D01*
X124613748Y-88794143D01*
X124434143Y-88973748D01*
X124420000Y-88959605D01*
X123714078Y-89665527D01*
X123767466Y-89894201D01*
X123997374Y-90000095D01*
X124243524Y-90059102D01*
X124496455Y-90068952D01*
X124746449Y-90029270D01*
X124983896Y-89941578D01*
X125072534Y-89894201D01*
X125125921Y-89665529D01*
X125224000Y-89763608D01*
X125224000Y-91186759D01*
X125028676Y-91056247D01*
X124794821Y-90959381D01*
X124546561Y-90910000D01*
X124293439Y-90910000D01*
X124223678Y-90923876D01*
X123212804Y-89913003D01*
X123189001Y-89883999D01*
X123073276Y-89789026D01*
X122941247Y-89718454D01*
X122838041Y-89687147D01*
X122922398Y-89602790D01*
X122805529Y-89485921D01*
X123034201Y-89432534D01*
X123140095Y-89202626D01*
X123167711Y-89087427D01*
X123170730Y-89106449D01*
X123258422Y-89343896D01*
X123305799Y-89432534D01*
X123534473Y-89485922D01*
X124240395Y-88780000D01*
X123534473Y-88074078D01*
X123305799Y-88127466D01*
X123199905Y-88357374D01*
X123172289Y-88472573D01*
X123169270Y-88453551D01*
X123081578Y-88216104D01*
X123034201Y-88127466D01*
X122805527Y-88074078D01*
X122099605Y-88780000D01*
X122113748Y-88794143D01*
X121934143Y-88973748D01*
X121920000Y-88959605D01*
X121905858Y-88973748D01*
X121726253Y-88794143D01*
X121740395Y-88780000D01*
X121034473Y-88074078D01*
X120805799Y-88127466D01*
X120699905Y-88357374D01*
X120670505Y-88480017D01*
X120655619Y-88405179D01*
X120558753Y-88171324D01*
X120418125Y-87960860D01*
X120351738Y-87894473D01*
X121214078Y-87894473D01*
X121920000Y-88600395D01*
X122625922Y-87894473D01*
X122572534Y-87665799D01*
X122342626Y-87559905D01*
X122096476Y-87500898D01*
X121843545Y-87491048D01*
X121593551Y-87530730D01*
X121356104Y-87618422D01*
X121267466Y-87665799D01*
X121214078Y-87894473D01*
X120351738Y-87894473D01*
X120239140Y-87781875D01*
X120028676Y-87641247D01*
X119794821Y-87544381D01*
X119546561Y-87495000D01*
X119293439Y-87495000D01*
X119045179Y-87544381D01*
X118811324Y-87641247D01*
X118600860Y-87781875D01*
X118460768Y-87921967D01*
X118419804Y-87881003D01*
X118396001Y-87851999D01*
X118280276Y-87757026D01*
X118148247Y-87686454D01*
X118004986Y-87642997D01*
X117936129Y-87636215D01*
X117941812Y-87617482D01*
X117954072Y-87493000D01*
X117954072Y-86243000D01*
X117941812Y-86118518D01*
X117905502Y-85998820D01*
X117846537Y-85888506D01*
X117767185Y-85791815D01*
X117670494Y-85712463D01*
X117560180Y-85653498D01*
X117440482Y-85617188D01*
X117326000Y-85605913D01*
X117326000Y-84978000D01*
X123245928Y-84978000D01*
X123258188Y-85102482D01*
X123294498Y-85222180D01*
X123353463Y-85332494D01*
X123362906Y-85344000D01*
X123353463Y-85355506D01*
X123294498Y-85465820D01*
X123258188Y-85585518D01*
X123245928Y-85710000D01*
X123249000Y-86074250D01*
X123407750Y-86233000D01*
X124507000Y-86233000D01*
X124507000Y-84455000D01*
X123407750Y-84455000D01*
X123249000Y-84613750D01*
X123245928Y-84978000D01*
X117326000Y-84978000D01*
X117326000Y-84626000D01*
X120980678Y-84626000D01*
X121018000Y-84629676D01*
X121055322Y-84626000D01*
X121055333Y-84626000D01*
X121166986Y-84615003D01*
X121310247Y-84571546D01*
X121442276Y-84500974D01*
X121558001Y-84406001D01*
X121581803Y-84376998D01*
X121606729Y-84352072D01*
X122570000Y-84352072D01*
X122694482Y-84339812D01*
X122814180Y-84303502D01*
X122924494Y-84244537D01*
X123021185Y-84165185D01*
X123100537Y-84068494D01*
X123159502Y-83958180D01*
X123195812Y-83838482D01*
X123208072Y-83714000D01*
X123208072Y-82214000D01*
X123195812Y-82089518D01*
X123159502Y-81969820D01*
X123129050Y-81912850D01*
X124258607Y-83042407D01*
%TD*%
M02*
