<?xml version="1.0" standalone="no"?>
 <!DOCTYPE svg PUBLIC "-//W3C//DTD SVG 1.1//EN" 
 "http://www.w3.org/Graphics/SVG/1.1/DTD/svg11.dtd"> 
<svg
  xmlns:svg="http://www.w3.org/2000/svg"
  xmlns="http://www.w3.org/2000/svg"
  xmlns:xlink="http://www.w3.org/1999/xlink"
  version="1.1"
  width="29.700220cm" height="21.000720cm" viewBox="0 0 116930 82680">
<title>SVG Picture created as KickDrumPanel-Edge_Cuts.svg date 2022/12/17 09:46:12 </title>
  <desc>Picture generated by PCBNEW </desc>
<g style="fill:#000000; fill-opacity:1;stroke:#000000; stroke-opacity:1;
stroke-linecap:round; stroke-linejoin:round;"
 transform="translate(0 0) scale(1 1)">
</g>
<g style="fill:#000000; fill-opacity:0.0; 
stroke:#000000; stroke-width:-0.000393701; stroke-opacity:1; 
stroke-linecap:round; stroke-linejoin:round;">
</g>
<g style="fill:#000000; fill-opacity:0.0; 
stroke:#000000; stroke-width:19.685; stroke-opacity:1; 
stroke-linecap:round; stroke-linejoin:round;">
<path d="M61100 65700
L62300 65700
" />
<path d="M61100 65700 A600 600 0.0 0 0 61100 66900" />
<path d="M62300 66900 A600 600 0.0 0 0 62300 65700" />
<path d="M62300 66900
L61100 66900
" />
<path d="M61100 17600 A600 600 0.0 0 0 61100 18800" />
<path d="M62300 18800 A600 600 0.0 0 0 62300 17600" />
<path d="M61100 18800
L62300 18800
" />
<path d="M62300 17600
L61100 17600
" />
<circle cx="62500" cy="31750" r="1353.7" /> 
<circle cx="64500" cy="59250" r="801.561" /> 
<circle cx="60750" cy="59250" r="800" /> 
<circle cx="62500" cy="46250" r="1350" /> 
<circle cx="62500" cy="39000" r="1350" /> 
<circle cx="62500" cy="24500" r="1353.7" /> 
<path d="M66500 67500
L58750 67500
" />
<path d="M66500 62000
L66500 67500
" />
<path d="M58750 62000
L58750 67500
" />
<path d="M66500 17000
L58750 17000
" />
<path d="M66500 22500
L66500 17000
" />
<path d="M58750 22500
L58750 17000
" />
<path d="M66500 62000
L66500 22500
" />
<path d="M58750 22500
L58750 62000
" />
<g >
</g>
</g> 
</svg>
