%TF.GenerationSoftware,KiCad,Pcbnew,(5.1.6-0)*%
%TF.CreationDate,2022-12-04T14:05:47-05:00*%
%TF.ProjectId,KickDrum,4b69636b-4472-4756-9d2e-6b696361645f,rev?*%
%TF.SameCoordinates,Original*%
%TF.FileFunction,Other,Fab,Bot*%
%FSLAX46Y46*%
G04 Gerber Fmt 4.6, Leading zero omitted, Abs format (unit mm)*
G04 Created by KiCad (PCBNEW (5.1.6-0)) date 2022-12-04 14:05:47*
%MOMM*%
%LPD*%
G01*
G04 APERTURE LIST*
%ADD10C,0.150000*%
G04 APERTURE END LIST*
%TO.C,FREQ1*%
D10*
X129595476Y-78557380D02*
X130166904Y-78557380D01*
X129881190Y-78557380D02*
X129881190Y-77557380D01*
X129976428Y-77700238D01*
X130071666Y-77795476D01*
X130166904Y-77843095D01*
X128976428Y-77557380D02*
X128881190Y-77557380D01*
X128785952Y-77605000D01*
X128738333Y-77652619D01*
X128690714Y-77747857D01*
X128643095Y-77938333D01*
X128643095Y-78176428D01*
X128690714Y-78366904D01*
X128738333Y-78462142D01*
X128785952Y-78509761D01*
X128881190Y-78557380D01*
X128976428Y-78557380D01*
X129071666Y-78509761D01*
X129119285Y-78462142D01*
X129166904Y-78366904D01*
X129214523Y-78176428D01*
X129214523Y-77938333D01*
X129166904Y-77747857D01*
X129119285Y-77652619D01*
X129071666Y-77605000D01*
X128976428Y-77557380D01*
X128214523Y-78557380D02*
X128214523Y-77557380D01*
X127643095Y-78557380D02*
X128071666Y-77985952D01*
X127643095Y-77557380D02*
X128214523Y-78128809D01*
%TO.C,TONE1*%
X129595476Y-139517380D02*
X130166904Y-139517380D01*
X129881190Y-139517380D02*
X129881190Y-138517380D01*
X129976428Y-138660238D01*
X130071666Y-138755476D01*
X130166904Y-138803095D01*
X128976428Y-138517380D02*
X128881190Y-138517380D01*
X128785952Y-138565000D01*
X128738333Y-138612619D01*
X128690714Y-138707857D01*
X128643095Y-138898333D01*
X128643095Y-139136428D01*
X128690714Y-139326904D01*
X128738333Y-139422142D01*
X128785952Y-139469761D01*
X128881190Y-139517380D01*
X128976428Y-139517380D01*
X129071666Y-139469761D01*
X129119285Y-139422142D01*
X129166904Y-139326904D01*
X129214523Y-139136428D01*
X129214523Y-138898333D01*
X129166904Y-138707857D01*
X129119285Y-138612619D01*
X129071666Y-138565000D01*
X128976428Y-138517380D01*
X128214523Y-139517380D02*
X128214523Y-138517380D01*
X127643095Y-139517380D02*
X128071666Y-138945952D01*
X127643095Y-138517380D02*
X128214523Y-139088809D01*
%TO.C,DIST1*%
X130071666Y-116022380D02*
X130643095Y-116022380D01*
X130357380Y-116022380D02*
X130357380Y-115022380D01*
X130452619Y-115165238D01*
X130547857Y-115260476D01*
X130643095Y-115308095D01*
X129452619Y-115022380D02*
X129357380Y-115022380D01*
X129262142Y-115070000D01*
X129214523Y-115117619D01*
X129166904Y-115212857D01*
X129119285Y-115403333D01*
X129119285Y-115641428D01*
X129166904Y-115831904D01*
X129214523Y-115927142D01*
X129262142Y-115974761D01*
X129357380Y-116022380D01*
X129452619Y-116022380D01*
X129547857Y-115974761D01*
X129595476Y-115927142D01*
X129643095Y-115831904D01*
X129690714Y-115641428D01*
X129690714Y-115403333D01*
X129643095Y-115212857D01*
X129595476Y-115117619D01*
X129547857Y-115070000D01*
X129452619Y-115022380D01*
X128500238Y-115022380D02*
X128405000Y-115022380D01*
X128309761Y-115070000D01*
X128262142Y-115117619D01*
X128214523Y-115212857D01*
X128166904Y-115403333D01*
X128166904Y-115641428D01*
X128214523Y-115831904D01*
X128262142Y-115927142D01*
X128309761Y-115974761D01*
X128405000Y-116022380D01*
X128500238Y-116022380D01*
X128595476Y-115974761D01*
X128643095Y-115927142D01*
X128690714Y-115831904D01*
X128738333Y-115641428D01*
X128738333Y-115403333D01*
X128690714Y-115212857D01*
X128643095Y-115117619D01*
X128595476Y-115070000D01*
X128500238Y-115022380D01*
X127738333Y-116022380D02*
X127738333Y-115022380D01*
X127166904Y-116022380D02*
X127595476Y-115450952D01*
X127166904Y-115022380D02*
X127738333Y-115593809D01*
%TO.C,DECAY1*%
X130071666Y-94432380D02*
X130643095Y-94432380D01*
X130357380Y-94432380D02*
X130357380Y-93432380D01*
X130452619Y-93575238D01*
X130547857Y-93670476D01*
X130643095Y-93718095D01*
X129452619Y-93432380D02*
X129357380Y-93432380D01*
X129262142Y-93480000D01*
X129214523Y-93527619D01*
X129166904Y-93622857D01*
X129119285Y-93813333D01*
X129119285Y-94051428D01*
X129166904Y-94241904D01*
X129214523Y-94337142D01*
X129262142Y-94384761D01*
X129357380Y-94432380D01*
X129452619Y-94432380D01*
X129547857Y-94384761D01*
X129595476Y-94337142D01*
X129643095Y-94241904D01*
X129690714Y-94051428D01*
X129690714Y-93813333D01*
X129643095Y-93622857D01*
X129595476Y-93527619D01*
X129547857Y-93480000D01*
X129452619Y-93432380D01*
X128500238Y-93432380D02*
X128405000Y-93432380D01*
X128309761Y-93480000D01*
X128262142Y-93527619D01*
X128214523Y-93622857D01*
X128166904Y-93813333D01*
X128166904Y-94051428D01*
X128214523Y-94241904D01*
X128262142Y-94337142D01*
X128309761Y-94384761D01*
X128405000Y-94432380D01*
X128500238Y-94432380D01*
X128595476Y-94384761D01*
X128643095Y-94337142D01*
X128690714Y-94241904D01*
X128738333Y-94051428D01*
X128738333Y-93813333D01*
X128690714Y-93622857D01*
X128643095Y-93527619D01*
X128595476Y-93480000D01*
X128500238Y-93432380D01*
X127738333Y-94432380D02*
X127738333Y-93432380D01*
X127166904Y-94432380D02*
X127595476Y-93860952D01*
X127166904Y-93432380D02*
X127738333Y-94003809D01*
%TO.C,OUT1*%
X121054285Y-177109380D02*
X121054285Y-176109380D01*
X120673333Y-176109380D01*
X120578095Y-176157000D01*
X120530476Y-176204619D01*
X120482857Y-176299857D01*
X120482857Y-176442714D01*
X120530476Y-176537952D01*
X120578095Y-176585571D01*
X120673333Y-176633190D01*
X121054285Y-176633190D01*
X119768571Y-176109380D02*
X119768571Y-176823666D01*
X119816190Y-176966523D01*
X119911428Y-177061761D01*
X120054285Y-177109380D01*
X120149523Y-177109380D01*
X119387619Y-176109380D02*
X118768571Y-176109380D01*
X119101904Y-176490333D01*
X118959047Y-176490333D01*
X118863809Y-176537952D01*
X118816190Y-176585571D01*
X118768571Y-176680809D01*
X118768571Y-176918904D01*
X118816190Y-177014142D01*
X118863809Y-177061761D01*
X118959047Y-177109380D01*
X119244761Y-177109380D01*
X119340000Y-177061761D01*
X119387619Y-177014142D01*
X118149523Y-176109380D02*
X118054285Y-176109380D01*
X117959047Y-176157000D01*
X117911428Y-176204619D01*
X117863809Y-176299857D01*
X117816190Y-176490333D01*
X117816190Y-176728428D01*
X117863809Y-176918904D01*
X117911428Y-177014142D01*
X117959047Y-177061761D01*
X118054285Y-177109380D01*
X118149523Y-177109380D01*
X118244761Y-177061761D01*
X118292380Y-177014142D01*
X118340000Y-176918904D01*
X118387619Y-176728428D01*
X118387619Y-176490333D01*
X118340000Y-176299857D01*
X118292380Y-176204619D01*
X118244761Y-176157000D01*
X118149523Y-176109380D01*
X116863809Y-177109380D02*
X117435238Y-177109380D01*
X117149523Y-177109380D02*
X117149523Y-176109380D01*
X117244761Y-176252238D01*
X117340000Y-176347476D01*
X117435238Y-176395095D01*
X116435238Y-177109380D02*
X116435238Y-176109380D01*
X116101904Y-176823666D01*
X115768571Y-176109380D01*
X115768571Y-177109380D01*
X115292380Y-176728428D02*
X114530476Y-176728428D01*
X113530476Y-177109380D02*
X114101904Y-177109380D01*
X113816190Y-177109380D02*
X113816190Y-176109380D01*
X113911428Y-176252238D01*
X114006666Y-176347476D01*
X114101904Y-176395095D01*
X113149523Y-176204619D02*
X113101904Y-176157000D01*
X113006666Y-176109380D01*
X112768571Y-176109380D01*
X112673333Y-176157000D01*
X112625714Y-176204619D01*
X112578095Y-176299857D01*
X112578095Y-176395095D01*
X112625714Y-176537952D01*
X113197142Y-177109380D01*
X112578095Y-177109380D01*
%TO.C,GATE_IN1*%
X130579285Y-177109380D02*
X130579285Y-176109380D01*
X130198333Y-176109380D01*
X130103095Y-176157000D01*
X130055476Y-176204619D01*
X130007857Y-176299857D01*
X130007857Y-176442714D01*
X130055476Y-176537952D01*
X130103095Y-176585571D01*
X130198333Y-176633190D01*
X130579285Y-176633190D01*
X129293571Y-176109380D02*
X129293571Y-176823666D01*
X129341190Y-176966523D01*
X129436428Y-177061761D01*
X129579285Y-177109380D01*
X129674523Y-177109380D01*
X128912619Y-176109380D02*
X128293571Y-176109380D01*
X128626904Y-176490333D01*
X128484047Y-176490333D01*
X128388809Y-176537952D01*
X128341190Y-176585571D01*
X128293571Y-176680809D01*
X128293571Y-176918904D01*
X128341190Y-177014142D01*
X128388809Y-177061761D01*
X128484047Y-177109380D01*
X128769761Y-177109380D01*
X128865000Y-177061761D01*
X128912619Y-177014142D01*
X127674523Y-176109380D02*
X127579285Y-176109380D01*
X127484047Y-176157000D01*
X127436428Y-176204619D01*
X127388809Y-176299857D01*
X127341190Y-176490333D01*
X127341190Y-176728428D01*
X127388809Y-176918904D01*
X127436428Y-177014142D01*
X127484047Y-177061761D01*
X127579285Y-177109380D01*
X127674523Y-177109380D01*
X127769761Y-177061761D01*
X127817380Y-177014142D01*
X127865000Y-176918904D01*
X127912619Y-176728428D01*
X127912619Y-176490333D01*
X127865000Y-176299857D01*
X127817380Y-176204619D01*
X127769761Y-176157000D01*
X127674523Y-176109380D01*
X126388809Y-177109380D02*
X126960238Y-177109380D01*
X126674523Y-177109380D02*
X126674523Y-176109380D01*
X126769761Y-176252238D01*
X126865000Y-176347476D01*
X126960238Y-176395095D01*
X125960238Y-177109380D02*
X125960238Y-176109380D01*
X125626904Y-176823666D01*
X125293571Y-176109380D01*
X125293571Y-177109380D01*
X124817380Y-176728428D02*
X124055476Y-176728428D01*
X123055476Y-177109380D02*
X123626904Y-177109380D01*
X123341190Y-177109380D02*
X123341190Y-176109380D01*
X123436428Y-176252238D01*
X123531666Y-176347476D01*
X123626904Y-176395095D01*
X122674523Y-176204619D02*
X122626904Y-176157000D01*
X122531666Y-176109380D01*
X122293571Y-176109380D01*
X122198333Y-176157000D01*
X122150714Y-176204619D01*
X122103095Y-176299857D01*
X122103095Y-176395095D01*
X122150714Y-176537952D01*
X122722142Y-177109380D01*
X122103095Y-177109380D01*
%TD*%
M02*
