%TF.GenerationSoftware,KiCad,Pcbnew,(5.1.6-0)*%
%TF.CreationDate,2022-12-06T13:55:02-05:00*%
%TF.ProjectId,KickDrumPanel,4b69636b-4472-4756-9d50-616e656c2e6b,rev?*%
%TF.SameCoordinates,Original*%
%TF.FileFunction,Legend,Top*%
%TF.FilePolarity,Positive*%
%FSLAX46Y46*%
G04 Gerber Fmt 4.6, Leading zero omitted, Abs format (unit mm)*
G04 Created by KiCad (PCBNEW (5.1.6-0)) date 2022-12-06 13:55:02*
%MOMM*%
%LPD*%
G01*
G04 APERTURE LIST*
%ADD10C,0.500000*%
%ADD11C,0.150000*%
%ADD12C,0.200000*%
G04 APERTURE END LIST*
D10*
X151504000Y-136754904D02*
X151504000Y-131754904D01*
X154361142Y-136754904D02*
X152218285Y-133897761D01*
X154361142Y-131754904D02*
X151504000Y-134612047D01*
X156504000Y-136754904D02*
X156504000Y-131754904D01*
X161742095Y-136278714D02*
X161504000Y-136516809D01*
X160789714Y-136754904D01*
X160313523Y-136754904D01*
X159599238Y-136516809D01*
X159123047Y-136040619D01*
X158884952Y-135564428D01*
X158646857Y-134612047D01*
X158646857Y-133897761D01*
X158884952Y-132945380D01*
X159123047Y-132469190D01*
X159599238Y-131993000D01*
X160313523Y-131754904D01*
X160789714Y-131754904D01*
X161504000Y-131993000D01*
X161742095Y-132231095D01*
X163884952Y-136754904D02*
X163884952Y-131754904D01*
X166742095Y-136754904D02*
X164599238Y-133897761D01*
X166742095Y-131754904D02*
X163884952Y-134612047D01*
D11*
X162441190Y-167616666D02*
X162917380Y-167616666D01*
X162345952Y-167902380D02*
X162679285Y-166902380D01*
X163012619Y-167902380D01*
X163822142Y-167902380D02*
X163345952Y-167902380D01*
X163345952Y-166902380D01*
X164631666Y-167902380D02*
X164155476Y-167902380D01*
X164155476Y-166902380D01*
X164965000Y-167378571D02*
X165298333Y-167378571D01*
X165441190Y-167902380D02*
X164965000Y-167902380D01*
X164965000Y-166902380D01*
X165441190Y-166902380D01*
X165869761Y-167902380D02*
X165869761Y-166902380D01*
X166441190Y-167902380D01*
X166441190Y-166902380D01*
X162798333Y-169552380D02*
X162465000Y-169076190D01*
X162226904Y-169552380D02*
X162226904Y-168552380D01*
X162607857Y-168552380D01*
X162703095Y-168600000D01*
X162750714Y-168647619D01*
X162798333Y-168742857D01*
X162798333Y-168885714D01*
X162750714Y-168980952D01*
X162703095Y-169028571D01*
X162607857Y-169076190D01*
X162226904Y-169076190D01*
X163179285Y-169266666D02*
X163655476Y-169266666D01*
X163084047Y-169552380D02*
X163417380Y-168552380D01*
X163750714Y-169552380D01*
X164084047Y-169552380D02*
X164084047Y-168552380D01*
X164655476Y-169552380D01*
X164655476Y-168552380D01*
X165703095Y-169457142D02*
X165655476Y-169504761D01*
X165512619Y-169552380D01*
X165417380Y-169552380D01*
X165274523Y-169504761D01*
X165179285Y-169409523D01*
X165131666Y-169314285D01*
X165084047Y-169123809D01*
X165084047Y-168980952D01*
X165131666Y-168790476D01*
X165179285Y-168695238D01*
X165274523Y-168600000D01*
X165417380Y-168552380D01*
X165512619Y-168552380D01*
X165655476Y-168600000D01*
X165703095Y-168647619D01*
X166131666Y-169552380D02*
X166131666Y-168552380D01*
X166131666Y-169028571D02*
X166703095Y-169028571D01*
X166703095Y-169552380D02*
X166703095Y-168552380D01*
X162703000Y-143089380D02*
X162893476Y-143089380D01*
X162988714Y-143137000D01*
X163083952Y-143232238D01*
X163131571Y-143422714D01*
X163131571Y-143756047D01*
X163083952Y-143946523D01*
X162988714Y-144041761D01*
X162893476Y-144089380D01*
X162703000Y-144089380D01*
X162607761Y-144041761D01*
X162512523Y-143946523D01*
X162464904Y-143756047D01*
X162464904Y-143422714D01*
X162512523Y-143232238D01*
X162607761Y-143137000D01*
X162703000Y-143089380D01*
X163560142Y-143089380D02*
X163560142Y-143898904D01*
X163607761Y-143994142D01*
X163655380Y-144041761D01*
X163750619Y-144089380D01*
X163941095Y-144089380D01*
X164036333Y-144041761D01*
X164083952Y-143994142D01*
X164131571Y-143898904D01*
X164131571Y-143089380D01*
X164464904Y-143089380D02*
X165036333Y-143089380D01*
X164750619Y-144089380D02*
X164750619Y-143089380D01*
X152035142Y-143137000D02*
X151939904Y-143089380D01*
X151797047Y-143089380D01*
X151654190Y-143137000D01*
X151558952Y-143232238D01*
X151511333Y-143327476D01*
X151463714Y-143517952D01*
X151463714Y-143660809D01*
X151511333Y-143851285D01*
X151558952Y-143946523D01*
X151654190Y-144041761D01*
X151797047Y-144089380D01*
X151892285Y-144089380D01*
X152035142Y-144041761D01*
X152082761Y-143994142D01*
X152082761Y-143660809D01*
X151892285Y-143660809D01*
X152463714Y-143803666D02*
X152939904Y-143803666D01*
X152368476Y-144089380D02*
X152701809Y-143089380D01*
X153035142Y-144089380D01*
X153225619Y-143089380D02*
X153797047Y-143089380D01*
X153511333Y-144089380D02*
X153511333Y-143089380D01*
X154130380Y-143565571D02*
X154463714Y-143565571D01*
X154606571Y-144089380D02*
X154130380Y-144089380D01*
X154130380Y-143089380D01*
X154606571Y-143089380D01*
X155797047Y-144089380D02*
X155797047Y-143089380D01*
X156273238Y-144089380D02*
X156273238Y-143089380D01*
X156844666Y-144089380D01*
X156844666Y-143089380D01*
D12*
X166163761Y-121173428D02*
X166163761Y-120030571D01*
X168163761Y-120602000D02*
X166163761Y-120602000D01*
X166163761Y-118982952D02*
X166163761Y-118602000D01*
X166259000Y-118411523D01*
X166449476Y-118221047D01*
X166830428Y-118125809D01*
X167497095Y-118125809D01*
X167878047Y-118221047D01*
X168068523Y-118411523D01*
X168163761Y-118602000D01*
X168163761Y-118982952D01*
X168068523Y-119173428D01*
X167878047Y-119363904D01*
X167497095Y-119459142D01*
X166830428Y-119459142D01*
X166449476Y-119363904D01*
X166259000Y-119173428D01*
X166163761Y-118982952D01*
X168163761Y-117268666D02*
X166163761Y-117268666D01*
X168163761Y-116125809D01*
X166163761Y-116125809D01*
X167116142Y-115173428D02*
X167116142Y-114506761D01*
X168163761Y-114221047D02*
X168163761Y-115173428D01*
X166163761Y-115173428D01*
X166163761Y-114221047D01*
X168163761Y-104583809D02*
X166163761Y-104583809D01*
X166163761Y-104107619D01*
X166259000Y-103821904D01*
X166449476Y-103631428D01*
X166639952Y-103536190D01*
X167020904Y-103440952D01*
X167306619Y-103440952D01*
X167687571Y-103536190D01*
X167878047Y-103631428D01*
X168068523Y-103821904D01*
X168163761Y-104107619D01*
X168163761Y-104583809D01*
X168163761Y-102583809D02*
X166163761Y-102583809D01*
X168068523Y-101726666D02*
X168163761Y-101440952D01*
X168163761Y-100964761D01*
X168068523Y-100774285D01*
X167973285Y-100679047D01*
X167782809Y-100583809D01*
X167592333Y-100583809D01*
X167401857Y-100679047D01*
X167306619Y-100774285D01*
X167211380Y-100964761D01*
X167116142Y-101345714D01*
X167020904Y-101536190D01*
X166925666Y-101631428D01*
X166735190Y-101726666D01*
X166544714Y-101726666D01*
X166354238Y-101631428D01*
X166259000Y-101536190D01*
X166163761Y-101345714D01*
X166163761Y-100869523D01*
X166259000Y-100583809D01*
X166163761Y-100012380D02*
X166163761Y-98869523D01*
X168163761Y-99440952D02*
X166163761Y-99440952D01*
X166163761Y-97821904D02*
X166163761Y-97440952D01*
X166259000Y-97250476D01*
X166449476Y-97060000D01*
X166830428Y-96964761D01*
X167497095Y-96964761D01*
X167878047Y-97060000D01*
X168068523Y-97250476D01*
X168163761Y-97440952D01*
X168163761Y-97821904D01*
X168068523Y-98012380D01*
X167878047Y-98202857D01*
X167497095Y-98298095D01*
X166830428Y-98298095D01*
X166449476Y-98202857D01*
X166259000Y-98012380D01*
X166163761Y-97821904D01*
X168163761Y-94964761D02*
X167211380Y-95631428D01*
X168163761Y-96107619D02*
X166163761Y-96107619D01*
X166163761Y-95345714D01*
X166259000Y-95155238D01*
X166354238Y-95060000D01*
X166544714Y-94964761D01*
X166830428Y-94964761D01*
X167020904Y-95060000D01*
X167116142Y-95155238D01*
X167211380Y-95345714D01*
X167211380Y-96107619D01*
X166163761Y-94393333D02*
X166163761Y-93250476D01*
X168163761Y-93821904D02*
X166163761Y-93821904D01*
X168163761Y-84914857D02*
X166163761Y-84914857D01*
X166163761Y-84438666D01*
X166259000Y-84152952D01*
X166449476Y-83962476D01*
X166639952Y-83867238D01*
X167020904Y-83772000D01*
X167306619Y-83772000D01*
X167687571Y-83867238D01*
X167878047Y-83962476D01*
X168068523Y-84152952D01*
X168163761Y-84438666D01*
X168163761Y-84914857D01*
X167116142Y-82914857D02*
X167116142Y-82248190D01*
X168163761Y-81962476D02*
X168163761Y-82914857D01*
X166163761Y-82914857D01*
X166163761Y-81962476D01*
X167973285Y-79962476D02*
X168068523Y-80057714D01*
X168163761Y-80343428D01*
X168163761Y-80533904D01*
X168068523Y-80819619D01*
X167878047Y-81010095D01*
X167687571Y-81105333D01*
X167306619Y-81200571D01*
X167020904Y-81200571D01*
X166639952Y-81105333D01*
X166449476Y-81010095D01*
X166259000Y-80819619D01*
X166163761Y-80533904D01*
X166163761Y-80343428D01*
X166259000Y-80057714D01*
X166354238Y-79962476D01*
X167592333Y-79200571D02*
X167592333Y-78248190D01*
X168163761Y-79391047D02*
X166163761Y-78724380D01*
X168163761Y-78057714D01*
X167211380Y-77010095D02*
X168163761Y-77010095D01*
X166163761Y-77676761D02*
X167211380Y-77010095D01*
X166163761Y-76343428D01*
X167116142Y-65150666D02*
X167116142Y-65817333D01*
X168163761Y-65817333D02*
X166163761Y-65817333D01*
X166163761Y-64864952D01*
X168163761Y-62960190D02*
X167211380Y-63626857D01*
X168163761Y-64103047D02*
X166163761Y-64103047D01*
X166163761Y-63341142D01*
X166259000Y-63150666D01*
X166354238Y-63055428D01*
X166544714Y-62960190D01*
X166830428Y-62960190D01*
X167020904Y-63055428D01*
X167116142Y-63150666D01*
X167211380Y-63341142D01*
X167211380Y-64103047D01*
X167116142Y-62103047D02*
X167116142Y-61436380D01*
X168163761Y-61150666D02*
X168163761Y-62103047D01*
X166163761Y-62103047D01*
X166163761Y-61150666D01*
X168354238Y-58960190D02*
X168259000Y-59150666D01*
X168068523Y-59341142D01*
X167782809Y-59626857D01*
X167687571Y-59817333D01*
X167687571Y-60007809D01*
X168163761Y-59912571D02*
X168068523Y-60103047D01*
X167878047Y-60293523D01*
X167497095Y-60388761D01*
X166830428Y-60388761D01*
X166449476Y-60293523D01*
X166259000Y-60103047D01*
X166163761Y-59912571D01*
X166163761Y-59531619D01*
X166259000Y-59341142D01*
X166449476Y-59150666D01*
X166830428Y-59055428D01*
X167497095Y-59055428D01*
X167878047Y-59150666D01*
X168068523Y-59341142D01*
X168163761Y-59531619D01*
X168163761Y-59912571D01*
M02*
